<svg width="1913" height="1078" viewBox="0 0 1913 1078" fill="none" xmlns="http://www.w3.org/2000/svg">
<g id="cold_weather" clip-path="url(#clip0_110_536)">
<path id="bakgrund" d="M1912.01 0H1.99023V1078H1912.01V0Z" fill="white"/>
<path id="fugl_9" d="M1700.11 67.226C1700.11 67.226 1655.03 48 1633.12 48C1616.1 48 1608.77 60.376 1603.33 60.4911C1597.88 60.6063 1586.72 46.2155 1574.65 50.5903L1573.88 50.9357C1569.86 50.9733 1565.87 51.4574 1562.01 52.3748C1555.24 53.5385 1548.83 55.8217 1543.15 59.0864C1537.48 62.3512 1532.67 66.5299 1529.01 71.3705C1529.01 71.3705 1553.92 76.0907 1564.46 72.8096C1570.73 71.4197 1577.24 70.9329 1583.72 71.3705C1585.48 75.6301 1588.59 79.4251 1592.72 82.365C1595.12 83.8224 1597.84 84.8746 1600.73 85.4611C1603.63 86.0475 1606.63 86.1566 1609.57 85.7822C1612.52 85.4078 1615.34 84.5571 1617.89 83.2792C1620.43 82.0013 1622.65 80.3212 1624.4 78.3356L1628.24 78.7386C1634.24 79.326 1640.33 78.8493 1646.1 77.3405C1651.86 75.8316 1657.17 73.3253 1661.66 69.989C1650.7 72.4625 1639.12 72.3429 1628.24 69.6436C1652.38 59.8004 1670.32 68.8378 1700.11 67.226Z" fill="#73A2C7"/>
<path id="fugl_8" opacity="0.2" d="M1788.11 233.226C1788.11 233.226 1743.03 214 1721.11 214C1704.09 214 1696.76 226.376 1691.32 226.491C1685.87 226.606 1674.71 212.216 1662.64 216.59L1661.87 216.936C1657.86 216.973 1653.86 217.457 1650.01 218.375C1643.24 219.539 1636.82 221.822 1631.15 225.086C1625.47 228.351 1620.66 232.53 1617 237.371C1617 237.371 1641.91 242.091 1652.45 238.81C1658.72 237.42 1665.24 236.933 1671.71 237.371C1673.47 241.63 1676.58 245.425 1680.71 248.365C1683.11 249.822 1685.83 250.875 1688.73 251.461C1691.62 252.047 1694.62 252.157 1697.57 251.782C1700.51 251.408 1703.34 250.557 1705.88 249.279C1708.42 248.001 1710.64 246.321 1712.39 244.336L1716.23 244.739C1722.24 245.326 1728.32 244.849 1734.09 243.34C1739.85 241.832 1745.16 239.325 1749.66 235.989C1738.7 238.463 1727.11 238.343 1716.23 235.644C1740.37 225.8 1758.31 234.838 1788.11 233.226Z" fill="#73A2C7"/>
<g id="fugl_7">
<path id="Vector" d="M1505.63 185.475C1534.82 177.022 1530.81 159 1530.81 159C1525.64 163.219 1519.35 166.357 1512.45 168.158C1498.38 172.736 1495.85 180.72 1493.04 180.837C1492.05 180.837 1490.65 179.898 1489.03 178.783C1487.33 177.481 1485.35 176.465 1483.19 175.789C1479.18 173.755 1474.94 172.064 1470.53 170.741C1463.61 169.402 1456.52 168.771 1449.42 168.862C1449.42 168.862 1467.5 183.42 1483.33 185.768C1484.15 188.242 1485.81 190.465 1488.11 192.167C1489.33 192.907 1490.7 193.44 1492.16 193.734C1493.62 194.029 1495.14 194.079 1496.62 193.883C1498.11 193.686 1499.53 193.247 1500.81 192.59C1502.09 191.932 1503.2 191.071 1504.08 190.054H1506.05C1509.07 190.366 1512.14 190.129 1515.04 189.359C1517.94 188.589 1520.61 187.304 1522.86 185.592C1517.22 186.942 1511.24 186.901 1505.63 185.475Z" fill="#90CAF9"/>
</g>
<g id="fugl_6">
<path id="Vector_2" opacity="0.2" d="M1505.94 185.475C1535.14 177.022 1531.13 159 1531.13 159C1525.96 163.219 1519.67 166.357 1512.77 168.158C1498.7 172.736 1496.17 180.72 1493.35 180.837C1492.37 180.837 1490.96 179.898 1489.34 178.783C1487.64 177.481 1485.66 176.465 1483.5 175.789C1479.5 173.755 1475.25 172.064 1470.84 170.741C1463.92 169.402 1456.84 168.771 1449.74 168.862C1449.74 168.862 1467.82 183.42 1483.64 185.768C1484.46 188.242 1486.12 190.465 1488.43 192.167C1489.64 192.907 1491.02 193.44 1492.48 193.734C1493.94 194.029 1495.45 194.079 1496.94 193.883C1498.42 193.686 1499.84 193.247 1501.12 192.59C1502.4 191.932 1503.52 191.071 1504.4 190.054H1506.36C1509.39 190.366 1512.45 190.129 1515.36 189.359C1518.26 188.589 1520.93 187.304 1523.18 185.592C1517.54 186.942 1511.55 186.901 1505.94 185.475Z" fill="black"/>
</g>
<g id="fugl_5">
<path id="Vector_3" opacity="0.2" d="M1484.2 311.475C1513.4 303.022 1509.39 285 1509.39 285C1504.22 289.219 1497.93 292.357 1491.03 294.158C1476.96 298.736 1474.43 306.72 1471.61 306.837C1470.63 306.837 1469.22 305.898 1467.6 304.783C1465.91 303.481 1463.92 302.465 1461.76 301.789C1457.76 299.755 1453.52 298.064 1449.1 296.741C1442.19 295.402 1435.1 294.771 1428 294.862C1428 294.862 1446.08 309.42 1461.91 311.768C1462.72 314.242 1464.39 316.465 1466.69 318.167C1467.9 318.907 1469.28 319.44 1470.74 319.734C1472.2 320.029 1473.72 320.079 1475.2 319.883C1476.68 319.686 1478.11 319.247 1479.39 318.59C1480.67 317.932 1481.78 317.071 1482.66 316.054H1484.63C1487.65 316.366 1490.72 316.129 1493.62 315.359C1496.52 314.589 1499.19 313.304 1501.44 311.592C1495.8 312.942 1489.82 312.901 1484.2 311.475Z" fill="#90CAF9"/>
</g>
<g id="fugl_1">
<path id="Vector_4" d="M1109.79 122.931C1158.12 108.969 1151.69 79 1151.69 79C1151.69 79 1144.71 86.5944 1121.24 94.2472C1097.77 101.9 1093.79 115.103 1089.18 115.219C1087.58 115.219 1085.27 113.701 1082.55 111.831H1082.2C1079.38 109.675 1076.12 107.971 1072.56 106.807C1065.93 103.443 1058.91 100.645 1051.61 98.4534C1040.17 96.2035 1028.44 95.144 1016.69 95.2988C1016.69 95.2988 1046.65 119.543 1072.56 123.398C1073.94 127.504 1076.74 131.181 1080.59 133.972C1084.64 136.436 1089.7 137.457 1094.65 136.811C1099.59 136.165 1104.03 133.904 1106.99 130.525L1110.21 130.876C1115.22 131.394 1120.31 131.006 1125.13 129.736C1129.95 128.466 1134.39 126.344 1138.14 123.515C1128.82 125.614 1118.97 125.411 1109.79 122.931Z" fill="#90CAF9"/>
</g>
<g id="fugl_3">
<path id="Vector_5" opacity="0.2" d="M1653.2 362.475C1682.4 354.022 1678.39 336 1678.39 336C1673.22 340.219 1666.93 343.357 1660.03 345.158C1645.96 349.736 1643.43 357.72 1640.61 357.837C1639.63 357.837 1638.22 356.898 1636.6 355.783C1634.91 354.481 1632.92 353.465 1630.76 352.789C1626.76 350.755 1622.52 349.064 1618.1 347.741C1611.19 346.402 1604.1 345.771 1597 345.862C1597 345.862 1615.08 360.42 1630.91 362.768C1631.72 365.242 1633.39 367.465 1635.69 369.167C1636.9 369.907 1638.28 370.44 1639.74 370.734C1641.2 371.029 1642.72 371.079 1644.2 370.883C1645.68 370.686 1647.11 370.247 1648.39 369.59C1649.67 368.932 1650.78 368.071 1651.66 367.054H1653.63C1656.65 367.366 1659.72 367.129 1662.62 366.359C1665.52 365.589 1668.19 364.304 1670.44 362.592C1664.8 363.942 1658.82 363.901 1653.2 362.475Z" fill="#69BCFF"/>
</g>
<g id="fugl_2">
<path id="Vector_6" opacity="0.2" d="M1316.1 287.931C1364.43 273.969 1358.01 244 1358.01 244C1358.01 244 1351.02 251.594 1327.56 259.247C1304.09 266.9 1300.11 280.103 1295.5 280.219C1293.89 280.219 1291.59 278.701 1288.86 276.831H1288.51C1285.7 274.675 1282.43 272.971 1278.88 271.807C1272.24 268.443 1265.22 265.645 1257.92 263.453C1246.48 261.204 1234.75 260.144 1223 260.299C1223 260.299 1252.96 284.543 1278.88 288.398C1280.26 292.504 1283.05 296.181 1286.91 298.972C1290.96 301.436 1296.01 302.457 1300.96 301.811C1305.91 301.165 1310.35 298.904 1313.31 295.525L1316.52 295.876C1321.54 296.394 1326.63 296.006 1331.45 294.736C1336.27 293.466 1340.7 291.344 1344.46 288.515C1335.14 290.614 1325.29 290.411 1316.1 287.931Z" fill="#005AA3"/>
</g>
<g id="fjell_2">
<path id="Vector_7" d="M1936 888C1761.86 888 1768.38 888 1594.17 888C1419.97 888 1413.45 888 1239.31 888C1065.16 888 1076.5 888 902.354 888L916.48 855.952L1059.92 804.186L1175.84 656.782L1338.84 624.543L1515.64 540L1717.95 638.269L1765.1 742.878L1908.54 844.318L1936 888Z" fill="#0046E2"/>
<path id="Vector_8" opacity="0.7" d="M1936 888C1761.86 888 1748.63 888 1574.43 888C1400.23 888 1413.45 888 1239.31 888C1065.16 888 1068.14 888 894 888L916.48 855.952L1059.92 804.186L1175.84 656.782L1338.84 624.543L1515.64 540L1717.95 638.269L1765.1 742.878L1908.54 844.318L1936 888Z" fill="white"/>
<path id="Vector_9" opacity="0.8" d="M1175.84 656.782L1189.57 756.097L1325.11 673.139L1338.84 624.543L1175.84 656.782Z" fill="white"/>
<path id="Vector_10" opacity="0.5" d="M1338.84 804.186L1189.57 756.097L1325.11 673.139H1444.92L1338.84 804.186Z" fill="white"/>
<path id="Vector_11" opacity="0.7" d="M1338.84 804.186L1189.57 756.097L1124.74 789.382L1080.54 853.32L1338.84 804.186Z" fill="white"/>
<path id="Vector_12" opacity="0.4" d="M1338.84 804.186L1469.26 802.125L1353.93 866.159L1080.54 853.32L1338.84 804.186Z" fill="white"/>
<path id="Vector_13" opacity="0.2" d="M1596.85 839.816L1469.26 802.125L1385.16 848.819L1556.89 880.962L1596.85 839.816Z" fill="white"/>
<path id="Vector_14" opacity="0.6" d="M1338.84 804.186L1535.97 756.097L1515.64 540L1444.92 673.139L1338.84 804.186Z" fill="white"/>
<path id="Vector_15" d="M1338.84 804.186L1535.97 756.097L1713.59 834.808L1541.22 801.016L1338.84 804.186Z" fill="white"/>
<path id="Vector_16" opacity="0.4" d="M1469.27 802.126L1736.05 880.963L1713.6 834.808L1541.22 801.016L1469.27 802.126Z" fill="white"/>
<path id="Vector_17" opacity="0.8" d="M1662.03 659.952L1524.36 632.912L1515.64 540L1717.95 638.269L1662.03 659.952Z" fill="white"/>
<path id="Vector_18" d="M1662.03 659.952L1524.36 632.912L1531.02 703.793L1736.05 719.516L1662.03 659.952Z" fill="white"/>
<path id="Vector_19" opacity="0.3" d="M1713.59 834.808L1535.97 756.097L1531.02 703.793L1736.04 719.516L1713.59 834.808Z" fill="white"/>
<path id="Vector_20" opacity="0.6" d="M1717.66 813.696L1908.54 844.318L1765.1 742.879L1736.04 719.516L1717.66 813.696Z" fill="white"/>
<path id="Vector_21" opacity="0.6" d="M1718.01 638.269L1662.03 659.952L1765.16 742.878L1718.01 638.269Z" fill="white"/>
<path id="Vector_22" opacity="0.3" d="M1515.64 540L1338.84 624.543L1325.11 673.139H1444.92L1515.64 540Z" fill="white"/>
<path id="Vector_23" opacity="0.5" d="M1175.84 656.782L1059.92 804.186L1080.55 853.32L1124.74 789.382L1189.57 756.097L1175.84 656.782Z" fill="white"/>
</g>
<g id="fjell_1">
<path id="Vector_24" d="M1313 890.667C1107.27 890.667 1114.97 890.667 909.171 890.667C703.372 890.667 695.669 890.667 489.939 890.667C284.21 890.667 297.597 890.667 91.8672 890.667L108.556 844.375L278.013 769.602L414.958 556.685L607.529 510.118L816.392 388L1055.4 529.945L1111.1 681.047L1280.56 827.571L1313 890.667Z" fill="#004CF5"/>
<path id="Vector_25" opacity="0.7" d="M1313 890.667C1107.27 890.667 1091.65 890.667 885.847 890.667C680.047 890.667 695.671 890.667 489.941 890.667C284.211 890.667 287.73 890.667 82 890.667L108.557 844.375L278.015 769.602L414.959 556.685L607.531 510.118L816.394 388L1055.4 529.945L1111.1 681.047L1280.56 827.571L1313 890.667Z" fill="white"/>
<path id="Vector_26" opacity="0.8" d="M414.959 556.685L431.181 700.141L591.309 580.312L607.531 510.118L414.959 556.685Z" fill="white"/>
<path id="Vector_27" opacity="0.5" d="M607.532 769.602L431.182 700.141L591.31 580.312H732.849L607.532 769.602Z" fill="white"/>
<path id="Vector_28" opacity="0.7" d="M607.53 769.602L431.18 700.141L354.597 748.219L302.381 840.574L607.53 769.602Z" fill="white"/>
<path id="Vector_29" opacity="0.4" d="M607.53 769.602L761.601 766.626L625.353 859.119L302.381 840.574L607.53 769.602Z" fill="white"/>
<path id="Vector_30" opacity="0.2" d="M912.328 821.068L761.599 766.626L662.25 834.072L865.125 880.502L912.328 821.068Z" fill="white"/>
<path id="Vector_31" opacity="0.6" d="M607.529 769.602L840.411 700.141L816.392 388L732.847 580.312L607.529 769.602Z" fill="white"/>
<path id="Vector_32" d="M607.529 769.602L840.411 700.141L1050.25 813.834L846.608 765.023L607.529 769.602Z" fill="white"/>
<path id="Vector_33" opacity="0.4" d="M761.611 766.626L1076.79 880.503L1050.26 813.835L846.619 765.024L761.611 766.626Z" fill="white"/>
<path id="Vector_34" opacity="0.8" d="M989.335 561.264L826.7 522.206L816.396 388L1055.41 529.945L989.335 561.264Z" fill="white"/>
<path id="Vector_35" d="M989.336 561.264L826.701 522.207L834.568 624.59L1076.78 647.301L989.336 561.264Z" fill="white"/>
<path id="Vector_36" opacity="0.3" d="M1050.24 813.834L840.407 700.141L834.559 624.59L1076.77 647.301L1050.24 813.834Z" fill="white"/>
<path id="Vector_37" opacity="0.6" d="M1055.05 783.339L1280.55 827.57L1111.1 681.047L1076.77 647.301L1055.05 783.339Z" fill="white"/>
<path id="Vector_38" opacity="0.6" d="M1055.47 529.945L989.332 561.264L1111.17 681.047L1055.47 529.945Z" fill="white"/>
<path id="Vector_39" opacity="0.3" d="M816.391 388L607.528 510.118L591.307 580.312H732.846L816.391 388Z" fill="white"/>
<path id="Vector_40" opacity="0.5" d="M414.96 556.685L278.016 769.602L302.383 840.574L354.599 748.219L431.182 700.141L414.96 556.685Z" fill="white"/>
</g>
<g id="bakken">
<g id="Group">
<path id="Vector_41" d="M1803.93 924.3L1595.54 910.225C1563.64 908.071 1565.56 898.993 1598.25 897.377L1787.89 888H6C85.8549 904.489 196.081 918.295 309.355 922.496C337.382 923.535 367.158 924.25 387.702 928.65C397.875 930.829 403.019 933.827 399.315 936.705C393.491 941.231 370.616 942.672 350.166 943.761L148.87 954.472C96.5915 957.254 36.6378 961.407 19.6189 971.604C1.27965 982.593 45.1766 993.881 93.421 1000.39C246.989 1021.09 450.116 1017.18 631.118 1024.98C638.9 1025.32 646.442 1025.89 653.076 1026.76C688.547 1031.44 667.743 1039.39 639.468 1042.31C617.141 1044.61 591.067 1044.92 567.176 1046.49C543.285 1048.06 519.219 1051.7 518.53 1056.69C517.505 1064.12 564.033 1067.56 601.046 1068.69C905.536 1078.02 1174.36 1078.54 1478.61 1068.9C1625.66 1064.24 1649.78 1061.58 1689.38 1054.25C1749.22 1043.18 1725.49 1030.64 1678 1017.42C1644.81 1008.18 1597.82 1001.56 1547.65 995.894C1522.34 993.034 1525.09 985.624 1552.23 983.524C1638.24 976.87 1724.26 970.215 1810.27 963.56C1857.48 959.908 1912.92 954.008 1913 943.952C1913.08 933.505 1853.76 927.665 1803.93 924.3Z" fill="#407BFF"/>
<g id="Group_2" opacity="0.8">
<path id="Vector_42" d="M1803.93 924.391L1595.54 910.316C1563.64 908.162 1565.56 899.084 1598.25 897.467L1787.89 888.091H6C85.8549 904.58 196.081 918.385 309.355 922.587C337.382 923.626 367.158 924.341 387.702 928.741C397.875 930.919 403.019 933.918 399.315 936.796C393.491 941.322 370.616 942.763 350.166 943.852C283.067 947.422 215.968 950.993 148.87 954.563C96.5915 957.345 36.6378 961.498 19.6189 971.695C1.27965 982.684 45.1766 993.972 93.421 1000.48C246.989 1021.18 450.116 1017.27 631.118 1025.08C638.9 1025.41 646.442 1025.98 653.076 1026.85C688.547 1031.53 667.743 1039.48 639.468 1042.4C617.141 1044.7 591.067 1045.02 567.176 1046.58C543.285 1048.15 519.219 1051.79 518.53 1056.78C517.505 1064.21 564.033 1067.65 601.046 1068.78C905.536 1078.11 1174.36 1078.63 1478.61 1068.99C1625.66 1064.33 1649.78 1061.67 1689.38 1054.34C1749.22 1043.27 1725.49 1030.73 1678 1017.51C1644.81 1008.27 1597.82 1001.65 1547.65 995.984C1522.34 993.125 1525.09 985.715 1552.23 983.615C1638.24 976.96 1724.26 970.306 1810.27 963.651C1857.48 959.999 1912.92 954.099 1913 944.043C1913.08 933.596 1853.76 927.756 1803.93 924.391Z" fill="white"/>
</g>
<g id="Group_3">
<path id="Vector_43" d="M268.582 1047.27C385.48 1047.27 480.245 1042.89 480.245 1037.47C480.245 1032.06 385.48 1027.67 268.582 1027.67C151.684 1027.67 56.9199 1032.06 56.9199 1037.47C56.9199 1042.89 151.684 1047.27 268.582 1047.27Z" fill="#407BFF"/>
<g id="Group_4" opacity="0.8">
<path id="Vector_44" d="M268.582 1047.27C385.48 1047.27 480.245 1042.89 480.245 1037.47C480.245 1032.06 385.48 1027.67 268.582 1027.67C151.684 1027.67 56.9199 1032.06 56.9199 1037.47C56.9199 1042.89 151.684 1047.27 268.582 1047.27Z" fill="white"/>
</g>
</g>
<g id="Group_5" opacity="0.4">
<path id="Vector_45" d="M1458.59 933.751C1449.34 930.056 1433.75 926.998 1417 924.305C1376.06 917.724 1326.46 912.924 1273.52 910.418C1257.14 909.643 1235.77 907.799 1240.31 904.844C1242.77 903.244 1252.19 902.403 1260.62 901.756C1311.84 897.825 1383.03 892.151 1434.24 888.22L386.5 888.809C493.775 903.758 622.956 912.78 754.271 918.7C885.586 924.62 1020.27 927.615 1153.69 931.715C1179.52 932.509 1206.64 933.454 1226.61 936.528C1246.58 939.602 1255.61 945.543 1238.6 949.157C1232.26 950.505 1223.26 951.359 1216.58 952.654C1209.91 953.948 1206.04 956.07 1212.13 957.457C1217.41 958.659 1227.23 958.706 1235.7 958.623C1283.77 958.151 1331.6 956.86 1378.35 954.774C1410.7 953.33 1446.03 950.986 1460.42 945.539C1470.09 941.879 1467.85 937.448 1458.59 933.751Z" fill="white"/>
</g>
<path id="Vector_46" d="M1004.44 1019.62H1362.02C1364.2 1019.62 1364.2 1019 1362.02 1019H1004.44C1002.27 1019 1002.27 1019.62 1004.44 1019.62Z" fill="white"/>
<path id="Vector_47" d="M923.108 1021.76H1227.8C1229.97 1021.76 1229.97 1021.15 1227.8 1021.15H923.108C920.935 1021.15 920.931 1021.76 923.108 1021.76Z" fill="white"/>
<g id="Group_6">
<path id="Vector_48" d="M889.682 1040.17H1107.7C1109.87 1040.17 1109.87 1039.56 1107.7 1039.56H889.682C887.509 1039.56 887.505 1040.17 889.682 1040.17Z" fill="white"/>
<path id="Vector_49" d="M850.686 1044.03H1033.25C1035.42 1044.03 1035.43 1043.41 1033.25 1043.41H850.686C848.513 1043.41 848.509 1044.03 850.686 1044.03Z" fill="white"/>
</g>
<g id="Group_7">
<path id="Vector_50" d="M1368.85 942.831H1666.62C1668.79 942.831 1668.8 942.219 1666.62 942.219H1368.85C1366.67 942.219 1366.67 942.831 1368.85 942.831Z" fill="white"/>
<path id="Vector_51" d="M1332.8 937.69H1523.57C1525.75 937.69 1525.75 937.078 1523.57 937.078H1332.8C1330.62 937.078 1330.62 937.69 1332.8 937.69Z" fill="white"/>
</g>
<g id="Group_8">
<path id="Vector_52" d="M234.842 965.662H506.412C508.585 965.662 508.588 965.05 506.412 965.05H234.842C232.669 965.05 232.665 965.662 234.842 965.662Z" fill="white"/>
<path id="Vector_53" d="M187.588 969.742H322.15C324.323 969.742 324.326 969.13 322.15 969.13H187.588C185.415 969.13 185.412 969.742 187.588 969.742Z" fill="white"/>
</g>
</g>
</g>
<g id="bear_1">
<g id="fot_4">
<path id="Vector_54" d="M960.772 814.991C964.772 814.371 969.612 813.051 969.172 817.061C967.562 831.951 963.172 867.961 964.082 877.851C964.902 887.141 966.942 889.201 968.032 889.621C968.76 889.883 969.436 890.269 970.032 890.761C972.112 892.561 976.032 896.281 976.192 899.231C976.452 902.861 961.562 901.751 958.532 901.481C958.195 901.449 957.86 901.389 957.532 901.301L941.842 897.131C940.922 896.884 940.073 896.426 939.359 895.794C938.646 895.163 938.089 894.374 937.732 893.491C935.152 887.091 929.152 872.051 929.152 870.921C929.152 869.791 950.512 829.161 956.312 818.181C956.758 817.337 957.396 816.608 958.174 816.055C958.952 815.501 959.848 815.136 960.792 814.991H960.772Z" fill="#69BCFF"/>
</g>
<g id="fot_2">
<path id="Vector_55" d="M794.033 895.711C794.033 895.711 786.473 891.511 787.313 886.051C788.153 880.591 789.313 860.431 790.643 857.051C791.973 853.671 789.003 806.991 789.003 806.991C789.003 806.991 791.553 805.571 792.473 806.561C800.363 815.051 834.263 858.491 833.473 859.991C832.643 861.691 827.643 891.511 827.643 891.511C827.643 891.511 835.643 895.291 830.163 899.911C824.683 904.531 796.373 897.321 794.033 895.711Z" fill="#69BCFF"/>
</g>
<g id="mage">
<path id="Vector_56" d="M823.783 747.081C823.783 747.081 843.373 735.001 874.143 737.391C874.143 737.391 903.933 741.121 914.543 737.091C925.153 733.061 926.933 733.641 937.743 732.261C948.553 730.881 959.673 731.501 966.453 731.091C975.783 730.521 983.013 734.631 994.613 732.671L1029.16 765.491C1029.16 765.491 1013.04 785.151 1002.43 793.211C991.823 801.271 976.083 812.091 971.173 815.211C971.173 815.211 921.073 840.791 900.733 845.211C880.393 849.631 820.523 823.721 820.523 823.721L823.783 747.081Z" fill="#69BCFF"/>
<path id="Vector_57" opacity="0.3" d="M912.44 840.531C912.44 840.531 911.12 823.751 909.34 817.121C907.56 810.491 908.53 816.371 908.34 817.121C908.15 817.871 908.51 841.861 908.51 841.861L912.44 840.531Z" fill="black"/>
<path id="Vector_58" opacity="0.3" d="M885.843 844.04C885.843 844.04 887.451 826.138 886.828 819.301C886.205 812.465 886.158 818.424 885.843 819.131C885.528 819.837 881.029 843.039 881.029 843.039L885.843 844.04Z" fill="black"/>
</g>
<g id="fot_3">
<path id="Vector_59" opacity="0.3" d="M911.502 817.661C911.632 818.711 916.882 836.831 913.502 848.661C910.122 860.491 909.802 871.871 911.502 879.271C913.202 886.671 916.502 900.401 920.252 901.781C924.002 903.161 965.252 901.831 965.252 901.831C965.252 901.831 963.642 893.391 958.642 891.331C953.642 889.271 948.552 887.631 948.552 883.601C948.552 879.571 956.622 844.911 962.342 837.171C968.062 829.431 967.802 820.861 968.882 815.971C969.292 814.081 959.282 791.541 954.232 789.521C949.182 787.501 908.472 792.581 911.502 817.661Z" fill="black"/>
<path id="Vector_60" d="M908.703 818.481C908.833 819.541 914.083 837.661 910.703 849.481C907.323 861.301 907.003 872.701 908.703 880.101C910.403 887.501 913.753 901.221 917.453 902.601C921.153 903.981 962.453 902.661 962.453 902.661C962.453 902.661 960.813 894.231 955.763 892.211C950.713 890.191 945.673 888.511 945.673 884.471C945.673 880.431 953.743 845.781 959.463 838.041C965.183 830.301 968.883 811.731 969.893 810.041C970.903 808.351 961.483 785.511 956.433 783.491C951.383 781.471 905.643 793.391 908.703 818.481Z" fill="#69BCFF"/>
</g>
<g id="hale">
<path id="Vector_61" d="M785.643 776.661C780.773 779.331 777.293 785.321 778.123 791.211C778.507 793.556 779.464 795.77 780.908 797.657C782.353 799.545 784.24 801.047 786.403 802.031C790.603 803.777 795.271 804.044 799.643 802.791L801.533 776.241C796.433 774.241 790.533 773.981 785.643 776.661Z" fill="#69BCFF"/>
</g>
<g id="fot_1">
<path id="Vector_62" opacity="0.3" d="M790.183 809.281C790.183 809.281 786.863 824.031 799.643 836.741C827.743 864.741 828.773 885.881 828.773 885.881L830.853 873.661L790.183 809.281Z" fill="black"/>
<path id="Vector_63" d="M807.702 757.881C797.606 766.791 791.058 779.04 789.258 792.384C787.459 805.729 790.527 819.275 797.902 830.541C799.712 833.286 801.792 835.842 804.112 838.171C820.112 854.171 830.992 874.711 830.572 887.311C830.152 899.911 833.932 899.601 839.392 901.431C844.852 903.261 885.592 902.541 886.012 901.431C886.432 900.321 886.432 896.131 877.612 892.351L872.152 889.831C872.152 889.831 878.452 857.491 881.392 845.311C884.332 833.131 884.752 823.051 881.812 810.041C878.872 797.031 832.252 744.101 828.892 744.941C827.212 745.391 817.392 749.391 807.702 757.881Z" fill="#69BCFF"/>
</g>
<g id="hode">
<path id="Vector_64" d="M981.242 732.611C981.242 732.611 1012.44 732.741 1019.24 733.841C1026.04 734.941 1039.96 744.511 1040.47 745.791C1040.98 747.071 1042.47 751.411 1042.47 751.411C1042.47 751.411 1060.3 759.741 1062.35 760.501C1064.4 761.261 1058.35 771.971 1052.16 776.401C1045.97 780.831 1039.16 777.981 1035.79 779.551C1032.42 781.121 1028.63 785.671 1021.39 787.551C1014.15 789.431 1002.68 792.881 1002.68 792.881C1002.68 792.881 978.682 766.241 978.352 765.551C978.022 764.861 981.242 732.611 981.242 732.611Z" fill="#69BCFF"/>
<path id="Vector_65" opacity="0.3" d="M986.482 752.731C986.482 752.731 981.082 736.121 989.482 728.731C997.882 721.341 1004.48 733.201 1004.48 733.201L986.482 752.731Z" fill="black"/>
<path id="Vector_66" d="M1055.42 757.391C1055.42 757.391 1053.11 759.611 1054.06 762.391C1055.01 765.171 1058.76 770.031 1058.76 770.031C1060.09 768.212 1061.27 766.297 1062.31 764.301C1063.52 761.831 1063.85 761.091 1062.68 760.461C1061.51 759.831 1055.42 757.391 1055.42 757.391Z" fill="#263238"/>
<path id="Vector_67" d="M1027.03 751.121C1026.27 753.881 1027.03 756.611 1028.77 757.221C1030.51 757.831 1032.52 756.091 1033.29 753.331C1034.06 750.571 1033.29 747.841 1031.55 747.231C1029.81 746.621 1027.8 748.391 1027.03 751.121Z" fill="#263238"/>
<path id="Vector_68" d="M1027.41 745.101C1027.52 745.132 1027.62 745.141 1027.73 745.128C1027.84 745.114 1027.94 745.078 1028.03 745.021C1028.87 744.484 1029.82 744.163 1030.81 744.084C1031.79 744.006 1032.79 744.173 1033.69 744.571C1033.78 744.613 1033.88 744.637 1033.98 744.642C1034.08 744.647 1034.17 744.632 1034.27 744.599C1034.36 744.565 1034.45 744.514 1034.52 744.447C1034.59 744.381 1034.65 744.3 1034.69 744.211C1034.78 744.008 1034.78 743.781 1034.71 743.573C1034.64 743.366 1034.49 743.194 1034.29 743.091C1033.15 742.565 1031.9 742.334 1030.65 742.42C1029.4 742.505 1028.19 742.905 1027.13 743.581C1026.95 743.701 1026.83 743.886 1026.78 744.097C1026.74 744.308 1026.78 744.528 1026.89 744.711C1027.01 744.904 1027.19 745.044 1027.41 745.101Z" fill="#263238"/>
<path id="Vector_69" d="M1030.96 750.271C1030.78 751.221 1030.96 752.051 1031.3 752.121C1031.64 752.191 1032.12 751.481 1032.3 750.531C1032.48 749.581 1032.3 748.751 1031.97 748.681C1031.64 748.611 1031.15 749.321 1030.96 750.271Z" fill="white"/>
<path id="Vector_70" d="M988.962 750.711C988.962 750.711 981.962 734.621 990.302 727.211C998.642 719.801 1006.16 733.391 1006.16 733.391L988.962 750.711Z" fill="#69BCFF"/>
<path id="Vector_71" opacity="0.3" d="M992.923 744.161C992.923 744.161 989.193 735.631 993.633 731.701C998.073 727.771 1001.68 734.701 1001.68 734.701L992.923 744.161Z" fill="black"/>
<path id="Vector_72" d="M1033.58 772.051C1038.05 776.171 1044.02 777.111 1049.8 777.851C1043.99 778.581 1037.03 777.211 1033.58 772.051Z" fill="#263238"/>
</g>
<g id="Highlights ">
<path id="Vector_73" d="M793.842 768.271C793.753 768.274 793.666 768.25 793.592 768.201C793.535 768.169 793.485 768.126 793.444 768.074C793.404 768.022 793.375 767.963 793.358 767.899C793.341 767.836 793.337 767.77 793.347 767.705C793.356 767.64 793.378 767.577 793.412 767.521C799.147 757.85 807.526 750.02 817.562 744.951C817.62 744.92 817.684 744.902 817.75 744.896C817.815 744.89 817.881 744.898 817.944 744.919C818.006 744.939 818.064 744.972 818.114 745.016C818.163 745.059 818.203 745.112 818.232 745.171C818.261 745.23 818.278 745.294 818.282 745.36C818.286 745.426 818.277 745.492 818.256 745.554C818.235 745.616 818.201 745.673 818.158 745.723C818.114 745.772 818.061 745.812 818.002 745.841C808.141 750.823 799.908 758.518 794.272 768.021C794.228 768.097 794.166 768.159 794.09 768.203C794.015 768.247 793.929 768.271 793.842 768.271Z" fill="#69BCFF"/>
<path id="Vector_74" d="M821.163 744.461C821.069 744.459 820.977 744.431 820.897 744.38C820.818 744.329 820.754 744.256 820.713 744.171C820.659 744.052 820.653 743.915 820.698 743.792C820.743 743.668 820.835 743.567 820.953 743.511C821.013 743.511 822.483 742.771 823.893 742.251C823.956 742.219 824.025 742.201 824.095 742.197C824.165 742.193 824.236 742.205 824.301 742.23C824.367 742.255 824.427 742.294 824.476 742.344C824.526 742.394 824.564 742.454 824.589 742.52C824.614 742.586 824.624 742.656 824.62 742.727C824.616 742.797 824.597 742.866 824.564 742.928C824.531 742.99 824.486 743.045 824.431 743.089C824.376 743.132 824.312 743.164 824.243 743.181C822.873 743.691 821.393 744.401 821.383 744.411C821.314 744.443 821.239 744.46 821.163 744.461Z" fill="#69BCFF"/>
</g>
</g>
<g id="freepik--bear-cub--inject-63">
<path id="Vector_75" d="M1172.85 962.112C1172.85 962.112 1168.23 960.352 1168.26 957.202C1168.29 954.052 1167.26 942.552 1167.75 940.552C1168.24 938.552 1162.7 912.382 1162.7 912.382C1162.7 912.382 1164.03 911.382 1164.63 911.862C1169.79 916.012 1196.29 919.202 1195.99 920.122C1195.69 921.042 1191.49 956.972 1191.49 956.972C1191.49 956.972 1196.32 958.452 1193.61 961.512C1190.9 964.572 1174.28 962.822 1172.85 962.112Z" fill="#90CAF9"/>
<g id="fot_3_2">
<path id="Vector_76" opacity="0.3" d="M1172.85 962.112C1172.85 962.112 1168.23 960.352 1168.26 957.202C1168.29 954.052 1167.26 942.552 1167.75 940.552C1168.24 938.552 1162.7 912.382 1162.7 912.382C1162.7 912.382 1164.03 911.382 1164.63 911.862C1169.79 916.012 1196.29 919.202 1195.99 920.122C1195.69 921.042 1191.49 956.972 1191.49 956.972C1191.49 956.972 1196.32 958.452 1193.61 961.512C1190.9 964.572 1174.28 962.822 1172.85 962.112Z" fill="white"/>
<path id="Vector_77" opacity="0.3" d="M1175.84 923.892L1172.7 930.732C1172.7 930.732 1172.87 931.162 1173.92 931.732L1167.45 937.142L1167.73 940.522C1167.73 940.522 1181.03 931.112 1181.28 931.112C1193.35 933.342 1195.7 929.052 1196.01 928.942C1196.32 928.832 1175.84 923.892 1175.84 923.892Z" fill="black"/>
</g>
<path id="Vector_78" d="M1156.58 874.452C1156.58 874.452 1165.52 867.272 1184.71 867.822C1184.71 867.822 1194.33 868.392 1199.79 868.092C1204.93 867.797 1210.05 867.159 1215.12 866.182C1220.17 865.392 1224.92 865.682 1227.86 864.182C1230.8 862.682 1230.86 861.822 1236.32 860.692L1264.28 892.552C1262.41 895.022 1241 910.882 1241.23 908.612C1241.94 901.872 1232.42 910.482 1230.12 912.282C1230.12 912.282 1206.7 926.892 1197.19 929.432C1187.68 931.972 1159.65 917.112 1159.65 917.112L1156.58 874.452Z" fill="#90CAF9"/>
<g id="mage_2">
<path id="Vector_79" opacity="0.3" d="M1156.58 874.452C1156.58 874.452 1165.52 867.272 1184.71 867.822C1184.71 867.822 1194.33 868.392 1199.79 868.092C1204.93 867.797 1210.05 867.159 1215.12 866.182C1220.17 865.392 1224.92 865.682 1227.86 864.182C1230.8 862.682 1230.86 861.822 1236.32 860.692L1264.28 892.552C1262.41 895.022 1241 910.882 1241.23 908.612C1241.94 901.872 1232.42 910.482 1230.12 912.282C1230.12 912.282 1206.7 926.892 1197.19 929.432C1187.68 931.972 1159.65 917.112 1159.65 917.112L1156.58 874.452Z" fill="white"/>
</g>
<g id="fot_2_2">
<path id="Vector_80" d="M1246.81 918.112C1247.37 912.962 1244.41 902.622 1244.44 901.572C1244.47 900.522 1234.86 890.572 1232.21 890.572C1229.56 890.572 1212.92 905.952 1220.34 918.292C1220.65 918.812 1227.34 927.102 1228.76 933.862C1230.18 940.622 1232.85 946.602 1235.37 950.082C1237.89 953.562 1242.69 959.962 1244.61 959.932C1246.53 959.902 1263.86 950.862 1263.86 950.862C1263.86 950.862 1261.11 946.862 1258.46 946.812C1255.81 946.762 1253.24 946.942 1252.25 944.862" fill="#90CAF9"/>
<path id="Vector_81" opacity="0.3" d="M1246.81 918.112C1247.37 912.962 1244.41 902.622 1244.44 901.572C1244.47 900.522 1234.86 890.572 1232.21 890.572C1229.56 890.572 1212.92 905.952 1220.34 918.292C1220.65 918.812 1227.34 927.102 1228.76 933.862C1230.18 940.622 1232.85 946.602 1235.37 950.082C1237.89 953.562 1242.69 959.962 1244.61 959.932C1246.53 959.902 1263.86 950.862 1263.86 950.862C1263.86 950.862 1261.11 946.862 1258.46 946.812C1255.81 946.762 1253.24 946.942 1252.25 944.862" fill="white"/>
<path id="Vector_82" opacity="0.3" d="M1230.04 938.712C1230.6 940.508 1231.26 942.268 1232.04 943.982C1232.04 943.982 1241.85 916.212 1239.72 911.732C1237.59 907.252 1230.04 938.712 1230.04 938.712Z" fill="black"/>
</g>
<path id="Vector_83" d="M1150.58 873.862C1148.94 873.557 1147.25 873.737 1145.72 874.38C1144.18 875.023 1142.87 876.102 1141.94 877.482C1141.25 878.65 1140.86 879.97 1140.8 881.326C1140.74 882.681 1141.02 884.03 1141.61 885.252C1142.8 887.56 1144.75 889.391 1147.13 890.442L1157.69 879.512C1156.98 878.109 1155.98 876.876 1154.76 875.9C1153.53 874.924 1152.1 874.229 1150.58 873.862Z" fill="#90CAF9"/>
<g id="hale_2" opacity="0.3">
<path id="Vector_84" d="M1150.58 873.862C1148.94 873.557 1147.25 873.737 1145.72 874.38C1144.18 875.023 1142.87 876.102 1141.94 877.482C1141.25 878.65 1140.86 879.97 1140.8 881.326C1140.74 882.681 1141.02 884.03 1141.61 885.252C1142.8 887.56 1144.75 889.391 1147.13 890.442L1157.69 879.512C1156.98 878.109 1155.98 876.876 1154.76 875.9C1153.53 874.924 1152.1 874.229 1150.58 873.862Z" fill="white"/>
<path id="Vector_85" opacity="0.3" d="M1144.28 888.642C1144.28 888.642 1145.79 881.132 1154.58 875.782C1154.13 875.402 1153.65 875.067 1153.15 874.782C1153.15 874.782 1142.8 881.112 1144.28 888.642Z" fill="black"/>
</g>
<g id="hode_2">
<path id="Vector_86" d="M1222.46 866.342C1222.46 866.342 1245.46 855.342 1250.23 853.722C1255 852.102 1267.23 853.622 1268.03 854.272C1268.83 854.922 1271.25 857.222 1271.25 857.222C1271.25 857.222 1281.38 856.272 1282.92 856.672C1284.97 857.192 1284.36 865.092 1281.84 870.062C1279.32 875.032 1278.09 875.552 1276.45 877.712C1274.81 879.872 1273.81 884.012 1269.83 887.712C1266.42 890.957 1262.77 893.923 1258.89 896.582C1258.89 896.582 1234.97 888.372 1234.5 888.042C1234.03 887.712 1222.46 866.342 1222.46 866.342Z" fill="#90CAF9"/>
<path id="Vector_87" opacity="0.3" d="M1222.46 866.342C1222.46 866.342 1245.46 855.342 1250.23 853.722C1255 852.102 1267.23 853.622 1268.03 854.272C1268.83 854.922 1271.25 857.222 1271.25 857.222C1271.25 857.222 1281.38 856.272 1282.92 856.672C1284.97 857.192 1284.36 865.092 1281.84 870.062C1279.32 875.032 1278.09 875.552 1276.45 877.712C1274.81 879.872 1273.81 884.012 1269.83 887.712C1266.42 890.957 1262.77 893.923 1258.89 896.582C1258.89 896.582 1234.97 888.372 1234.5 888.042C1234.03 887.712 1222.46 866.342 1222.46 866.342Z" fill="white"/>
<path id="Vector_88" d="M1255.8 858.492C1255.87 858.478 1255.95 858.447 1256.01 858.402C1256.08 858.358 1256.13 858.3 1256.18 858.232C1256.53 857.603 1257.04 857.072 1257.65 856.687C1258.27 856.301 1258.96 856.073 1259.69 856.022C1259.76 856.024 1259.84 856.009 1259.91 855.98C1259.98 855.95 1260.04 855.907 1260.1 855.851C1260.15 855.795 1260.19 855.73 1260.22 855.657C1260.24 855.585 1260.25 855.509 1260.25 855.432C1260.23 855.273 1260.16 855.125 1260.04 855.017C1259.92 854.908 1259.77 854.846 1259.61 854.842C1258.69 854.887 1257.8 855.162 1257.01 855.643C1256.23 856.123 1255.58 856.794 1255.13 857.592C1255.08 857.697 1255.06 857.812 1255.07 857.926C1255.08 858.04 1255.13 858.149 1255.19 858.241C1255.26 858.332 1255.36 858.404 1255.46 858.449C1255.57 858.493 1255.68 858.508 1255.8 858.492Z" fill="#263238"/>
<path id="Vector_89" d="M1259.18 863.552C1259.71 866.052 1261.46 867.892 1263.08 867.662C1264.7 867.432 1265.58 865.212 1265.08 862.712C1264.58 860.212 1262.79 858.372 1261.17 858.602C1259.55 858.832 1258.64 861.042 1259.18 863.552Z" fill="#263238"/>
<path id="Vector_90" d="M1261.93 861.252C1262.18 862.082 1262.64 862.672 1262.93 862.572C1263.22 862.472 1263.31 861.732 1263.06 860.902C1262.81 860.072 1262.35 859.482 1262.06 859.572C1261.77 859.662 1261.69 860.422 1261.93 861.252Z" fill="white"/>
<path id="Vector_91" d="M1259.67 871.902C1259.89 872.662 1261.06 872.982 1262.27 872.622C1263.48 872.262 1264.27 871.352 1264.05 870.622C1263.83 869.892 1262.66 869.532 1261.45 869.892C1260.24 870.252 1259.44 871.112 1259.67 871.902Z" fill="#EEC1BB"/>
<path id="Vector_92" opacity="0.3" d="M1237.57 875.692C1237.57 875.692 1227.29 867.412 1230.52 860.382C1233.75 853.352 1243.09 858.442 1243.09 858.442L1237.57 875.692Z" fill="black"/>
<path id="Vector_93" d="M1238.59 873.722C1238.59 873.722 1227.33 866.252 1230.59 859.232C1233.85 852.212 1243.77 857.742 1243.77 857.742L1238.59 873.722Z" fill="#90CAF9"/>
<path id="Vector_94" opacity="0.3" d="M1238.59 873.722C1238.59 873.722 1227.33 866.252 1230.59 859.232C1233.85 852.212 1243.77 857.742 1243.77 857.742L1238.59 873.722Z" fill="white"/>
<path id="Vector_95" opacity="0.3" d="M1238.94 868.582C1238.94 868.582 1232.94 864.582 1234.68 860.892C1236.42 857.202 1241.68 860.212 1241.68 860.212L1238.94 868.582Z" fill="black"/>
<path id="Vector_96" d="M1270.75 873.112C1273.13 874.095 1275.77 874.229 1278.24 873.492C1277.73 873.986 1277.13 874.369 1276.47 874.619C1275.82 874.869 1275.11 874.979 1274.41 874.943C1273.7 874.908 1273.02 874.727 1272.39 874.411C1271.75 874.096 1271.2 873.654 1270.75 873.112Z" fill="#263238"/>
</g>
<path id="Vector_97" d="M1276.48 857.592C1276.4 858.463 1276.53 859.34 1276.85 860.152C1277.18 860.964 1277.69 861.69 1278.34 862.273C1278.99 862.855 1279.77 863.277 1280.61 863.506C1281.46 863.735 1282.34 863.765 1283.2 863.592C1283.41 863.566 1283.62 863.479 1283.79 863.342C1283.98 863.103 1284.07 862.798 1284.05 862.492C1284.13 861.012 1284.17 859.542 1284.15 858.062C1284.18 857.821 1284.16 857.576 1284.09 857.343C1284.02 857.11 1283.9 856.895 1283.74 856.712C1283.44 856.517 1283.09 856.422 1282.74 856.442C1280.73 856.386 1278.72 856.66 1276.8 857.252" fill="#263238"/>
<path id="Vector_98" d="M1174.67 869.562C1166.98 869.31 1159.46 871.834 1153.48 876.673C1147.51 881.512 1143.47 888.342 1142.12 895.912C1141.79 897.764 1141.65 899.643 1141.71 901.522C1142.09 914.402 1138.56 927.232 1133.44 932.302C1128.32 937.372 1130.02 938.722 1131.57 941.632C1133.12 944.542 1150.33 960.192 1150.94 959.902C1151.55 959.612 1153.19 957.902 1151.01 952.832L1149.73 949.642C1149.73 949.642 1165.02 938.642 1171.02 934.772C1176.82 931.185 1181.63 926.204 1185.02 920.282C1188.9 913.722 1190.27 873.462 1188.55 872.492C1184.14 870.667 1179.43 869.674 1174.67 869.562Z" fill="#90CAF9"/>
<g id="fot_4_2">
<path id="Vector_99" opacity="0.3" d="M1174.67 869.562C1166.98 869.31 1159.46 871.834 1153.48 876.673C1147.51 881.512 1143.47 888.342 1142.12 895.912C1141.79 897.764 1141.65 899.643 1141.71 901.522C1142.09 914.402 1138.56 927.232 1133.44 932.302C1128.32 937.372 1130.02 938.722 1131.57 941.632C1133.12 944.542 1150.33 960.192 1150.94 959.902C1151.55 959.612 1153.19 957.902 1151.01 952.832L1149.73 949.642C1149.73 949.642 1165.02 938.642 1171.02 934.772C1176.82 931.185 1181.63 926.204 1185.02 920.282C1188.9 913.722 1190.27 873.462 1188.55 872.492C1184.14 870.667 1179.43 869.674 1174.67 869.562Z" fill="white"/>
</g>
<path id="Vector_100" d="M1206.21 913.432C1206.28 914.032 1209.29 924.382 1207.36 931.112C1205.43 937.842 1205.25 944.372 1206.21 948.592C1207.17 952.812 1209.09 960.662 1211.21 961.452C1213.33 962.242 1236.93 961.452 1236.93 961.452C1236.93 961.452 1236 956.632 1233.11 955.452C1230.22 954.272 1227.35 953.342 1227.35 951.032C1227.35 948.722 1231.96 928.932 1235.23 924.512C1238.5 920.092 1240.61 909.512 1241.18 908.512C1241.75 907.512 1236.38 894.512 1233.5 893.352C1230.62 892.192 1204.48 899.112 1206.21 913.432Z" fill="#90CAF9"/>
<g id="fot_1_2">
<path id="Vector_101" opacity="0.3" d="M1208.05 924.882C1208.05 924.882 1206.67 915.552 1205.65 911.762C1204.63 907.972 1205.22 916.012 1205.34 917.342C1205.34 917.772 1205.34 926.152 1205.34 926.152L1208.05 924.882Z" fill="black"/>
<path id="Vector_102" opacity="0.3" d="M1206.21 913.432C1206.28 914.032 1209.29 924.382 1207.36 931.112C1205.43 937.842 1205.25 944.372 1206.21 948.592C1207.17 952.812 1209.09 960.662 1211.21 961.452C1213.33 962.242 1236.93 961.452 1236.93 961.452C1236.93 961.452 1236 956.632 1233.11 955.452C1230.22 954.272 1227.35 953.342 1227.35 951.032C1227.35 948.722 1231.96 928.932 1235.23 924.512C1238.5 920.092 1240.61 909.512 1241.18 908.512C1241.75 907.512 1236.38 894.512 1233.5 893.352C1230.62 892.192 1204.48 899.112 1206.21 913.432Z" fill="white"/>
</g>
</g>
<g id="bear_3">
<g id="fot_4_3">
<path id="Vector_103" d="M1438.45 823.921C1438.45 823.921 1439.16 844.711 1445.51 853.311C1451.86 861.911 1461.74 875.311 1461.39 884.841C1461.04 894.371 1463.5 911.301 1463.5 911.301C1463.5 911.301 1454.32 918.791 1456.44 923.301H1511.44L1517.82 873.611L1504.06 829.081L1469.15 808.611L1438.45 823.921Z" fill="#90CAF9"/>
<path id="Vector_104" opacity="0.3" d="M1439.1 831.731C1439.1 831.731 1451.55 823.931 1456.44 821.851C1459.71 820.563 1463.23 820.017 1466.74 820.251C1457.45 821.171 1438.23 834.781 1439.5 834.551L1439.1 831.731Z" fill="black"/>
</g>
<g id="fot_1_3">
<path id="Vector_105" d="M1423.04 752.941C1423.04 752.941 1453.98 720.441 1467.74 719.731C1481.5 719.021 1493.49 728.551 1505.84 726.081C1518.19 723.611 1575.34 716.831 1594.04 719.691C1612.74 722.551 1642.04 739.131 1654.72 769.831C1667.4 800.531 1660.37 814.991 1654.72 827.331C1649.07 839.671 1616.27 894.011 1614.82 894.721C1613.37 895.431 1600.36 921.531 1600.36 921.531C1600.36 921.531 1551.36 923.651 1550.61 923.301C1549.86 922.951 1550.61 916.591 1558.38 912.711C1566.15 908.831 1569.31 901.421 1571.38 894.011C1573.45 886.601 1573.5 853.311 1573.5 853.311C1573.5 853.311 1559.03 862.971 1544.21 862.261C1529.39 861.551 1470.57 815.531 1470.57 815.531L1423.04 752.941Z" fill="#90CAF9"/>
<path id="Vector_106" opacity="0.3" d="M1573.58 853.311C1573.76 852.381 1575.58 843.811 1579.37 838.531C1579.37 838.531 1571.37 847.441 1570.84 854.941L1573.58 853.311Z" fill="black"/>
</g>
<g id="fot_3_3">
<path id="Vector_107" opacity="0.3" d="M1561.75 859.141C1561.75 859.141 1564.61 844.141 1562.53 833.041C1560.45 821.941 1541.7 810.611 1542.44 811.611C1543.18 812.611 1555.44 861.071 1555.44 861.071C1557.59 860.573 1559.7 859.928 1561.75 859.141Z" fill="black"/>
<path id="Vector_108" opacity="0.3" d="M1474.1 828.911C1475.03 830.911 1494.1 860.241 1493.72 862.551C1493.34 864.861 1475.72 899.781 1477.49 905.071C1479.26 910.361 1491.87 923.831 1503.49 922.071C1515.11 920.311 1520.62 906.411 1520.62 906.411C1520.62 906.411 1537.39 902.181 1537.71 898.411C1538.37 890.461 1547.33 874.481 1554.38 856.811C1561.43 839.141 1552.44 809.811 1537.71 808.091C1522.98 806.371 1474.1 828.911 1474.1 828.911Z" fill="black"/>
<path id="Vector_109" d="M1472.57 827.161C1473.5 829.161 1498.78 855.531 1498.43 857.841C1498.08 860.151 1480.43 895.071 1482.2 900.361C1483.97 905.651 1495.96 922.241 1507.6 920.471C1519.24 918.701 1523.48 907.071 1523.48 907.071C1523.48 907.071 1540.58 901.421 1542.48 893.661C1544.38 885.901 1552.1 869.731 1559.15 852.061C1566.2 834.391 1557.21 805.111 1542.48 803.341C1527.75 801.571 1455.11 789.761 1472.57 827.161Z" fill="#90CAF9"/>
</g>
<g id="fot_2_3">
<path id="Vector_110" d="M1617.32 865.991L1631.08 908.481C1631.08 908.481 1626.82 912.361 1626.82 916.611C1626.82 916.611 1651.16 918.381 1656.1 916.611C1661.04 914.841 1670.21 908.151 1672.68 903.211C1675.15 898.271 1663.16 861.311 1660.34 853.331C1657.52 845.351 1658.92 812.511 1657.16 801.591C1655.4 790.671 1617.32 865.991 1617.32 865.991Z" fill="#90CAF9"/>
<path id="Vector_111" opacity="0.3" d="M1622.73 882.671L1658.2 819.321L1658.31 824.321C1658.31 824.321 1625.24 890.471 1625.1 890.051C1624.96 889.631 1622.73 882.671 1622.73 882.671Z" fill="black"/>
</g>
<g id="hale_3">
<path id="Vector_112" d="M1660.67 774.711C1663.59 769.981 1663.67 763.061 1660.07 758.331C1658.58 756.48 1656.66 755.024 1654.47 754.092C1652.28 753.161 1649.9 752.783 1647.53 752.991C1643.02 753.544 1638.82 755.61 1635.62 758.851L1647.03 782.851C1652.48 782.111 1657.75 779.441 1660.67 774.711Z" fill="#90CAF9"/>
</g>
<g id="Highlights _2">
<path id="Vector_113" d="M1396.19 771.741C1403.92 765.977 1411.3 759.749 1418.27 753.091C1418.97 752.421 1417.91 751.361 1417.21 752.021C1410.34 758.601 1403.07 764.755 1395.44 770.451C1394.67 771.021 1395.44 772.321 1396.19 771.741Z" fill="#90CAF9"/>
<path id="Vector_114" d="M1422.12 749.891L1424.54 747.321L1424.87 746.961C1425.01 746.821 1425.09 746.63 1425.09 746.431C1425.09 746.233 1425.01 746.042 1424.87 745.901C1424.73 745.766 1424.54 745.69 1424.34 745.69C1424.15 745.69 1423.96 745.766 1423.81 745.901L1421.4 748.471L1421.06 748.831C1420.92 748.973 1420.85 749.163 1420.85 749.361C1420.85 749.559 1420.92 749.749 1421.06 749.891C1421.2 750.032 1421.39 750.111 1421.59 750.111C1421.79 750.111 1421.98 750.032 1422.12 749.891Z" fill="#90CAF9"/>
</g>
<g id="hode_3">
<g id="Group_9" opacity="0.3">
<path id="Vector_115" d="M1381.37 780.131C1379.45 780.011 1377.21 780.311 1376.16 781.921C1375.56 783.101 1375.36 784.448 1375.6 785.751C1375.86 788.439 1376.36 791.097 1377.11 793.691L1389.82 782.321C1387.18 781.046 1384.31 780.302 1381.37 780.131Z" fill="black"/>
</g>
<path id="Vector_116" d="M1357.9 848.911C1357.59 847.971 1367.97 824.371 1367.34 823.741C1366.71 823.111 1367.34 815.561 1367.34 815.561C1367.34 815.561 1374.24 796.681 1378.64 791.011C1383.04 785.341 1423.01 752.941 1423.01 752.941L1480.6 810.841C1480.6 810.841 1462.12 819.651 1456.41 821.841C1450.7 824.031 1412.63 849.841 1397.21 848.901C1397.21 848.901 1390.6 856.901 1386.82 857.401C1376.68 858.821 1370.71 858.401 1366.61 855.861C1363.51 853.802 1360.6 851.477 1357.9 848.911Z" fill="#90CAF9"/>
<g id="Group_10" opacity="0.3">
<path id="Vector_117" d="M1420.55 787.921C1419.19 784.261 1416.55 780.921 1412.84 779.631C1409.13 778.341 1404.08 779.631 1402.84 783.351C1401.7 786.703 1400.94 790.171 1400.56 793.691L1422.42 799.421C1422.17 795.531 1421.91 791.611 1420.55 787.921Z" fill="black"/>
</g>
<path id="Vector_118" d="M1419.55 789.451C1418.19 785.801 1415.55 782.451 1411.84 781.161C1408.13 779.871 1403.09 781.161 1401.84 784.881C1400.71 788.234 1399.94 791.701 1399.57 795.221L1421.42 800.951C1421.18 797.061 1420.92 793.101 1419.55 789.451Z" fill="#90CAF9"/>
<g id="Group_11" opacity="0.3">
<path id="Vector_119" d="M1414.65 792.191C1414.29 791.07 1413.68 790.041 1412.87 789.178C1412.07 788.315 1411.09 787.637 1409.99 787.191C1407.76 786.431 1404.7 787.191 1403.94 789.441C1403.26 791.468 1402.8 793.564 1402.57 795.691L1415.82 799.141C1415.77 796.78 1415.38 794.439 1414.65 792.191Z" fill="black"/>
</g>
<path id="Vector_120" d="M1376.44 857.841C1380.37 855.8 1383.62 852.65 1385.77 848.781C1385.28 851.043 1384.14 853.109 1382.48 854.721C1380.82 856.333 1378.72 857.419 1376.44 857.841Z" fill="#263238"/>
<path id="Vector_121" d="M1383.94 821.611C1385.29 824.131 1385.13 826.971 1383.58 827.941C1382.03 828.911 1379.67 827.661 1378.32 825.141C1376.97 822.621 1377.13 819.781 1378.68 818.801C1380.23 817.821 1382.59 819.041 1383.94 821.611Z" fill="#263238"/>
<path id="Vector_122" d="M1382.25 815.781C1382.16 815.834 1382.06 815.866 1381.95 815.876C1381.84 815.886 1381.74 815.875 1381.63 815.841C1380.7 815.501 1379.7 815.395 1378.72 815.535C1377.74 815.674 1376.81 816.055 1376.01 816.641C1375.93 816.709 1375.84 816.759 1375.74 816.79C1375.64 816.82 1375.54 816.83 1375.44 816.819C1375.33 816.808 1375.23 816.776 1375.14 816.724C1375.05 816.673 1374.98 816.604 1374.91 816.521C1374.79 816.339 1374.73 816.117 1374.76 815.898C1374.79 815.678 1374.9 815.477 1375.06 815.331C1376.06 814.569 1377.23 814.07 1378.47 813.88C1379.71 813.689 1380.97 813.814 1382.15 814.241C1382.36 814.32 1382.52 814.475 1382.61 814.673C1382.7 814.871 1382.71 815.097 1382.63 815.301C1382.57 815.502 1382.43 815.672 1382.25 815.781Z" fill="#263238"/>
<path id="Vector_123" d="M1379.92 821.611C1380.31 822.501 1380.34 823.341 1380 823.491C1379.66 823.641 1379.06 823.051 1378.67 822.161C1378.28 821.271 1378.25 820.431 1378.59 820.281C1378.93 820.131 1379.53 820.711 1379.92 821.611Z" fill="white"/>
<path id="Vector_124" d="M1360.54 841.611C1361.51 841.729 1362.44 842.112 1363.21 842.719C1363.97 843.325 1364.56 844.133 1364.9 845.051C1366.29 848.341 1366.9 855.911 1366.9 855.911C1364.4 855.572 1361.94 854.948 1359.57 854.051C1356.44 852.781 1355.57 851.941 1356.18 850.411C1356.79 848.881 1360.54 841.611 1360.54 841.611Z" fill="#263238"/>
<path id="Vector_125" d="M1381.37 780.131C1379.45 780.011 1377.21 780.311 1376.16 781.921C1375.56 783.101 1375.36 784.448 1375.6 785.751C1375.86 788.439 1376.36 791.097 1377.11 793.691L1389.82 782.321C1387.18 781.046 1384.31 780.302 1381.37 780.131Z" fill="#90CAF9"/>
</g>
</g>
<g id="igloo">
<path id="Vector_126" d="M563.593 898.54C563.593 898.54 576.319 590.515 275.153 590.515C-26.0134 590.515 -2.57481 898.54 -2.57481 898.54H563.593Z" fill="#EBF1FF"/>
<path id="Vector_127" d="M222.003 898.54C222.003 898.54 212.213 723.876 330.728 723.876C449.242 723.876 441.388 898.54 441.388 898.54H222.003Z" fill="#8FCDFF"/>
<path id="Vector_128" d="M251.131 898.54C251.131 898.54 241.325 723.876 359.855 723.876C478.385 723.876 470.516 898.54 470.516 898.54H251.131Z" fill="#DFF5FB"/>
<path id="Vector_129" d="M221.806 840.826C221.806 841.036 172.024 841.217 110.622 841.217C49.2212 841.217 -0.576172 841.036 -0.576172 840.826C-0.576172 840.615 49.2058 840.434 110.622 840.434C172.039 840.434 221.806 840.6 221.806 840.826Z" fill="#008DFF"/>
<path id="Vector_130" d="M149.966 842.09C150.197 842.09 150.381 855.054 150.381 871.045C150.381 887.036 150.197 900 149.966 900C149.735 900 149.566 887.036 149.566 871.045C149.566 855.054 149.751 842.09 149.966 842.09Z" fill="#008DFF"/>
<path id="Vector_131" d="M248.211 776.336C248.211 776.547 195.171 776.727 129.758 776.727C64.345 776.727 11.3047 776.547 11.3047 776.336C11.3047 776.125 64.3296 775.944 129.758 775.944C195.186 775.944 248.211 776.125 248.211 776.336Z" fill="#008DFF"/>
<path id="Vector_132" d="M210.415 842.527C210.2 842.527 210.016 827.801 210.016 809.642C210.016 791.483 210.2 776.772 210.415 776.772C210.63 776.772 210.815 791.483 210.815 809.642C210.815 827.801 210.646 842.527 210.415 842.527Z" fill="#008DFF"/>
<path id="Vector_133" d="M84.2021 840.78C83.9716 840.78 83.7871 826.446 83.7871 808.784C83.7871 791.122 83.9716 776.772 84.2021 776.772C84.4326 776.772 84.6017 791.092 84.6017 808.784C84.6017 826.476 84.3865 840.78 84.2021 840.78Z" fill="#008DFF"/>
<path id="Vector_134" d="M248.641 839.907C245.25 840.303 241.832 840.434 238.42 840.298C235.008 840.434 231.59 840.303 228.199 839.907C231.591 839.52 235.008 839.389 238.42 839.515C241.832 839.388 245.249 839.519 248.641 839.907Z" fill="#008DFF"/>
<path id="Vector_135" d="M304.709 856.952C304.709 857.148 293.289 854.467 279.333 850.929C265.378 847.391 254.097 844.379 254.143 844.168C254.189 843.958 265.562 846.638 279.533 850.191C293.504 853.745 304.77 856.741 304.709 856.952Z" fill="#008DFF"/>
<path id="Vector_136" d="M314.054 818.842C313.389 818.684 312.744 818.451 312.133 818.15L307.03 815.996C302.742 814.129 296.825 811.479 290.308 808.588C283.792 805.697 277.92 802.957 273.678 800.969L268.683 798.59C268.057 798.322 267.46 797.995 266.9 797.612C267.561 797.785 268.204 798.017 268.822 798.304L273.924 800.472C278.228 802.324 284.13 804.99 290.646 807.881C297.163 810.772 303.034 813.497 307.261 815.409L312.271 817.803C312.901 818.087 313.499 818.435 314.054 818.842Z" fill="#008DFF"/>
<path id="Vector_137" d="M331.221 786.574C331.067 786.74 322.598 779.046 312.316 769.53C302.034 760.013 293.796 752.048 293.949 751.898C294.103 751.747 302.572 759.426 312.854 768.957C323.136 778.489 331.374 786.424 331.221 786.574Z" fill="#008DFF"/>
<path id="Vector_138" d="M317.435 773.746C317.265 774.272 317.032 774.777 316.743 775.251C316.17 776.366 315.463 777.721 314.622 779.317C312.809 782.75 310.242 787.448 307.368 792.627C304.494 797.807 301.85 802.46 299.898 805.817C298.976 807.323 298.192 808.693 297.562 809.777C297.301 810.279 296.981 810.749 296.609 811.178C296.778 810.653 297.005 810.148 297.286 809.672L299.407 805.592C301.236 802.174 303.787 797.461 306.661 792.296C309.535 787.131 312.179 782.464 314.131 779.106L316.467 775.146C316.733 774.644 317.058 774.174 317.435 773.746Z" fill="#008DFF"/>
<path id="Vector_139" d="M421.962 746.251C422.131 746.402 413.77 755.542 403.319 766.684C392.868 777.826 384.23 786.725 384.092 786.575C383.953 786.424 392.284 777.284 402.75 766.142C413.217 755 421.808 746.101 421.962 746.251Z" fill="#008DFF"/>
<path id="Vector_140" d="M428.664 811.223C428.223 810.762 427.831 810.258 427.496 809.717C426.774 808.693 425.775 807.188 424.545 805.321C422.101 801.602 418.766 796.422 415.17 790.655C407.946 779.136 402.428 769.575 402.982 769.289C402.982 769.289 403.058 769.439 403.212 769.725C403.366 770.012 403.612 770.433 403.919 770.96C404.641 772.165 405.564 773.67 406.64 775.477L415.861 790.248C419.396 795.955 422.609 801.105 425.083 805.035C426.159 806.841 427.081 808.347 427.803 809.552C428.147 810.079 428.436 810.639 428.664 811.223Z" fill="#008DFF"/>
<path id="Vector_141" d="M455.406 801.361C455.499 801.556 444.002 806.315 429.755 811.991C415.507 817.668 403.888 822.094 403.811 821.899C403.734 821.703 415.215 816.945 429.463 811.268C443.71 805.592 455.33 801.165 455.406 801.361Z" fill="#008DFF"/>
<path id="Vector_142" d="M467.733 849.905C467.733 850.116 455.222 852.676 439.683 855.612C424.145 858.548 411.511 860.761 411.465 860.55C411.419 860.34 424.053 857.81 439.53 854.799C455.007 851.787 467.702 849.694 467.733 849.905Z" fill="#008DFF"/>
<path id="Vector_143" d="M273.539 777.164C272.233 777.414 270.905 777.536 269.574 777.525C267.115 777.631 263.718 777.706 259.968 777.676C256.218 777.646 252.837 777.51 250.377 777.36C249.043 777.356 247.714 777.209 246.412 776.923C247.732 776.761 249.065 776.72 250.393 776.803L259.983 776.893L269.559 776.968C270.889 776.909 272.222 776.975 273.539 777.164Z" fill="#008DFF"/>
<path id="Vector_144" d="M515.471 712.328C515.471 712.538 408.668 712.719 276.951 712.719C145.234 712.719 38.416 712.538 38.416 712.328C38.416 712.117 145.188 711.936 276.951 711.936C408.714 711.936 515.471 712.117 515.471 712.328Z" fill="#008DFF"/>
<path id="Vector_145" d="M544.257 776.095C544.257 776.305 522.739 776.486 496.165 776.486C469.591 776.486 448.059 776.305 448.059 776.095C448.059 775.884 469.576 775.703 496.165 775.703C522.755 775.703 544.257 775.884 544.257 776.095Z" fill="#008DFF"/>
<path id="Vector_146" d="M560.012 840.027C560.012 840.238 539.74 840.419 514.733 840.419C489.727 840.419 469.439 840.238 469.439 840.027C469.439 839.817 489.712 839.636 514.733 839.636C539.755 839.636 560.012 839.817 560.012 840.027Z" fill="#008DFF"/>
<path id="Vector_147" d="M465.55 840.027C465.319 840.027 465.15 826.325 465.15 809.446C465.15 792.567 465.319 778.85 465.55 778.85C465.781 778.85 465.95 792.537 465.95 809.446C465.95 826.355 465.719 840.027 465.55 840.027Z" fill="#008DFF"/>
<path id="Vector_148" d="M515.011 896.251C514.78 896.251 514.611 884.281 514.611 869.51C514.611 854.738 514.734 842.753 515.011 842.753C515.288 842.753 515.411 854.799 515.411 869.479C515.411 884.16 515.226 896.251 515.011 896.251Z" fill="#008DFF"/>
<path id="Vector_149" d="M512.473 776.607C512.22 775.771 512.045 774.914 511.95 774.047C511.627 772.255 511.228 769.891 510.721 767.03C509.66 761.113 508.031 752.967 505.787 744.068C503.543 735.169 501.176 727.219 499.255 721.483C498.333 718.727 497.58 716.438 497.011 714.722C496.683 713.908 496.431 713.066 496.258 712.207C496.662 712.986 497.011 713.791 497.303 714.616C497.933 716.122 498.84 718.471 499.793 721.317C501.806 726.993 504.311 734.959 506.571 743.903C508.83 752.847 510.367 761.008 511.274 766.955C511.735 769.967 512.073 772.346 512.258 774.017C512.388 774.875 512.46 775.74 512.473 776.607Z" fill="#008DFF"/>
<path id="Vector_150" d="M462.694 651.527C462.694 651.737 378.162 651.918 273.941 651.918C169.72 651.918 85.1875 651.737 85.1875 651.527C85.1875 651.316 169.72 651.12 273.941 651.12C378.162 651.12 462.694 651.316 462.694 651.527Z" fill="#008DFF"/>
<path id="Vector_151" d="M216.779 712.162C216.706 711.35 216.706 710.534 216.779 709.723C216.779 708.217 216.918 705.883 217.163 703.082C218.522 688.461 222.502 674.189 228.921 660.922C230.166 658.393 231.227 656.405 231.995 655.02C232.361 654.291 232.794 653.596 233.286 652.942C233.002 653.705 232.658 654.445 232.256 655.155C231.549 656.556 230.566 658.603 229.398 661.178C223.302 674.483 219.351 688.635 217.686 703.127C217.363 705.898 217.148 708.157 217.04 709.723C217.03 710.542 216.942 711.358 216.779 712.162Z" fill="#008DFF"/>
<path id="Vector_152" d="M344.714 713.939C344.489 713.134 344.329 712.314 344.238 711.484C343.992 709.768 343.654 707.509 343.239 704.784C342.455 698.987 341.41 691.232 340.242 682.65C339.074 674.067 337.89 666.207 336.845 660.591C336.338 657.881 335.907 655.637 335.569 653.936C335.376 653.133 335.237 652.318 335.154 651.497C335.468 652.267 335.709 653.063 335.877 653.876C336.276 655.381 336.83 657.685 337.414 660.486C338.597 666.087 339.888 673.902 341.041 682.545C342.194 691.187 343.131 699.107 343.807 704.724C344.115 707.464 344.361 709.723 344.545 711.454C344.681 712.275 344.738 713.107 344.714 713.939Z" fill="#008DFF"/>
<path id="Vector_153" d="M453.054 710.535C452.765 709.762 452.544 708.966 452.393 708.156L450.856 701.637C449.534 696.111 447.782 688.492 445.077 680.27C443.74 676.16 442.28 672.32 440.819 668.872C439.359 665.424 437.838 662.398 436.455 659.928C435.794 658.663 435.102 657.579 434.533 656.601C433.965 655.622 433.457 654.809 432.996 654.146C432.514 653.473 432.087 652.763 431.721 652.023C432.287 652.633 432.801 653.288 433.258 653.981C433.734 654.613 434.303 655.486 434.902 656.375C435.502 657.263 436.239 658.407 436.931 659.657C438.631 662.55 440.17 665.531 441.542 668.586C443.079 672.034 444.616 675.904 445.891 680.03C448.112 687.096 449.969 694.267 451.455 701.516C452.039 704.287 452.47 706.545 452.762 708.096C452.931 708.899 453.029 709.716 453.054 710.535Z" fill="#008DFF"/>
<path id="Vector_154" d="M119.55 650.638C119.15 651.425 118.688 652.181 118.167 652.897C117.23 654.402 115.908 656.405 114.309 659.01C110.148 665.775 106.406 672.779 103.105 679.985C99.8289 687.202 97.0059 694.609 94.6517 702.164C93.7449 705.055 93.1147 707.419 92.5922 709.06C92.3984 709.919 92.1311 710.76 91.793 711.575C91.9032 710.701 92.0727 709.836 92.3001 708.985C92.6536 707.313 93.2684 704.934 94.1138 701.998C96.321 694.371 99.0843 686.908 102.383 679.668C105.687 672.427 109.508 665.424 113.818 658.709C115.493 656.149 116.891 654.101 117.921 652.686C118.416 651.968 118.961 651.284 119.55 650.638Z" fill="#008DFF"/>
<path id="Vector_155" d="M149.721 776.11C149.526 775.309 149.408 774.493 149.368 773.671C149.183 772.165 149.03 769.816 148.922 766.985C148.441 752.203 150.642 737.454 155.424 723.425C156.346 720.745 157.176 718.591 157.806 717.146C158.098 716.374 158.447 715.624 158.851 714.902C158.666 715.704 158.414 716.49 158.098 717.251C157.56 718.757 156.822 720.895 155.961 723.59C151.493 737.628 149.31 752.267 149.491 766.97C149.491 769.801 149.598 772.074 149.675 773.655C149.751 774.471 149.767 775.292 149.721 776.11Z" fill="#008DFF"/>
<path id="Vector_156" d="M40.9212 772.812C40.8544 772.031 40.8544 771.245 40.9212 770.463C40.9212 768.957 41.121 766.789 41.4284 764.109C42.2954 757.13 43.7398 750.231 45.7472 743.481C48.0527 735.561 50.6347 728.559 52.5713 723.515C53.5396 721 54.3542 718.998 54.9228 717.567C55.193 716.833 55.5166 716.118 55.8911 715.429C55.7469 716.198 55.5202 716.95 55.2149 717.673C54.6769 719.178 53.9545 721.271 53.1092 723.696C51.311 728.77 48.8058 735.741 46.5157 743.676C44.5306 750.393 43.0158 757.235 41.9817 764.154C41.6128 766.819 41.3669 768.973 41.2439 770.478C41.2046 771.264 41.0966 772.045 40.9212 772.812Z" fill="#008DFF"/>
<path id="Vector_157" d="M294.38 733.107C293.688 729.949 293.256 726.741 293.089 723.515C292.662 720.306 292.493 717.069 292.582 713.833C293.283 716.996 293.72 720.208 293.888 723.44C294.324 726.643 294.488 729.877 294.38 733.107Z" fill="#008DFF"/>
<path id="Vector_158" d="M256.649 591.494C256.356 591.639 256.046 591.751 255.727 591.825L253.068 592.608L251.131 593.165C250.424 593.391 249.686 593.677 248.872 593.963C247.335 594.551 245.383 595.123 243.431 596.011L240.357 597.336C239.281 597.803 238.205 598.39 237.068 598.947C234.763 600.016 232.457 601.417 229.998 602.832C219.419 609.263 210.191 617.614 202.809 627.435C201.18 629.739 199.566 631.953 198.291 634.046C197.645 635.115 196.954 636.123 196.4 637.057L194.863 640.068C193.787 641.92 193.065 643.697 192.343 645.233C191.989 646.001 191.636 646.739 191.359 647.371C191.082 648.004 190.867 648.651 190.652 649.223C190.237 650.262 189.899 651.105 189.622 651.768C189.523 652.073 189.389 652.366 189.223 652.641C189.268 652.325 189.356 652.016 189.484 651.723C189.699 651.045 189.991 650.217 190.36 649.118L191.006 647.236C191.267 646.558 191.605 645.835 191.928 645.052C192.619 643.547 193.311 641.695 194.356 639.827C194.848 638.864 195.37 637.87 195.893 636.816C196.416 635.762 197.123 634.768 197.753 633.684C199.013 631.486 200.611 629.318 202.241 626.984C205.95 622.054 210.112 617.468 214.675 613.282C219.295 609.162 224.285 605.458 229.583 602.215C232.088 600.814 234.424 599.414 236.745 598.36C237.898 597.818 238.989 597.246 240.08 596.854L243.247 595.574C245.229 594.701 247.12 594.174 248.764 593.617C249.579 593.361 250.301 593.09 251.039 592.879L253.006 592.397L255.727 591.75C256.022 591.626 256.331 591.54 256.649 591.494Z" fill="#008DFF"/>
<path id="Vector_159" d="M361.313 654.869C361.181 654.598 361.073 654.316 360.99 654.026L360.176 651.602C359.853 650.548 359.438 649.253 358.854 647.792C358.27 646.332 357.717 644.615 356.871 642.823C356.026 641.032 355.212 639.014 354.09 636.951C352.968 634.888 351.815 632.705 350.462 630.446C344.497 620.705 336.762 612.116 327.639 605.105C325.518 603.599 323.504 602.094 321.491 600.769C319.477 599.444 317.633 598.345 315.896 597.351C314.159 596.357 312.515 595.544 311.101 594.806C309.687 594.068 308.442 593.481 307.412 593.029L305.045 591.945C304.758 591.84 304.489 591.692 304.246 591.509C304.542 591.576 304.83 591.672 305.107 591.795L307.535 592.758C308.818 593.242 310.075 593.79 311.301 594.4C312.745 595.122 314.375 595.905 316.173 596.869C317.971 597.833 319.877 598.902 321.86 600.227C323.842 601.552 325.933 602.967 328.084 604.548C332.668 608.075 336.931 611.985 340.826 616.232C344.655 620.543 348.086 625.179 351.077 630.085C352.414 632.374 353.675 634.602 354.674 636.665C355.673 638.728 356.595 640.776 357.379 642.688C358.162 644.6 358.716 646.241 359.254 647.717C359.792 649.193 360.176 650.518 360.468 651.587C360.76 652.656 360.96 653.424 361.129 654.071C361.224 654.329 361.285 654.597 361.313 654.869Z" fill="#008DFF"/>
<path id="Vector_160" d="M357.551 776.095C351.942 776.051 346.396 777.261 341.336 779.633C384.002 799.659 380.836 898.494 380.836 898.494H413.296C413.296 898.494 417.215 776.095 357.551 776.095Z" fill="#8BAFFF"/>
<path id="Vector_161" d="M341.333 779.633C298.836 799.659 302.801 898.464 302.801 898.464H380.832C380.832 898.464 383.999 799.659 341.333 779.633Z" fill="#CDE9FF"/>
<path id="Vector_162" d="M348.237 724.403C348.452 724.403 350.527 735.877 352.848 750.091C355.168 764.305 356.905 775.884 356.69 775.929C356.475 775.974 354.4 764.455 352.079 750.226C349.758 735.997 348.022 724.433 348.237 724.403Z" fill="#008DFF"/>
<path id="Vector_163" d="M522.695 778.173C526.998 778.173 530.487 774.755 530.487 770.539C530.487 766.322 526.998 762.905 522.695 762.905C518.391 762.905 514.902 766.322 514.902 770.539C514.902 774.755 518.391 778.173 522.695 778.173Z" fill="#EBF1FF"/>
<path id="Vector_164" d="M55.8768 602.545C58.0243 602.545 59.7653 600.84 59.7653 598.736C59.7653 596.632 58.0243 594.927 55.8768 594.927C53.7292 594.927 51.9883 596.632 51.9883 598.736C51.9883 600.84 53.7292 602.545 55.8768 602.545Z" fill="#EBF1FF"/>
<path id="Vector_165" d="M575.812 841.638C577.96 841.638 579.701 839.933 579.701 837.829C579.701 835.725 577.96 834.02 575.812 834.02C573.665 834.02 571.924 835.725 571.924 837.829C571.924 839.933 573.665 841.638 575.812 841.638Z" fill="#EBF1FF"/>
<path id="Vector_166" d="M348.941 600.136C351.089 600.136 352.83 598.431 352.83 596.327C352.83 594.223 351.089 592.517 348.941 592.517C346.794 592.517 345.053 594.223 345.053 596.327C345.053 598.431 346.794 600.136 348.941 600.136Z" fill="#EBF1FF"/>
<path id="Vector_167" d="M693.713 582.67C695.86 582.67 697.601 580.964 697.601 578.86C697.601 576.757 695.86 575.051 693.713 575.051C691.565 575.051 689.824 576.757 689.824 578.86C689.824 580.964 691.565 582.67 693.713 582.67Z" fill="#EBF1FF"/>
<path id="Vector_168" d="M419.056 537.619C421.204 537.619 422.945 535.913 422.945 533.809C422.945 531.706 421.204 530 419.056 530C416.909 530 415.168 531.706 415.168 533.809C415.168 535.913 416.909 537.619 419.056 537.619Z" fill="#EBF1FF"/>
</g>
</g>
<defs>
<clipPath id="clip0_110_536">
<rect width="1913" height="1078" fill="white"/>
</clipPath>
</defs>
</svg>
