<svg width="1913" height="610" viewBox="0 0 1913 610" fill="none" xmlns="http://www.w3.org/2000/svg">
<g id="Group 141">
<rect id="Rectangle 63" width="1913" height="609" fill="#FFEBC0"/>
<path id="Vector 71" d="M1012 538L947 547L962 549L1012 546L1098 540L1146.5 537L1231 522L1261.5 506.5L1300.5 513.5L1309.5 522.5L1313.5 523.5L1316.5 511L1324.5 512L1327 522.5L1329.5 521.5L1329 516L1334.5 513.5L1337 523.5L1341.5 527L1348 540.5L1429.5 553.5L1672.5 535.5L1710.5 523L1701.5 510.5H1740.5L1736.5 494L1721.5 476L1683.5 444.5L1676.5 426.5L1678 395L1661.5 389L1658 436L1639.5 448L1633.5 365V333L1612.5 318L1608.5 338V444.5L1568.5 455V387L1538.5 217.5H1497.5L1477 205.5L1353.5 186L1340.5 195.5H1302L1271.5 333.5L1279.5 456L1233 448L1216 411.5L1223.5 358V316L1196 324.5V361L1188 403V456L1166 473.5L1142 469H1112.5L1098 503L1012 538Z" fill="#B88905"/>
<path id="Vector 70" d="M168 556L62 582L179 576.5L236 530.5L272.5 533L293.5 548.5L345.5 536.5L473.5 552.5L504.5 545L595.5 548L600 545L602 541.5H604L605 547L609 548.5L616.5 540L636.5 537.5L632 543L640.5 549L677 555.5L681.5 554L622 522L618 479L570.5 467.5L539.5 483L520.5 453L518 356.5L500 305L498.5 256.5L487.5 257L480 271V339L458.5 321.5L452.5 186.5L398 171L386 186.5L369.5 177.5L277.5 194.5L258.5 212V321.5L245.5 337.5L240 427.5L219.5 410.5L217 354.5L184 330.5L191 425L168 556Z" fill="#B88905"/>
<path id="Vector 69" d="M1912 609.5H1V601L42.5 579.5L171.5 573.5H180.5L237.5 527.5L267 528.5L295 545L351 532.5L475 549.5L505.5 542L597 545.5L602 541.5L603 539H606L607 544L610.5 545.5L618 536.5L638 534.5L632 540L641 545.5L679 552.5L721 542L837 547.5L877.5 538.5L960 546.5L1143 534.5L1230 519.5L1260.5 504L1299 511L1308.5 520L1311.5 520.5L1316 508.5L1322.5 509.5L1325 520L1328.5 519L1328 513.5L1334.5 511C1334.5 514.333 1335.6 521.7 1340 524.5C1344.4 527.3 1345.83 534.667 1346 538L1426 549.5L1667 535L1707 520L1698 507H1749.5L1804 554H1846.5L1895.5 538.5L1912 609.5Z" fill="#665010"/>
</g>
</svg>
