<svg width="1400" height="321" viewBox="0 0 1400 321" fill="none" xmlns="http://www.w3.org/2000/svg">
<g id="Busker">
<g id="busk4">
<path id="Vector" d="M459.719 303.091C453.095 309.207 444.498 314.211 434.588 317.719H0V20.0779C16.8971 34.8886 22.2783 56.2454 22.2783 56.2454C22.5474 24.5028 61.9918 -10.6408 79.158 3.03632C96.3241 16.7134 64.6286 63.8885 64.6286 63.8885C88.8441 70.5442 111.822 85.8303 113.06 86.8908C112.629 85.684 102.028 59.5001 127.428 51.4913C152.827 43.4825 156.11 80.4911 156.11 80.4911C156.11 80.4911 154.926 14.6656 189.419 41.7272C223.913 68.7889 198.675 112.343 198.675 112.343C234.245 117.975 234.837 147.706 234.837 147.706C246.506 126.644 267.106 108.407 294.031 95.3019C304.189 126.878 296.26 159.897 271.86 187.641C288.692 186.782 305.59 186.672 322.443 187.312C342.085 188.555 337.941 205.121 337.941 205.121C337.941 205.121 363.61 185.337 392.507 176.194C421.404 167.052 375.449 218.396 375.449 218.396C375.449 218.396 407.736 207.717 436.687 222.967C436.687 222.967 420.974 243.08 387.395 244.909C387.395 244.909 423.395 274.165 408.543 292.45C408.597 292.34 434.75 277.639 459.719 303.091Z" fill="#7E6527"/>
</g>
<g id="busk1">
<path id="Vector_2" d="M1399.83 34.5911V320.116H918.254C924.843 313.388 934.461 308.726 945.284 307.016C922.511 292.205 920.972 277.394 920.972 277.394C957.338 271.797 996.268 294.11 996.268 294.11C992.662 280.379 994.261 266.155 1000.88 253.084C1007.49 240.013 1018.86 228.629 1033.66 220.25C980.06 214.186 978.624 181.377 978.624 181.377C1015.19 158.519 1058.18 169.404 1058.18 169.404C1036.79 141.726 1053.05 103.591 1053.05 103.591C1092.23 117.975 1094.59 163.262 1094.59 163.262C1104.39 146.352 1129.22 132.863 1129.22 132.863C1129.22 132.863 1120.44 108.295 1132.7 101.764C1144.96 95.2336 1181.58 104.485 1183.33 104.874C1181.74 103.242 1135.73 55.8937 1170.04 53.95C1204.36 52.0063 1237.34 85.3598 1237.34 85.3598C1217.64 55.1163 1229.23 8.93458 1252.42 16.3983C1275.6 23.862 1278.06 78.9845 1278.06 78.9845C1302.94 77.4684 1332.33 84.6989 1334.02 85.0877C1332.74 84.0381 1307.4 62.6188 1324.02 46.7973C1340.64 30.9758 1363.77 61.3749 1366.44 64.7957C1363.36 60.2087 1326.28 3.57004 1370.75 17.4867C1382.29 21.1051 1392.34 27.0136 1399.83 34.5911Z" fill="#4B4B0F"/>
</g>
</g>
</svg>
