<svg width="416" height="493" viewBox="0 0 416 493" fill="none" xmlns="http://www.w3.org/2000/svg">
<path id="Vector" d="M68.7626 222.516C67.314 224.697 90.9141 252.441 90.9141 252.441L134.315 295.422L151.871 308.478L152.13 313.325L100.049 295.373L67.4137 276.339L64.8704 277.955L93.7827 296.44L44.9119 308.962L45.1443 313.309L98.0045 301.336L160.041 323.101L199.509 371.576C199.509 371.576 211.31 394.973 212.446 396.605C213.582 398.237 225.791 409.661 225.791 409.661L219.662 492.359H273.428L252.133 360.152L264.915 323.149C264.915 323.149 287.68 275.822 288.037 272.558C288.395 269.294 290.154 233.39 290.154 233.39C290.154 233.39 313.273 202.366 317.435 191.492C321.596 180.617 338.699 136.004 339.144 134.372C339.589 132.74 366.03 104.996 366.03 104.996L403.745 110.426L403.456 105.013L370.023 100.65L415.752 88.208L415.407 81.7447L363.075 98.3231L334.093 128.604L311.274 188.389L284.516 214.889L283.005 186.612L207.958 123.498L205.06 127.86L267.256 187.161L268.221 234.489L247.824 276.921L235.372 290.526L222.176 253.022L210.334 208.943L196.971 165.978L183.5 111.04C183.5 111.04 183.625 64.1807 184.039 62.5648C184.454 60.949 197.455 27.7438 197.9 26.1118C198.344 24.4798 223.395 0 223.395 0L215.568 0L194.009 20.6826L177.633 57.5073L174.575 113.334L200.534 212.724L202.156 253.022L215.936 293.822L224.931 344.963L222.683 381.965L207.325 359.667L157.14 299.284L124.817 276.436L94.3801 248.175L75.7213 224.148L67.702 202.382L12.7161 159.951L12.9752 164.798L60.374 202.334L0.700475 200.169L0.87323 203.4L62.2149 207.198L68.7626 222.516Z" fill="#263238"/>
</svg>
