<svg width="257" height="182" viewBox="0 0 257 182" fill="none" xmlns="http://www.w3.org/2000/svg">
<g id="busk1">
<path id="stilk" d="M34.8594 19.5786C40.3449 22.2749 45.7673 24.9712 51.1268 27.7117C56.4862 30.4522 62.5392 33.6347 68.0878 36.552C79.0589 42.4455 89.5676 48.4864 99.6139 54.6747C105.289 58.034 110.774 61.4818 116.197 64.9737C131.771 74.8748 146.399 85.0411 160.333 95.2959C166.197 99.7161 171.872 104.136 177.357 108.335C189.968 118.104 201.317 128.005 212.099 137.862C216.008 141.354 219.792 144.89 223.449 148.426C234.861 159.3 245.328 170.129 254.975 180.87" stroke="#263238" stroke-linecap="round" stroke-linejoin="round"/>
<path id="Vector" d="M238.186 161.254C238.186 161.254 217.249 112.549 236.023 100.59C254.796 88.6303 263.938 140.229 250.748 172.924C250.748 172.924 158.069 194.238 148.996 162.556C139.923 130.873 238.186 161.254 238.186 161.254Z" fill="#04541E"/>
<path id="Vector_2" d="M185.92 117.061C185.92 117.061 143.318 69.8936 167.912 61.3726C192.506 52.8516 207.851 121.294 204.838 133.333C204.838 133.333 125.101 138.831 118.234 116.841C111.367 94.8517 185.92 117.061 185.92 117.061Z" fill="#04541E"/>
<path id="Vector_3" d="M118.585 66.1004C118.585 66.1004 96.0933 35.6448 105.202 27.2338C114.311 18.8228 137.084 78.9093 137.084 78.9093C137.084 78.9093 78.0857 84.4067 72.1299 74.9512C66.1741 65.4956 118.585 66.1004 118.585 66.1004Z" fill="#04541E"/>
<path id="Vector_4" d="M64.0052 32.2908C64.0052 32.2908 46.5583 5.68342 54.0556 1.39545C61.5529 -2.89252 82.8536 43.4505 82.8536 43.4505C82.8536 43.4505 31.073 50.4323 28.7608 41.5265C26.4485 32.6208 64.0052 32.2908 64.0052 32.2908Z" fill="#04541E"/>
<path id="Vector_5" d="M0.522106 3.4845C4.23573 -5.91605 28.5494 4.85882 47.1176 22.0107C47.1176 22.0107 -5.78405 19.7018 0.522106 3.4845Z" fill="#04541E"/>
</g>
</svg>
