<svg width="392" height="352" viewBox="0 0 392 352" fill="none" xmlns="http://www.w3.org/2000/svg">
<g id="blad1">
<path id="Vector" d="M326.78 27.9246C321.508 32.0443 316.381 36.2065 311.328 40.4161C306.276 44.6258 300.55 49.4036 295.377 53.9352C285.023 62.8943 275.171 71.907 265.82 80.9734C260.607 85.9786 255.536 90.9742 250.681 96.0078C236.431 110.512 223.253 125.101 210.925 139.634C205.785 145.733 200.933 151.865 196.218 157.935C185.537 171.573 175.776 185.149 166.859 198.564C163.625 203.384 160.388 208.153 157.508 212.95C144.622 232.961 134.129 252.603 124.805 271.643C122.038 277.061 119.369 282.89 116.963 288.387C107.24 309.966 99.4263 330.318 93.1783 349.624C91.8783 353.583 90.7165 357.48 89.5477 361.273C88.9615 363.143 88.4461 365.009 87.8426 366.619" stroke="#263238" stroke-linecap="round" stroke-linejoin="round"/>
<path id="Vector_2" d="M94.7976 350.197C94.7976 350.197 82.7124 289.806 38.4124 270.892C-5.88765 251.978 26.756 346.69 91.2526 362.066C155.749 377.442 229.506 319.902 209.862 298.219C190.219 276.535 94.7976 350.197 94.7976 350.197Z" fill="#53B172"/>
<path id="Vector_3" d="M126.138 270.857C126.138 270.857 133.007 204.22 90.5361 195.996C48.0653 187.772 94.8166 274.744 118.372 287.255C141.927 299.765 256.944 255.811 246.874 233.537C236.803 211.263 126.138 270.857 126.138 270.857Z" fill="#53B172"/>
<path id="Vector_4" d="M167.794 197.13C167.794 197.13 174.794 143.291 153.392 134.068C131.99 124.846 137.378 179.7 158.55 211.219C158.55 211.219 253.823 217.653 253.94 183.38C254.057 149.106 167.794 197.13 167.794 197.13Z" fill="#53B172"/>
<path id="Vector_5" d="M212.542 138.194C212.542 138.194 242.643 89.1933 216.804 85.6945C190.964 82.1956 192.36 145.624 198.106 155.794C198.106 155.794 276.807 147.667 278.192 126.87C279.577 106.072 212.542 138.194 212.542 138.194Z" fill="#53B172"/>
<path id="Vector_6" d="M264.662 80.598C264.662 80.598 278.872 49.4644 268.243 43.4168C257.613 37.3692 250.096 95.1901 250.096 95.1901C250.096 95.1901 307.501 90.234 311.039 80.9526C314.576 71.6711 264.662 80.598 264.662 80.598Z" fill="#53B172"/>
<path id="Vector_7" d="M367.141 2.98071C361.345 -5.50615 340.388 9.23377 326.846 28.9223C326.846 28.9223 377.123 17.5031 367.141 2.98071Z" fill="#53B172"/>
<path id="Vector_8" d="M310.102 39.3928C310.102 39.3928 320.807 13.4718 312.535 10.9904C304.263 8.50907 294.32 52.0963 294.32 52.0963C294.32 52.0963 346.568 49.6797 346.726 41.5936C346.884 33.5076 310.102 39.3928 310.102 39.3928Z" fill="#53B172"/>
</g>
</svg>
