<svg width="208" height="533" viewBox="0 0 208 533" fill="none" xmlns="http://www.w3.org/2000/svg">
<g id="blad3">
<path id="Vector" d="M70.1896 38.9639C69.4203 44.622 68.7385 50.2269 68.144 55.7783C67.4621 61.7568 66.885 67.6819 66.4129 73.607C65.4162 85.297 64.7344 96.8802 64.3672 108.25C64.1049 114.602 64 120.901 64 127.093C64 145.081 64.4196 162.59 65.6261 179.618C66.1506 186.735 66.78 193.852 67.5144 200.969C69.088 216.716 71.1864 232.089 73.7042 246.929C74.5959 252.266 75.54 257.604 76.5366 262.675C80.733 284.401 85.7688 305.112 91.3815 324.702C93.06 330.52 94.7386 336.232 96.627 341.837C103.394 363.562 110.842 383.739 118.448 402.262C120.022 406.052 121.595 409.788 123.169 413.418C140.938 455.359 163.004 495.276 189 532.506" stroke="#263238" stroke-linecap="round" stroke-linejoin="round"/>
<path id="Vector_2" d="M136.278 444.481C136.278 444.481 79.5237 397.009 28.1447 401.081C-23.2344 405.154 77.0107 473.279 142.561 456.64C208.111 440.001 224.446 354.656 191.427 344.824C158.407 334.992 136.278 444.481 136.278 444.481Z" fill="#53B172"/>
<path id="Vector_3" d="M99.0603 358.55C99.0603 358.55 50.945 293.603 9.36552 305.825C-32.2139 318.047 76.3933 376.971 105.874 377.502C135.355 378.034 194.735 283.035 168.452 267.094C142.169 251.152 99.0603 358.55 99.0603 358.55Z" fill="#53B172"/>
<path id="bad" d="M78.1104 271.113C78.1104 271.113 40.2849 217.184 14.9509 218.912C-10.3831 220.64 38.4602 269.563 82.1806 288.692C82.1806 288.692 168.218 248.35 140.498 216.112C112.778 183.874 78.1104 271.113 78.1104 271.113Z" fill="#53B172"/>
<path id="bad_2" d="M66.1354 197.043C66.1354 197.043 50.846 135.131 26.3264 144.286C1.80674 153.44 55.5667 214.027 68.6015 221.073C68.6015 221.073 128.421 174.94 112.215 154.163C96.01 133.385 66.1354 197.043 66.1354 197.043Z" fill="#53B172"/>
<path id="bad_3" d="M63.5669 116.071C63.5669 116.071 50.1573 79.3161 35.9713 78.7747C21.7854 78.2333 63.0022 137.307 63.0022 137.307C63.0022 137.307 108.383 104.1 103.655 93.3324C98.9259 82.5644 63.5669 116.071 63.5669 116.071Z" fill="#53B172"/>
<path id="bad_4" d="M70.8238 58.6161C70.8238 58.6161 57.7281 27.812 48.7422 29.3762C39.7563 30.9405 68.4553 78.7711 68.4553 78.7711C68.4553 78.7711 109.902 51.2761 103.284 43.214C96.6667 35.152 70.8238 58.6161 70.8238 58.6161Z" fill="#53B172"/>
<path id="bad_5" d="M84.4 0.597443C72.1208 -4.10073 65.1041 19.6951 69.1463 44.4063C68.9175 44.3453 105.603 8.77348 84.4 0.597443Z" fill="#53B172"/>
</g>
</svg>
