<svg width="1894" height="631" viewBox="0 0 1894 631" fill="none" xmlns="http://www.w3.org/2000/svg">
<g id="bladerForan">
<g id="blad2" opacity="0.55">
<path id="Vector" d="M54.3042 496.116C54.3042 496.116 175.855 315.669 150.476 71.0602" stroke="#263238" stroke-linecap="round" stroke-linejoin="round"/>
<path id="Vector_2" d="M75.1818 456.041C75.1818 456.041 129.155 408.44 180.879 413.333C232.603 418.226 136.023 486.291 69.8437 468.386C3.66398 450.481 -18.4957 363.176 14.2581 353.579C47.0119 343.983 75.1818 456.041 75.1818 456.041Z" fill="#04541E"/>
<path id="Vector_3" d="M110.787 378.585C110.787 378.585 155.276 313.778 197.814 326.847C240.352 339.917 134.652 397.387 105.237 397.551C75.8221 397.714 10.3247 301.085 35.8306 285.639C61.3364 270.192 110.787 378.585 110.787 378.585Z" fill="#04541E"/>
<path id="Vector_4" d="M135.851 297.049C135.851 297.049 170.364 243.745 195.96 245.9C221.556 248.055 175.554 295.945 133.111 314.46C133.111 314.46 45.0704 273.342 70.7783 241.371C96.4861 209.4 135.851 297.049 135.851 297.049Z" fill="#04541E"/>
<path id="Vector_5" d="M146.836 221.563C146.836 221.563 158.65 160.786 183.565 170.13C208.481 179.474 158.595 238.492 145.746 245.236C145.746 245.236 83.8087 198.869 98.6331 178.646C113.457 158.423 146.836 221.563 146.836 221.563Z" fill="#04541E"/>
<path id="Vector_6" d="M152.243 142.817C152.243 142.817 163.34 106.746 177.379 106.415C191.419 106.083 153.982 163.74 153.982 163.74C153.982 163.74 107.155 130.332 111.213 119.779C115.271 109.225 152.243 142.817 152.243 142.817Z" fill="#04541E"/>
<path id="Vector_7" d="M152.399 86.1014C152.399 86.1014 163.718 55.8946 172.856 57.5509C181.994 59.2071 155.915 105.989 155.915 105.989C155.915 105.989 112.783 78.2807 119.038 70.4346C125.293 62.5886 152.399 86.1014 152.399 86.1014Z" fill="#04541E"/>
<path id="Vector_8" d="M134.654 30.9462C145.696 26.4913 153.494 49.7915 151.416 73.7528C151.416 73.7528 115.748 38.6137 134.654 30.9462Z" fill="#04541E"/>
</g>
<g id="blad4">
<path id="Vector_9" d="M1636.57 665.968C1636.57 665.968 1581.06 334.201 1857 42.5454" stroke="#263238" stroke-linecap="round" stroke-linejoin="round"/>
<path id="Vector_10" d="M1643.58 454.425C1643.58 454.425 1621.01 378.482 1567.25 356.878C1513.5 335.273 1564.57 453.83 1641.18 469.958C1717.79 486.087 1794.68 408.657 1768.93 382.232C1743.18 355.807 1643.58 454.425 1643.58 454.425Z" fill="#53B172"/>
<path id="Vector_11" d="M1700.21 272.093C1700.21 272.093 1700.21 204.154 1673.82 193.51C1647.43 182.866 1661.86 251.768 1691.72 290.266C1691.72 290.266 1804.93 293.38 1799.83 250.239C1794.74 207.098 1700.21 272.093 1700.21 272.093Z" fill="#53B172"/>
<path id="Vector_12" d="M1891.83 3.33764C1883.65 -6.89475 1860.54 12.8477 1847 38.549C1847 38.549 1905.88 21.0337 1891.83 3.33764Z" fill="#53B172"/>
<path id="Vector_13" d="M1753.48 178.709C1753.48 178.709 1781.24 109.971 1750.27 106.583C1719.3 103.194 1730.86 189.963 1739.28 203.396C1739.28 203.396 1830.62 188.027 1828.98 159.467C1827.34 130.907 1753.48 178.709 1753.48 178.709Z" fill="#53B172"/>
<path id="Vector_14" d="M1667.12 359.953C1667.12 359.953 1664.87 271.449 1614.98 262.813C1565.09 254.177 1631.8 366.743 1660.65 381.93C1689.5 397.117 1814.75 333.152 1799.76 304.206C1784.77 275.261 1667.12 359.953 1667.12 359.953Z" fill="#53B172"/>
</g>
</g>
</svg>
