<svg width="1277" height="618" viewBox="0 0 1277 618" fill="none" xmlns="http://www.w3.org/2000/svg">
<g id="bladerBak">
<g id="blad3">
<path id="Vector" d="M1139.19 38.9639C1138.42 44.622 1137.74 50.2269 1137.14 55.7783C1136.46 61.7568 1135.88 67.6819 1135.41 73.607C1134.42 85.297 1133.73 96.8802 1133.37 108.25C1133.1 114.602 1133 120.901 1133 127.093C1133 145.081 1133.42 162.59 1134.63 179.618C1135.15 186.735 1135.78 193.852 1136.51 200.969C1138.09 216.716 1140.19 232.089 1142.7 246.929C1143.6 252.266 1144.54 257.604 1145.54 262.675C1149.73 284.401 1154.77 305.112 1160.38 324.702C1162.06 330.52 1163.74 336.232 1165.63 341.837C1172.39 363.562 1179.84 383.739 1187.45 402.262C1189.02 406.052 1190.6 409.788 1192.17 413.418C1209.94 455.359 1232 495.276 1258 532.506" stroke="#263238" stroke-linecap="round" stroke-linejoin="round"/>
<path id="Vector_2" d="M1205.28 444.481C1205.28 444.481 1148.52 397.009 1097.14 401.081C1045.77 405.154 1146.01 473.279 1211.56 456.64C1277.11 440.001 1293.45 354.656 1260.43 344.824C1227.41 334.992 1205.28 444.481 1205.28 444.481Z" fill="#53B172"/>
<path id="Vector_3" d="M1168.06 358.55C1168.06 358.55 1119.94 293.603 1078.37 305.825C1036.79 318.047 1145.39 376.971 1174.87 377.502C1204.36 378.034 1263.73 283.035 1237.45 267.094C1211.17 251.152 1168.06 358.55 1168.06 358.55Z" fill="#53B172"/>
<path id="Vector_4" d="M1147.11 271.113C1147.11 271.113 1109.28 217.184 1083.95 218.912C1058.62 220.64 1107.46 269.563 1151.18 288.692C1151.18 288.692 1237.22 248.35 1209.5 216.112C1181.78 183.874 1147.11 271.113 1147.11 271.113Z" fill="#53B172"/>
<path id="Vector_5" d="M1135.14 197.043C1135.14 197.043 1119.85 135.131 1095.33 144.286C1070.81 153.44 1124.57 214.027 1137.6 221.073C1137.6 221.073 1197.42 174.94 1181.22 154.163C1165.01 133.385 1135.14 197.043 1135.14 197.043Z" fill="#53B172"/>
<path id="Vector_6" d="M1132.57 116.071C1132.57 116.071 1119.16 79.3161 1104.97 78.7747C1090.79 78.2333 1132 137.307 1132 137.307C1132 137.307 1177.38 104.1 1172.65 93.3324C1167.93 82.5644 1132.57 116.071 1132.57 116.071Z" fill="#53B172"/>
<path id="Vector_7" d="M1139.82 58.6161C1139.82 58.6161 1126.73 27.812 1117.74 29.3762C1108.76 30.9405 1137.46 78.7711 1137.46 78.7711C1137.46 78.7711 1178.9 51.2761 1172.28 43.214C1165.67 35.152 1139.82 58.6161 1139.82 58.6161Z" fill="#53B172"/>
<path id="Vector_8" d="M1153.4 0.597443C1141.12 -4.10073 1134.1 19.6951 1138.15 44.4063C1137.92 44.3453 1174.6 8.77348 1153.4 0.597443Z" fill="#53B172"/>
</g>
<g id="blad5">
<path id="Vector_9" d="M326.78 293.925C321.508 298.044 316.381 302.207 311.328 306.416C306.276 310.626 300.55 315.404 295.377 319.935C285.023 328.894 275.171 337.907 265.82 346.973C260.607 351.979 255.536 356.974 250.681 362.008C236.431 376.512 223.253 391.101 210.925 405.634C205.785 411.733 200.933 417.865 196.218 423.935C185.537 437.573 175.776 451.149 166.859 464.564C163.625 469.384 160.388 474.153 157.508 478.95C144.622 498.961 134.129 518.603 124.805 537.643C122.038 543.061 119.369 548.89 116.963 554.387C107.24 575.966 99.4263 596.318 93.1783 615.624C91.8783 619.583 90.7165 623.48 89.5477 627.273C88.9615 629.143 88.4461 631.009 87.8426 632.619" stroke="#263238" stroke-linecap="round" stroke-linejoin="round"/>
<path id="Vector_10" d="M94.7976 616.197C94.7976 616.197 82.7124 555.806 38.4124 536.892C-5.88765 517.978 26.756 612.69 91.2526 628.066C155.749 643.442 229.506 585.902 209.862 564.219C190.219 542.535 94.7976 616.197 94.7976 616.197Z" fill="#53B172"/>
<path id="Vector_11" d="M126.138 536.857C126.138 536.857 133.007 470.22 90.5361 461.996C48.0653 453.772 94.8166 540.744 118.372 553.255C141.927 565.765 256.944 521.811 246.874 499.537C236.803 477.263 126.138 536.857 126.138 536.857Z" fill="#53B172"/>
<path id="Vector_12" d="M167.794 463.13C167.794 463.13 174.794 409.291 153.392 400.068C131.99 390.846 137.378 445.7 158.55 477.219C158.55 477.219 253.823 483.653 253.94 449.38C254.057 415.106 167.794 463.13 167.794 463.13Z" fill="#53B172"/>
<path id="Vector_13" d="M212.542 404.194C212.542 404.194 242.643 355.193 216.804 351.694C190.964 348.196 192.36 411.624 198.106 421.794C198.106 421.794 276.807 413.667 278.192 392.87C279.577 372.072 212.542 404.194 212.542 404.194Z" fill="#53B172"/>
<path id="Vector_14" d="M264.662 346.598C264.662 346.598 278.872 315.464 268.243 309.417C257.613 303.369 250.096 361.19 250.096 361.19C250.096 361.19 307.501 356.234 311.039 346.953C314.576 337.671 264.662 346.598 264.662 346.598Z" fill="#53B172"/>
<path id="Vector_15" d="M367.141 268.981C361.345 260.494 340.388 275.234 326.846 294.922C326.846 294.922 377.123 283.503 367.141 268.981Z" fill="#53B172"/>
<path id="Vector_16" d="M310.102 305.393C310.102 305.393 320.807 279.472 312.535 276.99C304.263 274.509 294.32 318.096 294.32 318.096C294.32 318.096 346.568 315.68 346.726 307.594C346.884 299.508 310.102 305.393 310.102 305.393Z" fill="#53B172"/>
</g>
</g>
</svg>
