<svg width="143" height="213" viewBox="0 0 143 213" fill="none" xmlns="http://www.w3.org/2000/svg">
<g id="blueBoy">
<g id="freepik--character-2--inject-21">
<g id="Right-fot">
<path id="Vector" d="M126.618 182.095C126.002 182.95 125.275 183.682 124.669 183.701C124.51 183.7 124.354 183.653 124.224 183.568C124.094 183.482 123.996 183.361 123.942 183.222C123.886 183.103 123.857 182.975 123.857 182.846C123.857 182.717 123.886 182.589 123.942 182.471C124.427 181.175 127.527 179.766 127.659 179.71C127.693 179.688 127.733 179.676 127.775 179.676C127.816 179.676 127.857 179.688 127.891 179.71C127.921 179.738 127.941 179.773 127.95 179.811C127.959 179.849 127.956 179.889 127.942 179.926C127.574 180.686 127.131 181.412 126.618 182.095ZM124.477 182.273C124.401 182.372 124.34 182.479 124.295 182.593C124.262 182.665 124.245 182.744 124.245 182.823C124.245 182.902 124.262 182.98 124.295 183.053C124.427 183.297 124.558 183.325 124.649 183.316C125.325 183.316 126.558 181.644 127.275 180.302C126.212 180.786 125.262 181.459 124.477 182.283V182.273Z" fill="#407BFF"/>
<path id="Vector_2" d="M127.921 179.983L127.861 180.04C126.851 180.594 124.194 181.195 123.487 180.566C123.316 180.415 123.174 180.143 123.487 179.683C123.582 179.516 123.712 179.369 123.87 179.251C124.028 179.133 124.211 179.047 124.406 178.997C125.76 178.631 127.8 179.664 127.891 179.711C127.921 179.728 127.945 179.751 127.963 179.779C127.981 179.807 127.991 179.838 127.992 179.871C127.983 179.915 127.958 179.954 127.921 179.983ZM123.881 179.767L123.821 179.861C123.649 180.162 123.75 180.256 123.821 180.293C124.255 180.669 126.245 180.359 127.366 179.88C126.502 179.444 125.515 179.263 124.538 179.364C124.256 179.411 124.004 179.555 123.831 179.767H123.881Z" fill="#407BFF"/>
<g id="Group 119">
<path id="Vector_3" d="M138.129 172.299L133.291 178.891L116.392 169.125L121.23 162.533L138.129 172.299Z" fill="#FFB573"/>
<path id="Vector_4" d="M128.342 176.29L133.625 169.088C133.721 168.956 133.863 168.859 134.026 168.813C134.19 168.767 134.366 168.774 134.524 168.834L141.786 171.538C141.962 171.603 142.119 171.704 142.247 171.833C142.374 171.962 142.469 172.117 142.523 172.285C142.577 172.453 142.59 172.63 142.561 172.803C142.531 172.976 142.46 173.141 142.352 173.285C140.393 175.848 137.473 179.501 135.08 182.76C132.272 186.581 134.332 184.224 131.039 188.703C129.019 191.408 125.555 190.29 126.12 188.985C128.696 183.06 128.262 181.473 127.726 178.224C127.662 177.53 127.882 176.839 128.342 176.29Z" fill="#263238"/>
<path id="Vector_5" d="M62.0013 101.479C62.0013 101.479 68.294 124.954 80.2431 145.5C93.3235 168.036 119.706 175.172 119.706 175.172L127.908 163.613C127.908 163.613 110.596 151.585 102.01 137.753C94.1012 111.78 91.475 99 91.475 99L62.0013 101.479Z" fill="#263238"/>
<path id="Vector_6" d="M115.798 175.219C115.798 175.276 121.384 177.473 121.384 177.473L130.545 163.388L126.192 160.411L115.798 175.219Z" fill="#407BFF"/>
</g>
</g>
<g id="Left-fot">
<path id="Vector_7" d="M59.2629 204.009C58.162 204.103 57.0913 204.009 56.6974 203.614C56.5954 203.502 56.5337 203.363 56.521 203.216C56.5083 203.07 56.5453 202.923 56.6266 202.797C56.6853 202.68 56.7695 202.575 56.8738 202.49C56.9781 202.404 57.1003 202.339 57.2327 202.3C58.6165 201.821 61.7578 203.154 61.8891 203.239C61.9289 203.253 61.9624 203.279 61.9844 203.313C62.0063 203.347 62.0155 203.387 62.0103 203.427C62.0075 203.464 61.9924 203.499 61.967 203.527C61.9417 203.556 61.9074 203.577 61.8689 203.586C61.0158 203.8 60.1436 203.942 59.2629 204.009ZM57.758 202.581C57.6269 202.59 57.4978 202.615 57.3741 202.657C57.2938 202.679 57.2192 202.716 57.155 202.766C57.0907 202.816 57.0381 202.878 57.0004 202.948C56.8792 203.201 56.9398 203.305 57.0004 203.37C57.4448 203.849 59.6064 203.68 61.1821 203.37C60.1077 202.9 58.944 202.632 57.758 202.581Z" fill="#407BFF"/>
<path id="Vector_8" d="M61.8282 203.568H61.7372C60.6666 203.23 58.4545 201.69 58.5252 200.751C58.5252 200.535 58.6767 200.253 59.2222 200.159C59.4221 200.121 59.6283 200.121 59.828 200.16C60.0278 200.199 60.2169 200.275 60.3838 200.385C61.5453 201.126 61.9898 203.202 62.01 203.333C62.0144 203.366 62.0103 203.399 61.998 203.43C61.9857 203.461 61.9656 203.489 61.9393 203.511C61.9258 203.527 61.909 203.54 61.8899 203.55C61.8708 203.56 61.8498 203.566 61.8282 203.568ZM59.4242 200.525H59.303C58.9394 200.591 58.9293 200.732 58.9293 200.77C58.9293 201.324 60.4141 202.554 61.5151 203.051C61.3345 202.153 60.858 201.33 60.1515 200.694C59.9393 200.558 59.6807 200.498 59.4242 200.525Z" fill="#407BFF"/>
<path id="Vector_9" d="M72.1621 206.873L63.6169 207.596L60.9706 189.257L69.5258 188.534L72.1621 206.873Z" fill="#FFB573"/>
<path id="Vector_10" d="M62.6255 202.384L71.9586 201.595C72.13 201.582 72.3015 201.622 72.4447 201.711C72.5879 201.8 72.6943 201.931 72.7464 202.084L75.1201 209.004C75.1787 209.172 75.1957 209.349 75.17 209.523C75.1442 209.698 75.0763 209.864 74.9713 210.011C74.8663 210.157 74.727 210.279 74.5638 210.369C74.4007 210.458 74.2179 210.511 74.0292 210.525C70.6556 210.751 67.6961 210.826 63.4538 211.183C58.5045 211.596 59.8176 212.037 54.0198 212.61C50.5148 212.948 49.5149 209.295 50.9896 208.995C57.7065 207.624 58.2318 205.661 60.6256 203.173C61.1645 202.689 61.8769 202.408 62.6255 202.384Z" fill="#263238"/>
<path id="Vector_11" d="M43.7086 103.573C42.4756 118.225 42.8546 132.956 44.8399 147.537C48.264 172.665 58.2637 195.108 58.2637 195.108L72.4955 191.643C72.4955 191.643 69.1825 172.778 67.4452 147.95C65.5159 120.898 73.8086 101 73.8086 101L43.7086 103.573Z" fill="#263238"/>
<path id="Vector_12" d="M55.506 192.722C55.4353 192.722 57.1928 198.168 57.1928 198.168L74.6973 195.792L74.3943 190.769L55.506 192.722Z" fill="#407BFF"/>
</g>
<path id="Vector_13" d="M38.895 53.6866C38.4203 61.1986 37.2183 79.0398 43.1878 107.539L93.5801 104.083C93.2872 98.0548 84.8228 77.6782 86.8732 50.5596C86.9542 49.5758 86.8207 48.5869 86.4809 47.6522C86.1411 46.7174 85.6018 45.8561 84.8955 45.1196C84.1891 44.3832 83.3302 43.7868 82.37 43.3662C81.4099 42.9457 80.3684 42.7095 79.3078 42.672C77.0554 42.5969 74.5605 42.5781 72.1161 42.672C65.6146 42.8539 59.1295 43.3806 52.6925 44.2495C50.2179 44.6721 47.8139 45.2355 45.7534 45.7801C43.8653 46.2673 42.1888 47.2917 40.9588 48.7097C39.7288 50.1276 39.0071 51.868 38.895 53.6866Z" fill="#407BFF"/>
<path id="Vector_14" opacity="0.3" d="M86.6091 61.7236C86.7202 66.306 87.0737 70.6254 87.6191 74.6444C82.2052 69.6113 81.5587 61.7236 81.5587 61.7236H86.6091Z" fill="black"/>
<path id="Vector_15" d="M66.8719 29.0845C66.8719 34.7186 67.8819 41.1038 71.5586 43.6016C71.5586 43.6016 67.3466 51.433 55.1349 51.4423C46.2564 51.4423 50.9835 45.6674 50.9835 45.6674C56.751 42.7471 56.3571 38.6436 54.5389 34.2679L63.1447 27.2253C64.5689 25.9013 66.8719 27.0281 66.8719 29.0845Z" fill="#FFB573"/>
<path id="Vector_16" opacity="0.2" d="M66.875 29.0842C66.875 27.0278 64.5821 25.901 63.1478 27.2062L54.5421 34.2394C55.4797 36.1485 55.8561 38.2545 55.6329 40.3429C57.656 40.4121 59.6668 40.0222 61.4913 39.2068C63.8659 38.2106 65.8645 36.5751 67.2285 34.5117C66.9859 32.7114 66.8678 30.8986 66.875 29.0842Z" fill="black"/>
<path id="Vector_17" d="M76.823 22.2379C73.7928 29.6842 72.4595 34.2009 66.5405 36.7925C57.6419 40.6894 47.4199 33.9755 47.7028 25.8061C47.9553 18.4161 53.4905 6.87569 63.48 6.3874C73.4696 5.89912 79.8734 14.8009 76.823 22.2379Z" fill="#FFB573"/>
<path id="Vector_18" d="M82.2676 20.7745C81.7726 24.6056 75.3486 27.7889 75.3486 27.7889L68.9751 27.263C68.9751 27.263 73.1366 23.507 72.0053 18.5678C70.874 13.6286 81.6413 14.2014 82.2676 20.7745Z" fill="#263238"/>
<path id="Vector_19" d="M79.7401 5.33658C86.9217 10.4542 83.9824 16.8676 85.6895 21.8632C80.7805 23.3092 72.7303 19.2903 69.1344 17.5249C68.488 17.215 67.8315 16.9427 67.2254 16.5859C66.2861 16.0507 66.4477 12.5576 66.4477 12.5576C66.4477 12.5576 65.2255 14.8863 65.3164 15.6375C59.8519 12.9144 55.1147 10.3227 53.943 8.24751C55.4177 2.22846 67.4678 -3.41499 79.7401 5.33658Z" fill="#263238"/>
<path id="Vector_20" d="M54.4295 25.3184C55.3789 25.8204 56.4438 26.1036 57.5351 26.1445C58.6264 26.1853 59.7124 25.9825 60.7021 25.5531C60.7585 25.5234 60.8004 25.4747 60.8192 25.417C60.838 25.3593 60.8322 25.2971 60.8031 25.2433C60.7713 25.1931 60.72 25.1563 60.6597 25.1406C60.5995 25.1248 60.535 25.1313 60.4799 25.1588C59.5585 25.5477 58.5515 25.7291 57.5406 25.6883C56.5297 25.6475 55.5435 25.3857 54.6619 24.924C54.6061 24.9001 54.5427 24.8968 54.4844 24.9147C54.4261 24.9326 54.3772 24.9704 54.3477 25.0204C54.3183 25.0705 54.3103 25.1291 54.3255 25.1844C54.3407 25.2397 54.3778 25.2876 54.4295 25.3184Z" fill="#263238"/>
<path id="Vector_21" d="M61.1059 19.3187C60.7422 19.9384 60.0958 20.2577 59.6715 20.0417C59.2473 19.8257 59.1766 19.1027 59.5302 18.5299C59.8837 17.9571 60.5402 17.5909 60.9745 17.8069C61.4089 18.0228 61.4695 18.6989 61.1059 19.3187Z" fill="#263238"/>
<path id="Vector_22" d="M53.6521 16.2012C53.2885 16.8209 52.642 17.1402 52.2178 16.9242C51.7936 16.7082 51.7229 15.9852 52.0865 15.403C52.4501 14.8208 53.0966 14.464 53.5208 14.6894C53.945 14.9147 54.0157 15.5814 53.6521 16.2012Z" fill="#263238"/>
<path id="Vector_23" d="M64.2877 20.0324C64.2198 19.9877 64.1668 19.9261 64.1346 19.8547C64.1025 19.7834 64.0925 19.705 64.1059 19.6286C64.1973 19.125 64.1618 18.6085 64.0023 18.1197C63.8428 17.631 63.5637 17.1832 63.1868 16.8116C63.1041 16.7342 63.0577 16.6296 63.0577 16.5205C63.0577 16.4115 63.1041 16.3068 63.1868 16.2294C63.2273 16.1902 63.2759 16.159 63.3297 16.1377C63.3835 16.1164 63.4414 16.1055 63.4999 16.1055C63.5584 16.1055 63.6162 16.1164 63.67 16.1377C63.7239 16.159 63.7725 16.1902 63.813 16.2294C64.307 16.6966 64.6737 17.2667 64.8828 17.8922C65.0919 18.5178 65.1372 19.1807 65.015 19.8258C64.9951 19.933 64.9315 20.029 64.8374 20.0937C64.7434 20.1584 64.6261 20.1869 64.51 20.1733C64.4228 20.1472 64.3457 20.0983 64.2877 20.0324Z" fill="#263238"/>
<path id="Vector_24" d="M50.8817 11.9573C50.8377 11.9429 50.7972 11.9205 50.7625 11.8915C50.7278 11.8625 50.6997 11.8274 50.6797 11.7882C50.6484 11.7428 50.6272 11.692 50.6174 11.6389C50.6076 11.5857 50.6093 11.5313 50.6225 11.4788C50.6357 11.4263 50.6601 11.3768 50.6942 11.3331C50.7283 11.2895 50.7714 11.2527 50.8211 11.2248C51.4149 10.8693 52.0922 10.6521 52.7955 10.5916C53.4988 10.5311 54.2075 10.6291 54.8614 10.8774C54.9217 10.8951 54.9773 10.9246 55.0244 10.964C55.0715 11.0033 55.109 11.0515 55.1345 11.1054C55.1599 11.1593 55.1726 11.2176 55.1718 11.2765C55.1711 11.3353 55.1568 11.3933 55.1299 11.4466C55.1031 11.4999 55.0643 11.5472 55.0161 11.5855C54.968 11.6237 54.9117 11.6519 54.8509 11.6683C54.7901 11.6846 54.7262 11.6887 54.6635 11.6802C54.6009 11.6718 54.5409 11.651 54.4876 11.6192C53.9669 11.4339 53.4064 11.3653 52.8518 11.4192C52.2972 11.473 51.7642 11.6477 51.2958 11.9291C51.2345 11.9648 51.1647 11.986 51.0925 11.9909C51.0203 11.9958 50.948 11.9843 50.8817 11.9573Z" fill="#263238"/>
<path id="Vector_25" d="M55.1367 17.5244C53.6079 18.8955 51.8809 20.0617 50.0056 20.9894C50.2787 21.4222 50.6495 21.7949 51.0924 22.0818C51.5353 22.3688 52.0398 22.5631 52.5711 22.6514L55.1367 17.5244Z" fill="#ED893E"/>
<path id="Vector_26" d="M76.3175 29.9574C74.9867 31.0362 73.2641 31.6036 71.4995 31.5443C69.3178 31.4034 69.3077 29.2437 70.8228 27.5441C72.1763 26.0135 74.9438 24.2388 76.7014 25.2248C78.4589 26.2107 78.0649 28.577 76.3175 29.9574Z" fill="#FFB573"/>
<g id="Right-arm">
<path id="Vector_27" d="M79.7723 57.3955L81.853 59.6116L83.9843 61.9403C85.4084 63.4991 86.8024 65.086 88.1962 66.6353C90.9706 69.8405 93.6641 73.1083 96.2768 76.4386L96.5192 76.7485L96.5798 76.8236C96.5798 76.8236 96.5798 76.8236 96.5798 76.7767C96.5383 76.6668 96.5079 76.5537 96.4889 76.4386C96.4084 76.0993 96.4258 75.7462 96.5394 75.4151C96.7818 74.8799 96.8424 75.2273 96.4586 75.6404C95.9661 76.2036 95.4109 76.7167 94.8021 77.171C94.0458 77.7424 93.2568 78.2753 92.4385 78.7674C88.7489 80.905 84.9314 82.8456 81.0045 84.5798L82.752 90.3453C85.1629 90.0547 87.5514 89.6219 89.9032 89.0495C92.3118 88.4812 94.6744 87.7564 96.9737 86.8804C98.2028 86.4059 99.4002 85.8635 100.559 85.2559C101.898 84.5709 103.146 83.742 104.277 82.7863C104.982 82.182 105.616 81.5082 106.165 80.7768C106.888 79.8198 107.416 78.747 107.721 77.6124C108.066 76.2288 108.042 74.7878 107.65 73.415C107.461 72.7882 107.204 72.181 106.883 71.6027L106.478 70.9172L106.256 70.551C105.074 68.6261 103.852 66.7199 102.539 64.8606C101.226 63.0014 99.9029 61.1703 98.4989 59.3768C97.0949 57.5833 95.6404 55.8273 94.1152 54.109C93.3577 53.2545 92.59 52.4 91.782 51.5642C90.9739 50.7285 90.1962 49.9304 89.2467 49.0195L79.7723 57.3955Z" fill="#FFB573"/>
<path id="Vector_28" d="M86.2983 84.2423L79.3188 83.2188L79.1976 92.1206C79.1976 92.1206 84.7024 92.7215 87.8438 88.7871L86.2983 84.2423Z" fill="#FFB573"/>
<path id="Vector_29" d="M73.4479 87.7166L75.0034 90.9092C75.228 91.372 75.6061 91.7557 76.0824 92.0041C76.5586 92.2525 77.1079 92.3526 77.6498 92.2896L79.1952 92.1206L79.3164 83.2188L75.0337 84.4489C74.6856 84.5493 74.3644 84.7174 74.0914 84.9418C73.8183 85.1663 73.5996 85.4421 73.4497 85.7509C73.2998 86.0598 73.2222 86.3947 73.2218 86.7336C73.2215 87.0724 73.2986 87.4075 73.4479 87.7166Z" fill="#FFB573"/>
<path id="Vector_30" d="M81.9268 42.1406C92.8052 42.1406 103.27 58.2728 103.27 58.2728L92.5325 74.405C92.5325 74.405 85.5125 67.231 78.7855 59.5968C72.21 52.1223 72.9978 42.1406 81.9268 42.1406Z" fill="#407BFF"/>
</g>
<g id="Left-arm">
<path id="Vector_31" d="M33.6631 66.0507L33.0965 66.3797L32.4034 66.8003C31.9403 67.1111 31.46 67.4113 31.0054 67.7603C30.0818 68.4385 29.181 69.1912 28.3031 69.9691C26.5507 71.5858 24.9431 73.3944 23.4958 75.3775C22.2999 76.9021 21.3509 79.436 20.5078 82.0411C19.6648 84.6463 18.9187 87.4982 18.1471 90.2191L14.0744 88.8224C13.9049 85.4632 14.0135 82.1582 14.3988 78.9528C14.5987 77.3003 14.892 75.6859 15.277 74.1193C15.4861 73.3105 15.721 72.5013 16.0133 71.6893C16.1638 71.2778 16.3401 70.8658 16.5193 70.4611C16.6985 70.0564 16.941 69.5977 17.1141 69.31C17.8379 67.9661 18.6402 66.6918 19.5166 65.4937C20.3809 64.275 21.322 63.1378 22.3343 62.0887C23.3489 61.0206 24.4374 60.0478 25.5927 59.1768C26.1739 58.7361 26.778 58.3207 27.4136 57.9358C27.7329 57.7387 28.0492 57.5509 28.3943 57.3698L28.9405 57.1051L29.2252 56.9689L29.5872 56.8478L33.6631 66.0507Z" fill="#FFB573"/>
<path id="Vector_32" d="M14.3989 86.6558L10.3636 91.9724L18.9034 96.1211C18.9034 96.1211 21.8927 91.8371 19.4682 87.4409L14.3989 86.6558Z" fill="#FFB573"/>
<path id="Vector_33" d="M13.3521 99.3954L14.0328 99.504C14.9655 99.6475 15.9169 99.4914 16.73 99.0614C17.543 98.6314 18.1694 97.9532 18.5056 97.1385L18.9075 96.1303L10.3626 91.9735L9.88817 94.9275C9.80121 95.4276 9.82211 95.9408 9.94965 96.4372C10.0772 96.9335 10.3088 97.4032 10.6311 97.8189C10.9534 98.2346 11.3599 98.588 11.827 98.8587C12.2941 99.1293 12.8125 99.3117 13.3521 99.3954Z" fill="#FFB573"/>
<path id="Vector_34" d="M51.5472 58.7742C49.8668 68.7463 30.5033 70.536 30.5033 70.536L20.6217 57.7347C20.6217 57.7347 22.7097 53.5006 40.2922 47.0826C52.4924 47.2832 54.6239 50.4082 51.5472 58.7742Z" fill="#407BFF"/>
</g>
</g>
</g>
</svg>
