<svg width="1535" height="795" viewBox="0 0 1535 795" fill="none" xmlns="http://www.w3.org/2000/svg">
<g id="BoxChainsaw">
<g id="Group 57">
<g id="Rectangle 54" filter="url(#filter0_d_750_25799)">
<rect width="1535" height="728" rx="54" fill="white"/>
</g>
<g id="Group 56">
<path id="You hear a chainsaw" d="M431.384 294.629H440.906L452.293 315.22H452.747L464.134 294.629H473.656L456.725 323.811V341.175H448.316V323.811L431.384 294.629ZM486.584 341.857C483.175 341.857 480.22 341.107 477.72 339.607C475.22 338.107 473.281 336.008 471.902 333.311C470.538 330.614 469.856 327.463 469.856 323.857C469.856 320.251 470.538 317.091 471.902 314.379C473.281 311.667 475.22 309.561 477.72 308.061C480.22 306.561 483.175 305.811 486.584 305.811C489.993 305.811 492.947 306.561 495.447 308.061C497.947 309.561 499.879 311.667 501.243 314.379C502.622 317.091 503.311 320.251 503.311 323.857C503.311 327.463 502.622 330.614 501.243 333.311C499.879 336.008 497.947 338.107 495.447 339.607C492.947 341.107 489.993 341.857 486.584 341.857ZM486.629 335.266C488.478 335.266 490.023 334.758 491.265 333.743C492.508 332.713 493.432 331.334 494.038 329.607C494.659 327.879 494.97 325.955 494.97 323.834C494.97 321.698 494.659 319.766 494.038 318.038C493.432 316.296 492.508 314.91 491.265 313.879C490.023 312.849 488.478 312.334 486.629 312.334C484.735 312.334 483.159 312.849 481.902 313.879C480.659 314.91 479.728 316.296 479.106 318.038C478.5 319.766 478.197 321.698 478.197 323.834C478.197 325.955 478.5 327.879 479.106 329.607C479.728 331.334 480.659 332.713 481.902 333.743C483.159 334.758 484.735 335.266 486.629 335.266ZM531.136 326.493V306.266H539.363V341.175H531.386V334.97H531.022C530.234 336.925 528.939 338.523 527.136 339.766C525.348 341.008 523.143 341.629 520.522 341.629C518.234 341.629 516.212 341.122 514.454 340.107C512.712 339.076 511.348 337.584 510.363 335.629C509.378 333.66 508.886 331.281 508.886 328.493V306.266H517.113V327.22C517.113 329.432 517.719 331.19 518.931 332.493C520.143 333.796 521.734 334.448 523.704 334.448C524.916 334.448 526.09 334.152 527.227 333.561C528.363 332.97 529.295 332.091 530.022 330.925C530.765 329.743 531.136 328.266 531.136 326.493ZM569.11 320.72V341.175H560.882V294.629H568.928V312.198H569.337C570.155 310.228 571.42 308.675 573.132 307.538C574.86 306.387 577.057 305.811 579.723 305.811C582.148 305.811 584.261 306.319 586.064 307.334C587.867 308.349 589.261 309.834 590.246 311.788C591.246 313.743 591.746 316.129 591.746 318.948V341.175H583.519V320.22C583.519 317.872 582.913 316.046 581.701 314.743C580.504 313.425 578.822 312.766 576.655 312.766C575.201 312.766 573.898 313.084 572.746 313.72C571.61 314.341 570.716 315.243 570.064 316.425C569.428 317.607 569.11 319.038 569.11 320.72ZM614.179 341.857C610.679 341.857 607.656 341.129 605.111 339.675C602.58 338.205 600.633 336.129 599.27 333.448C597.906 330.751 597.224 327.576 597.224 323.925C597.224 320.334 597.906 317.182 599.27 314.47C600.649 311.743 602.573 309.622 605.043 308.107C607.512 306.576 610.414 305.811 613.747 305.811C615.899 305.811 617.929 306.16 619.838 306.857C621.762 307.538 623.459 308.599 624.929 310.038C626.414 311.478 627.58 313.311 628.429 315.538C629.277 317.751 629.702 320.387 629.702 323.448V325.97H601.088V320.425H621.815C621.8 318.849 621.459 317.448 620.793 316.22C620.126 314.978 619.194 314.001 617.997 313.288C616.815 312.576 615.437 312.22 613.861 312.22C612.179 312.22 610.702 312.629 609.429 313.448C608.156 314.251 607.164 315.311 606.452 316.629C605.755 317.932 605.399 319.364 605.383 320.925V325.766C605.383 327.796 605.755 329.538 606.497 330.993C607.24 332.432 608.277 333.538 609.611 334.311C610.944 335.069 612.505 335.448 614.293 335.448C615.49 335.448 616.573 335.281 617.543 334.948C618.512 334.599 619.353 334.091 620.065 333.425C620.777 332.758 621.315 331.932 621.679 330.948L629.361 331.811C628.876 333.841 627.952 335.614 626.588 337.129C625.24 338.629 623.512 339.796 621.406 340.629C619.3 341.448 616.891 341.857 614.179 341.857ZM645.299 341.879C643.087 341.879 641.095 341.485 639.322 340.698C637.564 339.895 636.171 338.713 635.14 337.152C634.125 335.591 633.618 333.667 633.618 331.379C633.618 329.41 633.981 327.781 634.708 326.493C635.436 325.205 636.428 324.175 637.686 323.402C638.943 322.629 640.36 322.046 641.936 321.652C643.527 321.243 645.171 320.948 646.868 320.766C648.913 320.554 650.572 320.364 651.845 320.198C653.118 320.016 654.042 319.743 654.618 319.379C655.208 319.001 655.504 318.417 655.504 317.629V317.493C655.504 315.781 654.996 314.455 653.981 313.516C652.966 312.576 651.504 312.107 649.595 312.107C647.58 312.107 645.981 312.546 644.799 313.425C643.633 314.304 642.845 315.341 642.436 316.538L634.754 315.448C635.36 313.326 636.36 311.554 637.754 310.129C639.148 308.69 640.852 307.614 642.868 306.902C644.883 306.175 647.11 305.811 649.549 305.811C651.231 305.811 652.905 306.008 654.572 306.402C656.239 306.796 657.761 307.448 659.14 308.357C660.519 309.251 661.625 310.47 662.458 312.016C663.307 313.561 663.731 315.493 663.731 317.811V341.175H655.822V336.379H655.549C655.049 337.349 654.345 338.258 653.436 339.107C652.542 339.94 651.413 340.614 650.049 341.129C648.701 341.629 647.118 341.879 645.299 341.879ZM647.436 335.834C649.087 335.834 650.519 335.508 651.731 334.857C652.943 334.19 653.875 333.311 654.527 332.22C655.193 331.129 655.527 329.94 655.527 328.652V324.538C655.269 324.751 654.83 324.948 654.208 325.129C653.602 325.311 652.921 325.47 652.163 325.607C651.405 325.743 650.655 325.864 649.913 325.97C649.171 326.076 648.527 326.167 647.981 326.243C646.754 326.41 645.655 326.682 644.686 327.061C643.716 327.44 642.951 327.97 642.39 328.652C641.83 329.319 641.549 330.182 641.549 331.243C641.549 332.758 642.102 333.902 643.208 334.675C644.314 335.448 645.724 335.834 647.436 335.834ZM670.596 341.175V306.266H678.573V312.084H678.937C679.573 310.069 680.664 308.516 682.21 307.425C683.77 306.319 685.55 305.766 687.55 305.766C688.005 305.766 688.513 305.788 689.073 305.834C689.649 305.864 690.126 305.917 690.505 305.993V313.561C690.156 313.44 689.603 313.334 688.846 313.243C688.103 313.137 687.384 313.084 686.687 313.084C685.187 313.084 683.838 313.41 682.641 314.061C681.46 314.698 680.528 315.584 679.846 316.72C679.164 317.857 678.823 319.167 678.823 320.652V341.175H670.596ZM719.075 341.879C716.863 341.879 714.871 341.485 713.098 340.698C711.34 339.895 709.947 338.713 708.916 337.152C707.901 335.591 707.394 333.667 707.394 331.379C707.394 329.41 707.757 327.781 708.484 326.493C709.212 325.205 710.204 324.175 711.462 323.402C712.719 322.629 714.136 322.046 715.712 321.652C717.303 321.243 718.947 320.948 720.644 320.766C722.689 320.554 724.348 320.364 725.621 320.198C726.894 320.016 727.818 319.743 728.394 319.379C728.984 319.001 729.28 318.417 729.28 317.629V317.493C729.28 315.781 728.772 314.455 727.757 313.516C726.742 312.576 725.28 312.107 723.371 312.107C721.356 312.107 719.757 312.546 718.575 313.425C717.409 314.304 716.621 315.341 716.212 316.538L708.53 315.448C709.136 313.326 710.136 311.554 711.53 310.129C712.924 308.69 714.628 307.614 716.644 306.902C718.659 306.175 720.886 305.811 723.325 305.811C725.007 305.811 726.681 306.008 728.348 306.402C730.015 306.796 731.537 307.448 732.916 308.357C734.295 309.251 735.401 310.47 736.234 312.016C737.083 313.561 737.507 315.493 737.507 317.811V341.175H729.598V336.379H729.325C728.825 337.349 728.121 338.258 727.212 339.107C726.318 339.94 725.189 340.614 723.825 341.129C722.477 341.629 720.894 341.879 719.075 341.879ZM721.212 335.834C722.863 335.834 724.295 335.508 725.507 334.857C726.719 334.19 727.651 333.311 728.303 332.22C728.969 331.129 729.303 329.94 729.303 328.652V324.538C729.045 324.751 728.606 324.948 727.984 325.129C727.378 325.311 726.697 325.47 725.939 325.607C725.181 325.743 724.431 325.864 723.689 325.97C722.947 326.076 722.303 326.167 721.757 326.243C720.53 326.41 719.431 326.682 718.462 327.061C717.492 327.44 716.727 327.97 716.166 328.652C715.606 329.319 715.325 330.182 715.325 331.243C715.325 332.758 715.878 333.902 716.984 334.675C718.09 335.448 719.5 335.834 721.212 335.834ZM774.066 341.857C770.581 341.857 767.589 341.091 765.089 339.561C762.604 338.031 760.687 335.917 759.339 333.22C758.006 330.508 757.339 327.387 757.339 323.857C757.339 320.311 758.021 317.182 759.384 314.47C760.748 311.743 762.672 309.622 765.157 308.107C767.657 306.576 770.612 305.811 774.021 305.811C776.854 305.811 779.362 306.334 781.543 307.379C783.74 308.41 785.49 309.872 786.793 311.766C788.096 313.645 788.839 315.841 789.021 318.357H781.157C780.839 316.675 780.081 315.273 778.884 314.152C777.703 313.016 776.119 312.448 774.134 312.448C772.453 312.448 770.975 312.902 769.703 313.811C768.43 314.705 767.437 315.993 766.725 317.675C766.028 319.357 765.68 321.372 765.68 323.72C765.68 326.099 766.028 328.145 766.725 329.857C767.422 331.554 768.399 332.864 769.657 333.788C770.93 334.698 772.422 335.152 774.134 335.152C775.346 335.152 776.43 334.925 777.384 334.47C778.354 334.001 779.165 333.326 779.816 332.448C780.468 331.569 780.915 330.501 781.157 329.243H789.021C788.824 331.713 788.096 333.902 786.839 335.811C785.581 337.705 783.869 339.19 781.703 340.266C779.536 341.326 776.99 341.857 774.066 341.857ZM802.596 320.72V341.175H794.368V294.629H802.414V312.198H802.823C803.641 310.228 804.906 308.675 806.618 307.538C808.346 306.387 810.543 305.811 813.209 305.811C815.634 305.811 817.747 306.319 819.55 307.334C821.353 308.349 822.747 309.834 823.732 311.788C824.732 313.743 825.232 316.129 825.232 318.948V341.175H817.005V320.22C817.005 317.872 816.399 316.046 815.187 314.743C813.99 313.425 812.308 312.766 810.141 312.766C808.687 312.766 807.384 313.084 806.232 313.72C805.096 314.341 804.202 315.243 803.55 316.425C802.914 317.607 802.596 319.038 802.596 320.72ZM842.256 341.879C840.044 341.879 838.051 341.485 836.279 340.698C834.521 339.895 833.127 338.713 832.097 337.152C831.082 335.591 830.574 333.667 830.574 331.379C830.574 329.41 830.938 327.781 831.665 326.493C832.392 325.205 833.385 324.175 834.642 323.402C835.9 322.629 837.316 322.046 838.892 321.652C840.483 321.243 842.127 320.948 843.824 320.766C845.869 320.554 847.529 320.364 848.801 320.198C850.074 320.016 850.998 319.743 851.574 319.379C852.165 319.001 852.46 318.417 852.46 317.629V317.493C852.46 315.781 851.953 314.455 850.938 313.516C849.923 312.576 848.46 312.107 846.551 312.107C844.536 312.107 842.938 312.546 841.756 313.425C840.589 314.304 839.801 315.341 839.392 316.538L831.71 315.448C832.316 313.326 833.316 311.554 834.71 310.129C836.104 308.69 837.809 307.614 839.824 306.902C841.839 306.175 844.066 305.811 846.506 305.811C848.188 305.811 849.862 306.008 851.529 306.402C853.195 306.796 854.718 307.448 856.097 308.357C857.476 309.251 858.582 310.47 859.415 312.016C860.263 313.561 860.688 315.493 860.688 317.811V341.175H852.779V336.379H852.506C852.006 337.349 851.301 338.258 850.392 339.107C849.498 339.94 848.369 340.614 847.006 341.129C845.657 341.629 844.074 341.879 842.256 341.879ZM844.392 335.834C846.044 335.834 847.476 335.508 848.688 334.857C849.9 334.19 850.832 333.311 851.483 332.22C852.15 331.129 852.483 329.94 852.483 328.652V324.538C852.226 324.751 851.786 324.948 851.165 325.129C850.559 325.311 849.877 325.47 849.119 325.607C848.362 325.743 847.612 325.864 846.869 325.97C846.127 326.076 845.483 326.167 844.938 326.243C843.71 326.41 842.612 326.682 841.642 327.061C840.673 327.44 839.907 327.97 839.347 328.652C838.786 329.319 838.506 330.182 838.506 331.243C838.506 332.758 839.059 333.902 840.165 334.675C841.271 335.448 842.68 335.834 844.392 335.834ZM867.552 341.175V306.266H875.78V341.175H867.552ZM871.689 301.311C870.386 301.311 869.264 300.879 868.325 300.016C867.386 299.137 866.916 298.084 866.916 296.857C866.916 295.614 867.386 294.561 868.325 293.698C869.264 292.819 870.386 292.379 871.689 292.379C873.007 292.379 874.128 292.819 875.052 293.698C875.992 294.561 876.461 295.614 876.461 296.857C876.461 298.084 875.992 299.137 875.052 300.016C874.128 300.879 873.007 301.311 871.689 301.311ZM891.059 320.72V341.175H882.832V306.266H890.696V312.198H891.105C891.908 310.243 893.188 308.69 894.946 307.538C896.718 306.387 898.908 305.811 901.514 305.811C903.923 305.811 906.021 306.326 907.809 307.357C909.612 308.387 911.006 309.879 911.991 311.834C912.991 313.788 913.483 316.16 913.468 318.948V341.175H905.241V320.22C905.241 317.887 904.635 316.061 903.423 314.743C902.226 313.425 900.567 312.766 898.446 312.766C897.006 312.766 895.726 313.084 894.605 313.72C893.499 314.341 892.627 315.243 891.991 316.425C891.37 317.607 891.059 319.038 891.059 320.72ZM948.015 315.493L940.515 316.311C940.303 315.554 939.931 314.841 939.401 314.175C938.886 313.508 938.189 312.97 937.31 312.561C936.431 312.152 935.356 311.948 934.083 311.948C932.371 311.948 930.931 312.319 929.765 313.061C928.613 313.804 928.045 314.766 928.06 315.948C928.045 316.963 928.416 317.788 929.174 318.425C929.947 319.061 931.219 319.584 932.992 319.993L938.947 321.266C942.25 321.978 944.704 323.107 946.31 324.652C947.931 326.198 948.75 328.22 948.765 330.72C948.75 332.917 948.106 334.857 946.833 336.538C945.575 338.205 943.825 339.508 941.583 340.448C939.341 341.387 936.765 341.857 933.856 341.857C929.583 341.857 926.144 340.963 923.538 339.175C920.931 337.372 919.378 334.864 918.878 331.652L926.901 330.879C927.265 332.455 928.038 333.645 929.219 334.448C930.401 335.251 931.939 335.652 933.833 335.652C935.788 335.652 937.356 335.251 938.538 334.448C939.734 333.645 940.333 332.652 940.333 331.47C940.333 330.47 939.947 329.645 939.174 328.993C938.416 328.341 937.234 327.841 935.628 327.493L929.674 326.243C926.325 325.546 923.848 324.372 922.242 322.72C920.636 321.054 919.841 318.948 919.856 316.402C919.841 314.251 920.424 312.387 921.606 310.811C922.803 309.22 924.462 307.993 926.583 307.129C928.719 306.251 931.181 305.811 933.969 305.811C938.06 305.811 941.28 306.682 943.628 308.425C945.992 310.167 947.454 312.523 948.015 315.493ZM964.186 341.879C961.974 341.879 959.982 341.485 958.209 340.698C956.452 339.895 955.058 338.713 954.027 337.152C953.012 335.591 952.505 333.667 952.505 331.379C952.505 329.41 952.868 327.781 953.595 326.493C954.323 325.205 955.315 324.175 956.573 323.402C957.83 322.629 959.247 322.046 960.823 321.652C962.414 321.243 964.058 320.948 965.755 320.766C967.8 320.554 969.459 320.364 970.732 320.198C972.005 320.016 972.929 319.743 973.505 319.379C974.095 319.001 974.391 318.417 974.391 317.629V317.493C974.391 315.781 973.883 314.455 972.868 313.516C971.853 312.576 970.391 312.107 968.482 312.107C966.467 312.107 964.868 312.546 963.686 313.425C962.52 314.304 961.732 315.341 961.323 316.538L953.641 315.448C954.247 313.326 955.247 311.554 956.641 310.129C958.035 308.69 959.739 307.614 961.755 306.902C963.77 306.175 965.997 305.811 968.436 305.811C970.118 305.811 971.792 306.008 973.459 306.402C975.126 306.796 976.648 307.448 978.027 308.357C979.406 309.251 980.512 310.47 981.345 312.016C982.194 313.561 982.618 315.493 982.618 317.811V341.175H974.709V336.379H974.436C973.936 337.349 973.232 338.258 972.323 339.107C971.429 339.94 970.3 340.614 968.936 341.129C967.588 341.629 966.005 341.879 964.186 341.879ZM966.323 335.834C967.974 335.834 969.406 335.508 970.618 334.857C971.83 334.19 972.762 333.311 973.414 332.22C974.08 331.129 974.414 329.94 974.414 328.652V324.538C974.156 324.751 973.717 324.948 973.095 325.129C972.489 325.311 971.808 325.47 971.05 325.607C970.292 325.743 969.542 325.864 968.8 325.97C968.058 326.076 967.414 326.167 966.868 326.243C965.641 326.41 964.542 326.682 963.573 327.061C962.603 327.44 961.838 327.97 961.277 328.652C960.717 329.319 960.436 330.182 960.436 331.243C960.436 332.758 960.989 333.902 962.095 334.675C963.202 335.448 964.611 335.834 966.323 335.834ZM996.687 341.175L986.824 306.266H995.21L1001.35 330.811H1001.66L1007.94 306.266H1016.23L1022.51 330.675H1022.85L1028.89 306.266H1037.3L1027.41 341.175H1018.85L1012.3 317.584H1011.82L1005.28 341.175H996.687Z" fill="black"/>
</g>
</g>
<g id="Btn">
<rect x="309" y="553" width="974.829" height="241.896" rx="33" fill="#5353B1"/>
<path id="Explore by pressing a start." d="M572.496 686.948V660.766H589.525V664.742H577.239V671.85H588.643V675.826H577.239V682.972H589.627V686.948H572.496ZM597.151 667.312L601.114 674.56L605.141 667.312H610.038L604.119 677.13L610.14 686.948H605.269L601.114 679.879L596.998 686.948H592.089L598.072 677.13L592.242 667.312H597.151ZM612.825 694.312V667.312H617.376V670.559H617.645C617.883 670.082 618.22 669.575 618.655 669.038C619.089 668.492 619.677 668.028 620.419 667.644C621.16 667.252 622.106 667.056 623.257 667.056C624.774 667.056 626.142 667.444 627.361 668.22C628.588 668.987 629.559 670.124 630.275 671.633C631 673.133 631.362 674.974 631.362 677.156C631.362 679.312 631.008 681.144 630.301 682.653C629.594 684.161 628.63 685.312 627.412 686.104C626.193 686.897 624.812 687.293 623.27 687.293C622.145 687.293 621.211 687.106 620.47 686.731C619.729 686.356 619.132 685.904 618.68 685.376C618.237 684.839 617.892 684.332 617.645 683.854H617.453V694.312H612.825ZM617.363 677.13C617.363 678.4 617.542 679.512 617.9 680.467C618.267 681.421 618.791 682.167 619.473 682.704C620.163 683.232 620.998 683.497 621.979 683.497C623.001 683.497 623.858 683.224 624.548 682.678C625.238 682.124 625.758 681.37 626.108 680.416C626.466 679.453 626.645 678.357 626.645 677.13C626.645 675.911 626.47 674.829 626.121 673.883C625.771 672.937 625.251 672.195 624.561 671.658C623.871 671.122 623.01 670.853 621.979 670.853C620.99 670.853 620.15 671.113 619.46 671.633C618.77 672.153 618.246 672.881 617.888 673.819C617.538 674.756 617.363 675.86 617.363 677.13ZM639.161 660.766V686.948H634.533V660.766H639.161ZM651.693 687.332C649.776 687.332 648.114 686.91 646.707 686.066C645.301 685.222 644.21 684.042 643.435 682.525C642.668 681.008 642.284 679.235 642.284 677.207C642.284 675.178 642.668 673.401 643.435 671.876C644.21 670.35 645.301 669.166 646.707 668.322C648.114 667.478 649.776 667.056 651.693 667.056C653.611 667.056 655.273 667.478 656.679 668.322C658.085 669.166 659.172 670.35 659.939 671.876C660.714 673.401 661.102 675.178 661.102 677.207C661.102 679.235 660.714 681.008 659.939 682.525C659.172 684.042 658.085 685.222 656.679 686.066C655.273 686.91 653.611 687.332 651.693 687.332ZM651.719 683.624C652.758 683.624 653.628 683.339 654.327 682.768C655.026 682.188 655.545 681.413 655.886 680.441C656.236 679.47 656.41 678.387 656.41 677.194C656.41 675.992 656.236 674.906 655.886 673.934C655.545 672.954 655.026 672.174 654.327 671.595C653.628 671.015 652.758 670.725 651.719 670.725C650.653 670.725 649.767 671.015 649.06 671.595C648.361 672.174 647.837 672.954 647.487 673.934C647.146 674.906 646.976 675.992 646.976 677.194C646.976 678.387 647.146 679.47 647.487 680.441C647.837 681.413 648.361 682.188 649.06 682.768C649.767 683.339 650.653 683.624 651.719 683.624ZM664.238 686.948V667.312H668.725V670.585H668.93C669.288 669.451 669.902 668.578 670.771 667.964C671.649 667.342 672.65 667.031 673.775 667.031C674.031 667.031 674.316 667.043 674.632 667.069C674.955 667.086 675.224 667.116 675.437 667.158V671.416C675.241 671.347 674.93 671.288 674.504 671.237C674.086 671.177 673.681 671.147 673.289 671.147C672.446 671.147 671.687 671.33 671.014 671.697C670.349 672.055 669.825 672.553 669.441 673.193C669.058 673.832 668.866 674.569 668.866 675.404V686.948H664.238ZM685.604 687.332C683.635 687.332 681.935 686.923 680.503 686.104C679.08 685.278 677.985 684.11 677.218 682.602C676.451 681.085 676.067 679.299 676.067 677.245C676.067 675.225 676.451 673.453 677.218 671.927C677.993 670.393 679.076 669.2 680.465 668.347C681.854 667.487 683.486 667.056 685.361 667.056C686.572 667.056 687.714 667.252 688.787 667.644C689.87 668.028 690.824 668.624 691.651 669.434C692.486 670.244 693.143 671.275 693.62 672.528C694.097 673.772 694.336 675.255 694.336 676.977V678.396H678.241V675.276H689.9C689.891 674.39 689.699 673.602 689.324 672.911C688.949 672.212 688.425 671.663 687.752 671.262C687.087 670.862 686.312 670.661 685.425 670.661C684.479 670.661 683.648 670.891 682.932 671.352C682.216 671.803 681.658 672.4 681.258 673.141C680.866 673.874 680.665 674.68 680.657 675.558V678.281C680.657 679.423 680.866 680.403 681.283 681.221C681.701 682.031 682.285 682.653 683.035 683.087C683.785 683.514 684.662 683.727 685.668 683.727C686.341 683.727 686.951 683.633 687.496 683.445C688.042 683.249 688.515 682.964 688.915 682.589C689.316 682.214 689.618 681.749 689.823 681.195L694.144 681.681C693.871 682.823 693.351 683.82 692.584 684.673C691.826 685.516 690.854 686.173 689.67 686.641C688.485 687.102 687.13 687.332 685.604 687.332ZM705.801 686.948V660.766H710.429V670.559H710.621C710.859 670.082 711.196 669.575 711.631 669.038C712.065 668.492 712.653 668.028 713.395 667.644C714.136 667.252 715.082 667.056 716.233 667.056C717.75 667.056 719.118 667.444 720.337 668.22C721.564 668.987 722.535 670.124 723.251 671.633C723.976 673.133 724.338 674.974 724.338 677.156C724.338 679.312 723.984 681.144 723.277 682.653C722.57 684.161 721.606 685.312 720.388 686.104C719.169 686.897 717.788 687.293 716.246 687.293C715.121 687.293 714.187 687.106 713.446 686.731C712.704 686.356 712.108 685.904 711.656 685.376C711.213 684.839 710.868 684.332 710.621 683.854H710.352V686.948H705.801ZM710.339 677.13C710.339 678.4 710.518 679.512 710.876 680.467C711.243 681.421 711.767 682.167 712.449 682.704C713.139 683.232 713.974 683.497 714.954 683.497C715.977 683.497 716.834 683.224 717.524 682.678C718.214 682.124 718.734 681.37 719.084 680.416C719.442 679.453 719.621 678.357 719.621 677.13C719.621 675.911 719.446 674.829 719.097 673.883C718.747 672.937 718.227 672.195 717.537 671.658C716.847 671.122 715.986 670.853 714.954 670.853C713.966 670.853 713.126 671.113 712.436 671.633C711.746 672.153 711.222 672.881 710.864 673.819C710.514 674.756 710.339 675.86 710.339 677.13ZM729.689 694.312C729.058 694.312 728.474 694.261 727.937 694.158C727.409 694.065 726.987 693.954 726.672 693.826L727.746 690.221C728.419 690.417 729.02 690.511 729.548 690.502C730.077 690.494 730.541 690.328 730.942 690.004C731.351 689.688 731.696 689.16 731.977 688.418L732.373 687.357L725.253 667.312H730.162L734.687 682.141H734.892L739.43 667.312H744.352L736.49 689.326C736.123 690.366 735.638 691.256 735.033 691.998C734.427 692.748 733.686 693.319 732.808 693.711C731.939 694.112 730.899 694.312 729.689 694.312ZM754.9 694.312V667.312H759.451V670.559H759.72C759.958 670.082 760.295 669.575 760.73 669.038C761.164 668.492 761.752 668.028 762.494 667.644C763.235 667.252 764.181 667.056 765.332 667.056C766.849 667.056 768.217 667.444 769.436 668.22C770.663 668.987 771.635 670.124 772.35 671.633C773.075 673.133 773.437 674.974 773.437 677.156C773.437 679.312 773.083 681.144 772.376 682.653C771.669 684.161 770.706 685.312 769.487 686.104C768.268 686.897 766.887 687.293 765.345 687.293C764.22 687.293 763.287 687.106 762.545 686.731C761.804 686.356 761.207 685.904 760.755 685.376C760.312 684.839 759.967 684.332 759.72 683.854H759.528V694.312H754.9ZM759.439 677.13C759.439 678.4 759.618 679.512 759.975 680.467C760.342 681.421 760.866 682.167 761.548 682.704C762.238 683.232 763.074 683.497 764.054 683.497C765.076 683.497 765.933 683.224 766.623 682.678C767.314 682.124 767.833 681.37 768.183 680.416C768.541 679.453 768.72 678.357 768.72 677.13C768.72 675.911 768.545 674.829 768.196 673.883C767.846 672.937 767.326 672.195 766.636 671.658C765.946 671.122 765.085 670.853 764.054 670.853C763.065 670.853 762.225 671.113 761.535 671.633C760.845 672.153 760.321 672.881 759.963 673.819C759.613 674.756 759.439 675.86 759.439 677.13ZM776.608 686.948V667.312H781.095V670.585H781.3C781.658 669.451 782.272 668.578 783.141 667.964C784.019 667.342 785.02 667.031 786.145 667.031C786.401 667.031 786.686 667.043 787.002 667.069C787.326 667.086 787.594 667.116 787.807 667.158V671.416C787.611 671.347 787.3 671.288 786.874 671.237C786.456 671.177 786.051 671.147 785.659 671.147C784.816 671.147 784.057 671.33 783.384 671.697C782.719 672.055 782.195 672.553 781.811 673.193C781.428 673.832 781.236 674.569 781.236 675.404V686.948H776.608ZM797.974 687.332C796.005 687.332 794.305 686.923 792.873 686.104C791.45 685.278 790.355 684.11 789.588 682.602C788.821 681.085 788.437 679.299 788.437 677.245C788.437 675.225 788.821 673.453 789.588 671.927C790.363 670.393 791.446 669.2 792.835 668.347C794.224 667.487 795.856 667.056 797.731 667.056C798.942 667.056 800.084 667.252 801.157 667.644C802.24 668.028 803.194 668.624 804.021 669.434C804.856 670.244 805.513 671.275 805.99 672.528C806.467 673.772 806.706 675.255 806.706 676.977V678.396H790.611V675.276H802.27C802.261 674.39 802.069 673.602 801.694 672.911C801.319 672.212 800.795 671.663 800.122 671.262C799.457 670.862 798.682 670.661 797.795 670.661C796.849 670.661 796.018 670.891 795.302 671.352C794.586 671.803 794.028 672.4 793.628 673.141C793.236 673.874 793.035 674.68 793.027 675.558V678.281C793.027 679.423 793.236 680.403 793.653 681.221C794.071 682.031 794.655 682.653 795.405 683.087C796.155 683.514 797.032 683.727 798.038 683.727C798.711 683.727 799.321 683.633 799.866 683.445C800.412 683.249 800.885 682.964 801.285 682.589C801.686 682.214 801.988 681.749 802.193 681.195L806.514 681.681C806.241 682.823 805.721 683.82 804.954 684.673C804.196 685.516 803.224 686.173 802.04 686.641C800.855 687.102 799.5 687.332 797.974 687.332ZM825.349 672.502L821.13 672.962C821.011 672.536 820.802 672.136 820.504 671.761C820.214 671.386 819.822 671.083 819.327 670.853C818.833 670.623 818.228 670.508 817.512 670.508C816.549 670.508 815.739 670.717 815.083 671.134C814.435 671.552 814.116 672.093 814.124 672.758C814.116 673.329 814.325 673.793 814.751 674.151C815.185 674.509 815.901 674.803 816.899 675.033L820.248 675.749C822.106 676.15 823.487 676.785 824.39 677.654C825.302 678.524 825.762 679.661 825.771 681.068C825.762 682.303 825.4 683.394 824.684 684.34C823.977 685.278 822.992 686.011 821.731 686.539C820.47 687.068 819.021 687.332 817.384 687.332C814.981 687.332 813.046 686.829 811.58 685.823C810.114 684.809 809.241 683.399 808.96 681.592L813.472 681.157C813.677 682.043 814.112 682.712 814.776 683.164C815.441 683.616 816.306 683.842 817.372 683.842C818.471 683.842 819.353 683.616 820.018 683.164C820.691 682.712 821.028 682.154 821.028 681.489C821.028 680.927 820.81 680.462 820.376 680.096C819.95 679.729 819.285 679.448 818.381 679.252L815.032 678.549C813.149 678.157 811.755 677.497 810.852 676.568C809.948 675.63 809.501 674.445 809.509 673.014C809.501 671.803 809.829 670.755 810.494 669.869C811.167 668.974 812.1 668.283 813.293 667.798C814.495 667.303 815.88 667.056 817.448 667.056C819.749 667.056 821.56 667.546 822.881 668.526C824.211 669.506 825.033 670.832 825.349 672.502ZM844.315 672.502L840.096 672.962C839.977 672.536 839.768 672.136 839.469 671.761C839.18 671.386 838.788 671.083 838.293 670.853C837.799 670.623 837.194 670.508 836.478 670.508C835.515 670.508 834.705 670.717 834.049 671.134C833.401 671.552 833.082 672.093 833.09 672.758C833.082 673.329 833.29 673.793 833.717 674.151C834.151 674.509 834.867 674.803 835.864 675.033L839.214 675.749C841.072 676.15 842.452 676.785 843.356 677.654C844.268 678.524 844.728 679.661 844.736 681.068C844.728 682.303 844.366 683.394 843.65 684.34C842.942 685.278 841.958 686.011 840.697 686.539C839.435 687.068 837.986 687.332 836.35 687.332C833.947 687.332 832.012 686.829 830.546 685.823C829.08 684.809 828.207 683.399 827.925 681.592L832.438 681.157C832.643 682.043 833.077 682.712 833.742 683.164C834.407 683.616 835.272 683.842 836.337 683.842C837.437 683.842 838.319 683.616 838.984 683.164C839.657 682.712 839.994 682.154 839.994 681.489C839.994 680.927 839.776 680.462 839.342 680.096C838.915 679.729 838.251 679.448 837.347 679.252L833.998 678.549C832.114 678.157 830.721 677.497 829.817 676.568C828.914 675.63 828.467 674.445 828.475 673.014C828.467 671.803 828.795 670.755 829.459 669.869C830.133 668.974 831.066 668.283 832.259 667.798C833.461 667.303 834.846 667.056 836.414 667.056C838.715 667.056 840.526 667.546 841.847 668.526C843.177 669.506 843.999 670.832 844.315 672.502ZM847.761 686.948V667.312H852.388V686.948H847.761ZM850.087 664.525C849.354 664.525 848.724 664.282 848.195 663.796C847.667 663.302 847.403 662.71 847.403 662.019C847.403 661.32 847.667 660.728 848.195 660.242C848.724 659.748 849.354 659.501 850.087 659.501C850.829 659.501 851.459 659.748 851.979 660.242C852.508 660.728 852.772 661.32 852.772 662.019C852.772 662.71 852.508 663.302 851.979 663.796C851.459 664.282 850.829 664.525 850.087 664.525ZM860.983 675.443V686.948H856.355V667.312H860.779V670.649H861.009C861.46 669.549 862.181 668.676 863.169 668.028C864.166 667.38 865.398 667.056 866.864 667.056C868.219 667.056 869.399 667.346 870.405 667.926C871.419 668.505 872.203 669.345 872.757 670.444C873.32 671.543 873.597 672.877 873.588 674.445V686.948H868.96V675.161C868.96 673.849 868.619 672.822 867.938 672.08C867.264 671.339 866.331 670.968 865.138 670.968C864.328 670.968 863.608 671.147 862.977 671.505C862.355 671.854 861.865 672.362 861.507 673.026C861.158 673.691 860.983 674.497 860.983 675.443ZM886.041 694.721C884.379 694.721 882.951 694.495 881.758 694.043C880.565 693.6 879.606 693.004 878.881 692.254C878.157 691.504 877.654 690.673 877.373 689.761L881.541 688.751C881.728 689.134 882.001 689.514 882.359 689.889C882.717 690.272 883.198 690.587 883.803 690.835C884.417 691.09 885.188 691.218 886.117 691.218C887.43 691.218 888.516 690.899 889.377 690.259C890.238 689.629 890.668 688.589 890.668 687.14V683.42H890.438C890.2 683.897 889.85 684.387 889.39 684.89C888.938 685.393 888.337 685.815 887.587 686.156C886.846 686.497 885.913 686.667 884.788 686.667C883.279 686.667 881.911 686.313 880.684 685.606C879.465 684.89 878.494 683.825 877.769 682.41C877.053 680.987 876.695 679.205 876.695 677.066C876.695 674.91 877.053 673.09 877.769 671.607C878.494 670.116 879.469 668.987 880.697 668.22C881.924 667.444 883.292 667.056 884.8 667.056C885.951 667.056 886.897 667.252 887.639 667.644C888.389 668.028 888.985 668.492 889.428 669.038C889.871 669.575 890.208 670.082 890.438 670.559H890.694V667.312H895.258V687.268C895.258 688.947 894.857 690.336 894.056 691.435C893.255 692.535 892.16 693.357 890.771 693.903C889.381 694.448 887.805 694.721 886.041 694.721ZM886.079 683.036C887.059 683.036 887.894 682.798 888.585 682.32C889.275 681.843 889.799 681.157 890.157 680.262C890.515 679.367 890.694 678.293 890.694 677.041C890.694 675.805 890.515 674.722 890.157 673.793C889.808 672.864 889.288 672.144 888.597 671.633C887.916 671.113 887.076 670.853 886.079 670.853C885.048 670.853 884.187 671.122 883.496 671.658C882.806 672.195 882.286 672.933 881.937 673.87C881.587 674.799 881.413 675.856 881.413 677.041C881.413 678.242 881.587 679.295 881.937 680.198C882.295 681.093 882.819 681.792 883.509 682.295C884.208 682.789 885.065 683.036 886.079 683.036ZM912.997 687.345C911.753 687.345 910.632 687.123 909.635 686.68C908.646 686.228 907.862 685.563 907.283 684.685C906.711 683.808 906.426 682.725 906.426 681.438C906.426 680.33 906.631 679.414 907.04 678.69C907.449 677.965 908.007 677.386 908.714 676.951C909.422 676.516 910.219 676.188 911.105 675.967C912 675.737 912.925 675.57 913.879 675.468C915.03 675.349 915.963 675.242 916.679 675.149C917.395 675.046 917.915 674.893 918.238 674.688C918.571 674.475 918.737 674.147 918.737 673.704V673.627C918.737 672.664 918.452 671.918 917.881 671.39C917.31 670.862 916.487 670.597 915.413 670.597C914.28 670.597 913.381 670.845 912.716 671.339C912.06 671.833 911.616 672.417 911.386 673.09L907.065 672.477C907.406 671.283 907.969 670.286 908.753 669.485C909.537 668.676 910.496 668.07 911.629 667.67C912.763 667.261 914.015 667.056 915.388 667.056C916.334 667.056 917.275 667.167 918.213 667.389C919.15 667.61 920.007 667.977 920.783 668.488C921.558 668.991 922.18 669.677 922.649 670.546C923.126 671.416 923.365 672.502 923.365 673.806V686.948H918.916V684.251H918.763C918.481 684.796 918.085 685.308 917.574 685.785C917.071 686.254 916.436 686.633 915.669 686.923C914.91 687.204 914.02 687.345 912.997 687.345ZM914.199 683.944C915.128 683.944 915.933 683.761 916.615 683.394C917.297 683.019 917.821 682.525 918.187 681.911C918.562 681.298 918.75 680.629 918.75 679.904V677.59C918.605 677.71 918.358 677.82 918.008 677.923C917.667 678.025 917.284 678.114 916.858 678.191C916.432 678.268 916.01 678.336 915.592 678.396C915.175 678.455 914.812 678.506 914.506 678.549C913.815 678.643 913.197 678.796 912.652 679.009C912.106 679.222 911.676 679.521 911.361 679.904C911.045 680.279 910.888 680.765 910.888 681.362C910.888 682.214 911.199 682.857 911.821 683.292C912.443 683.727 913.236 683.944 914.199 683.944ZM950.884 672.502L946.665 672.962C946.546 672.536 946.337 672.136 946.039 671.761C945.749 671.386 945.357 671.083 944.863 670.853C944.368 670.623 943.763 670.508 943.047 670.508C942.084 670.508 941.274 670.717 940.618 671.134C939.971 671.552 939.651 672.093 939.659 672.758C939.651 673.329 939.86 673.793 940.286 674.151C940.721 674.509 941.436 674.803 942.434 675.033L945.783 675.749C947.641 676.15 949.022 676.785 949.925 677.654C950.837 678.524 951.297 679.661 951.306 681.068C951.297 682.303 950.935 683.394 950.219 684.34C949.512 685.278 948.527 686.011 947.266 686.539C946.005 687.068 944.556 687.332 942.919 687.332C940.516 687.332 938.581 686.829 937.115 685.823C935.649 684.809 934.776 683.399 934.495 681.592L939.007 681.157C939.212 682.043 939.647 682.712 940.311 683.164C940.976 683.616 941.841 683.842 942.907 683.842C944.006 683.842 944.888 683.616 945.553 683.164C946.226 682.712 946.563 682.154 946.563 681.489C946.563 680.927 946.346 680.462 945.911 680.096C945.485 679.729 944.82 679.448 943.917 679.252L940.567 678.549C938.684 678.157 937.29 677.497 936.387 676.568C935.483 675.63 935.036 674.445 935.044 673.014C935.036 671.803 935.364 670.755 936.029 669.869C936.702 668.974 937.635 668.283 938.828 667.798C940.03 667.303 941.415 667.056 942.983 667.056C945.284 667.056 947.096 667.546 948.417 668.526C949.746 669.506 950.569 670.832 950.884 672.502ZM964.135 667.312V670.891H952.847V667.312H964.135ZM955.634 662.607H960.262V681.042C960.262 681.664 960.355 682.141 960.543 682.474C960.739 682.798 960.995 683.019 961.31 683.139C961.625 683.258 961.975 683.318 962.358 683.318C962.648 683.318 962.912 683.296 963.151 683.254C963.398 683.211 963.585 683.173 963.713 683.139L964.493 686.756C964.246 686.842 963.892 686.935 963.432 687.038C962.98 687.14 962.426 687.2 961.77 687.217C960.611 687.251 959.567 687.076 958.638 686.693C957.709 686.301 956.972 685.695 956.426 684.877C955.889 684.059 955.625 683.036 955.634 681.809V662.607ZM972.864 687.345C971.62 687.345 970.499 687.123 969.502 686.68C968.513 686.228 967.729 685.563 967.15 684.685C966.579 683.808 966.293 682.725 966.293 681.438C966.293 680.33 966.498 679.414 966.907 678.69C967.316 677.965 967.874 677.386 968.581 676.951C969.289 676.516 970.086 676.188 970.972 675.967C971.867 675.737 972.792 675.57 973.746 675.468C974.897 675.349 975.83 675.242 976.546 675.149C977.262 675.046 977.782 674.893 978.106 674.688C978.438 674.475 978.604 674.147 978.604 673.704V673.627C978.604 672.664 978.319 671.918 977.748 671.39C977.177 670.862 976.354 670.597 975.28 670.597C974.147 670.597 973.248 670.845 972.583 671.339C971.927 671.833 971.483 672.417 971.253 673.09L966.932 672.477C967.273 671.283 967.836 670.286 968.62 669.485C969.404 668.676 970.363 668.07 971.496 667.67C972.63 667.261 973.883 667.056 975.255 667.056C976.201 667.056 977.143 667.167 978.08 667.389C979.018 667.61 979.874 667.977 980.65 668.488C981.425 668.991 982.047 669.677 982.516 670.546C982.993 671.416 983.232 672.502 983.232 673.806V686.948H978.783V684.251H978.63C978.349 684.796 977.952 685.308 977.441 685.785C976.938 686.254 976.303 686.633 975.536 686.923C974.778 687.204 973.887 687.345 972.864 687.345ZM974.066 683.944C974.995 683.944 975.8 683.761 976.482 683.394C977.164 683.019 977.688 682.525 978.055 681.911C978.43 681.298 978.617 680.629 978.617 679.904V677.59C978.472 677.71 978.225 677.82 977.876 677.923C977.535 678.025 977.151 678.114 976.725 678.191C976.299 678.268 975.877 678.336 975.459 678.396C975.042 678.455 974.68 678.506 974.373 678.549C973.682 678.643 973.064 678.796 972.519 679.009C971.974 679.222 971.543 679.521 971.228 679.904C970.912 680.279 970.755 680.765 970.755 681.362C970.755 682.214 971.066 682.857 971.688 683.292C972.31 683.727 973.103 683.944 974.066 683.944ZM987.093 686.948V667.312H991.581V670.585H991.785C992.143 669.451 992.757 668.578 993.626 667.964C994.504 667.342 995.505 667.031 996.63 667.031C996.886 667.031 997.172 667.043 997.487 667.069C997.811 667.086 998.079 667.116 998.292 667.158V671.416C998.096 671.347 997.785 671.288 997.359 671.237C996.941 671.177 996.537 671.147 996.145 671.147C995.301 671.147 994.542 671.33 993.869 671.697C993.204 672.055 992.68 672.553 992.297 673.193C991.913 673.832 991.721 674.569 991.721 675.404V686.948H987.093ZM1011.43 667.312V670.891H1000.15V667.312H1011.43ZM1002.93 662.607H1007.56V681.042C1007.56 681.664 1007.66 682.141 1007.84 682.474C1008.04 682.798 1008.29 683.019 1008.61 683.139C1008.93 683.258 1009.27 683.318 1009.66 683.318C1009.95 683.318 1010.21 683.296 1010.45 683.254C1010.7 683.211 1010.89 683.173 1011.01 683.139L1011.79 686.756C1011.55 686.842 1011.19 686.935 1010.73 687.038C1010.28 687.14 1009.73 687.2 1009.07 687.217C1007.91 687.251 1006.87 687.076 1005.94 686.693C1005.01 686.301 1004.27 685.695 1003.73 684.877C1003.19 684.059 1002.93 683.036 1002.93 681.809V662.607ZM1017.36 687.229C1016.59 687.229 1015.92 686.957 1015.37 686.411C1014.82 685.866 1014.54 685.201 1014.55 684.417C1014.54 683.65 1014.82 682.994 1015.37 682.448C1015.92 681.903 1016.59 681.63 1017.36 681.63C1018.11 681.63 1018.77 681.903 1019.32 682.448C1019.88 682.994 1020.17 683.65 1020.18 684.417C1020.17 684.937 1020.03 685.41 1019.77 685.836C1019.51 686.262 1019.17 686.603 1018.74 686.859C1018.33 687.106 1017.87 687.229 1017.36 687.229Z" fill="white"/>
</g>
</g>
<defs>
<filter id="filter0_d_750_25799" x="-4" y="0" width="1543" height="736" filterUnits="userSpaceOnUse" color-interpolation-filters="sRGB">
<feFlood flood-opacity="0" result="BackgroundImageFix"/>
<feColorMatrix in="SourceAlpha" type="matrix" values="0 0 0 0 0 0 0 0 0 0 0 0 0 0 0 0 0 0 127 0" result="hardAlpha"/>
<feOffset dy="4"/>
<feGaussianBlur stdDeviation="2"/>
<feComposite in2="hardAlpha" operator="out"/>
<feColorMatrix type="matrix" values="0 0 0 0 0 0 0 0 0 0 0 0 0 0 0 0 0 0 0.25 0"/>
<feBlend mode="normal" in2="BackgroundImageFix" result="effect1_dropShadow_750_25799"/>
<feBlend mode="normal" in="SourceGraphic" in2="effect1_dropShadow_750_25799" result="shape"/>
</filter>
</defs>
</svg>
