<svg width="1403" height="637" viewBox="0 0 1403 637" fill="none" xmlns="http://www.w3.org/2000/svg">
<g id="BoxChainsaw">
<g id="Group 57">
<g id="Rectangle 54" filter="url(#filter0_d_479_232)">
<rect width="1403" height="517" rx="54" fill="white"/>
</g>
<g id="Group 56">
<path id="You hear a chainsaw" d="M394.409 216.324H403.932L415.318 236.915H415.773L427.159 216.324H436.682L419.75 245.506V262.869H411.341V245.506L394.409 216.324ZM449.609 263.551C446.2 263.551 443.245 262.801 440.745 261.301C438.245 259.801 436.306 257.702 434.927 255.006C433.564 252.309 432.882 249.157 432.882 245.551C432.882 241.945 433.564 238.786 434.927 236.074C436.306 233.362 438.245 231.256 440.745 229.756C443.245 228.256 446.2 227.506 449.609 227.506C453.018 227.506 455.973 228.256 458.473 229.756C460.973 231.256 462.905 233.362 464.268 236.074C465.647 238.786 466.336 241.945 466.336 245.551C466.336 249.157 465.647 252.309 464.268 255.006C462.905 257.702 460.973 259.801 458.473 261.301C455.973 262.801 453.018 263.551 449.609 263.551ZM449.654 256.96C451.503 256.96 453.048 256.452 454.291 255.437C455.533 254.407 456.458 253.028 457.064 251.301C457.685 249.574 457.995 247.649 457.995 245.528C457.995 243.392 457.685 241.46 457.064 239.733C456.458 237.99 455.533 236.604 454.291 235.574C453.048 234.543 451.503 234.028 449.654 234.028C447.761 234.028 446.185 234.543 444.927 235.574C443.685 236.604 442.753 237.99 442.132 239.733C441.526 241.46 441.223 243.392 441.223 245.528C441.223 247.649 441.526 249.574 442.132 251.301C442.753 253.028 443.685 254.407 444.927 255.437C446.185 256.452 447.761 256.96 449.654 256.96ZM494.161 248.187V227.96H502.389V262.869H494.411V256.665H494.048C493.26 258.619 491.964 260.218 490.161 261.46C488.373 262.702 486.169 263.324 483.548 263.324C481.26 263.324 479.237 262.816 477.479 261.801C475.737 260.771 474.373 259.278 473.389 257.324C472.404 255.354 471.911 252.975 471.911 250.187V227.96H480.139V248.915C480.139 251.127 480.745 252.884 481.957 254.187C483.169 255.49 484.76 256.142 486.729 256.142C487.942 256.142 489.116 255.846 490.252 255.256C491.389 254.665 492.32 253.786 493.048 252.619C493.79 251.437 494.161 249.96 494.161 248.187ZM532.135 242.415V262.869H523.908V216.324H531.953V233.892H532.362C533.18 231.922 534.446 230.369 536.158 229.233C537.885 228.081 540.082 227.506 542.749 227.506C545.173 227.506 547.287 228.013 549.09 229.028C550.893 230.043 552.287 231.528 553.271 233.483C554.271 235.437 554.771 237.824 554.771 240.642V262.869H546.544V241.915C546.544 239.566 545.938 237.74 544.726 236.437C543.529 235.119 541.847 234.46 539.68 234.46C538.226 234.46 536.923 234.778 535.771 235.415C534.635 236.036 533.741 236.937 533.09 238.119C532.453 239.301 532.135 240.733 532.135 242.415ZM577.204 263.551C573.704 263.551 570.682 262.824 568.136 261.369C565.606 259.899 563.659 257.824 562.295 255.142C560.932 252.445 560.25 249.271 560.25 245.619C560.25 242.028 560.932 238.877 562.295 236.165C563.674 233.437 565.598 231.316 568.068 229.801C570.538 228.271 573.439 227.506 576.773 227.506C578.924 227.506 580.954 227.854 582.863 228.551C584.788 229.233 586.485 230.293 587.954 231.733C589.439 233.172 590.606 235.006 591.454 237.233C592.303 239.445 592.727 242.081 592.727 245.142V247.665H564.113V242.119H584.841C584.826 240.543 584.485 239.142 583.818 237.915C583.151 236.672 582.219 235.695 581.023 234.983C579.841 234.271 578.462 233.915 576.886 233.915C575.204 233.915 573.727 234.324 572.454 235.142C571.182 235.945 570.189 237.006 569.477 238.324C568.78 239.627 568.424 241.059 568.409 242.619V247.46C568.409 249.49 568.78 251.233 569.523 252.687C570.265 254.127 571.303 255.233 572.636 256.006C573.969 256.763 575.53 257.142 577.318 257.142C578.515 257.142 579.598 256.975 580.568 256.642C581.538 256.293 582.379 255.786 583.091 255.119C583.803 254.452 584.341 253.627 584.704 252.642L592.386 253.506C591.901 255.536 590.977 257.309 589.613 258.824C588.265 260.324 586.538 261.49 584.432 262.324C582.326 263.142 579.916 263.551 577.204 263.551ZM608.325 263.574C606.113 263.574 604.12 263.18 602.347 262.392C600.59 261.589 599.196 260.407 598.166 258.846C597.15 257.286 596.643 255.362 596.643 253.074C596.643 251.104 597.007 249.475 597.734 248.187C598.461 246.899 599.454 245.869 600.711 245.096C601.969 244.324 603.385 243.74 604.961 243.346C606.552 242.937 608.196 242.642 609.893 242.46C611.938 242.248 613.597 242.059 614.87 241.892C616.143 241.71 617.067 241.437 617.643 241.074C618.234 240.695 618.529 240.112 618.529 239.324V239.187C618.529 237.475 618.022 236.149 617.007 235.21C615.991 234.271 614.529 233.801 612.62 233.801C610.605 233.801 609.007 234.24 607.825 235.119C606.658 235.998 605.87 237.036 605.461 238.233L597.779 237.142C598.385 235.021 599.385 233.248 600.779 231.824C602.173 230.384 603.878 229.309 605.893 228.596C607.908 227.869 610.135 227.506 612.575 227.506C614.257 227.506 615.931 227.702 617.597 228.096C619.264 228.49 620.787 229.142 622.166 230.051C623.544 230.945 624.65 232.165 625.484 233.71C626.332 235.256 626.757 237.187 626.757 239.506V262.869H618.847V258.074H618.575C618.075 259.043 617.37 259.952 616.461 260.801C615.567 261.634 614.438 262.309 613.075 262.824C611.726 263.324 610.143 263.574 608.325 263.574ZM610.461 257.528C612.113 257.528 613.544 257.202 614.757 256.551C615.969 255.884 616.9 255.006 617.552 253.915C618.219 252.824 618.552 251.634 618.552 250.346V246.233C618.294 246.445 617.855 246.642 617.234 246.824C616.628 247.006 615.946 247.165 615.188 247.301C614.431 247.437 613.681 247.559 612.938 247.665C612.196 247.771 611.552 247.862 611.007 247.937C609.779 248.104 608.681 248.377 607.711 248.756C606.741 249.134 605.976 249.665 605.416 250.346C604.855 251.013 604.575 251.877 604.575 252.937C604.575 254.452 605.128 255.596 606.234 256.369C607.34 257.142 608.749 257.528 610.461 257.528ZM633.621 262.869V227.96H641.599V233.778H641.962C642.599 231.763 643.689 230.21 645.235 229.119C646.796 228.013 648.576 227.46 650.576 227.46C651.03 227.46 651.538 227.483 652.099 227.528C652.674 227.559 653.152 227.612 653.53 227.687V235.256C653.182 235.134 652.629 235.028 651.871 234.937C651.129 234.831 650.409 234.778 649.712 234.778C648.212 234.778 646.864 235.104 645.667 235.756C644.485 236.392 643.553 237.278 642.871 238.415C642.189 239.551 641.849 240.862 641.849 242.346V262.869H633.621ZM682.101 263.574C679.889 263.574 677.896 263.18 676.123 262.392C674.366 261.589 672.972 260.407 671.942 258.846C670.926 257.286 670.419 255.362 670.419 253.074C670.419 251.104 670.783 249.475 671.51 248.187C672.237 246.899 673.23 245.869 674.487 245.096C675.745 244.324 677.161 243.74 678.737 243.346C680.328 242.937 681.972 242.642 683.669 242.46C685.714 242.248 687.373 242.059 688.646 241.892C689.919 241.71 690.843 241.437 691.419 241.074C692.01 240.695 692.305 240.112 692.305 239.324V239.187C692.305 237.475 691.798 236.149 690.783 235.21C689.767 234.271 688.305 233.801 686.396 233.801C684.381 233.801 682.783 234.24 681.601 235.119C680.434 235.998 679.646 237.036 679.237 238.233L671.555 237.142C672.161 235.021 673.161 233.248 674.555 231.824C675.949 230.384 677.654 229.309 679.669 228.596C681.684 227.869 683.911 227.506 686.351 227.506C688.033 227.506 689.707 227.702 691.373 228.096C693.04 228.49 694.563 229.142 695.942 230.051C697.32 230.945 698.426 232.165 699.26 233.71C700.108 235.256 700.533 237.187 700.533 239.506V262.869H692.623V258.074H692.351C691.851 259.043 691.146 259.952 690.237 260.801C689.343 261.634 688.214 262.309 686.851 262.824C685.502 263.324 683.919 263.574 682.101 263.574ZM684.237 257.528C685.889 257.528 687.32 257.202 688.533 256.551C689.745 255.884 690.676 255.006 691.328 253.915C691.995 252.824 692.328 251.634 692.328 250.346V246.233C692.07 246.445 691.631 246.642 691.01 246.824C690.404 247.006 689.722 247.165 688.964 247.301C688.207 247.437 687.457 247.559 686.714 247.665C685.972 247.771 685.328 247.862 684.783 247.937C683.555 248.104 682.457 248.377 681.487 248.756C680.517 249.134 679.752 249.665 679.192 250.346C678.631 251.013 678.351 251.877 678.351 252.937C678.351 254.452 678.904 255.596 680.01 256.369C681.116 257.142 682.525 257.528 684.237 257.528ZM737.092 263.551C733.607 263.551 730.614 262.786 728.114 261.256C725.629 259.725 723.713 257.612 722.364 254.915C721.031 252.202 720.364 249.081 720.364 245.551C720.364 242.006 721.046 238.877 722.41 236.165C723.773 233.437 725.698 231.316 728.182 229.801C730.682 228.271 733.637 227.506 737.046 227.506C739.879 227.506 742.387 228.028 744.569 229.074C746.766 230.104 748.516 231.566 749.819 233.46C751.122 235.339 751.864 237.536 752.046 240.051H744.182C743.864 238.369 743.107 236.968 741.91 235.846C740.728 234.71 739.145 234.142 737.16 234.142C735.478 234.142 734.001 234.596 732.728 235.506C731.455 236.399 730.463 237.687 729.751 239.369C729.054 241.051 728.705 243.066 728.705 245.415C728.705 247.793 729.054 249.839 729.751 251.551C730.448 253.248 731.425 254.559 732.682 255.483C733.955 256.392 735.448 256.846 737.16 256.846C738.372 256.846 739.455 256.619 740.41 256.165C741.379 255.695 742.19 255.021 742.842 254.142C743.493 253.263 743.94 252.195 744.182 250.937H752.046C751.849 253.407 751.122 255.596 749.864 257.506C748.607 259.399 746.895 260.884 744.728 261.96C742.561 263.021 740.016 263.551 737.092 263.551ZM765.621 242.415V262.869H757.394V216.324H765.439V233.892H765.848C766.667 231.922 767.932 230.369 769.644 229.233C771.371 228.081 773.568 227.506 776.235 227.506C778.659 227.506 780.773 228.013 782.576 229.028C784.379 230.043 785.773 231.528 786.757 233.483C787.757 235.437 788.257 237.824 788.257 240.642V262.869H780.03V241.915C780.03 239.566 779.424 237.74 778.212 236.437C777.015 235.119 775.333 234.46 773.167 234.46C771.712 234.46 770.409 234.778 769.257 235.415C768.121 236.036 767.227 236.937 766.576 238.119C765.939 239.301 765.621 240.733 765.621 242.415ZM805.281 263.574C803.069 263.574 801.077 263.18 799.304 262.392C797.546 261.589 796.152 260.407 795.122 258.846C794.107 257.286 793.599 255.362 793.599 253.074C793.599 251.104 793.963 249.475 794.69 248.187C795.418 246.899 796.41 245.869 797.668 245.096C798.925 244.324 800.342 243.74 801.918 243.346C803.509 242.937 805.152 242.642 806.849 242.46C808.895 242.248 810.554 242.059 811.827 241.892C813.099 241.71 814.024 241.437 814.599 241.074C815.19 240.695 815.486 240.112 815.486 239.324V239.187C815.486 237.475 814.978 236.149 813.963 235.21C812.948 234.271 811.486 233.801 809.577 233.801C807.562 233.801 805.963 234.24 804.781 235.119C803.615 235.998 802.827 237.036 802.418 238.233L794.736 237.142C795.342 235.021 796.342 233.248 797.736 231.824C799.13 230.384 800.834 229.309 802.849 228.596C804.865 227.869 807.092 227.506 809.531 227.506C811.213 227.506 812.887 227.702 814.554 228.096C816.221 228.49 817.743 229.142 819.122 230.051C820.501 230.945 821.607 232.165 822.44 233.71C823.289 235.256 823.713 237.187 823.713 239.506V262.869H815.804V258.074H815.531C815.031 259.043 814.327 259.952 813.418 260.801C812.524 261.634 811.395 262.309 810.031 262.824C808.683 263.324 807.099 263.574 805.281 263.574ZM807.418 257.528C809.069 257.528 810.501 257.202 811.713 256.551C812.925 255.884 813.857 255.006 814.509 253.915C815.175 252.824 815.509 251.634 815.509 250.346V246.233C815.251 246.445 814.812 246.642 814.19 246.824C813.584 247.006 812.902 247.165 812.145 247.301C811.387 247.437 810.637 247.559 809.895 247.665C809.152 247.771 808.509 247.862 807.963 247.937C806.736 248.104 805.637 248.377 804.668 248.756C803.698 249.134 802.933 249.665 802.372 250.346C801.812 251.013 801.531 251.877 801.531 252.937C801.531 254.452 802.084 255.596 803.19 256.369C804.296 257.142 805.705 257.528 807.418 257.528ZM830.578 262.869V227.96H838.805V262.869H830.578ZM834.714 223.006C833.411 223.006 832.29 222.574 831.35 221.71C830.411 220.831 829.941 219.778 829.941 218.551C829.941 217.309 830.411 216.256 831.35 215.392C832.29 214.513 833.411 214.074 834.714 214.074C836.032 214.074 837.154 214.513 838.078 215.392C839.017 216.256 839.487 217.309 839.487 218.551C839.487 219.778 839.017 220.831 838.078 221.71C837.154 222.574 836.032 223.006 834.714 223.006ZM854.085 242.415V262.869H845.857V227.96H853.721V233.892H854.13C854.933 231.937 856.213 230.384 857.971 229.233C859.744 228.081 861.933 227.506 864.539 227.506C866.948 227.506 869.047 228.021 870.835 229.051C872.638 230.081 874.032 231.574 875.016 233.528C876.016 235.483 876.509 237.854 876.494 240.642V262.869H868.266V241.915C868.266 239.581 867.66 237.756 866.448 236.437C865.251 235.119 863.592 234.46 861.471 234.46C860.032 234.46 858.751 234.778 857.63 235.415C856.524 236.036 855.653 236.937 855.016 238.119C854.395 239.301 854.085 240.733 854.085 242.415ZM911.04 237.187L903.54 238.006C903.328 237.248 902.957 236.536 902.427 235.869C901.911 235.202 901.214 234.665 900.336 234.256C899.457 233.846 898.381 233.642 897.108 233.642C895.396 233.642 893.957 234.013 892.79 234.756C891.639 235.498 891.07 236.46 891.086 237.642C891.07 238.657 891.442 239.483 892.199 240.119C892.972 240.756 894.245 241.278 896.017 241.687L901.972 242.96C905.275 243.672 907.73 244.801 909.336 246.346C910.957 247.892 911.775 249.915 911.79 252.415C911.775 254.612 911.131 256.551 909.858 258.233C908.601 259.899 906.851 261.202 904.608 262.142C902.366 263.081 899.79 263.551 896.881 263.551C892.608 263.551 889.169 262.657 886.563 260.869C883.957 259.066 882.404 256.559 881.904 253.346L889.927 252.574C890.29 254.149 891.063 255.339 892.245 256.142C893.427 256.945 894.964 257.346 896.858 257.346C898.813 257.346 900.381 256.945 901.563 256.142C902.76 255.339 903.358 254.346 903.358 253.165C903.358 252.165 902.972 251.339 902.199 250.687C901.442 250.036 900.26 249.536 898.654 249.187L892.699 247.937C889.351 247.24 886.874 246.066 885.267 244.415C883.661 242.748 882.866 240.642 882.881 238.096C882.866 235.945 883.449 234.081 884.631 232.506C885.828 230.915 887.487 229.687 889.608 228.824C891.745 227.945 894.207 227.506 896.995 227.506C901.086 227.506 904.305 228.377 906.654 230.119C909.017 231.862 910.48 234.218 911.04 237.187ZM927.212 263.574C925 263.574 923.007 263.18 921.234 262.392C919.477 261.589 918.083 260.407 917.053 258.846C916.038 257.286 915.53 255.362 915.53 253.074C915.53 251.104 915.894 249.475 916.621 248.187C917.348 246.899 918.341 245.869 919.598 245.096C920.856 244.324 922.272 243.74 923.848 243.346C925.439 242.937 927.083 242.642 928.78 242.46C930.825 242.248 932.484 242.059 933.757 241.892C935.03 241.71 935.954 241.437 936.53 241.074C937.121 240.695 937.416 240.112 937.416 239.324V239.187C937.416 237.475 936.909 236.149 935.894 235.21C934.878 234.271 933.416 233.801 931.507 233.801C929.492 233.801 927.894 234.24 926.712 235.119C925.545 235.998 924.757 237.036 924.348 238.233L916.666 237.142C917.272 235.021 918.272 233.248 919.666 231.824C921.06 230.384 922.765 229.309 924.78 228.596C926.795 227.869 929.022 227.506 931.462 227.506C933.144 227.506 934.818 227.702 936.484 228.096C938.151 228.49 939.674 229.142 941.053 230.051C942.431 230.945 943.538 232.165 944.371 233.71C945.219 235.256 945.644 237.187 945.644 239.506V262.869H937.734V258.074H937.462C936.962 259.043 936.257 259.952 935.348 260.801C934.454 261.634 933.325 262.309 931.962 262.824C930.613 263.324 929.03 263.574 927.212 263.574ZM929.348 257.528C931 257.528 932.431 257.202 933.644 256.551C934.856 255.884 935.788 255.006 936.439 253.915C937.106 252.824 937.439 251.634 937.439 250.346V246.233C937.181 246.445 936.742 246.642 936.121 246.824C935.515 247.006 934.833 247.165 934.075 247.301C933.318 247.437 932.568 247.559 931.825 247.665C931.083 247.771 930.439 247.862 929.894 247.937C928.666 248.104 927.568 248.377 926.598 248.756C925.628 249.134 924.863 249.665 924.303 250.346C923.742 251.013 923.462 251.877 923.462 252.937C923.462 254.452 924.015 255.596 925.121 256.369C926.227 257.142 927.636 257.528 929.348 257.528ZM959.713 262.869L949.849 227.96H958.236L964.372 252.506H964.69L970.963 227.96H979.258L985.531 252.369H985.872L991.917 227.96H1000.33L990.44 262.869H981.872L975.326 239.278H974.849L968.304 262.869H959.713Z" fill="black"/>
</g>
</g>
<g id="Frame 12">
<rect x="286" y="431" width="891" height="206" rx="33" fill="#5353B1"/>
<path id="Explore the sound by pressing start." d="M433.582 547V520.818H450.611V524.794H438.325V531.902H449.729V535.878H438.325V543.024H450.713V547H433.582ZM458.237 527.364L462.2 534.612L466.227 527.364H471.123L465.204 537.182L471.226 547H466.355L462.2 539.93L458.084 547H453.175L459.158 537.182L453.328 527.364H458.237ZM473.911 554.364V527.364H478.462V530.611H478.731C478.969 530.134 479.306 529.626 479.741 529.089C480.175 528.544 480.763 528.08 481.505 527.696C482.246 527.304 483.192 527.108 484.343 527.108C485.86 527.108 487.228 527.496 488.447 528.271C489.674 529.038 490.645 530.176 491.361 531.685C492.086 533.185 492.448 535.026 492.448 537.207C492.448 539.364 492.094 541.196 491.387 542.705C490.679 544.213 489.716 545.364 488.498 546.156C487.279 546.949 485.898 547.345 484.356 547.345C483.231 547.345 482.297 547.158 481.556 546.783C480.814 546.408 480.218 545.956 479.766 545.428C479.323 544.891 478.978 544.384 478.731 543.906H478.539V554.364H473.911ZM478.449 537.182C478.449 538.452 478.628 539.564 478.986 540.518C479.353 541.473 479.877 542.219 480.559 542.756C481.249 543.284 482.084 543.548 483.064 543.548C484.087 543.548 484.944 543.276 485.634 542.73C486.324 542.176 486.844 541.422 487.194 540.467C487.552 539.504 487.731 538.409 487.731 537.182C487.731 535.963 487.556 534.881 487.206 533.935C486.857 532.989 486.337 532.247 485.647 531.71C484.956 531.173 484.096 530.905 483.064 530.905C482.076 530.905 481.236 531.165 480.546 531.685C479.856 532.205 479.331 532.933 478.974 533.871C478.624 534.808 478.449 535.912 478.449 537.182ZM500.247 520.818V547H495.619V520.818H500.247ZM512.779 547.384C510.861 547.384 509.2 546.962 507.793 546.118C506.387 545.274 505.296 544.094 504.521 542.577C503.754 541.06 503.37 539.287 503.37 537.259C503.37 535.23 503.754 533.453 504.521 531.928C505.296 530.402 506.387 529.217 507.793 528.374C509.2 527.53 510.861 527.108 512.779 527.108C514.697 527.108 516.359 527.53 517.765 528.374C519.171 529.217 520.258 530.402 521.025 531.928C521.8 533.453 522.188 535.23 522.188 537.259C522.188 539.287 521.8 541.06 521.025 542.577C520.258 544.094 519.171 545.274 517.765 546.118C516.359 546.962 514.697 547.384 512.779 547.384ZM512.805 543.676C513.844 543.676 514.714 543.391 515.413 542.82C516.111 542.24 516.631 541.464 516.972 540.493C517.322 539.521 517.496 538.439 517.496 537.246C517.496 536.044 517.322 534.957 516.972 533.986C516.631 533.006 516.111 532.226 515.413 531.646C514.714 531.067 513.844 530.777 512.805 530.777C511.739 530.777 510.853 531.067 510.146 531.646C509.447 532.226 508.923 533.006 508.573 533.986C508.232 534.957 508.062 536.044 508.062 537.246C508.062 538.439 508.232 539.521 508.573 540.493C508.923 541.464 509.447 542.24 510.146 542.82C510.853 543.391 511.739 543.676 512.805 543.676ZM525.324 547V527.364H529.811V530.636H530.016C530.374 529.503 530.987 528.629 531.857 528.016C532.735 527.393 533.736 527.082 534.861 527.082C535.117 527.082 535.402 527.095 535.718 527.121C536.041 527.138 536.31 527.168 536.523 527.21V531.467C536.327 531.399 536.016 531.339 535.59 531.288C535.172 531.229 534.767 531.199 534.375 531.199C533.531 531.199 532.773 531.382 532.1 531.749C531.435 532.107 530.911 532.605 530.527 533.244C530.144 533.884 529.952 534.621 529.952 535.456V547H525.324ZM546.69 547.384C544.721 547.384 543.021 546.974 541.589 546.156C540.166 545.33 539.071 544.162 538.304 542.653C537.537 541.136 537.153 539.351 537.153 537.297C537.153 535.277 537.537 533.504 538.304 531.979C539.079 530.445 540.162 529.251 541.551 528.399C542.94 527.538 544.572 527.108 546.447 527.108C547.657 527.108 548.799 527.304 549.873 527.696C550.956 528.08 551.91 528.676 552.737 529.486C553.572 530.295 554.228 531.327 554.706 532.58C555.183 533.824 555.422 535.307 555.422 537.028V538.447H539.326V535.328H550.986C550.977 534.442 550.785 533.653 550.41 532.963C550.035 532.264 549.511 531.714 548.838 531.314C548.173 530.913 547.398 530.713 546.511 530.713C545.565 530.713 544.734 530.943 544.018 531.403C543.302 531.855 542.744 532.452 542.344 533.193C541.951 533.926 541.751 534.732 541.743 535.609V538.332C541.743 539.474 541.951 540.455 542.369 541.273C542.787 542.082 543.371 542.705 544.121 543.139C544.871 543.565 545.748 543.778 546.754 543.778C547.427 543.778 548.037 543.685 548.582 543.497C549.128 543.301 549.601 543.016 550.001 542.641C550.402 542.266 550.704 541.801 550.909 541.247L555.23 541.733C554.957 542.875 554.437 543.872 553.67 544.724C552.912 545.568 551.94 546.224 550.755 546.693C549.571 547.153 548.216 547.384 546.69 547.384ZM576.488 527.364V530.943H565.2V527.364H576.488ZM567.986 522.659H572.614V541.094C572.614 541.716 572.708 542.193 572.896 542.526C573.092 542.849 573.347 543.071 573.663 543.19C573.978 543.31 574.327 543.369 574.711 543.369C575.001 543.369 575.265 543.348 575.503 543.305C575.751 543.263 575.938 543.224 576.066 543.19L576.846 546.808C576.599 546.893 576.245 546.987 575.785 547.089C575.333 547.192 574.779 547.251 574.123 547.268C572.964 547.303 571.92 547.128 570.991 546.744C570.062 546.352 569.325 545.747 568.779 544.929C568.242 544.111 567.978 543.088 567.986 541.861V522.659ZM584.616 535.494V547H579.988V520.818H584.514V530.7H584.744C585.204 529.592 585.916 528.719 586.879 528.08C587.85 527.432 589.086 527.108 590.586 527.108C591.95 527.108 593.139 527.393 594.153 527.964C595.167 528.536 595.951 529.371 596.505 530.47C597.068 531.57 597.349 532.912 597.349 534.497V547H592.721V535.213C592.721 533.892 592.38 532.865 591.698 532.132C591.025 531.391 590.079 531.02 588.86 531.02C588.042 531.02 587.309 531.199 586.661 531.557C586.022 531.906 585.519 532.413 585.153 533.078C584.795 533.743 584.616 534.548 584.616 535.494ZM609.967 547.384C607.999 547.384 606.298 546.974 604.867 546.156C603.443 545.33 602.348 544.162 601.581 542.653C600.814 541.136 600.43 539.351 600.43 537.297C600.43 535.277 600.814 533.504 601.581 531.979C602.357 530.445 603.439 529.251 604.828 528.399C606.217 527.538 607.85 527.108 609.725 527.108C610.935 527.108 612.077 527.304 613.151 527.696C614.233 528.08 615.188 528.676 616.014 529.486C616.85 530.295 617.506 531.327 617.983 532.58C618.46 533.824 618.699 535.307 618.699 537.028V538.447H602.604V535.328H614.263C614.254 534.442 614.063 533.653 613.688 532.963C613.313 532.264 612.788 531.714 612.115 531.314C611.45 530.913 610.675 530.713 609.788 530.713C608.842 530.713 608.011 530.943 607.296 531.403C606.58 531.855 606.021 532.452 605.621 533.193C605.229 533.926 605.029 534.732 605.02 535.609V538.332C605.02 539.474 605.229 540.455 605.646 541.273C606.064 542.082 606.648 542.705 607.398 543.139C608.148 543.565 609.026 543.778 610.031 543.778C610.705 543.778 611.314 543.685 611.859 543.497C612.405 543.301 612.878 543.016 613.279 542.641C613.679 542.266 613.982 541.801 614.186 541.247L618.507 541.733C618.234 542.875 617.715 543.872 616.948 544.724C616.189 545.568 615.217 546.224 614.033 546.693C612.848 547.153 611.493 547.384 609.967 547.384ZM645.48 532.554L641.261 533.014C641.142 532.588 640.933 532.188 640.634 531.812C640.345 531.438 639.953 531.135 639.458 530.905C638.964 530.675 638.359 530.56 637.643 530.56C636.68 530.56 635.87 530.768 635.214 531.186C634.566 531.604 634.247 532.145 634.255 532.81C634.247 533.381 634.456 533.845 634.882 534.203C635.316 534.561 636.032 534.855 637.029 535.085L640.379 535.801C642.237 536.202 643.617 536.837 644.521 537.706C645.433 538.575 645.893 539.713 645.902 541.119C645.893 542.355 645.531 543.446 644.815 544.392C644.108 545.33 643.123 546.062 641.862 546.591C640.6 547.119 639.152 547.384 637.515 547.384C635.112 547.384 633.177 546.881 631.711 545.875C630.245 544.861 629.372 543.45 629.09 541.643L633.603 541.209C633.808 542.095 634.242 542.764 634.907 543.216C635.572 543.668 636.437 543.893 637.502 543.893C638.602 543.893 639.484 543.668 640.149 543.216C640.822 542.764 641.159 542.206 641.159 541.541C641.159 540.979 640.941 540.514 640.507 540.148C640.081 539.781 639.416 539.5 638.512 539.304L635.163 538.601C633.279 538.209 631.886 537.548 630.983 536.619C630.079 535.682 629.632 534.497 629.64 533.065C629.632 531.855 629.96 530.807 630.625 529.92C631.298 529.026 632.231 528.335 633.424 527.849C634.626 527.355 636.011 527.108 637.579 527.108C639.88 527.108 641.691 527.598 643.012 528.578C644.342 529.558 645.164 530.884 645.48 532.554ZM657.491 547.384C655.573 547.384 653.911 546.962 652.505 546.118C651.099 545.274 650.008 544.094 649.232 542.577C648.465 541.06 648.082 539.287 648.082 537.259C648.082 535.23 648.465 533.453 649.232 531.928C650.008 530.402 651.099 529.217 652.505 528.374C653.911 527.53 655.573 527.108 657.491 527.108C659.409 527.108 661.07 527.53 662.477 528.374C663.883 529.217 664.97 530.402 665.737 531.928C666.512 533.453 666.9 535.23 666.9 537.259C666.9 539.287 666.512 541.06 665.737 542.577C664.97 544.094 663.883 545.274 662.477 546.118C661.07 546.962 659.409 547.384 657.491 547.384ZM657.516 543.676C658.556 543.676 659.426 543.391 660.124 542.82C660.823 542.24 661.343 541.464 661.684 540.493C662.034 539.521 662.208 538.439 662.208 537.246C662.208 536.044 662.034 534.957 661.684 533.986C661.343 533.006 660.823 532.226 660.124 531.646C659.426 531.067 658.556 530.777 657.516 530.777C656.451 530.777 655.565 531.067 654.857 531.646C654.159 532.226 653.634 533.006 653.285 533.986C652.944 534.957 652.774 536.044 652.774 537.246C652.774 538.439 652.944 539.521 653.285 540.493C653.634 541.464 654.159 542.24 654.857 542.82C655.565 543.391 656.451 543.676 657.516 543.676ZM682.552 538.741V527.364H687.179V547H682.692V543.51H682.488C682.044 544.609 681.316 545.509 680.302 546.207C679.296 546.906 678.056 547.256 676.581 547.256C675.294 547.256 674.157 546.97 673.168 546.399C672.188 545.82 671.421 544.98 670.867 543.881C670.313 542.773 670.036 541.435 670.036 539.866V527.364H674.664V539.151C674.664 540.395 675.005 541.384 675.687 542.116C676.368 542.849 677.263 543.216 678.371 543.216C679.053 543.216 679.713 543.05 680.353 542.717C680.992 542.385 681.516 541.891 681.925 541.234C682.343 540.57 682.552 539.739 682.552 538.741ZM695.774 535.494V547H691.146V527.364H695.57V530.7H695.8C696.251 529.601 696.972 528.727 697.96 528.08C698.957 527.432 700.189 527.108 701.655 527.108C703.01 527.108 704.19 527.398 705.196 527.977C706.21 528.557 706.994 529.396 707.548 530.496C708.111 531.595 708.388 532.929 708.379 534.497V547H703.751V535.213C703.751 533.901 703.41 532.874 702.729 532.132C702.055 531.391 701.122 531.02 699.929 531.02C699.119 531.02 698.399 531.199 697.768 531.557C697.146 531.906 696.656 532.413 696.298 533.078C695.949 533.743 695.774 534.548 695.774 535.494ZM719.579 547.345C718.036 547.345 716.655 546.949 715.437 546.156C714.218 545.364 713.255 544.213 712.547 542.705C711.84 541.196 711.486 539.364 711.486 537.207C711.486 535.026 711.844 533.185 712.56 531.685C713.285 530.176 714.261 529.038 715.488 528.271C716.715 527.496 718.083 527.108 719.591 527.108C720.742 527.108 721.688 527.304 722.43 527.696C723.171 528.08 723.759 528.544 724.194 529.089C724.628 529.626 724.965 530.134 725.204 530.611H725.395V520.818H730.036V547H725.485V543.906H725.204C724.965 544.384 724.62 544.891 724.168 545.428C723.716 545.956 723.12 546.408 722.378 546.783C721.637 547.158 720.704 547.345 719.579 547.345ZM720.87 543.548C721.85 543.548 722.685 543.284 723.376 542.756C724.066 542.219 724.59 541.473 724.948 540.518C725.306 539.564 725.485 538.452 725.485 537.182C725.485 535.912 725.306 534.808 724.948 533.871C724.599 532.933 724.079 532.205 723.388 531.685C722.707 531.165 721.867 530.905 720.87 530.905C719.839 530.905 718.978 531.173 718.288 531.71C717.597 532.247 717.077 532.989 716.728 533.935C716.378 534.881 716.204 535.963 716.204 537.182C716.204 538.409 716.378 539.504 716.728 540.467C717.086 541.422 717.61 542.176 718.3 542.73C718.999 543.276 719.856 543.548 720.87 543.548ZM742.518 547V520.818H747.146V530.611H747.337C747.576 530.134 747.913 529.626 748.347 529.089C748.782 528.544 749.37 528.08 750.112 527.696C750.853 527.304 751.799 527.108 752.95 527.108C754.467 527.108 755.835 527.496 757.053 528.271C758.281 529.038 759.252 530.176 759.968 531.685C760.692 533.185 761.055 535.026 761.055 537.207C761.055 539.364 760.701 541.196 759.994 542.705C759.286 544.213 758.323 545.364 757.104 546.156C755.886 546.949 754.505 547.345 752.962 547.345C751.837 547.345 750.904 547.158 750.163 546.783C749.421 546.408 748.825 545.956 748.373 545.428C747.93 544.891 747.585 544.384 747.337 543.906H747.069V547H742.518ZM747.056 537.182C747.056 538.452 747.235 539.564 747.593 540.518C747.96 541.473 748.484 542.219 749.166 542.756C749.856 543.284 750.691 543.548 751.671 543.548C752.694 543.548 753.55 543.276 754.241 542.73C754.931 542.176 755.451 541.422 755.8 540.467C756.158 539.504 756.337 538.409 756.337 537.182C756.337 535.963 756.163 534.881 755.813 533.935C755.464 532.989 754.944 532.247 754.254 531.71C753.563 531.173 752.702 530.905 751.671 530.905C750.683 530.905 749.843 531.165 749.153 531.685C748.462 532.205 747.938 532.933 747.58 533.871C747.231 534.808 747.056 535.912 747.056 537.182ZM766.405 554.364C765.775 554.364 765.191 554.313 764.654 554.21C764.126 554.116 763.704 554.006 763.388 553.878L764.462 550.273C765.136 550.469 765.736 550.563 766.265 550.554C766.793 550.545 767.258 550.379 767.658 550.055C768.067 549.74 768.413 549.212 768.694 548.47L769.09 547.409L761.969 527.364H766.878L771.404 542.193H771.609L776.147 527.364H781.069L773.207 549.378C772.84 550.418 772.354 551.308 771.749 552.05C771.144 552.8 770.403 553.371 769.525 553.763C768.655 554.163 767.616 554.364 766.405 554.364ZM791.617 554.364V527.364H796.168V530.611H796.437C796.675 530.134 797.012 529.626 797.446 529.089C797.881 528.544 798.469 528.08 799.211 527.696C799.952 527.304 800.898 527.108 802.049 527.108C803.566 527.108 804.934 527.496 806.152 528.271C807.38 529.038 808.351 530.176 809.067 531.685C809.792 533.185 810.154 535.026 810.154 537.207C810.154 539.364 809.8 541.196 809.093 542.705C808.385 544.213 807.422 545.364 806.204 546.156C804.985 546.949 803.604 547.345 802.062 547.345C800.937 547.345 800.003 547.158 799.262 546.783C798.52 546.408 797.924 545.956 797.472 545.428C797.029 544.891 796.684 544.384 796.437 543.906H796.245V554.364H791.617ZM796.155 537.182C796.155 538.452 796.334 539.564 796.692 540.518C797.059 541.473 797.583 542.219 798.265 542.756C798.955 543.284 799.79 543.548 800.77 543.548C801.793 543.548 802.65 543.276 803.34 542.73C804.03 542.176 804.55 541.422 804.9 540.467C805.258 539.504 805.437 538.409 805.437 537.182C805.437 535.963 805.262 534.881 804.912 533.935C804.563 532.989 804.043 532.247 803.353 531.71C802.662 531.173 801.802 530.905 800.77 530.905C799.782 530.905 798.942 531.165 798.252 531.685C797.562 532.205 797.037 532.933 796.679 533.871C796.33 534.808 796.155 535.912 796.155 537.182ZM813.325 547V527.364H817.812V530.636H818.017C818.375 529.503 818.988 528.629 819.858 528.016C820.735 527.393 821.737 527.082 822.862 527.082C823.118 527.082 823.403 527.095 823.718 527.121C824.042 527.138 824.311 527.168 824.524 527.21V531.467C824.328 531.399 824.017 531.339 823.591 531.288C823.173 531.229 822.768 531.199 822.376 531.199C821.532 531.199 820.774 531.382 820.1 531.749C819.436 532.107 818.912 532.605 818.528 533.244C818.145 533.884 817.953 534.621 817.953 535.456V547H813.325ZM834.691 547.384C832.722 547.384 831.022 546.974 829.59 546.156C828.167 545.33 827.072 544.162 826.305 542.653C825.538 541.136 825.154 539.351 825.154 537.297C825.154 535.277 825.538 533.504 826.305 531.979C827.08 530.445 828.163 529.251 829.552 528.399C830.941 527.538 832.573 527.108 834.448 527.108C835.658 527.108 836.8 527.304 837.874 527.696C838.957 528.08 839.911 528.676 840.738 529.486C841.573 530.295 842.229 531.327 842.707 532.58C843.184 533.824 843.422 535.307 843.422 537.028V538.447H827.327V535.328H838.986C838.978 534.442 838.786 533.653 838.411 532.963C838.036 532.264 837.512 531.714 836.839 531.314C836.174 530.913 835.398 530.713 834.512 530.713C833.566 530.713 832.735 530.943 832.019 531.403C831.303 531.855 830.745 532.452 830.344 533.193C829.952 533.926 829.752 534.732 829.744 535.609V538.332C829.744 539.474 829.952 540.455 830.37 541.273C830.788 542.082 831.371 542.705 832.121 543.139C832.871 543.565 833.749 543.778 834.755 543.778C835.428 543.778 836.038 543.685 836.583 543.497C837.128 543.301 837.601 543.016 838.002 542.641C838.403 542.266 838.705 541.801 838.91 541.247L843.231 541.733C842.958 542.875 842.438 543.872 841.671 544.724C840.913 545.568 839.941 546.224 838.756 546.693C837.572 547.153 836.217 547.384 834.691 547.384ZM862.066 532.554L857.847 533.014C857.727 532.588 857.519 532.188 857.22 531.812C856.931 531.438 856.539 531.135 856.044 530.905C855.55 530.675 854.945 530.56 854.229 530.56C853.266 530.56 852.456 530.768 851.8 531.186C851.152 531.604 850.833 532.145 850.841 532.81C850.833 533.381 851.041 533.845 851.468 534.203C851.902 534.561 852.618 534.855 853.615 535.085L856.965 535.801C858.823 536.202 860.203 536.837 861.107 537.706C862.019 538.575 862.479 539.713 862.487 541.119C862.479 542.355 862.117 543.446 861.401 544.392C860.693 545.33 859.709 546.062 858.448 546.591C857.186 547.119 855.737 547.384 854.101 547.384C851.698 547.384 849.763 546.881 848.297 545.875C846.831 544.861 845.958 543.45 845.676 541.643L850.189 541.209C850.394 542.095 850.828 542.764 851.493 543.216C852.158 543.668 853.023 543.893 854.088 543.893C855.188 543.893 856.07 543.668 856.735 543.216C857.408 542.764 857.744 542.206 857.744 541.541C857.744 540.979 857.527 540.514 857.093 540.148C856.666 539.781 856.002 539.5 855.098 539.304L851.749 538.601C849.865 538.209 848.472 537.548 847.568 536.619C846.665 535.682 846.218 534.497 846.226 533.065C846.218 531.855 846.546 530.807 847.21 529.92C847.884 529.026 848.817 528.335 850.01 527.849C851.212 527.355 852.597 527.108 854.165 527.108C856.466 527.108 858.277 527.598 859.598 528.578C860.928 529.558 861.75 530.884 862.066 532.554ZM881.031 532.554L876.813 533.014C876.693 532.588 876.484 532.188 876.186 531.812C875.896 531.438 875.504 531.135 875.01 530.905C874.516 530.675 873.911 530.56 873.195 530.56C872.232 530.56 871.422 530.768 870.766 531.186C870.118 531.604 869.798 532.145 869.807 532.81C869.798 533.381 870.007 533.845 870.433 534.203C870.868 534.561 871.584 534.855 872.581 535.085L875.93 535.801C877.788 536.202 879.169 536.837 880.073 537.706C880.984 538.575 881.445 539.713 881.453 541.119C881.445 542.355 881.082 543.446 880.367 544.392C879.659 545.33 878.675 546.062 877.413 546.591C876.152 547.119 874.703 547.384 873.067 547.384C870.663 547.384 868.729 546.881 867.263 545.875C865.797 544.861 864.923 543.45 864.642 541.643L869.155 541.209C869.359 542.095 869.794 542.764 870.459 543.216C871.124 543.668 871.989 543.893 873.054 543.893C874.153 543.893 875.036 543.668 875.7 543.216C876.374 542.764 876.71 542.206 876.71 541.541C876.71 540.979 876.493 540.514 876.058 540.148C875.632 539.781 874.967 539.5 874.064 539.304L870.715 538.601C868.831 538.209 867.438 537.548 866.534 536.619C865.631 535.682 865.183 534.497 865.192 533.065C865.183 531.855 865.511 530.807 866.176 529.92C866.85 529.026 867.783 528.335 868.976 527.849C870.178 527.355 871.563 527.108 873.131 527.108C875.432 527.108 877.243 527.598 878.564 528.578C879.894 529.558 880.716 530.884 881.031 532.554ZM884.477 547V527.364H889.105V547H884.477ZM886.804 524.577C886.071 524.577 885.44 524.334 884.912 523.848C884.383 523.354 884.119 522.761 884.119 522.071C884.119 521.372 884.383 520.78 884.912 520.294C885.44 519.8 886.071 519.553 886.804 519.553C887.545 519.553 888.176 519.8 888.696 520.294C889.224 520.78 889.489 521.372 889.489 522.071C889.489 522.761 889.224 523.354 888.696 523.848C888.176 524.334 887.545 524.577 886.804 524.577ZM897.7 535.494V547H893.072V527.364H897.495V530.7H897.725C898.177 529.601 898.897 528.727 899.886 528.08C900.883 527.432 902.115 527.108 903.58 527.108C904.936 527.108 906.116 527.398 907.122 527.977C908.136 528.557 908.92 529.396 909.474 530.496C910.036 531.595 910.313 532.929 910.305 534.497V547H905.677V535.213C905.677 533.901 905.336 532.874 904.654 532.132C903.981 531.391 903.048 531.02 901.855 531.02C901.045 531.02 900.325 531.199 899.694 531.557C899.072 531.906 898.582 532.413 898.224 533.078C897.875 533.743 897.7 534.548 897.7 535.494ZM922.757 554.773C921.095 554.773 919.668 554.547 918.475 554.095C917.281 553.652 916.323 553.055 915.598 552.305C914.874 551.555 914.371 550.724 914.09 549.812L918.257 548.803C918.445 549.186 918.717 549.565 919.075 549.94C919.433 550.324 919.915 550.639 920.52 550.886C921.134 551.142 921.905 551.27 922.834 551.27C924.146 551.27 925.233 550.95 926.094 550.311C926.955 549.68 927.385 548.641 927.385 547.192V543.472H927.155C926.916 543.949 926.567 544.439 926.107 544.942C925.655 545.445 925.054 545.866 924.304 546.207C923.563 546.548 922.629 546.719 921.504 546.719C919.996 546.719 918.628 546.365 917.401 545.658C916.182 544.942 915.21 543.876 914.486 542.462C913.77 541.038 913.412 539.257 913.412 537.118C913.412 534.962 913.77 533.142 914.486 531.659C915.21 530.168 916.186 529.038 917.413 528.271C918.641 527.496 920.009 527.108 921.517 527.108C922.668 527.108 923.614 527.304 924.355 527.696C925.105 528.08 925.702 528.544 926.145 529.089C926.588 529.626 926.925 530.134 927.155 530.611H927.411V527.364H931.975V547.32C931.975 548.999 931.574 550.388 930.773 551.487C929.972 552.587 928.877 553.409 927.487 553.955C926.098 554.5 924.521 554.773 922.757 554.773ZM922.796 543.088C923.776 543.088 924.611 542.849 925.301 542.372C925.992 541.895 926.516 541.209 926.874 540.314C927.232 539.419 927.411 538.345 927.411 537.092C927.411 535.857 927.232 534.774 926.874 533.845C926.524 532.916 926.004 532.196 925.314 531.685C924.632 531.165 923.793 530.905 922.796 530.905C921.764 530.905 920.904 531.173 920.213 531.71C919.523 532.247 919.003 532.984 918.654 533.922C918.304 534.851 918.129 535.908 918.129 537.092C918.129 538.294 918.304 539.347 918.654 540.25C919.012 541.145 919.536 541.844 920.226 542.347C920.925 542.841 921.781 543.088 922.796 543.088ZM959.583 532.554L955.364 533.014C955.245 532.588 955.036 532.188 954.738 531.812C954.448 531.438 954.056 531.135 953.562 530.905C953.067 530.675 952.462 530.56 951.746 530.56C950.783 530.56 949.974 530.768 949.317 531.186C948.67 531.604 948.35 532.145 948.359 532.81C948.35 533.381 948.559 533.845 948.985 534.203C949.42 534.561 950.136 534.855 951.133 535.085L954.482 535.801C956.34 536.202 957.721 536.837 958.624 537.706C959.536 538.575 959.996 539.713 960.005 541.119C959.996 542.355 959.634 543.446 958.918 544.392C958.211 545.33 957.226 546.062 955.965 546.591C954.704 547.119 953.255 547.384 951.619 547.384C949.215 547.384 947.28 546.881 945.815 545.875C944.349 544.861 943.475 543.45 943.194 541.643L947.707 541.209C947.911 542.095 948.346 542.764 949.011 543.216C949.675 543.668 950.54 543.893 951.606 543.893C952.705 543.893 953.587 543.668 954.252 543.216C954.925 542.764 955.262 542.206 955.262 541.541C955.262 540.979 955.045 540.514 954.61 540.148C954.184 539.781 953.519 539.5 952.616 539.304L949.266 538.601C947.383 538.209 945.989 537.548 945.086 536.619C944.182 535.682 943.735 534.497 943.744 533.065C943.735 531.855 944.063 530.807 944.728 529.92C945.401 529.026 946.334 528.335 947.528 527.849C948.729 527.355 950.114 527.108 951.682 527.108C953.984 527.108 955.795 527.598 957.116 528.578C958.445 529.558 959.268 530.884 959.583 532.554ZM972.834 527.364V530.943H961.546V527.364H972.834ZM964.333 522.659H968.961V541.094C968.961 541.716 969.055 542.193 969.242 542.526C969.438 542.849 969.694 543.071 970.009 543.19C970.324 543.31 970.674 543.369 971.057 543.369C971.347 543.369 971.611 543.348 971.85 543.305C972.097 543.263 972.285 543.224 972.412 543.19L973.192 546.808C972.945 546.893 972.591 546.987 972.131 547.089C971.68 547.192 971.126 547.251 970.469 547.268C969.31 547.303 968.266 547.128 967.337 546.744C966.408 546.352 965.671 545.747 965.126 544.929C964.589 544.111 964.324 543.088 964.333 541.861V522.659ZM981.563 547.396C980.319 547.396 979.198 547.175 978.201 546.732C977.212 546.28 976.428 545.615 975.849 544.737C975.278 543.859 974.992 542.777 974.992 541.49C974.992 540.382 975.197 539.466 975.606 538.741C976.015 538.017 976.573 537.438 977.281 537.003C977.988 536.568 978.785 536.24 979.671 536.018C980.566 535.788 981.491 535.622 982.445 535.52C983.596 535.401 984.529 535.294 985.245 535.2C985.961 535.098 986.481 534.945 986.805 534.74C987.137 534.527 987.303 534.199 987.303 533.756V533.679C987.303 532.716 987.018 531.97 986.447 531.442C985.876 530.913 985.053 530.649 983.98 530.649C982.846 530.649 981.947 530.896 981.282 531.391C980.626 531.885 980.183 532.469 979.953 533.142L975.632 532.528C975.972 531.335 976.535 530.338 977.319 529.537C978.103 528.727 979.062 528.122 980.195 527.722C981.329 527.312 982.582 527.108 983.954 527.108C984.9 527.108 985.842 527.219 986.779 527.44C987.717 527.662 988.573 528.028 989.349 528.54C990.124 529.043 990.747 529.729 991.215 530.598C991.693 531.467 991.931 532.554 991.931 533.858V547H987.482V544.303H987.329C987.048 544.848 986.651 545.359 986.14 545.837C985.637 546.305 985.002 546.685 984.235 546.974C983.477 547.256 982.586 547.396 981.563 547.396ZM982.765 543.996C983.694 543.996 984.499 543.812 985.181 543.446C985.863 543.071 986.387 542.577 986.754 541.963C987.129 541.349 987.316 540.68 987.316 539.956V537.642C987.171 537.761 986.924 537.872 986.575 537.974C986.234 538.077 985.85 538.166 985.424 538.243C984.998 538.32 984.576 538.388 984.158 538.447C983.741 538.507 983.379 538.558 983.072 538.601C982.382 538.695 981.764 538.848 981.218 539.061C980.673 539.274 980.242 539.572 979.927 539.956C979.612 540.331 979.454 540.817 979.454 541.413C979.454 542.266 979.765 542.909 980.387 543.344C981.009 543.778 981.802 543.996 982.765 543.996ZM995.793 547V527.364H1000.28V530.636H1000.48C1000.84 529.503 1001.46 528.629 1002.33 528.016C1003.2 527.393 1004.2 527.082 1005.33 527.082C1005.59 527.082 1005.87 527.095 1006.19 527.121C1006.51 527.138 1006.78 527.168 1006.99 527.21V531.467C1006.8 531.399 1006.48 531.339 1006.06 531.288C1005.64 531.229 1005.24 531.199 1004.84 531.199C1004 531.199 1003.24 531.382 1002.57 531.749C1001.9 532.107 1001.38 532.605 1001 533.244C1000.61 533.884 1000.42 534.621 1000.42 535.456V547H995.793ZM1020.13 527.364V530.943H1008.85V527.364H1020.13ZM1011.63 522.659H1016.26V541.094C1016.26 541.716 1016.35 542.193 1016.54 542.526C1016.74 542.849 1016.99 543.071 1017.31 543.19C1017.62 543.31 1017.97 543.369 1018.36 543.369C1018.65 543.369 1018.91 543.348 1019.15 543.305C1019.4 543.263 1019.58 543.224 1019.71 543.19L1020.49 546.808C1020.24 546.893 1019.89 546.987 1019.43 547.089C1018.98 547.192 1018.43 547.251 1017.77 547.268C1016.61 547.303 1015.57 547.128 1014.64 546.744C1013.71 546.352 1012.97 545.747 1012.43 544.929C1011.89 544.111 1011.62 543.088 1011.63 541.861V522.659ZM1026.06 547.281C1025.29 547.281 1024.62 547.009 1024.07 546.463C1023.52 545.918 1023.24 545.253 1023.25 544.469C1023.24 543.702 1023.52 543.045 1024.07 542.5C1024.62 541.955 1025.29 541.682 1026.06 541.682C1026.81 541.682 1027.47 541.955 1028.02 542.5C1028.58 543.045 1028.87 543.702 1028.88 544.469C1028.87 544.989 1028.73 545.462 1028.47 545.888C1028.21 546.314 1027.87 546.655 1027.44 546.911C1027.03 547.158 1026.57 547.281 1026.06 547.281Z" fill="white"/>
</g>
</g>
<defs>
<filter id="filter0_d_479_232" x="-4" y="0" width="1411" height="525" filterUnits="userSpaceOnUse" color-interpolation-filters="sRGB">
<feFlood flood-opacity="0" result="BackgroundImageFix"/>
<feColorMatrix in="SourceAlpha" type="matrix" values="0 0 0 0 0 0 0 0 0 0 0 0 0 0 0 0 0 0 127 0" result="hardAlpha"/>
<feOffset dy="4"/>
<feGaussianBlur stdDeviation="2"/>
<feComposite in2="hardAlpha" operator="out"/>
<feColorMatrix type="matrix" values="0 0 0 0 0 0 0 0 0 0 0 0 0 0 0 0 0 0 0.25 0"/>
<feBlend mode="normal" in2="BackgroundImageFix" result="effect1_dropShadow_479_232"/>
<feBlend mode="normal" in="SourceGraphic" in2="effect1_dropShadow_479_232" result="shape"/>
</filter>
</defs>
</svg>
