<svg width="140" height="216" viewBox="0 0 140 216" fill="none" xmlns="http://www.w3.org/2000/svg">
<g id="boy">
<g id="blueBoy">
<path id="Vector" d="M107.812 65.1455L108.398 65.647L109.112 66.2769C109.586 66.7249 110.08 67.1693 110.541 67.6488C111.481 68.5949 112.389 69.6004 113.269 70.6204C115.021 72.7145 116.596 74.9304 117.979 77.247C119.133 79.0578 119.92 81.6945 120.585 84.3577C121.249 87.0209 121.784 89.8729 122.359 92.6153L126.932 92.812C127.444 89.8292 127.648 86.7955 127.54 83.7527C127.484 82.1836 127.322 80.6155 127.055 79.0577C126.906 78.2498 126.729 77.4323 126.489 76.5916C126.366 76.1647 126.214 75.7281 126.058 75.297C125.902 74.866 125.683 74.3633 125.522 74.0404C124.865 72.5629 124.115 71.1201 123.277 69.7199C122.454 68.3053 121.54 66.937 120.539 65.623C119.538 64.2909 118.447 63.0186 117.274 61.8145C116.683 61.2066 116.066 60.6133 115.411 60.0363C115.082 59.7432 114.756 59.4593 114.398 59.1714L113.829 58.7354L113.532 58.5098L113.149 58.2701L107.812 65.1455Z" fill="#FFB573"/>
</g>
<g id="Boy">
<path id="Vector_2" d="M126.688 89.2844L129.934 95.1481L121.07 98.1677C121.07 98.1677 118.71 93.4779 121.644 89.3961L126.688 89.2844Z" fill="#FFB573"/>
<path id="Vector_3" d="M126.059 102.187L125.381 102.205C124.453 102.225 123.545 101.942 122.808 101.403C122.071 100.864 121.548 100.101 121.326 99.2398L121.065 98.1762L129.935 95.1491L130.015 98.1717C130.035 98.6844 129.948 99.1957 129.759 99.676C129.57 100.156 129.284 100.596 128.916 100.97C128.548 101.343 128.106 101.643 127.615 101.852C127.125 102.061 126.595 102.175 126.059 102.187Z" fill="#FFB573"/>
<path id="Vector_4" d="M79.9087 207.016C80.9916 207.111 82.0447 207.016 82.4322 206.618C82.5325 206.504 82.5932 206.364 82.6057 206.216C82.6181 206.068 82.5818 205.92 82.5017 205.792C82.444 205.674 82.3613 205.568 82.2587 205.481C82.1561 205.395 82.0359 205.329 81.9057 205.289C80.5446 204.805 77.4548 206.153 77.3257 206.238C77.2865 206.253 77.2536 206.279 77.232 206.314C77.2104 206.348 77.2014 206.388 77.2064 206.428C77.2092 206.465 77.2241 206.501 77.249 206.53C77.274 206.559 77.3077 206.58 77.3455 206.589C78.1846 206.806 79.0426 206.949 79.9087 207.016ZM81.389 205.574C81.5179 205.583 81.6449 205.608 81.7665 205.65C81.8455 205.672 81.9189 205.71 81.9821 205.761C82.0453 205.811 82.097 205.874 82.1341 205.944C82.2534 206.2 82.1937 206.305 82.1341 206.371C81.697 206.855 79.571 206.684 78.0211 206.371C79.0779 205.896 80.2224 205.625 81.389 205.574Z" fill="#407BFF"/>
<path id="Vector_5" d="M77.3856 206.57H77.4751C78.5281 206.228 80.7039 204.672 80.6343 203.723C80.6343 203.504 80.4853 203.22 79.9488 203.125C79.7522 203.086 79.5494 203.087 79.3529 203.126C79.1564 203.165 78.9704 203.242 78.8063 203.353C77.6638 204.102 77.2267 206.2 77.2068 206.333C77.2024 206.366 77.2065 206.399 77.2186 206.431C77.2307 206.462 77.2505 206.49 77.2763 206.513C77.2896 206.529 77.3061 206.542 77.3249 206.552C77.3437 206.562 77.3643 206.568 77.3856 206.57ZM79.7501 203.495H79.8693C80.227 203.561 80.2369 203.704 80.2369 203.742C80.2369 204.302 78.7765 205.545 77.6936 206.048C77.8712 205.14 78.3399 204.308 79.0348 203.666C79.2435 203.528 79.4979 203.467 79.7501 203.495Z" fill="#407BFF"/>
<path id="Vector_6" d="M67.2207 209.911L75.6256 210.642L78.2285 192.107L69.8137 191.376L67.2207 209.911Z" fill="#FFB573"/>
<path id="Vector_7" d="M76.6 205.374L67.4201 204.577C67.2515 204.563 67.0829 204.604 66.942 204.694C66.8012 204.783 66.6965 204.916 66.6452 205.07L64.3106 212.065C64.2529 212.234 64.2361 212.413 64.2615 212.589C64.2868 212.766 64.3536 212.934 64.4569 213.082C64.5602 213.23 64.6972 213.354 64.8577 213.444C65.0182 213.534 65.1979 213.588 65.3835 213.602C68.7018 213.83 71.6127 213.906 75.7853 214.266C80.6534 214.684 79.3619 215.13 85.0645 215.709C88.5119 216.051 89.4954 212.359 88.0449 212.055C81.4383 210.67 80.9216 208.686 78.5671 206.171C78.0371 205.682 77.3363 205.398 76.6 205.374Z" fill="#263238"/>
<path id="Vector_8" opacity="0.2" d="M78.2288 192.106L76.7684 202.526L68.3535 201.805L69.8139 191.385L78.2288 192.106Z" fill="black"/>
<path id="Vector_9" d="M95.2075 105.51C96.4202 120.318 96.0474 135.207 94.0948 149.943C90.7268 175.339 80.8913 198.021 80.8913 198.021L66.8931 194.519C66.8931 194.519 70.1517 175.453 71.8605 150.36C73.7581 123.019 65.6016 102.909 65.6016 102.909L95.2075 105.51Z" fill="#263238"/>
<path id="Vector_10" opacity="0.3" d="M70.5302 116.328C77.882 118.53 75.0605 130.373 72.0999 138.317C71.8883 130.924 71.0007 123.563 69.4473 116.318L70.5302 116.328Z" fill="black"/>
<path id="Vector_11" d="M14.7854 183.205C15.3915 184.069 16.1068 184.809 16.7029 184.828C16.8597 184.827 17.0124 184.78 17.1403 184.694C17.2683 184.607 17.3653 184.485 17.4182 184.344C17.4729 184.224 17.5011 184.095 17.5011 183.965C17.5011 183.834 17.4729 183.705 17.4182 183.585C16.9413 182.275 13.8913 180.852 13.7622 180.795C13.7287 180.772 13.6888 180.76 13.6479 180.76C13.607 180.76 13.5671 180.772 13.5337 180.795C13.5046 180.823 13.4845 180.858 13.4757 180.897C13.4669 180.936 13.4698 180.976 13.484 181.013C13.8455 181.781 14.2812 182.515 14.7854 183.205ZM16.8917 183.386C16.9665 183.485 17.0267 183.593 17.0705 183.708C17.103 183.782 17.1197 183.861 17.1197 183.941C17.1197 184.021 17.103 184.1 17.0705 184.173C16.9413 184.42 16.8122 184.449 16.7228 184.439C16.0571 184.439 14.8451 182.75 14.1397 181.393C15.1847 181.883 16.1195 182.563 16.8917 183.395V183.386Z" fill="#407BFF"/>
<path id="Vector_12" d="M13.5031 181.069L13.5628 181.126C14.5562 181.686 17.1691 182.294 17.8646 181.658C18.0334 181.506 18.1725 181.231 17.8646 180.766C17.7718 180.597 17.6437 180.448 17.4881 180.329C17.3325 180.21 17.1529 180.123 16.9605 180.073C15.6292 179.703 13.6224 180.747 13.5329 180.794C13.5038 180.811 13.4795 180.835 13.4622 180.863C13.4449 180.891 13.4351 180.923 13.4336 180.955C13.4426 181 13.4671 181.04 13.5031 181.069ZM17.4771 180.851L17.5367 180.946C17.7056 181.25 17.6062 181.345 17.5367 181.383C17.1095 181.762 15.1523 181.449 14.0496 180.965C14.8993 180.524 15.87 180.342 16.8313 180.443C17.1085 180.491 17.3568 180.637 17.5268 180.851H17.4771Z" fill="#407BFF"/>
<path id="Vector_13" d="M4.37305 175.698L9.13186 182.36L25.7529 172.49L20.9941 165.828L4.37305 175.698Z" fill="#FFB573"/>
<path id="Vector_14" d="M14 179.732L8.80411 172.453C8.70962 172.32 8.57031 172.222 8.4094 172.176C8.2485 172.129 8.07574 172.137 7.91991 172.197L0.776733 174.93C0.604316 174.996 0.449604 175.097 0.324164 175.228C0.198725 175.359 0.105803 175.515 0.0523105 175.684C-0.00118158 175.854 -0.0138573 176.033 0.0152458 176.208C0.0443488 176.383 0.114478 176.55 0.220383 176.695C2.14775 179.286 5.01892 182.978 7.37349 186.271C10.1354 190.134 8.10867 187.751 11.3474 192.278C13.3344 195.011 16.7421 193.882 16.1857 192.563C13.6523 186.575 14.0795 184.971 14.6061 181.687C14.6695 180.986 14.453 180.287 14 179.732Z" fill="#263238"/>
<path id="Vector_15" opacity="0.2" d="M25.7522 172.49L16.4035 178.042L11.6348 171.38L20.9835 165.828L25.7522 172.49Z" fill="black"/>
<path id="Vector_16" d="M79.2528 104.123C79.2528 104.123 73.0633 127.848 61.3104 148.613C48.4447 171.39 22.4949 178.602 22.4949 178.602L14.4277 166.92C14.4277 166.92 31.4561 154.763 39.9008 140.784C47.6798 114.533 50.2628 101.617 50.2628 101.617L79.2528 104.123Z" fill="#263238"/>
<path id="Vector_17" d="M26.3389 178.65C26.3389 178.707 20.8449 180.927 20.8449 180.927L11.834 166.692L16.1159 163.684L26.3389 178.65Z" fill="#407BFF"/>
<path id="Vector_18" d="M83.6048 195.609C83.6743 195.609 81.9457 201.113 81.9457 201.113L64.7285 198.712L65.0265 193.635L83.6048 195.609Z" fill="#407BFF"/>
<path id="Vector_19" d="M101.069 53.4258C101.536 61.018 102.718 79.0495 96.8463 107.852L47.2812 104.36C47.5694 98.2673 55.8948 77.6734 53.878 50.2656C53.7984 49.2712 53.9296 48.2718 54.2639 47.3271C54.5981 46.3824 55.1285 45.5118 55.8233 44.7675C56.518 44.0232 57.3629 43.4205 58.3073 42.9954C59.2516 42.5704 60.276 42.3317 61.3192 42.2937C63.5347 42.2178 65.9886 42.1988 68.3929 42.2937C74.7877 42.4776 81.1663 43.01 87.4976 43.8881C89.9317 44.3152 92.2962 44.8846 94.3229 45.435C96.1799 45.9274 97.829 46.9628 99.0387 48.3959C100.249 49.8289 100.958 51.5878 101.069 53.4258Z" fill="#407BFF"/>
<path id="Vector_20" opacity="0.3" d="M54.138 61.5498C54.0287 66.1811 53.681 70.5466 53.1445 74.6084C58.4696 69.5216 59.1055 61.5498 59.1055 61.5498H54.138Z" fill="black"/>
<path id="Vector_21" d="M73.5512 28.5616C73.5512 34.2558 72.5577 40.7092 68.9414 43.2336C68.9414 43.2336 73.0843 51.1485 85.0955 51.1579C93.8283 51.1579 89.1788 45.3214 89.1788 45.3214C83.506 42.37 83.8934 38.2227 85.6817 33.8002L77.2172 26.6825C75.8164 25.3444 73.5512 26.4833 73.5512 28.5616Z" fill="#FFB573"/>
<path id="Vector_22" opacity="0.2" d="M73.5489 28.5614C73.5489 26.483 75.8041 25.3442 77.2149 26.6633L85.6794 33.7715C84.7571 35.701 84.3869 37.8295 84.6064 39.9402C82.6165 40.0101 80.6388 39.616 78.8442 38.7919C76.5086 37.7851 74.5428 36.1322 73.2012 34.0468C73.4398 32.2273 73.556 30.3951 73.5489 28.5614Z" fill="black"/>
<path id="Vector_23" d="M63.7621 21.6435C66.7425 29.1693 68.0539 33.7341 73.8758 36.3534C82.6284 40.2919 92.6825 33.5063 92.4043 25.2498C92.1559 17.781 86.7116 6.11743 76.886 5.62394C67.0604 5.13044 60.7617 14.1272 63.7621 21.6435Z" fill="#FFB573"/>
<path id="Vector_24" d="M58.4082 20.163C58.895 24.0351 65.2136 27.2523 65.2136 27.2523L71.4825 26.7208C71.4825 26.7208 67.3893 22.9247 68.502 17.9328C69.6147 12.9409 59.0242 13.5199 58.4082 20.163Z" fill="#263238"/>
<path id="Vector_25" d="M60.8927 4.56049C53.829 9.73269 56.72 16.2145 55.041 21.2634C59.8694 22.7249 67.7875 18.663 71.3243 16.8789C71.9601 16.5657 72.6059 16.2905 73.202 15.9298C74.1259 15.3889 73.9669 11.8585 73.9669 11.8585C73.9669 11.8585 75.1691 14.2121 75.0797 14.9713C80.4544 12.2191 85.1139 9.59983 86.2663 7.50248C84.8158 1.41922 72.9635 -4.28443 60.8927 4.56049Z" fill="#263238"/>
<path id="Vector_26" d="M85.7896 24.7554C84.8558 25.2628 83.8084 25.549 82.735 25.5903C81.6617 25.6316 80.5935 25.4267 79.62 24.9927C79.5646 24.9627 79.5233 24.9134 79.5048 24.8551C79.4863 24.7968 79.492 24.7339 79.5207 24.6795C79.5519 24.6288 79.6024 24.5917 79.6617 24.5757C79.7209 24.5598 79.7843 24.5664 79.8386 24.5941C80.7448 24.9872 81.7353 25.1705 82.7296 25.1293C83.7239 25.0881 84.694 24.8234 85.5611 24.3569C85.616 24.3327 85.6783 24.3293 85.7357 24.3474C85.793 24.3655 85.8411 24.4037 85.8701 24.4543C85.8991 24.5049 85.9069 24.5641 85.892 24.62C85.877 24.6759 85.8405 24.7243 85.7896 24.7554Z" fill="#263238"/>
<path id="Vector_27" d="M79.2223 18.6919C79.5799 19.3183 80.2158 19.6409 80.633 19.4227C81.0503 19.2044 81.1198 18.4736 80.7721 17.8947C80.4244 17.3158 79.7786 16.9457 79.3514 17.164C78.9242 17.3823 78.8646 18.0656 79.2223 18.6919Z" fill="#263238"/>
<path id="Vector_28" d="M86.553 15.5413C86.9107 16.1676 87.5465 16.4903 87.9638 16.272C88.3811 16.0537 88.4506 15.323 88.0929 14.7346C87.7353 14.1462 87.0995 13.7856 86.6822 14.0133C86.2649 14.2411 86.1954 14.9149 86.553 15.5413Z" fill="#263238"/>
<path id="Vector_29" d="M76.0918 19.4132C76.1586 19.368 76.2108 19.3058 76.2424 19.2336C76.274 19.1615 76.2838 19.0823 76.2706 19.0051C76.1808 18.4961 76.2157 17.9741 76.3725 17.4801C76.5294 16.9861 76.804 16.5336 77.1747 16.158C77.256 16.0798 77.3016 15.974 77.3016 15.8638C77.3016 15.7536 77.256 15.6478 77.1747 15.5696C77.1348 15.53 77.087 15.4985 77.0341 15.4769C76.9811 15.4554 76.9242 15.4443 76.8667 15.4443C76.8092 15.4443 76.7523 15.4554 76.6994 15.4769C76.6464 15.4985 76.5986 15.53 76.5587 15.5696C76.0729 16.0418 75.7122 16.6179 75.5065 17.2501C75.3009 17.8824 75.2563 18.5524 75.3765 19.2044C75.396 19.3127 75.4586 19.4097 75.5511 19.4751C75.6436 19.5405 75.759 19.5693 75.8732 19.5555C75.9589 19.5292 76.0348 19.4798 76.0918 19.4132Z" fill="#263238"/>
<path id="Vector_30" d="M89.2764 11.2523C89.3197 11.2377 89.3595 11.2152 89.3936 11.1858C89.4277 11.1565 89.4554 11.121 89.4751 11.0815C89.5059 11.0355 89.5267 10.9842 89.5363 10.9305C89.546 10.8768 89.5443 10.8218 89.5313 10.7687C89.5184 10.7156 89.4944 10.6656 89.4608 10.6215C89.4273 10.5774 89.3848 10.5402 89.336 10.512C88.7519 10.1527 88.0858 9.93317 87.394 9.87204C86.7022 9.81092 86.0052 9.91001 85.362 10.1609C85.3027 10.1788 85.248 10.2086 85.2017 10.2484C85.1554 10.2881 85.1185 10.3369 85.0935 10.3913C85.0684 10.4458 85.0559 10.5047 85.0567 10.5642C85.0574 10.6237 85.0715 10.6823 85.0979 10.7362C85.1243 10.79 85.1625 10.8379 85.2098 10.8765C85.2571 10.9152 85.3126 10.9437 85.3724 10.9602C85.4322 10.9767 85.495 10.9808 85.5566 10.9723C85.6182 10.9637 85.6772 10.9427 85.7297 10.9106C86.2419 10.7233 86.7931 10.6541 87.3386 10.7085C87.8841 10.7629 88.4084 10.9395 88.8691 11.2238C88.9294 11.2599 88.998 11.2813 89.069 11.2863C89.14 11.2912 89.2112 11.2796 89.2764 11.2523Z" fill="#263238"/>
<path id="Vector_31" d="M85.0938 16.8779C86.5975 18.2637 88.2961 19.4423 90.1407 20.3798C89.872 20.8173 89.5073 21.194 89.0717 21.484C88.6361 21.7739 88.1399 21.9703 87.6172 22.0596L85.0938 16.8779Z" fill="#ED893E"/>
<path id="Vector_32" d="M64.259 29.4445C65.568 30.5348 67.2624 31.1082 68.998 31.0483C71.1439 30.906 71.1538 28.7232 69.6636 27.0055C68.3323 25.4586 65.6102 23.6649 63.8815 24.6614C62.1528 25.6579 62.5403 28.0494 64.259 29.4445Z" fill="#FFB573"/>
<path id="Vector_33" d="M60.8626 57.1753L58.816 59.415L56.7198 61.7686C55.319 63.3439 53.9479 64.9478 52.5769 66.5137C49.8482 69.753 47.1989 73.0556 44.629 76.4215L44.3906 76.7347L44.331 76.8106C44.331 76.8106 44.331 76.8106 44.331 76.7632C44.3718 76.6522 44.4018 76.5378 44.4204 76.4215C44.4996 76.0786 44.4824 75.7217 44.3707 75.3871C44.1323 74.8461 44.0727 75.1973 44.4502 75.6148C44.9346 76.184 45.4808 76.7026 46.0795 77.1618C46.8234 77.7392 47.5995 78.2778 48.4043 78.7751C52.0333 80.9356 55.7882 82.8969 59.6506 84.6496L57.9318 90.4766C55.5605 90.1829 53.2112 89.7454 50.898 89.1669C48.529 88.5926 46.2051 87.8601 43.9436 86.9747C42.7347 86.4952 41.5569 85.9469 40.4167 85.3329C39.0999 84.6405 37.8728 83.8028 36.7606 82.837C36.0663 82.2262 35.4433 81.5452 34.9028 80.806C34.1915 79.8388 33.6729 78.7546 33.3728 77.6078C33.0334 76.2095 33.0573 74.7531 33.4424 73.3657C33.6283 72.7322 33.8813 72.1185 34.1974 71.534L34.5948 70.8412L34.8134 70.4711C35.9758 68.5256 37.1779 66.5991 38.4694 64.72C39.761 62.841 41.0624 60.9904 42.4434 59.1777C43.8243 57.3651 45.2549 55.5904 46.7551 53.8537C47.5002 52.9901 48.2553 52.1264 49.0501 51.2818C49.8449 50.4372 50.6098 49.6305 51.5437 48.71L60.8626 57.1753Z" fill="#FFB573"/>
<path id="Vector_34" d="M54.4439 84.3059L61.3089 83.2715L61.4281 92.2683C61.4281 92.2683 56.0136 92.8756 52.9238 88.8992L54.4439 84.3059Z" fill="#FFB573"/>
<path id="Vector_35" d="M67.0808 87.8173L65.5508 91.044C65.3299 91.5117 64.958 91.8995 64.4896 92.1506C64.0211 92.4016 63.4808 92.5027 62.9478 92.4391L61.4278 92.2683L61.3086 83.2715L65.521 84.5147C65.8634 84.6163 66.1793 84.7861 66.4479 85.0129C66.7165 85.2398 66.9316 85.5185 67.079 85.8307C67.2264 86.1428 67.3028 86.4813 67.3031 86.8238C67.3034 87.1663 67.2276 87.5049 67.0808 87.8173Z" fill="#FFB573"/>
<path id="Vector_36" d="M58.7443 41.7568C48.0445 41.7568 37.752 58.0611 37.752 58.0611L48.3127 74.3654C48.3127 74.3654 55.2174 67.1148 61.8341 59.3992C68.3017 51.845 67.5268 41.7568 58.7443 41.7568Z" fill="#407BFF"/>
<path id="Vector_37" d="M90.3392 55.7673C90.6858 65.9817 109.334 70.3522 109.334 70.3522L120.627 58.8425C120.627 58.8425 119.139 54.3226 102.828 45.5521C90.9062 44.129 88.4231 46.9761 90.3392 55.7673Z" fill="#407BFF"/>
</g>
</g>
</svg>
