<svg width="900" height="264" viewBox="0 0 900 264" fill="none" xmlns="http://www.w3.org/2000/svg">
<g id="Btn-Continue">
<rect width="899.891" height="263.887" rx="33" fill="#5353B1"/>
<path id="Press start to continue." d="M258.528 144.943V118.762H268.346C270.357 118.762 272.045 119.137 273.408 119.887C274.781 120.637 275.816 121.668 276.515 122.98C277.222 124.284 277.576 125.767 277.576 127.429C277.576 129.108 277.222 130.6 276.515 131.904C275.808 133.208 274.763 134.235 273.383 134.985C272.002 135.726 270.302 136.097 268.282 136.097H261.775V132.198H267.643C268.819 132.198 269.782 131.993 270.532 131.584C271.282 131.175 271.836 130.612 272.194 129.896C272.56 129.181 272.744 128.358 272.744 127.429C272.744 126.5 272.56 125.682 272.194 124.975C271.836 124.267 271.278 123.718 270.519 123.325C269.769 122.925 268.802 122.725 267.617 122.725H263.271V144.943H258.528ZM280.699 144.943V125.307H285.186V128.58H285.391C285.749 127.446 286.362 126.573 287.232 125.959C288.11 125.337 289.111 125.026 290.236 125.026C290.492 125.026 290.777 125.039 291.093 125.064C291.416 125.081 291.685 125.111 291.898 125.154V129.411C291.702 129.343 291.391 129.283 290.965 129.232C290.547 129.172 290.142 129.142 289.75 129.142C288.907 129.142 288.148 129.325 287.475 129.692C286.81 130.05 286.286 130.548 285.902 131.188C285.519 131.827 285.327 132.564 285.327 133.399V144.943H280.699ZM302.065 145.327C300.096 145.327 298.396 144.918 296.964 144.1C295.541 143.273 294.446 142.105 293.679 140.597C292.912 139.08 292.528 137.294 292.528 135.24C292.528 133.22 292.912 131.448 293.679 129.922C294.454 128.388 295.537 127.195 296.926 126.343C298.315 125.482 299.947 125.051 301.822 125.051C303.032 125.051 304.175 125.247 305.248 125.639C306.331 126.023 307.285 126.619 308.112 127.429C308.947 128.239 309.604 129.27 310.081 130.523C310.558 131.767 310.797 133.25 310.797 134.972V136.391H294.702V133.271H306.361C306.352 132.385 306.16 131.597 305.785 130.906C305.41 130.208 304.886 129.658 304.213 129.257C303.548 128.857 302.773 128.656 301.886 128.656C300.94 128.656 300.109 128.887 299.393 129.347C298.677 129.798 298.119 130.395 297.719 131.137C297.327 131.869 297.126 132.675 297.118 133.553V136.276C297.118 137.418 297.327 138.398 297.744 139.216C298.162 140.026 298.746 140.648 299.496 141.083C300.246 141.509 301.123 141.722 302.129 141.722C302.802 141.722 303.412 141.628 303.957 141.441C304.503 141.244 304.976 140.959 305.376 140.584C305.777 140.209 306.079 139.744 306.284 139.191L310.605 139.676C310.332 140.818 309.812 141.816 309.045 142.668C308.287 143.512 307.315 144.168 306.13 144.637C304.946 145.097 303.591 145.327 302.065 145.327ZM329.44 130.497L325.221 130.958C325.102 130.531 324.893 130.131 324.595 129.756C324.305 129.381 323.913 129.078 323.418 128.848C322.924 128.618 322.319 128.503 321.603 128.503C320.64 128.503 319.83 128.712 319.174 129.129C318.526 129.547 318.207 130.088 318.215 130.753C318.207 131.324 318.416 131.789 318.842 132.146C319.276 132.504 319.992 132.798 320.989 133.029L324.339 133.744C326.197 134.145 327.577 134.78 328.481 135.649C329.393 136.519 329.853 137.656 329.862 139.063C329.853 140.298 329.491 141.389 328.775 142.335C328.068 143.273 327.083 144.006 325.822 144.534C324.56 145.063 323.112 145.327 321.475 145.327C319.072 145.327 317.137 144.824 315.671 143.818C314.205 142.804 313.332 141.394 313.05 139.587L317.563 139.152C317.768 140.039 318.202 140.708 318.867 141.159C319.532 141.611 320.397 141.837 321.462 141.837C322.562 141.837 323.444 141.611 324.109 141.159C324.782 140.708 325.119 140.149 325.119 139.485C325.119 138.922 324.901 138.458 324.467 138.091C324.041 137.725 323.376 137.443 322.472 137.247L319.123 136.544C317.239 136.152 315.846 135.492 314.943 134.563C314.039 133.625 313.592 132.441 313.6 131.009C313.592 129.798 313.92 128.75 314.585 127.864C315.258 126.969 316.191 126.279 317.384 125.793C318.586 125.298 319.971 125.051 321.539 125.051C323.84 125.051 325.651 125.541 326.972 126.521C328.302 127.502 329.124 128.827 329.44 130.497ZM348.406 130.497L344.187 130.958C344.067 130.531 343.859 130.131 343.56 129.756C343.271 129.381 342.879 129.078 342.384 128.848C341.89 128.618 341.285 128.503 340.569 128.503C339.606 128.503 338.796 128.712 338.14 129.129C337.492 129.547 337.173 130.088 337.181 130.753C337.173 131.324 337.381 131.789 337.807 132.146C338.242 132.504 338.958 132.798 339.955 133.029L343.305 133.744C345.163 134.145 346.543 134.78 347.447 135.649C348.359 136.519 348.819 137.656 348.827 139.063C348.819 140.298 348.457 141.389 347.741 142.335C347.033 143.273 346.049 144.006 344.788 144.534C343.526 145.063 342.077 145.327 340.441 145.327C338.038 145.327 336.103 144.824 334.637 143.818C333.171 142.804 332.298 141.394 332.016 139.587L336.529 139.152C336.734 140.039 337.168 140.708 337.833 141.159C338.498 141.611 339.363 141.837 340.428 141.837C341.528 141.837 342.41 141.611 343.075 141.159C343.748 140.708 344.084 140.149 344.084 139.485C344.084 138.922 343.867 138.458 343.432 138.091C343.006 137.725 342.342 137.443 341.438 137.247L338.089 136.544C336.205 136.152 334.812 135.492 333.908 134.563C333.005 133.625 332.557 132.441 332.566 131.009C332.557 129.798 332.886 128.75 333.55 127.864C334.224 126.969 335.157 126.279 336.35 125.793C337.552 125.298 338.937 125.051 340.505 125.051C342.806 125.051 344.617 125.541 345.938 126.521C347.268 127.502 348.09 128.827 348.406 130.497ZM375.509 130.497L371.29 130.958C371.171 130.531 370.962 130.131 370.664 129.756C370.374 129.381 369.982 129.078 369.488 128.848C368.993 128.618 368.388 128.503 367.672 128.503C366.709 128.503 365.9 128.712 365.243 129.129C364.596 129.547 364.276 130.088 364.285 130.753C364.276 131.324 364.485 131.789 364.911 132.146C365.346 132.504 366.062 132.798 367.059 133.029L370.408 133.744C372.266 134.145 373.647 134.78 374.55 135.649C375.462 136.519 375.922 137.656 375.931 139.063C375.922 140.298 375.56 141.389 374.844 142.335C374.137 143.273 373.152 144.006 371.891 144.534C370.63 145.063 369.181 145.327 367.545 145.327C365.141 145.327 363.206 144.824 361.741 143.818C360.275 142.804 359.401 141.394 359.12 139.587L363.633 139.152C363.837 140.039 364.272 140.708 364.937 141.159C365.601 141.611 366.466 141.837 367.532 141.837C368.631 141.837 369.513 141.611 370.178 141.159C370.851 140.708 371.188 140.149 371.188 139.485C371.188 138.922 370.971 138.458 370.536 138.091C370.11 137.725 369.445 137.443 368.542 137.247L365.192 136.544C363.309 136.152 361.915 135.492 361.012 134.563C360.108 133.625 359.661 132.441 359.67 131.009C359.661 129.798 359.989 128.75 360.654 127.864C361.327 126.969 362.26 126.279 363.454 125.793C364.655 125.298 366.04 125.051 367.608 125.051C369.91 125.051 371.721 125.541 373.042 126.521C374.371 127.502 375.194 128.827 375.509 130.497ZM388.76 125.307V128.887H377.472V125.307H388.76ZM380.259 120.602H384.887V139.037C384.887 139.659 384.981 140.137 385.168 140.469C385.364 140.793 385.62 141.014 385.935 141.134C386.25 141.253 386.6 141.313 386.983 141.313C387.273 141.313 387.537 141.291 387.776 141.249C388.023 141.206 388.211 141.168 388.338 141.134L389.118 144.752C388.871 144.837 388.517 144.931 388.057 145.033C387.606 145.135 387.052 145.195 386.395 145.212C385.236 145.246 384.192 145.071 383.263 144.688C382.334 144.296 381.597 143.691 381.052 142.872C380.515 142.054 380.25 141.031 380.259 139.804V120.602ZM397.489 145.34C396.245 145.34 395.124 145.118 394.127 144.675C393.138 144.223 392.354 143.558 391.775 142.681C391.204 141.803 390.918 140.72 390.918 139.433C390.918 138.325 391.123 137.409 391.532 136.685C391.941 135.96 392.499 135.381 393.207 134.946C393.914 134.512 394.711 134.183 395.597 133.962C396.492 133.732 397.417 133.566 398.371 133.463C399.522 133.344 400.455 133.237 401.171 133.144C401.887 133.041 402.407 132.888 402.731 132.683C403.063 132.47 403.229 132.142 403.229 131.699V131.622C403.229 130.659 402.944 129.914 402.373 129.385C401.802 128.857 400.979 128.593 399.905 128.593C398.772 128.593 397.873 128.84 397.208 129.334C396.552 129.828 396.109 130.412 395.878 131.085L391.557 130.472C391.898 129.279 392.461 128.281 393.245 127.48C394.029 126.671 394.988 126.066 396.121 125.665C397.255 125.256 398.508 125.051 399.88 125.051C400.826 125.051 401.768 125.162 402.705 125.384C403.643 125.605 404.499 125.972 405.275 126.483C406.05 126.986 406.673 127.672 407.141 128.541C407.619 129.411 407.857 130.497 407.857 131.801V144.943H403.408V142.246H403.255C402.974 142.791 402.577 143.303 402.066 143.78C401.563 144.249 400.928 144.628 400.161 144.918C399.403 145.199 398.512 145.34 397.489 145.34ZM398.691 141.939C399.62 141.939 400.425 141.756 401.107 141.389C401.789 141.014 402.313 140.52 402.68 139.906C403.055 139.293 403.242 138.624 403.242 137.899V135.585C403.097 135.705 402.85 135.816 402.501 135.918C402.16 136.02 401.776 136.11 401.35 136.186C400.924 136.263 400.502 136.331 400.084 136.391C399.667 136.45 399.305 136.502 398.998 136.544C398.307 136.638 397.69 136.791 397.144 137.004C396.599 137.218 396.168 137.516 395.853 137.899C395.538 138.274 395.38 138.76 395.38 139.357C395.38 140.209 395.691 140.852 396.313 141.287C396.935 141.722 397.728 141.939 398.691 141.939ZM411.719 144.943V125.307H416.206V128.58H416.41C416.768 127.446 417.382 126.573 418.251 125.959C419.129 125.337 420.131 125.026 421.256 125.026C421.511 125.026 421.797 125.039 422.112 125.064C422.436 125.081 422.704 125.111 422.917 125.154V129.411C422.721 129.343 422.41 129.283 421.984 129.232C421.567 129.172 421.162 129.142 420.77 129.142C419.926 129.142 419.167 129.325 418.494 129.692C417.829 130.05 417.305 130.548 416.922 131.188C416.538 131.827 416.346 132.564 416.346 133.399V144.943H411.719ZM436.06 125.307V128.887H424.772V125.307H436.06ZM427.559 120.602H432.187V139.037C432.187 139.659 432.28 140.137 432.468 140.469C432.664 140.793 432.919 141.014 433.235 141.134C433.55 141.253 433.9 141.313 434.283 141.313C434.573 141.313 434.837 141.291 435.076 141.249C435.323 141.206 435.51 141.168 435.638 141.134L436.418 144.752C436.171 144.837 435.817 144.931 435.357 145.033C434.905 145.135 434.351 145.195 433.695 145.212C432.536 145.246 431.492 145.071 430.563 144.688C429.634 144.296 428.897 143.691 428.351 142.872C427.814 142.054 427.55 141.031 427.559 139.804V120.602ZM457.082 125.307V128.887H445.793V125.307H457.082ZM448.58 120.602H453.208V139.037C453.208 139.659 453.302 140.137 453.489 140.469C453.685 140.793 453.941 141.014 454.256 141.134C454.572 141.253 454.921 141.313 455.305 141.313C455.594 141.313 455.859 141.291 456.097 141.249C456.344 141.206 456.532 141.168 456.66 141.134L457.44 144.752C457.192 144.837 456.839 144.931 456.378 145.033C455.927 145.135 455.373 145.195 454.717 145.212C453.557 145.246 452.513 145.071 451.584 144.688C450.655 144.296 449.918 143.691 449.373 142.872C448.836 142.054 448.572 141.031 448.58 139.804V120.602ZM468.514 145.327C466.597 145.327 464.935 144.905 463.529 144.061C462.122 143.218 461.031 142.037 460.256 140.52C459.489 139.003 459.105 137.23 459.105 135.202C459.105 133.173 459.489 131.396 460.256 129.871C461.031 128.345 462.122 127.161 463.529 126.317C464.935 125.473 466.597 125.051 468.514 125.051C470.432 125.051 472.094 125.473 473.5 126.317C474.906 127.161 475.993 128.345 476.76 129.871C477.536 131.396 477.923 133.173 477.923 135.202C477.923 137.23 477.536 139.003 476.76 140.52C475.993 142.037 474.906 143.218 473.5 144.061C472.094 144.905 470.432 145.327 468.514 145.327ZM468.54 141.619C469.58 141.619 470.449 141.334 471.148 140.763C471.847 140.183 472.367 139.408 472.708 138.436C473.057 137.465 473.232 136.382 473.232 135.189C473.232 133.987 473.057 132.901 472.708 131.929C472.367 130.949 471.847 130.169 471.148 129.59C470.449 129.01 469.58 128.72 468.54 128.72C467.475 128.72 466.588 129.01 465.881 129.59C465.182 130.169 464.658 130.949 464.308 131.929C463.967 132.901 463.797 133.987 463.797 135.189C463.797 136.382 463.967 137.465 464.308 138.436C464.658 139.408 465.182 140.183 465.881 140.763C466.588 141.334 467.475 141.619 468.54 141.619ZM497.762 145.327C495.802 145.327 494.119 144.896 492.713 144.036C491.315 143.175 490.237 141.986 489.478 140.469C488.728 138.943 488.353 137.188 488.353 135.202C488.353 133.208 488.737 131.448 489.504 129.922C490.271 128.388 491.353 127.195 492.751 126.343C494.157 125.482 495.819 125.051 497.737 125.051C499.331 125.051 500.741 125.345 501.968 125.933C503.204 126.513 504.189 127.335 504.921 128.401C505.654 129.458 506.072 130.693 506.174 132.108H501.751C501.572 131.162 501.146 130.374 500.473 129.743C499.808 129.104 498.917 128.784 497.801 128.784C496.855 128.784 496.024 129.04 495.308 129.551C494.592 130.054 494.034 130.779 493.633 131.725C493.241 132.671 493.045 133.804 493.045 135.125C493.045 136.463 493.241 137.614 493.633 138.577C494.025 139.531 494.575 140.269 495.282 140.789C495.998 141.3 496.838 141.556 497.801 141.556C498.483 141.556 499.092 141.428 499.629 141.172C500.174 140.908 500.63 140.529 500.997 140.034C501.363 139.54 501.615 138.939 501.751 138.232H506.174C506.064 139.621 505.654 140.852 504.947 141.926C504.24 142.992 503.277 143.827 502.058 144.432C500.839 145.029 499.407 145.327 497.762 145.327ZM517.748 145.327C515.83 145.327 514.168 144.905 512.762 144.061C511.356 143.218 510.265 142.037 509.489 140.52C508.722 139.003 508.339 137.23 508.339 135.202C508.339 133.173 508.722 131.396 509.489 129.871C510.265 128.345 511.356 127.161 512.762 126.317C514.168 125.473 515.83 125.051 517.748 125.051C519.665 125.051 521.327 125.473 522.734 126.317C524.14 127.161 525.226 128.345 525.993 129.871C526.769 131.396 527.157 133.173 527.157 135.202C527.157 137.23 526.769 139.003 525.993 140.52C525.226 142.037 524.14 143.218 522.734 144.061C521.327 144.905 519.665 145.327 517.748 145.327ZM517.773 141.619C518.813 141.619 519.682 141.334 520.381 140.763C521.08 140.183 521.6 139.408 521.941 138.436C522.29 137.465 522.465 136.382 522.465 135.189C522.465 133.987 522.29 132.901 521.941 131.929C521.6 130.949 521.08 130.169 520.381 129.59C519.682 129.01 518.813 128.72 517.773 128.72C516.708 128.72 515.822 129.01 515.114 129.59C514.415 130.169 513.891 130.949 513.542 131.929C513.201 132.901 513.03 133.987 513.03 135.189C513.03 136.382 513.201 137.465 513.542 138.436C513.891 139.408 514.415 140.183 515.114 140.763C515.822 141.334 516.708 141.619 517.773 141.619ZM534.921 133.438V144.943H530.293V125.307H534.716V128.644H534.946C535.398 127.544 536.118 126.671 537.107 126.023C538.104 125.375 539.335 125.051 540.801 125.051C542.156 125.051 543.337 125.341 544.342 125.921C545.357 126.5 546.141 127.34 546.695 128.439C547.257 129.539 547.534 130.872 547.526 132.441V144.943H542.898V133.156C542.898 131.844 542.557 130.817 541.875 130.075C541.202 129.334 540.269 128.963 539.075 128.963C538.266 128.963 537.546 129.142 536.915 129.5C536.293 129.85 535.803 130.357 535.445 131.021C535.095 131.686 534.921 132.492 534.921 133.438ZM561.244 125.307V128.887H549.955V125.307H561.244ZM552.742 120.602H557.37V139.037C557.37 139.659 557.464 140.137 557.651 140.469C557.847 140.793 558.103 141.014 558.418 141.134C558.734 141.253 559.083 141.313 559.467 141.313C559.756 141.313 560.021 141.291 560.259 141.249C560.506 141.206 560.694 141.168 560.822 141.134L561.602 144.752C561.354 144.837 561.001 144.931 560.541 145.033C560.089 145.135 559.535 145.195 558.879 145.212C557.719 145.246 556.675 145.071 555.746 144.688C554.817 144.296 554.08 143.691 553.535 142.872C552.998 142.054 552.734 141.031 552.742 139.804V120.602ZM564.322 144.943V125.307H568.95V144.943H564.322ZM566.649 122.52C565.916 122.52 565.285 122.277 564.757 121.791C564.228 121.297 563.964 120.705 563.964 120.014C563.964 119.316 564.228 118.723 564.757 118.237C565.285 117.743 565.916 117.496 566.649 117.496C567.39 117.496 568.021 117.743 568.541 118.237C569.069 118.723 569.333 119.316 569.333 120.014C569.333 120.705 569.069 121.297 568.541 121.791C568.021 122.277 567.39 122.52 566.649 122.52ZM577.545 133.438V144.943H572.917V125.307H577.34V128.644H577.57C578.022 127.544 578.742 126.671 579.731 126.023C580.728 125.375 581.959 125.051 583.425 125.051C584.78 125.051 585.961 125.341 586.966 125.921C587.981 126.5 588.765 127.34 589.319 128.439C589.881 129.539 590.158 130.872 590.15 132.441V144.943H585.522V133.156C585.522 131.844 585.181 130.817 584.499 130.075C583.826 129.334 582.893 128.963 581.699 128.963C580.89 128.963 580.17 129.142 579.539 129.5C578.917 129.85 578.427 130.357 578.069 131.021C577.719 131.686 577.545 132.492 577.545 133.438ZM606.578 136.685V125.307H611.206V144.943H606.719V141.453H606.514C606.071 142.553 605.342 143.452 604.328 144.151C603.322 144.85 602.082 145.199 600.608 145.199C599.321 145.199 598.183 144.914 597.194 144.343C596.214 143.763 595.447 142.923 594.893 141.824C594.339 140.716 594.062 139.378 594.062 137.81V125.307H598.69V137.094C598.69 138.338 599.031 139.327 599.713 140.06C600.395 140.793 601.29 141.159 602.397 141.159C603.079 141.159 603.74 140.993 604.379 140.661C605.018 140.328 605.542 139.834 605.951 139.178C606.369 138.513 606.578 137.682 606.578 136.685ZM623.866 145.327C621.897 145.327 620.197 144.918 618.765 144.1C617.342 143.273 616.246 142.105 615.479 140.597C614.712 139.08 614.329 137.294 614.329 135.24C614.329 133.22 614.712 131.448 615.479 129.922C616.255 128.388 617.337 127.195 618.727 126.343C620.116 125.482 621.748 125.051 623.623 125.051C624.833 125.051 625.975 125.247 627.049 125.639C628.131 126.023 629.086 126.619 629.913 127.429C630.748 128.239 631.404 129.27 631.881 130.523C632.359 131.767 632.597 133.25 632.597 134.972V136.391H616.502V133.271H628.161C628.153 132.385 627.961 131.597 627.586 130.906C627.211 130.208 626.687 129.658 626.013 129.257C625.349 128.857 624.573 128.656 623.687 128.656C622.741 128.656 621.91 128.887 621.194 129.347C620.478 129.798 619.92 130.395 619.519 131.137C619.127 131.869 618.927 132.675 618.918 133.553V136.276C618.918 137.418 619.127 138.398 619.545 139.216C619.962 140.026 620.546 140.648 621.296 141.083C622.046 141.509 622.924 141.722 623.93 141.722C624.603 141.722 625.212 141.628 625.758 141.441C626.303 141.244 626.776 140.959 627.177 140.584C627.577 140.209 627.88 139.744 628.085 139.191L632.406 139.676C632.133 140.818 631.613 141.816 630.846 142.668C630.087 143.512 629.116 144.168 627.931 144.637C626.746 145.097 625.391 145.327 623.866 145.327ZM638.571 145.225C637.796 145.225 637.131 144.952 636.577 144.406C636.023 143.861 635.75 143.196 635.759 142.412C635.75 141.645 636.023 140.989 636.577 140.443C637.131 139.898 637.796 139.625 638.571 139.625C639.321 139.625 639.973 139.898 640.527 140.443C641.09 140.989 641.375 141.645 641.384 142.412C641.375 142.932 641.239 143.405 640.975 143.831C640.719 144.257 640.378 144.598 639.952 144.854C639.534 145.101 639.074 145.225 638.571 145.225Z" fill="white"/>
</g>
</svg>
