<svg width="1920" height="434" viewBox="0 0 1920 434" fill="none" xmlns="http://www.w3.org/2000/svg">
<g id="Busker">
<g id="busk4">
<path id="Vector" d="M631 414.037C621.909 422.383 610.109 429.212 596.507 434H0V27.8025C23.1926 48.0151 30.5787 77.1611 30.5787 77.1611C30.948 33.8414 85.0887 -14.1198 108.651 4.54558C132.212 23.211 88.7078 87.5918 88.7078 87.5918C121.946 96.675 153.484 117.536 155.183 118.984C154.592 117.337 140.042 81.6028 174.904 70.6731C209.767 59.7433 214.273 110.25 214.273 110.25C214.273 110.25 212.648 20.4163 259.993 57.3478C307.338 94.2794 272.697 153.719 272.697 153.719C321.52 161.405 322.332 201.98 322.332 201.98C338.35 173.235 366.624 148.347 403.58 130.462C417.523 173.554 406.641 218.617 373.149 256.479C396.253 255.307 419.446 255.156 442.579 256.03C469.538 257.727 463.851 280.335 463.851 280.335C463.851 280.335 499.083 253.335 538.747 240.858C578.411 228.381 515.333 298.451 515.333 298.451C515.333 298.451 559.65 283.878 599.387 304.69C599.387 304.69 577.82 332.139 531.73 334.634C531.73 334.634 581.143 374.56 560.758 399.514C560.831 399.364 596.728 379.301 631 414.037Z" fill="#41915C"/>
</g>
<g id="busk1">
<path id="Vector_2" d="M1920 50.3379V440H1259C1268.04 430.818 1281.25 424.456 1296.1 422.122C1264.84 401.909 1262.73 381.697 1262.73 381.697C1312.65 374.057 1366.08 404.509 1366.08 404.509C1361.13 385.77 1363.33 366.358 1372.41 348.52C1381.49 330.681 1397.09 315.146 1417.4 303.711C1343.83 295.435 1341.86 250.66 1341.86 250.66C1392.06 219.466 1451.06 234.32 1451.06 234.32C1421.7 196.547 1444.02 144.504 1444.02 144.504C1497.8 164.133 1501.04 225.938 1501.04 225.938C1514.49 202.86 1548.56 184.452 1548.56 184.452C1548.56 184.452 1536.52 150.923 1553.35 142.011C1570.17 133.098 1620.44 145.724 1622.84 146.255C1620.65 144.027 1557.5 79.41 1604.6 76.7574C1651.7 74.1048 1696.97 119.623 1696.97 119.623C1669.93 78.349 1685.84 15.3239 1717.67 25.5098C1749.49 35.6956 1752.87 110.922 1752.87 110.922C1787.01 108.853 1827.35 118.721 1829.67 119.252C1827.91 117.819 1793.14 88.5879 1815.95 66.996C1838.76 45.4041 1870.51 86.8902 1874.17 91.5588C1869.94 85.2987 1819.04 8.00281 1880.08 26.9952C1895.93 31.9332 1909.72 39.9967 1920 50.3379Z" fill="#708E5B"/>
</g>
</g>
</svg>
