<svg width="1920" height="186" viewBox="0 0 1920 186" fill="none" xmlns="http://www.w3.org/2000/svg">
<g id="BuskerForan">
<g id="busk2">
<path id="busk2_2" d="M1920 79.8174V188.69H1531.31L1532.06 192C1531.38 190.86 1530.6 189.754 1529.73 188.69H1378.02C1367.58 164.298 1345.68 105.635 1373.76 96.2145C1409.87 84.044 1438.5 124.527 1438.5 124.527C1438.5 124.527 1480.85 85.8771 1520.87 85.5207C1520.87 85.5207 1429.91 39.0283 1424.35 7.76182C1418.66 -24.4722 1541.88 65.9154 1541.88 65.9154C1541.88 65.9154 1530.55 0.581619 1568.79 0.174237C1607.03 -0.233144 1612.45 65.9154 1612.45 65.9154C1612.45 65.9154 1701.28 70.2948 1749 100.95C1749 100.95 1737.67 50.0276 1774.88 33.2232C1774.88 33.2232 1816.07 78.7481 1807.42 100.899C1809.41 98.1496 1845.04 48.8564 1900.23 61.1797C1907.29 67.1065 1913.9 73.3293 1920 79.8174Z" fill="#448F5D"/>
</g>
<g id="busk3">
<path id="busk2_3" d="M-1.33288e-05 84.2254V189.791H328.305L327.667 193C328.241 191.895 328.9 190.823 329.639 189.791H457.783C466.597 166.14 485.094 109.259 461.378 100.124C430.879 88.3236 406.699 127.577 406.699 127.577C406.699 127.577 370.923 90.1011 337.118 89.7555C337.118 89.7555 413.947 44.6755 418.644 14.3589C423.457 -16.8959 319.375 70.7458 319.375 70.7458C319.375 70.7458 328.943 7.39682 296.646 7.00182C264.349 6.60681 259.768 70.7458 259.768 70.7458C259.768 70.7458 184.737 74.9921 144.438 104.716C144.438 104.716 154.005 55.3407 122.578 39.0467C122.578 39.0467 87.7876 83.1886 95.0936 104.667C93.4121 102.001 63.3185 54.205 16.6994 66.1539C10.7314 71.9007 5.15579 77.9345 -1.33288e-05 84.2254Z" fill="#708E5B"/>
</g>
</g>
</svg>
