<svg width="211" height="334" viewBox="0 0 211 334" fill="none" xmlns="http://www.w3.org/2000/svg">
<g id="ChainSaw-man">
<path id="Vector" d="M159.452 143.981C158.887 144.653 158.117 145.147 157.244 145.396C156.372 145.645 155.439 145.638 154.571 145.375C154.456 146.826 153.804 148.195 152.727 149.242C150.747 150.998 146.936 148.851 146.936 148.851C146.482 150.331 145.566 151.648 144.306 152.633C142.221 154.134 138.04 152.511 138.04 152.511C136.823 153.653 135.211 154.348 133.495 154.468C128.898 154.621 124.973 149.142 122.441 145.681C119.91 142.221 116.265 130.131 115.303 127.9L138.696 112.484C138.696 112.484 154.76 124.949 157.12 129.41C159.113 133.167 161.5 141.329 159.452 143.981Z" fill="#EB9481"/>
<path id="Vector_2" d="M139.916 333.177C137.596 333.881 71.4461 333.074 68.9161 331.543C67.9161 330.98 67.5161 321.918 67.3261 310.96V310.613C67.2761 308.359 67.2461 306.03 67.2461 303.673C67.2461 303.354 67.2461 303.025 67.2461 302.734L110.346 302.847L110.296 304.105L110.026 310.678V311.354C110.026 311.354 135.196 322.303 137.756 324.256C140.316 326.21 142.236 332.482 139.916 333.177Z" fill="#EBEBEB"/>
<path id="Vector_3" d="M139.915 333.178C138.725 333.535 120.755 333.497 103.185 333.178C99.655 333.112 96.185 333.037 92.795 332.943C80.265 332.624 69.915 332.135 68.955 331.553C67.995 330.971 67.565 322.163 67.375 311.421C67.375 311.271 67.375 311.12 67.375 310.97C67.375 310.82 67.375 310.735 67.375 310.613L110.005 310.698V311.374C110.005 311.374 135.185 322.313 137.735 324.276C140.285 326.238 142.235 332.483 139.915 333.178Z" fill="#FFC727"/>
<path id="Vector_4" d="M139.197 330.764C128.047 330.37 83.0472 329.769 71.9972 330.182C71.9072 330.182 71.9072 330.238 71.9972 330.248C82.9972 330.858 127.997 331.112 139.197 330.933C139.437 330.971 139.437 330.774 139.197 330.764Z" fill="#263238"/>
<path id="Vector_5" d="M114.777 310.857C110.397 310.04 105.027 310.603 101.627 313.495C101.497 313.608 101.627 313.787 101.817 313.749C106.033 312.523 110.378 311.729 114.777 311.383C114.851 311.383 114.922 311.355 114.975 311.306C115.027 311.256 115.057 311.189 115.057 311.12C115.057 311.05 115.027 310.983 114.975 310.934C114.922 310.885 114.851 310.857 114.777 310.857Z" fill="#263238"/>
<path id="Vector_6" d="M117.924 312.689C113.554 311.872 108.174 312.435 104.784 315.327C104.644 315.44 104.784 315.619 104.964 315.581C109.174 314.357 113.512 313.564 117.904 313.215C117.978 313.217 118.05 313.192 118.105 313.144C118.159 313.097 118.191 313.031 118.194 312.961C118.196 312.891 118.169 312.824 118.119 312.772C118.068 312.721 117.998 312.691 117.924 312.689Z" fill="#263238"/>
<path id="Vector_7" d="M121.078 314.52C116.698 313.703 111.318 314.266 107.928 317.158C107.798 317.271 107.928 317.45 108.108 317.412C112.316 316.175 116.655 315.369 121.048 315.008C121.101 314.992 121.148 314.96 121.182 314.919C121.216 314.877 121.236 314.826 121.24 314.774C121.243 314.721 121.229 314.669 121.2 314.623C121.171 314.578 121.129 314.542 121.078 314.52Z" fill="#263238"/>
<path id="Vector_8" d="M103.185 333.168C99.655 333.102 96.185 333.027 92.795 332.933C80.265 332.614 69.915 332.126 68.955 331.543C67.995 330.961 67.565 322.153 67.375 311.411C67.375 311.261 67.375 311.111 67.375 310.96C67.375 310.81 67.375 310.726 67.375 310.604C73.245 314.453 93.825 327.318 103.185 333.168Z" fill="#263238"/>
<path id="Vector_9" d="M112.937 310.829H65.2973C65.2973 310.829 74.8973 206.336 74.5173 204.514C74.0473 202.176 56.2673 136.812 52.8573 124.445L43.7773 91.5234H84.1473C84.1473 91.5234 88.7773 105.552 94.7773 123.769C104.437 153.395 117.357 194.195 118.627 204.064C120.667 220.074 112.937 310.829 112.937 310.829Z" fill="#455A64"/>
<path id="Vector_10" d="M110.826 303.195C103.556 303.054 105.646 302.997 98.3659 302.932C94.8059 302.932 71.3659 302.706 68.0759 303.223C68.0059 303.223 68.0059 303.354 68.0759 303.364C71.4059 303.88 94.8059 303.692 98.3659 303.655C105.646 303.589 103.556 303.533 110.826 303.392C110.854 303.392 110.88 303.381 110.9 303.363C110.92 303.344 110.931 303.319 110.931 303.293C110.931 303.267 110.92 303.242 110.9 303.224C110.88 303.205 110.854 303.195 110.826 303.195Z" fill="#263238"/>
<path id="Vector_11" d="M83.4862 198.129C81.9162 191.66 79.5862 185.321 77.5562 178.974C73.4295 166.078 69.2729 153.188 65.0862 140.305C63.0062 133.863 60.9129 127.422 58.8062 120.98C57.7362 117.731 56.6762 114.482 55.5962 111.233C54.5162 107.984 53.3262 104.914 52.3662 101.712C51.9762 100.407 51.7662 101.12 52.2662 102.782C53.2662 106.116 54.2662 109.459 55.2662 112.783C57.3262 119.375 59.3929 125.963 61.4662 132.549C65.5929 145.657 69.7595 158.753 73.9662 171.837C76.0595 178.404 78.1595 184.977 80.2662 191.556C81.3346 194.677 82.1962 197.857 82.8462 201.078C83.4059 204.447 83.5468 207.866 83.2662 211.266C82.8062 218.111 81.9662 224.947 81.2662 231.774C80.5662 238.601 79.9262 245.455 79.2662 252.301C77.9329 265.916 76.5995 279.535 75.2662 293.157C75.0962 294.885 74.9362 296.613 74.7962 298.34C74.7962 298.913 75.6862 298.876 75.7462 298.34C77.3162 284.875 78.5162 271.363 79.8662 257.869L83.8662 217.614C84.1962 214.243 84.5762 210.872 84.5862 207.482C84.5943 204.335 84.2254 201.198 83.4862 198.129Z" fill="#263238"/>
<path id="Vector_12" d="M79.5272 91.5234C77.0572 109.505 73.6272 169.903 72.8672 198.176C68.3072 181.049 55.6772 134.643 52.8672 124.426C48.1372 107.355 44.3772 93.7958 43.8172 91.7864C43.8056 91.7257 43.7889 91.6661 43.7672 91.6079C43.7651 91.5892 43.7651 91.5703 43.7672 91.5516L79.5272 91.5234Z" fill="#263238"/>
<path id="Vector_13" d="M90.1661 333.177C87.8461 333.881 21.6961 333.074 19.1661 331.543C18.1661 330.98 17.7661 321.918 17.5761 310.96C17.5761 310.847 17.5761 310.725 17.5761 310.613C17.5761 308.359 17.5061 306.03 17.4961 303.673C17.4961 303.354 17.4961 303.025 17.4961 302.734L60.5961 302.847L60.5361 304.105L60.2761 310.678V311.354C60.2761 311.354 85.4561 322.303 88.0061 324.256C90.5561 326.21 92.4961 332.482 90.1661 333.177Z" fill="#EBEBEB"/>
<path id="Vector_14" d="M90.175 333.178C88.985 333.535 71.005 333.497 53.445 333.178C49.905 333.112 46.445 333.037 43.045 332.943C30.525 332.624 20.165 332.135 19.205 331.553C18.245 330.971 17.825 322.163 17.625 311.421C17.625 311.271 17.625 311.12 17.625 310.97C17.625 310.82 17.625 310.735 17.625 310.613L60.265 310.698V311.374C60.265 311.374 85.435 322.313 87.985 324.276C90.535 326.238 92.495 332.483 90.175 333.178Z" fill="#FFC727"/>
<path id="Vector_15" d="M89.455 330.764C78.305 330.37 33.305 329.769 22.255 330.182C22.165 330.182 22.165 330.238 22.255 330.248C33.255 330.858 78.255 331.112 89.455 330.933C89.685 330.971 89.685 330.774 89.455 330.764Z" fill="#263238"/>
<path id="Vector_16" d="M65.0464 310.857C60.6664 310.04 55.2864 310.603 51.8964 313.495C51.7664 313.608 51.8964 313.787 52.0764 313.749C56.2865 312.525 60.6249 311.732 65.0164 311.383C65.0907 311.386 65.1635 311.362 65.2188 311.316C65.2741 311.269 65.3074 311.204 65.3114 311.134C65.3154 311.064 65.2897 310.996 65.24 310.944C65.1903 310.892 65.1207 310.861 65.0464 310.857Z" fill="#263238"/>
<path id="Vector_17" d="M68.1868 312.689C63.8068 311.872 58.4368 312.435 55.0368 315.327C54.9068 315.44 55.0368 315.619 55.2268 315.581C59.4334 314.357 63.7686 313.564 68.1568 313.215C68.2311 313.218 68.3039 313.194 68.3592 313.148C68.4145 313.101 68.4478 313.036 68.4518 312.966C68.4558 312.896 68.4301 312.828 68.3804 312.776C68.3307 312.724 68.2611 312.693 68.1868 312.689Z" fill="#263238"/>
<path id="Vector_18" d="M71.3259 314.52C66.9459 313.703 61.5759 314.266 58.1859 317.158C58.0459 317.271 58.1859 317.45 58.3659 317.412C62.5745 316.175 66.913 315.369 71.3059 315.008C71.3588 314.991 71.4048 314.959 71.438 314.916C71.4713 314.874 71.4902 314.823 71.4924 314.77C71.4945 314.718 71.4798 314.666 71.4501 314.621C71.4205 314.576 71.3772 314.541 71.3259 314.52Z" fill="#263238"/>
<path id="Vector_19" d="M82.7766 91.5234C82.7766 91.5234 81.8466 109.665 77.4266 124.032C77.0666 125.215 76.6866 126.389 76.2666 127.506C76.2666 127.506 76.8766 127.046 69.8466 131.093C69.8466 131.093 72.5666 203.228 72.6766 207.529C73.0866 223.642 60.6166 311.468 60.6166 311.468L12.9766 311.646C12.9766 311.646 29.9766 212.055 29.9766 206.158C29.8866 196.674 23.8766 155.451 25.7266 124.877C26.524 113.261 29.8131 101.916 35.3966 91.5234H82.7766Z" fill="#455A64"/>
<path id="Vector_20" d="M59.0175 303.523C51.7375 303.41 53.8275 303.344 46.5475 303.307C42.9875 303.307 19.5475 303.194 16.2575 303.729C16.2389 303.729 16.2211 303.736 16.208 303.749C16.1949 303.761 16.1875 303.778 16.1875 303.795C16.1875 303.812 16.1949 303.829 16.208 303.842C16.2211 303.854 16.2389 303.861 16.2575 303.861C19.5875 304.368 42.9875 304.086 46.5475 304.039C53.8275 303.945 51.7375 303.898 59.0175 303.72C59.0399 303.713 59.0594 303.7 59.0733 303.683C59.0872 303.665 59.0947 303.643 59.0947 303.621C59.0947 303.599 59.0872 303.578 59.0733 303.56C59.0594 303.542 59.0399 303.529 59.0175 303.523Z" fill="#263238"/>
<path id="Vector_21" d="M38.2359 94.2462C32.2359 105.12 29.9659 117.496 29.4759 129.628C28.9459 142.774 30.6259 155.92 32.1059 169.067C33.6559 182.823 35.0059 196.598 33.8859 210.383C32.7559 224.355 30.1159 238.225 27.9859 252.084C25.8559 265.944 23.6059 279.804 21.7759 293.701C21.5459 295.457 21.3059 297.213 21.0859 298.978C21.0859 299.063 21.2159 299.11 21.2359 298.978C23.8459 285.288 25.9959 271.512 28.2359 257.756C30.4759 243.999 32.9659 230.356 34.4659 216.58C35.9659 202.805 35.3359 189.124 33.8659 175.377C32.4559 162.146 30.5859 148.915 30.5359 135.591C30.5359 123.205 31.8259 110.529 36.5359 98.8474C37.1559 97.2886 37.8359 95.7487 38.5359 94.2181C38.5759 94.0303 38.3659 94.0209 38.2359 94.2462Z" fill="#263238"/>
<path id="Vector_22" d="M78.2739 126.445C73.537 128.304 68.9801 130.544 64.6539 133.14C64.6219 133.161 64.5993 133.193 64.5903 133.228C64.5812 133.264 64.5865 133.302 64.6049 133.334C64.6234 133.366 64.6538 133.391 64.6904 133.404C64.7271 133.417 64.7674 133.416 64.8039 133.403C69.3939 131.309 74.0839 129.29 78.5539 126.962C78.6189 126.923 78.6662 126.862 78.6865 126.793C78.7069 126.723 78.6987 126.648 78.6638 126.584C78.6288 126.519 78.5695 126.469 78.4974 126.444C78.4253 126.418 78.3456 126.419 78.2739 126.445Z" fill="#263238"/>
<path id="Vector_23" d="M78.5481 111.055C78.2281 112.642 77.8181 114.22 77.4581 115.75C77.0981 117.281 76.8581 118.746 76.4581 120.21C76.1233 121.639 75.3517 122.944 74.2381 123.967C73.6181 124.511 72.9381 124.99 72.2381 125.488C71.8881 125.751 71.4981 126.004 71.1281 126.276C71.1781 126.07 71.2181 125.854 71.2581 125.638L71.5881 123.826C71.8281 122.492 72.0481 121.149 72.2681 119.807C72.6981 117.168 73.0981 114.501 73.6781 111.891C73.6828 111.878 73.6843 111.864 73.6822 111.851C73.6802 111.838 73.6748 111.825 73.6665 111.814C73.6582 111.803 73.6472 111.794 73.6344 111.788C73.6216 111.782 73.6075 111.779 73.5931 111.779C73.5788 111.779 73.5646 111.782 73.5519 111.788C73.5391 111.794 73.5281 111.803 73.5198 111.814C73.5114 111.825 73.5061 111.838 73.504 111.851C73.502 111.864 73.5034 111.878 73.5081 111.891C72.8081 114.473 72.0381 117.037 71.4281 119.647C71.1281 120.924 70.0581 127.244 70.0081 127.694C69.9581 128.145 69.9181 128.633 69.9081 129.084C69.8431 129.555 69.8431 130.031 69.9081 130.502C69.9081 130.615 70.0881 130.596 70.1381 130.502C70.3487 130.066 70.4934 129.605 70.5681 129.131C70.6881 128.68 70.7981 128.192 70.8881 127.769C70.8881 127.6 70.9381 127.431 70.9681 127.262C71.6281 126.887 72.2481 126.38 72.8681 125.957C73.4881 125.535 74.2181 125.018 74.8681 124.567C76.0342 123.64 76.8743 122.402 77.2781 121.018C77.6902 119.529 77.958 118.008 78.0781 116.473C78.2881 114.68 78.4481 112.877 78.7081 111.083C78.7781 110.989 78.5681 110.942 78.5481 111.055Z" fill="#263238"/>
<path id="Vector_24" d="M89.1466 43.1922C108.417 61.8128 136.637 109.073 140.147 115.862C142.517 120.463 116.897 132.764 115.787 129.412C114.367 125.121 91.6566 72.1888 85.5866 52.1973C82.2266 41.1734 85.1666 39.3517 89.1466 43.1922Z" fill="#EB9481"/>
<path id="Vector_25" d="M85.8362 57.3811C91.7462 75.3913 105.676 110.52 105.676 110.52L131.676 98.5567C131.676 98.5567 107.676 63.541 94.1562 47.3337C84.6362 35.9059 80.4462 40.9202 85.8362 57.3811Z" fill="#FFC727"/>
<path id="Vector_26" d="M101.805 107.768L131.385 95.4482L134.775 101.956L105.195 114.745L101.805 107.768Z" fill="#FFC727"/>
<path id="Vector_27" opacity="0.1" d="M101.805 107.768L131.385 95.4482L134.775 101.956L105.195 114.745L101.805 107.768Z" fill="black"/>
<path id="Vector_28" d="M28.5078 108.96L91.6078 114.35C91.6078 114.35 91.9578 71.7005 91.1978 61.0615C90.4378 50.4225 89.7378 39.4643 87.6978 36.7411C85.6578 34.018 77.8878 31.755 73.0678 33.3138C68.2478 34.8725 59.0678 42.1123 47.9078 63.362C36.7478 84.6118 28.5078 108.96 28.5078 108.96Z" fill="#FFC727"/>
<path id="Vector_29" d="M71.2981 34.0283C71.2981 34.0283 72.4881 53.8133 72.5981 54.0856C72.7081 54.3579 89.1781 54.1983 89.3781 54.0856C89.5781 53.9729 86.8381 35.9063 86.8381 35.9063L88.3381 37.3055C88.3381 37.3055 92.0981 55.2405 92.7681 67.6636C93.4381 80.0867 91.8281 114.858 91.8281 114.858L28.3281 109.309C31.9002 95.7242 37.0825 82.5585 43.7781 70.0581C43.7781 70.0581 57.4481 68.0486 61.1681 66.1706C64.8881 64.2926 69.3281 34.911 69.3281 34.911L71.2981 34.0283Z" fill="#455A64"/>
<path id="Vector_30" d="M29.0371 111.243C28.6771 111.562 25.7571 131.403 27.0871 132.239C28.4171 133.075 46.5571 136.296 47.9071 135.676C49.2571 135.056 51.3071 115.177 51.1971 114.914C51.0871 114.651 29.7171 110.595 29.0371 111.243Z" fill="#FFC727"/>
<path id="Vector_31" opacity="0.1" d="M50.2774 123.721C49.5874 129.215 48.6474 135.29 47.9074 135.628C46.5574 136.248 28.4174 133.027 27.0874 132.191C26.3574 131.731 26.9074 125.618 27.6074 120.106C27.9241 117.115 28.4047 114.14 29.0474 111.195C29.7174 110.594 51.0474 114.604 51.1974 114.867C51.2474 114.998 50.8474 119.148 50.2774 123.721Z" fill="black"/>
<path id="Vector_32" d="M26.7783 110.519C26.4683 110.247 28.7783 102.876 29.9883 101.035C29.9883 101.035 49.4783 104.791 66.1283 106.481C78.5783 107.721 92.8383 107.486 92.8883 107.815C92.9383 108.143 93.2683 116.134 92.9583 116.782C92.6483 117.43 73.7383 117.102 63.0083 116.266C52.2783 115.43 27.7783 111.439 26.7783 110.519Z" fill="#FFC727"/>
<path id="Vector_33" d="M83.4549 106.905C82.7049 106.557 70.7349 106.125 70.0949 106.445C69.0149 106.989 68.8049 116.84 69.0949 117.131C69.3849 117.422 82.9249 117.638 83.3249 117.375C83.7249 117.112 84.2149 107.262 83.4549 106.905ZM81.9849 116.126C78.1377 116.28 74.2841 116.218 70.4449 115.938C70.2449 115.722 70.4449 108.107 71.2849 107.684C74.9026 107.547 78.5263 107.666 82.1249 108.041C82.7749 108.313 82.3149 115.938 81.9849 116.126Z" fill="#DBDBDB"/>
<path id="Vector_34" d="M82.9901 111.429L79.1914 111.334L79.1527 112.695L82.9513 112.79L82.9901 111.429Z" fill="#DBDBDB"/>
<path id="Vector_35" d="M65.7137 111.515C65.7137 111.62 65.6806 111.722 65.6186 111.808C65.5566 111.895 65.4686 111.962 65.3657 112.002C65.2628 112.041 65.1497 112.051 65.0408 112.03C64.9319 112.009 64.8321 111.958 64.7542 111.884C64.6763 111.809 64.6238 111.715 64.6033 111.612C64.5829 111.509 64.5954 111.403 64.6393 111.307C64.6832 111.211 64.7566 111.13 64.8499 111.073C64.9433 111.017 65.0526 110.987 65.1637 110.989C65.2368 110.989 65.3092 111.003 65.3766 111.03C65.4439 111.056 65.505 111.095 65.5562 111.144C65.6074 111.193 65.6477 111.251 65.6748 111.315C65.7018 111.378 65.7151 111.447 65.7137 111.515Z" fill="#263238"/>
<path id="Vector_36" d="M59.9558 110.988C59.9578 111.093 59.9264 111.196 59.8656 111.284C59.8049 111.372 59.7175 111.441 59.6148 111.482C59.5121 111.523 59.3987 111.534 59.2891 111.514C59.1796 111.494 59.0789 111.443 59 111.369C58.921 111.295 58.8675 111.201 58.8462 111.098C58.8249 110.995 58.8369 110.888 58.8805 110.792C58.9241 110.696 58.9974 110.614 59.091 110.556C59.1846 110.499 59.2943 110.47 59.4059 110.472C59.5509 110.474 59.6893 110.529 59.7919 110.626C59.8945 110.722 59.9533 110.852 59.9558 110.988Z" fill="#263238"/>
<path id="Vector_37" d="M35.6953 89.8742L37.4373 90.11C38.0935 90.1988 38.6854 90.5287 39.0825 91.0273C39.4797 91.5258 39.6497 92.1521 39.5552 92.7683L37.1148 108.671L30.414 107.764L32.8544 91.8616C32.9489 91.2454 33.3003 90.6896 33.8313 90.3167C34.3622 89.9437 35.0291 89.7841 35.6854 89.8729L35.6953 89.8742Z" fill="#37474F"/>
<path id="Vector_38" d="M36.0368 108.517L31.5234 107.906L31.2653 109.588L35.7787 110.199L36.0368 108.517Z" fill="#37474F"/>
<path id="Vector_39" d="M34.2399 109.996L32.8047 109.802L30.0306 127.879L31.4657 128.073L34.2399 109.996Z" fill="#EBEBEB"/>
<path id="Vector_40" d="M31.9369 129.77C31.9369 129.77 30.6369 132.427 30.5369 132.418L30.0669 132.352L29.5969 132.286C29.4969 132.286 29.0469 129.375 29.0469 129.375L30.0469 127.892L31.4669 128.079L31.9369 129.77Z" fill="#EBEBEB"/>
<path id="Vector_41" d="M34.6679 92.1532L33.5 91.9951L31.3377 106.085L32.5057 106.243L34.6679 92.1532Z" fill="#263238"/>
<path id="Vector_42" d="M36.8281 92.4403L35.6602 92.2822L33.4979 106.372L34.6658 106.53L36.8281 92.4403Z" fill="#263238"/>
<path id="Vector_43" d="M39.0039 92.7371L37.8359 92.5791L35.6737 106.669L36.8416 106.827L39.0039 92.7371Z" fill="#263238"/>
<path id="Vector_44" d="M41.0016 96.8838L37.1406 96.2979L36.1662 101.959L40.0272 102.545L41.0016 96.8838Z" fill="#EBEBEB"/>
<path id="Vector_45" d="M40.3562 97.9548L42.9662 98.3492C43.3662 98.4055 45.1862 96.95 46.4062 97.1378L47.7562 97.3444C48.9162 97.5134 53.6163 99.3727 53.1263 102.208C52.6363 105.044 52.8362 103.908 52.8362 103.908C52.8362 103.908 52.4262 102.312 51.3662 101.861C50.8704 101.654 50.3083 101.637 49.7989 101.812C49.2894 101.987 48.8725 102.341 48.6362 102.8C48.2689 103.605 47.9615 104.434 47.7162 105.279L42.9362 104.556C42.8862 103.528 42.7355 102.506 42.4863 101.504C42.1763 100.734 39.9062 100.565 39.9062 100.565L40.3562 97.9548Z" fill="#EBEBEB"/>
<path id="Vector_46" d="M46.8075 105.14L43.8359 104.69L42.1055 114.767L45.0771 115.217L46.8075 105.14Z" fill="#EBEBEB"/>
<path id="Vector_47" d="M46.6026 110.614L42.1797 109.944L38.3288 132.369L42.7517 133.039L46.6026 110.614Z" fill="#263238"/>
<path id="Vector_48" d="M50.2774 123.723C49.5874 129.216 48.6474 135.291 47.9074 135.629C46.5574 136.249 28.4174 133.028 27.0874 132.192C26.3574 131.732 26.9074 125.619 27.6074 120.107L50.2774 123.723Z" fill="#FFC727"/>
<path id="Vector_49" d="M89.5181 58.4704C89.0281 57.9351 71.6581 58.3859 71.4481 58.9399C71.2381 59.4939 70.8481 70.2831 71.3381 70.7057C72.5481 71.7949 80.2381 73.5227 81.8881 73.3443C84.8648 72.6542 87.6724 71.4333 90.1581 69.7479C90.6981 69.2877 90.6181 59.6535 89.5181 58.4704ZM89.5881 69.4098C88.7681 70.0108 83.9381 72.3677 81.7781 72.6682C80.3081 72.8748 72.2781 70.5554 71.9781 70.2361C71.6781 69.9169 71.8181 61.6818 71.9181 59.4563C73.1381 58.6018 88.5581 58.6394 89.1381 59.0995C89.5281 59.4094 90.1481 68.9873 89.5881 69.4098Z" fill="#263238"/>
<path id="Vector_50" d="M82.2358 45.9725C78.6958 45.3527 74.8358 37.8031 74.4258 33.1737C74.4258 32.8545 76.0758 30.3567 77.9758 27.1829C79.1158 25.3049 80.3358 23.1076 81.2958 21.0605C81.4958 20.638 82.6558 22.0465 82.6558 22.0465L85.1758 23.8494L93.4958 29.8497C91.52 32.0889 89.841 34.5452 88.4958 37.1645C88.3717 37.4478 88.2714 37.7398 88.1958 38.0378C88.1992 38.0878 88.1992 38.138 88.1958 38.1881C87.6558 39.8783 85.6558 46.564 82.2358 45.9725Z" fill="#EB9481"/>
<path id="Vector_51" d="M88.1791 37.9993C88.1826 38.0493 88.1826 38.0995 88.1791 38.1495C87.6843 38.0164 87.2025 37.8436 86.7391 37.6331C77.6291 33.6235 81.6491 22.1582 81.6491 22.1582L85.2191 23.8109L93.5391 29.8111C91.5633 32.0504 89.8844 34.5067 88.5391 37.126C88.3945 37.4076 88.2742 37.6997 88.1791 37.9993Z" fill="#263238"/>
<path id="Vector_52" d="M87.5989 5.40634C83.7189 9.16238 79.1289 23.0879 80.8989 27.567C83.4589 34.0555 91.1789 38.328 97.8989 34.6753C104.449 31.1446 110.089 12.8433 107.789 8.43934C104.439 1.94139 93.3289 -0.077473 87.5989 5.40634Z" fill="#EB9481"/>
<path id="Vector_53" d="M96.276 20.0557C96.276 20.0557 96.186 20.0557 96.176 20.112C95.876 21.051 95.366 22.0933 94.366 22.1215C94.366 22.1215 94.316 22.1778 94.366 22.1778C95.506 22.375 96.166 20.9947 96.276 20.0557Z" fill="#263238"/>
<path id="Vector_54" d="M95.7778 18.8067C94.2078 18.1963 93.0278 21.173 94.4778 21.7364C95.9278 22.2998 97.0478 19.3137 95.7778 18.8067Z" fill="#263238"/>
<path id="Vector_55" d="M101.575 21.793C101.575 21.793 101.635 21.8681 101.575 21.9057C101.185 22.8447 100.895 23.9245 101.655 24.5349C101.655 24.5349 101.655 24.6006 101.655 24.5912C100.645 24.0654 101.045 22.6005 101.575 21.793Z" fill="#263238"/>
<path id="Vector_56" d="M102.834 21.0976C104.454 21.539 103.404 24.5626 101.894 24.1494C100.384 23.7362 101.474 20.769 102.834 21.0976Z" fill="#263238"/>
<path id="Vector_57" d="M94.9588 16.9196C95.3718 17.1161 95.7957 17.2917 96.2288 17.4454C96.6484 17.6945 97.1451 17.8036 97.6388 17.7553C97.7899 17.7121 97.9217 17.6234 98.0139 17.503C98.106 17.3825 98.1534 17.2369 98.1488 17.0886C98.0898 16.7968 97.9495 16.5249 97.7422 16.3006C97.535 16.0763 97.2681 15.9076 96.9688 15.8116C96.3958 15.533 95.7335 15.4628 95.1088 15.6144C94.9663 15.6551 94.8397 15.7343 94.7448 15.8421C94.6498 15.9498 94.5907 16.0814 94.5747 16.2205C94.5587 16.3595 94.5866 16.4999 94.6549 16.6242C94.7232 16.7485 94.8288 16.8512 94.9588 16.9196Z" fill="#263238"/>
<path id="Vector_58" d="M104.655 20.0643C104.245 19.8484 103.905 19.5761 103.515 19.3225C103.125 19.069 102.705 18.8436 102.515 18.3835C102.476 18.2406 102.487 18.0893 102.549 17.9533C102.61 17.8174 102.718 17.7044 102.855 17.6323C103.15 17.5268 103.47 17.4973 103.781 17.5468C104.093 17.5963 104.384 17.7231 104.625 17.914C105.174 18.2342 105.58 18.7318 105.765 19.3131C105.79 19.4452 105.775 19.5812 105.721 19.7054C105.667 19.8296 105.577 19.9371 105.461 20.0155C105.345 20.0939 105.208 20.1401 105.066 20.1487C104.923 20.1574 104.781 20.1281 104.655 20.0643Z" fill="#263238"/>
<path id="Vector_59" d="M93.7746 25.4641C93.8787 25.9154 94.0807 26.3418 94.368 26.7166C94.6553 27.0914 95.0218 27.4066 95.4446 27.6426C95.818 27.8467 96.218 28.0045 96.6346 28.1121C96.712 28.1397 96.7925 28.1586 96.8746 28.1684H97.0946C97.1502 28.178 97.2075 28.1704 97.258 28.1467C97.3086 28.123 97.3495 28.0844 97.3746 28.0369C97.3793 28.0058 97.3793 27.9742 97.3746 27.943V27.8585C97.6746 27.1543 98.0246 26.0556 98.0246 26.0556C98.2546 26.281 99.4246 27.3702 99.5546 26.9946C100.735 23.7639 101.562 20.4289 102.025 17.0411C102.018 17.0224 102.005 17.006 101.988 16.9944C101.971 16.9828 101.951 16.9766 101.93 16.9766C101.909 16.9766 101.888 16.9828 101.871 16.9944C101.854 17.006 101.841 17.0224 101.835 17.0411C100.725 20.0178 100.175 23.1635 99.1146 26.1777C98.7005 25.7828 98.2292 25.4445 97.7146 25.173C97.5946 25.173 97.0646 27.3233 96.9046 27.6238C96.2627 27.4624 95.6614 27.1825 95.136 26.8004C94.6106 26.4182 94.1716 25.9416 93.8446 25.3983C93.7746 25.3326 93.7146 25.3702 93.7746 25.4641Z" fill="#263238"/>
<path id="Vector_60" d="M83.0277 17.0409C85.5977 18.1583 88.6377 12.3458 88.6377 12.3458C88.6377 12.3458 92.8077 13.6323 97.4877 9.67904C97.4877 9.67904 100.718 15.0408 105.218 16.4211C112.278 18.5809 116.608 10.6556 115.118 7.83858C113.018 3.84779 105.048 4.08254 105.048 4.08254C105.048 4.08254 97.2377 -2.97881 91.1477 1.4721C89.9121 0.948907 88.5113 0.884698 87.2273 1.29239C85.9433 1.70009 84.8715 2.54942 84.2277 3.66938C81.5077 7.7353 81.1077 16.1958 83.0277 17.0409Z" fill="#263238"/>
<path id="Vector_61" d="M87.3677 12.5428C89.381 13.186 91.5644 13.186 93.5777 12.5428C94.665 12.1725 95.6415 11.562 96.4247 10.7628C97.2079 9.96363 97.7749 8.99925 98.0777 7.95107C98.0777 7.83839 98.2977 7.89473 98.2677 8.00741C97.9991 9.11938 97.4727 10.1621 96.726 11.0612C95.9794 11.9604 95.0307 12.6939 93.9477 13.2095C92.8869 13.6842 91.7114 13.8873 90.5401 13.7983C89.3688 13.7092 88.2434 13.3312 87.2777 12.7025C87.1877 12.6461 87.2477 12.5053 87.3677 12.5428Z" fill="#263238"/>
<path id="Vector_62" d="M85.3356 0.964915C87.4656 0.101027 89.5356 0.852234 91.4056 1.90392C91.5156 1.96966 91.4056 2.12929 91.3056 2.06356C90.3771 1.5443 89.3164 1.27019 88.2356 1.27019C87.1549 1.27019 86.0942 1.5443 85.1656 2.06356C83.3856 3.00257 82.5756 4.88059 82.0656 6.64593C81.0528 10.0356 81.4089 13.6572 83.0656 16.8154C83.0656 16.8154 83.0156 16.9093 82.9756 16.8154C81.9805 15.1244 81.361 13.2614 81.1547 11.3391C80.9485 9.41681 81.1597 7.47521 81.7756 5.63179C82.3556 3.81951 83.3656 1.76307 85.3356 0.964915Z" fill="#263238"/>
<path id="Vector_63" d="M91.9277 24.5817C91.1778 24.2157 90.5522 23.6596 90.1219 22.9765C89.6916 22.2934 89.4738 21.5108 89.4934 20.7173C89.513 19.9239 89.769 19.1516 90.2326 18.4879C90.6961 17.8243 91.3485 17.296 92.1156 16.963C92.8828 16.63 93.7341 16.5056 94.5727 16.6041C95.4114 16.7025 96.2038 17.0197 96.8601 17.5198C97.5165 18.0198 98.0103 18.6826 98.2856 19.433C98.561 20.1833 98.6067 20.9911 98.4177 21.7646C98.2825 22.3079 98.0343 22.8207 97.6874 23.2737C97.3404 23.7266 96.9016 24.1107 96.3961 24.4039C95.8906 24.697 95.3284 24.8935 94.7417 24.9821C94.1551 25.0706 93.5556 25.0494 92.9777 24.9197C92.6131 24.8519 92.2599 24.7382 91.9277 24.5817ZM95.8278 17.5579C95.5414 17.4128 95.2352 17.3054 94.9177 17.2386C93.9473 17.022 92.9253 17.161 92.0602 17.6272C91.195 18.0935 90.5516 18.8519 90.2612 19.748C89.9707 20.6441 90.055 21.6105 90.4969 22.4503C90.9387 23.29 91.7049 23.9401 92.6394 24.2679C93.5738 24.5957 94.6062 24.5767 95.5262 24.2147C96.4462 23.8528 97.1847 23.175 97.5912 22.3196C97.9976 21.4642 98.0415 20.4955 97.7139 19.6108C97.3862 18.7261 96.7117 17.9919 95.8278 17.5579Z" fill="#FFC727"/>
<path id="Vector_64" d="M101.646 28.0093C100.106 27.2581 99.5361 25.0984 100.376 23.0232C100.752 22.0294 101.452 21.1719 102.376 20.5724C102.757 20.2892 103.21 20.1037 103.69 20.034C104.17 19.9642 104.662 20.0126 105.116 20.1743C105.57 20.3361 105.972 20.6057 106.283 20.9569C106.593 21.3081 106.801 21.7289 106.886 22.1781C107.152 23.2085 107.072 24.291 106.656 25.2768C105.766 27.4647 103.656 28.7418 101.896 28.0938L101.646 28.0093ZM105.126 20.7977C105.06 20.7621 104.989 20.7338 104.916 20.7132C104.55 20.5994 104.16 20.5698 103.778 20.627C103.397 20.6841 103.036 20.8265 102.726 21.0419C101.906 21.5804 101.284 22.3449 100.946 23.2298C100.176 25.1078 100.706 27.0797 102.126 27.5868C103.546 28.0939 105.336 26.967 106.126 25.0702C106.502 24.2002 106.579 23.2415 106.346 22.3283C106.267 22.0078 106.117 21.7062 105.907 21.4427C105.697 21.1792 105.431 20.9596 105.126 20.7977Z" fill="#FFC727"/>
<path id="Vector_65" d="M98.0884 22.1963L97.8984 21.6611C98.7384 21.3887 100.498 21.2385 101.108 22.647L100.548 22.863C100.008 21.5953 98.1684 22.1775 98.0884 22.1963Z" fill="#FFC727"/>
<path id="Vector_66" d="M78.8375 16.4868L78.4375 16.0643C78.6475 15.8858 80.5275 14.3459 81.8675 14.5994C83.2075 14.8529 90.4275 18.224 90.7375 18.3554L90.4675 18.8719C88.3775 17.9329 82.7175 15.3412 81.7475 15.1159C80.7775 14.8905 79.3475 16.0549 78.8375 16.4868Z" fill="#FFC727"/>
<path id="Vector_67" d="M84.7752 17.2197C84.7752 17.2197 83.8752 11.5856 81.3152 11.7171C78.7552 11.8486 77.8952 18.9381 79.8252 20.8631C80.0536 21.1266 80.3365 21.3439 80.6569 21.5019C80.9772 21.66 81.3283 21.7555 81.689 21.7827C82.0496 21.8099 82.4125 21.7682 82.7555 21.6602C83.0986 21.5522 83.4149 21.38 83.6852 21.1542L84.7752 17.2197Z" fill="#EB9481"/>
<path id="Vector_68" d="M81.0867 13.7646H81.0367C82.3667 15.1732 82.4767 17.023 82.2967 18.7977C82.2817 18.597 82.2207 18.4016 82.1179 18.225C82.0152 18.0483 81.873 17.8946 81.7012 17.7743C81.5294 17.6539 81.3319 17.5698 81.1223 17.5277C80.9127 17.4855 80.6959 17.4863 80.4867 17.5301C80.4367 17.5301 80.4367 17.624 80.4867 17.6428C80.8252 17.6895 81.1398 17.8339 81.3871 18.056C81.6343 18.2781 81.8019 18.5668 81.8667 18.8822C81.9671 19.4088 82.0074 19.944 81.9867 20.4786C81.9867 20.657 82.2967 20.7039 82.3267 20.4786C83.4267 18.5536 83.2467 15.0135 81.0867 13.7646Z" fill="#263238"/>
<path id="Vector_69" d="M88.2767 37.9993L81.8467 44.5724L75.5567 31.1445L71.3867 33.2573C71.3867 33.2573 75.1267 52.3662 75.4767 51.6901L81.5567 46.225L84.5567 52.6103L88.8567 40.8257L88.2767 37.9993Z" fill="#FFC727"/>
<path id="Vector_70" d="M87.0667 46.8641C87.7067 44.8921 88.4167 42.9202 88.9567 40.9295C88.9567 40.8638 88.8767 40.7887 88.8267 40.8638C87.6667 42.5728 85.2567 50.113 84.5367 51.869C84.4167 51.5967 81.6367 46.1692 81.5367 46.2349C80.3767 47.0331 75.9267 51.0051 75.5367 51.3901C74.9467 48.3571 72.5367 37.211 71.5367 34.2062C71.531 34.1918 71.5208 34.1794 71.5074 34.1707C71.494 34.1619 71.478 34.1572 71.4617 34.1572C71.4454 34.1572 71.4295 34.1619 71.416 34.1707C71.4026 34.1794 71.3924 34.1918 71.3867 34.2062C71.7367 37.3143 74.8967 52.2634 75.0267 52.2727C77.2647 50.4494 79.4008 48.5187 81.4267 46.4884C81.8167 47.5965 84.4267 53.531 84.5567 53.2493C85.5131 51.1641 86.3509 49.0327 87.0667 46.8641Z" fill="#263238"/>
<g id="arm">
<path id="Vector_71" d="M85.6912 70.828L84.0043 98.7189L115.758 99.8665L117.438 71.9826L85.6912 70.828ZM106.087 95.5321L88.1751 94.8801L89.3814 74.9057L107.293 75.5577L106.087 95.5321Z" fill="#263238"/>
<path id="Vector_72" d="M195.937 92.56L195.914 92.5145L195.243 94.347L195.137 94.3584L195.13 94.3521L194.384 92.6297L193.706 94.456L193.593 94.4611L192.846 92.7254L192.168 94.565L192.055 94.5701L191.315 92.8407L190.63 94.6607L190.524 94.6721L189.777 92.9364L189.1 94.776L188.987 94.7811L188.233 93.0524L187.548 94.8856L187.449 94.89L187.442 94.897L186.695 93.1613L186.017 94.9876L185.918 94.9921L185.164 93.2634L184.479 95.0966L184.381 95.101L184.374 95.108L183.627 93.3723L182.949 95.1986L182.85 95.203L182.836 95.2037L182.096 93.4744L181.411 95.3076L181.312 95.312L180.558 93.5833L179.873 95.4166L179.768 95.428L179.02 93.679L178.343 95.5186L178.23 95.5237L177.49 93.7943L176.805 95.6276L176.699 95.639L175.945 93.897L175.26 95.7302L175.161 95.7347L174.407 94.006L173.723 95.8392L173.631 95.85L172.87 94.1149L172.192 95.9412L172.086 95.9526L171.339 94.217L170.654 96.0502L170.549 96.0616L169.801 94.3259L169.124 96.1655L169.018 96.1769L168.264 94.4349L167.586 96.2612L167.48 96.2726L166.726 94.5439L166.041 96.3771L165.943 96.3816L165.188 94.6396L164.503 96.4728L164.398 96.4842L163.651 94.7486L162.973 96.5881L162.867 96.5995L162.113 94.8575L161.435 96.6971L161.33 96.7085L160.575 94.9665L159.898 96.8061L159.799 96.8105L159.045 95.0685L158.36 96.915L158.261 96.9195L157.507 95.1775L156.822 97.0107L156.723 97.0152L155.969 95.2865L155.292 97.126L155.193 97.1305L154.439 95.3885L153.754 97.2217L153.747 97.2287L153.648 97.2331L152.887 95.4981L152.209 97.3377L152.11 97.3421L151.356 95.6001L150.672 97.4466L150.573 97.4511L149.819 95.7091L149.141 97.5487L149.042 97.5531L148.288 95.8111L147.603 97.6576L147.504 97.6621L146.75 95.9201L146.073 97.7596L145.974 97.7641L145.219 96.0221L144.521 97.8693L144.436 97.8731L143.682 96.1311L142.983 97.9782L142.891 97.9757L142.144 96.2401L141.452 98.0803L141.354 98.0847L140.599 96.3427L139.915 98.1892L139.816 98.1937L139.062 96.4517L138.384 98.2913L138.278 98.3027L137.531 96.5537L136.846 98.4002L136.741 98.4116L135.986 96.6697L135.316 98.5023L135.21 98.5136L134.456 96.7717L133.764 98.6119L133.672 98.6226L132.918 96.8806L132.234 98.7272L132.142 98.7379L131.387 96.9827L130.696 98.8229L130.59 98.8343L129.836 97.0923L129.165 98.9382L129.06 98.9496L128.305 97.1943L127.62 99.0408L127.522 99.0452L126.767 97.3033L126.083 99.1498L125.991 99.1605L125.237 97.4186L124.552 99.2651L124.453 99.2562L123.699 97.5143L123.014 99.3608L122.916 99.3652L122.161 97.6232L121.477 99.4698L121.385 99.4805L120.63 97.7253L119.939 99.5787L119.847 99.5762L119.093 97.8342L118.402 99.6877L118.303 99.6922L117.548 97.9369L116.863 99.7834L115.756 99.8664L117.436 71.9824L196.654 78.4273L195.937 92.56Z" fill="#C7C7C7"/>
<g id="Group" opacity="0.3">
<path id="Vector_73" d="M143.232 74.0835L128.479 97.6062L127.671 98.8929L127.577 99.0435L127.52 99.046L126.766 97.3041L126.082 99.1506L125.99 99.1613L125.236 97.4194L124.551 99.2659L124.452 99.257L123.698 97.5151L123.013 99.3616L122.914 99.366L122.396 98.1655L137.775 73.6369L143.232 74.0835Z" fill="white"/>
<path id="Vector_74" d="M196.51 81.3006L196.002 91.2603L194.695 93.3409L194.383 92.6299L193.705 94.4562L193.592 94.4613L192.845 92.7256L192.168 94.5652L192.055 94.5703L191.315 92.8409L190.63 94.6609L190.524 94.6723L189.777 92.9366L189.099 94.7762L188.986 94.7813L188.605 93.9071L196.51 81.3006Z" fill="white"/>
<path id="Vector_75" d="M171.064 94.9618L170.653 96.0511L170.547 96.0625L170.471 95.893L171.064 94.9618Z" fill="white"/>
<path id="Vector_76" d="M187.624 77.6899L177.504 93.8346L177.423 93.9579L176.568 95.3332L175.944 93.898L175.259 95.7312L175.16 95.7357L174.406 94.007L173.721 95.8402L173.629 95.851L172.868 94.116L172.19 95.9422L172.085 95.9536L171.414 94.4008L182.16 77.2502L187.624 77.6899Z" fill="white"/>
<path id="Vector_77" d="M133.289 73.2729L117.654 98.1988L117.149 99.0129L116.658 99.7999L115.755 99.867L115.969 96.3057L130.553 73.0499L133.289 73.2729Z" fill="white"/>
<path id="Vector_78" d="M163.917 95.3691L163.65 94.7492L162.973 96.5887L162.867 96.6001L162.394 95.504L174.238 76.6081L175.605 76.7129L163.917 95.3691Z" fill="white"/>
<path id="Vector_79" d="M128.668 72.8959L116.178 92.8052L116.339 90.2706L127.293 72.7848L128.668 72.8959Z" fill="white"/>
</g>
<path id="Vector_80" d="M100.376 73.907C100.807 74.6553 100.981 75.5138 100.877 76.3674C100.772 77.2209 100.393 78.0287 99.7906 78.6822C101.161 79.3378 102.235 80.4284 102.828 81.765C103.751 84.1578 100.139 86.648 100.139 86.648C101.4 87.6084 102.32 88.9086 102.779 90.3804C103.412 92.7663 100.163 95.779 100.163 95.779C100.792 97.2731 100.827 98.9402 100.26 100.477C98.577 104.53 91.6694 105.845 87.2858 106.72C82.9021 107.595 69.6589 106.135 67.0993 106.117L61.3876 79.8885C61.3876 79.8885 79.946 70.701 85.2369 70.3569C89.6953 70.0635 98.6067 71.1132 100.376 73.907Z" fill="#EB9481"/>
<path id="Vector_81" d="M99.5039 78.3025C94.7086 77.5402 89.8999 78.1619 85.0834 78.5313C84.9705 78.5363 84.9827 78.702 85.0884 78.6907C89.8891 78.2688 94.6899 78.7515 99.4896 78.5226C99.5165 78.5182 99.5412 78.5052 99.5596 78.4859C99.5779 78.4665 99.5888 78.442 99.5905 78.4164C99.5921 78.3907 99.5845 78.3654 99.5687 78.3447C99.553 78.324 99.5301 78.3091 99.5039 78.3025Z" fill="#263238"/>
<path id="Vector_82" d="M99.9668 86.3298C98.8553 86.2533 97.7352 86.3171 96.6362 86.5193C95.4673 86.665 94.2988 86.8239 93.1312 87.0094C90.7953 87.3626 88.4686 87.7797 86.1509 88.2607C86.0525 88.2784 86.0502 88.4315 86.1627 88.4132C88.4916 88.0625 90.8571 87.7567 93.1667 87.4667C94.336 87.3343 95.5057 87.2153 96.6827 87.1026C97.796 87.0611 98.9031 86.9021 99.9832 86.6284C100.015 86.6149 100.042 86.5926 100.06 86.5647C100.078 86.5367 100.087 86.5043 100.085 86.4719C100.083 86.4394 100.071 86.4084 100.05 86.3831C100.029 86.3577 99.9997 86.3391 99.9668 86.3298Z" fill="#263238"/>
<path id="Vector_83" d="M100.033 95.7716C99.0246 95.7147 98.0098 95.8187 97.0316 96.0794L93.8244 96.5959C91.7004 96.9441 89.5693 97.2859 87.4509 97.5872C87.3525 97.605 87.3575 97.7644 87.47 97.746C89.6388 97.4757 91.8153 97.2249 93.9768 96.9482L97.1429 96.4735C98.1246 96.4175 99.0914 96.2008 99.9999 95.833C99.9999 95.833 100.083 95.776 100.033 95.7716Z" fill="#263238"/>
<path id="Vector_84" d="M52.162 53.1856C29.5527 76.1501 10.7611 107.723 23.2491 109.895C34.0313 111.772 65.6779 106.546 72.5789 105.019C76.4611 104.159 68.8142 76.4018 64.9525 78.1449C59.76 80.1272 54.449 81.8096 49.0495 83.1825C47.951 83.0922 57.5868 71.5918 62.6599 59.9838C68.1355 47.4598 62.8775 42.3019 52.162 53.1856Z" fill="#EB9481"/>
<path id="Vector_85" d="M55.6213 80.4138L44.9496 114.854C44.9496 114.854 28.7897 115.52 21.0111 110.003C13.2325 104.486 21.5922 83.3724 53.3531 50.3726C55.6003 48.0901 60.8906 42.9772 61.5479 43.6527C65.4055 47.6563 68.5212 52.1256 64.6806 60.1931C60.9584 67.89 56.371 75.2008 50.9983 81.9983L55.6213 80.4138Z" fill="#FFC727"/>
</g>
<path id="Vector_86" opacity="0.1" d="M31.043 115.404L47.1088 81.1079L54.2272 80.1503C54.2272 80.1503 43.344 115.875 42.8177 115.874C42.2914 115.874 31.043 115.404 31.043 115.404Z" fill="black"/>
</g>
</svg>
