<svg width="891" height="262" viewBox="0 0 891 262" fill="none" xmlns="http://www.w3.org/2000/svg">
<g id="stop-btn">
<g id="Frame 13">
<rect width="891" height="262" rx="33" fill="#5353B1"/>
<path id="You witness a man cutting down a tree! &#226;&#128;&#168;What do you want to do?" d="M116.317 90.8182H121.674L128.079 102.401H128.334L134.739 90.8182H140.096L130.571 107.233V117H125.841V107.233L116.317 90.8182ZM147.367 117.384C145.45 117.384 143.788 116.962 142.381 116.118C140.975 115.274 139.884 114.094 139.109 112.577C138.342 111.06 137.958 109.287 137.958 107.259C137.958 105.23 138.342 103.453 139.109 101.928C139.884 100.402 140.975 99.2173 142.381 98.3736C143.788 97.5298 145.45 97.108 147.367 97.108C149.285 97.108 150.947 97.5298 152.353 98.3736C153.759 99.2173 154.846 100.402 155.613 101.928C156.388 103.453 156.776 105.23 156.776 107.259C156.776 109.287 156.388 111.06 155.613 112.577C154.846 114.094 153.759 115.274 152.353 116.118C150.947 116.962 149.285 117.384 147.367 117.384ZM147.393 113.676C148.432 113.676 149.302 113.391 150.001 112.82C150.7 112.24 151.219 111.464 151.56 110.493C151.91 109.521 152.084 108.439 152.084 107.246C152.084 106.044 151.91 104.957 151.56 103.986C151.219 103.006 150.7 102.226 150.001 101.646C149.302 101.067 148.432 100.777 147.393 100.777C146.327 100.777 145.441 101.067 144.734 101.646C144.035 102.226 143.511 103.006 143.161 103.986C142.82 104.957 142.65 106.044 142.65 107.246C142.65 108.439 142.82 109.521 143.161 110.493C143.511 111.464 144.035 112.24 144.734 112.82C145.441 113.391 146.327 113.676 147.393 113.676ZM172.428 108.741V97.3636H177.056V117H172.568V113.51H172.364C171.921 114.609 171.192 115.509 170.178 116.207C169.172 116.906 167.932 117.256 166.458 117.256C165.171 117.256 164.033 116.97 163.044 116.399C162.064 115.82 161.297 114.98 160.743 113.881C160.189 112.773 159.912 111.435 159.912 109.866V97.3636H164.54V109.151C164.54 110.395 164.881 111.384 165.563 112.116C166.245 112.849 167.139 113.216 168.247 113.216C168.929 113.216 169.59 113.05 170.229 112.717C170.868 112.385 171.392 111.891 171.801 111.234C172.219 110.57 172.428 109.739 172.428 108.741ZM193.213 117L187.664 97.3636H192.382L195.833 111.17H196.012L199.541 97.3636H204.207L207.735 111.094H207.927L211.328 97.3636H216.058L210.497 117H205.677L201.995 103.73H201.727L198.045 117H193.213ZM218.497 117V97.3636H223.125V117H218.497ZM220.824 94.5767C220.091 94.5767 219.46 94.3338 218.932 93.848C218.403 93.3537 218.139 92.7614 218.139 92.071C218.139 91.3722 218.403 90.7798 218.932 90.294C219.46 89.7997 220.091 89.5526 220.824 89.5526C221.565 89.5526 222.196 89.7997 222.716 90.294C223.244 90.7798 223.508 91.3722 223.508 92.071C223.508 92.7614 223.244 93.3537 222.716 93.848C222.196 94.3338 221.565 94.5767 220.824 94.5767ZM236.897 97.3636V100.943H225.609V97.3636H236.897ZM228.396 92.6591H233.024V111.094C233.024 111.716 233.117 112.193 233.305 112.526C233.501 112.849 233.757 113.071 234.072 113.19C234.387 113.31 234.737 113.369 235.12 113.369C235.41 113.369 235.674 113.348 235.913 113.305C236.16 113.263 236.347 113.224 236.475 113.19L237.255 116.808C237.008 116.893 236.654 116.987 236.194 117.089C235.742 117.192 235.188 117.251 234.532 117.268C233.373 117.303 232.329 117.128 231.4 116.744C230.471 116.352 229.734 115.747 229.188 114.929C228.651 114.111 228.387 113.088 228.396 111.861V92.6591ZM244.603 105.494V117H239.976V97.3636H244.399V100.7H244.629C245.081 99.6009 245.801 98.7273 246.79 98.0795C247.787 97.4318 249.018 97.108 250.484 97.108C251.839 97.108 253.02 97.3977 254.025 97.9773C255.04 98.5568 255.824 99.3963 256.378 100.496C256.94 101.595 257.217 102.929 257.209 104.497V117H252.581V105.213C252.581 103.901 252.24 102.874 251.558 102.132C250.885 101.391 249.951 101.02 248.758 101.02C247.949 101.02 247.228 101.199 246.598 101.557C245.976 101.906 245.486 102.413 245.128 103.078C244.778 103.743 244.603 104.548 244.603 105.494ZM269.814 117.384C267.846 117.384 266.145 116.974 264.713 116.156C263.29 115.33 262.195 114.162 261.428 112.653C260.661 111.136 260.277 109.351 260.277 107.297C260.277 105.277 260.661 103.504 261.428 101.979C262.203 100.445 263.286 99.2514 264.675 98.3991C266.064 97.5384 267.696 97.108 269.571 97.108C270.782 97.108 271.924 97.304 272.998 97.696C274.08 98.0795 275.034 98.6761 275.861 99.4858C276.696 100.295 277.353 101.327 277.83 102.58C278.307 103.824 278.546 105.307 278.546 107.028V108.447H262.451V105.328H274.11C274.101 104.442 273.909 103.653 273.534 102.963C273.159 102.264 272.635 101.714 271.962 101.314C271.297 100.913 270.522 100.713 269.635 100.713C268.689 100.713 267.858 100.943 267.142 101.403C266.426 101.855 265.868 102.452 265.468 103.193C265.076 103.926 264.875 104.732 264.867 105.609V108.332C264.867 109.474 265.076 110.455 265.493 111.273C265.911 112.082 266.495 112.705 267.245 113.139C267.995 113.565 268.873 113.778 269.878 113.778C270.551 113.778 271.161 113.685 271.706 113.497C272.252 113.301 272.725 113.016 273.125 112.641C273.526 112.266 273.828 111.801 274.033 111.247L278.354 111.733C278.081 112.875 277.561 113.872 276.794 114.724C276.036 115.568 275.064 116.224 273.88 116.693C272.695 117.153 271.34 117.384 269.814 117.384ZM297.189 102.554L292.97 103.014C292.851 102.588 292.642 102.188 292.344 101.812C292.054 101.438 291.662 101.135 291.168 100.905C290.673 100.675 290.068 100.56 289.352 100.56C288.389 100.56 287.579 100.768 286.923 101.186C286.275 101.604 285.956 102.145 285.964 102.81C285.956 103.381 286.165 103.845 286.591 104.203C287.025 104.561 287.741 104.855 288.739 105.085L292.088 105.801C293.946 106.202 295.327 106.837 296.23 107.706C297.142 108.575 297.602 109.713 297.611 111.119C297.602 112.355 297.24 113.446 296.524 114.392C295.817 115.33 294.832 116.062 293.571 116.591C292.31 117.119 290.861 117.384 289.224 117.384C286.821 117.384 284.886 116.881 283.42 115.875C281.954 114.861 281.081 113.45 280.8 111.643L285.312 111.209C285.517 112.095 285.952 112.764 286.616 113.216C287.281 113.668 288.146 113.893 289.212 113.893C290.311 113.893 291.193 113.668 291.858 113.216C292.531 112.764 292.868 112.206 292.868 111.541C292.868 110.979 292.65 110.514 292.216 110.148C291.79 109.781 291.125 109.5 290.221 109.304L286.872 108.601C284.989 108.209 283.595 107.548 282.692 106.619C281.788 105.682 281.341 104.497 281.349 103.065C281.341 101.855 281.669 100.807 282.334 99.9205C283.007 99.0256 283.94 98.3352 285.133 97.8494C286.335 97.3551 287.72 97.108 289.288 97.108C291.589 97.108 293.4 97.598 294.721 98.5781C296.051 99.5582 296.873 100.884 297.189 102.554ZM316.155 102.554L311.936 103.014C311.817 102.588 311.608 102.188 311.309 101.812C311.02 101.438 310.628 101.135 310.133 100.905C309.639 100.675 309.034 100.56 308.318 100.56C307.355 100.56 306.545 100.768 305.889 101.186C305.241 101.604 304.922 102.145 304.93 102.81C304.922 103.381 305.13 103.845 305.557 104.203C305.991 104.561 306.707 104.855 307.704 105.085L311.054 105.801C312.912 106.202 314.292 106.837 315.196 107.706C316.108 108.575 316.568 109.713 316.577 111.119C316.568 112.355 316.206 113.446 315.49 114.392C314.782 115.33 313.798 116.062 312.537 116.591C311.275 117.119 309.827 117.384 308.19 117.384C305.787 117.384 303.852 116.881 302.386 115.875C300.92 114.861 300.047 113.45 299.765 111.643L304.278 111.209C304.483 112.095 304.917 112.764 305.582 113.216C306.247 113.668 307.112 113.893 308.177 113.893C309.277 113.893 310.159 113.668 310.824 113.216C311.497 112.764 311.834 112.206 311.834 111.541C311.834 110.979 311.616 110.514 311.182 110.148C310.755 109.781 310.091 109.5 309.187 109.304L305.838 108.601C303.954 108.209 302.561 107.548 301.657 106.619C300.754 105.682 300.307 104.497 300.315 103.065C300.307 101.855 300.635 100.807 301.3 99.9205C301.973 99.0256 302.906 98.3352 304.099 97.8494C305.301 97.3551 306.686 97.108 308.254 97.108C310.555 97.108 312.366 97.598 313.687 98.5781C315.017 99.5582 315.839 100.884 316.155 102.554ZM333.389 117.396C332.145 117.396 331.024 117.175 330.027 116.732C329.038 116.28 328.254 115.615 327.674 114.737C327.103 113.859 326.818 112.777 326.818 111.49C326.818 110.382 327.022 109.466 327.431 108.741C327.841 108.017 328.399 107.438 329.106 107.003C329.814 106.568 330.61 106.24 331.497 106.018C332.392 105.788 333.316 105.622 334.271 105.52C335.421 105.401 336.355 105.294 337.071 105.2C337.787 105.098 338.306 104.945 338.63 104.74C338.963 104.527 339.129 104.199 339.129 103.756V103.679C339.129 102.716 338.843 101.97 338.272 101.442C337.701 100.913 336.879 100.649 335.805 100.649C334.671 100.649 333.772 100.896 333.108 101.391C332.451 101.885 332.008 102.469 331.778 103.142L327.457 102.528C327.798 101.335 328.36 100.338 329.145 99.5369C329.929 98.7273 330.887 98.1222 332.021 97.7216C333.154 97.3125 334.407 97.108 335.779 97.108C336.725 97.108 337.667 97.2188 338.605 97.4403C339.542 97.6619 340.399 98.0284 341.174 98.5398C341.95 99.0426 342.572 99.7287 343.041 100.598C343.518 101.467 343.757 102.554 343.757 103.858V117H339.308V114.303H339.154C338.873 114.848 338.477 115.359 337.966 115.837C337.463 116.305 336.828 116.685 336.061 116.974C335.302 117.256 334.412 117.396 333.389 117.396ZM334.591 113.996C335.52 113.996 336.325 113.812 337.007 113.446C337.689 113.071 338.213 112.577 338.579 111.963C338.954 111.349 339.142 110.68 339.142 109.956V107.642C338.997 107.761 338.75 107.872 338.4 107.974C338.059 108.077 337.676 108.166 337.25 108.243C336.823 108.32 336.402 108.388 335.984 108.447C335.566 108.507 335.204 108.558 334.897 108.601C334.207 108.695 333.589 108.848 333.044 109.061C332.498 109.274 332.068 109.572 331.752 109.956C331.437 110.331 331.279 110.817 331.279 111.413C331.279 112.266 331.591 112.909 332.213 113.344C332.835 113.778 333.627 113.996 334.591 113.996ZM355.756 117V97.3636H360.179V100.7H360.409C360.818 99.5753 361.496 98.6974 362.442 98.0668C363.388 97.4276 364.517 97.108 365.83 97.108C367.159 97.108 368.28 97.4318 369.192 98.0795C370.112 98.7187 370.76 99.5923 371.135 100.7H371.34C371.774 99.6094 372.507 98.7401 373.538 98.0923C374.578 97.4361 375.81 97.108 377.233 97.108C379.04 97.108 380.514 97.679 381.656 98.821C382.798 99.9631 383.369 101.629 383.369 103.82V117H378.729V104.536C378.729 103.317 378.405 102.426 377.757 101.864C377.11 101.293 376.317 101.007 375.379 101.007C374.263 101.007 373.389 101.357 372.759 102.055C372.136 102.746 371.825 103.645 371.825 104.753V117H367.287V104.344C367.287 103.33 366.98 102.52 366.367 101.915C365.761 101.31 364.969 101.007 363.989 101.007C363.324 101.007 362.719 101.178 362.173 101.518C361.628 101.851 361.193 102.324 360.869 102.938C360.546 103.543 360.384 104.25 360.384 105.06V117H355.756ZM392.923 117.396C391.679 117.396 390.558 117.175 389.561 116.732C388.572 116.28 387.788 115.615 387.208 114.737C386.637 113.859 386.352 112.777 386.352 111.49C386.352 110.382 386.556 109.466 386.966 108.741C387.375 108.017 387.933 107.438 388.64 107.003C389.348 106.568 390.145 106.24 391.031 106.018C391.926 105.788 392.851 105.622 393.805 105.52C394.956 105.401 395.889 105.294 396.605 105.2C397.321 105.098 397.841 104.945 398.164 104.74C398.497 104.527 398.663 104.199 398.663 103.756V103.679C398.663 102.716 398.378 101.97 397.806 101.442C397.235 100.913 396.413 100.649 395.339 100.649C394.206 100.649 393.306 100.896 392.642 101.391C391.985 101.885 391.542 102.469 391.312 103.142L386.991 102.528C387.332 101.335 387.895 100.338 388.679 99.5369C389.463 98.7273 390.422 98.1222 391.555 97.7216C392.689 97.3125 393.941 97.108 395.314 97.108C396.26 97.108 397.201 97.2188 398.139 97.4403C399.076 97.6619 399.933 98.0284 400.708 98.5398C401.484 99.0426 402.106 99.7287 402.575 100.598C403.052 101.467 403.291 102.554 403.291 103.858V117H398.842V114.303H398.689C398.407 114.848 398.011 115.359 397.5 115.837C396.997 116.305 396.362 116.685 395.595 116.974C394.836 117.256 393.946 117.396 392.923 117.396ZM394.125 113.996C395.054 113.996 395.859 113.812 396.541 113.446C397.223 113.071 397.747 112.577 398.113 111.963C398.488 111.349 398.676 110.68 398.676 109.956V107.642C398.531 107.761 398.284 107.872 397.934 107.974C397.593 108.077 397.21 108.166 396.784 108.243C396.358 108.32 395.936 108.388 395.518 108.447C395.101 108.507 394.738 108.558 394.431 108.601C393.741 108.695 393.123 108.848 392.578 109.061C392.032 109.274 391.602 109.572 391.287 109.956C390.971 110.331 390.814 110.817 390.814 111.413C390.814 112.266 391.125 112.909 391.747 113.344C392.369 113.778 393.162 113.996 394.125 113.996ZM411.78 105.494V117H407.152V97.3636H411.576V100.7H411.806C412.257 99.6009 412.978 98.7273 413.966 98.0795C414.963 97.4318 416.195 97.108 417.661 97.108C419.016 97.108 420.196 97.3977 421.202 97.9773C422.216 98.5568 423 99.3963 423.554 100.496C424.117 101.595 424.394 102.929 424.385 104.497V117H419.757V105.213C419.757 103.901 419.416 102.874 418.735 102.132C418.061 101.391 417.128 101.02 415.935 101.02C415.125 101.02 414.405 101.199 413.774 101.557C413.152 101.906 412.662 102.413 412.304 103.078C411.955 103.743 411.78 104.548 411.78 105.494ZM445.001 117.384C443.041 117.384 441.357 116.953 439.951 116.092C438.553 115.232 437.475 114.043 436.717 112.526C435.967 111 435.592 109.244 435.592 107.259C435.592 105.264 435.975 103.504 436.742 101.979C437.509 100.445 438.592 99.2514 439.989 98.3991C441.396 97.5384 443.058 97.108 444.975 97.108C446.569 97.108 447.979 97.402 449.207 97.9901C450.443 98.5696 451.427 99.392 452.16 100.457C452.893 101.514 453.31 102.75 453.413 104.165H448.989C448.81 103.219 448.384 102.43 447.711 101.8C447.046 101.161 446.156 100.841 445.039 100.841C444.093 100.841 443.262 101.097 442.546 101.608C441.83 102.111 441.272 102.835 440.872 103.781C440.479 104.727 440.283 105.861 440.283 107.182C440.283 108.52 440.479 109.67 440.872 110.634C441.264 111.588 441.813 112.325 442.521 112.845C443.237 113.357 444.076 113.612 445.039 113.612C445.721 113.612 446.33 113.484 446.867 113.229C447.413 112.964 447.869 112.585 448.235 112.091C448.602 111.597 448.853 110.996 448.989 110.288H453.413C453.302 111.678 452.893 112.909 452.185 113.983C451.478 115.048 450.515 115.884 449.296 116.489C448.078 117.085 446.646 117.384 445.001 117.384ZM468.936 108.741V97.3636H473.564V117H469.077V113.51H468.873C468.429 114.609 467.701 115.509 466.686 116.207C465.681 116.906 464.441 117.256 462.966 117.256C461.679 117.256 460.542 116.97 459.553 116.399C458.573 115.82 457.806 114.98 457.252 113.881C456.698 112.773 456.421 111.435 456.421 109.866V97.3636H461.049V109.151C461.049 110.395 461.39 111.384 462.071 112.116C462.753 112.849 463.648 113.216 464.756 113.216C465.438 113.216 466.098 113.05 466.738 112.717C467.377 112.385 467.901 111.891 468.31 111.234C468.728 110.57 468.936 109.739 468.936 108.741ZM487.337 97.3636V100.943H476.048V97.3636H487.337ZM478.835 92.6591H483.463V111.094C483.463 111.716 483.557 112.193 483.744 112.526C483.94 112.849 484.196 113.071 484.511 113.19C484.827 113.31 485.176 113.369 485.56 113.369C485.849 113.369 486.114 113.348 486.352 113.305C486.599 113.263 486.787 113.224 486.915 113.19L487.695 116.808C487.447 116.893 487.094 116.987 486.633 117.089C486.182 117.192 485.628 117.251 484.972 117.268C483.812 117.303 482.768 117.128 481.839 116.744C480.91 116.352 480.173 115.747 479.628 114.929C479.091 114.111 478.827 113.088 478.835 111.861V92.6591ZM500.22 97.3636V100.943H488.932V97.3636H500.22ZM491.719 92.6591H496.347V111.094C496.347 111.716 496.441 112.193 496.628 112.526C496.824 112.849 497.08 113.071 497.395 113.19C497.71 113.31 498.06 113.369 498.443 113.369C498.733 113.369 498.997 113.348 499.236 113.305C499.483 113.263 499.671 113.224 499.798 113.19L500.578 116.808C500.331 116.893 499.977 116.987 499.517 117.089C499.066 117.192 498.512 117.251 497.855 117.268C496.696 117.303 495.652 117.128 494.723 116.744C493.794 116.352 493.057 115.747 492.512 114.929C491.975 114.111 491.71 113.088 491.719 111.861V92.6591ZM503.299 117V97.3636H507.927V117H503.299ZM505.625 94.5767C504.892 94.5767 504.262 94.3338 503.733 93.848C503.205 93.3537 502.941 92.7614 502.941 92.071C502.941 91.3722 503.205 90.7798 503.733 90.294C504.262 89.7997 504.892 89.5526 505.625 89.5526C506.367 89.5526 506.998 89.7997 507.517 90.294C508.046 90.7798 508.31 91.3722 508.31 92.071C508.31 92.7614 508.046 93.3537 507.517 93.848C506.998 94.3338 506.367 94.5767 505.625 94.5767ZM516.521 105.494V117H511.893V97.3636H516.317V100.7H516.547C516.999 99.6009 517.719 98.7273 518.707 98.0795C519.705 97.4318 520.936 97.108 522.402 97.108C523.757 97.108 524.937 97.3977 525.943 97.9773C526.957 98.5568 527.741 99.3963 528.295 100.496C528.858 101.595 529.135 102.929 529.126 104.497V117H524.499V105.213C524.499 103.901 524.158 102.874 523.476 102.132C522.803 101.391 521.869 101.02 520.676 101.02C519.866 101.02 519.146 101.199 518.516 101.557C517.893 101.906 517.403 102.413 517.045 103.078C516.696 103.743 516.521 104.548 516.521 105.494ZM541.579 124.773C539.917 124.773 538.489 124.547 537.296 124.095C536.103 123.652 535.144 123.055 534.42 122.305C533.695 121.555 533.192 120.724 532.911 119.812L537.079 118.803C537.266 119.186 537.539 119.565 537.897 119.94C538.255 120.324 538.736 120.639 539.342 120.886C539.955 121.142 540.726 121.27 541.655 121.27C542.968 121.27 544.055 120.95 544.915 120.311C545.776 119.68 546.207 118.641 546.207 117.192V113.472H545.976C545.738 113.949 545.388 114.439 544.928 114.942C544.476 115.445 543.876 115.866 543.126 116.207C542.384 116.548 541.451 116.719 540.326 116.719C538.817 116.719 537.449 116.365 536.222 115.658C535.003 114.942 534.032 113.876 533.307 112.462C532.592 111.038 532.234 109.257 532.234 107.118C532.234 104.962 532.592 103.142 533.307 101.659C534.032 100.168 535.008 99.0384 536.235 98.2713C537.462 97.4957 538.83 97.108 540.339 97.108C541.489 97.108 542.435 97.304 543.177 97.696C543.927 98.0795 544.523 98.544 544.966 99.0895C545.41 99.6264 545.746 100.134 545.976 100.611H546.232V97.3636H550.796V117.32C550.796 118.999 550.395 120.388 549.594 121.487C548.793 122.587 547.698 123.409 546.309 123.955C544.92 124.5 543.343 124.773 541.579 124.773ZM541.617 113.088C542.597 113.088 543.432 112.849 544.123 112.372C544.813 111.895 545.337 111.209 545.695 110.314C546.053 109.419 546.232 108.345 546.232 107.092C546.232 105.857 546.053 104.774 545.695 103.845C545.346 102.916 544.826 102.196 544.136 101.685C543.454 101.165 542.614 100.905 541.617 100.905C540.586 100.905 539.725 101.173 539.035 101.71C538.344 102.247 537.824 102.984 537.475 103.922C537.126 104.851 536.951 105.908 536.951 107.092C536.951 108.294 537.126 109.347 537.475 110.25C537.833 111.145 538.357 111.844 539.047 112.347C539.746 112.841 540.603 113.088 541.617 113.088ZM570.172 117.345C568.629 117.345 567.248 116.949 566.03 116.156C564.811 115.364 563.848 114.213 563.14 112.705C562.433 111.196 562.079 109.364 562.079 107.207C562.079 105.026 562.437 103.185 563.153 101.685C563.878 100.176 564.853 99.0384 566.081 98.2713C567.308 97.4957 568.676 97.108 570.184 97.108C571.335 97.108 572.281 97.304 573.022 97.696C573.764 98.0795 574.352 98.544 574.787 99.0895C575.221 99.6264 575.558 100.134 575.797 100.611H575.988V90.8182H580.629V117H576.078V113.906H575.797C575.558 114.384 575.213 114.891 574.761 115.428C574.309 115.956 573.713 116.408 572.971 116.783C572.23 117.158 571.297 117.345 570.172 117.345ZM571.463 113.548C572.443 113.548 573.278 113.284 573.968 112.756C574.659 112.219 575.183 111.473 575.541 110.518C575.899 109.564 576.078 108.452 576.078 107.182C576.078 105.912 575.899 104.808 575.541 103.871C575.191 102.933 574.672 102.205 573.981 101.685C573.299 101.165 572.46 100.905 571.463 100.905C570.431 100.905 569.571 101.173 568.88 101.71C568.19 102.247 567.67 102.989 567.321 103.935C566.971 104.881 566.797 105.963 566.797 107.182C566.797 108.409 566.971 109.504 567.321 110.467C567.679 111.422 568.203 112.176 568.893 112.73C569.592 113.276 570.449 113.548 571.463 113.548ZM593.334 117.384C591.416 117.384 589.754 116.962 588.348 116.118C586.942 115.274 585.851 114.094 585.075 112.577C584.308 111.06 583.925 109.287 583.925 107.259C583.925 105.23 584.308 103.453 585.075 101.928C585.851 100.402 586.942 99.2173 588.348 98.3736C589.754 97.5298 591.416 97.108 593.334 97.108C595.251 97.108 596.913 97.5298 598.32 98.3736C599.726 99.2173 600.812 100.402 601.579 101.928C602.355 103.453 602.743 105.23 602.743 107.259C602.743 109.287 602.355 111.06 601.579 112.577C600.812 114.094 599.726 115.274 598.32 116.118C596.913 116.962 595.251 117.384 593.334 117.384ZM593.359 113.676C594.399 113.676 595.268 113.391 595.967 112.82C596.666 112.24 597.186 111.464 597.527 110.493C597.876 109.521 598.051 108.439 598.051 107.246C598.051 106.044 597.876 104.957 597.527 103.986C597.186 103.006 596.666 102.226 595.967 101.646C595.268 101.067 594.399 100.777 593.359 100.777C592.294 100.777 591.408 101.067 590.7 101.646C590.001 102.226 589.477 103.006 589.128 103.986C588.787 104.957 588.616 106.044 588.616 107.246C588.616 108.439 588.787 109.521 589.128 110.493C589.477 111.464 590.001 112.24 590.7 112.82C591.408 113.391 592.294 113.676 593.359 113.676ZM609.369 117L603.821 97.3636H608.538L611.99 111.17H612.169L615.697 97.3636H620.363L623.892 111.094H624.083L627.484 97.3636H632.214L626.653 117H621.833L618.151 103.73H617.883L614.201 117H609.369ZM639.281 105.494V117H634.653V97.3636H639.076V100.7H639.307C639.758 99.6009 640.478 98.7273 641.467 98.0795C642.464 97.4318 643.696 97.108 645.162 97.108C646.517 97.108 647.697 97.3977 648.703 97.9773C649.717 98.5568 650.501 99.3963 651.055 100.496C651.618 101.595 651.895 102.929 651.886 104.497V117H647.258V105.213C647.258 103.901 646.917 102.874 646.235 102.132C645.562 101.391 644.629 101.02 643.436 101.02C642.626 101.02 641.906 101.199 641.275 101.557C640.653 101.906 640.163 102.413 639.805 103.078C639.456 103.743 639.281 104.548 639.281 105.494ZM669.587 117.396C668.343 117.396 667.222 117.175 666.225 116.732C665.236 116.28 664.452 115.615 663.872 114.737C663.301 113.859 663.016 112.777 663.016 111.49C663.016 110.382 663.22 109.466 663.629 108.741C664.039 108.017 664.597 107.438 665.304 107.003C666.012 106.568 666.808 106.24 667.695 106.018C668.59 105.788 669.514 105.622 670.469 105.52C671.62 105.401 672.553 105.294 673.269 105.2C673.985 105.098 674.504 104.945 674.828 104.74C675.161 104.527 675.327 104.199 675.327 103.756V103.679C675.327 102.716 675.041 101.97 674.47 101.442C673.899 100.913 673.077 100.649 672.003 100.649C670.87 100.649 669.97 100.896 669.306 101.391C668.649 101.885 668.206 102.469 667.976 103.142L663.655 102.528C663.996 101.335 664.558 100.338 665.343 99.5369C666.127 98.7273 667.085 98.1222 668.219 97.7216C669.353 97.3125 670.605 97.108 671.978 97.108C672.924 97.108 673.865 97.2188 674.803 97.4403C675.74 97.6619 676.597 98.0284 677.372 98.5398C678.148 99.0426 678.77 99.7287 679.239 100.598C679.716 101.467 679.955 102.554 679.955 103.858V117H675.506V114.303H675.353C675.071 114.848 674.675 115.359 674.164 115.837C673.661 116.305 673.026 116.685 672.259 116.974C671.5 117.256 670.61 117.396 669.587 117.396ZM670.789 113.996C671.718 113.996 672.523 113.812 673.205 113.446C673.887 113.071 674.411 112.577 674.777 111.963C675.152 111.349 675.34 110.68 675.34 109.956V107.642C675.195 107.761 674.948 107.872 674.598 107.974C674.257 108.077 673.874 108.166 673.448 108.243C673.022 108.32 672.6 108.388 672.182 108.447C671.764 108.507 671.402 108.558 671.095 108.601C670.405 108.695 669.787 108.848 669.242 109.061C668.696 109.274 668.266 109.572 667.951 109.956C667.635 110.331 667.478 110.817 667.478 111.413C667.478 112.266 667.789 112.909 668.411 113.344C669.033 113.778 669.826 113.996 670.789 113.996ZM701.759 97.3636V100.943H690.471V97.3636H701.759ZM693.258 92.6591H697.886V111.094C697.886 111.716 697.979 112.193 698.167 112.526C698.363 112.849 698.619 113.071 698.934 113.19C699.249 113.31 699.599 113.369 699.982 113.369C700.272 113.369 700.536 113.348 700.775 113.305C701.022 113.263 701.21 113.224 701.337 113.19L702.117 116.808C701.87 116.893 701.516 116.987 701.056 117.089C700.604 117.192 700.05 117.251 699.394 117.268C698.235 117.303 697.191 117.128 696.262 116.744C695.333 116.352 694.596 115.747 694.05 114.929C693.514 114.111 693.249 113.088 693.258 111.861V92.6591ZM704.838 117V97.3636H709.325V100.636H709.529C709.887 99.5028 710.501 98.6293 711.37 98.0156C712.248 97.3935 713.25 97.0824 714.375 97.0824C714.63 97.0824 714.916 97.0952 715.231 97.1207C715.555 97.1378 715.823 97.1676 716.037 97.2102V101.467C715.841 101.399 715.529 101.339 715.103 101.288C714.686 101.229 714.281 101.199 713.889 101.199C713.045 101.199 712.287 101.382 711.613 101.749C710.948 102.107 710.424 102.605 710.041 103.244C709.657 103.884 709.466 104.621 709.466 105.456V117H704.838ZM726.204 117.384C724.235 117.384 722.535 116.974 721.103 116.156C719.68 115.33 718.584 114.162 717.817 112.653C717.05 111.136 716.667 109.351 716.667 107.297C716.667 105.277 717.05 103.504 717.817 101.979C718.593 100.445 719.675 99.2514 721.065 98.3991C722.454 97.5384 724.086 97.108 725.961 97.108C727.171 97.108 728.313 97.304 729.387 97.696C730.469 98.0795 731.424 98.6761 732.251 99.4858C733.086 100.295 733.742 101.327 734.219 102.58C734.697 103.824 734.935 105.307 734.935 107.028V108.447H718.84V105.328H730.499C730.491 104.442 730.299 103.653 729.924 102.963C729.549 102.264 729.025 101.714 728.351 101.314C727.687 100.913 726.911 100.713 726.025 100.713C725.079 100.713 724.248 100.943 723.532 101.403C722.816 101.855 722.258 102.452 721.857 103.193C721.465 103.926 721.265 104.732 721.256 105.609V108.332C721.256 109.474 721.465 110.455 721.883 111.273C722.3 112.082 722.884 112.705 723.634 113.139C724.384 113.565 725.262 113.778 726.268 113.778C726.941 113.778 727.55 113.685 728.096 113.497C728.641 113.301 729.114 113.016 729.515 112.641C729.915 112.266 730.218 111.801 730.422 111.247L734.743 111.733C734.471 112.875 733.951 113.872 733.184 114.724C732.425 115.568 731.454 116.224 730.269 116.693C729.084 117.153 727.729 117.384 726.204 117.384ZM746.752 117.384C744.783 117.384 743.083 116.974 741.651 116.156C740.227 115.33 739.132 114.162 738.365 112.653C737.598 111.136 737.215 109.351 737.215 107.297C737.215 105.277 737.598 103.504 738.365 101.979C739.141 100.445 740.223 99.2514 741.612 98.3991C743.002 97.5384 744.634 97.108 746.509 97.108C747.719 97.108 748.861 97.304 749.935 97.696C751.017 98.0795 751.972 98.6761 752.798 99.4858C753.634 100.295 754.29 101.327 754.767 102.58C755.244 103.824 755.483 105.307 755.483 107.028V108.447H739.388V105.328H751.047C751.038 104.442 750.847 103.653 750.472 102.963C750.097 102.264 749.573 101.714 748.899 101.314C748.235 100.913 747.459 100.713 746.573 100.713C745.627 100.713 744.796 100.943 744.08 101.403C743.364 101.855 742.806 102.452 742.405 103.193C742.013 103.926 741.813 104.732 741.804 105.609V108.332C741.804 109.474 742.013 110.455 742.431 111.273C742.848 112.082 743.432 112.705 744.182 113.139C744.932 113.565 745.81 113.778 746.815 113.778C747.489 113.778 748.098 113.685 748.644 113.497C749.189 113.301 749.662 113.016 750.063 112.641C750.463 112.266 750.766 111.801 750.97 111.247L755.291 111.733C755.019 112.875 754.499 113.872 753.732 114.724C752.973 115.568 752.002 116.224 750.817 116.693C749.632 117.153 748.277 117.384 746.752 117.384ZM764.27 90.8182L763.848 109.304H759.731L759.322 90.8182H764.27ZM761.789 117.281C761.014 117.281 760.349 117.009 759.795 116.463C759.25 115.918 758.977 115.253 758.977 114.469C758.977 113.702 759.25 113.045 759.795 112.5C760.349 111.955 761.014 111.682 761.789 111.682C762.548 111.682 763.204 111.955 763.758 112.5C764.321 113.045 764.602 113.702 764.602 114.469C764.602 114.989 764.47 115.462 764.206 115.888C763.95 116.314 763.609 116.655 763.183 116.911C762.765 117.158 762.301 117.281 761.789 117.281ZM246.445 171L239.056 144.818H244.157L248.874 164.058H249.117L254.154 144.818H258.794L263.844 164.071H264.074L268.792 144.818H273.892L266.503 171H261.824L256.583 152.629H256.378L251.124 171H246.445ZM280.812 159.494V171H276.185V144.818H280.71V154.7H280.94C281.4 153.592 282.112 152.719 283.075 152.08C284.047 151.432 285.283 151.108 286.783 151.108C288.146 151.108 289.335 151.393 290.349 151.964C291.364 152.536 292.148 153.371 292.702 154.47C293.264 155.57 293.545 156.912 293.545 158.497V171H288.918V159.213C288.918 157.892 288.577 156.865 287.895 156.132C287.222 155.391 286.275 155.02 285.057 155.02C284.239 155.02 283.506 155.199 282.858 155.557C282.219 155.906 281.716 156.413 281.349 157.078C280.991 157.743 280.812 158.548 280.812 159.494ZM303.121 171.396C301.877 171.396 300.756 171.175 299.759 170.732C298.77 170.28 297.986 169.615 297.407 168.737C296.836 167.859 296.55 166.777 296.55 165.49C296.55 164.382 296.755 163.466 297.164 162.741C297.573 162.017 298.131 161.438 298.839 161.003C299.546 160.568 300.343 160.24 301.229 160.018C302.124 159.788 303.049 159.622 304.003 159.52C305.154 159.401 306.087 159.294 306.803 159.2C307.519 159.098 308.039 158.945 308.363 158.74C308.695 158.527 308.861 158.199 308.861 157.756V157.679C308.861 156.716 308.576 155.97 308.005 155.442C307.434 154.913 306.611 154.649 305.537 154.649C304.404 154.649 303.505 154.896 302.84 155.391C302.184 155.885 301.741 156.469 301.51 157.142L297.189 156.528C297.53 155.335 298.093 154.338 298.877 153.537C299.661 152.727 300.62 152.122 301.753 151.722C302.887 151.312 304.14 151.108 305.512 151.108C306.458 151.108 307.4 151.219 308.337 151.44C309.275 151.662 310.131 152.028 310.907 152.54C311.682 153.043 312.304 153.729 312.773 154.598C313.251 155.467 313.489 156.554 313.489 157.858V171H309.04V168.303H308.887C308.606 168.848 308.209 169.359 307.698 169.837C307.195 170.305 306.56 170.685 305.793 170.974C305.035 171.256 304.144 171.396 303.121 171.396ZM304.323 167.996C305.252 167.996 306.057 167.812 306.739 167.446C307.421 167.071 307.945 166.577 308.312 165.963C308.687 165.349 308.874 164.68 308.874 163.956V161.642C308.729 161.761 308.482 161.872 308.133 161.974C307.792 162.077 307.408 162.166 306.982 162.243C306.556 162.32 306.134 162.388 305.716 162.447C305.299 162.507 304.937 162.558 304.63 162.601C303.939 162.695 303.322 162.848 302.776 163.061C302.231 163.274 301.8 163.572 301.485 163.956C301.17 164.331 301.012 164.817 301.012 165.413C301.012 166.266 301.323 166.909 301.945 167.344C302.567 167.778 303.36 167.996 304.323 167.996ZM327.156 151.364V154.943H315.868V151.364H327.156ZM318.655 146.659H323.282V165.094C323.282 165.716 323.376 166.193 323.564 166.526C323.76 166.849 324.015 167.071 324.331 167.19C324.646 167.31 324.995 167.369 325.379 167.369C325.669 167.369 325.933 167.348 326.172 167.305C326.419 167.263 326.606 167.224 326.734 167.19L327.514 170.808C327.267 170.893 326.913 170.987 326.453 171.089C326.001 171.192 325.447 171.251 324.791 171.268C323.632 171.303 322.588 171.128 321.659 170.744C320.73 170.352 319.993 169.747 319.447 168.929C318.91 168.111 318.646 167.088 318.655 165.861V146.659ZM345.659 171.345C344.116 171.345 342.736 170.949 341.517 170.156C340.298 169.364 339.335 168.213 338.628 166.705C337.92 165.196 337.567 163.364 337.567 161.207C337.567 159.026 337.925 157.185 338.641 155.685C339.365 154.176 340.341 153.038 341.568 152.271C342.795 151.496 344.163 151.108 345.672 151.108C346.822 151.108 347.768 151.304 348.51 151.696C349.251 152.08 349.839 152.544 350.274 153.089C350.709 153.626 351.045 154.134 351.284 154.611H351.476V144.818H356.116V171H351.565V167.906H351.284C351.045 168.384 350.7 168.891 350.248 169.428C349.797 169.956 349.2 170.408 348.459 170.783C347.717 171.158 346.784 171.345 345.659 171.345ZM346.95 167.548C347.93 167.548 348.766 167.284 349.456 166.756C350.146 166.219 350.67 165.473 351.028 164.518C351.386 163.564 351.565 162.452 351.565 161.182C351.565 159.912 351.386 158.808 351.028 157.871C350.679 156.933 350.159 156.205 349.469 155.685C348.787 155.165 347.947 154.905 346.95 154.905C345.919 154.905 345.058 155.173 344.368 155.71C343.677 156.247 343.158 156.989 342.808 157.935C342.459 158.881 342.284 159.963 342.284 161.182C342.284 162.409 342.459 163.504 342.808 164.467C343.166 165.422 343.69 166.176 344.381 166.73C345.079 167.276 345.936 167.548 346.95 167.548ZM368.821 171.384C366.904 171.384 365.242 170.962 363.835 170.118C362.429 169.274 361.338 168.094 360.563 166.577C359.796 165.06 359.412 163.287 359.412 161.259C359.412 159.23 359.796 157.453 360.563 155.928C361.338 154.402 362.429 153.217 363.835 152.374C365.242 151.53 366.904 151.108 368.821 151.108C370.739 151.108 372.401 151.53 373.807 152.374C375.213 153.217 376.3 154.402 377.067 155.928C377.842 157.453 378.23 159.23 378.23 161.259C378.23 163.287 377.842 165.06 377.067 166.577C376.3 168.094 375.213 169.274 373.807 170.118C372.401 170.962 370.739 171.384 368.821 171.384ZM368.847 167.676C369.887 167.676 370.756 167.391 371.455 166.82C372.154 166.24 372.673 165.464 373.014 164.493C373.364 163.521 373.539 162.439 373.539 161.246C373.539 160.044 373.364 158.957 373.014 157.986C372.673 157.006 372.154 156.226 371.455 155.646C370.756 155.067 369.887 154.777 368.847 154.777C367.781 154.777 366.895 155.067 366.188 155.646C365.489 156.226 364.965 157.006 364.615 157.986C364.274 158.957 364.104 160.044 364.104 161.246C364.104 162.439 364.274 163.521 364.615 164.493C364.965 165.464 365.489 166.24 366.188 166.82C366.895 167.391 367.781 167.676 368.847 167.676ZM392.38 178.364C391.75 178.364 391.166 178.313 390.629 178.21C390.1 178.116 389.679 178.006 389.363 177.878L390.437 174.273C391.11 174.469 391.711 174.563 392.24 174.554C392.768 174.545 393.233 174.379 393.633 174.055C394.042 173.74 394.387 173.212 394.669 172.47L395.065 171.409L387.944 151.364H392.853L397.379 166.193H397.583L402.122 151.364H407.044L399.181 173.378C398.815 174.418 398.329 175.308 397.724 176.05C397.119 176.8 396.377 177.371 395.5 177.763C394.63 178.163 393.59 178.364 392.38 178.364ZM417.351 171.384C415.434 171.384 413.772 170.962 412.366 170.118C410.959 169.274 409.868 168.094 409.093 166.577C408.326 165.06 407.942 163.287 407.942 161.259C407.942 159.23 408.326 157.453 409.093 155.928C409.868 154.402 410.959 153.217 412.366 152.374C413.772 151.53 415.434 151.108 417.351 151.108C419.269 151.108 420.931 151.53 422.337 152.374C423.743 153.217 424.83 154.402 425.597 155.928C426.373 157.453 426.76 159.23 426.76 161.259C426.76 163.287 426.373 165.06 425.597 166.577C424.83 168.094 423.743 169.274 422.337 170.118C420.931 170.962 419.269 171.384 417.351 171.384ZM417.377 167.676C418.417 167.676 419.286 167.391 419.985 166.82C420.684 166.24 421.204 165.464 421.545 164.493C421.894 163.521 422.069 162.439 422.069 161.246C422.069 160.044 421.894 158.957 421.545 157.986C421.204 157.006 420.684 156.226 419.985 155.646C419.286 155.067 418.417 154.777 417.377 154.777C416.312 154.777 415.425 155.067 414.718 155.646C414.019 156.226 413.495 157.006 413.145 157.986C412.805 158.957 412.634 160.044 412.634 161.246C412.634 162.439 412.805 163.521 413.145 164.493C413.495 165.464 414.019 166.24 414.718 166.82C415.425 167.391 416.312 167.676 417.377 167.676ZM442.412 162.741V151.364H447.04V171H442.553V167.51H442.348C441.905 168.609 441.176 169.509 440.162 170.207C439.156 170.906 437.916 171.256 436.442 171.256C435.155 171.256 434.017 170.97 433.028 170.399C432.048 169.82 431.281 168.98 430.727 167.881C430.173 166.773 429.896 165.435 429.896 163.866V151.364H434.524V163.151C434.524 164.395 434.865 165.384 435.547 166.116C436.229 166.849 437.124 167.216 438.232 167.216C438.913 167.216 439.574 167.05 440.213 166.717C440.852 166.385 441.377 165.891 441.786 165.234C442.203 164.57 442.412 163.739 442.412 162.741ZM463.197 171L457.649 151.364H462.366L465.818 165.17H465.997L469.525 151.364H474.191L477.72 165.094H477.911L481.312 151.364H486.042L480.481 171H475.661L471.98 157.73H471.711L468.029 171H463.197ZM494.132 171.396C492.888 171.396 491.767 171.175 490.77 170.732C489.781 170.28 488.997 169.615 488.417 168.737C487.846 167.859 487.561 166.777 487.561 165.49C487.561 164.382 487.765 163.466 488.175 162.741C488.584 162.017 489.142 161.438 489.849 161.003C490.557 160.568 491.354 160.24 492.24 160.018C493.135 159.788 494.059 159.622 495.014 159.52C496.165 159.401 497.098 159.294 497.814 159.2C498.53 159.098 499.05 158.945 499.373 158.74C499.706 158.527 499.872 158.199 499.872 157.756V157.679C499.872 156.716 499.586 155.97 499.015 155.442C498.444 154.913 497.622 154.649 496.548 154.649C495.415 154.649 494.515 154.896 493.851 155.391C493.194 155.885 492.751 156.469 492.521 157.142L488.2 156.528C488.541 155.335 489.104 154.338 489.888 153.537C490.672 152.727 491.631 152.122 492.764 151.722C493.898 151.312 495.15 151.108 496.523 151.108C497.469 151.108 498.41 151.219 499.348 151.44C500.285 151.662 501.142 152.028 501.917 152.54C502.693 153.043 503.315 153.729 503.784 154.598C504.261 155.467 504.5 156.554 504.5 157.858V171H500.051V168.303H499.898C499.616 168.848 499.22 169.359 498.709 169.837C498.206 170.305 497.571 170.685 496.804 170.974C496.045 171.256 495.155 171.396 494.132 171.396ZM495.334 167.996C496.263 167.996 497.068 167.812 497.75 167.446C498.432 167.071 498.956 166.577 499.322 165.963C499.697 165.349 499.885 164.68 499.885 163.956V161.642C499.74 161.761 499.493 161.872 499.143 161.974C498.802 162.077 498.419 162.166 497.993 162.243C497.567 162.32 497.145 162.388 496.727 162.447C496.309 162.507 495.947 162.558 495.64 162.601C494.95 162.695 494.332 162.848 493.787 163.061C493.241 163.274 492.811 163.572 492.496 163.956C492.18 164.331 492.023 164.817 492.023 165.413C492.023 166.266 492.334 166.909 492.956 167.344C493.578 167.778 494.371 167.996 495.334 167.996ZM512.989 159.494V171H508.361V151.364H512.785V154.7H513.015C513.466 153.601 514.186 152.727 515.175 152.08C516.172 151.432 517.404 151.108 518.87 151.108C520.225 151.108 521.405 151.398 522.411 151.977C523.425 152.557 524.209 153.396 524.763 154.496C525.326 155.595 525.603 156.929 525.594 158.497V171H520.966V159.213C520.966 157.901 520.625 156.874 519.944 156.132C519.27 155.391 518.337 155.02 517.144 155.02C516.334 155.02 515.614 155.199 514.983 155.557C514.361 155.906 513.871 156.413 513.513 157.078C513.164 157.743 512.989 158.548 512.989 159.494ZM539.312 151.364V154.943H528.024V151.364H539.312ZM530.811 146.659H535.439V165.094C535.439 165.716 535.532 166.193 535.72 166.526C535.916 166.849 536.171 167.071 536.487 167.19C536.802 167.31 537.152 167.369 537.535 167.369C537.825 167.369 538.089 167.348 538.328 167.305C538.575 167.263 538.762 167.224 538.89 167.19L539.67 170.808C539.423 170.893 539.069 170.987 538.609 171.089C538.157 171.192 537.603 171.251 536.947 171.268C535.788 171.303 534.744 171.128 533.815 170.744C532.886 170.352 532.149 169.747 531.603 168.929C531.066 168.111 530.802 167.088 530.811 165.861V146.659ZM560.334 151.364V154.943H549.045V151.364H560.334ZM551.832 146.659H556.46V165.094C556.46 165.716 556.554 166.193 556.741 166.526C556.937 166.849 557.193 167.071 557.508 167.19C557.824 167.31 558.173 167.369 558.557 167.369C558.846 167.369 559.111 167.348 559.349 167.305C559.596 167.263 559.784 167.224 559.912 167.19L560.692 170.808C560.444 170.893 560.091 170.987 559.63 171.089C559.179 171.192 558.625 171.251 557.969 171.268C556.809 171.303 555.765 171.128 554.836 170.744C553.907 170.352 553.17 169.747 552.625 168.929C552.088 168.111 551.824 167.088 551.832 165.861V146.659ZM571.766 171.384C569.849 171.384 568.187 170.962 566.781 170.118C565.374 169.274 564.283 168.094 563.508 166.577C562.741 165.06 562.357 163.287 562.357 161.259C562.357 159.23 562.741 157.453 563.508 155.928C564.283 154.402 565.374 153.217 566.781 152.374C568.187 151.53 569.849 151.108 571.766 151.108C573.684 151.108 575.346 151.53 576.752 152.374C578.158 153.217 579.245 154.402 580.012 155.928C580.788 157.453 581.175 159.23 581.175 161.259C581.175 163.287 580.788 165.06 580.012 166.577C579.245 168.094 578.158 169.274 576.752 170.118C575.346 170.962 573.684 171.384 571.766 171.384ZM571.792 167.676C572.832 167.676 573.701 167.391 574.4 166.82C575.099 166.24 575.619 165.464 575.96 164.493C576.309 163.521 576.484 162.439 576.484 161.246C576.484 160.044 576.309 158.957 575.96 157.986C575.619 157.006 575.099 156.226 574.4 155.646C573.701 155.067 572.832 154.777 571.792 154.777C570.727 154.777 569.84 155.067 569.133 155.646C568.434 156.226 567.91 157.006 567.56 157.986C567.219 158.957 567.049 160.044 567.049 161.246C567.049 162.439 567.219 163.521 567.56 164.493C567.91 165.464 568.434 166.24 569.133 166.82C569.84 167.391 570.727 167.676 571.792 167.676ZM599.736 171.345C598.193 171.345 596.813 170.949 595.594 170.156C594.375 169.364 593.412 168.213 592.705 166.705C591.997 165.196 591.644 163.364 591.644 161.207C591.644 159.026 592.002 157.185 592.718 155.685C593.442 154.176 594.418 153.038 595.645 152.271C596.872 151.496 598.24 151.108 599.749 151.108C600.899 151.108 601.845 151.304 602.587 151.696C603.328 152.08 603.916 152.544 604.351 153.089C604.786 153.626 605.122 154.134 605.361 154.611H605.553V144.818H610.193V171H605.642V167.906H605.361C605.122 168.384 604.777 168.891 604.325 169.428C603.874 169.956 603.277 170.408 602.536 170.783C601.794 171.158 600.861 171.345 599.736 171.345ZM601.027 167.548C602.007 167.548 602.843 167.284 603.533 166.756C604.223 166.219 604.747 165.473 605.105 164.518C605.463 163.564 605.642 162.452 605.642 161.182C605.642 159.912 605.463 158.808 605.105 157.871C604.756 156.933 604.236 156.205 603.546 155.685C602.864 155.165 602.024 154.905 601.027 154.905C599.996 154.905 599.135 155.173 598.445 155.71C597.754 156.247 597.235 156.989 596.885 157.935C596.536 158.881 596.361 159.963 596.361 161.182C596.361 162.409 596.536 163.504 596.885 164.467C597.243 165.422 597.767 166.176 598.458 166.73C599.156 167.276 600.013 167.548 601.027 167.548ZM622.898 171.384C620.981 171.384 619.319 170.962 617.912 170.118C616.506 169.274 615.415 168.094 614.64 166.577C613.873 165.06 613.489 163.287 613.489 161.259C613.489 159.23 613.873 157.453 614.64 155.928C615.415 154.402 616.506 153.217 617.912 152.374C619.319 151.53 620.981 151.108 622.898 151.108C624.816 151.108 626.478 151.53 627.884 152.374C629.29 153.217 630.377 154.402 631.144 155.928C631.92 157.453 632.307 159.23 632.307 161.259C632.307 163.287 631.92 165.06 631.144 166.577C630.377 168.094 629.29 169.274 627.884 170.118C626.478 170.962 624.816 171.384 622.898 171.384ZM622.924 167.676C623.964 167.676 624.833 167.391 625.532 166.82C626.231 166.24 626.75 165.464 627.091 164.493C627.441 163.521 627.616 162.439 627.616 161.246C627.616 160.044 627.441 158.957 627.091 157.986C626.75 157.006 626.231 156.226 625.532 155.646C624.833 155.067 623.964 154.777 622.924 154.777C621.858 154.777 620.972 155.067 620.265 155.646C619.566 156.226 619.042 157.006 618.692 157.986C618.351 158.957 618.181 160.044 618.181 161.246C618.181 162.439 618.351 163.521 618.692 164.493C619.042 165.464 619.566 166.24 620.265 166.82C620.972 167.391 621.858 167.676 622.924 167.676ZM639.866 163.304V162.972C639.875 161.429 640.02 160.202 640.301 159.29C640.591 158.378 641 157.645 641.528 157.091C642.057 156.528 642.7 156.013 643.459 155.544C643.979 155.22 644.443 154.866 644.852 154.483C645.27 154.091 645.598 153.656 645.837 153.179C646.075 152.693 646.195 152.152 646.195 151.555C646.195 150.882 646.037 150.298 645.722 149.804C645.406 149.31 644.98 148.926 644.443 148.653C643.915 148.381 643.322 148.244 642.666 148.244C642.061 148.244 641.486 148.376 640.94 148.641C640.403 148.896 639.956 149.288 639.598 149.817C639.249 150.337 639.053 150.997 639.01 151.798H634.459C634.501 150.179 634.893 148.824 635.635 147.733C636.385 146.642 637.374 145.824 638.601 145.278C639.837 144.733 641.2 144.46 642.692 144.46C644.32 144.46 645.751 144.746 646.987 145.317C648.232 145.888 649.199 146.702 649.889 147.759C650.588 148.807 650.937 150.051 650.937 151.491C650.937 152.463 650.78 153.332 650.464 154.099C650.158 154.866 649.719 155.548 649.148 156.145C648.577 156.741 647.899 157.274 647.115 157.743C646.425 158.169 645.858 158.612 645.415 159.072C644.98 159.533 644.656 160.074 644.443 160.696C644.239 161.31 644.132 162.068 644.124 162.972V163.304H639.866ZM642.091 171.281C641.324 171.281 640.663 171.009 640.109 170.463C639.555 169.918 639.278 169.253 639.278 168.469C639.278 167.702 639.555 167.045 640.109 166.5C640.663 165.955 641.324 165.682 642.091 165.682C642.849 165.682 643.506 165.955 644.06 166.5C644.622 167.045 644.903 167.702 644.903 168.469C644.903 168.989 644.771 169.462 644.507 169.888C644.251 170.314 643.91 170.655 643.484 170.911C643.067 171.158 642.602 171.281 642.091 171.281Z" fill="white"/>
</g>
</g>
</svg>
