<svg width="1913" height="1078" viewBox="0 0 1913 1078" fill="none" xmlns="http://www.w3.org/2000/svg">
<g id="cold_weather" clip-path="url(#clip0_751_3184)">
<path id="bakgrund" d="M1910.02 0H0V1078H1910.02V0Z" fill="#BFE3FF"/>
<g id="fugl_1">
<path id="Vector" d="M146.103 202.931C194.435 188.969 188.009 159 188.009 159C188.009 159 181.025 166.594 157.557 174.247C134.089 181.9 130.108 195.103 125.498 195.219C123.892 195.219 121.587 193.701 118.863 191.831H118.514C115.698 189.675 112.431 187.971 108.875 186.807C102.243 183.443 95.2231 180.645 87.9222 178.453C76.4811 176.204 64.7516 175.144 53 175.299C53 175.299 82.9632 199.543 108.875 203.398C110.258 207.504 113.051 211.181 116.908 213.972C120.958 216.436 126.011 217.457 130.96 216.811C135.908 216.165 140.349 213.904 143.309 210.525L146.522 210.876C151.537 211.394 156.627 211.006 161.447 209.736C166.267 208.466 170.705 206.344 174.459 203.515C165.138 205.614 155.289 205.411 146.103 202.931Z" fill="#6BA8DA"/>
</g>
<g id="fjell_2">
<path id="Vector_2" d="M1910 888C1740.2 888 1746.56 888 1576.7 888C1406.85 888 1400.49 888 1230.69 888C1060.89 888 1071.94 888 902.145 888L915.918 855.952L1055.78 804.186L1168.81 656.782L1327.74 624.543L1500.13 540L1697.39 638.269L1743.36 742.878L1883.22 844.318L1910 888Z" fill="#ACC5FF"/>
<path id="Vector_3" opacity="0.7" d="M1910 888C1740.2 888 1727.31 888 1557.45 888C1387.6 888 1400.49 888 1230.69 888C1060.89 888 1063.8 888 894 888L915.919 855.952L1055.78 804.186L1168.81 656.782L1327.74 624.543L1500.13 540L1697.39 638.269L1743.36 742.878L1883.22 844.318L1910 888Z" fill="white"/>
<path id="Vector_4" opacity="0.8" d="M1168.8 656.782L1182.19 756.097L1314.35 673.139L1327.74 624.543L1168.8 656.782Z" fill="white"/>
<path id="Vector_5" opacity="0.5" d="M1327.74 804.186L1182.2 756.097L1314.36 673.139H1431.18L1327.74 804.186Z" fill="white"/>
<path id="Vector_6" opacity="0.7" d="M1327.74 804.186L1182.19 756.098L1118.99 789.382L1075.89 853.321L1327.74 804.186Z" fill="white"/>
<path id="Vector_7" opacity="0.4" d="M1327.74 804.186L1454.91 802.125L1342.45 866.159L1075.89 853.32L1327.74 804.186Z" fill="white"/>
<path id="Vector_8" opacity="0.2" d="M1579.31 839.816L1454.9 802.125L1372.91 848.819L1540.35 880.962L1579.31 839.816Z" fill="white"/>
<path id="Vector_9" opacity="0.6" d="M1327.74 804.186L1519.95 756.097L1500.13 540L1431.17 673.139L1327.74 804.186Z" fill="white"/>
<path id="Vector_10" d="M1327.74 804.186L1519.95 756.098L1693.14 834.808L1525.07 801.016L1327.74 804.186Z" fill="white"/>
<path id="Vector_11" opacity="0.4" d="M1454.91 802.125L1715.04 880.962L1693.15 834.808L1525.07 801.016L1454.91 802.125Z" fill="white"/>
<path id="Vector_12" opacity="0.8" d="M1642.86 659.952L1508.63 632.912L1500.13 540L1697.39 638.269L1642.86 659.952Z" fill="white"/>
<path id="Vector_13" d="M1642.86 659.952L1508.63 632.912L1515.13 703.793L1715.04 719.516L1642.86 659.952Z" fill="white"/>
<path id="Vector_14" opacity="0.3" d="M1693.14 834.808L1519.95 756.098L1515.12 703.793L1715.03 719.516L1693.14 834.808Z" fill="white"/>
<path id="Vector_15" opacity="0.6" d="M1697.1 813.696L1883.22 844.318L1743.36 742.878L1715.03 719.516L1697.1 813.696Z" fill="white"/>
<path id="Vector_16" opacity="0.6" d="M1697.45 638.27L1642.86 659.952L1743.42 742.879L1697.45 638.27Z" fill="white"/>
<path id="Vector_17" opacity="0.3" d="M1500.13 540L1327.74 624.543L1314.35 673.139H1431.17L1500.13 540Z" fill="white"/>
<path id="Vector_18" opacity="0.5" d="M1168.81 656.781L1055.78 804.185L1075.89 853.32L1118.99 789.381L1182.19 756.097L1168.81 656.781Z" fill="white"/>
</g>
<g id="fjell_1">
<path id="Vector_19" d="M1313 890.667C1107.27 890.667 1114.97 890.667 909.171 890.667C703.372 890.667 695.669 890.667 489.939 890.667C284.21 890.667 297.597 890.667 91.8672 890.667L108.556 844.375L278.013 769.602L414.958 556.685L607.529 510.118L816.392 388L1055.4 529.945L1111.1 681.047L1280.56 827.571L1313 890.667Z" fill="#90A8DE"/>
<path id="Vector_20" opacity="0.7" d="M1313 890.667C1107.27 890.667 1091.65 890.667 885.847 890.667C680.047 890.667 695.671 890.667 489.941 890.667C284.211 890.667 287.73 890.667 82 890.667L108.557 844.375L278.015 769.602L414.959 556.685L607.531 510.118L816.394 388L1055.4 529.945L1111.1 681.047L1280.56 827.571L1313 890.667Z" fill="white"/>
<path id="Vector_21" opacity="0.8" d="M414.959 556.686L431.181 700.142L591.309 580.313L607.531 510.119L414.959 556.686Z" fill="white"/>
<path id="Vector_22" opacity="0.5" d="M607.532 769.603L431.182 700.141L591.31 580.312H732.849L607.532 769.603Z" fill="white"/>
<path id="Vector_23" opacity="0.7" d="M607.53 769.602L431.18 700.141L354.597 748.219L302.381 840.574L607.53 769.602Z" fill="white"/>
<path id="Vector_24" opacity="0.4" d="M607.53 769.601L761.601 766.625L625.353 859.118L302.381 840.574L607.53 769.601Z" fill="white"/>
<path id="Vector_25" opacity="0.2" d="M912.328 821.068L761.599 766.625L662.25 834.072L865.125 880.501L912.328 821.068Z" fill="white"/>
<path id="Vector_26" opacity="0.6" d="M607.529 769.602L840.411 700.141L816.392 388L732.847 580.312L607.529 769.602Z" fill="white"/>
<path id="Vector_27" d="M607.529 769.602L840.411 700.141L1050.25 813.834L846.608 765.023L607.529 769.602Z" fill="white"/>
<path id="Vector_28" opacity="0.4" d="M761.611 766.626L1076.79 880.502L1050.26 813.834L846.619 765.023L761.611 766.626Z" fill="white"/>
<path id="Vector_29" opacity="0.8" d="M989.335 561.264L826.7 522.206L816.396 388L1055.41 529.945L989.335 561.264Z" fill="white"/>
<path id="Vector_30" d="M989.336 561.265L826.701 522.207L834.568 624.59L1076.78 647.301L989.336 561.265Z" fill="white"/>
<path id="Vector_31" opacity="0.3" d="M1050.24 813.834L840.407 700.141L834.559 624.59L1076.77 647.301L1050.24 813.834Z" fill="white"/>
<path id="Vector_32" opacity="0.6" d="M1055.05 783.339L1280.55 827.57L1111.1 681.047L1076.77 647.301L1055.05 783.339Z" fill="white"/>
<path id="Vector_33" opacity="0.6" d="M1055.47 529.945L989.332 561.265L1111.17 681.048L1055.47 529.945Z" fill="white"/>
<path id="Vector_34" opacity="0.3" d="M816.391 388L607.528 510.118L591.307 580.312H732.846L816.391 388Z" fill="white"/>
<path id="Vector_35" opacity="0.5" d="M414.96 556.686L278.016 769.603L302.383 840.575L354.599 748.219L431.182 700.141L414.96 556.686Z" fill="white"/>
</g>
<g id="bakken">
<g id="Group">
<path id="Vector_36" d="M1801.1 924.317L1593.03 910.236C1561.19 908.081 1563.11 898.998 1595.75 897.381L1785.09 888H6C85.7293 904.497 195.782 918.309 308.878 922.513C336.861 923.553 366.59 924.268 387.101 928.67C397.259 930.849 402.395 933.849 398.696 936.729C392.881 941.257 370.043 942.699 349.625 943.788L148.645 954.505C96.449 957.288 36.5896 961.443 19.5974 971.645C1.28708 982.638 45.115 993.932 93.2835 1000.44C246.61 1021.16 449.418 1017.24 630.134 1025.05C637.904 1025.39 645.435 1025.96 652.058 1026.83C687.473 1031.51 666.702 1039.46 638.471 1042.38C616.18 1044.69 590.147 1045 566.293 1046.57C542.44 1048.14 518.412 1051.78 517.724 1056.77C516.7 1064.21 563.156 1067.64 600.11 1068.78C904.121 1078.11 1172.53 1078.63 1476.29 1068.98C1623.11 1064.32 1647.19 1061.66 1686.73 1054.33C1746.48 1043.26 1722.78 1030.71 1675.37 1017.48C1642.23 1008.23 1595.32 1001.61 1545.23 995.946C1519.95 993.085 1522.7 985.672 1549.8 983.571C1635.68 976.913 1721.56 970.254 1807.44 963.596C1854.56 959.942 1909.92 954.04 1910 943.98C1910.08 933.527 1850.85 927.685 1801.1 924.317Z" fill="white"/>
<g id="Group_2" opacity="0.8">
<path id="Vector_37" d="M1801.1 924.317L1593.03 910.236C1561.19 908.081 1563.11 898.998 1595.75 897.381L1785.09 888H6C85.7293 904.497 195.782 918.309 308.878 922.513C336.861 923.553 366.59 924.268 387.101 928.67C397.259 930.849 402.395 933.849 398.696 936.729C392.881 941.256 370.043 942.699 349.625 943.788C282.631 947.36 215.638 950.932 148.645 954.505C96.449 957.288 36.5896 961.443 19.5974 971.645C1.28708 982.638 45.115 993.932 93.2835 1000.44C246.61 1021.15 449.418 1017.24 630.134 1025.05C637.904 1025.39 645.435 1025.96 652.057 1026.83C687.473 1031.51 666.702 1039.46 638.471 1042.38C616.18 1044.69 590.147 1045 566.293 1046.57C542.44 1048.14 518.412 1051.78 517.724 1056.77C516.7 1064.21 563.156 1067.64 600.11 1068.78C904.121 1078.11 1172.53 1078.63 1476.29 1068.98C1623.11 1064.32 1647.19 1061.66 1686.73 1054.33C1746.48 1043.26 1722.78 1030.7 1675.37 1017.48C1642.23 1008.23 1595.32 1001.61 1545.23 995.946C1519.95 993.085 1522.7 985.672 1549.8 983.571C1635.68 976.913 1721.56 970.254 1807.44 963.596C1854.56 959.943 1909.92 954.04 1910 943.98C1910.08 933.527 1850.85 927.685 1801.1 924.317Z" fill="white"/>
</g>
<g id="Group_3">
<path id="Vector_38" d="M268.582 1047.28C385.48 1047.28 480.245 1042.89 480.245 1037.47C480.245 1032.06 385.48 1027.67 268.582 1027.67C151.684 1027.67 56.9199 1032.06 56.9199 1037.47C56.9199 1042.89 151.684 1047.28 268.582 1047.28Z" fill="white"/>
<g id="Group_4" opacity="0.8">
<path id="Vector_39" d="M268.582 1047.28C385.48 1047.28 480.245 1042.89 480.245 1037.47C480.245 1032.06 385.48 1027.67 268.582 1027.67C151.684 1027.67 56.9199 1032.06 56.9199 1037.47C56.9199 1042.89 151.684 1047.28 268.582 1047.28Z" fill="white"/>
</g>
</g>
<g id="Group_5" opacity="0.4">
<path id="Vector_40" d="M1458.59 933.752C1449.34 930.056 1433.75 926.999 1417 924.305C1376.06 917.724 1326.46 912.924 1273.52 910.418C1257.14 909.643 1235.77 907.799 1240.31 904.844C1242.77 903.245 1252.19 902.404 1260.62 901.756C1311.84 897.825 1383.03 892.152 1434.24 888.221L386.5 888.809C493.775 903.758 622.956 912.781 754.271 918.701C885.586 924.621 1020.27 927.616 1153.69 931.715C1179.52 932.509 1206.64 933.454 1226.61 936.528C1246.58 939.603 1255.61 945.544 1238.6 949.157C1232.26 950.505 1223.26 951.36 1216.58 952.654C1209.91 953.948 1206.04 956.071 1212.13 957.457C1217.41 958.66 1227.23 958.706 1235.7 958.623C1283.77 958.151 1331.6 956.861 1378.35 954.774C1410.7 953.33 1446.03 950.986 1460.42 945.54C1470.09 941.879 1467.85 937.448 1458.59 933.752Z" fill="white"/>
</g>
<path id="Vector_41" d="M1004.44 1019.62H1362.02C1364.2 1019.62 1364.2 1019 1362.02 1019H1004.44C1002.27 1019 1002.27 1019.62 1004.44 1019.62Z" fill="white"/>
<path id="Vector_42" d="M923.108 1021.76H1227.8C1229.97 1021.76 1229.97 1021.15 1227.8 1021.15H923.108C920.935 1021.15 920.931 1021.76 923.108 1021.76Z" fill="white"/>
<g id="Group_6">
<path id="Vector_43" d="M889.682 1040.17H1107.7C1109.87 1040.17 1109.87 1039.56 1107.7 1039.56H889.682C887.509 1039.56 887.505 1040.17 889.682 1040.17Z" fill="white"/>
<path id="Vector_44" d="M850.686 1044.03H1033.25C1035.42 1044.03 1035.43 1043.42 1033.25 1043.42H850.686C848.513 1043.42 848.509 1044.03 850.686 1044.03Z" fill="white"/>
</g>
<g id="Group_7">
<path id="Vector_45" d="M1368.85 942.833H1666.62C1668.79 942.833 1668.8 942.221 1666.62 942.221H1368.85C1366.67 942.221 1366.67 942.833 1368.85 942.833Z" fill="white"/>
<path id="Vector_46" d="M1332.8 937.692H1523.57C1525.75 937.692 1525.75 937.08 1523.57 937.08H1332.8C1330.62 937.08 1330.62 937.692 1332.8 937.692Z" fill="white"/>
</g>
<g id="Group_8">
<path id="Vector_47" d="M234.842 965.663H506.412C508.585 965.663 508.588 965.051 506.412 965.051H234.842C232.669 965.051 232.665 965.663 234.842 965.663Z" fill="white"/>
<path id="Vector_48" d="M187.588 969.743H322.15C324.323 969.743 324.326 969.131 322.15 969.131H187.588C185.415 969.131 185.412 969.743 187.588 969.743Z" fill="white"/>
</g>
</g>
</g>
<g id="freepik--bear-cub--inject-63">
<path id="Vector_49" d="M1246.85 804.113C1246.85 804.113 1242.23 802.353 1242.26 799.203C1242.29 796.053 1241.26 784.553 1241.75 782.553C1242.24 780.553 1236.7 754.383 1236.7 754.383C1236.7 754.383 1238.03 753.383 1238.63 753.863C1243.79 758.013 1270.29 761.203 1269.99 762.123C1269.69 763.043 1265.49 798.973 1265.49 798.973C1265.49 798.973 1270.32 800.453 1267.61 803.513C1264.9 806.573 1248.28 804.823 1246.85 804.113Z" fill="#90CAF9"/>
<g id="fot_3">
<path id="Vector_50" opacity="0.3" d="M1246.85 804.113C1246.85 804.113 1242.23 802.353 1242.26 799.203C1242.29 796.053 1241.26 784.553 1241.75 782.553C1242.24 780.553 1236.7 754.383 1236.7 754.383C1236.7 754.383 1238.03 753.383 1238.63 753.863C1243.79 758.013 1270.29 761.203 1269.99 762.123C1269.69 763.043 1265.49 798.973 1265.49 798.973C1265.49 798.973 1270.32 800.453 1267.61 803.513C1264.9 806.573 1248.28 804.823 1246.85 804.113Z" fill="white"/>
<path id="Vector_51" opacity="0.3" d="M1249.84 765.893L1246.7 772.733C1246.7 772.733 1246.87 773.163 1247.92 773.733L1241.45 779.143L1241.73 782.523C1241.73 782.523 1255.03 773.113 1255.28 773.113C1267.35 775.343 1269.7 771.053 1270.01 770.943C1270.32 770.833 1249.84 765.893 1249.84 765.893Z" fill="black"/>
</g>
<path id="Vector_52" d="M1230.58 716.451C1230.58 716.451 1239.52 709.271 1258.71 709.821C1258.71 709.821 1268.33 710.391 1273.79 710.091C1278.93 709.796 1284.05 709.158 1289.12 708.181C1294.17 707.391 1298.92 707.681 1301.86 706.181C1304.8 704.681 1304.86 703.821 1310.32 702.691L1338.28 734.551C1336.41 737.021 1315 752.881 1315.23 750.611C1315.94 743.871 1306.42 752.481 1304.12 754.281C1304.12 754.281 1280.7 768.891 1271.19 771.431C1261.68 773.971 1233.65 759.111 1233.65 759.111L1230.58 716.451Z" fill="#90CAF9"/>
<g id="mage">
<path id="Vector_53" opacity="0.3" d="M1230.58 716.451C1230.58 716.451 1239.52 709.271 1258.71 709.821C1258.71 709.821 1268.33 710.391 1273.79 710.091C1278.93 709.796 1284.05 709.158 1289.12 708.181C1294.17 707.391 1298.92 707.681 1301.86 706.181C1304.8 704.681 1304.86 703.821 1310.32 702.691L1338.28 734.551C1336.41 737.021 1315 752.881 1315.23 750.611C1315.94 743.871 1306.42 752.481 1304.12 754.281C1304.12 754.281 1280.7 768.891 1271.19 771.431C1261.68 773.971 1233.65 759.111 1233.65 759.111L1230.58 716.451Z" fill="white"/>
</g>
<g id="fot_2">
<path id="Vector_54" d="M1320.81 760.112C1321.37 754.962 1318.41 744.622 1318.44 743.572C1318.47 742.522 1308.86 732.572 1306.21 732.572C1303.56 732.572 1286.92 747.952 1294.34 760.292C1294.65 760.812 1301.34 769.102 1302.76 775.862C1304.18 782.622 1306.85 788.602 1309.37 792.082C1311.89 795.562 1316.69 801.962 1318.61 801.932C1320.53 801.902 1337.86 792.862 1337.86 792.862C1337.86 792.862 1335.11 788.862 1332.46 788.812C1329.81 788.762 1327.24 788.942 1326.25 786.862" fill="#90CAF9"/>
<path id="Vector_55" opacity="0.3" d="M1320.81 760.112C1321.37 754.962 1318.41 744.622 1318.44 743.572C1318.47 742.522 1308.86 732.572 1306.21 732.572C1303.56 732.572 1286.92 747.952 1294.34 760.292C1294.65 760.812 1301.34 769.102 1302.76 775.862C1304.18 782.622 1306.85 788.602 1309.37 792.082C1311.89 795.562 1316.69 801.962 1318.61 801.932C1320.53 801.902 1337.86 792.862 1337.86 792.862C1337.86 792.862 1335.11 788.862 1332.46 788.812C1329.81 788.762 1327.24 788.942 1326.25 786.862" fill="white"/>
<path id="Vector_56" opacity="0.3" d="M1304.04 780.712C1304.6 782.507 1305.26 784.267 1306.04 785.982C1306.04 785.982 1315.85 758.212 1313.72 753.732C1311.59 749.252 1304.04 780.712 1304.04 780.712Z" fill="black"/>
</g>
<path id="Vector_57" d="M1224.58 715.862C1222.94 715.556 1221.25 715.736 1219.72 716.379C1218.18 717.023 1216.87 718.101 1215.94 719.482C1215.25 720.65 1214.86 721.97 1214.8 723.325C1214.74 724.681 1215.02 726.029 1215.61 727.252C1216.8 729.56 1218.75 731.391 1221.13 732.442L1231.69 721.512C1230.98 720.108 1229.98 718.876 1228.76 717.9C1227.53 716.924 1226.1 716.228 1224.58 715.862Z" fill="#90CAF9"/>
<g id="hale" opacity="0.3">
<path id="Vector_58" d="M1224.58 715.862C1222.94 715.556 1221.25 715.736 1219.72 716.379C1218.18 717.023 1216.87 718.101 1215.94 719.482C1215.25 720.65 1214.86 721.97 1214.8 723.325C1214.74 724.681 1215.02 726.029 1215.61 727.252C1216.8 729.56 1218.75 731.391 1221.13 732.442L1231.69 721.512C1230.98 720.108 1229.98 718.876 1228.76 717.9C1227.53 716.924 1226.1 716.228 1224.58 715.862Z" fill="white"/>
<path id="Vector_59" opacity="0.3" d="M1218.28 730.641C1218.28 730.641 1219.79 723.131 1228.58 717.781C1228.13 717.401 1227.65 717.066 1227.15 716.781C1227.15 716.781 1216.8 723.111 1218.28 730.641Z" fill="black"/>
</g>
<g id="hode">
<path id="Vector_60" d="M1296.46 708.342C1296.46 708.342 1319.46 697.342 1324.23 695.722C1329 694.102 1341.23 695.622 1342.03 696.272C1342.83 696.922 1345.25 699.222 1345.25 699.222C1345.25 699.222 1355.38 698.272 1356.92 698.672C1358.97 699.192 1358.36 707.092 1355.84 712.062C1353.32 717.032 1352.09 717.552 1350.45 719.712C1348.81 721.872 1347.81 726.012 1343.83 729.712C1340.42 732.957 1336.77 735.923 1332.89 738.582C1332.89 738.582 1308.97 730.372 1308.5 730.042C1308.03 729.712 1296.46 708.342 1296.46 708.342Z" fill="#90CAF9"/>
<path id="Vector_61" opacity="0.3" d="M1296.46 708.342C1296.46 708.342 1319.46 697.342 1324.23 695.722C1329 694.102 1341.23 695.622 1342.03 696.272C1342.83 696.922 1345.25 699.222 1345.25 699.222C1345.25 699.222 1355.38 698.272 1356.92 698.672C1358.97 699.192 1358.36 707.092 1355.84 712.062C1353.32 717.032 1352.09 717.552 1350.45 719.712C1348.81 721.872 1347.81 726.012 1343.83 729.712C1340.42 732.957 1336.77 735.923 1332.89 738.582C1332.89 738.582 1308.97 730.372 1308.5 730.042C1308.03 729.712 1296.46 708.342 1296.46 708.342Z" fill="white"/>
<path id="Vector_62" d="M1329.8 700.492C1329.87 700.477 1329.95 700.447 1330.01 700.402C1330.08 700.357 1330.13 700.299 1330.18 700.232C1330.53 699.603 1331.04 699.072 1331.65 698.686C1332.27 698.301 1332.96 698.072 1333.69 698.022C1333.76 698.023 1333.84 698.009 1333.91 697.979C1333.98 697.95 1334.04 697.906 1334.1 697.851C1334.15 697.795 1334.19 697.729 1334.22 697.657C1334.24 697.585 1334.25 697.508 1334.25 697.432C1334.23 697.273 1334.16 697.125 1334.04 697.016C1333.92 696.908 1333.77 696.846 1333.61 696.842C1332.69 696.886 1331.8 697.161 1331.01 697.642C1330.23 698.123 1329.58 698.793 1329.13 699.592C1329.08 699.696 1329.06 699.811 1329.07 699.925C1329.08 700.039 1329.13 700.148 1329.19 700.24C1329.26 700.332 1329.36 700.404 1329.46 700.448C1329.57 700.493 1329.68 700.508 1329.8 700.492Z" fill="#263238"/>
<path id="Vector_63" d="M1333.18 705.551C1333.71 708.051 1335.46 709.891 1337.08 709.661C1338.7 709.431 1339.58 707.211 1339.08 704.711C1338.58 702.211 1336.79 700.371 1335.17 700.601C1333.55 700.831 1332.64 703.041 1333.18 705.551Z" fill="#263238"/>
<path id="Vector_64" d="M1335.93 703.252C1336.18 704.082 1336.64 704.672 1336.93 704.572C1337.22 704.472 1337.31 703.732 1337.06 702.902C1336.81 702.072 1336.35 701.482 1336.06 701.572C1335.77 701.662 1335.69 702.422 1335.93 703.252Z" fill="white"/>
<path id="Vector_65" d="M1333.67 713.903C1333.89 714.663 1335.06 714.983 1336.27 714.623C1337.48 714.263 1338.27 713.353 1338.05 712.623C1337.83 711.893 1336.66 711.533 1335.45 711.893C1334.24 712.253 1333.44 713.113 1333.67 713.903Z" fill="#EEC1BB"/>
<path id="Vector_66" opacity="0.3" d="M1311.57 717.691C1311.57 717.691 1301.29 709.411 1304.52 702.381C1307.75 695.351 1317.09 700.441 1317.09 700.441L1311.57 717.691Z" fill="black"/>
<path id="Vector_67" d="M1312.59 715.721C1312.59 715.721 1301.33 708.251 1304.59 701.231C1307.85 694.211 1317.77 699.741 1317.77 699.741L1312.59 715.721Z" fill="#90CAF9"/>
<path id="Vector_68" opacity="0.3" d="M1312.59 715.721C1312.59 715.721 1301.33 708.251 1304.59 701.231C1307.85 694.211 1317.77 699.741 1317.77 699.741L1312.59 715.721Z" fill="white"/>
<path id="Vector_69" opacity="0.3" d="M1312.94 710.582C1312.94 710.582 1306.94 706.582 1308.68 702.892C1310.42 699.202 1315.68 702.212 1315.68 702.212L1312.94 710.582Z" fill="black"/>
<path id="Vector_70" d="M1352.26 715.229C1349.69 715.379 1347.25 716.41 1345.35 718.147C1345.59 717.484 1345.96 716.877 1346.45 716.365C1346.93 715.854 1347.52 715.448 1348.17 715.174C1348.82 714.9 1349.52 714.763 1350.22 714.772C1350.93 714.782 1351.62 714.937 1352.26 715.229Z" fill="#263238"/>
</g>
<path id="Vector_71" d="M1350.48 699.593C1350.4 700.464 1350.53 701.34 1350.85 702.152C1351.18 702.965 1351.69 703.691 1352.34 704.273C1352.99 704.855 1353.77 705.278 1354.61 705.507C1355.46 705.736 1356.34 705.765 1357.2 705.593C1357.41 705.566 1357.62 705.48 1357.79 705.343C1357.98 705.103 1358.07 704.799 1358.05 704.493C1358.13 703.013 1358.17 701.543 1358.15 700.063C1358.18 699.822 1358.16 699.576 1358.09 699.343C1358.02 699.111 1357.9 698.896 1357.74 698.713C1357.44 698.517 1357.09 698.422 1356.74 698.443C1354.73 698.387 1352.72 698.66 1350.8 699.253" fill="#263238"/>
<path id="Vector_72" d="M1248.67 711.562C1240.98 711.31 1233.46 713.834 1227.48 718.673C1221.51 723.512 1217.47 730.342 1216.12 737.912C1215.79 739.764 1215.65 741.643 1215.71 743.522C1216.09 756.402 1212.56 769.232 1207.44 774.302C1202.32 779.372 1204.02 780.722 1205.57 783.632C1207.12 786.542 1224.33 802.192 1224.94 801.902C1225.55 801.612 1227.19 799.902 1225.01 794.832L1223.73 791.642C1223.73 791.642 1239.02 780.642 1245.02 776.772C1250.82 773.185 1255.63 768.204 1259.02 762.282C1262.9 755.722 1264.27 715.462 1262.55 714.492C1258.14 712.667 1253.43 711.674 1248.67 711.562Z" fill="#90CAF9"/>
<g id="fot_4">
<path id="Vector_73" opacity="0.3" d="M1248.67 711.562C1240.98 711.31 1233.46 713.834 1227.48 718.673C1221.51 723.512 1217.47 730.342 1216.12 737.912C1215.79 739.764 1215.65 741.643 1215.71 743.522C1216.09 756.402 1212.56 769.232 1207.44 774.302C1202.32 779.372 1204.02 780.722 1205.57 783.632C1207.12 786.542 1224.33 802.192 1224.94 801.902C1225.55 801.612 1227.19 799.902 1225.01 794.832L1223.73 791.642C1223.73 791.642 1239.02 780.642 1245.02 776.772C1250.82 773.185 1255.63 768.204 1259.02 762.282C1262.9 755.722 1264.27 715.462 1262.55 714.492C1258.14 712.667 1253.43 711.674 1248.67 711.562Z" fill="white"/>
</g>
<path id="Vector_74" d="M1280.21 755.432C1280.28 756.032 1283.29 766.382 1281.36 773.112C1279.43 779.842 1279.25 786.372 1280.21 790.592C1281.17 794.812 1283.09 802.662 1285.21 803.452C1287.33 804.242 1310.93 803.452 1310.93 803.452C1310.93 803.452 1310 798.632 1307.11 797.452C1304.22 796.272 1301.35 795.342 1301.35 793.032C1301.35 790.722 1305.96 770.932 1309.23 766.512C1312.5 762.092 1314.61 751.512 1315.18 750.512C1315.75 749.512 1310.38 736.512 1307.5 735.352C1304.62 734.192 1278.48 741.112 1280.21 755.432Z" fill="#90CAF9"/>
<g id="fot_1">
<path id="Vector_75" opacity="0.3" d="M1282.05 766.882C1282.05 766.882 1280.67 757.552 1279.65 753.762C1278.63 749.972 1279.22 758.012 1279.34 759.342C1279.34 759.772 1279.34 768.152 1279.34 768.152L1282.05 766.882Z" fill="black"/>
<path id="Vector_76" opacity="0.3" d="M1280.21 755.432C1280.28 756.032 1283.29 766.382 1281.36 773.112C1279.43 779.842 1279.25 786.372 1280.21 790.592C1281.17 794.812 1283.09 802.662 1285.21 803.452C1287.33 804.242 1310.93 803.452 1310.93 803.452C1310.93 803.452 1310 798.632 1307.11 797.452C1304.22 796.272 1301.35 795.342 1301.35 793.032C1301.35 790.722 1305.96 770.932 1309.23 766.512C1312.5 762.092 1314.61 751.512 1315.18 750.512C1315.75 749.512 1310.38 736.512 1307.5 735.352C1304.62 734.192 1278.48 741.112 1280.21 755.432Z" fill="white"/>
</g>
</g>
<g id="igloo">
<path id="Vector_77" d="M563.593 898.538C563.593 898.538 576.319 590.514 275.153 590.514C-26.0134 590.514 -2.57481 898.538 -2.57481 898.538H563.593Z" fill="#EBF1FF"/>
<path id="Vector_78" d="M222.003 898.54C222.003 898.54 212.213 723.877 330.728 723.877C449.242 723.877 441.388 898.54 441.388 898.54H222.003Z" fill="#8FCDFF"/>
<path id="Vector_79" d="M251.131 898.54C251.131 898.54 241.325 723.877 359.855 723.877C478.385 723.877 470.516 898.54 470.516 898.54H251.131Z" fill="white"/>
<path id="Vector_80" d="M221.806 840.825C221.806 841.036 172.024 841.217 110.622 841.217C49.2212 841.217 -0.576172 841.036 -0.576172 840.825C-0.576172 840.614 49.2058 840.434 110.622 840.434C172.039 840.434 221.806 840.599 221.806 840.825Z" fill="#008DFF"/>
<path id="Vector_81" d="M149.966 842.09C150.197 842.09 150.381 855.054 150.381 871.045C150.381 887.036 150.197 900 149.966 900C149.735 900 149.566 887.036 149.566 871.045C149.566 855.054 149.751 842.09 149.966 842.09Z" fill="#008DFF"/>
<path id="Vector_82" d="M248.211 776.335C248.211 776.546 195.171 776.726 129.758 776.726C64.345 776.726 11.3047 776.546 11.3047 776.335C11.3047 776.124 64.3296 775.943 129.758 775.943C195.186 775.943 248.211 776.124 248.211 776.335Z" fill="#008DFF"/>
<path id="Vector_83" d="M210.415 842.526C210.2 842.526 210.016 827.8 210.016 809.641C210.016 791.482 210.2 776.771 210.415 776.771C210.63 776.771 210.815 791.482 210.815 809.641C210.815 827.8 210.646 842.526 210.415 842.526Z" fill="#008DFF"/>
<path id="Vector_84" d="M84.2021 840.78C83.9716 840.78 83.7871 826.445 83.7871 808.783C83.7871 791.121 83.9716 776.771 84.2021 776.771C84.4326 776.771 84.6017 791.091 84.6017 808.783C84.6017 826.475 84.3865 840.78 84.2021 840.78Z" fill="#008DFF"/>
<path id="Vector_85" d="M248.641 839.907C245.25 840.304 241.832 840.435 238.42 840.299C235.008 840.434 231.59 840.303 228.199 839.907C231.591 839.52 235.008 839.389 238.42 839.516C241.832 839.389 245.249 839.52 248.641 839.907Z" fill="#008DFF"/>
<path id="Vector_86" d="M304.709 856.951C304.709 857.147 293.289 854.467 279.333 850.929C265.378 847.39 254.097 844.379 254.143 844.168C254.189 843.957 265.562 846.637 279.533 850.191C293.504 853.744 304.77 856.741 304.709 856.951Z" fill="#008DFF"/>
<path id="Vector_87" d="M314.054 818.842C313.389 818.684 312.744 818.451 312.133 818.149L307.03 815.996C302.742 814.129 296.825 811.479 290.308 808.588C283.792 805.697 277.92 802.957 273.678 800.969L268.683 798.59C268.057 798.322 267.46 797.994 266.9 797.611C267.561 797.785 268.204 798.017 268.822 798.304L273.924 800.472C278.228 802.324 284.13 804.989 290.646 807.88C297.163 810.771 303.034 813.497 307.261 815.409L312.271 817.803C312.901 818.087 313.499 818.435 314.054 818.842Z" fill="#008DFF"/>
<path id="Vector_88" d="M331.221 786.573C331.067 786.739 322.598 779.045 312.316 769.529C302.034 760.013 293.796 752.047 293.949 751.897C294.103 751.746 302.572 759.425 312.854 768.956C323.136 778.488 331.374 786.423 331.221 786.573Z" fill="#008DFF"/>
<path id="Vector_89" d="M317.435 773.746C317.265 774.272 317.032 774.778 316.743 775.252C316.17 776.366 315.463 777.721 314.622 779.317C312.809 782.75 310.242 787.448 307.368 792.628C304.494 797.807 301.85 802.46 299.898 805.818C298.976 807.324 298.192 808.694 297.562 809.778C297.301 810.279 296.981 810.749 296.609 811.178C296.778 810.654 297.005 810.149 297.286 809.673L299.407 805.592C301.236 802.174 303.787 797.461 306.661 792.297C309.535 787.132 312.179 782.464 314.131 779.106L316.467 775.146C316.733 774.644 317.058 774.174 317.435 773.746Z" fill="#008DFF"/>
<path id="Vector_90" d="M421.962 746.252C422.131 746.402 413.77 755.542 403.319 766.684C392.868 777.827 384.23 786.726 384.092 786.575C383.953 786.424 392.284 777.285 402.75 766.142C413.217 755 421.808 746.101 421.962 746.252Z" fill="#008DFF"/>
<path id="Vector_91" d="M428.664 811.223C428.223 810.762 427.831 810.258 427.496 809.718C426.774 808.694 425.775 807.188 424.545 805.321C422.101 801.602 418.766 796.422 415.17 790.655C407.946 779.136 402.428 769.575 402.982 769.289C402.982 769.289 403.058 769.44 403.212 769.726C403.366 770.012 403.612 770.433 403.919 770.96C404.641 772.165 405.564 773.671 406.64 775.478L415.861 790.249C419.396 795.955 422.609 801.105 425.083 805.035C426.159 806.842 427.081 808.347 427.803 809.552C428.147 810.079 428.436 810.639 428.664 811.223Z" fill="#008DFF"/>
<path id="Vector_92" d="M455.406 801.36C455.499 801.556 444.002 806.314 429.755 811.99C415.507 817.667 403.888 822.094 403.811 821.898C403.734 821.702 415.215 816.944 429.463 811.267C443.71 805.591 455.33 801.164 455.406 801.36Z" fill="#008DFF"/>
<path id="Vector_93" d="M467.733 849.905C467.733 850.116 455.222 852.676 439.683 855.612C424.145 858.548 411.511 860.761 411.465 860.551C411.419 860.34 424.053 857.81 439.53 854.799C455.007 851.787 467.702 849.694 467.733 849.905Z" fill="#008DFF"/>
<path id="Vector_94" d="M273.539 777.165C272.233 777.415 270.905 777.536 269.574 777.526C267.115 777.631 263.718 777.707 259.968 777.676C256.218 777.646 252.837 777.511 250.377 777.36C249.043 777.356 247.714 777.21 246.412 776.924C247.732 776.761 249.065 776.721 250.393 776.803L259.983 776.893L269.559 776.969C270.889 776.91 272.222 776.975 273.539 777.165Z" fill="#008DFF"/>
<path id="Vector_95" d="M515.471 712.327C515.471 712.538 408.668 712.719 276.951 712.719C145.234 712.719 38.416 712.538 38.416 712.327C38.416 712.116 145.188 711.936 276.951 711.936C408.714 711.936 515.471 712.116 515.471 712.327Z" fill="#008DFF"/>
<path id="Vector_96" d="M544.257 776.095C544.257 776.305 522.739 776.486 496.165 776.486C469.591 776.486 448.059 776.305 448.059 776.095C448.059 775.884 469.576 775.703 496.165 775.703C522.755 775.703 544.257 775.884 544.257 776.095Z" fill="#008DFF"/>
<path id="Vector_97" d="M560.012 840.026C560.012 840.237 539.74 840.418 514.733 840.418C489.727 840.418 469.439 840.237 469.439 840.026C469.439 839.815 489.712 839.635 514.733 839.635C539.755 839.635 560.012 839.815 560.012 840.026Z" fill="#008DFF"/>
<path id="Vector_98" d="M465.55 840.027C465.319 840.027 465.15 826.325 465.15 809.446C465.15 792.567 465.319 778.85 465.55 778.85C465.781 778.85 465.95 792.537 465.95 809.446C465.95 826.355 465.719 840.027 465.55 840.027Z" fill="#008DFF"/>
<path id="Vector_99" d="M515.011 896.25C514.78 896.25 514.611 884.28 514.611 869.509C514.611 854.737 514.734 842.752 515.011 842.752C515.288 842.752 515.411 854.798 515.411 869.478C515.411 884.159 515.226 896.25 515.011 896.25Z" fill="#008DFF"/>
<path id="Vector_100" d="M512.473 776.607C512.22 775.771 512.045 774.914 511.95 774.047C511.627 772.255 511.228 769.891 510.721 767.03C509.66 761.113 508.031 752.967 505.787 744.068C503.543 735.169 501.176 727.219 499.255 721.482C498.333 718.727 497.58 716.438 497.011 714.722C496.683 713.907 496.431 713.066 496.258 712.207C496.662 712.986 497.011 713.791 497.303 714.616C497.933 716.122 498.84 718.471 499.793 721.317C501.806 726.993 504.311 734.958 506.571 743.902C508.83 752.846 510.367 761.007 511.274 766.955C511.735 769.966 512.073 772.345 512.258 774.017C512.388 774.874 512.46 775.74 512.473 776.607Z" fill="#008DFF"/>
<path id="Vector_101" d="M462.694 651.526C462.694 651.736 378.162 651.917 273.941 651.917C169.72 651.917 85.1875 651.736 85.1875 651.526C85.1875 651.315 169.72 651.119 273.941 651.119C378.162 651.119 462.694 651.315 462.694 651.526Z" fill="#008DFF"/>
<path id="Vector_102" d="M216.779 712.161C216.706 711.35 216.706 710.534 216.779 709.722C216.779 708.216 216.918 705.882 217.163 703.082C218.522 688.461 222.502 674.189 228.921 660.922C230.166 658.392 231.227 656.405 231.995 655.019C232.361 654.29 232.794 653.595 233.286 652.941C233.002 653.704 232.658 654.444 232.256 655.155C231.549 656.555 230.566 658.603 229.398 661.178C223.302 674.483 219.351 688.634 217.686 703.127C217.363 705.898 217.148 708.156 217.04 709.722C217.03 710.541 216.942 711.358 216.779 712.161Z" fill="#008DFF"/>
<path id="Vector_103" d="M344.714 713.938C344.489 713.134 344.329 712.313 344.238 711.484C343.992 709.767 343.654 707.509 343.239 704.783C342.455 698.986 341.41 691.232 340.242 682.649C339.074 674.067 337.89 666.207 336.845 660.591C336.338 657.88 335.907 655.637 335.569 653.935C335.376 653.132 335.237 652.317 335.154 651.496C335.468 652.266 335.709 653.062 335.877 653.875C336.276 655.381 336.83 657.685 337.414 660.485C338.597 666.087 339.888 673.901 341.041 682.544C342.194 691.187 343.131 699.107 343.807 704.723C344.115 707.464 344.361 709.722 344.545 711.454C344.681 712.275 344.738 713.107 344.714 713.938Z" fill="#008DFF"/>
<path id="Vector_104" d="M453.054 710.536C452.765 709.762 452.544 708.966 452.393 708.157L450.856 701.637C449.534 696.111 447.782 688.492 445.077 680.271C443.74 676.16 442.28 672.321 440.819 668.872C439.359 665.424 437.838 662.398 436.455 659.928C435.794 658.664 435.102 657.58 434.533 656.601C433.965 655.622 433.457 654.809 432.996 654.147C432.514 653.473 432.087 652.763 431.721 652.023C432.287 652.634 432.801 653.288 433.258 653.981C433.734 654.613 434.303 655.487 434.902 656.375C435.502 657.263 436.239 658.408 436.931 659.657C438.631 662.55 440.17 665.531 441.542 668.586C443.079 672.034 444.616 675.904 445.891 680.03C448.112 687.096 449.969 694.267 451.455 701.516C452.039 704.287 452.47 706.546 452.762 708.096C452.931 708.9 453.029 709.716 453.054 710.536Z" fill="#008DFF"/>
<path id="Vector_105" d="M119.55 650.639C119.15 651.426 118.688 652.181 118.167 652.897C117.23 654.403 115.908 656.406 114.309 659.01C110.148 665.775 106.406 672.779 103.105 679.985C99.8289 687.203 97.0059 694.61 94.6517 702.164C93.7449 705.055 93.1147 707.419 92.5922 709.061C92.3984 709.919 92.1311 710.76 91.793 711.575C91.9032 710.702 92.0727 709.837 92.3001 708.985C92.6536 707.314 93.2684 704.935 94.1138 701.999C96.321 694.371 99.0843 686.909 102.383 679.669C105.687 672.428 109.508 665.424 113.818 658.709C115.493 656.15 116.891 654.102 117.921 652.686C118.416 651.969 118.961 651.284 119.55 650.639Z" fill="#008DFF"/>
<path id="Vector_106" d="M149.721 776.11C149.526 775.309 149.408 774.493 149.368 773.671C149.183 772.165 149.03 769.816 148.922 766.985C148.441 752.203 150.642 737.454 155.424 723.425C156.346 720.745 157.176 718.591 157.806 717.146C158.098 716.374 158.447 715.624 158.851 714.902C158.666 715.704 158.414 716.49 158.098 717.251C157.56 718.757 156.822 720.895 155.961 723.59C151.493 737.628 149.31 752.267 149.491 766.97C149.491 769.801 149.598 772.074 149.675 773.655C149.751 774.471 149.767 775.292 149.721 776.11Z" fill="#008DFF"/>
<path id="Vector_107" d="M40.9212 772.813C40.8544 772.031 40.8544 771.245 40.9212 770.464C40.9212 768.958 41.121 766.79 41.4284 764.11C42.2954 757.13 43.7398 750.231 45.7472 743.481C48.0527 735.561 50.6347 728.56 52.5713 723.515C53.5396 721.001 54.3542 718.998 54.9228 717.568C55.193 716.833 55.5166 716.119 55.8911 715.43C55.7469 716.199 55.5202 716.951 55.2149 717.673C54.6769 719.179 53.9545 721.272 53.1092 723.696C51.311 728.77 48.8058 735.742 46.5157 743.677C44.5306 750.394 43.0158 757.236 41.9817 764.155C41.6128 766.82 41.3669 768.973 41.2439 770.479C41.2046 771.264 41.0966 772.045 40.9212 772.813Z" fill="#008DFF"/>
<path id="Vector_108" d="M294.38 733.107C293.688 729.949 293.256 726.742 293.089 723.516C292.662 720.306 292.493 717.069 292.582 713.834C293.283 716.996 293.72 720.209 293.888 723.44C294.324 726.644 294.488 729.877 294.38 733.107Z" fill="#008DFF"/>
<path id="Vector_109" d="M256.649 591.494C256.356 591.64 256.046 591.751 255.727 591.825L253.068 592.608L251.131 593.165C250.424 593.391 249.686 593.677 248.872 593.964C247.335 594.551 245.383 595.123 243.431 596.011L240.357 597.336C239.281 597.803 238.205 598.39 237.068 598.947C234.763 600.017 232.457 601.417 229.998 602.832C219.419 609.263 210.191 617.614 202.809 627.436C201.18 629.739 199.566 631.953 198.291 634.046C197.645 635.115 196.954 636.124 196.4 637.057L194.863 640.069C193.787 641.921 193.065 643.697 192.343 645.233C191.989 646.001 191.636 646.739 191.359 647.371C191.082 648.004 190.867 648.651 190.652 649.223C190.237 650.262 189.899 651.106 189.622 651.768C189.523 652.073 189.389 652.366 189.223 652.641C189.268 652.325 189.356 652.017 189.484 651.723C189.699 651.045 189.991 650.217 190.36 649.118L191.006 647.236C191.267 646.558 191.605 645.836 191.928 645.053C192.619 643.547 193.311 641.695 194.356 639.828C194.848 638.864 195.37 637.87 195.893 636.816C196.416 635.762 197.123 634.768 197.753 633.684C199.013 631.486 200.611 629.318 202.241 626.984C205.95 622.054 210.112 617.468 214.675 613.282C219.295 609.162 224.285 605.458 229.583 602.215C232.088 600.815 234.424 599.414 236.745 598.36C237.898 597.818 238.989 597.246 240.08 596.855L243.247 595.575C245.229 594.701 247.12 594.174 248.764 593.617C249.579 593.361 250.301 593.09 251.039 592.879L253.006 592.398L255.727 591.75C256.022 591.626 256.331 591.54 256.649 591.494Z" fill="#008DFF"/>
<path id="Vector_110" d="M361.313 654.868C361.181 654.597 361.073 654.315 360.99 654.025L360.176 651.601C359.853 650.547 359.438 649.252 358.854 647.792C358.27 646.331 357.717 644.615 356.871 642.823C356.026 641.031 355.212 639.013 354.09 636.95C352.968 634.888 351.815 632.704 350.462 630.446C344.497 620.704 336.762 612.116 327.639 605.104C325.518 603.599 323.504 602.093 321.491 600.768C319.477 599.443 317.633 598.344 315.896 597.35C314.159 596.356 312.515 595.543 311.101 594.805C309.687 594.068 308.442 593.48 307.412 593.029L305.045 591.944C304.758 591.839 304.489 591.692 304.246 591.508C304.542 591.575 304.83 591.671 305.107 591.794L307.535 592.758C308.818 593.242 310.075 593.79 311.301 594.399C312.745 595.122 314.375 595.905 316.173 596.868C317.971 597.832 319.877 598.901 321.86 600.226C323.842 601.551 325.933 602.966 328.084 604.547C332.668 608.075 336.931 611.984 340.826 616.232C344.655 620.542 348.086 625.178 351.077 630.084C352.414 632.373 353.675 634.601 354.674 636.664C355.673 638.727 356.595 640.775 357.379 642.687C358.162 644.599 358.716 646.241 359.254 647.716C359.792 649.192 360.176 650.517 360.468 651.586C360.76 652.655 360.96 653.423 361.129 654.07C361.224 654.328 361.285 654.596 361.313 654.868Z" fill="#008DFF"/>
<path id="Vector_111" d="M357.551 776.095C351.942 776.051 346.396 777.261 341.336 779.633C384.002 799.659 380.836 898.495 380.836 898.495H413.296C413.296 898.495 417.215 776.095 357.551 776.095Z" fill="#8BAFFF"/>
<path id="Vector_112" d="M341.333 779.633C298.836 799.659 302.801 898.464 302.801 898.464H380.832C380.832 898.464 383.999 799.659 341.333 779.633Z" fill="#CDE9FF"/>
<path id="Vector_113" d="M348.237 724.402C348.452 724.402 350.527 735.876 352.848 750.09C355.168 764.304 356.905 775.883 356.69 775.928C356.475 775.973 354.4 764.454 352.079 750.225C349.758 735.996 348.022 724.432 348.237 724.402Z" fill="#008DFF"/>
<path id="Vector_114" d="M522.695 778.172C526.998 778.172 530.487 774.754 530.487 770.538C530.487 766.322 526.998 762.904 522.695 762.904C518.391 762.904 514.902 766.322 514.902 770.538C514.902 774.754 518.391 778.172 522.695 778.172Z" fill="#EBF1FF"/>
<path id="Vector_115" d="M575.812 841.638C577.96 841.638 579.701 839.933 579.701 837.829C579.701 835.725 577.96 834.02 575.812 834.02C573.665 834.02 571.924 835.725 571.924 837.829C571.924 839.933 573.665 841.638 575.812 841.638Z" fill="#EBF1FF"/>
<path id="Vector_116" d="M693.713 582.67C695.86 582.67 697.601 580.964 697.601 578.86C697.601 576.756 695.86 575.051 693.713 575.051C691.565 575.051 689.824 576.756 689.824 578.86C689.824 580.964 691.565 582.67 693.713 582.67Z" fill="#EBF1FF"/>
</g>
<g id="sol">
<path id="Vector_117" opacity="0.3" d="M1746.42 196.994C1785.89 196.437 1817.46 162.859 1816.92 121.994C1816.38 81.1285 1783.95 48.4519 1744.47 49.0083C1705 49.5646 1673.44 83.1433 1673.97 124.008C1674.51 164.873 1706.95 197.55 1746.42 196.994Z" fill="#FB7500"/>
<path id="Vector_118" opacity="0.5" d="M1806.1 131.65C1810.72 96.9728 1787.31 64.9803 1753.82 60.193C1720.32 55.4058 1689.42 79.6367 1684.79 114.314C1680.17 148.992 1703.57 180.984 1737.07 185.772C1770.57 190.559 1801.47 166.328 1806.1 131.65Z" fill="#FB7500"/>
</g>
<g id="Clip path group">
<mask id="mask0_751_3184" style="mask-type:luminance" maskUnits="userSpaceOnUse" x="-25" y="835" width="186" height="77">
<g id="01790f6fc3">
<path id="Vector_119" d="M-24.8086 835H160.525V911.724H-24.8086V835Z" fill="white"/>
</g>
</mask>
<g mask="url(#mask0_751_3184)">
<g id="Group_9">
<path id="Vector_120" d="M158.942 908.822C158.348 908.77 151.994 908.817 141.979 908.921C139.551 908.947 136.9 908.979 134.062 909.005C128.02 909.088 121.13 909.176 113.692 909.275C104.63 909.395 94.7441 909.531 84.5671 909.682C82.9525 909.697 81.3275 909.729 79.6921 909.744C30.2441 910.463 -24.0527 911.301 -24.0527 911.301L-14.8288 883.124C-14.8288 883.124 -9.76628 867.958 -7.68815 864.557C-5.61003 861.145 3.92122 859.598 7.48893 854.025C11.0619 848.463 14.3379 840.104 17.9108 837.312C20.14 835.577 25.7337 835.041 31.8639 835.041C35.5514 835.041 39.4421 835.218 42.9004 835.458C46.7858 835.723 51.6087 836.848 56.5931 838.135C63.4421 839.89 70.5983 841.916 75.9369 842.27C85.1608 842.89 100.64 840.104 102.421 840.104C103.005 840.104 105.291 841.051 108.192 842.421C114.077 845.213 122.546 849.786 124.739 851.864C128.015 854.963 130.65 863.937 130.65 863.937C130.65 863.937 145.854 871.567 147.046 873.166C148.244 874.765 151.229 889.937 154.494 897.994C157.765 906.041 162.218 909.135 158.942 908.822Z" fill="white"/>
</g>
</g>
</g>
<g id="Clip path group_2">
<mask id="mask1_751_3184" style="mask-type:luminance" maskUnits="userSpaceOnUse" x="548" y="823" width="186" height="77">
<g id="01790f6fc3_2">
<path id="Vector_121" d="M548 823H733.333V899.724H548V823Z" fill="white"/>
</g>
</mask>
<g mask="url(#mask1_751_3184)">
<g id="Group_10">
<path id="Vector_122" d="M731.751 896.822C731.157 896.77 724.803 896.817 714.787 896.921C712.36 896.947 709.709 896.979 706.87 897.005C700.829 897.088 693.938 897.176 686.501 897.275C677.438 897.395 667.553 897.531 657.376 897.682C655.761 897.697 654.136 897.729 652.501 897.744C603.053 898.463 548.756 899.301 548.756 899.301L557.98 871.124C557.98 871.124 563.042 855.958 565.12 852.557C567.199 849.145 576.73 847.598 580.298 842.025C583.87 836.463 587.146 828.104 590.719 825.312C592.949 823.577 598.542 823.041 604.673 823.041C608.36 823.041 612.251 823.218 615.709 823.458C619.594 823.723 624.417 824.848 629.402 826.135C636.251 827.89 643.407 829.916 648.745 830.27C657.969 830.89 673.449 828.104 675.23 828.104C675.813 828.104 678.1 829.051 681.001 830.421C686.886 833.213 695.355 837.786 697.548 839.864C700.824 842.963 703.459 851.937 703.459 851.937C703.459 851.937 718.662 859.567 719.855 861.166C721.053 862.765 724.037 877.937 727.303 885.994C730.574 894.041 735.027 897.135 731.751 896.822Z" fill="white"/>
</g>
</g>
</g>
<g id="Clip path group_3">
<mask id="mask2_751_3184" style="mask-type:luminance" maskUnits="userSpaceOnUse" x="31" y="835" width="55" height="76">
<g id="ece663dc71">
<path id="Vector_123" d="M31.1914 835H85.8581V910.391H31.1914V835Z" fill="white"/>
</g>
</mask>
<g mask="url(#mask2_751_3184)">
<g id="Group_11">
<path id="Vector_124" d="M84.5619 909.683C82.9473 909.699 81.3223 909.73 79.6869 909.745L75.3327 866.412C75.3327 866.412 62.8327 853.407 60.1556 847.532C57.4733 841.652 34.5671 838.855 34.5671 838.855L31.8535 835.037C35.541 835.037 39.4316 835.219 42.8952 835.454C46.7754 835.719 51.5983 836.85 56.5827 838.131L59.8587 843.813C59.8587 843.813 63.4264 847.844 72.6608 856.824C81.8848 865.792 79.5046 864.558 80.6921 866.417C81.5723 867.777 83.5671 895.23 84.5619 909.683Z" fill="#C7E8EB"/>
</g>
</g>
</g>
<path id="Vector_125" d="M158.942 908.823C158.349 908.771 151.994 908.818 141.979 908.922L132.765 873.167L130.645 875.078L134.062 909.01C128.026 909.094 121.135 909.182 113.698 909.281C113.567 909.01 113.474 908.745 113.427 908.516C112.234 903.255 114.921 863.938 111.937 859.292C109.151 854.943 107.406 849.234 108.187 842.422C114.067 845.214 122.541 849.786 124.734 851.865C128.01 854.964 130.64 863.938 130.64 863.938C130.64 863.938 145.843 871.568 147.041 873.167C148.239 874.766 151.218 889.938 154.489 897.995C157.765 906.042 162.218 909.135 158.942 908.823Z" fill="#C7E8EB"/>
<path id="Vector_126" d="M293.38 1044.98C310.75 1054.08 306.062 1073.86 246.338 1090.99C186.62 1108.12 123.323 1108.53 100.338 1099.21C77.3487 1089.9 93.4737 1080.1 110.224 1075.96C126.968 1071.81 105.406 1061.99 55.2549 1056.98C5.09869 1051.98 -45.0159 1038.54 -40.7451 1007.77C-36.4794 976.995 -8.41174 969.281 3.20805 963.391C14.8226 957.505 14.8122 946.745 -4.97424 940.083C-24.7607 933.422 -30.9951 925.38 -26.7607 913.938C-23.1774 904.271 -14.7242 897.198 28.4685 892.578C10.0622 911.286 -8.44299 937.073 15.4893 948.021C55.1195 966.151 86.7393 971.203 61.0206 988.911C35.3018 1006.62 108.239 1016.73 165.573 1015.05C222.906 1013.36 214.755 1004.45 185.317 1002.58C155.875 1000.72 199.302 996.5 236.817 993.974C274.343 991.443 282.401 979.042 245.692 973.859C208.995 968.677 233.87 957.292 269.281 958.562C281.349 958.99 295.864 958.479 309.76 957.615C316.864 961.297 321.963 965.823 323.458 971.594C330.328 998.01 271.474 1014.6 260.567 1020.39C249.656 1026.16 276 1035.87 293.38 1044.98Z" fill="#BFE3FF"/>
<path id="Vector_127" d="M112.307 940.431C112.307 940.837 112.24 941.249 112.099 941.655C111.958 942.061 111.75 942.467 111.474 942.868C111.193 943.27 110.849 943.665 110.432 944.061C110.021 944.452 109.542 944.837 108.995 945.212C108.448 945.592 107.839 945.962 107.167 946.322C106.495 946.686 105.76 947.035 104.969 947.379C104.177 947.717 103.328 948.046 102.422 948.363C101.516 948.681 100.557 948.983 99.5521 949.27C98.5417 949.561 97.4844 949.837 96.3854 950.098C95.2812 950.358 94.1354 950.598 92.9479 950.827C91.7604 951.056 90.5417 951.264 89.2812 951.457C88.026 951.65 86.7344 951.827 85.4167 951.983C84.099 952.139 82.7604 952.275 81.3906 952.395C80.026 952.514 78.6458 952.613 77.2448 952.691C75.849 952.775 74.4375 952.832 73.0156 952.874C71.599 952.915 70.1719 952.936 68.75 952.936C67.3229 952.936 65.8958 952.915 64.4792 952.874C63.0573 952.832 61.6458 952.775 60.25 952.691C58.849 952.613 57.4688 952.514 56.1042 952.395C54.7344 952.275 53.3958 952.139 52.0781 951.983C50.7604 951.827 49.4688 951.65 48.2135 951.457C46.9531 951.264 45.7344 951.056 44.5469 950.827C43.3594 950.598 42.2135 950.358 41.1094 950.098C40.0104 949.837 38.9531 949.561 37.9427 949.27C36.9375 948.983 35.9792 948.681 35.0729 948.363C34.1667 948.046 33.3177 947.717 32.526 947.379C31.7344 947.035 31 946.686 30.3281 946.322C29.6563 945.962 29.0469 945.592 28.5 945.212C27.9531 944.837 27.474 944.452 27.0625 944.061C26.6458 943.665 26.3021 943.27 26.0208 942.868C25.7448 942.467 25.5365 942.061 25.3958 941.655C25.2552 941.249 25.1875 940.837 25.1875 940.431C25.1875 940.02 25.2552 939.613 25.3958 939.202C25.5365 938.796 25.7448 938.389 26.0208 937.988C26.3021 937.587 26.6458 937.191 27.0625 936.801C27.474 936.405 27.9531 936.025 28.5 935.645C29.0469 935.264 29.6563 934.895 30.3281 934.535C31 934.176 31.7344 933.822 32.526 933.483C33.3177 933.139 34.1667 932.811 35.0729 932.499C35.9792 932.181 36.9375 931.879 37.9427 931.587C38.9531 931.296 40.0104 931.025 41.1146 930.764C42.2135 930.504 43.3594 930.259 44.5469 930.03C45.7344 929.806 46.9531 929.592 48.2135 929.4C49.4688 929.207 50.7604 929.035 52.0781 928.874C53.3958 928.717 54.7344 928.582 56.1042 928.462C57.4688 928.342 58.849 928.243 60.25 928.165C61.6458 928.087 63.0573 928.025 64.4792 927.983C65.8958 927.947 67.3229 927.926 68.75 927.926C70.1719 927.926 71.599 927.947 73.0156 927.983C74.4375 928.025 75.849 928.087 77.2448 928.165C78.6458 928.243 80.026 928.342 81.3906 928.462C82.7604 928.582 84.099 928.717 85.4167 928.874C86.7344 929.035 88.026 929.207 89.2812 929.4C90.5417 929.592 91.7604 929.806 92.9479 930.03C94.1354 930.259 95.2812 930.504 96.3854 930.764C97.4844 931.025 98.5417 931.296 99.5521 931.587C100.557 931.879 101.516 932.181 102.422 932.499C103.328 932.811 104.177 933.139 104.969 933.483C105.76 933.822 106.495 934.176 107.167 934.535C107.839 934.895 108.448 935.264 108.995 935.645C109.542 936.025 110.021 936.405 110.432 936.801C110.849 937.191 111.193 937.587 111.474 937.988C111.75 938.389 111.958 938.796 112.099 939.202C112.24 939.613 112.307 940.02 112.307 940.431Z" fill="#D2EDF3"/>
<path id="Vector_128" d="M41.2077 1012.93C41.2077 1013.51 41.0358 1014.09 40.6921 1014.66C40.3483 1015.22 39.8379 1015.78 39.166 1016.31C38.4889 1016.85 37.666 1017.36 36.6869 1017.84C35.7077 1018.32 34.5931 1018.77 33.3483 1019.18C32.0983 1019.59 30.7441 1019.96 29.2806 1020.28C27.8119 1020.6 26.265 1020.88 24.64 1021.1C23.0098 1021.32 21.3327 1021.49 19.6035 1021.6C17.8743 1021.71 16.1296 1021.77 14.3639 1021.77C12.6035 1021.77 10.8587 1021.71 9.12956 1021.6C7.40039 1021.49 5.72331 1021.32 4.0931 1021.1C2.46289 1020.88 0.916017 1020.6 -0.547525 1020.28C-2.01107 1019.96 -3.37044 1019.59 -4.61523 1019.18C-5.86002 1018.77 -6.97461 1018.32 -7.95378 1017.84C-8.93294 1017.36 -9.76107 1016.85 -10.4329 1016.31C-11.11 1015.78 -11.6152 1015.22 -11.959 1014.66C-12.3027 1014.09 -12.4746 1013.51 -12.4746 1012.93C-12.4746 1012.35 -12.3027 1011.78 -11.959 1011.21C-11.6152 1010.64 -11.11 1010.08 -10.4329 1009.55C-9.76107 1009.01 -8.93294 1008.51 -7.95378 1008.02C-6.97461 1007.54 -5.86002 1007.09 -4.61523 1006.68C-3.37044 1006.27 -2.01107 1005.91 -0.547525 1005.58C0.916017 1005.26 2.46289 1004.99 4.0931 1004.77C5.72331 1004.54 7.40039 1004.37 9.12956 1004.26C10.8587 1004.15 12.6035 1004.09 14.3639 1004.09C16.1296 1004.09 17.8743 1004.15 19.6035 1004.26C21.3327 1004.37 23.0098 1004.54 24.64 1004.77C26.265 1004.99 27.8119 1005.26 29.2806 1005.58C30.7441 1005.91 32.0983 1006.27 33.3483 1006.68C34.5931 1007.09 35.7077 1007.54 36.6869 1008.02C37.666 1008.51 38.4889 1009.01 39.166 1009.55C39.8379 1010.08 40.3483 1010.64 40.6921 1011.21C41.0358 1011.78 41.2077 1012.35 41.2077 1012.93Z" fill="#9AD8E2"/>
<path id="Vector_129" d="M140.207 1022.49C140.207 1022.93 140.108 1023.37 139.905 1023.81C139.707 1024.24 139.41 1024.67 139.009 1025.1C138.613 1025.53 138.118 1025.95 137.53 1026.37C136.936 1026.79 136.254 1027.2 135.473 1027.61C134.697 1028.01 133.827 1028.4 132.868 1028.79C131.905 1029.18 130.863 1029.55 129.733 1029.92C128.603 1030.28 127.389 1030.63 126.098 1030.97C124.806 1031.31 123.441 1031.63 122.004 1031.94C120.561 1032.25 119.056 1032.54 117.483 1032.82C115.91 1033.09 114.275 1033.35 112.587 1033.6C110.895 1033.84 109.15 1034.07 107.353 1034.27C105.556 1034.48 103.723 1034.67 101.842 1034.83C99.957 1035 98.0456 1035.14 96.0977 1035.27C94.1497 1035.4 92.1758 1035.5 90.181 1035.59C88.1862 1035.68 86.1758 1035.74 84.1497 1035.79C82.1237 1035.83 80.0924 1035.85 78.056 1035.85C76.0195 1035.85 73.9883 1035.83 71.9674 1035.79C69.9414 1035.74 67.931 1035.68 65.931 1035.59C63.9362 1035.5 61.9622 1035.4 60.0143 1035.27C58.0664 1035.14 56.1549 1035 54.2747 1034.83C52.3945 1034.67 50.556 1034.48 48.7591 1034.27C46.9674 1034.07 45.2227 1033.84 43.5299 1033.6C41.8372 1033.35 40.2018 1033.09 38.6289 1032.82C37.056 1032.54 35.5508 1032.25 34.1133 1031.94C32.6706 1031.63 31.306 1031.31 30.0143 1030.97C28.7227 1030.63 27.5143 1030.28 26.3841 1029.92C25.2487 1029.55 24.207 1029.18 23.2487 1028.79C22.2852 1028.4 21.4154 1028.01 20.6393 1027.61C19.8581 1027.2 19.1758 1026.79 18.582 1026.37C17.9935 1025.95 17.4987 1025.53 17.1029 1025.1C16.707 1024.67 16.4049 1024.24 16.207 1023.81C16.0091 1023.37 15.9102 1022.93 15.9102 1022.49C15.9102 1022.06 16.0091 1021.62 16.207 1021.19C16.4049 1020.75 16.707 1020.32 17.1029 1019.89C17.4987 1019.46 17.9935 1019.04 18.582 1018.62C19.1758 1018.2 19.8581 1017.79 20.6393 1017.38C21.4154 1016.98 22.2852 1016.59 23.2487 1016.2C24.207 1015.82 25.2487 1015.44 26.3841 1015.08C27.5143 1014.71 28.7227 1014.36 30.0143 1014.02C31.306 1013.69 32.6706 1013.36 34.1133 1013.06C35.5508 1012.74 37.056 1012.45 38.6289 1012.18C40.2018 1011.9 41.8372 1011.64 43.5299 1011.39C45.2227 1011.15 46.9674 1010.93 48.7591 1010.72C50.556 1010.51 52.3945 1010.33 54.2747 1010.16C56.1549 1009.99 58.0664 1009.85 60.0143 1009.72C61.9622 1009.59 63.9362 1009.49 65.931 1009.4C67.931 1009.32 69.9414 1009.25 71.9674 1009.21C73.9883 1009.17 76.0195 1009.14 78.056 1009.14C80.0924 1009.14 82.1237 1009.17 84.1497 1009.21C86.1758 1009.25 88.1862 1009.32 90.181 1009.4C92.1758 1009.49 94.1497 1009.59 96.0977 1009.72C98.0456 1009.85 99.957 1009.99 101.842 1010.16C103.723 1010.33 105.556 1010.51 107.353 1010.72C109.15 1010.93 110.895 1011.15 112.587 1011.39C114.275 1011.64 115.91 1011.9 117.483 1012.18C119.056 1012.45 120.561 1012.74 122.004 1013.06C123.441 1013.36 124.806 1013.69 126.098 1014.02C127.389 1014.36 128.603 1014.71 129.733 1015.08C130.863 1015.44 131.905 1015.82 132.868 1016.2C133.827 1016.59 134.697 1016.98 135.473 1017.38C136.254 1017.79 136.936 1018.2 137.53 1018.62C138.118 1019.04 138.613 1019.46 139.009 1019.89C139.41 1020.32 139.707 1020.75 139.905 1021.19C140.108 1021.62 140.207 1022.06 140.207 1022.49Z" fill="#D2EDF3"/>
<path id="Vector_130" d="M153.349 1048.49C153.349 1049.07 153.172 1049.64 152.823 1050.2C152.469 1050.76 151.953 1051.3 151.266 1051.83C150.578 1052.36 149.734 1052.86 148.734 1053.34C147.74 1053.81 146.604 1054.26 145.333 1054.66C144.062 1055.06 142.682 1055.43 141.188 1055.74C139.693 1056.06 138.115 1056.33 136.458 1056.55C134.797 1056.77 133.083 1056.93 131.323 1057.04C129.563 1057.16 127.781 1057.21 125.984 1057.21C124.188 1057.21 122.411 1057.16 120.646 1057.04C118.885 1056.93 117.177 1056.77 115.516 1056.55C113.854 1056.33 112.276 1056.06 110.786 1055.74C109.292 1055.43 107.906 1055.06 106.641 1054.66C105.37 1054.26 104.234 1053.81 103.234 1053.34C102.24 1052.86 101.396 1052.36 100.708 1051.83C100.021 1051.3 99.5 1050.76 99.151 1050.2C98.8021 1049.64 98.625 1049.07 98.625 1048.49C98.625 1047.93 98.8021 1047.36 99.151 1046.8C99.5 1046.23 100.021 1045.69 100.708 1045.16C101.396 1044.64 102.24 1044.13 103.234 1043.66C104.234 1043.18 105.37 1042.74 106.641 1042.33C107.906 1041.93 109.292 1041.57 110.786 1041.25C112.276 1040.93 113.854 1040.67 115.516 1040.45C117.177 1040.23 118.885 1040.06 120.646 1039.95C122.411 1039.84 124.188 1039.78 125.984 1039.78C127.781 1039.78 129.563 1039.84 131.323 1039.95C133.083 1040.06 134.797 1040.23 136.458 1040.45C138.115 1040.67 139.693 1040.93 141.188 1041.25C142.682 1041.57 144.062 1041.93 145.333 1042.33C146.604 1042.74 147.74 1043.18 148.734 1043.66C149.734 1044.13 150.578 1044.64 151.266 1045.16C151.953 1045.69 152.469 1046.23 152.823 1046.8C153.172 1047.36 153.349 1047.93 153.349 1048.49Z" fill="#9AD8E2"/>
<path id="Vector_131" d="M208.15 1012.93C208.15 1013.22 208.104 1013.51 208.005 1013.8C207.906 1014.09 207.76 1014.37 207.562 1014.66C207.369 1014.94 207.124 1015.22 206.833 1015.5C206.541 1015.78 206.202 1016.05 205.817 1016.31C205.437 1016.58 205.005 1016.84 204.536 1017.1C204.062 1017.35 203.546 1017.6 202.989 1017.84C202.432 1018.08 201.833 1018.32 201.197 1018.54C200.562 1018.77 199.89 1018.98 199.176 1019.18C198.468 1019.39 197.729 1019.58 196.952 1019.77C196.176 1019.95 195.369 1020.12 194.536 1020.28C193.702 1020.44 192.843 1020.59 191.958 1020.73C191.072 1020.86 190.166 1020.99 189.239 1021.1C188.312 1021.21 187.369 1021.31 186.411 1021.39C185.452 1021.47 184.479 1021.55 183.494 1021.6C182.51 1021.66 181.52 1021.7 180.52 1021.73C179.52 1021.76 178.52 1021.77 177.52 1021.77C176.515 1021.77 175.515 1021.76 174.515 1021.73C173.515 1021.7 172.525 1021.66 171.541 1021.6C170.557 1021.55 169.588 1021.47 168.624 1021.39C167.666 1021.31 166.723 1021.21 165.796 1021.1C164.869 1020.99 163.963 1020.86 163.077 1020.73C162.192 1020.59 161.333 1020.44 160.499 1020.28C159.666 1020.12 158.859 1019.95 158.083 1019.77C157.307 1019.58 156.567 1019.39 155.859 1019.18C155.145 1018.98 154.473 1018.77 153.838 1018.54C153.202 1018.32 152.604 1018.08 152.046 1017.84C151.489 1017.6 150.973 1017.35 150.499 1017.1C150.031 1016.84 149.598 1016.58 149.218 1016.31C148.833 1016.05 148.494 1015.78 148.202 1015.5C147.911 1015.22 147.671 1014.94 147.473 1014.66C147.275 1014.37 147.13 1014.09 147.031 1013.8C146.932 1013.51 146.885 1013.22 146.885 1012.93C146.885 1012.64 146.932 1012.35 147.031 1012.07C147.13 1011.78 147.275 1011.49 147.473 1011.21C147.671 1010.92 147.911 1010.64 148.202 1010.36C148.494 1010.09 148.833 1009.82 149.218 1009.55C149.598 1009.28 150.031 1009.02 150.499 1008.77C150.973 1008.51 151.489 1008.26 152.046 1008.02C152.604 1007.78 153.202 1007.55 153.838 1007.32C154.473 1007.1 155.145 1006.89 155.859 1006.68C156.567 1006.47 157.307 1006.28 158.083 1006.1C158.859 1005.92 159.666 1005.74 160.499 1005.58C161.333 1005.42 162.192 1005.27 163.077 1005.14C163.963 1005 164.869 1004.87 165.796 1004.77C166.723 1004.66 167.666 1004.56 168.624 1004.47C169.588 1004.39 170.557 1004.32 171.541 1004.26C172.525 1004.2 173.515 1004.16 174.515 1004.14C175.515 1004.1 176.515 1004.09 177.52 1004.09C178.52 1004.09 179.52 1004.1 180.52 1004.14C181.52 1004.16 182.51 1004.2 183.494 1004.26C184.479 1004.32 185.452 1004.39 186.411 1004.47C187.369 1004.56 188.312 1004.66 189.239 1004.77C190.166 1004.87 191.072 1005 191.958 1005.14C192.843 1005.27 193.702 1005.42 194.536 1005.58C195.369 1005.74 196.176 1005.92 196.952 1006.1C197.729 1006.28 198.468 1006.47 199.176 1006.68C199.89 1006.89 200.562 1007.1 201.197 1007.32C201.833 1007.55 202.432 1007.78 202.989 1008.02C203.546 1008.26 204.062 1008.51 204.536 1008.77C205.005 1009.02 205.437 1009.28 205.817 1009.55C206.202 1009.82 206.541 1010.09 206.833 1010.36C207.124 1010.64 207.369 1010.92 207.562 1011.21C207.76 1011.49 207.906 1011.78 208.005 1012.07C208.104 1012.35 208.15 1012.64 208.15 1012.93Z" fill="#9AD8E2"/>
<path id="Vector_132" d="M273.353 973.859C273.353 974.234 273.285 974.604 273.15 974.973C273.014 975.343 272.811 975.713 272.54 976.077C272.275 976.442 271.936 976.801 271.535 977.161C271.134 977.515 270.665 977.864 270.134 978.208C269.603 978.551 269.014 978.89 268.363 979.218C267.707 979.546 266.999 979.864 266.228 980.171C265.457 980.484 264.634 980.781 263.754 981.067C262.874 981.359 261.947 981.635 260.967 981.895C259.988 982.161 258.962 982.411 257.889 982.645C256.822 982.88 255.707 983.104 254.556 983.307C253.405 983.515 252.217 983.708 250.993 983.88C249.775 984.057 248.525 984.218 247.243 984.359C245.962 984.499 244.66 984.624 243.332 984.734C242.009 984.843 240.665 984.932 239.306 985.005C237.947 985.077 236.582 985.135 235.202 985.171C233.822 985.208 232.441 985.223 231.056 985.223C229.671 985.223 228.29 985.208 226.91 985.171C225.53 985.135 224.16 985.077 222.801 985.005C221.447 984.932 220.103 984.843 218.775 984.734C217.452 984.624 216.15 984.499 214.868 984.359C213.587 984.218 212.337 984.057 211.113 983.88C209.895 983.708 208.707 983.515 207.556 983.307C206.405 983.104 205.29 982.88 204.223 982.645C203.15 982.411 202.124 982.161 201.145 981.895C200.165 981.635 199.238 981.359 198.358 981.067C197.478 980.781 196.655 980.484 195.884 980.171C195.113 979.864 194.405 979.546 193.749 979.218C193.098 978.89 192.504 978.551 191.978 978.208C191.447 977.864 190.978 977.515 190.577 977.161C190.176 976.801 189.837 976.442 189.566 976.077C189.301 975.713 189.098 975.343 188.957 974.973C188.822 974.604 188.754 974.234 188.754 973.859C188.754 973.489 188.822 973.119 188.957 972.744C189.098 972.374 189.301 972.01 189.566 971.645C189.837 971.281 190.176 970.916 190.577 970.562C190.978 970.208 191.447 969.854 191.978 969.51C192.504 969.166 193.098 968.833 193.749 968.505C194.405 968.176 195.113 967.859 195.884 967.546C196.655 967.239 197.478 966.937 198.358 966.65C199.238 966.364 200.165 966.088 201.145 965.822C202.124 965.562 203.15 965.312 204.223 965.077C205.29 964.838 206.405 964.619 207.556 964.411C208.707 964.202 209.895 964.015 211.113 963.838C212.337 963.661 213.587 963.505 214.868 963.359C216.15 963.218 217.452 963.093 218.775 962.984C220.103 962.88 221.447 962.786 222.801 962.713C224.16 962.64 225.53 962.588 226.91 962.551C228.29 962.515 229.671 962.494 231.056 962.494C232.441 962.494 233.822 962.515 235.202 962.551C236.582 962.588 237.947 962.64 239.306 962.713C240.665 962.786 242.009 962.88 243.332 962.984C244.66 963.093 245.962 963.218 247.243 963.359C248.525 963.505 249.775 963.661 250.993 963.838C252.217 964.015 253.405 964.202 254.556 964.411C255.707 964.619 256.822 964.838 257.889 965.077C258.962 965.312 259.988 965.562 260.967 965.822C261.947 966.088 262.874 966.364 263.754 966.65C264.634 966.937 265.457 967.239 266.228 967.546C266.999 967.859 267.707 968.176 268.363 968.505C269.014 968.833 269.603 969.166 270.134 969.51C270.665 969.854 271.134 970.208 271.535 970.562C271.936 970.916 272.275 971.281 272.54 971.645C272.811 972.01 273.014 972.374 273.15 972.744C273.285 973.119 273.353 973.489 273.353 973.859Z" fill="#D2EDF3"/>
<path id="Vector_133" d="M31.4629 1009.08C31.4629 1009.08 31.1816 1012.07 31.0723 1012.33C30.9629 1012.59 18.1191 1013.79 18.1191 1013.79L10.3691 1014.2C10.3691 1014.2 -7.06315 1014.98 -7.73503 1014.2C-8.41211 1013.42 -8.88086 1007.7 -8.88086 1007.7L31.4629 1009.08Z" fill="#E6F5F8"/>
<path id="Vector_134" d="M-8.88045 1007.7C-8.88045 1007.7 -2.43254 1000.9 -2.03671 997.238C-1.65129 993.577 -0.557538 990.764 -0.557538 990.764C-0.557538 990.764 8.18725 988.738 9.35392 988.035C10.5258 987.332 13.4945 985.223 13.4945 985.223C13.4945 985.223 22.8539 987.723 22.932 989.28C23.0102 990.842 22.8539 991.936 22.8539 991.936C22.8539 991.936 29.1768 1000.6 29.9581 1002.78C30.7393 1004.96 31.8279 1009.25 31.3643 1009.25C30.8956 1009.25 23.9477 1009.1 22.3904 1009.49C20.8279 1009.88 17.3956 1009.96 12.2445 1009.96C7.0935 1009.96 -9.58879 1008.47 -8.88045 1007.7Z" fill="white"/>
<path id="Vector_135" d="M131.078 1016.24C131.078 1016.24 130.302 1024.33 130.021 1025.03C129.74 1025.73 95.026 1028.96 95.026 1028.96L74.0885 1030.09C74.0885 1030.09 27.0156 1032.2 25.1875 1030.09C23.3594 1027.98 22.0938 1012.52 22.0938 1012.52L131.078 1016.24Z" fill="#E6F5F8"/>
<path id="Vector_136" d="M22.0945 1012.52C22.0945 1012.52 39.5216 994.182 40.5737 984.275C41.6309 974.364 44.5789 966.775 44.5789 966.775C44.5789 966.775 68.1882 961.296 71.3497 959.395C74.5112 957.499 82.5216 951.807 82.5216 951.807C82.5216 951.807 107.818 958.557 108.032 962.77C108.24 966.984 107.818 969.937 107.818 969.937C107.818 969.937 124.891 993.333 127.001 999.234C129.11 1005.13 132.058 1016.73 130.798 1016.73C129.532 1016.73 110.772 1016.31 106.558 1017.36C102.344 1018.42 93.0684 1018.63 79.1518 1018.63C65.2403 1018.63 20.1778 1014.62 22.0945 1012.52Z" fill="white"/>
<path id="Vector_137" d="M31.4727 927.082C31.4727 927.082 32.6341 933.264 33.1966 933.686C33.7591 934.108 60.4622 941.275 60.4622 941.275C60.4622 941.275 71.7018 943.665 73.2435 943.947C74.7956 944.228 83.2227 942.4 83.5039 941.421C83.7852 940.436 88.1393 934.535 90.3893 932.285C92.6341 930.04 94.3268 927.65 94.3268 927.65L94.3216 918.301L31.4727 927.082Z" fill="#C7E8EB"/>
<path id="Vector_138" d="M67.3435 935.228C67.3435 935.228 32.4216 930.733 31.4685 927.077C30.5258 923.426 33.0519 919.488 33.0519 919.488C33.0519 919.488 49.9164 916.676 51.5987 914.993C53.2862 913.306 69.6612 914.639 73.6612 914.993C77.6664 915.342 94.1092 915.342 94.3175 918.295C94.531 921.248 88.2081 927.78 88.2081 927.78C88.2081 927.78 83.9946 930.092 82.9373 933.045C81.8852 936.004 79.9894 938.248 67.3435 935.228Z" fill="white"/>
<path id="Vector_139" d="M188.755 921.457C188.755 921.457 184.542 928.207 183.698 931.577C182.859 934.947 178.641 936.217 178.005 942.749C177.375 949.285 176.74 953.499 178.005 954.77C179.276 956.035 183.063 961.228 184.333 966.431C185.599 971.629 189.813 977.322 190.443 977.322C191.073 977.322 205.833 977.743 211.099 976.27C216.37 974.796 225.432 981.02 235.552 977.379C245.672 973.738 250.943 971.842 256.636 971.842C262.328 971.842 264.854 968.046 264.854 968.046L267.172 964.462L188.755 921.457Z" fill="#C7E8EB"/>
<path id="Vector_140" d="M238.786 966.431C238.786 966.431 209.557 963.056 201.687 958.837C193.812 954.623 189.036 947.879 186.229 946.191C183.416 944.504 188.192 935.509 188.192 935.509C188.192 935.509 186.791 922.863 188.755 921.457C190.723 920.05 207.583 919.212 209.838 920.613C212.083 922.019 215.177 924.832 225.015 927.925C234.854 931.014 252.838 945.629 254.802 946.191C256.77 946.754 266.328 951.811 267.171 953.498C268.015 955.186 267.171 964.462 267.171 964.462C267.171 964.462 257.052 964.462 255.083 965.024C253.119 965.587 238.786 966.431 238.786 966.431Z" fill="white"/>
<path id="Vector_141" d="M179.603 988.316C179.603 988.316 181.712 991.691 182.129 993.374C182.551 995.061 184.66 995.691 184.973 998.962C185.29 1002.23 185.603 1004.34 184.973 1004.97C184.342 1005.6 182.447 1008.2 181.811 1010.8C181.181 1013.4 179.072 1016.24 178.759 1016.24C178.441 1016.24 171.061 1016.46 168.426 1015.72C165.79 1014.98 161.259 1018.09 156.202 1016.27C151.145 1014.45 148.509 1013.5 145.665 1013.5C142.822 1013.5 141.556 1011.61 141.556 1011.61L140.395 1009.82L179.603 988.316Z" fill="#E6F5F8"/>
<path id="Vector_142" d="M154.589 1010.81C154.589 1010.81 169.203 1009.12 173.135 1007.01C177.068 1004.9 179.458 1001.53 180.865 1000.69C182.271 999.842 179.88 995.347 179.88 995.347C179.88 995.347 180.583 989.024 179.599 988.316C178.615 987.613 170.182 987.196 169.057 987.894C167.938 988.592 166.391 990.004 161.469 991.545C156.552 993.092 147.557 1000.4 146.573 1000.68C145.589 1000.96 140.813 1003.49 140.391 1004.33C139.969 1005.18 140.391 1009.82 140.391 1009.82C140.391 1009.82 145.448 1009.82 146.438 1010.09C147.422 1010.38 154.589 1010.81 154.589 1010.81Z" fill="white"/>
<path id="Vector_143" d="M138.021 1027.43C138.021 1027.43 140.13 1030.8 140.547 1032.48C140.974 1034.17 143.078 1034.8 143.391 1038.07C143.708 1041.33 144.026 1043.44 143.391 1044.07C142.76 1044.71 140.865 1047.31 140.234 1049.9C139.604 1052.5 137.495 1055.35 137.177 1055.35C136.859 1055.35 129.484 1055.56 126.844 1054.82C124.208 1054.09 119.677 1057.2 114.62 1055.38C109.563 1053.56 106.927 1052.61 104.083 1052.61C101.24 1052.61 99.974 1050.71 99.974 1050.71L98.8125 1048.92L138.021 1027.43Z" fill="#E6F5F8"/>
<path id="Vector_144" d="M113.004 1049.91C113.004 1049.91 127.618 1048.22 131.55 1046.11C135.483 1044 137.873 1040.63 139.28 1039.79C140.686 1038.95 138.295 1034.45 138.295 1034.45C138.295 1034.45 138.998 1028.13 138.014 1027.43C137.03 1026.72 128.597 1026.3 127.478 1027C126.353 1027.71 124.806 1029.11 119.884 1030.66C114.967 1032.2 105.972 1039.5 104.988 1039.79C104.009 1040.07 99.2276 1042.6 98.8109 1043.44C98.3838 1044.28 98.8109 1048.92 98.8109 1048.92C98.8109 1048.92 103.868 1048.92 104.853 1049.2C105.837 1049.49 113.004 1049.91 113.004 1049.91Z" fill="white"/>
<path id="Vector_145" d="M153.308 1078.24C156.604 1077.79 159.797 1076.69 162.688 1075.05C164.141 1074.22 165.505 1073.25 166.776 1072.17C167.964 1071.16 169.026 1070.01 170.229 1069.03C171.245 1068.19 172.479 1067.39 173.839 1067.41C175.438 1067.44 176.907 1068.68 178.344 1069.27C181.443 1070.54 184.88 1070.56 188.172 1070.33C191.953 1070.08 195.823 1069.49 199.584 1070.24C201.141 1070.55 201.808 1068.17 200.24 1067.85C196.771 1067.16 193.276 1067.45 189.782 1067.73C186.443 1068 182.959 1068.26 179.729 1067.15C178.136 1066.6 176.771 1065.48 175.115 1065.09C173.547 1064.72 171.974 1065.06 170.573 1065.8C167.771 1067.3 165.818 1070.01 163.214 1071.8C160.052 1073.96 156.448 1075.32 152.657 1075.84C151.995 1075.94 151.63 1076.78 151.792 1077.36C151.979 1078.09 152.641 1078.33 153.308 1078.24Z" fill="white"/>
<path id="Vector_146" d="M186.349 1080.75C187.26 1080.49 188.187 1080.28 189.114 1080.11C189.583 1080.02 190.047 1079.94 190.516 1079.87C190.578 1079.86 190.901 1079.82 190.62 1079.86C190.729 1079.85 190.838 1079.83 190.943 1079.82C191.198 1079.79 191.448 1079.76 191.703 1079.74C192.349 1079.68 192.974 1079.22 192.943 1078.5C192.917 1077.88 192.391 1077.2 191.703 1077.26C189.667 1077.47 187.656 1077.82 185.687 1078.37C185.068 1078.55 184.614 1079.26 184.823 1079.89C185.031 1080.52 185.677 1080.94 186.349 1080.75Z" fill="white"/>
<path id="Vector_147" d="M210.26 1078.48C213.562 1078.13 216.864 1077.77 220.166 1077.42C220.833 1077.35 221.406 1076.91 221.406 1076.19C221.406 1075.57 220.833 1074.87 220.166 1074.95C216.864 1075.3 213.562 1075.65 210.26 1076C209.593 1076.07 209.025 1076.52 209.025 1077.24C209.02 1077.85 209.593 1078.55 210.26 1078.48Z" fill="white"/>
<path id="Vector_148" d="M180.76 1055.61C186.52 1055.87 192.359 1056.1 198.041 1054.92C200.848 1054.33 203.479 1053.28 206.13 1052.22C208.827 1051.14 211.557 1050.22 214.432 1049.75C217.588 1049.23 220.869 1049.22 224.031 1049.69C224.692 1049.78 225.364 1049.52 225.551 1048.82C225.713 1048.24 225.354 1047.4 224.687 1047.3C218.895 1046.45 213.025 1047.02 207.531 1049.04C204.765 1050.05 202.093 1051.31 199.244 1052.08C196.452 1052.84 193.583 1053.18 190.697 1053.3C187.385 1053.43 184.072 1053.28 180.76 1053.13C179.166 1053.06 179.171 1055.54 180.76 1055.61Z" fill="white"/>
<path id="Vector_149" d="M243.896 1049.55C244.453 1049.44 245.01 1049.34 245.568 1049.25C245.828 1049.21 246.089 1049.17 246.344 1049.13C246.474 1049.11 246.604 1049.09 246.734 1049.07C246.542 1049.1 246.948 1049.05 246.99 1049.04C248.094 1048.9 249.203 1048.81 250.312 1048.75C250.958 1048.72 251.583 1048.21 251.552 1047.52C251.521 1046.87 251.005 1046.24 250.312 1046.28C247.943 1046.41 245.573 1046.7 243.24 1047.17C242.604 1047.29 242.177 1048.09 242.375 1048.69C242.589 1049.36 243.214 1049.69 243.896 1049.55Z" fill="white"/>
<path id="Vector_150" d="M130.051 978.568C142.708 979.459 153.499 969.5 166.234 971.485C170.249 972.11 174.244 973.323 178.359 972.933C179.02 972.865 179.593 972.407 179.593 971.693C179.593 971.073 179.02 970.396 178.359 970.459C174.749 970.802 171.27 969.86 167.755 969.24C164.437 968.662 161.202 968.573 157.88 969.141C151.781 970.183 146.166 972.953 140.265 974.714C136.937 975.703 133.531 976.339 130.046 976.094C128.463 975.979 128.468 978.453 130.051 978.568Z" fill="white"/>
<path id="Vector_151" d="M139.9 969.854C143.463 969.203 147.02 968.541 150.583 967.89C151.239 967.77 151.614 966.968 151.442 966.369C151.254 965.677 150.583 965.385 149.921 965.505C146.364 966.156 142.801 966.817 139.244 967.468C138.583 967.588 138.208 968.39 138.379 968.989C138.567 969.682 139.239 969.973 139.9 969.854Z" fill="white"/>
<path id="Vector_152" d="M128.156 916.24C138.969 918.76 148.953 912.75 159.271 910.677C162.229 910.089 165.24 909.88 168.24 910.276C168.906 910.365 169.474 909.646 169.474 909.042C169.474 908.297 168.906 907.891 168.24 907.802C157.469 906.37 147.818 912.599 137.443 914.099C134.578 914.51 131.641 914.505 128.818 913.849C127.266 913.49 126.599 915.875 128.156 916.24Z" fill="white"/>
<path id="Vector_153" d="M153.896 919.14C155.948 919.39 158.026 919.442 160.088 919.296C160.734 919.249 161.359 918.76 161.328 918.062C161.297 917.432 160.781 916.776 160.088 916.828C158.026 916.973 155.953 916.916 153.896 916.666C153.25 916.588 152.63 917.291 152.661 917.901C152.693 918.64 153.203 919.052 153.896 919.14Z" fill="white"/>
<path id="Vector_154" d="M0.406414 970.151C1.94287 970.672 3.60954 970.88 5.22933 970.76C5.87516 970.713 6.50016 970.224 6.46891 969.526C6.43766 968.895 5.92204 968.234 5.22933 968.291C4.47933 968.343 3.73975 968.317 2.99496 968.239C2.90121 968.229 2.93766 968.239 3.11475 968.26C3.05746 968.25 3.00016 968.239 2.94808 968.234C2.86475 968.218 2.77621 968.208 2.69808 968.187C2.51579 968.161 2.33871 968.119 2.16162 968.083C1.78662 967.994 1.42725 967.89 1.06266 967.77C0.44808 967.562 -0.317544 968.01 -0.45817 968.635C-0.61442 969.312 -0.249836 969.932 0.406414 970.151Z" fill="white"/>
<path id="Vector_155" d="M23.5528 969.339C27.3914 968.677 31.2351 968.021 35.0737 967.359C35.7351 967.245 36.0997 966.432 35.9382 965.839C35.7455 965.141 35.0737 964.859 34.4122 964.974C30.5789 965.635 26.7351 966.292 22.8966 966.953C22.2351 967.068 21.8653 967.88 22.032 968.474C22.2195 969.172 22.8914 969.453 23.5528 969.339Z" fill="white"/>
<path id="Vector_156" d="M-12.8336 932.583C-2.42216 934.406 7.432 929.964 17.6143 928.719C18.281 928.636 18.8539 928.208 18.8539 927.479C18.8539 926.875 18.281 926.162 17.6143 926.245C12.5362 926.865 7.60909 928.214 2.6195 929.281C-2.22425 930.323 -7.23987 931.057 -12.1722 930.198C-13.7295 929.922 -14.4013 932.307 -12.8336 932.583Z" fill="white"/>
<path id="Vector_157" d="M153.895 957.786C153.895 958.177 153.79 958.568 153.577 958.953C153.368 959.333 153.051 959.708 152.639 960.073C152.223 960.432 151.717 960.776 151.113 961.104C150.509 961.432 149.827 961.734 149.061 962.01C148.296 962.286 147.457 962.536 146.556 962.75C145.655 962.969 144.707 963.156 143.702 963.302C142.702 963.453 141.671 963.568 140.608 963.646C139.546 963.719 138.473 963.76 137.389 963.76C136.301 963.76 135.228 963.719 134.165 963.646C133.103 963.568 132.072 963.453 131.072 963.302C130.066 963.156 129.118 962.969 128.217 962.75C127.316 962.536 126.483 962.286 125.712 962.01C124.947 961.734 124.264 961.432 123.66 961.104C123.061 960.776 122.551 960.432 122.134 960.073C121.723 959.708 121.41 959.333 121.197 958.953C120.983 958.568 120.879 958.177 120.879 957.786C120.879 957.391 120.983 957.005 121.197 956.62C121.41 956.234 121.723 955.859 122.134 955.5C122.551 955.135 123.061 954.792 123.66 954.469C124.264 954.141 124.947 953.839 125.712 953.562C126.483 953.286 127.316 953.036 128.217 952.818C129.118 952.599 130.066 952.417 131.072 952.266C132.072 952.115 133.103 952.005 134.165 951.927C135.228 951.849 136.301 951.812 137.389 951.812C138.473 951.812 139.546 951.849 140.608 951.927C141.671 952.005 142.702 952.115 143.702 952.266C144.707 952.417 145.655 952.599 146.556 952.818C147.457 953.036 148.296 953.286 149.061 953.562C149.827 953.839 150.509 954.141 151.113 954.469C151.717 954.792 152.223 955.135 152.639 955.5C153.051 955.859 153.368 956.234 153.577 956.62C153.79 957.005 153.895 957.391 153.895 957.786Z" fill="#D2EDF3"/>
<path id="Vector_158" d="M144.776 946.614C144.776 946.838 144.656 947.051 144.422 947.26C144.188 947.468 143.854 947.65 143.417 947.807C142.984 947.968 142.479 948.088 141.911 948.171C141.344 948.26 140.755 948.301 140.135 948.301C139.521 948.301 138.932 948.26 138.365 948.171C137.797 948.088 137.292 947.968 136.859 947.807C136.422 947.65 136.089 947.468 135.854 947.26C135.62 947.051 135.5 946.838 135.5 946.614C135.5 946.39 135.62 946.176 135.854 945.968C136.089 945.765 136.422 945.583 136.859 945.421C137.292 945.265 137.797 945.145 138.365 945.057C138.932 944.973 139.521 944.932 140.135 944.932C140.755 944.932 141.344 944.973 141.911 945.057C142.479 945.145 142.984 945.265 143.417 945.421C143.854 945.583 144.188 945.765 144.422 945.968C144.656 946.176 144.776 946.39 144.776 946.614Z" fill="#D2EDF3"/>
<path id="Vector_159" d="M156.021 950.197C156.021 950.322 155.943 950.436 155.797 950.546C155.651 950.66 155.443 950.759 155.172 950.842C154.901 950.931 154.594 950.993 154.24 951.04C153.885 951.087 153.516 951.108 153.135 951.108C152.755 951.108 152.385 951.087 152.031 951.04C151.677 950.993 151.365 950.931 151.099 950.842C150.828 950.759 150.62 950.66 150.474 950.546C150.323 950.436 150.25 950.322 150.25 950.197C150.25 950.077 150.323 949.962 150.474 949.848C150.62 949.738 150.828 949.639 151.099 949.551C151.365 949.467 151.677 949.4 152.031 949.358C152.385 949.311 152.755 949.285 153.135 949.285C153.516 949.285 153.885 949.311 154.24 949.358C154.594 949.4 154.901 949.467 155.172 949.551C155.443 949.639 155.651 949.738 155.797 949.848C155.943 949.962 156.021 950.077 156.021 950.197Z" fill="#D2EDF3"/>
<path id="Vector_160" d="M211.243 1035.14C211.243 1036.77 208.702 1038.1 205.577 1038.1C202.447 1038.1 199.91 1036.77 199.91 1035.14C199.91 1033.51 202.447 1032.19 205.577 1032.19C208.702 1032.2 211.243 1033.51 211.243 1035.14Z" fill="#D2EDF3"/>
<path id="Vector_161" d="M168.245 1036.83C168.245 1037.38 166.568 1037.82 164.505 1037.82C162.438 1037.82 160.766 1037.38 160.766 1036.83C160.766 1036.29 162.438 1035.84 164.505 1035.84C166.568 1035.85 168.245 1036.29 168.245 1036.83Z" fill="#D2EDF3"/>
<path id="Vector_162" d="M31.931 1040.9C31.931 1042.46 29.4154 1043.72 26.3112 1043.72C23.207 1043.72 20.6914 1042.46 20.6914 1040.9C20.6914 1039.35 23.207 1038.1 26.3112 1038.1C29.4154 1038.1 31.931 1039.35 31.931 1040.9Z" fill="#D2EDF3"/>
<path id="Vector_163" d="M248.906 1006.62C248.906 1006.79 248.854 1006.95 248.76 1007.11C248.666 1007.28 248.525 1007.44 248.338 1007.59C248.15 1007.74 247.921 1007.89 247.65 1008.03C247.374 1008.16 247.067 1008.29 246.723 1008.41C246.374 1008.53 245.999 1008.63 245.593 1008.72C245.187 1008.82 244.76 1008.9 244.307 1008.96C243.854 1009.02 243.39 1009.07 242.911 1009.1C242.432 1009.14 241.947 1009.15 241.458 1009.15C240.968 1009.15 240.484 1009.14 240.005 1009.1C239.525 1009.07 239.057 1009.02 238.604 1008.96C238.156 1008.9 237.723 1008.82 237.317 1008.72C236.911 1008.63 236.536 1008.53 236.192 1008.41C235.843 1008.29 235.536 1008.16 235.265 1008.03C234.994 1007.89 234.765 1007.74 234.577 1007.59C234.39 1007.44 234.249 1007.28 234.15 1007.11C234.057 1006.95 234.01 1006.79 234.01 1006.62C234.01 1006.45 234.057 1006.29 234.15 1006.12C234.249 1005.96 234.39 1005.81 234.577 1005.65C234.765 1005.5 234.994 1005.35 235.265 1005.21C235.536 1005.08 235.843 1004.95 236.192 1004.83C236.536 1004.71 236.911 1004.61 237.317 1004.52C237.723 1004.43 238.156 1004.35 238.604 1004.29C239.057 1004.22 239.525 1004.17 240.005 1004.14C240.484 1004.11 240.968 1004.09 241.458 1004.09C241.947 1004.09 242.432 1004.11 242.911 1004.14C243.39 1004.17 243.854 1004.22 244.307 1004.29C244.76 1004.35 245.187 1004.43 245.593 1004.52C245.999 1004.61 246.374 1004.71 246.723 1004.83C247.067 1004.95 247.374 1005.08 247.65 1005.21C247.921 1005.35 248.15 1005.5 248.338 1005.65C248.525 1005.81 248.666 1005.96 248.76 1006.12C248.854 1006.29 248.906 1006.45 248.906 1006.62Z" fill="#D2EDF3"/>
<g id="water">
<mask id="mask3_751_3184" style="mask-type:luminance" maskUnits="userSpaceOnUse" x="273" y="938" width="1224" height="100">
<g id="d80c6dc9ec">
<path id="Vector_164" d="M273 938H1496.68V1038H273V938Z" fill="white"/>
</g>
</mask>
<g mask="url(#mask3_751_3184)">
<g id="Group_12">
<path id="Vector_165" d="M273.473 958.91C286.466 959.239 299.48 959.034 312.782 957.225C371.129 948.96 437.802 950.337 493.374 953.092C553.099 957.225 617.017 953.092 676.742 951.715C740.64 948.96 804.558 948.96 868.456 944.827C932.354 940.674 994.854 943.45 1058.77 942.072C1122.67 940.674 1182.4 939.318 1244.92 939.318C1306.04 939.318 1350.86 936.583 1409.55 947.212C1432.87 951.447 1446.33 966.887 1460.23 971.02C1485.25 980.683 1518.58 990.325 1476.91 1001.37C1446.33 1008.25 1419.96 1009.63 1389.39 1008.25C1374.11 1006.88 1360.21 1004.12 1344.94 1004.12C1328.26 1004.12 1321.31 1011.01 1304.64 1015.14C1278.26 1022.05 1242.14 1012.38 1214.34 1011.01C1187.97 1009.63 1160.17 1004.12 1132.4 1005.5C1101.82 1008.25 1076.82 1006.88 1046.27 1005.5C1030.98 1004.12 1015.7 998.59 1001.8 1001.37C980.977 1005.5 986.528 1013.76 1007.37 1016.54C1015.7 1017.92 1036.55 1009.63 1039.32 1022.05C1042.1 1033.09 1019.87 1035.84 1012.93 1035.84C985.13 1037.22 954.579 1035.84 925.405 1034.47C905.956 1034.47 750.364 1037.22 757.313 1006.88C760.089 994.457 804.558 1001.37 814.262 998.59L815.66 995.855C746.211 984.815 669.793 1001.37 598.946 993.08C589.221 993.08 579.497 994.457 571.17 998.59V993.08C553.099 986.193 514.2 991.702 494.772 994.457C479.476 995.855 465.598 1004.12 453.078 1005.5C439.2 1008.25 423.904 1005.5 410.027 1004.12C365.085 1004.12 318.58 1000.21 273.473 996.513V958.91Z" fill="#BFE3FF"/>
</g>
</g>
</g>
<path id="Vector_166" d="M1594.51 1030.51C1590.69 1032.7 1586.92 1035 1583.15 1037.25C1577.42 1038.67 1571.7 1040.26 1566.17 1042.33C1561.38 1044.11 1556.5 1045.86 1551.56 1047.21C1548.45 1048.06 1545.23 1048.87 1542 1049.02C1539.11 1049.18 1536.26 1048.64 1533.37 1048.66C1527.08 1048.73 1520.99 1050.13 1515.03 1052.08C1508.66 1054.19 1502.44 1056.7 1495.92 1058.36C1492.14 1059.33 1488.75 1059.17 1484.99 1058.07C1482.4 1057.29 1479.81 1056.35 1477.11 1056.04C1474.02 1055.71 1470.45 1057.48 1467.52 1056.49C1464.7 1055.54 1462.48 1054.07 1459.91 1052.65C1457.21 1051.17 1454.27 1050.74 1451.35 1049.78C1448.34 1048.82 1445.4 1047.62 1442.62 1046.12C1437.54 1043.39 1433.02 1039.83 1428.03 1036.96C1424.72 1035.05 1419.85 1032.81 1420 1028.97C1421.58 1026.44 1425.76 1025.28 1428.22 1024.2C1430.2 1023.31 1431.95 1022.09 1433.85 1021.08C1436.12 1019.86 1438.47 1018.75 1440.87 1017.82C1450.88 1013.96 1461.57 1012.2 1472.18 1010.99C1482.49 1009.83 1493 1008.25 1503.36 1009.4C1511.08 1010.26 1519.37 1012.06 1527.22 1011.04C1529.81 1012.08 1532.42 1013.04 1535.08 1013.74C1540.22 1015.05 1545.8 1015.24 1551.08 1015.74C1556.54 1016.24 1562 1016.67 1567.47 1016.97C1575.68 1017.44 1583.94 1017.45 1592.12 1018.37C1599.8 1019.23 1606.85 1019.86 1614.56 1025.48C1617.5 1027.62 1607.42 1026.96 1603.84 1027.65C1600.66 1028.26 1597.32 1028.88 1594.51 1030.51Z" fill="#BFE3FF"/>
<path id="Vector_167" d="M1737.55 1065.3C1740.85 1064.85 1744.04 1063.75 1746.93 1062.11C1748.39 1061.28 1749.75 1060.31 1751.02 1059.22C1752.21 1058.21 1753.27 1057.07 1754.48 1056.08C1755.49 1055.25 1756.73 1054.45 1758.08 1054.47C1759.68 1054.5 1761.15 1055.74 1762.59 1056.33C1765.69 1057.6 1769.13 1057.62 1772.42 1057.39C1776.2 1057.14 1780.07 1056.55 1783.83 1057.3C1785.39 1057.61 1786.05 1055.22 1784.49 1054.91C1781.02 1054.21 1777.52 1054.51 1774.03 1054.79C1770.69 1055.06 1767.2 1055.32 1763.98 1054.21C1762.38 1053.66 1761.02 1052.54 1759.36 1052.15C1757.79 1051.78 1756.22 1052.12 1754.82 1052.86C1752.02 1054.36 1750.06 1057.07 1747.46 1058.85C1744.3 1061.02 1740.69 1062.38 1736.9 1062.9C1736.24 1063 1735.88 1063.84 1736.04 1064.42C1736.23 1065.15 1736.89 1065.39 1737.55 1065.3Z" fill="white"/>
<path id="Vector_168" d="M1747.19 1037.69C1752.95 1037.95 1758.79 1038.18 1764.47 1037C1767.28 1036.41 1769.91 1035.36 1772.56 1034.3C1775.26 1033.22 1777.99 1032.3 1780.87 1031.83C1784.02 1031.31 1787.3 1031.3 1790.46 1031.77C1791.13 1031.86 1791.8 1031.6 1791.99 1030.9C1792.15 1030.32 1791.79 1029.48 1791.12 1029.38C1785.33 1028.53 1779.46 1029.1 1773.96 1031.12C1771.2 1032.13 1768.53 1033.39 1765.68 1034.16C1762.89 1034.92 1760.02 1035.26 1757.13 1035.38C1753.82 1035.51 1750.51 1035.36 1747.19 1035.21C1745.6 1035.14 1745.6 1037.62 1747.19 1037.69Z" fill="white"/>
<path id="Vector_169" d="M1895.63 1001.11C1903.66 1005.32 1901.49 1014.47 1873.88 1022.39C1846.26 1030.31 1816.99 1030.5 1806.36 1026.19C1795.73 1021.88 1803.19 1017.35 1810.93 1015.44C1818.67 1013.52 1808.7 1008.98 1785.51 1006.66C1762.32 1004.35 1739.14 998.135 1741.12 983.903C1743.09 969.673 1756.07 966.106 1761.44 963.382C1766.81 960.661 1766.81 955.685 1757.66 952.604C1748.51 949.524 1745.63 945.805 1747.58 940.514C1749.24 936.043 1753.15 932.773 1773.12 930.636C1776.77 930.248 1780.95 929.897 1785.75 929.584C1816.85 927.549 1853.67 931.489 1853.67 931.489C1853.67 931.489 1872.66 931.431 1877.11 937.582C1881.55 943.736 1864.11 944.109 1866.12 949.391C1867.69 953.522 1891.42 954.594 1903.2 960.711C1906.49 962.414 1908.84 964.507 1909.54 967.176C1912.71 979.392 1885.5 987.065 1880.45 989.739C1875.41 992.407 1887.59 996.899 1895.63 1001.11Z" fill="white"/>
<path id="Vector_170" d="M1801.06 885.714C1801.06 885.714 1818.49 867.375 1819.54 857.469C1820.6 847.557 1823.54 839.969 1823.54 839.969C1823.54 839.969 1847.15 834.49 1850.31 832.589C1853.48 830.693 1861.49 825 1861.49 825C1861.49 825 1886.78 831.75 1887 835.964C1887.21 840.177 1886.78 843.13 1886.78 843.13C1886.78 843.13 1903.86 866.526 1905.97 872.427C1908.07 878.328 1911.02 889.922 1909.76 889.922C1908.5 889.922 1889.74 889.5 1885.52 890.557C1881.31 891.609 1872.03 891.823 1858.12 891.823C1844.21 891.823 1799.14 887.813 1801.06 885.714Z" fill="white"/>
<path id="Vector_171" d="M1702.06 893.714C1702.06 893.714 1719.49 875.375 1720.54 865.469C1721.6 855.557 1724.54 847.969 1724.54 847.969C1724.54 847.969 1748.15 842.49 1751.31 840.589C1754.48 838.693 1762.49 833 1762.49 833C1762.49 833 1787.78 839.75 1788 843.964C1788.21 848.177 1787.78 851.13 1787.78 851.13C1787.78 851.13 1804.86 874.526 1806.97 880.427C1809.07 886.328 1812.02 897.922 1810.76 897.922C1809.5 897.922 1790.74 897.5 1786.52 898.557C1782.31 899.609 1773.03 899.823 1759.12 899.823C1745.21 899.823 1700.14 895.813 1702.06 893.714Z" fill="white"/>
<g id="fugl_1_2">
<path id="Vector_172" d="M266.103 115.931C314.435 101.969 308.009 72 308.009 72C308.009 72 301.025 79.5944 277.557 87.2472C254.089 94.9001 250.108 108.103 245.498 108.219C243.892 108.219 241.587 106.701 238.863 104.831H238.514C235.698 102.675 232.431 100.971 228.875 99.8073C222.243 96.4434 215.223 93.6447 207.922 91.4534C196.481 89.2035 184.752 88.144 173 88.2988C173 88.2988 202.963 112.543 228.875 116.398C230.258 120.504 233.051 124.181 236.908 126.972C240.958 129.436 246.011 130.457 250.96 129.811C255.908 129.165 260.349 126.904 263.309 123.525L266.522 123.876C271.537 124.394 276.627 124.006 281.447 122.736C286.267 121.466 290.705 119.344 294.459 116.515C285.138 118.614 275.289 118.411 266.103 115.931Z" fill="#6BA8DA"/>
</g>
<g id="fugl_1_3">
<path id="Vector_173" d="M424.103 202.931C472.435 188.969 466.009 159 466.009 159C466.009 159 459.025 166.594 435.557 174.247C412.089 181.9 408.108 195.103 403.498 195.219C401.892 195.219 399.587 193.701 396.863 191.831H396.514C393.698 189.675 390.431 187.971 386.875 186.807C380.243 183.443 373.223 180.645 365.922 178.453C354.481 176.204 342.752 175.144 331 175.299C331 175.299 360.963 199.543 386.875 203.398C388.258 207.504 391.051 211.181 394.908 213.972C398.958 216.436 404.011 217.457 408.96 216.811C413.908 216.165 418.349 213.904 421.309 210.525L424.522 210.876C429.537 211.394 434.627 211.006 439.447 209.736C444.267 208.466 448.705 206.344 452.459 203.515C443.138 205.614 433.289 205.411 424.103 202.931Z" fill="#9AC7EC"/>
</g>
<g id="fugl_3">
<path id="Vector_174" opacity="0.2" d="M264.204 214.475C293.397 206.022 289.387 188 289.387 188C284.22 192.219 277.928 195.357 271.028 197.158C256.959 201.736 254.427 209.72 251.613 209.837C250.628 209.837 249.221 208.898 247.603 207.783C245.906 206.481 243.923 205.465 241.765 204.789C237.758 202.755 233.516 201.064 229.103 199.741C222.186 198.402 215.1 197.771 208 197.862C208 197.862 226.078 212.42 241.906 214.768C242.725 217.242 244.386 219.465 246.689 221.167C247.902 221.907 249.278 222.44 250.739 222.734C252.2 223.029 253.716 223.079 255.2 222.883C256.684 222.686 258.107 222.247 259.386 221.59C260.666 220.932 261.778 220.071 262.657 219.054H264.626C267.648 219.366 270.716 219.129 273.618 218.359C276.52 217.589 279.188 216.304 281.439 214.592C275.801 215.942 269.815 215.901 264.204 214.475Z" fill="#2569A0"/>
</g>
</g>
<defs>
<clipPath id="clip0_751_3184">
<rect width="1913" height="1078" fill="white"/>
</clipPath>
</defs>
</svg>
