<svg width="1920" height="1079" viewBox="0 0 1920 1079" fill="none" xmlns="http://www.w3.org/2000/svg">
<g id="LandscapeDessert" clip-path="url(#clip0_992_28811)">
<rect width="1920" height="1079" fill="#FFEBC0"/>
<g id="LanscapeDessert">
<g id="Vector">
<path d="M-23 884H871C871 884 707.67 782.405 647.799 782.405C587.927 782.405 494.001 785.98 494.001 785.98C494.001 785.98 383.832 688 311.689 688C239.546 688 -23 884 -23 884Z" fill="#E1C891"/>
<path d="M-23 884H871C871 884 707.67 782.405 647.799 782.405C587.927 782.405 494.001 785.98 494.001 785.98C494.001 785.98 383.832 688 311.689 688C239.546 688 -23 884 -23 884Z" fill="#E1C891"/>
<path d="M-23 884H871C871 884 707.67 782.405 647.799 782.405C587.927 782.405 494.001 785.98 494.001 785.98C494.001 785.98 383.832 688 311.689 688C239.546 688 -23 884 -23 884Z" fill="#E1C891"/>
<path d="M-23 884H871C871 884 707.67 782.405 647.799 782.405C587.927 782.405 494.001 785.98 494.001 785.98C494.001 785.98 383.832 688 311.689 688C239.546 688 -23 884 -23 884Z" fill="#E1C891"/>
<path d="M-23 884H871C871 884 707.67 782.405 647.799 782.405C587.927 782.405 494.001 785.98 494.001 785.98C494.001 785.98 383.832 688 311.689 688C239.546 688 -23 884 -23 884Z" fill="#E1C891"/>
<path d="M-23 884H871C871 884 707.67 782.405 647.799 782.405C587.927 782.405 494.001 785.98 494.001 785.98C494.001 785.98 383.832 688 311.689 688C239.546 688 -23 884 -23 884Z" fill="#E1C891"/>
</g>
<g id="LandscapeDessert_2" filter="url(#filter0_d_992_28811)">
<g id="Group 143">
<g id="Vector_2">
<path d="M2070 973.299H956C956 973.299 1159.52 871.88 1234.13 871.88C1308.73 871.88 1425.77 875.447 1425.77 875.447C1425.77 875.447 1563.05 777.637 1652.95 777.637C1742.84 777.637 2070 973.299 2070 973.299Z" fill="#E1C891"/>
<path d="M2070 973.299H956C956 973.299 1159.52 871.88 1234.13 871.88C1308.73 871.88 1425.77 875.447 1425.77 875.447C1425.77 875.447 1563.05 777.637 1652.95 777.637C1742.84 777.637 2070 973.299 2070 973.299Z" fill="#E1C891"/>
<path d="M2070 973.299H956C956 973.299 1159.52 871.88 1234.13 871.88C1308.73 871.88 1425.77 875.447 1425.77 875.447C1425.77 875.447 1563.05 777.637 1652.95 777.637C1742.84 777.637 2070 973.299 2070 973.299Z" fill="#E1C891"/>
<path d="M2070 973.299H956C956 973.299 1159.52 871.88 1234.13 871.88C1308.73 871.88 1425.77 875.447 1425.77 875.447C1425.77 875.447 1563.05 777.637 1652.95 777.637C1742.84 777.637 2070 973.299 2070 973.299Z" fill="#E1C891"/>
<path d="M2070 973.299H956C956 973.299 1159.52 871.88 1234.13 871.88C1308.73 871.88 1425.77 875.447 1425.77 875.447C1425.77 875.447 1563.05 777.637 1652.95 777.637C1742.84 777.637 2070 973.299 2070 973.299Z" fill="#E1C891"/>
<path d="M2070 973.299H956C956 973.299 1159.52 871.88 1234.13 871.88C1308.73 871.88 1425.77 875.447 1425.77 875.447C1425.77 875.447 1563.05 777.637 1652.95 777.637C1742.84 777.637 2070 973.299 2070 973.299Z" fill="#E1C891"/>
</g>
<path id="Vector_3" d="M1944 1001.25H1414C1414 1001.25 1510.79 939.531 1546.33 939.531C1581.87 939.531 1637.51 941.704 1637.51 941.704C1637.51 941.704 1702.83 882.195 1745.6 882.195C1788.37 882.195 1944 1001.25 1944 1001.25Z" fill="#FFDD7D"/>
<path id="Vector_4" d="M-67 884H563C563 884 447.944 822.31 405.701 822.31C363.459 822.31 297.318 824.482 297.318 824.482C297.318 824.482 219.671 765 168.833 765C117.994 765 -67 884 -67 884Z" fill="#FFDD7D"/>
<g id="dyr_2">
<g id="hale">
<path id="Vector_5" d="M101.839 780.738C101.839 780.738 85.7718 797.302 81 827.325C81 827.325 84.4002 823.556 91.3734 808.048C98.3467 792.54 106 791.484 106 791.484L101.839 780.738Z" fill="#A68A46"/>
<path id="Vector_6" d="M86.083 818.216C87.5841 819.922 88.5472 821.946 88.8749 824.084C89.2027 826.223 88.8835 828.4 87.9496 830.395C86.6313 833.157 84.0763 835.724 84.4497 838.713L80.7397 835.19C80.9093 835.406 81.0226 835.652 81.0713 835.911C81.1201 836.17 81.1031 836.435 81.0217 836.687C80.9403 836.939 80.7964 837.173 80.6004 837.37C80.4044 837.568 80.1611 837.725 79.8881 837.83C79.3145 838.007 78.6944 838.034 78.1039 837.906C77.5133 837.779 76.9779 837.502 76.5631 837.111C75.7485 836.313 75.1713 835.35 74.8831 834.307C73.5048 830.707 73.747 826.778 75.5598 823.33C77.5198 819.992 81.7547 817.579 85.9896 818.072" fill="#263238"/>
</g>
<path id="Vector_7" d="M173 848.076C173 848.076 165.713 892.422 137.847 906.208C109.981 919.994 114.637 928.541 114.637 928.541L114.316 988.74C114.316 988.74 125.287 1000.23 127.14 1000.89C129.428 1001.69 98.7133 1000.89 98.7133 1000.89C98.7133 1000.89 96.8601 997.793 99.5827 987.221C101.596 979.439 82.7898 921.183 89.4246 911.003C96.0594 900.824 101.39 890.975 102.008 868.921C102.626 846.867 107.304 821.113 107.304 821.113L173 848.076Z" fill="#A68A46"/>
<path id="Vector_8" d="M98.2466 789.048C105.233 758.595 126.524 733.074 135.214 732.309C150.262 730.975 168.786 769.535 180.311 771.789C191.837 774.044 223.293 731.905 238.696 734.78C248.483 736.59 272.519 785.718 277.756 787.931C282.993 790.144 293.661 789.13 300.293 781.871C306.925 774.612 306.01 758.553 306.01 758.553C306.01 758.553 303.895 736.548 303.231 721.896C303.06 719.011 302.957 716.105 303.049 713.696C303.056 712.306 303.217 710.92 303.529 709.559C305.095 703.872 311.304 691.98 311.304 691.98C303.918 686.055 308.205 676.18 308.205 676.18C308.205 676.18 314.803 677.855 317.25 678.248C319.697 678.641 322.842 684.307 322.842 684.307C322.842 684.307 328.662 683.139 329.862 683.056C331.063 682.973 349.404 686.924 352.502 687.792C355.601 688.661 362.565 688.289 364.371 688.154C366.178 688.02 375.131 686.862 375.966 686.696C376.801 686.531 383.078 691.494 383.444 692.28C383.86 693.75 384.173 695.242 384.382 696.747C384.382 696.747 387.663 699.084 387.983 700.759C388.304 702.435 383.878 704.978 383.878 704.978C384.28 705.793 384.441 706.687 384.347 707.574C384.153 708.949 376.732 713.127 375.383 713.716C374.033 714.306 372.707 712.051 369.894 711.586C367.081 711.121 358.22 715.722 349.564 717.635C342.143 719.248 340.416 727.128 340.073 730.158C339.421 739.464 337.443 748.771 343.721 785.687C347.083 805.407 337.112 822.241 325.494 834.381C313.062 847.347 302.443 861.649 293.878 876.964C286.663 889.89 280.431 901.233 279.631 903.167C277.641 907.965 279.631 921.78 279.631 921.78C279.631 921.78 268.116 954.756 269.226 967.951C270.335 981.146 282.078 991.931 282.078 991.931H250.485L253.675 987.598C253.675 987.598 245.671 986.399 249.032 979.802C252.394 973.204 257.78 960.754 257.78 953.557C257.78 948.769 256.899 903.622 256.11 873.769C240.731 876.847 225.056 878.558 209.309 878.877C185.205 879.187 102.089 870.025 102.443 868.764C102.798 867.502 91.2716 819.511 98.2466 789.048Z" fill="#A68A46"/>
<path id="Vector_9" d="M203 842.91C203 842.91 195.699 887.254 167.824 901.03C139.949 914.806 144.641 923.373 144.641 923.373L144.332 983.56C144.332 983.56 155.306 995.062 157.16 995.713C159.448 996.519 128.712 995.713 128.712 995.713C128.712 995.713 126.859 992.613 129.582 982.051C131.607 974.269 112.795 916.015 119.421 905.825C126.046 895.636 131.39 885.797 132.008 863.754C132.626 841.711 137.306 815.938 137.306 815.938L203 842.91Z" fill="#A68A46"/>
<path id="Vector_10" d="M282 856.542C280.661 858.343 250.556 907.569 248.537 912.372C246.518 917.176 248.537 931.007 248.537 931.007C248.537 931.007 236.918 964.02 238.037 977.23C238.902 985.612 241.558 993.767 245.86 1001.25H219.101L219.517 996.258C219.517 996.258 211.44 995.057 214.832 988.462C218.225 981.868 226.463 969.994 226.463 962.851C226.463 955.707 224.455 857.194 223.786 856.593C223.117 855.993 282 856.542 282 856.542Z" fill="#A68A46"/>
<path id="Vector_11" d="M155.989 890.477C155.921 890.477 155.829 891.235 155.359 892.526C154.658 894.35 153.612 896.051 152.266 897.557C150.249 899.779 147.842 901.693 145.139 903.224C141.787 905.058 138.308 906.701 134.724 908.143C131.112 909.604 127.679 911.396 124.481 913.492C121.883 915.279 119.707 917.507 118.076 920.05C116.973 921.755 116.278 923.646 116.037 925.604C115.988 926.132 115.988 926.664 116.037 927.192C116.02 927.376 116.02 927.561 116.037 927.746C116.117 927.746 116.037 926.977 116.243 925.624C116.568 923.718 117.307 921.886 118.42 920.234C120.085 917.775 122.263 915.625 124.836 913.902C128.025 911.853 131.433 910.092 135.011 908.645C138.615 907.193 142.106 905.526 145.46 903.654C148.198 902.082 150.619 900.107 152.621 897.814C153.969 896.261 154.98 894.495 155.6 892.608C155.76 892.097 155.883 891.576 155.966 891.05C156.001 890.861 156.009 890.668 155.989 890.477Z" fill="#263238"/>
<path id="Vector_12" d="M367 701.027C367.313 701.792 367.964 702.422 368.815 702.784C369.69 703.223 370.656 703.515 371.661 703.643C372.875 703.786 374.104 703.812 375.324 703.72C376.606 703.663 377.819 703.585 378.908 703.624C379.869 703.655 380.819 703.801 381.732 704.058C382.542 704.341 383.305 704.715 384 705.168C383.502 704.483 382.734 703.97 381.834 703.72C380.896 703.402 379.904 703.213 378.897 703.161C377.679 703.118 376.46 703.138 375.245 703.219C374.064 703.316 372.876 703.316 371.695 703.219C370.746 703.118 369.825 702.876 368.973 702.504C368.224 702.109 367.557 701.61 367 701.027Z" fill="#263238"/>
<path id="Vector_13" d="M380 693.56C379.713 692.918 379.275 692.339 378.717 691.862C378.158 691.385 377.492 691.022 376.764 690.797C376.528 690.7 376.27 690.659 376.012 690.676C375.754 690.692 375.504 690.767 375.287 690.893C375.183 691.005 375.104 691.133 375.056 691.272C375.007 691.411 374.99 691.557 375.005 691.702C375.02 691.847 375.067 691.988 375.143 692.116C375.219 692.244 375.323 692.358 375.448 692.45C375.982 692.804 376.613 693.021 377.274 693.078C377.935 693.143 378.557 693.387 379.06 693.778" fill="#263238"/>
<path id="Vector_14" d="M335.003 690.611C335.554 690.393 336.092 690.143 336.613 689.862C337.897 689.318 339.295 689.105 340.682 689.242C342.069 689.378 343.4 689.861 344.552 690.645C345.459 691.246 345.924 691.779 345.992 691.699C346.06 691.62 345.686 691.042 344.801 690.304C343.631 689.362 342.211 688.783 340.716 688.638C339.221 688.492 337.716 688.788 336.387 689.488C335.434 690.021 334.958 690.565 335.003 690.611Z" fill="#263238"/>
<path id="Vector_15" d="M339.664 689.755C340.196 689.835 340.687 690.015 341.083 690.276C341.479 690.537 341.766 690.869 341.913 691.236C342.065 691.68 342.017 692.146 341.778 692.57C341.538 692.994 341.118 693.357 340.574 693.608C340.017 693.766 339.408 693.815 338.813 693.749C338.219 693.683 337.662 693.505 337.201 693.233C336.663 692.939 336.277 692.53 336.103 692.067C335.929 691.605 335.976 691.115 336.238 690.674C336.569 690.264 337.092 689.947 337.719 689.776C338.346 689.605 339.038 689.591 339.678 689.736" fill="#263238"/>
<path id="Vector_16" d="M308.452 677.215C311.209 678.998 313.334 681.32 314.618 683.953C315.902 686.587 316.301 689.441 315.774 692.234C315.771 692.328 315.741 692.42 315.686 692.503C315.632 692.586 315.554 692.658 315.459 692.714C315.355 692.741 315.245 692.75 315.136 692.739C315.027 692.729 314.922 692.7 314.829 692.654C313.047 691.998 311.466 691.043 310.195 689.853C308.924 688.664 307.994 687.269 307.469 685.766C306.435 682.762 307.267 680.379 308.452 677.245" fill="#263238"/>
<path id="Vector_17" d="M351.244 687.566C347.443 691.935 345.007 697.155 344.192 702.676C343.988 704.566 343.84 706.756 342.148 707.84C341.174 708.378 340.063 708.677 338.923 708.708C328.624 709.689 315.077 707.933 305.016 705.609C303.369 706.962 302.676 710.133 303.142 712.075C310.914 713.379 318.801 714.036 326.705 714.037C331.077 714.037 335.471 713.448 339.82 713.903C344.17 714.357 347.009 714.233 349.37 717.579C351.495 717.67 353.59 717.09 355.298 715.937C352.187 714.904 350.994 712.364 350.676 709.379C350.358 706.394 351.301 703.44 352.266 700.58C353.727 696.177 356.004 692.035 359 688.331L351.244 687.566Z" fill="#FF725E"/>
</g>
<g id="palnte_2">
<path id="Vector_18" d="M526.749 778.066C525.168 778.425 523.53 778.425 521.949 778.066C523.53 777.707 525.168 777.707 526.749 778.066Z" fill="#465D1C"/>
<path id="Vector_19" d="M525.88 783.812C524.495 784.171 523.045 784.171 521.66 783.812C521.66 783.657 522.6 783.543 523.77 783.543C524.94 783.543 525.88 783.636 525.88 783.812Z" fill="#465D1C"/>
<path id="Vector_20" d="M550.52 779.867C549.087 780.226 547.593 780.226 546.16 779.867C547.593 779.508 549.087 779.508 550.52 779.867Z" fill="#465D1C"/>
<path id="Vector_21" d="M550.329 773.386C550.329 773.542 549.609 773.656 548.729 773.656C547.849 773.656 547.129 773.542 547.129 773.386C547.129 773.231 547.839 773.117 548.729 773.117C549.619 773.117 550.329 773.241 550.329 773.386Z" fill="#465D1C"/>
<path id="Vector_22" d="M526.45 773.457C525.516 773.192 524.636 772.757 523.85 772.174C522.97 771.722 522.18 771.104 521.52 770.352C522.453 770.617 523.333 771.052 524.12 771.635C525.001 772.084 525.792 772.702 526.45 773.457Z" fill="#465D1C"/>
<path id="Vector_23" d="M531.009 768.284C530.899 768.377 530.009 767.424 529.009 766.151C528.344 765.429 527.812 764.587 527.439 763.666C527.549 763.573 528.439 764.536 529.439 765.809C530.105 766.527 530.637 767.366 531.009 768.284Z" fill="#465D1C"/>
<path id="Vector_24" d="M536.599 766.615C536.317 765.537 536.205 764.418 536.269 763.302C536.187 762.195 536.271 761.081 536.519 760C536.801 761.078 536.909 762.198 536.839 763.313C536.927 764.42 536.846 765.534 536.599 766.615Z" fill="#465D1C"/>
<path id="Vector_25" d="M544.52 761.957C544.224 762.963 543.757 763.906 543.14 764.742C542.676 765.672 542.06 766.513 541.32 767.226C541.623 766.226 542.09 765.288 542.7 764.452C543.17 763.522 543.785 762.679 544.52 761.957Z" fill="#465D1C"/>
<path id="Vector_26" d="M547.429 767.527C547.519 767.641 546.909 768.355 546.059 769.142C545.209 769.929 544.439 770.467 544.339 770.353C544.239 770.239 544.859 769.525 545.709 768.738C546.559 767.951 547.329 767.413 547.429 767.527Z" fill="#465D1C"/>
<path id="Vector_27" d="M527.329 792.093C526.155 792.341 524.952 792.407 523.759 792.29C522.563 792.351 521.364 792.235 520.199 791.948C521.373 791.701 522.576 791.634 523.769 791.751C524.966 791.69 526.164 791.805 527.329 792.093Z" fill="#465D1C"/>
<path id="Vector_28" d="M553.669 786.191C550.77 786.55 547.839 786.55 544.939 786.191C547.839 785.832 550.77 785.832 553.669 786.191Z" fill="#465D1C"/>
<path id="Vector_29" d="M549.31 791.617C549.31 791.772 548.66 791.886 547.85 791.886C547.04 791.886 546.4 791.772 546.4 791.617C546.4 791.462 547.05 791.348 547.85 791.348C548.65 791.348 549.31 791.472 549.31 791.617Z" fill="#465D1C"/>
<path id="Vector_30" d="M528.939 798.398C526.377 798.757 523.78 798.757 521.219 798.398C523.78 798.039 526.377 798.039 528.939 798.398Z" fill="#465D1C"/>
<path id="Vector_31" d="M531.519 803.179C528.419 803.538 525.29 803.538 522.189 803.179C525.29 802.82 528.419 802.82 531.519 803.179Z" fill="#465D1C"/>
<path id="Vector_32" d="M552.409 800.375C550.162 800.734 547.876 800.734 545.629 800.375C547.876 800.016 550.162 800.016 552.409 800.375Z" fill="#465D1C"/>
<path id="Vector_33" d="M550.029 805.632C550.029 805.777 549.348 805.902 548.508 805.902C547.668 805.902 546.979 805.777 546.979 805.632C546.979 805.487 547.658 805.363 548.508 805.363C549.358 805.363 550.029 805.487 550.029 805.632Z" fill="#465D1C"/>
<path id="Vector_34" d="M527.319 810.553C525.357 810.913 523.35 810.913 521.389 810.553C523.349 810.18 525.358 810.18 527.319 810.553Z" fill="#465D1C"/>
<path id="Vector_35" d="M527.519 815.281C527.519 815.436 526.519 815.55 525.399 815.55C524.279 815.55 523.279 815.436 523.279 815.281C524.671 814.922 526.127 814.922 527.519 815.281Z" fill="#465D1C"/>
<path id="Vector_36" d="M549.86 813.834C549.86 813.979 548.98 814.062 547.86 814.01C546.74 813.958 545.92 813.803 545.93 813.658C545.94 813.513 546.81 813.42 547.93 813.471C549.05 813.523 549.87 813.699 549.86 813.834Z" fill="#465D1C"/>
<path id="Vector_37" d="M530.52 822.478C527.864 822.84 525.175 822.84 522.52 822.478C525.175 822.117 527.864 822.117 530.52 822.478Z" fill="#465D1C"/>
<path id="Vector_38" d="M551.39 824.238C549.029 824.597 546.63 824.597 544.27 824.238C546.63 823.879 549.029 823.879 551.39 824.238Z" fill="#465D1C"/>
<path id="Vector_39" d="M547.52 828.264C547.556 828.337 547.568 828.421 547.555 828.503C547.543 828.584 547.506 828.66 547.449 828.718C547.393 828.776 547.32 828.815 547.241 828.828C547.162 828.841 547.081 828.829 547.01 828.792C546.91 828.688 546.94 828.491 547.08 828.336C547.131 828.269 547.205 828.225 547.286 828.211C547.368 828.198 547.451 828.217 547.52 828.264Z" fill="#465D1C"/>
<path id="Vector_40" d="M562.239 802.302C561.014 802.036 559.871 801.464 558.909 800.635C557.842 799.955 556.947 799.022 556.299 797.913C556.419 797.809 557.579 799 559.209 800.2C560.839 801.401 562.299 802.157 562.239 802.302Z" fill="#465D1C"/>
<path id="Vector_41" d="M562.609 800.376C560.912 798.019 559.83 795.248 559.469 792.332C560.053 793.646 560.57 794.99 561.019 796.359C561.625 797.664 562.156 799.006 562.609 800.376Z" fill="#465D1C"/>
<path id="Vector_42" d="M565.168 800.19C564.852 797.393 564.875 794.565 565.238 791.773C565.493 793.161 565.57 794.578 565.468 795.987C565.541 797.395 565.44 798.808 565.168 800.19Z" fill="#465D1C"/>
<path id="Vector_43" d="M572.24 792.094C571.832 793.493 571.207 794.815 570.39 796.007C569.716 797.29 568.849 798.454 567.82 799.454C569.183 796.931 570.658 794.475 572.24 792.094Z" fill="#465D1C"/>
<path id="Vector_44" d="M575.8 798.969C575.09 799.908 574.251 800.734 573.31 801.422C572.475 802.254 571.525 802.952 570.49 803.493C571.188 802.542 572.029 801.714 572.98 801.039C573.815 800.208 574.766 799.51 575.8 798.969Z" fill="#465D1C"/>
<path id="Vector_45" d="M576.159 805.688C575.362 806.286 574.468 806.731 573.519 807.002C572.641 807.446 571.692 807.72 570.719 807.81C571.509 807.22 572.392 806.775 573.329 806.495C574.22 806.06 575.178 805.787 576.159 805.688Z" fill="#465D1C"/>
<path id="Vector_46" d="M575.119 811.246C574.507 811.692 573.791 811.96 573.045 812.022C572.3 812.084 571.551 811.938 570.879 811.598C571.585 811.501 572.297 811.463 573.009 811.484C573.705 811.343 574.41 811.264 575.119 811.246Z" fill="#465D1C"/>
<path id="Vector_47" d="M559.86 807.734C558.811 807.764 557.763 807.617 556.76 807.299C555.716 807.146 554.704 806.821 553.76 806.336C554.812 806.306 555.863 806.452 556.87 806.771C557.911 806.919 558.921 807.244 559.86 807.734Z" fill="#465D1C"/>
<path id="Vector_48" d="M560.52 810.945C559.513 811.034 558.498 810.947 557.52 810.687C556.509 810.593 555.521 810.32 554.6 809.879C556.619 809.87 558.625 810.22 560.53 810.914L560.52 810.945Z" fill="#465D1C"/>
<path id="Vector_49" d="M560.52 813.71C560.52 813.855 559.66 814.166 558.52 814.404C557.848 814.639 557.13 814.7 556.43 814.58C556.43 814.435 557.29 814.124 558.43 813.876C559.103 813.646 559.82 813.589 560.52 813.71Z" fill="#465D1C"/>
<path id="Vector_50" d="M507.319 831.082C506.685 830.18 506.199 829.176 505.879 828.111C505.376 827.124 505.038 826.056 504.879 824.953C505.512 825.852 505.998 826.852 506.319 827.914C506.813 828.908 507.15 829.978 507.319 831.082Z" fill="#465D1C"/>
<path id="Vector_51" d="M510.979 831.588C510.972 830.435 511.141 829.29 511.479 828.192C511.646 827.051 511.983 825.944 512.479 824.91C512.33 827.205 511.823 829.46 510.979 831.588Z" fill="#465D1C"/>
<path id="Vector_52" d="M504.27 834.401C502.254 833.166 500.427 831.628 498.85 829.836C499.899 830.377 500.866 831.075 501.72 831.906C502.684 832.603 503.544 833.443 504.27 834.401Z" fill="#465D1C"/>
<path id="Vector_53" d="M503.76 836.505C501.805 836.566 499.855 836.268 498 835.625C499.956 835.55 501.908 835.848 503.76 836.505Z" fill="#465D1C"/>
<path id="Vector_54" d="M503.42 841.071C501.641 841.201 499.855 840.972 498.16 840.398C499.043 840.247 499.946 840.272 500.82 840.47C501.717 840.491 502.6 840.695 503.42 841.071Z" fill="#465D1C"/>
<path id="Vector_55" d="M503.59 846.091C502.198 846.45 500.742 846.45 499.35 846.091C500.028 845.838 500.754 845.753 501.47 845.843C502.185 845.747 502.913 845.832 503.59 846.091Z" fill="#465D1C"/>
<path id="Vector_56" d="M518.16 845.324C517.477 845.557 516.751 845.621 516.04 845.511C515.32 845.564 514.597 845.443 513.93 845.159C513.93 845.004 514.93 844.921 516.06 844.972C517.19 845.024 518.17 845.169 518.16 845.324Z" fill="#465D1C"/>
<path id="Vector_57" d="M518.839 840.647C518.137 840.915 517.383 841.007 516.639 840.916C515.895 840.995 515.143 840.899 514.439 840.637C515.142 840.37 515.897 840.281 516.639 840.378C517.383 840.293 518.135 840.386 518.839 840.647Z" fill="#465D1C"/>
<path id="Vector_58" d="M519.52 834.539C518.803 835.186 517.975 835.688 517.08 836.019C516.264 836.527 515.366 836.878 514.43 837.055C515.147 836.414 515.97 835.912 516.86 835.574C517.68 835.068 518.58 834.717 519.52 834.539Z" fill="#465D1C"/>
<path id="Vector_59" d="M517.859 830.066C517.959 830.18 517.148 831.102 516.058 832.085C515.448 832.757 514.723 833.304 513.919 833.7C513.819 833.586 514.628 832.665 515.718 831.681C516.325 831.006 517.052 830.458 517.859 830.066Z" fill="#465D1C"/>
<path id="Vector_60" d="M529.02 827.934C527.328 828.709 525.41 828.764 523.68 828.089C525.46 828.044 527.24 827.992 529.02 827.934Z" fill="#465D1C"/>
<path id="Vector_61" d="M529.97 833.305C528.76 833.823 527.468 834.107 526.16 834.144C524.869 834.362 523.551 834.338 522.27 834.071C523.534 833.801 524.819 833.649 526.11 833.616C527.386 833.402 528.677 833.298 529.97 833.305Z" fill="#465D1C"/>
<path id="Vector_62" d="M530.9 837.83C529.569 838.317 528.185 838.633 526.78 838.773C525.405 839.085 523.997 839.22 522.59 839.176C523.917 838.689 525.298 838.373 526.7 838.234C528.078 837.916 529.489 837.78 530.9 837.83Z" fill="#465D1C"/>
<path id="Vector_63" d="M549.749 831.369C549.749 831.525 548.829 831.618 547.699 831.576C547.016 831.637 546.33 831.523 545.699 831.245C546.356 831.006 547.06 830.935 547.749 831.038C548.432 830.979 549.118 831.093 549.749 831.369Z" fill="#465D1C"/>
<path id="Vector_64" d="M550.38 833.813C550.38 833.958 549.69 834.113 548.82 834.154C547.95 834.196 547.25 834.154 547.24 833.968C547.23 833.782 547.93 833.668 548.8 833.616C549.67 833.564 550.37 833.657 550.38 833.813Z" fill="#465D1C"/>
<path id="Vector_65" d="M561.37 819.466C560.042 819.702 558.682 819.664 557.37 819.352C556.024 819.224 554.716 818.823 553.52 818.172C554.841 818.304 556.154 818.522 557.45 818.824C558.768 818.952 560.077 819.166 561.37 819.466Z" fill="#465D1C"/>
<path id="Vector_66" d="M576.929 816.587C576.017 816.978 575.046 817.202 574.059 817.249C573.095 817.48 572.099 817.525 571.119 817.384C572.996 816.768 574.962 816.498 576.929 816.587Z" fill="#465D1C"/>
<path id="Vector_67" d="M529.329 848.274C528.226 848.333 527.122 848.208 526.059 847.902C524.963 847.769 523.894 847.461 522.889 846.991C523.991 846.932 525.095 847.058 526.159 847.363C527.254 847.496 528.324 847.804 529.329 848.274Z" fill="#465D1C"/>
<path id="Vector_68" d="M547.99 776.307V839.612C549.233 839.614 550.465 839.361 551.614 838.87C552.762 838.378 553.807 837.657 554.686 836.747C555.566 835.838 556.263 834.758 556.739 833.569C557.215 832.38 557.46 831.106 557.46 829.819V802.126C557.46 800.091 558.241 798.14 559.631 796.701C561.02 795.263 562.905 794.455 564.87 794.455C565.843 794.455 566.806 794.653 567.704 795.039C568.603 795.424 569.419 795.99 570.106 796.702C570.794 797.415 571.339 798.26 571.71 799.191C572.081 800.122 572.272 801.119 572.27 802.126V826.154C572.27 832.661 569.773 838.902 565.329 843.503C560.884 848.104 554.856 850.689 548.57 850.689H548.4V929.079H528.24V897.555H521.93C516.684 897.557 511.646 895.434 507.892 891.64C504.137 887.847 501.966 882.683 501.84 877.254L500.84 835.523C500.814 834.392 501.006 833.267 501.405 832.215C501.805 831.162 502.404 830.203 503.167 829.393C503.93 828.584 504.842 827.941 505.849 827.502C506.856 827.063 507.938 826.837 509.03 826.837C510.127 826.835 511.212 827.062 512.223 827.503C513.233 827.944 514.147 828.59 514.911 829.405C515.675 830.219 516.273 831.184 516.67 832.242C517.067 833.3 517.254 834.43 517.22 835.564C516.84 848.722 516.33 872.895 517.51 880.515C519.16 891.168 527.8 888.186 527.8 888.186C527.8 888.186 524.52 810.729 523.81 776.565C523.778 774.901 524.068 773.247 524.661 771.699C525.254 770.152 526.14 768.743 527.265 767.554C528.391 766.365 529.735 765.421 531.218 764.777C532.7 764.132 534.292 763.8 535.9 763.801C539.105 763.801 542.179 765.118 544.446 767.463C546.713 769.808 547.988 772.989 547.99 776.307Z" fill="#465D1C"/>
</g>
<g id="plante_3">
<path id="Vector_69" d="M611.199 899.172C611.199 914.98 623.029 928.314 638.529 928.604C654.029 928.894 666.189 915.871 666.779 900.124C666.909 896.791 661.909 896.801 661.779 900.124C661.299 913.024 651.279 923.79 638.529 923.428C625.779 923.066 616.229 912.227 616.199 899.172C616.199 895.838 611.199 895.838 611.199 899.172Z" fill="#557717"/>
<path id="Vector_70" d="M639.359 922.953C628.359 915.779 627.439 902.186 630.589 890.363C631.439 887.154 626.589 885.777 625.769 888.986C621.989 903.159 623.859 919.009 636.839 927.425C639.569 929.195 642.079 924.723 639.359 922.953Z" fill="#557717"/>
<path id="Vector_71" d="M639.659 926.866C646.069 923.863 651.779 918.894 654.489 912.02C657.489 904.37 656.639 895.767 655.179 887.868C654.569 884.596 649.749 885.984 650.359 889.245C651.609 895.984 652.419 903.459 649.859 910.001C647.549 915.902 642.589 919.847 637.129 922.424C634.209 923.801 636.749 928.263 639.659 926.897V926.866Z" fill="#557717"/>
<path id="Vector_72" d="M640.85 926.308C640.717 916.087 641.023 905.893 641.77 895.727C642.01 892.404 637.01 892.424 636.77 895.727C636.03 905.914 635.723 916.107 635.85 926.308C635.85 929.631 640.85 929.642 640.85 926.308Z" fill="#557717"/>
<path id="Vector_73" d="M633.2 890.766C633.495 891.991 634.18 893.078 635.144 893.852C636.108 894.625 637.296 895.04 638.516 895.029C639.736 895.019 640.917 894.583 641.868 893.793C642.819 893.002 643.486 891.903 643.76 890.673C643.787 890.513 643.755 890.349 643.671 890.212C643.587 890.075 643.456 889.976 643.305 889.933C643.154 889.89 642.993 889.908 642.854 889.981C642.714 890.055 642.606 890.18 642.55 890.331C642.353 891.292 641.846 892.154 641.112 892.775C640.378 893.397 639.461 893.741 638.513 893.751C637.564 893.76 636.641 893.435 635.895 892.828C635.15 892.222 634.626 891.37 634.411 890.414C634.357 890.259 634.248 890.13 634.106 890.055C633.965 889.979 633.801 889.962 633.647 890.006C633.494 890.051 633.362 890.154 633.279 890.295C633.196 890.436 633.168 890.604 633.2 890.766Z" fill="#FF725E"/>
<path id="Vector_74" d="M638.599 893.498C637.41 892.29 636.727 890.646 636.699 888.922C636.68 888.764 636.606 888.619 636.491 888.514C636.376 888.409 636.228 888.352 636.074 888.352C635.921 888.352 635.773 888.409 635.658 888.514C635.543 888.619 635.469 888.764 635.449 888.922C635.487 890.987 636.301 892.955 637.719 894.409C637.836 894.529 637.994 894.597 638.159 894.597C638.324 894.597 638.483 894.529 638.599 894.409C638.716 894.288 638.781 894.124 638.781 893.953C638.781 893.782 638.716 893.618 638.599 893.498Z" fill="#FF725E"/>
<path id="Vector_75" d="M639.699 894.471C641.029 892.452 642.229 890.33 641.639 887.773C641.449 886.965 640.249 887.307 640.439 888.125C640.939 890.268 639.739 892.121 638.619 893.819C638.169 894.512 639.249 895.165 639.699 894.471Z" fill="#FF725E"/>
<path id="Vector_76" d="M639.52 894.109C639.48 891.652 639.353 889.206 639.14 886.77C639.07 885.941 637.82 885.931 637.89 886.77C638.103 889.213 638.23 891.659 638.27 894.109C638.289 894.267 638.363 894.412 638.478 894.517C638.593 894.622 638.741 894.68 638.895 894.68C639.048 894.68 639.196 894.622 639.311 894.517C639.426 894.412 639.5 894.267 639.52 894.109Z" fill="#FF725E"/>
<path id="Vector_77" d="M608.009 895.282C608.255 896.282 608.817 897.168 609.606 897.799C610.395 898.43 611.366 898.769 612.363 898.762C613.36 898.755 614.325 898.402 615.106 897.76C615.887 897.118 616.437 896.223 616.669 895.22C616.859 894.412 615.669 894.06 615.459 894.868C615.315 895.609 614.929 896.277 614.367 896.76C613.804 897.243 613.098 897.511 612.367 897.519C611.637 897.528 610.925 897.276 610.352 896.807C609.779 896.337 609.379 895.678 609.219 894.94C609.164 894.789 609.056 894.664 608.916 894.59C608.776 894.517 608.615 894.499 608.464 894.542C608.313 894.585 608.183 894.684 608.099 894.821C608.014 894.958 607.983 895.122 608.009 895.282Z" fill="#FF725E"/>
<path id="Vector_78" d="M612.55 897.32C612.09 896.858 611.722 896.307 611.468 895.698C611.214 895.088 611.079 894.433 611.07 893.769C611.051 893.612 610.977 893.467 610.862 893.362C610.747 893.257 610.599 893.199 610.445 893.199C610.292 893.199 610.144 893.257 610.029 893.362C609.914 893.467 609.84 893.612 609.82 893.769C609.848 895.451 610.508 897.056 611.66 898.242C611.78 898.355 611.937 898.416 612.099 898.412C612.261 898.408 612.416 898.339 612.53 898.221C612.645 898.102 612.711 897.942 612.715 897.775C612.718 897.607 612.659 897.444 612.55 897.32Z" fill="#FF725E"/>
<path id="Vector_79" d="M613.439 898.263C614.519 896.628 615.439 894.878 614.999 892.828C614.809 892.021 613.61 892.362 613.79 893.17C614.19 894.847 613.229 896.276 612.359 897.611C611.909 898.305 612.989 898.957 613.439 898.263Z" fill="#FF725E"/>
<path id="Vector_80" d="M613.311 897.908C613.311 895.951 613.181 894.005 613.011 892.059C612.941 891.23 611.691 891.22 611.761 892.059C611.931 894.005 612.031 895.951 612.061 897.908C612.08 898.065 612.154 898.21 612.269 898.315C612.384 898.42 612.532 898.478 612.686 898.478C612.839 898.478 612.987 898.42 613.102 898.315C613.217 898.21 613.291 898.065 613.311 897.908Z" fill="#FF725E"/>
<path id="Vector_81" d="M659.73 895.054C659.976 896.054 660.54 896.94 661.329 897.569C662.119 898.199 663.09 898.537 664.087 898.529C665.084 898.52 666.05 898.166 666.83 897.523C667.61 896.88 668.159 895.985 668.39 894.981C668.416 894.822 668.384 894.657 668.3 894.521C668.216 894.384 668.086 894.284 667.935 894.242C667.784 894.199 667.623 894.216 667.483 894.29C667.343 894.363 667.235 894.488 667.18 894.64C667.026 895.373 666.635 896.031 666.073 896.505C665.51 896.979 664.809 897.241 664.084 897.248C663.359 897.255 662.652 897.007 662.081 896.545C661.51 896.082 661.108 895.432 660.94 894.702C660.886 894.547 660.777 894.418 660.636 894.343C660.494 894.267 660.33 894.25 660.176 894.294C660.023 894.339 659.892 894.442 659.809 894.583C659.726 894.724 659.698 894.892 659.73 895.054Z" fill="#FF725E"/>
<path id="Vector_82" d="M664.25 897.094C663.325 896.157 662.794 894.882 662.77 893.543C662.75 893.385 662.676 893.241 662.561 893.136C662.446 893.031 662.298 892.973 662.145 892.973C661.991 892.973 661.843 893.031 661.728 893.136C661.613 893.241 661.539 893.385 661.52 893.543C661.548 895.224 662.212 896.826 663.37 898.005C663.486 898.126 663.644 898.193 663.81 898.193C663.975 898.193 664.133 898.126 664.25 898.005C664.366 897.884 664.432 897.72 664.432 897.549C664.432 897.378 664.366 897.215 664.25 897.094Z" fill="#FF725E"/>
<path id="Vector_83" d="M665.15 898.011C666.23 896.365 667.15 894.616 666.7 892.566C666.51 891.758 665.31 892.1 665.5 892.918C665.89 894.585 664.93 896.024 664.07 897.359C663.61 898.042 664.7 898.695 665.15 898.011Z" fill="#FF725E"/>
<path id="Vector_84" d="M665.01 897.673C665.01 895.717 664.88 893.771 664.71 891.824C664.64 890.996 663.39 890.996 663.46 891.824C663.63 893.771 663.73 895.717 663.76 897.673C663.779 897.831 663.853 897.976 663.968 898.081C664.083 898.186 664.231 898.244 664.385 898.244C664.538 898.244 664.686 898.186 664.801 898.081C664.916 897.976 664.991 897.831 665.01 897.673Z" fill="#FF725E"/>
</g>
</g>
</g>
</g>
</g>
<defs>
<filter id="filter0_d_992_28811" x="-71" y="676.18" width="2145" height="333.07" filterUnits="userSpaceOnUse" color-interpolation-filters="sRGB">
<feFlood flood-opacity="0" result="BackgroundImageFix"/>
<feColorMatrix in="SourceAlpha" type="matrix" values="0 0 0 0 0 0 0 0 0 0 0 0 0 0 0 0 0 0 127 0" result="hardAlpha"/>
<feOffset dy="4"/>
<feGaussianBlur stdDeviation="2"/>
<feComposite in2="hardAlpha" operator="out"/>
<feColorMatrix type="matrix" values="0 0 0 0 0 0 0 0 0 0 0 0 0 0 0 0 0 0 0.25 0"/>
<feBlend mode="normal" in2="BackgroundImageFix" result="effect1_dropShadow_992_28811"/>
<feBlend mode="normal" in="SourceGraphic" in2="effect1_dropShadow_992_28811" result="shape"/>
</filter>
<clipPath id="clip0_992_28811">
<rect width="1920" height="1079" fill="white"/>
</clipPath>
</defs>
</svg>
