<svg width="1041" height="518" viewBox="0 0 1041 518" fill="none" xmlns="http://www.w3.org/2000/svg">
<g id="earth-map">
<g id="earth-map_2">
<g id="earth-map2">
<g id="Vector 93" filter="url(#filter0_d_722_238)">
<path d="M812.775 223.437C805.451 237.888 801.67 246.07 776.275 255.937C772.735 255.184 765.694 239.476 755.775 219.437C740.469 192.631 735.999 187.241 745.775 219.437C750.775 240.292 758.801 248.526 772.775 263.437C800.092 247.528 805.771 279.463 763.275 317.937C720.779 356.412 767.644 375.062 745.775 383.437C744.751 397.524 743.166 404.9 735.275 415.437C734.125 423.667 731.528 426.322 726.775 430.937C726.235 438.531 707.215 455.567 691.775 447.438C681.456 442.004 681.942 410.937 682.775 400.937C682.775 400.937 668.774 372.937 678.275 354.437C687.775 335.938 665.563 316.815 666.775 292.437C659.099 292.064 655.455 289.877 649.775 283.437L623.275 288.937C610.653 291.455 605.297 286.191 597.775 268.937C585.789 257.694 583.823 250.961 591.775 237.937C591.804 219.797 582.907 207.345 607.275 195.437C608.455 186.293 608.434 180.702 616.775 176.437C620.483 170.262 622.696 167.313 628.775 169.937C656.604 159.989 669.207 156.977 666.775 172.937L692.775 187.437C695.581 177.583 701.592 175.638 710.775 181.741C735.588 183.341 736.02 182.84 735.275 187.437C740.331 174.37 745.46 164.869 738.775 162.937L726.775 160.437C725.647 156.384 717.275 153.438 724.643 150.438C732.011 147.438 729.162 140.097 742.775 146.437C749.318 144.775 751.995 143.119 755.775 139.437C748.994 135.614 748.687 139.852 735.275 123.937C732.035 136.614 727.192 129.338 721.275 123.937C715.358 118.536 714.608 149.257 705.275 146.437C700.84 147.091 704.857 147.962 704.997 151.438C705.137 154.913 697.731 163.081 692.775 142.437C681.381 131.769 677.107 129.499 672.775 131.437C670.598 134.775 681.843 142.981 679.775 143.724C677.707 144.466 674.899 147.74 663.775 132.438C658.256 137.15 654.788 138.015 648.275 137.938L642.275 146.437C637.824 145.822 632.784 163.487 629.275 162.938C609.646 160.168 603.06 142.09 633.275 137.938C637.09 136.019 640.596 130.827 634.775 123.937C616.076 125.781 654.82 101.061 669.275 101.937L692.775 99.4374C686.56 95.2956 686.192 96.1559 692.775 92.9374C699.358 89.7189 695.855 84.6962 702.275 82.9374C689.275 82.5229 683.908 81.7299 692.775 74.9374C688.016 71.9956 685.388 69.7438 679.775 79.9374V89.9374C673.647 94.2401 670.19 95.8025 663.775 85.4374C652.135 83.5966 638.038 85.4382 684.775 61.4374C718.721 58.4889 728.315 61.2643 721.275 74.9374C732.503 64.5692 740.488 63.9094 755.775 65.9374C763.465 59.3211 767.878 57.311 776.275 61.4374C766.168 46.6196 775.993 52.1894 797.775 65.9374C789.937 57.2836 788.12 53.5905 803.775 55.4374C821.685 48.1125 832.411 44.357 881.275 52.9374C891.928 48.5488 897.869 45.727 909.775 58.4374C934.65 54.0497 946.83 56.9562 969.775 58.4374C990.785 53.5754 1002.37 54.1169 1022.27 66.4374C1060.08 85.9781 1005.91 80.7454 1017.27 84.4374C1028.64 88.1293 1040.87 117.047 1009.27 92.4374C1009.55 82.9524 1007.41 80.3518 1001.27 78.4374C1001.56 84.3921 999.799 86.3466 989.275 84.4374C970.314 91.015 962.726 94.7693 969.775 101.937C982.782 105.304 989.49 108.403 995.775 125.937C999.486 135.702 999.757 139.936 989.275 139.937L986.775 151.937C986.775 151.937 1012.77 180.937 986.775 160.937C960.775 140.937 969.775 139.937 959.275 158.437C948.775 176.937 974.334 162.443 975.275 171.937C981.012 176.878 983.814 179.95 986.775 186.937C997.762 198.542 993.955 212.261 959.275 221.437L954.775 229.937C965.236 242.203 975.638 249.182 963.775 260.937C964.838 274.131 958.949 269.806 942.275 250.937C942.66 268.332 941.657 273.146 929.275 238.937C917.597 241.35 914.291 228.693 907.275 210.937L897.775 218.937L881.275 245.437C879.905 291.861 873.56 283.053 853.775 214.437C850.071 221.301 847.976 222.202 844.275 214.437L837.275 206.437L812.775 202.937L790.775 193.437C775.495 195.583 771.07 197.86 797.775 210.937C803.609 202.392 805.934 203.656 809.275 210.937C814.195 214.429 815.184 217.103 812.775 223.437Z" fill="#82DF7A"/>
</g>
<g id="Vector 94" filter="url(#filter1_d_722_238)">
<path d="M793.948 369.748C792.71 391.077 786.301 398.056 777.448 412.748C769.349 406.884 766.597 392.433 782.948 377.248C793.708 367.256 792.92 366.436 793.948 369.748Z" fill="#82DF7A"/>
</g>
<g id="Vector 95" filter="url(#filter2_d_722_238)">
<path d="M899 335.493C913.314 347.457 913.867 354.945 913 368.493C908.661 366.183 904.751 361.167 896.5 348.993C891.641 335.317 887.162 331.299 879 324.493C887.93 322.668 892.18 325.82 899 335.493Z" fill="#82DF7A"/>
</g>
<g id="Vector 96" filter="url(#filter3_d_722_238)">
<path d="M901 310C902.959 318.138 903.028 321.276 901 324.5C895.45 319.831 892.512 316.269 889 300C893.561 301.456 896.151 302.901 901 310Z" fill="#82DF7A"/>
</g>
<g id="Vector 97" filter="url(#filter4_d_722_238)">
<path d="M937.425 311.815C939.92 318.492 940.241 322.746 932.425 334.315C935.566 343.319 930.431 340.454 923.425 337.815C916.84 335.962 914.376 333.863 914.425 326.315C910.868 319.102 914.316 316.965 920.925 313.315L929.925 304.315C943.148 295.386 940.901 301.507 937.425 311.815Z" fill="#82DF7A"/>
</g>
<g id="Vector 98" filter="url(#filter5_d_722_238)">
<path d="M958.291 424.282C993.584 403.462 972.247 434.73 980.291 430.282C972.848 453.358 981.239 452.419 999.791 446.782C1017.77 433.376 1028.22 426.261 1035.79 401.782C1033.83 390.669 1032.74 384.435 1026.29 372.782C1025.13 338.28 1021.93 338.578 1012.79 365.282C1007.51 368.919 1004.6 369.26 999.791 358.282C999.176 346.207 999.519 338.396 977.791 358.282C972.573 355.188 969.917 349.929 963.291 365.282C956.728 365.048 952.845 364.368 951.291 377.782C926.949 381.79 919.579 388.56 923.291 412.782C898.011 427.238 922.998 445.103 958.291 424.282Z" fill="#82DF7A"/>
</g>
<g id="Vector 99" filter="url(#filter6_d_722_238)">
<path d="M1016.86 317.957C1010.7 312.991 1007.72 307.499 998.86 317.957C983.38 310.772 986.626 315.987 995.129 325.457C1003.51 324.3 1005.08 327.847 1005.36 339.457C1007.5 348.544 1013.36 327.457 1021.86 339.457C1030.36 351.457 1042.36 359.457 1032.36 332.457C1022.36 305.457 1016.86 317.957 1016.86 317.957Z" fill="#82DF7A"/>
</g>
</g>
<g id="earth-map1">
<g id="Vector 88" filter="url(#filter7_d_722_238)">
<path d="M207.878 488.78C203.878 497.28 217.792 500.253 207.878 509.78C197.617 508.915 193.936 499.68 188.878 476.78L172.378 382.78L148.878 351.78L138.378 319.28L150.878 293.28L141.378 272.78C136.346 276.691 126.378 261.14 118.378 253.78C110.378 246.42 104.544 243.614 101.378 240.78C75.5352 233.902 70.7085 227.797 73.3776 214.28C65.4129 199.784 62.9901 191.109 61.8776 174.78C55.436 187.881 53.2539 186.285 52.3776 163.78C43.1236 141.139 52.5516 129.121 71.3776 107.78C51.2523 109.775 52.013 104.921 58.3776 93.7803C53.8603 87.2058 51.7697 83.0881 39.8776 83.7803L15.8776 88.2803C1.94373 91.2426 -0.379326 89.8139 12.3776 77.7803L33.8776 70.7803L33.8543 70.7742C25.1207 68.5055 20.2175 67.2317 46.3776 65.7803C43.9687 57.0846 58.7606 50.4031 102.878 61.2803C127.416 58.4428 138.855 61.3572 158.878 67.2803C150.174 63.7869 148.1 61.9518 157.378 59.2803C151.29 58.6077 151.552 57.1911 153.378 54.2803C139.647 56.0065 140.484 54.6431 150.878 49.7803C157.21 46.7314 161.008 47.2066 168.378 54.2803C177.838 52.3919 181.57 52.2841 176.378 59.2803C169.724 61.1734 166.47 62.4029 165.378 66.2803C173.918 69.9392 178.744 71.7946 188.878 66.2803C196.788 54.1276 198.83 54.4761 198.878 66.2803C215.388 63.34 215.852 64.4033 198.878 71.7803C185.718 77.2982 160.378 84.4304 168.378 87.7803C176.378 91.1302 183.78 100.28 178.829 104.78C173.878 109.28 183.213 108.071 185.878 107.28C191.933 98.4692 195.268 93.7994 198.878 95.2803C203.452 89.016 201.674 84.7051 224.378 81.7803C220.02 79.9628 215.353 74.2729 226.922 73.7803C227.732 71.502 228.723 68.9183 229.878 66.2803C233.378 58.2803 199.847 63.7718 209.378 56.7803C211.246 53.8549 212.391 52.4721 216.878 56.7803C227.304 48.1296 228.786 50.3395 229.878 56.7803C238.365 56.61 243.113 56.5312 244.378 66.2803C247.217 71.9569 247.202 73.9487 239.378 71.7803C248.719 79.6069 227.639 87.4955 237.378 95.2803C247.116 103.065 217.878 111.28 211.878 115.78C205.878 120.28 220.083 117.66 216.878 119.78C224.506 128.359 228.563 132.043 209.378 128.78C190.192 125.517 193.354 145.29 188.878 142.78C183.742 151.557 180.905 155.457 176.378 152.28C178.327 161.409 167.172 169.426 153.378 182.28C152.665 203.376 152.473 217.445 146.878 187.78C146.878 187.78 136.378 176.78 129.878 182.28C123.378 187.78 114.465 180.219 105.878 191.28C94.5168 207.054 96.1446 215.929 102.878 231.78C125.197 215.575 131.155 214.707 118.378 242.28C134.423 239.071 138.431 244.507 135.878 268.28C145.862 264.422 147.703 267.371 150.878 272.78C156.855 260.604 160.388 255.344 168.378 260.78C174.977 257.464 177.67 259.436 181.878 265.28C189.429 258.995 196.17 263.209 211.878 282.28C227.596 286.044 232.539 291.691 230.878 311.28C239.452 309.434 244.24 309.078 252.378 318.78C263.086 318.914 266.821 320.501 268.878 326.28C284.649 332.347 283.823 340.643 268.878 362.28C270.543 383.122 273.309 395.166 245.878 410.28C242.492 420.956 238.461 450.597 216.378 461.28C194.294 471.963 211.878 480.28 207.878 488.78Z" fill="#82DF7A"/>
</g>
<g id="Vector 89" filter="url(#filter8_d_722_238)">
<path d="M243.055 198.999C248.974 212.873 253.423 214.751 264.555 200.999C268.528 199.11 265.743 187.063 280.14 189.999C294.537 192.935 303.322 177.87 305.055 178.499C314.12 181.79 312.984 175.896 311.555 171.999L315.555 159.999L218.055 161.999C165.516 162.919 210.068 165.31 247.055 168.499C251.875 171.86 252.646 174.832 251.555 181.499C244.587 188.301 241.241 192.121 243.055 198.999Z" fill="#82DF7A"/>
</g>
<path id="Vector 103" d="M765.309 39.2909C775.313 49.218 766.143 48.4825 762.81 45.792C762.526 47.3668 761.091 45.3372 758.809 41.2909C755.61 35.6181 754.555 38.0223 758.809 36.7909C758.012 33.5669 758.826 31.6935 761.809 28.2909C769.594 17.921 775.268 14.065 788.809 12.292C808.463 6.12176 815.309 9.29203 797.809 16.2914C780.309 23.2907 775.585 20.4436 765.309 39.2909Z" fill="#82DF7A"/>
<g id="Vector 90" filter="url(#filter9_d_722_238)">
<path d="M360.164 179.066C364.163 179.178 369.164 184.733 375.164 189.566L371.165 191.566C359.382 192.172 353.759 187.721 362.162 185.066C339.431 181.602 339.809 178.499 360.164 179.066Z" fill="#82DF7A"/>
</g>
<g id="Vector 91" filter="url(#filter10_d_722_238)">
<path d="M390 204.615C385.268 196.783 380.089 196.289 367 201.115L390 204.615Z" fill="#82DF7A"/>
</g>
</g>
</g>
<path id="Vector 100" d="M192.215 38.8502C192.245 43.0674 196.216 43.074 192.215 45.5679L183 40.9495C186.072 42.489 182.079 53.9913 179.23 43.8885C177.748 38.6317 170.137 43.4898 164.989 47.2474C164.989 47.2474 152.003 38.8502 164.989 38.8502C177.974 38.8502 151.653 38.1772 152.003 33.8119C152.3 30.1195 164.031 25.8854 171.69 29.1934C179.872 32.7269 192.119 25.5163 192.215 38.8502Z" fill="#82DF7A"/>
<path id="Vector 101" d="M142.172 20.4992C145.723 22.7747 150.757 25.3663 150.664 30.0804L141.766 35.2834C144.732 33.5491 152.193 43.1704 142.172 40.0462C136.958 38.4205 145.034 43.4992 136.5 46.499C136.5 46.499 118.414 52.88 125.498 41.9976C132.583 31.1153 125.999 40.9976 114.999 36.9975C111.517 35.7317 115.689 25.6735 123.999 26.4149C141.766 28 130.945 13.3046 142.172 20.4992Z" fill="#82DF7A"/>
<path id="Vector 102" d="M312.84 122.05C312.329 130.783 310.236 133.846 296.84 129.55C292.256 126.594 287.555 128.599 288.84 115.55C290.742 112.355 292.066 110.481 285.34 110.05C279.999 108.239 278.748 106.674 282.34 102.05C278.856 94.9731 281.997 95.0028 288.84 96.0499V86.0499C278.835 83.6449 277.552 82.3234 285.34 80.0499C270.841 76.7143 272.799 74.1541 276.84 69.5499C271.901 59.8524 271.153 53.4721 253.84 49.5499H239.34C231.196 47.5743 247.067 40.2935 241.84 40.5499C219.031 41.6688 219.245 36.8496 243.382 28.5503C242.31 23.1398 241.947 18.4001 253.84 18.0499C258.732 11.6064 261.295 11.38 265.34 18.0499C265.015 9.42525 269.162 10.2448 276.84 12.0499H282.34C286.753 8.97694 289.026 6.76119 296.84 12.0499L307.84 18.0499C296.85 6.34657 291.753 0.483699 307.84 6.54992C313.114 2.63649 316.069 2.90528 321.34 6.54992C328.721 -3.61795 341.789 0.751711 359.34 2.04992C368.198 4.30752 371.914 5.66022 364.84 9.04992C358.34 8.04992 344.97 12.3335 352.34 12.0499C364.178 11.5945 377.816 10.0668 372.84 18.0499L379.34 15.0499C396.971 14.2946 410.699 12.9676 384.34 22.5499C397.276 23.9069 390.53 26.5803 384.34 30.5499C373.745 31.3881 371.09 33.1505 374.84 39.5499L379.34 40.5499C379.34 40.5499 368.84 47.5499 374.84 49.5499C380.84 51.5499 374.84 53.0499 374.84 53.0499C385.364 63.5018 374.589 65.3646 364.965 67.0284L364.84 67.0499C356.274 68.5311 359.416 72.3717 362.359 74.4926C363.109 74.7782 363.935 75.1321 364.84 75.5499C365.846 76.4295 364.139 75.7759 362.359 74.4926C355.661 71.9421 355.06 74.8231 359.34 86.0499C363.402 92.763 358.898 95.1338 349.34 99.0499C332.949 95.4387 329.707 102.036 321.34 110.05L312.84 122.05Z" fill="#82DF7A"/>
</g>
<defs>
<filter id="filter0_d_722_238" x="583" y="48" width="456.887" height="409.584" filterUnits="userSpaceOnUse" color-interpolation-filters="sRGB">
<feFlood flood-opacity="0" result="BackgroundImageFix"/>
<feColorMatrix in="SourceAlpha" type="matrix" values="0 0 0 0 0 0 0 0 0 0 0 0 0 0 0 0 0 0 127 0" result="hardAlpha"/>
<feOffset dy="4"/>
<feGaussianBlur stdDeviation="2"/>
<feComposite in2="hardAlpha" operator="out"/>
<feColorMatrix type="matrix" values="0 0 0 0 0 0 0 0 0 0 0 0 0 0 0 0 0 0 0.25 0"/>
<feBlend mode="normal" in2="BackgroundImageFix" result="effect1_dropShadow_722_238"/>
<feBlend mode="normal" in="SourceGraphic" in2="effect1_dropShadow_722_238" result="shape"/>
</filter>
<filter id="filter1_d_722_238" x="767" y="368" width="30.9482" height="52.748" filterUnits="userSpaceOnUse" color-interpolation-filters="sRGB">
<feFlood flood-opacity="0" result="BackgroundImageFix"/>
<feColorMatrix in="SourceAlpha" type="matrix" values="0 0 0 0 0 0 0 0 0 0 0 0 0 0 0 0 0 0 127 0" result="hardAlpha"/>
<feOffset dy="4"/>
<feGaussianBlur stdDeviation="2"/>
<feComposite in2="hardAlpha" operator="out"/>
<feColorMatrix type="matrix" values="0 0 0 0 0 0 0 0 0 0 0 0 0 0 0 0 0 0 0.25 0"/>
<feBlend mode="normal" in2="BackgroundImageFix" result="effect1_dropShadow_722_238"/>
<feBlend mode="normal" in="SourceGraphic" in2="effect1_dropShadow_722_238" result="shape"/>
</filter>
<filter id="filter2_d_722_238" x="875" y="324" width="42.2588" height="52.4927" filterUnits="userSpaceOnUse" color-interpolation-filters="sRGB">
<feFlood flood-opacity="0" result="BackgroundImageFix"/>
<feColorMatrix in="SourceAlpha" type="matrix" values="0 0 0 0 0 0 0 0 0 0 0 0 0 0 0 0 0 0 127 0" result="hardAlpha"/>
<feOffset dy="4"/>
<feGaussianBlur stdDeviation="2"/>
<feComposite in2="hardAlpha" operator="out"/>
<feColorMatrix type="matrix" values="0 0 0 0 0 0 0 0 0 0 0 0 0 0 0 0 0 0 0.25 0"/>
<feBlend mode="normal" in2="BackgroundImageFix" result="effect1_dropShadow_722_238"/>
<feBlend mode="normal" in="SourceGraphic" in2="effect1_dropShadow_722_238" result="shape"/>
</filter>
<filter id="filter3_d_722_238" x="885" y="300" width="21.4951" height="32.5" filterUnits="userSpaceOnUse" color-interpolation-filters="sRGB">
<feFlood flood-opacity="0" result="BackgroundImageFix"/>
<feColorMatrix in="SourceAlpha" type="matrix" values="0 0 0 0 0 0 0 0 0 0 0 0 0 0 0 0 0 0 127 0" result="hardAlpha"/>
<feOffset dy="4"/>
<feGaussianBlur stdDeviation="2"/>
<feComposite in2="hardAlpha" operator="out"/>
<feColorMatrix type="matrix" values="0 0 0 0 0 0 0 0 0 0 0 0 0 0 0 0 0 0 0.25 0"/>
<feBlend mode="normal" in2="BackgroundImageFix" result="effect1_dropShadow_722_238"/>
<feBlend mode="normal" in="SourceGraphic" in2="effect1_dropShadow_722_238" result="shape"/>
</filter>
<filter id="filter4_d_722_238" x="909" y="300" width="35.0996" height="48.4351" filterUnits="userSpaceOnUse" color-interpolation-filters="sRGB">
<feFlood flood-opacity="0" result="BackgroundImageFix"/>
<feColorMatrix in="SourceAlpha" type="matrix" values="0 0 0 0 0 0 0 0 0 0 0 0 0 0 0 0 0 0 127 0" result="hardAlpha"/>
<feOffset dy="4"/>
<feGaussianBlur stdDeviation="2"/>
<feComposite in2="hardAlpha" operator="out"/>
<feColorMatrix type="matrix" values="0 0 0 0 0 0 0 0 0 0 0 0 0 0 0 0 0 0 0.25 0"/>
<feBlend mode="normal" in2="BackgroundImageFix" result="effect1_dropShadow_722_238"/>
<feBlend mode="normal" in="SourceGraphic" in2="effect1_dropShadow_722_238" result="shape"/>
</filter>
<filter id="filter5_d_722_238" x="909" y="346" width="130.791" height="112.146" filterUnits="userSpaceOnUse" color-interpolation-filters="sRGB">
<feFlood flood-opacity="0" result="BackgroundImageFix"/>
<feColorMatrix in="SourceAlpha" type="matrix" values="0 0 0 0 0 0 0 0 0 0 0 0 0 0 0 0 0 0 127 0" result="hardAlpha"/>
<feOffset dy="4"/>
<feGaussianBlur stdDeviation="2"/>
<feComposite in2="hardAlpha" operator="out"/>
<feColorMatrix type="matrix" values="0 0 0 0 0 0 0 0 0 0 0 0 0 0 0 0 0 0 0.25 0"/>
<feBlend mode="normal" in2="BackgroundImageFix" result="effect1_dropShadow_722_238"/>
<feBlend mode="normal" in="SourceGraphic" in2="effect1_dropShadow_722_238" result="shape"/>
</filter>
<filter id="filter6_d_722_238" x="984" y="312" width="56.1504" height="46.584" filterUnits="userSpaceOnUse" color-interpolation-filters="sRGB">
<feFlood flood-opacity="0" result="BackgroundImageFix"/>
<feColorMatrix in="SourceAlpha" type="matrix" values="0 0 0 0 0 0 0 0 0 0 0 0 0 0 0 0 0 0 127 0" result="hardAlpha"/>
<feOffset dy="4"/>
<feGaussianBlur stdDeviation="2"/>
<feComposite in2="hardAlpha" operator="out"/>
<feColorMatrix type="matrix" values="0 0 0 0 0 0 0 0 0 0 0 0 0 0 0 0 0 0 0.25 0"/>
<feBlend mode="normal" in2="BackgroundImageFix" result="effect1_dropShadow_722_238"/>
<feBlend mode="normal" in="SourceGraphic" in2="effect1_dropShadow_722_238" result="shape"/>
</filter>
<filter id="filter7_d_722_238" x="0" y="47.999" width="284.398" height="469.781" filterUnits="userSpaceOnUse" color-interpolation-filters="sRGB">
<feFlood flood-opacity="0" result="BackgroundImageFix"/>
<feColorMatrix in="SourceAlpha" type="matrix" values="0 0 0 0 0 0 0 0 0 0 0 0 0 0 0 0 0 0 127 0" result="hardAlpha"/>
<feOffset dy="4"/>
<feGaussianBlur stdDeviation="2"/>
<feComposite in2="hardAlpha" operator="out"/>
<feColorMatrix type="matrix" values="0 0 0 0 0 0 0 0 0 0 0 0 0 0 0 0 0 0 0.25 0"/>
<feBlend mode="normal" in2="BackgroundImageFix" result="effect1_dropShadow_722_238"/>
<feBlend mode="normal" in="SourceGraphic" in2="effect1_dropShadow_722_238" result="shape"/>
</filter>
<filter id="filter8_d_722_238" x="190" y="159.999" width="129.555" height="58.4102" filterUnits="userSpaceOnUse" color-interpolation-filters="sRGB">
<feFlood flood-opacity="0" result="BackgroundImageFix"/>
<feColorMatrix in="SourceAlpha" type="matrix" values="0 0 0 0 0 0 0 0 0 0 0 0 0 0 0 0 0 0 127 0" result="hardAlpha"/>
<feOffset dy="4"/>
<feGaussianBlur stdDeviation="2"/>
<feComposite in2="hardAlpha" operator="out"/>
<feColorMatrix type="matrix" values="0 0 0 0 0 0 0 0 0 0 0 0 0 0 0 0 0 0 0.25 0"/>
<feBlend mode="normal" in2="BackgroundImageFix" result="effect1_dropShadow_722_238"/>
<feBlend mode="normal" in="SourceGraphic" in2="effect1_dropShadow_722_238" result="shape"/>
</filter>
<filter id="filter9_d_722_238" x="341" y="178.999" width="38.1641" height="20.623" filterUnits="userSpaceOnUse" color-interpolation-filters="sRGB">
<feFlood flood-opacity="0" result="BackgroundImageFix"/>
<feColorMatrix in="SourceAlpha" type="matrix" values="0 0 0 0 0 0 0 0 0 0 0 0 0 0 0 0 0 0 127 0" result="hardAlpha"/>
<feOffset dy="4"/>
<feGaussianBlur stdDeviation="2"/>
<feComposite in2="hardAlpha" operator="out"/>
<feColorMatrix type="matrix" values="0 0 0 0 0 0 0 0 0 0 0 0 0 0 0 0 0 0 0.25 0"/>
<feBlend mode="normal" in2="BackgroundImageFix" result="effect1_dropShadow_722_238"/>
<feBlend mode="normal" in="SourceGraphic" in2="effect1_dropShadow_722_238" result="shape"/>
</filter>
<filter id="filter10_d_722_238" x="363" y="197.999" width="31" height="14.6157" filterUnits="userSpaceOnUse" color-interpolation-filters="sRGB">
<feFlood flood-opacity="0" result="BackgroundImageFix"/>
<feColorMatrix in="SourceAlpha" type="matrix" values="0 0 0 0 0 0 0 0 0 0 0 0 0 0 0 0 0 0 127 0" result="hardAlpha"/>
<feOffset dy="4"/>
<feGaussianBlur stdDeviation="2"/>
<feComposite in2="hardAlpha" operator="out"/>
<feColorMatrix type="matrix" values="0 0 0 0 0 0 0 0 0 0 0 0 0 0 0 0 0 0 0.25 0"/>
<feBlend mode="normal" in2="BackgroundImageFix" result="effect1_dropShadow_722_238"/>
<feBlend mode="normal" in="SourceGraphic" in2="effect1_dropShadow_722_238" result="shape"/>
</filter>
</defs>
</svg>
