<svg width="891" height="206" viewBox="0 0 891 206" fill="none" xmlns="http://www.w3.org/2000/svg">
<g id="GoodAct-btn">
<rect width="891" height="206" rx="33" fill="#5353B1"/>
<path id="Press the B button to make people aware and contribute to action." d="M105.745 89V62.8182H115.563C117.574 62.8182 119.262 63.1932 120.625 63.9432C121.997 64.6932 123.033 65.7244 123.732 67.0369C124.439 68.3409 124.793 69.8239 124.793 71.4858C124.793 73.1648 124.439 74.6562 123.732 75.9602C123.024 77.2642 121.98 78.2912 120.6 79.0412C119.219 79.7827 117.519 80.1534 115.499 80.1534H108.992V76.2543H114.86C116.036 76.2543 116.999 76.0497 117.749 75.6406C118.499 75.2315 119.053 74.669 119.411 73.9531C119.777 73.2372 119.961 72.4148 119.961 71.4858C119.961 70.5568 119.777 69.7386 119.411 69.0312C119.053 68.3239 118.495 67.7741 117.736 67.3821C116.986 66.9815 116.019 66.7812 114.834 66.7812H110.488V89H105.745ZM128.024 89V69.3636H132.511V72.6364H132.716C133.074 71.5028 133.687 70.6293 134.557 70.0156C135.435 69.3935 136.436 69.0824 137.561 69.0824C137.817 69.0824 138.102 69.0952 138.418 69.1207C138.741 69.1378 139.01 69.1676 139.223 69.2102V73.4673C139.027 73.3991 138.716 73.3395 138.29 73.2884C137.872 73.2287 137.467 73.1989 137.075 73.1989C136.231 73.1989 135.473 73.3821 134.8 73.7486C134.135 74.1065 133.611 74.6051 133.227 75.2443C132.844 75.8835 132.652 76.6207 132.652 77.456V89H128.024ZM149.498 89.3835C147.529 89.3835 145.829 88.9744 144.397 88.1562C142.974 87.3295 141.879 86.1619 141.112 84.6534C140.345 83.1364 139.961 81.3509 139.961 79.2969C139.961 77.277 140.345 75.5043 141.112 73.9787C141.887 72.4446 142.97 71.2514 144.359 70.3991C145.748 69.5384 147.38 69.108 149.255 69.108C150.465 69.108 151.607 69.304 152.681 69.696C153.764 70.0795 154.718 70.6761 155.545 71.4858C156.38 72.2955 157.036 73.3267 157.514 74.5795C157.991 75.8239 158.23 77.3068 158.23 79.0284V80.4474H142.134V77.3281H153.794C153.785 76.4418 153.593 75.6534 153.218 74.9631C152.843 74.2642 152.319 73.7145 151.646 73.3139C150.981 72.9134 150.205 72.7131 149.319 72.7131C148.373 72.7131 147.542 72.9432 146.826 73.4034C146.11 73.8551 145.552 74.4517 145.151 75.1932C144.759 75.9261 144.559 76.7315 144.551 77.6094V80.3324C144.551 81.4744 144.759 82.4545 145.177 83.2727C145.595 84.0824 146.178 84.7045 146.928 85.1392C147.678 85.5653 148.556 85.7784 149.562 85.7784C150.235 85.7784 150.845 85.6847 151.39 85.4972C151.936 85.3011 152.409 85.0156 152.809 84.6406C153.21 84.2656 153.512 83.8011 153.717 83.2472L158.038 83.733C157.765 84.875 157.245 85.8722 156.478 86.7244C155.72 87.5682 154.748 88.2244 153.563 88.6932C152.379 89.1534 151.024 89.3835 149.498 89.3835ZM176.981 74.554L172.762 75.0142C172.643 74.5881 172.434 74.1875 172.135 73.8125C171.846 73.4375 171.454 73.1349 170.959 72.9048C170.465 72.6747 169.86 72.5597 169.144 72.5597C168.181 72.5597 167.371 72.7685 166.715 73.1861C166.067 73.6037 165.748 74.1449 165.756 74.8097C165.748 75.3807 165.956 75.8452 166.383 76.2031C166.817 76.5611 167.533 76.8551 168.53 77.0852L171.88 77.8011C173.738 78.2017 175.118 78.8366 176.022 79.706C176.934 80.5753 177.394 81.7131 177.402 83.1193C177.394 84.3551 177.032 85.446 176.316 86.392C175.608 87.3295 174.624 88.0625 173.363 88.5909C172.101 89.1193 170.652 89.3835 169.016 89.3835C166.613 89.3835 164.678 88.8807 163.212 87.875C161.746 86.8608 160.873 85.4503 160.591 83.6435L165.104 83.2088C165.309 84.0952 165.743 84.7642 166.408 85.2159C167.073 85.6676 167.938 85.8935 169.003 85.8935C170.103 85.8935 170.985 85.6676 171.65 85.2159C172.323 84.7642 172.66 84.206 172.66 83.5412C172.66 82.9787 172.442 82.5142 172.008 82.1477C171.581 81.7812 170.917 81.5 170.013 81.304L166.664 80.6009C164.78 80.2088 163.387 79.5483 162.483 78.6193C161.58 77.6818 161.133 76.4972 161.141 75.0653C161.133 73.8551 161.461 72.8068 162.125 71.9205C162.799 71.0256 163.732 70.3352 164.925 69.8494C166.127 69.3551 167.512 69.108 169.08 69.108C171.381 69.108 173.192 69.598 174.513 70.5781C175.843 71.5582 176.665 72.8835 176.981 74.554ZM196.054 74.554L191.836 75.0142C191.716 74.5881 191.508 74.1875 191.209 73.8125C190.919 73.4375 190.527 73.1349 190.033 72.9048C189.539 72.6747 188.934 72.5597 188.218 72.5597C187.255 72.5597 186.445 72.7685 185.789 73.1861C185.141 73.6037 184.821 74.1449 184.83 74.8097C184.821 75.3807 185.03 75.8452 185.456 76.2031C185.891 76.5611 186.607 76.8551 187.604 77.0852L190.954 77.8011C192.812 78.2017 194.192 78.8366 195.096 79.706C196.008 80.5753 196.468 81.7131 196.476 83.1193C196.468 84.3551 196.106 85.446 195.39 86.392C194.682 87.3295 193.698 88.0625 192.437 88.5909C191.175 89.1193 189.726 89.3835 188.09 89.3835C185.687 89.3835 183.752 88.8807 182.286 87.875C180.82 86.8608 179.946 85.4503 179.665 83.6435L184.178 83.2088C184.383 84.0952 184.817 84.7642 185.482 85.2159C186.147 85.6676 187.012 85.8935 188.077 85.8935C189.177 85.8935 190.059 85.6676 190.723 85.2159C191.397 84.7642 191.733 84.206 191.733 83.5412C191.733 82.9787 191.516 82.5142 191.081 82.1477C190.655 81.7812 189.991 81.5 189.087 81.304L185.738 80.6009C183.854 80.2088 182.461 79.5483 181.557 78.6193C180.654 77.6818 180.206 76.4972 180.215 75.0653C180.206 73.8551 180.535 72.8068 181.199 71.9205C181.873 71.0256 182.806 70.3352 183.999 69.8494C185.201 69.3551 186.586 69.108 188.154 69.108C190.455 69.108 192.266 69.598 193.587 70.5781C194.917 71.5582 195.739 72.8835 196.054 74.554ZM217.659 69.3636V72.9432H206.371V69.3636H217.659ZM209.158 64.6591H213.786V83.0938C213.786 83.7159 213.88 84.1932 214.067 84.5256C214.263 84.8494 214.519 85.071 214.834 85.1903C215.149 85.3097 215.499 85.3693 215.882 85.3693C216.172 85.3693 216.436 85.348 216.675 85.3054C216.922 85.2628 217.11 85.2244 217.238 85.1903L218.017 88.8082C217.77 88.8935 217.417 88.9872 216.956 89.0895C216.505 89.1918 215.951 89.2514 215.294 89.2685C214.135 89.3026 213.091 89.1278 212.162 88.7443C211.233 88.3523 210.496 87.7472 209.951 86.929C209.414 86.1108 209.149 85.0881 209.158 83.8608V64.6591ZM225.896 77.4943V89H221.268V62.8182H225.793V72.7003H226.023C226.484 71.5923 227.195 70.7187 228.158 70.0795C229.13 69.4318 230.366 69.108 231.866 69.108C233.229 69.108 234.418 69.3935 235.432 69.9645C236.447 70.5355 237.231 71.3707 237.785 72.4702C238.347 73.5696 238.628 74.9119 238.628 76.4972V89H234.001V77.2131C234.001 75.892 233.66 74.8651 232.978 74.1321C232.305 73.3906 231.359 73.0199 230.14 73.0199C229.322 73.0199 228.589 73.1989 227.941 73.5568C227.302 73.9062 226.799 74.4134 226.432 75.0781C226.075 75.7429 225.896 76.5483 225.896 77.4943ZM251.355 89.3835C249.386 89.3835 247.686 88.9744 246.254 88.1562C244.831 87.3295 243.736 86.1619 242.969 84.6534C242.202 83.1364 241.818 81.3509 241.818 79.2969C241.818 77.277 242.202 75.5043 242.969 73.9787C243.744 72.4446 244.827 71.2514 246.216 70.3991C247.605 69.5384 249.237 69.108 251.112 69.108C252.322 69.108 253.464 69.304 254.538 69.696C255.621 70.0795 256.575 70.6761 257.402 71.4858C258.237 72.2955 258.893 73.3267 259.371 74.5795C259.848 75.8239 260.087 77.3068 260.087 79.0284V80.4474H243.991V77.3281H255.65C255.642 76.4418 255.45 75.6534 255.075 74.9631C254.7 74.2642 254.176 73.7145 253.503 73.3139C252.838 72.9134 252.062 72.7131 251.176 72.7131C250.23 72.7131 249.399 72.9432 248.683 73.4034C247.967 73.8551 247.409 74.4517 247.008 75.1932C246.616 75.9261 246.416 76.7315 246.408 77.6094V80.3324C246.408 81.4744 246.616 82.4545 247.034 83.2727C247.452 84.0824 248.035 84.7045 248.785 85.1392C249.535 85.5653 250.413 85.7784 251.419 85.7784C252.092 85.7784 252.702 85.6847 253.247 85.4972C253.793 85.3011 254.266 85.0156 254.666 84.6406C255.067 84.2656 255.369 83.8011 255.574 83.2472L259.895 83.733C259.622 84.875 259.102 85.8722 258.335 86.7244C257.577 87.5682 256.605 88.2244 255.42 88.6932C254.236 89.1534 252.881 89.3835 251.355 89.3835ZM271.768 89V62.8182H281.791C283.683 62.8182 285.255 63.1165 286.508 63.7131C287.769 64.3011 288.711 65.1065 289.333 66.1293C289.964 67.152 290.279 68.3111 290.279 69.6065C290.279 70.6719 290.075 71.5838 289.666 72.3423C289.257 73.0923 288.707 73.7017 288.016 74.1705C287.326 74.6392 286.555 74.9759 285.703 75.1804V75.4361C286.632 75.4872 287.522 75.7727 288.374 76.2926C289.235 76.804 289.938 77.5284 290.484 78.4659C291.029 79.4034 291.302 80.5369 291.302 81.8665C291.302 83.2216 290.974 84.4403 290.318 85.5227C289.661 86.5966 288.673 87.4446 287.352 88.0668C286.031 88.6889 284.369 89 282.366 89H271.768ZM276.511 85.0369H281.612C283.333 85.0369 284.573 84.7088 285.332 84.0526C286.099 83.3878 286.482 82.5355 286.482 81.4957C286.482 80.7202 286.291 80.0213 285.907 79.3991C285.524 78.7685 284.978 78.2741 284.271 77.9162C283.563 77.5497 282.72 77.3665 281.739 77.3665H276.511V85.0369ZM276.511 73.9531H281.203C282.021 73.9531 282.758 73.804 283.414 73.5057C284.07 73.1989 284.586 72.7685 284.961 72.2145C285.345 71.652 285.536 70.9872 285.536 70.2202C285.536 69.206 285.178 68.3707 284.463 67.7145C283.755 67.0582 282.703 66.7301 281.305 66.7301H276.511V73.9531ZM302.99 89V62.8182H307.618V72.6108H307.809C308.048 72.1335 308.385 71.6264 308.819 71.0895C309.254 70.544 309.842 70.0795 310.583 69.696C311.325 69.304 312.271 69.108 313.422 69.108C314.939 69.108 316.306 69.4957 317.525 70.2713C318.753 71.0384 319.724 72.1761 320.44 73.6847C321.164 75.1847 321.527 77.0256 321.527 79.2074C321.527 81.3636 321.173 83.196 320.466 84.7045C319.758 86.2131 318.795 87.3636 317.576 88.1562C316.358 88.9489 314.977 89.3452 313.434 89.3452C312.309 89.3452 311.376 89.1577 310.635 88.7827C309.893 88.4077 309.297 87.956 308.845 87.4276C308.402 86.8906 308.056 86.3835 307.809 85.9062H307.541V89H302.99ZM307.528 79.1818C307.528 80.4517 307.707 81.5639 308.065 82.5185C308.431 83.473 308.956 84.2187 309.637 84.7557C310.328 85.2841 311.163 85.5483 312.143 85.5483C313.166 85.5483 314.022 85.2756 314.713 84.7301C315.403 84.1761 315.923 83.4219 316.272 82.4673C316.63 81.5043 316.809 80.4091 316.809 79.1818C316.809 77.9631 316.635 76.8807 316.285 75.9347C315.936 74.9886 315.416 74.2472 314.726 73.7102C314.035 73.1733 313.174 72.9048 312.143 72.9048C311.155 72.9048 310.315 73.1648 309.625 73.6847C308.934 74.2045 308.41 74.9332 308.052 75.8707C307.703 76.8082 307.528 77.9119 307.528 79.1818ZM337.293 80.7415V69.3636H341.92V89H337.433V85.5099H337.229C336.786 86.6094 336.057 87.5085 335.043 88.2074C334.037 88.9062 332.797 89.2557 331.322 89.2557C330.036 89.2557 328.898 88.9702 327.909 88.3991C326.929 87.8196 326.162 86.9801 325.608 85.8807C325.054 84.7727 324.777 83.4347 324.777 81.8665V69.3636H329.405V81.1506C329.405 82.3949 329.746 83.3835 330.428 84.1165C331.109 84.8494 332.004 85.2159 333.112 85.2159C333.794 85.2159 334.455 85.0497 335.094 84.7173C335.733 84.3849 336.257 83.8906 336.666 83.2344C337.084 82.5696 337.293 81.7386 337.293 80.7415ZM355.801 69.3636V72.9432H344.512V69.3636H355.801ZM347.299 64.6591H351.927V83.0938C351.927 83.7159 352.021 84.1932 352.208 84.5256C352.404 84.8494 352.66 85.071 352.975 85.1903C353.291 85.3097 353.64 85.3693 354.024 85.3693C354.314 85.3693 354.578 85.348 354.816 85.3054C355.064 85.2628 355.251 85.2244 355.379 85.1903L356.159 88.8082C355.912 88.8935 355.558 88.9872 355.098 89.0895C354.646 89.1918 354.092 89.2514 353.436 89.2685C352.277 89.3026 351.233 89.1278 350.304 88.7443C349.375 88.3523 348.637 87.7472 348.092 86.929C347.555 86.1108 347.291 85.0881 347.299 83.8608V64.6591ZM368.792 69.3636V72.9432H357.504V69.3636H368.792ZM360.291 64.6591H364.919V83.0938C364.919 83.7159 365.013 84.1932 365.2 84.5256C365.396 84.8494 365.652 85.071 365.967 85.1903C366.283 85.3097 366.632 85.3693 367.016 85.3693C367.305 85.3693 367.569 85.348 367.808 85.3054C368.055 85.2628 368.243 85.2244 368.371 85.1903L369.15 88.8082C368.903 88.8935 368.55 88.9872 368.089 89.0895C367.638 89.1918 367.084 89.2514 366.427 89.2685C365.268 89.3026 364.224 89.1278 363.295 88.7443C362.366 88.3523 361.629 87.7472 361.084 86.929C360.547 86.1108 360.283 85.0881 360.291 83.8608V64.6591ZM380.333 89.3835C378.416 89.3835 376.754 88.9616 375.347 88.1179C373.941 87.2741 372.85 86.0937 372.075 84.5767C371.308 83.0597 370.924 81.2869 370.924 79.2585C370.924 77.2301 371.308 75.4531 372.075 73.9276C372.85 72.402 373.941 71.2173 375.347 70.3736C376.754 69.5298 378.416 69.108 380.333 69.108C382.251 69.108 383.913 69.5298 385.319 70.3736C386.725 71.2173 387.812 72.402 388.579 73.9276C389.355 75.4531 389.742 77.2301 389.742 79.2585C389.742 81.2869 389.355 83.0597 388.579 84.5767C387.812 86.0937 386.725 87.2741 385.319 88.1179C383.913 88.9616 382.251 89.3835 380.333 89.3835ZM380.359 85.6761C381.399 85.6761 382.268 85.3906 382.967 84.8196C383.666 84.2401 384.186 83.4645 384.526 82.4929C384.876 81.5213 385.051 80.4389 385.051 79.2457C385.051 78.044 384.876 76.9574 384.526 75.9858C384.186 75.0057 383.666 74.2259 382.967 73.6463C382.268 73.0668 381.399 72.777 380.359 72.777C379.294 72.777 378.407 73.0668 377.7 73.6463C377.001 74.2259 376.477 75.0057 376.127 75.9858C375.786 76.9574 375.616 78.044 375.616 79.2457C375.616 80.4389 375.786 81.5213 376.127 82.4929C376.477 83.4645 377.001 84.2401 377.7 84.8196C378.407 85.3906 379.294 85.6761 380.359 85.6761ZM397.614 77.4943V89H392.986V69.3636H397.41V72.7003H397.64C398.091 71.6009 398.812 70.7273 399.8 70.0795C400.797 69.4318 402.029 69.108 403.495 69.108C404.85 69.108 406.03 69.3977 407.036 69.9773C408.05 70.5568 408.834 71.3963 409.388 72.4957C409.951 73.5952 410.228 74.929 410.219 76.4972V89H405.591V77.2131C405.591 75.9006 405.251 74.8736 404.569 74.1321C403.895 73.3906 402.962 73.0199 401.769 73.0199C400.959 73.0199 400.239 73.1989 399.608 73.5568C398.986 73.9062 398.496 74.4134 398.138 75.0781C397.789 75.7429 397.614 76.5483 397.614 77.4943ZM432.291 69.3636V72.9432H421.003V69.3636H432.291ZM423.789 64.6591H428.417V83.0938C428.417 83.7159 428.511 84.1932 428.699 84.5256C428.895 84.8494 429.15 85.071 429.466 85.1903C429.781 85.3097 430.13 85.3693 430.514 85.3693C430.804 85.3693 431.068 85.348 431.306 85.3054C431.554 85.2628 431.741 85.2244 431.869 85.1903L432.649 88.8082C432.402 88.8935 432.048 88.9872 431.588 89.0895C431.136 89.1918 430.582 89.2514 429.926 89.2685C428.767 89.3026 427.723 89.1278 426.794 88.7443C425.865 88.3523 425.128 87.7472 424.582 86.929C424.045 86.1108 423.781 85.0881 423.789 83.8608V64.6591ZM443.832 89.3835C441.914 89.3835 440.252 88.9616 438.846 88.1179C437.44 87.2741 436.349 86.0937 435.573 84.5767C434.806 83.0597 434.423 81.2869 434.423 79.2585C434.423 77.2301 434.806 75.4531 435.573 73.9276C436.349 72.402 437.44 71.2173 438.846 70.3736C440.252 69.5298 441.914 69.108 443.832 69.108C445.749 69.108 447.411 69.5298 448.817 70.3736C450.224 71.2173 451.31 72.402 452.077 73.9276C452.853 75.4531 453.241 77.2301 453.241 79.2585C453.241 81.2869 452.853 83.0597 452.077 84.5767C451.31 86.0937 450.224 87.2741 448.817 88.1179C447.411 88.9616 445.749 89.3835 443.832 89.3835ZM443.857 85.6761C444.897 85.6761 445.766 85.3906 446.465 84.8196C447.164 84.2401 447.684 83.4645 448.025 82.4929C448.374 81.5213 448.549 80.4389 448.549 79.2457C448.549 78.044 448.374 76.9574 448.025 75.9858C447.684 75.0057 447.164 74.2259 446.465 73.6463C445.766 73.0668 444.897 72.777 443.857 72.777C442.792 72.777 441.906 73.0668 441.198 73.6463C440.499 74.2259 439.975 75.0057 439.626 75.9858C439.285 76.9574 439.114 78.044 439.114 79.2457C439.114 80.4389 439.285 81.5213 439.626 82.4929C439.975 83.4645 440.499 84.2401 441.198 84.8196C441.906 85.3906 442.792 85.6761 443.857 85.6761ZM464.73 89V69.3636H469.154V72.7003H469.384C469.793 71.5753 470.47 70.6974 471.416 70.0668C472.362 69.4276 473.492 69.108 474.804 69.108C476.134 69.108 477.254 69.4318 478.166 70.0795C479.087 70.7187 479.735 71.5923 480.11 72.7003H480.314C480.749 71.6094 481.482 70.7401 482.513 70.0923C483.553 69.4361 484.784 69.108 486.208 69.108C488.014 69.108 489.489 69.679 490.631 70.821C491.773 71.9631 492.344 73.6293 492.344 75.8196V89H487.703V76.5355C487.703 75.3168 487.379 74.4261 486.732 73.8636C486.084 73.2926 485.291 73.0071 484.354 73.0071C483.237 73.0071 482.364 73.3565 481.733 74.0554C481.111 74.7457 480.8 75.6449 480.8 76.7528V89H476.262V76.3438C476.262 75.3295 475.955 74.5199 475.341 73.9148C474.736 73.3097 473.943 73.0071 472.963 73.0071C472.299 73.0071 471.693 73.1776 471.148 73.5185C470.603 73.8509 470.168 74.3239 469.844 74.9375C469.52 75.5426 469.358 76.25 469.358 77.0597V89H464.73ZM502.006 89.3963C500.761 89.3963 499.64 89.1747 498.643 88.7315C497.655 88.2798 496.871 87.6151 496.291 86.7372C495.72 85.8594 495.434 84.777 495.434 83.4901C495.434 82.3821 495.639 81.4659 496.048 80.7415C496.457 80.017 497.015 79.4375 497.723 79.0028C498.43 78.5682 499.227 78.2401 500.113 78.0185C501.008 77.7884 501.933 77.6222 502.888 77.5199C504.038 77.4006 504.971 77.294 505.687 77.2003C506.403 77.098 506.923 76.9446 507.247 76.7401C507.579 76.527 507.746 76.1989 507.746 75.7557V75.679C507.746 74.7159 507.46 73.9702 506.889 73.4418C506.318 72.9134 505.496 72.6491 504.422 72.6491C503.288 72.6491 502.389 72.8963 501.724 73.3906C501.068 73.8849 500.625 74.4687 500.395 75.142L496.074 74.5284C496.415 73.3352 496.977 72.3381 497.761 71.5369C498.545 70.7273 499.504 70.1222 500.638 69.7216C501.771 69.3125 503.024 69.108 504.396 69.108C505.342 69.108 506.284 69.2188 507.221 69.4403C508.159 69.6619 509.015 70.0284 509.791 70.5398C510.567 71.0426 511.189 71.7287 511.658 72.598C512.135 73.4673 512.373 74.554 512.373 75.858V89H507.925V86.3026H507.771C507.49 86.848 507.094 87.3594 506.582 87.8366C506.079 88.3054 505.444 88.6847 504.677 88.9744C503.919 89.2557 503.028 89.3963 502.006 89.3963ZM503.207 85.9957C504.136 85.9957 504.942 85.8125 505.623 85.446C506.305 85.071 506.829 84.5767 507.196 83.9631C507.571 83.3494 507.758 82.6804 507.758 81.956V79.642C507.613 79.7614 507.366 79.8722 507.017 79.9744C506.676 80.0767 506.292 80.1662 505.866 80.2429C505.44 80.3196 505.018 80.3878 504.601 80.4474C504.183 80.5071 503.821 80.5582 503.514 80.6009C502.824 80.6946 502.206 80.848 501.66 81.0611C501.115 81.2741 500.684 81.5724 500.369 81.956C500.054 82.331 499.896 82.8168 499.896 83.4134C499.896 84.2656 500.207 84.9091 500.829 85.3438C501.452 85.7784 502.244 85.9957 503.207 85.9957ZM520.562 82.8381L520.549 77.2514H521.29L528.347 69.3636H533.755L525.074 79.0284H524.116L520.562 82.8381ZM516.343 89V62.8182H520.971V89H516.343ZM528.667 89L522.275 80.0639L525.394 76.804L534.202 89H528.667ZM544.039 89.3835C542.071 89.3835 540.37 88.9744 538.939 88.1562C537.515 87.3295 536.42 86.1619 535.653 84.6534C534.886 83.1364 534.503 81.3509 534.503 79.2969C534.503 77.277 534.886 75.5043 535.653 73.9787C536.429 72.4446 537.511 71.2514 538.9 70.3991C540.289 69.5384 541.922 69.108 543.797 69.108C545.007 69.108 546.149 69.304 547.223 69.696C548.305 70.0795 549.26 70.6761 550.086 71.4858C550.922 72.2955 551.578 73.3267 552.055 74.5795C552.532 75.8239 552.771 77.3068 552.771 79.0284V80.4474H536.676V77.3281H548.335C548.326 76.4418 548.135 75.6534 547.76 74.9631C547.385 74.2642 546.861 73.7145 546.187 73.3139C545.522 72.9134 544.747 72.7131 543.861 72.7131C542.914 72.7131 542.084 72.9432 541.368 73.4034C540.652 73.8551 540.093 74.4517 539.693 75.1932C539.301 75.9261 539.101 76.7315 539.092 77.6094V80.3324C539.092 81.4744 539.301 82.4545 539.718 83.2727C540.136 84.0824 540.72 84.7045 541.47 85.1392C542.22 85.5653 543.098 85.7784 544.103 85.7784C544.777 85.7784 545.386 85.6847 545.932 85.4972C546.477 85.3011 546.95 85.0156 547.351 84.6406C547.751 84.2656 548.054 83.8011 548.258 83.2472L552.579 83.733C552.307 84.875 551.787 85.8722 551.02 86.7244C550.261 87.5682 549.289 88.2244 548.105 88.6932C546.92 89.1534 545.565 89.3835 544.039 89.3835ZM564.248 96.3636V69.3636H568.799V72.6108H569.067C569.306 72.1335 569.643 71.6264 570.077 71.0895C570.512 70.544 571.1 70.0795 571.842 69.696C572.583 69.304 573.529 69.108 574.68 69.108C576.197 69.108 577.565 69.4957 578.783 70.2713C580.011 71.0384 580.982 72.1761 581.698 73.6847C582.423 75.1847 582.785 77.0256 582.785 79.2074C582.785 81.3636 582.431 83.196 581.724 84.7045C581.016 86.2131 580.053 87.3636 578.835 88.1562C577.616 88.9489 576.235 89.3452 574.692 89.3452C573.567 89.3452 572.634 89.1577 571.893 88.7827C571.151 88.4077 570.555 87.956 570.103 87.4276C569.66 86.8906 569.315 86.3835 569.067 85.9062H568.876V96.3636H564.248ZM568.786 79.1818C568.786 80.4517 568.965 81.5639 569.323 82.5185C569.69 83.473 570.214 84.2187 570.896 84.7557C571.586 85.2841 572.421 85.5483 573.401 85.5483C574.424 85.5483 575.281 85.2756 575.971 84.7301C576.661 84.1761 577.181 83.4219 577.531 82.4673C577.888 81.5043 578.067 80.4091 578.067 79.1818C578.067 77.9631 577.893 76.8807 577.543 75.9347C577.194 74.9886 576.674 74.2472 575.984 73.7102C575.293 73.1733 574.433 72.9048 573.401 72.9048C572.413 72.9048 571.573 73.1648 570.883 73.6847C570.192 74.2045 569.668 74.9332 569.31 75.8707C568.961 76.8082 568.786 77.9119 568.786 79.1818ZM594.757 89.3835C592.788 89.3835 591.088 88.9744 589.656 88.1562C588.233 87.3295 587.138 86.1619 586.371 84.6534C585.604 83.1364 585.22 81.3509 585.22 79.2969C585.22 77.277 585.604 75.5043 586.371 73.9787C587.146 72.4446 588.229 71.2514 589.618 70.3991C591.007 69.5384 592.639 69.108 594.514 69.108C595.724 69.108 596.866 69.304 597.94 69.696C599.023 70.0795 599.977 70.6761 600.804 71.4858C601.639 72.2955 602.295 73.3267 602.773 74.5795C603.25 75.8239 603.489 77.3068 603.489 79.0284V80.4474H587.393V77.3281H599.052C599.044 76.4418 598.852 75.6534 598.477 74.9631C598.102 74.2642 597.578 73.7145 596.905 73.3139C596.24 72.9134 595.464 72.7131 594.578 72.7131C593.632 72.7131 592.801 72.9432 592.085 73.4034C591.369 73.8551 590.811 74.4517 590.41 75.1932C590.018 75.9261 589.818 76.7315 589.81 77.6094V80.3324C589.81 81.4744 590.018 82.4545 590.436 83.2727C590.854 84.0824 591.437 84.7045 592.187 85.1392C592.937 85.5653 593.815 85.7784 594.821 85.7784C595.494 85.7784 596.104 85.6847 596.649 85.4972C597.195 85.3011 597.668 85.0156 598.068 84.6406C598.469 84.2656 598.771 83.8011 598.976 83.2472L603.297 83.733C603.024 84.875 602.504 85.8722 601.737 86.7244C600.979 87.5682 600.007 88.2244 598.822 88.6932C597.638 89.1534 596.283 89.3835 594.757 89.3835ZM615.285 89.3835C613.367 89.3835 611.705 88.9616 610.299 88.1179C608.893 87.2741 607.802 86.0937 607.027 84.5767C606.259 83.0597 605.876 81.2869 605.876 79.2585C605.876 77.2301 606.259 75.4531 607.027 73.9276C607.802 72.402 608.893 71.2173 610.299 70.3736C611.705 69.5298 613.367 69.108 615.285 69.108C617.203 69.108 618.865 69.5298 620.271 70.3736C621.677 71.2173 622.764 72.402 623.531 73.9276C624.306 75.4531 624.694 77.2301 624.694 79.2585C624.694 81.2869 624.306 83.0597 623.531 84.5767C622.764 86.0937 621.677 87.2741 620.271 88.1179C618.865 88.9616 617.203 89.3835 615.285 89.3835ZM615.311 85.6761C616.35 85.6761 617.22 85.3906 617.919 84.8196C618.617 84.2401 619.137 83.4645 619.478 82.4929C619.828 81.5213 620.002 80.4389 620.002 79.2457C620.002 78.044 619.828 76.9574 619.478 75.9858C619.137 75.0057 618.617 74.2259 617.919 73.6463C617.22 73.0668 616.35 72.777 615.311 72.777C614.245 72.777 613.359 73.0668 612.652 73.6463C611.953 74.2259 611.429 75.0057 611.079 75.9858C610.738 76.9574 610.568 78.044 610.568 79.2457C610.568 80.4389 610.738 81.5213 611.079 82.4929C611.429 83.4645 611.953 84.2401 612.652 84.8196C613.359 85.3906 614.245 85.6761 615.311 85.6761ZM627.938 96.3636V69.3636H632.489V72.6108H632.758C632.996 72.1335 633.333 71.6264 633.768 71.0895C634.202 70.544 634.79 70.0795 635.532 69.696C636.273 69.304 637.219 69.108 638.37 69.108C639.887 69.108 641.255 69.4957 642.474 70.2713C643.701 71.0384 644.672 72.1761 645.388 73.6847C646.113 75.1847 646.475 77.0256 646.475 79.2074C646.475 81.3636 646.121 83.196 645.414 84.7045C644.706 86.2131 643.743 87.3636 642.525 88.1562C641.306 88.9489 639.925 89.3452 638.383 89.3452C637.258 89.3452 636.324 89.1577 635.583 88.7827C634.841 88.4077 634.245 87.956 633.793 87.4276C633.35 86.8906 633.005 86.3835 632.758 85.9062H632.566V96.3636H627.938ZM632.476 79.1818C632.476 80.4517 632.655 81.5639 633.013 82.5185C633.38 83.473 633.904 84.2187 634.586 84.7557C635.276 85.2841 636.111 85.5483 637.091 85.5483C638.114 85.5483 638.971 85.2756 639.661 84.7301C640.351 84.1761 640.871 83.4219 641.221 82.4673C641.579 81.5043 641.758 80.4091 641.758 79.1818C641.758 77.9631 641.583 76.8807 641.233 75.9347C640.884 74.9886 640.364 74.2472 639.674 73.7102C638.983 73.1733 638.123 72.9048 637.091 72.9048C636.103 72.9048 635.263 73.1648 634.573 73.6847C633.883 74.2045 633.358 74.9332 633.001 75.8707C632.651 76.8082 632.476 77.9119 632.476 79.1818ZM654.382 62.8182V89H649.754V62.8182H654.382ZM667.15 89.3835C665.181 89.3835 663.481 88.9744 662.049 88.1562C660.626 87.3295 659.531 86.1619 658.764 84.6534C657.997 83.1364 657.613 81.3509 657.613 79.2969C657.613 77.277 657.997 75.5043 658.764 73.9787C659.539 72.4446 660.622 71.2514 662.011 70.3991C663.4 69.5384 665.032 69.108 666.907 69.108C668.117 69.108 669.259 69.304 670.333 69.696C671.416 70.0795 672.37 70.6761 673.197 71.4858C674.032 72.2955 674.688 73.3267 675.166 74.5795C675.643 75.8239 675.881 77.3068 675.881 79.0284V80.4474H659.786V77.3281H671.445C671.437 76.4418 671.245 75.6534 670.87 74.9631C670.495 74.2642 669.971 73.7145 669.298 73.3139C668.633 72.9134 667.857 72.7131 666.971 72.7131C666.025 72.7131 665.194 72.9432 664.478 73.4034C663.762 73.8551 663.204 74.4517 662.803 75.1932C662.411 75.9261 662.211 76.7315 662.202 77.6094V80.3324C662.202 81.4744 662.411 82.4545 662.829 83.2727C663.247 84.0824 663.83 84.7045 664.58 85.1392C665.33 85.5653 666.208 85.7784 667.214 85.7784C667.887 85.7784 668.497 85.6847 669.042 85.4972C669.587 85.3011 670.06 85.0156 670.461 84.6406C670.862 84.2656 671.164 83.8011 671.369 83.2472L675.69 83.733C675.417 84.875 674.897 85.8722 674.13 86.7244C673.372 87.5682 672.4 88.2244 671.215 88.6932C670.031 89.1534 668.676 89.3835 667.15 89.3835ZM693.009 89.3963C691.765 89.3963 690.644 89.1747 689.647 88.7315C688.658 88.2798 687.874 87.6151 687.294 86.7372C686.723 85.8594 686.438 84.777 686.438 83.4901C686.438 82.3821 686.642 81.4659 687.051 80.7415C687.461 80.017 688.019 79.4375 688.726 79.0028C689.434 78.5682 690.23 78.2401 691.117 78.0185C692.012 77.7884 692.936 77.6222 693.891 77.5199C695.042 77.4006 695.975 77.294 696.691 77.2003C697.407 77.098 697.926 76.9446 698.25 76.7401C698.583 76.527 698.749 76.1989 698.749 75.7557V75.679C698.749 74.7159 698.463 73.9702 697.892 73.4418C697.321 72.9134 696.499 72.6491 695.425 72.6491C694.292 72.6491 693.392 72.8963 692.728 73.3906C692.071 73.8849 691.628 74.4687 691.398 75.142L687.077 74.5284C687.418 73.3352 687.98 72.3381 688.765 71.5369C689.549 70.7273 690.507 70.1222 691.641 69.7216C692.775 69.3125 694.027 69.108 695.4 69.108C696.346 69.108 697.287 69.2188 698.225 69.4403C699.162 69.6619 700.019 70.0284 700.794 70.5398C701.57 71.0426 702.192 71.7287 702.661 72.598C703.138 73.4673 703.377 74.554 703.377 75.858V89H698.928V86.3026H698.775C698.493 86.848 698.097 87.3594 697.586 87.8366C697.083 88.3054 696.448 88.6847 695.681 88.9744C694.922 89.2557 694.032 89.3963 693.009 89.3963ZM694.211 85.9957C695.14 85.9957 695.945 85.8125 696.627 85.446C697.309 85.071 697.833 84.5767 698.199 83.9631C698.574 83.3494 698.762 82.6804 698.762 81.956V79.642C698.617 79.7614 698.37 79.8722 698.02 79.9744C697.679 80.0767 697.296 80.1662 696.87 80.2429C696.444 80.3196 696.022 80.3878 695.604 80.4474C695.186 80.5071 694.824 80.5582 694.517 80.6009C693.827 80.6946 693.209 80.848 692.664 81.0611C692.118 81.2741 691.688 81.5724 691.373 81.956C691.057 82.331 690.9 82.8168 690.9 83.4134C690.9 84.2656 691.211 84.9091 691.833 85.3438C692.455 85.7784 693.248 85.9957 694.211 85.9957ZM711.399 89L705.85 69.3636H710.568L714.019 83.1705H714.198L717.727 69.3636H722.393L725.921 83.0938H726.113L729.514 69.3636H734.244L728.683 89H723.863L720.181 75.7301H719.913L716.231 89H711.399ZM742.442 89.3963C741.197 89.3963 740.077 89.1747 739.079 88.7315C738.091 88.2798 737.307 87.6151 736.727 86.7372C736.156 85.8594 735.871 84.777 735.871 83.4901C735.871 82.3821 736.075 81.4659 736.484 80.7415C736.893 80.017 737.452 79.4375 738.159 79.0028C738.866 78.5682 739.663 78.2401 740.55 78.0185C741.444 77.7884 742.369 77.6222 743.324 77.5199C744.474 77.4006 745.408 77.294 746.123 77.2003C746.839 77.098 747.359 76.9446 747.683 76.7401C748.015 76.527 748.182 76.1989 748.182 75.7557V75.679C748.182 74.7159 747.896 73.9702 747.325 73.4418C746.754 72.9134 745.932 72.6491 744.858 72.6491C743.724 72.6491 742.825 72.8963 742.16 73.3906C741.504 73.8849 741.061 74.4687 740.831 75.142L736.51 74.5284C736.851 73.3352 737.413 72.3381 738.197 71.5369C738.981 70.7273 739.94 70.1222 741.074 69.7216C742.207 69.3125 743.46 69.108 744.832 69.108C745.778 69.108 746.72 69.2188 747.658 69.4403C748.595 69.6619 749.452 70.0284 750.227 70.5398C751.003 71.0426 751.625 71.7287 752.094 72.598C752.571 73.4673 752.81 74.554 752.81 75.858V89H748.361V86.3026H748.207C747.926 86.848 747.53 87.3594 747.018 87.8366C746.515 88.3054 745.881 88.6847 745.113 88.9744C744.355 89.2557 743.464 89.3963 742.442 89.3963ZM743.643 85.9957C744.572 85.9957 745.378 85.8125 746.06 85.446C746.741 85.071 747.265 84.5767 747.632 83.9631C748.007 83.3494 748.194 82.6804 748.194 81.956V79.642C748.05 79.7614 747.802 79.8722 747.453 79.9744C747.112 80.0767 746.729 80.1662 746.302 80.2429C745.876 80.3196 745.454 80.3878 745.037 80.4474C744.619 80.5071 744.257 80.5582 743.95 80.6009C743.26 80.6946 742.642 80.848 742.096 81.0611C741.551 81.2741 741.121 81.5724 740.805 81.956C740.49 82.331 740.332 82.8168 740.332 83.4134C740.332 84.2656 740.643 84.9091 741.265 85.3438C741.888 85.7784 742.68 85.9957 743.643 85.9957ZM756.779 89V69.3636H761.266V72.6364H761.471C761.829 71.5028 762.442 70.6293 763.312 70.0156C764.189 69.3935 765.191 69.0824 766.316 69.0824C766.572 69.0824 766.857 69.0952 767.172 69.1207C767.496 69.1378 767.765 69.1676 767.978 69.2102V73.4673C767.782 73.3991 767.471 73.3395 767.045 73.2884C766.627 73.2287 766.222 73.1989 765.83 73.1989C764.986 73.1989 764.228 73.3821 763.555 73.7486C762.89 74.1065 762.366 74.6051 761.982 75.2443C761.599 75.8835 761.407 76.6207 761.407 77.456V89H756.779ZM778.253 89.3835C776.284 89.3835 774.584 88.9744 773.152 88.1562C771.729 87.3295 770.634 86.1619 769.867 84.6534C769.1 83.1364 768.716 81.3509 768.716 79.2969C768.716 77.277 769.1 75.5043 769.867 73.9787C770.642 72.4446 771.725 71.2514 773.114 70.3991C774.503 69.5384 776.135 69.108 778.01 69.108C779.22 69.108 780.362 69.304 781.436 69.696C782.519 70.0795 783.473 70.6761 784.3 71.4858C785.135 72.2955 785.791 73.3267 786.269 74.5795C786.746 75.8239 786.985 77.3068 786.985 79.0284V80.4474H770.889V77.3281H782.548C782.54 76.4418 782.348 75.6534 781.973 74.9631C781.598 74.2642 781.074 73.7145 780.401 73.3139C779.736 72.9134 778.96 72.7131 778.074 72.7131C777.128 72.7131 776.297 72.9432 775.581 73.4034C774.865 73.8551 774.307 74.4517 773.906 75.1932C773.514 75.9261 773.314 76.7315 773.306 77.6094V80.3324C773.306 81.4744 773.514 82.4545 773.932 83.2727C774.35 84.0824 774.933 84.7045 775.683 85.1392C776.433 85.5653 777.311 85.7784 778.317 85.7784C778.99 85.7784 779.6 85.6847 780.145 85.4972C780.69 85.3011 781.163 85.0156 781.564 84.6406C781.965 84.2656 782.267 83.8011 782.472 83.2472L786.793 83.733C786.52 84.875 786 85.8722 785.233 86.7244C784.475 87.5682 783.503 88.2244 782.318 88.6932C781.134 89.1534 779.779 89.3835 778.253 89.3835ZM247.951 143.396C246.707 143.396 245.586 143.175 244.589 142.732C243.6 142.28 242.816 141.615 242.237 140.737C241.666 139.859 241.38 138.777 241.38 137.49C241.38 136.382 241.585 135.466 241.994 134.741C242.403 134.017 242.961 133.438 243.669 133.003C244.376 132.568 245.173 132.24 246.059 132.018C246.954 131.788 247.879 131.622 248.833 131.52C249.984 131.401 250.917 131.294 251.633 131.2C252.349 131.098 252.869 130.945 253.193 130.74C253.525 130.527 253.691 130.199 253.691 129.756V129.679C253.691 128.716 253.406 127.97 252.835 127.442C252.264 126.913 251.441 126.649 250.367 126.649C249.234 126.649 248.335 126.896 247.67 127.391C247.014 127.885 246.571 128.469 246.34 129.142L242.019 128.528C242.36 127.335 242.923 126.338 243.707 125.537C244.491 124.727 245.45 124.122 246.583 123.722C247.717 123.312 248.97 123.108 250.342 123.108C251.288 123.108 252.23 123.219 253.167 123.44C254.105 123.662 254.961 124.028 255.737 124.54C256.512 125.043 257.135 125.729 257.603 126.598C258.081 127.467 258.319 128.554 258.319 129.858V143H253.87V140.303H253.717C253.436 140.848 253.039 141.359 252.528 141.837C252.025 142.305 251.39 142.685 250.623 142.974C249.865 143.256 248.974 143.396 247.951 143.396ZM249.153 139.996C250.082 139.996 250.887 139.812 251.569 139.446C252.251 139.071 252.775 138.577 253.142 137.963C253.517 137.349 253.704 136.68 253.704 135.956V133.642C253.559 133.761 253.312 133.872 252.963 133.974C252.622 134.077 252.238 134.166 251.812 134.243C251.386 134.32 250.964 134.388 250.546 134.447C250.129 134.507 249.767 134.558 249.46 134.601C248.769 134.695 248.152 134.848 247.606 135.061C247.061 135.274 246.63 135.572 246.315 135.956C246 136.331 245.842 136.817 245.842 137.413C245.842 138.266 246.153 138.909 246.775 139.344C247.397 139.778 248.19 139.996 249.153 139.996ZM266.916 131.494V143H262.289V123.364H266.712V126.7H266.942C267.394 125.601 268.114 124.727 269.102 124.08C270.1 123.432 271.331 123.108 272.797 123.108C274.152 123.108 275.333 123.398 276.338 123.977C277.352 124.557 278.137 125.396 278.691 126.496C279.253 127.595 279.53 128.929 279.522 130.497V143H274.894V131.213C274.894 129.901 274.553 128.874 273.871 128.132C273.198 127.391 272.264 127.02 271.071 127.02C270.262 127.02 269.541 127.199 268.911 127.557C268.289 127.906 267.799 128.413 267.441 129.078C267.091 129.743 266.916 130.548 266.916 131.494ZM290.829 143.345C289.286 143.345 287.906 142.949 286.687 142.156C285.468 141.364 284.505 140.213 283.798 138.705C283.09 137.196 282.737 135.364 282.737 133.207C282.737 131.026 283.095 129.185 283.811 127.685C284.535 126.176 285.511 125.038 286.738 124.271C287.965 123.496 289.333 123.108 290.842 123.108C291.992 123.108 292.938 123.304 293.68 123.696C294.421 124.08 295.009 124.544 295.444 125.089C295.879 125.626 296.215 126.134 296.454 126.611H296.646V116.818H301.286V143H296.735V139.906H296.454C296.215 140.384 295.87 140.891 295.418 141.428C294.967 141.956 294.37 142.408 293.629 142.783C292.887 143.158 291.954 143.345 290.829 143.345ZM292.12 139.548C293.1 139.548 293.936 139.284 294.626 138.756C295.316 138.219 295.84 137.473 296.198 136.518C296.556 135.564 296.735 134.452 296.735 133.182C296.735 131.912 296.556 130.808 296.198 129.871C295.849 128.933 295.329 128.205 294.639 127.685C293.957 127.165 293.117 126.905 292.12 126.905C291.089 126.905 290.228 127.173 289.538 127.71C288.847 128.247 288.328 128.989 287.978 129.935C287.629 130.881 287.454 131.963 287.454 133.182C287.454 134.409 287.629 135.504 287.978 136.467C288.336 137.422 288.86 138.176 289.551 138.73C290.249 139.276 291.106 139.548 292.12 139.548ZM322.345 143.384C320.385 143.384 318.701 142.953 317.295 142.092C315.897 141.232 314.819 140.043 314.061 138.526C313.311 137 312.936 135.244 312.936 133.259C312.936 131.264 313.319 129.504 314.086 127.979C314.853 126.445 315.936 125.251 317.334 124.399C318.74 123.538 320.402 123.108 322.319 123.108C323.913 123.108 325.324 123.402 326.551 123.99C327.787 124.57 328.771 125.392 329.504 126.457C330.237 127.514 330.655 128.75 330.757 130.165H326.334C326.155 129.219 325.728 128.43 325.055 127.8C324.39 127.161 323.5 126.841 322.383 126.841C321.437 126.841 320.606 127.097 319.89 127.608C319.174 128.111 318.616 128.835 318.216 129.781C317.824 130.727 317.628 131.861 317.628 133.182C317.628 134.52 317.824 135.67 318.216 136.634C318.608 137.588 319.157 138.325 319.865 138.845C320.581 139.357 321.42 139.612 322.383 139.612C323.065 139.612 323.674 139.484 324.211 139.229C324.757 138.964 325.213 138.585 325.579 138.091C325.946 137.597 326.197 136.996 326.334 136.288H330.757C330.646 137.678 330.237 138.909 329.53 139.983C328.822 141.048 327.859 141.884 326.64 142.489C325.422 143.085 323.99 143.384 322.345 143.384ZM342.438 143.384C340.521 143.384 338.859 142.962 337.452 142.118C336.046 141.274 334.955 140.094 334.18 138.577C333.413 137.06 333.029 135.287 333.029 133.259C333.029 131.23 333.413 129.453 334.18 127.928C334.955 126.402 336.046 125.217 337.452 124.374C338.859 123.53 340.521 123.108 342.438 123.108C344.356 123.108 346.018 123.53 347.424 124.374C348.83 125.217 349.917 126.402 350.684 127.928C351.46 129.453 351.847 131.23 351.847 133.259C351.847 135.287 351.46 137.06 350.684 138.577C349.917 140.094 348.83 141.274 347.424 142.118C346.018 142.962 344.356 143.384 342.438 143.384ZM342.464 139.676C343.504 139.676 344.373 139.391 345.072 138.82C345.771 138.24 346.29 137.464 346.631 136.493C346.981 135.521 347.156 134.439 347.156 133.246C347.156 132.044 346.981 130.957 346.631 129.986C346.29 129.006 345.771 128.226 345.072 127.646C344.373 127.067 343.504 126.777 342.464 126.777C341.398 126.777 340.512 127.067 339.805 127.646C339.106 128.226 338.582 129.006 338.232 129.986C337.891 130.957 337.721 132.044 337.721 133.246C337.721 134.439 337.891 135.521 338.232 136.493C338.582 137.464 339.106 138.24 339.805 138.82C340.512 139.391 341.398 139.676 342.464 139.676ZM359.719 131.494V143H355.091V123.364H359.515V126.7H359.745C360.196 125.601 360.917 124.727 361.905 124.08C362.902 123.432 364.134 123.108 365.6 123.108C366.955 123.108 368.135 123.398 369.141 123.977C370.155 124.557 370.939 125.396 371.493 126.496C372.056 127.595 372.333 128.929 372.324 130.497V143H367.696V131.213C367.696 129.901 367.355 128.874 366.674 128.132C366 127.391 365.067 127.02 363.874 127.02C363.064 127.02 362.344 127.199 361.713 127.557C361.091 127.906 360.601 128.413 360.243 129.078C359.894 129.743 359.719 130.548 359.719 131.494ZM386.15 123.364V126.943H374.862V123.364H386.15ZM377.649 118.659H382.277V137.094C382.277 137.716 382.37 138.193 382.558 138.526C382.754 138.849 383.01 139.071 383.325 139.19C383.64 139.31 383.99 139.369 384.373 139.369C384.663 139.369 384.927 139.348 385.166 139.305C385.413 139.263 385.6 139.224 385.728 139.19L386.508 142.808C386.261 142.893 385.907 142.987 385.447 143.089C384.995 143.192 384.441 143.251 383.785 143.268C382.626 143.303 381.582 143.128 380.653 142.744C379.724 142.352 378.987 141.747 378.441 140.929C377.904 140.111 377.64 139.088 377.649 137.861V118.659ZM389.337 143V123.364H393.824V126.636H394.028C394.386 125.503 395 124.629 395.869 124.016C396.747 123.393 397.748 123.082 398.873 123.082C399.129 123.082 399.415 123.095 399.73 123.121C400.054 123.138 400.322 123.168 400.535 123.21V127.467C400.339 127.399 400.028 127.339 399.602 127.288C399.185 127.229 398.78 127.199 398.388 127.199C397.544 127.199 396.785 127.382 396.112 127.749C395.447 128.107 394.923 128.605 394.54 129.244C394.156 129.884 393.964 130.621 393.964 131.456V143H389.337ZM402.926 143V123.364H407.554V143H402.926ZM405.253 120.577C404.52 120.577 403.889 120.334 403.361 119.848C402.832 119.354 402.568 118.761 402.568 118.071C402.568 117.372 402.832 116.78 403.361 116.294C403.889 115.8 404.52 115.553 405.253 115.553C405.994 115.553 406.625 115.8 407.145 116.294C407.673 116.78 407.937 117.372 407.937 118.071C407.937 118.761 407.673 119.354 407.145 119.848C406.625 120.334 405.994 120.577 405.253 120.577ZM411.833 143V116.818H416.461V126.611H416.653C416.891 126.134 417.228 125.626 417.663 125.089C418.097 124.544 418.685 124.08 419.427 123.696C420.168 123.304 421.114 123.108 422.265 123.108C423.782 123.108 425.15 123.496 426.369 124.271C427.596 125.038 428.568 126.176 429.283 127.685C430.008 129.185 430.37 131.026 430.37 133.207C430.37 135.364 430.016 137.196 429.309 138.705C428.602 140.213 427.639 141.364 426.42 142.156C425.201 142.949 423.82 143.345 422.278 143.345C421.153 143.345 420.22 143.158 419.478 142.783C418.737 142.408 418.14 141.956 417.688 141.428C417.245 140.891 416.9 140.384 416.653 139.906H416.384V143H411.833ZM416.372 133.182C416.372 134.452 416.551 135.564 416.908 136.518C417.275 137.473 417.799 138.219 418.481 138.756C419.171 139.284 420.007 139.548 420.987 139.548C422.009 139.548 422.866 139.276 423.556 138.73C424.247 138.176 424.766 137.422 425.116 136.467C425.474 135.504 425.653 134.409 425.653 133.182C425.653 131.963 425.478 130.881 425.129 129.935C424.779 128.989 424.259 128.247 423.569 127.71C422.879 127.173 422.018 126.905 420.987 126.905C419.998 126.905 419.158 127.165 418.468 127.685C417.778 128.205 417.254 128.933 416.896 129.871C416.546 130.808 416.372 131.912 416.372 133.182ZM446.136 134.741V123.364H450.764V143H446.277V139.51H446.072C445.629 140.609 444.9 141.509 443.886 142.207C442.88 142.906 441.64 143.256 440.166 143.256C438.879 143.256 437.741 142.97 436.753 142.399C435.772 141.82 435.005 140.98 434.451 139.881C433.897 138.773 433.62 137.435 433.62 135.866V123.364H438.248V135.151C438.248 136.395 438.589 137.384 439.271 138.116C439.953 138.849 440.848 139.216 441.956 139.216C442.638 139.216 443.298 139.05 443.937 138.717C444.576 138.385 445.101 137.891 445.51 137.234C445.927 136.57 446.136 135.739 446.136 134.741ZM464.644 123.364V126.943H453.356V123.364H464.644ZM456.143 118.659H460.771V137.094C460.771 137.716 460.864 138.193 461.052 138.526C461.248 138.849 461.504 139.071 461.819 139.19C462.134 139.31 462.484 139.369 462.867 139.369C463.157 139.369 463.421 139.348 463.66 139.305C463.907 139.263 464.094 139.224 464.222 139.19L465.002 142.808C464.755 142.893 464.401 142.987 463.941 143.089C463.489 143.192 462.935 143.251 462.279 143.268C461.12 143.303 460.076 143.128 459.147 142.744C458.218 142.352 457.481 141.747 456.935 140.929C456.398 140.111 456.134 139.088 456.143 137.861V118.659ZM476.313 143.384C474.344 143.384 472.644 142.974 471.212 142.156C469.789 141.33 468.693 140.162 467.926 138.653C467.159 137.136 466.776 135.351 466.776 133.297C466.776 131.277 467.159 129.504 467.926 127.979C468.702 126.445 469.784 125.251 471.174 124.399C472.563 123.538 474.195 123.108 476.07 123.108C477.28 123.108 478.422 123.304 479.496 123.696C480.578 124.08 481.533 124.676 482.36 125.486C483.195 126.295 483.851 127.327 484.328 128.58C484.806 129.824 485.044 131.307 485.044 133.028V134.447H468.949V131.328H480.608C480.6 130.442 480.408 129.653 480.033 128.963C479.658 128.264 479.134 127.714 478.461 127.314C477.796 126.913 477.02 126.713 476.134 126.713C475.188 126.713 474.357 126.943 473.641 127.403C472.925 127.855 472.367 128.452 471.966 129.193C471.574 129.926 471.374 130.732 471.365 131.609V134.332C471.365 135.474 471.574 136.455 471.992 137.273C472.409 138.082 472.993 138.705 473.743 139.139C474.493 139.565 475.371 139.778 476.377 139.778C477.05 139.778 477.659 139.685 478.205 139.497C478.75 139.301 479.223 139.016 479.624 138.641C480.024 138.266 480.327 137.801 480.532 137.247L484.853 137.733C484.58 138.875 484.06 139.872 483.293 140.724C482.534 141.568 481.563 142.224 480.378 142.693C479.193 143.153 477.838 143.384 476.313 143.384ZM506.327 123.364V126.943H495.038V123.364H506.327ZM497.825 118.659H502.453V137.094C502.453 137.716 502.547 138.193 502.734 138.526C502.93 138.849 503.186 139.071 503.501 139.19C503.817 139.31 504.166 139.369 504.55 139.369C504.839 139.369 505.104 139.348 505.342 139.305C505.589 139.263 505.777 139.224 505.905 139.19L506.685 142.808C506.437 142.893 506.084 142.987 505.623 143.089C505.172 143.192 504.618 143.251 503.961 143.268C502.802 143.303 501.758 143.128 500.829 142.744C499.9 142.352 499.163 141.747 498.618 140.929C498.081 140.111 497.817 139.088 497.825 137.861V118.659ZM517.867 143.384C515.95 143.384 514.288 142.962 512.882 142.118C511.475 141.274 510.384 140.094 509.609 138.577C508.842 137.06 508.458 135.287 508.458 133.259C508.458 131.23 508.842 129.453 509.609 127.928C510.384 126.402 511.475 125.217 512.882 124.374C514.288 123.53 515.95 123.108 517.867 123.108C519.785 123.108 521.447 123.53 522.853 124.374C524.259 125.217 525.346 126.402 526.113 127.928C526.889 129.453 527.276 131.23 527.276 133.259C527.276 135.287 526.889 137.06 526.113 138.577C525.346 140.094 524.259 141.274 522.853 142.118C521.447 142.962 519.785 143.384 517.867 143.384ZM517.893 139.676C518.933 139.676 519.802 139.391 520.501 138.82C521.2 138.24 521.72 137.464 522.061 136.493C522.41 135.521 522.585 134.439 522.585 133.246C522.585 132.044 522.41 130.957 522.061 129.986C521.72 129.006 521.2 128.226 520.501 127.646C519.802 127.067 518.933 126.777 517.893 126.777C516.828 126.777 515.941 127.067 515.234 127.646C514.535 128.226 514.011 129.006 513.661 129.986C513.32 130.957 513.15 132.044 513.15 133.246C513.15 134.439 513.32 135.521 513.661 136.493C514.011 137.464 514.535 138.24 515.234 138.82C515.941 139.391 516.828 139.676 517.893 139.676ZM544.417 143.396C543.172 143.396 542.052 143.175 541.054 142.732C540.066 142.28 539.282 141.615 538.702 140.737C538.131 139.859 537.846 138.777 537.846 137.49C537.846 136.382 538.05 135.466 538.459 134.741C538.868 134.017 539.427 133.438 540.134 133.003C540.841 132.568 541.638 132.24 542.525 132.018C543.419 131.788 544.344 131.622 545.299 131.52C546.449 131.401 547.383 131.294 548.098 131.2C548.814 131.098 549.334 130.945 549.658 130.74C549.99 130.527 550.157 130.199 550.157 129.756V129.679C550.157 128.716 549.871 127.97 549.3 127.442C548.729 126.913 547.907 126.649 546.833 126.649C545.699 126.649 544.8 126.896 544.135 127.391C543.479 127.885 543.036 128.469 542.806 129.142L538.485 128.528C538.826 127.335 539.388 126.338 540.172 125.537C540.956 124.727 541.915 124.122 543.049 123.722C544.182 123.312 545.435 123.108 546.807 123.108C547.753 123.108 548.695 123.219 549.633 123.44C550.57 123.662 551.427 124.028 552.202 124.54C552.978 125.043 553.6 125.729 554.069 126.598C554.546 127.467 554.784 128.554 554.784 129.858V143H550.336V140.303H550.182C549.901 140.848 549.505 141.359 548.993 141.837C548.49 142.305 547.856 142.685 547.088 142.974C546.33 143.256 545.439 143.396 544.417 143.396ZM545.618 139.996C546.547 139.996 547.353 139.812 548.034 139.446C548.716 139.071 549.24 138.577 549.607 137.963C549.982 137.349 550.169 136.68 550.169 135.956V133.642C550.025 133.761 549.777 133.872 549.428 133.974C549.087 134.077 548.704 134.166 548.277 134.243C547.851 134.32 547.429 134.388 547.012 134.447C546.594 134.507 546.232 134.558 545.925 134.601C545.235 134.695 544.617 134.848 544.071 135.061C543.526 135.274 543.096 135.572 542.78 135.956C542.465 136.331 542.307 136.817 542.307 137.413C542.307 138.266 542.618 138.909 543.24 139.344C543.863 139.778 544.655 139.996 545.618 139.996ZM567.319 143.384C565.359 143.384 563.676 142.953 562.27 142.092C560.872 141.232 559.794 140.043 559.035 138.526C558.285 137 557.91 135.244 557.91 133.259C557.91 131.264 558.294 129.504 559.061 127.979C559.828 126.445 560.91 125.251 562.308 124.399C563.714 123.538 565.376 123.108 567.294 123.108C568.887 123.108 570.298 123.402 571.525 123.99C572.761 124.57 573.745 125.392 574.478 126.457C575.211 127.514 575.629 128.75 575.731 130.165H571.308C571.129 129.219 570.703 128.43 570.029 127.8C569.365 127.161 568.474 126.841 567.358 126.841C566.412 126.841 565.581 127.097 564.865 127.608C564.149 128.111 563.591 128.835 563.19 129.781C562.798 130.727 562.602 131.861 562.602 133.182C562.602 134.52 562.798 135.67 563.19 136.634C563.582 137.588 564.132 138.325 564.839 138.845C565.555 139.357 566.395 139.612 567.358 139.612C568.039 139.612 568.649 139.484 569.186 139.229C569.731 138.964 570.187 138.585 570.554 138.091C570.92 137.597 571.172 136.996 571.308 136.288H575.731C575.62 137.678 575.211 138.909 574.504 139.983C573.797 141.048 572.833 141.884 571.615 142.489C570.396 143.085 568.964 143.384 567.319 143.384ZM588.653 123.364V126.943H577.364V123.364H588.653ZM580.151 118.659H584.779V137.094C584.779 137.716 584.873 138.193 585.06 138.526C585.256 138.849 585.512 139.071 585.827 139.19C586.143 139.31 586.492 139.369 586.876 139.369C587.165 139.369 587.43 139.348 587.668 139.305C587.915 139.263 588.103 139.224 588.231 139.19L589.011 142.808C588.763 142.893 588.41 142.987 587.95 143.089C587.498 143.192 586.944 143.251 586.288 143.268C585.129 143.303 584.084 143.128 583.156 142.744C582.227 142.352 581.489 141.747 580.944 140.929C580.407 140.111 580.143 139.088 580.151 137.861V118.659ZM591.839 143V123.364H596.467V143H591.839ZM594.166 120.577C593.433 120.577 592.802 120.334 592.274 119.848C591.745 119.354 591.481 118.761 591.481 118.071C591.481 117.372 591.745 116.78 592.274 116.294C592.802 115.8 593.433 115.553 594.166 115.553C594.907 115.553 595.538 115.8 596.058 116.294C596.586 116.78 596.85 117.372 596.85 118.071C596.85 118.761 596.586 119.354 596.058 119.848C595.538 120.334 594.907 120.577 594.166 120.577ZM609.107 143.384C607.189 143.384 605.528 142.962 604.121 142.118C602.715 141.274 601.624 140.094 600.849 138.577C600.082 137.06 599.698 135.287 599.698 133.259C599.698 131.23 600.082 129.453 600.849 127.928C601.624 126.402 602.715 125.217 604.121 124.374C605.528 123.53 607.189 123.108 609.107 123.108C611.025 123.108 612.687 123.53 614.093 124.374C615.499 125.217 616.586 126.402 617.353 127.928C618.128 129.453 618.516 131.23 618.516 133.259C618.516 135.287 618.128 137.06 617.353 138.577C616.586 140.094 615.499 141.274 614.093 142.118C612.687 142.962 611.025 143.384 609.107 143.384ZM609.133 139.676C610.172 139.676 611.042 139.391 611.741 138.82C612.439 138.24 612.959 137.464 613.3 136.493C613.65 135.521 613.824 134.439 613.824 133.246C613.824 132.044 613.65 130.957 613.3 129.986C612.959 129.006 612.439 128.226 611.741 127.646C611.042 127.067 610.172 126.777 609.133 126.777C608.067 126.777 607.181 127.067 606.474 127.646C605.775 128.226 605.251 129.006 604.901 129.986C604.56 130.957 604.39 132.044 604.39 133.246C604.39 134.439 604.56 135.521 604.901 136.493C605.251 137.464 605.775 138.24 606.474 138.82C607.181 139.391 608.067 139.676 609.133 139.676ZM626.388 131.494V143H621.76V123.364H626.183V126.7H626.414C626.865 125.601 627.585 124.727 628.574 124.08C629.571 123.432 630.803 123.108 632.269 123.108C633.624 123.108 634.804 123.398 635.81 123.977C636.824 124.557 637.608 125.396 638.162 126.496C638.725 127.595 639.002 128.929 638.993 130.497V143H634.365V131.213C634.365 129.901 634.024 128.874 633.342 128.132C632.669 127.391 631.736 127.02 630.543 127.02C629.733 127.02 629.013 127.199 628.382 127.557C627.76 127.906 627.27 128.413 626.912 129.078C626.563 129.743 626.388 130.548 626.388 131.494ZM645.864 143.281C645.089 143.281 644.424 143.009 643.87 142.463C643.316 141.918 643.043 141.253 643.052 140.469C643.043 139.702 643.316 139.045 643.87 138.5C644.424 137.955 645.089 137.682 645.864 137.682C646.614 137.682 647.266 137.955 647.82 138.5C648.383 139.045 648.668 139.702 648.677 140.469C648.668 140.989 648.532 141.462 648.268 141.888C648.012 142.314 647.671 142.655 647.245 142.911C646.828 143.158 646.367 143.281 645.864 143.281Z" fill="white"/>
</g>
</svg>
