<svg width="454" height="509" viewBox="0 0 454 509" fill="none" xmlns="http://www.w3.org/2000/svg">
<g id="GrownUpTree">
<path id="Vector" d="M228.993 293.682C228.993 293.682 214.559 316.691 208.417 316.15C202.275 315.608 209.662 297.177 209.662 297.177C209.662 297.177 191.307 316.717 184.547 314.582C177.788 312.448 185.403 301.546 185.403 301.546C185.403 301.546 150.96 330.894 159.728 306.191C159.728 306.191 107.06 339.045 112.267 314.754C112.267 314.754 71.9477 342.318 86.6758 317.407C86.6758 317.407 31.7128 315.243 69.1038 300.441C69.1038 300.441 14.1641 290.902 49.9279 281.925C49.9279 281.925 -2.97844 273.949 34.5674 267.086C34.5674 267.086 -7.58844 237.673 32.9764 245.914C32.9764 245.914 3.72692 216.994 38.206 222.67C38.206 222.67 8.25168 190.676 49.5603 204.207C49.5603 204.207 28.3691 189.938 31.0242 180.862C33.6793 171.785 52.5523 182.275 52.5523 182.275C52.5523 182.275 40.923 163.502 46.5174 157.169C52.1118 150.837 64.0986 169.08 64.0986 169.08C64.0986 169.08 61.2396 144.751 68.0642 142.618C74.8889 140.484 81.4195 159.445 81.4195 159.445C81.4195 159.445 78.4872 141.381 85.68 137.152C92.8727 132.922 99.5844 149.359 99.5844 149.359C99.5844 149.359 91.1825 96.1763 110.774 119.36C110.774 119.36 99.0714 73.1525 124.048 94.8306C124.048 94.8306 118.975 72.8612 123.48 66.9795C127.984 61.0979 141.085 73.8366 141.085 73.8366C141.085 73.8366 137.806 46.3146 143.107 43.0515C148.407 39.7883 159.089 52.1684 159.089 52.1684C159.089 52.1684 152.911 33.922 157.972 27.5083C163.034 21.0947 173.825 34.158 173.825 34.158C173.825 34.158 168.915 17.424 173.419 11.5423C177.924 5.66066 190.275 21.3927 190.275 21.3927C190.275 21.3927 213.014 8.57934 219.527 13.0638C226.04 17.5483 218.546 28.0126 218.546 28.0126C218.546 28.0126 244.991 19.8375 250.38 27.3983C255.769 34.9591 241.518 40.2008 241.518 40.2008C241.518 40.2008 268.643 34.7748 273.87 41.2955C279.096 47.8161 267.267 53.1553 267.267 53.1553C267.267 53.1553 294.409 49.805 297.554 56.6806C300.698 63.5562 286.577 67.2852 286.577 67.2852C286.577 67.2852 312.359 66.3964 315.57 72.2621C318.781 78.1279 301.859 85.1919 301.859 85.1919C301.859 85.1919 325.254 81.5802 330.563 87.0766C335.873 92.5731 317.975 99.988 317.975 99.988C317.975 99.988 353.561 96.3007 350.278 107.918C350.278 107.918 366.294 91.4818 371.266 93.9288C376.237 96.3759 370.261 109.23 370.261 109.23C370.261 109.23 396.361 103.736 399.638 108.592C402.915 113.448 388.023 121.66 388.023 121.66C388.023 121.66 439.477 130.693 398.022 141.863C398.022 141.863 443.141 154.23 407.057 165.506C407.057 165.506 449.685 175.327 416.122 185.663C416.122 185.663 439.802 194.087 438.691 203.28C437.58 212.473 421.887 208.323 421.887 208.323C421.887 208.323 439.8 233.671 436.305 239.619C432.81 245.567 415.566 234.139 415.566 234.139C415.566 234.139 430.488 257.769 424.09 268.152C417.692 278.535 405.384 255.353 405.384 255.353C405.384 255.353 417.573 288.3 409.393 291.882C401.214 295.463 392.577 277.915 392.577 277.915C392.577 277.915 397.149 301.896 392.324 305.175C387.499 308.454 376.701 293.392 376.701 293.392C376.701 293.392 373.807 320.862 365.201 318.761C356.595 316.659 358.975 299.143 358.975 299.143C358.975 299.143 346.723 325.892 336.515 324.56C326.306 323.229 333.472 307.012 333.472 307.012C333.472 307.012 303.106 341.437 306.663 310.661C306.663 310.661 272.223 342.298 284.335 305.752C284.335 305.752 253.298 340.794 261.764 300.797C261.764 300.797 236.228 333.511 245.101 297.137C245.07 297.135 221.591 342.523 228.993 293.682Z" fill="#219842"/>
<path id="Vector_2" d="M127.953 139.021C126.538 135.729 124.331 132.838 121.528 130.606C118.726 128.373 115.415 126.869 111.89 126.226C99.9416 124.243 99.0156 120.325 99.0156 120.325C99.0156 120.325 103.02 148.739 127.953 139.021Z" fill="#219842"/>
<path id="Vector_3" opacity="0.2" d="M127.953 139.021C126.538 135.729 124.331 132.838 121.528 130.606C118.726 128.373 115.415 126.869 111.89 126.226C99.9416 124.243 99.0156 120.325 99.0156 120.325C99.0156 120.325 103.02 148.739 127.953 139.021Z" fill="black"/>
<path id="Vector_4" opacity="0.2" d="M127.955 139.021C124.426 135.815 120.311 133.322 115.836 131.679C108.339 128.835 104.464 129.58 99.6189 121.225C99.3835 120.966 99.2047 120.661 99.0938 120.33C99.0938 120.33 103.022 148.74 127.955 139.021Z" fill="black"/>
<path id="Vector_5" d="M132.208 139.976C132.971 135.063 135.015 130.438 138.134 126.566C141.253 122.695 145.337 119.714 149.975 117.923C166.369 111.178 167.074 106.999 167.074 106.999C167.074 106.999 165.478 143.943 132.208 139.976Z" fill="#219842"/>
<path id="Vector_6" opacity="0.2" d="M132.208 139.976C132.971 135.063 135.015 130.438 138.134 126.566C141.253 122.695 145.337 119.714 149.975 117.923C166.369 111.178 167.074 106.999 167.074 106.999C167.074 106.999 165.478 143.943 132.208 139.976Z" fill="black"/>
<path id="Vector_7" opacity="0.2" d="M148.488 127.691C156.913 123.328 163.479 116.071 166.98 107.253C166.545 108.254 164.031 112.146 149.975 117.923C145.337 119.714 141.252 122.695 138.133 126.566C135.014 130.438 132.97 135.063 132.208 139.976C136.785 134.862 142.315 130.69 148.488 127.691Z" fill="black"/>
<path id="Vector_8" opacity="0.2" d="M421.829 208.504C421.829 208.504 437.511 212.607 438.634 203.461C439.757 194.314 416.064 185.844 416.064 185.844C449.628 175.508 407 165.687 407 165.687C443.079 154.487 397.965 142.043 397.965 142.043C424.558 134.892 412.923 128.596 401.173 125.013C398.984 130.032 389.404 125.208 389.404 125.208C394.557 131.693 383.887 150.493 383.887 150.493C383.887 150.493 401.277 140.033 403.779 149.217C406.28 158.402 386.717 172.684 386.717 172.684C424.857 159.345 397.305 191.404 397.305 191.404C429.152 185.919 402.217 214.884 402.217 214.884C439.701 206.865 400.811 236.305 400.811 236.305C435.559 243.504 386.665 251.174 386.665 251.174C419.769 260.477 369.021 269.715 369.021 269.715C403.632 284.85 352.803 286.66 352.803 286.66C366.513 311.886 329.143 283.785 329.143 283.785C334.047 308.325 285.172 274.751 285.172 274.751C293.381 299.754 261.427 269.888 261.427 269.888C261.427 269.888 268.508 280.941 262.269 283.051C256.03 285.162 238.986 265.296 238.986 265.296C238.986 265.296 245.875 283.942 240.202 284.461C234.528 284.98 221.09 261.692 221.09 261.692C228.157 311.1 206.25 265.144 206.25 265.144C214.593 301.896 190.862 268.743 190.862 268.743C198.853 309.222 170.033 273.522 170.033 273.522C181.436 310.491 149.404 278.315 149.404 278.315C152.772 309.392 124.569 274.364 124.569 274.364C124.569 274.364 131.175 290.779 121.872 292.043C112.569 293.307 101.022 266.256 101.022 266.256C101.022 266.256 103.313 284.263 95.3558 286.322C87.399 288.381 84.6274 260.616 84.6274 260.616C84.6274 260.616 74.7089 275.7 70.2105 272.362C65.7121 269.024 69.9136 244.821 69.9136 244.821C69.9136 244.821 62.0091 262.465 54.4279 258.802C46.8468 255.138 57.9844 221.955 57.9844 221.955C57.9844 221.955 48.2252 245.379 42.3242 234.849C36.4233 224.32 50.7529 208.987 50.7529 208.987C50.7529 208.987 31.7625 215.731 28.3438 202.737C24.7313 208.139 38.2156 222.532 38.2156 222.532C3.73655 216.857 32.986 245.777 32.986 245.777C-7.57881 237.535 34.577 266.949 34.577 266.949C-2.96881 273.811 49.9375 281.788 49.9375 281.788C14.1697 290.826 69.1553 300.368 69.1553 300.368C31.7643 315.169 86.7273 317.334 86.7273 317.334C71.9992 342.244 112.318 314.681 112.318 314.681C107.115 338.926 159.779 306.118 159.779 306.118C151.012 330.821 185.455 301.473 185.455 301.473C185.455 301.473 177.839 312.375 184.599 314.509C191.358 316.643 209.714 297.103 209.714 297.103C209.714 297.103 202.358 315.522 208.468 316.076C214.578 316.631 228.993 293.682 228.993 293.682C221.556 342.598 245.066 297.212 245.066 297.212C236.177 333.585 261.729 300.872 261.729 300.872C253.263 340.869 284.3 305.827 284.3 305.827C272.188 342.373 306.628 310.735 306.628 310.735C303.071 341.512 333.488 307.013 333.488 307.013C333.488 307.013 326.276 323.228 336.53 324.562C346.785 325.896 358.975 299.144 358.975 299.144C358.975 299.144 356.559 316.979 365.179 319.097C373.799 321.215 376.68 293.729 376.68 293.729C376.68 293.729 387.465 308.744 392.302 305.512C397.14 302.28 392.556 278.252 392.556 278.252C392.556 278.252 401.177 295.799 409.372 292.218C417.567 288.638 405.362 255.69 405.362 255.69C405.362 255.69 417.67 278.872 424.068 268.489C430.466 258.106 415.545 234.476 415.545 234.476C415.545 234.476 432.804 245.905 436.284 239.956C439.763 234.007 421.829 208.504 421.829 208.504Z" fill="black"/>
<path id="Vector_9" opacity="0.1" d="M205.384 186.102C205.467 185.775 205.447 185.429 205.326 185.114C201.558 184.452 194.858 180.708 194.858 180.708C194.858 180.708 193.623 204.676 186.202 186.394C186.202 186.394 183.097 207.704 175.962 191.869C175.962 191.869 173.866 211.861 167.272 197.137C167.272 197.137 164.765 208.406 160.509 208.403C156.252 208.4 157.259 201.028 157.259 201.028C157.259 201.028 146.687 210.615 143.788 209.364C140.889 208.113 145.121 199.586 145.121 199.586C145.121 199.586 135.183 207.723 130.095 205.407C125.007 203.091 134.881 196.163 134.881 196.163C134.881 196.163 120.565 203.567 118.446 200.032C116.327 196.497 123.938 191.511 123.938 191.511C123.938 191.511 115.586 192.576 113.813 190.554C112.04 188.532 115.982 185.134 115.982 185.134C115.982 185.134 108.332 184.631 109.846 180.766C111.36 176.901 118.617 179.175 118.617 179.175C118.617 179.175 100.997 173.7 99.7342 169.069C91.9221 171.03 106.203 180.773 106.203 180.773C106.203 180.773 98.4135 178.417 98.3642 183.147C98.3149 187.877 111.2 191.965 111.2 191.965C111.2 191.965 102.94 191.853 102.459 195.909C101.978 199.965 114.682 199.785 114.682 199.785C114.682 199.785 108.436 205.521 110.191 207.573C111.946 209.624 122.577 206.158 122.577 206.158C122.577 206.158 115.063 211.074 117.151 214.607C119.24 218.14 133.586 210.738 133.586 210.738C133.586 210.738 123.712 217.665 128.8 219.982C133.888 222.298 143.826 214.161 143.826 214.161C143.826 214.161 139.58 222.672 142.493 223.939C145.406 225.206 155.964 215.603 155.964 215.603C155.964 215.603 154.956 222.99 159.214 222.978C163.471 222.965 165.977 211.712 165.977 211.712C172.571 226.436 174.667 206.443 174.667 206.443C181.802 222.279 184.907 200.969 184.907 200.969C192.328 219.251 193.563 195.283 193.563 195.283C193.563 195.283 198.173 201.61 200.195 199.837C202.217 198.064 198.26 186.479 198.26 186.479C198.26 186.479 204.582 188.477 205.384 186.102Z" fill="black"/>
<path id="Vector_10" opacity="0.1" d="M238.477 181.744C238.228 181.403 238.098 180.989 238.109 180.567C242.208 178.04 248.263 170.554 248.263 170.554C248.263 170.554 260.839 198.072 261.058 173.207C261.058 173.207 274.56 196.698 275.58 174.837C275.58 174.837 287.306 197.289 288.194 176.971C288.194 176.971 296.377 189.018 301.362 187.056C306.347 185.094 301.753 176.894 301.753 176.894C301.753 176.894 318.579 183.223 321.407 180.397C324.236 177.571 315.295 169.577 315.295 169.577C315.295 169.577 330.708 174.492 335.608 169.374C340.508 164.256 325.709 160.749 325.709 160.749C325.709 160.749 345.953 162.769 346.765 157.659C347.577 152.55 336.492 150.285 336.492 150.285C336.492 150.285 346.792 147.657 347.924 144.459C349.056 141.26 342.88 139.118 342.88 139.118C342.88 139.118 351.582 135.079 348.013 131.157C344.444 127.235 336.989 133.353 336.989 133.353C336.989 133.353 355.112 118.761 354.446 112.755C364.444 111.445 352.285 129.517 352.285 129.517C352.285 129.517 360.387 123.149 362.561 128.655C364.735 134.16 351.592 144.991 351.592 144.991C351.592 144.991 361.242 141.015 363.679 145.555C366.117 150.094 351.118 155.717 351.118 155.717C351.118 155.717 361.13 159.571 359.984 162.753C358.838 165.936 344.746 166.87 344.746 166.87C344.746 166.87 355.846 169.135 355.018 174.26C354.19 179.384 333.962 177.349 333.962 177.349C333.962 177.349 348.759 180.887 343.862 185.959C338.965 191.031 323.549 186.162 323.549 186.162C323.549 186.162 332.475 194.154 329.661 196.982C326.848 199.809 310.007 193.478 310.007 193.478C310.007 193.478 314.602 201.663 309.617 203.626C304.633 205.588 296.449 193.541 296.449 193.541C295.561 213.859 283.835 191.406 283.835 191.406C282.816 213.252 269.313 189.777 269.313 189.777C269.094 214.641 256.518 187.123 256.518 187.123C256.518 187.123 254.047 196.673 250.863 195.542C247.68 194.411 246.925 178.995 246.925 178.995C246.925 178.995 240.545 184.185 238.477 181.744Z" fill="black"/>
<path id="Vector_11" d="M374.713 228.184C372.912 222.38 382.45 207.931 385.877 203.024C386.195 202.564 386.326 202.002 386.246 201.449C386.165 200.896 385.878 200.394 385.442 200.045C385.201 199.847 384.92 199.703 384.619 199.622C384.317 199.541 384.002 199.524 383.694 199.574C383.386 199.623 383.092 199.737 382.831 199.909C382.57 200.08 382.348 200.305 382.181 200.568L371.095 220.801C369.385 223.946 366.668 226.424 363.379 227.839L297.564 256.387C296.825 256.711 296.017 256.846 295.213 256.778C294.409 256.711 293.634 256.444 292.96 256.001C292.285 255.558 291.732 254.954 291.35 254.243C290.968 253.532 290.769 252.737 290.773 251.931L290.983 193.259C290.988 192.585 290.735 191.935 290.276 191.442C289.817 190.949 289.186 190.65 288.514 190.607C288.155 190.581 287.795 190.629 287.456 190.747C287.116 190.865 286.804 191.051 286.539 191.294C286.274 191.538 286.062 191.832 285.915 192.16C285.768 192.489 285.69 192.843 285.685 193.203C285.58 205.105 288.289 247.157 282.529 263.037C276.663 279.125 239.627 323.623 239.627 323.623C239.627 323.623 203.543 290.198 196.122 275.435C191.502 266.234 188.748 243.587 191.99 234.227C196.579 220.975 226.378 192.367 226.378 192.367C226.741 191.963 226.933 191.434 226.914 190.891C226.896 190.348 226.667 189.834 226.278 189.456C225.88 189.075 225.348 188.867 224.797 188.877C224.247 188.887 223.723 189.114 223.339 189.509L195.513 218.016C194.844 218.702 193.991 219.18 193.056 219.392C192.122 219.603 191.146 219.539 190.247 219.206C189.348 218.874 188.565 218.288 187.992 217.52C187.42 216.751 187.083 215.833 187.021 214.877L184.231 172.42C184.072 170.177 184.708 167.95 186.027 166.13L216.576 123.772C217.718 122.138 219.442 121.003 221.394 120.6L252.442 114.171C252.719 114.11 252.97 113.961 253.155 113.746C253.341 113.531 253.453 113.262 253.473 112.979C253.487 112.782 253.456 112.584 253.382 112.4C253.308 112.217 253.193 112.053 253.047 111.92C252.9 111.788 252.725 111.69 252.535 111.635C252.345 111.581 252.145 111.57 251.95 111.604L223.302 116.591C221.971 116.832 220.598 116.617 219.404 115.981C218.211 115.345 217.266 114.325 216.724 113.086L200.895 76.1348C200.823 75.9667 200.717 75.8155 200.583 75.6911C200.449 75.5667 200.291 75.4718 200.118 75.4127C199.945 75.3535 199.762 75.3314 199.579 75.3477C199.397 75.364 199.221 75.4184 199.061 75.5073L198.711 75.6994C198.437 75.8523 198.227 76.0988 198.12 76.3939C198.013 76.6889 198.016 77.0126 198.129 77.3055L212.413 115.323C212.883 116.541 213.034 117.858 212.852 119.15C212.671 120.443 212.162 121.667 211.375 122.708L181.622 162.767C180.882 163.767 179.792 164.452 178.569 164.685C177.346 164.918 176.081 164.682 175.024 164.024L130.546 136.286C130.203 136.072 129.8 135.973 129.397 136.004C128.994 136.036 128.611 136.197 128.306 136.462C128.09 136.652 127.92 136.89 127.809 137.156C127.699 137.422 127.651 137.71 127.669 137.998C127.688 138.285 127.771 138.565 127.915 138.815C128.058 139.065 128.256 139.279 128.495 139.44L173.843 169.847C175.099 170.691 176.139 171.818 176.88 173.137C177.621 174.456 178.041 175.931 178.108 177.442L183.23 263.263C183.257 263.767 183.151 264.27 182.923 264.719C182.694 265.169 182.351 265.551 181.927 265.825C181.504 266.1 181.015 266.258 180.511 266.284C180.007 266.309 179.506 266.201 179.057 265.971L122.75 236.765C120.99 235.862 119.452 234.581 118.248 233.012L98.2281 206.987C97.9108 206.576 97.4501 206.298 96.9377 206.211C96.4253 206.123 95.8987 206.231 95.4624 206.514C95.0015 206.804 94.6745 207.265 94.5532 207.796C94.4319 208.326 94.5262 208.884 94.8155 209.345L109.606 233.105L57.5329 235.602C57.041 235.626 56.5751 235.83 56.2238 236.176C55.8725 236.521 55.6602 236.983 55.6274 237.475C55.6061 237.752 55.643 238.03 55.7356 238.292C55.8282 238.554 55.9746 238.794 56.1654 238.996C56.3562 239.198 56.587 239.358 56.8433 239.466C57.0995 239.573 57.3754 239.626 57.6533 239.621C67.0951 239.518 104.788 239.304 118.012 242.692C136.856 247.541 170.881 268.553 185.712 281.16C199.29 292.716 230.377 336.723 230.377 336.723L229.646 366.809C229.646 366.809 225.478 360.082 223.656 358.103C219.367 353.211 208.549 345.494 203.937 340.842C198.719 335.582 185.595 317.586 185.595 317.586C185.454 317.425 185.281 317.295 185.087 317.205C184.893 317.115 184.682 317.066 184.468 317.062C184.254 317.058 184.042 317.099 183.844 317.182C183.647 317.265 183.47 317.389 183.323 317.545C183.145 317.782 183.04 318.066 183.021 318.362C183.002 318.658 183.068 318.954 183.213 319.213L193.617 337.46L154.491 327.207C154.198 327.143 153.892 327.165 153.612 327.273C153.332 327.38 153.089 327.567 152.914 327.811C152.788 328.006 152.709 328.227 152.681 328.458C152.653 328.689 152.678 328.923 152.754 329.142C152.83 329.362 152.954 329.561 153.119 329.726C153.283 329.89 153.482 330.015 153.702 330.091C153.702 330.091 186.079 338.056 195.871 343.155C202.824 346.793 214.642 357.772 219.075 364.21C222.924 369.718 229.117 389.149 229.117 389.149C229.117 389.149 237.352 460.545 229.495 478.177C226.917 483.97 210.489 494.985 210.489 494.985L218.369 495.503C218.369 495.503 227.867 486.353 231.851 484.648C233.717 483.848 238.647 482.021 239.893 483.639C242.031 486.407 234.615 496.616 234.615 496.616L242.174 497.112C242.174 497.112 247.872 485.454 251.412 483.258C252.979 482.55 254.721 482.317 256.419 482.588C258.792 483.19 262.669 487.102 263.408 489.424C264.147 491.747 261.758 498.398 261.758 498.398L268.185 498.82C268.185 498.82 270.423 492.59 270.273 490.413C269.772 488.163 269.024 485.975 268.043 483.889L300.424 500.937L307.799 501.421C307.799 501.421 277.177 485.442 270.724 476.29C259.832 460.807 256.589 421.256 253.187 402.623C250.167 386.136 246.675 352.023 250.135 335.608C253.902 317.784 274.919 285.787 288.49 273.586C301.551 261.904 344.793 241.77 361.216 234.336C363.183 233.445 365.335 233.041 367.491 233.155C369.647 233.27 371.744 233.901 373.605 234.995L401.721 251.455C402.352 251.732 403.064 251.769 403.721 251.557C404.377 251.345 404.934 250.9 405.284 250.306C405.488 249.955 405.613 249.563 405.65 249.158C405.688 248.754 405.637 248.346 405.502 247.963C405.366 247.58 405.149 247.231 404.865 246.94C404.581 246.65 404.238 246.424 403.859 246.279C396.184 243.331 376.932 235.337 374.713 228.184Z" fill="#263238"/>
<path id="Vector_12" opacity="0.2" d="M307.79 501.328C307.79 501.328 277.169 485.349 270.716 476.197C259.824 460.715 256.581 421.163 253.179 402.53C250.159 386.043 246.667 351.93 250.126 335.515C252.135 325.982 259.098 312.378 267.199 299.941C260.595 306.898 251.537 316.845 248.917 320.93C246.298 325.014 241.53 333.276 240.626 337.919C239.302 344.732 242.09 358.683 242.789 365.583C243.645 373.845 246.408 390.269 247.001 398.56C247.229 401.648 247.318 407.078 247.353 412.628C247.342 412.951 247.212 413.259 246.989 413.492C246.766 413.726 246.464 413.87 246.142 413.896C245.82 413.922 245.499 413.829 245.241 413.635C244.983 413.44 244.805 413.158 244.742 412.841C243.874 406.534 242.595 400.29 240.914 394.149C238.7 388.752 236.134 383.507 233.232 378.447C233.148 378.238 232.984 378.071 232.776 377.982C232.569 377.893 232.335 377.891 232.126 377.975C231.916 378.059 231.749 378.223 231.66 378.43C231.572 378.638 231.569 378.872 231.653 379.081C233.366 385.064 235.615 393.171 236.298 397.042C238.027 406.745 240.851 426.938 243.078 436.55C245.395 446.66 258.147 471.039 253.578 473.92C250.821 475.659 247.772 468.729 245.646 462.734C245.572 462.566 245.443 462.427 245.28 462.342C245.117 462.256 244.93 462.228 244.749 462.263C244.568 462.297 244.405 462.392 244.285 462.532C244.165 462.672 244.096 462.848 244.09 463.032C244.204 466.912 243.832 470.698 241.861 470.768C237.662 470.815 234.761 461.881 232.891 451.97C232.737 463.208 231.82 472.967 229.515 478.118C226.937 483.911 210.509 494.926 210.509 494.926L218.389 495.443C218.389 495.443 227.887 486.293 231.871 484.588C233.737 483.788 238.667 481.961 239.913 483.579C242.052 486.347 234.635 496.556 234.635 496.556L242.179 497.051C242.179 497.051 247.877 485.393 251.417 483.197C252.985 482.489 254.726 482.256 256.424 482.527C258.797 483.129 262.674 487.041 263.413 489.363C264.152 491.686 261.764 498.337 261.764 498.337L268.19 498.759C268.19 498.759 270.428 492.529 270.279 490.352C269.777 488.102 269.03 485.914 268.048 483.829L300.429 500.876L307.79 501.328ZM249.223 436.569C261.408 451.322 260.922 470.437 260.922 470.437L249.223 436.569Z" fill="black"/>
<path id="Vector_13" d="M134.346 143.02C133.457 147.907 131.295 152.472 128.079 156.257C124.863 160.041 120.706 162.911 116.027 164.576C99.4482 170.863 98.6222 175.02 98.6222 175.02C98.6222 175.02 101.322 138.117 134.346 143.02Z" fill="#219842"/>
<path id="Vector_14" opacity="0.2" d="M134.346 143.02C133.457 147.907 131.295 152.472 128.079 156.257C124.863 160.041 120.706 162.911 116.027 164.576C99.4482 170.863 98.6222 175.02 98.6222 175.02C98.6222 175.02 101.322 138.117 134.346 143.02Z" fill="black"/>
<path id="Vector_15" opacity="0.2" d="M117.743 154.808C109.201 158.942 102.435 166.015 98.6858 174.732C99.1346 173.748 101.766 169.94 115.982 164.543C120.661 162.877 124.818 160.008 128.034 156.224C131.25 152.439 133.412 147.874 134.3 142.987C129.602 147.967 123.978 151.982 117.743 154.808Z" fill="black"/>
<path id="Vector_16" d="M147.314 149.573C147.314 149.573 151.462 143.038 161.924 146.583C172.387 150.128 183.732 142.099 183.732 142.099C183.732 142.099 167.481 172.656 147.314 149.573Z" fill="#219842"/>
<path id="Vector_17" opacity="0.2" d="M147.314 149.573C147.314 149.573 151.462 143.038 161.924 146.583C172.387 150.128 183.732 142.099 183.732 142.099C183.732 142.099 167.481 172.656 147.314 149.573Z" fill="black"/>
<path id="Vector_18" opacity="0.2" d="M183.764 142.101C183.764 142.101 171.206 155.721 162.595 150.438C153.983 145.155 147.285 149.571 147.285 149.571C167.482 172.656 183.764 142.101 183.764 142.101Z" fill="black"/>
<path id="Vector_19" d="M131.649 138.679C131.649 138.679 136.826 127.709 127.335 112.411C117.844 97.1127 120.244 93.7974 120.244 93.7974C120.244 93.7974 100.32 114.525 131.649 138.679Z" fill="#219842"/>
<path id="Vector_20" opacity="0.2" d="M131.649 138.679C131.649 138.679 136.826 127.709 127.335 112.411C117.844 97.1127 120.244 93.7974 120.244 93.7974C120.244 93.7974 100.32 114.525 131.649 138.679Z" fill="black"/>
<path id="Vector_21" opacity="0.2" d="M131.649 138.679C130.95 132.265 129.201 126.008 126.473 120.161C121.889 109.702 117.618 105.473 119.986 94.9176C119.984 94.5292 120.072 94.1457 120.244 93.7974C120.244 93.7974 100.32 114.525 131.649 138.679Z" fill="black"/>
<path id="Vector_22" d="M136.625 143.17C134.832 146.273 133.833 149.772 133.719 153.354C133.604 156.936 134.377 160.491 135.968 163.703C141.531 174.471 138.946 177.559 138.946 177.559C138.946 177.559 159.315 157.307 136.625 143.17Z" fill="#219842"/>
<path id="Vector_23" opacity="0.2" d="M136.625 143.17C134.832 146.273 133.833 149.772 133.719 153.354C133.604 156.936 134.377 160.491 135.968 163.703C141.531 174.471 138.946 177.559 138.946 177.559C138.946 177.559 159.315 157.307 136.625 143.17Z" fill="black"/>
<path id="Vector_24" opacity="0.2" d="M136.625 143.17C136.159 147.919 136.617 152.713 137.972 157.288C140.172 164.962 143.1 167.644 139.347 176.602C139.277 176.944 139.141 177.27 138.946 177.559C138.946 177.559 159.315 157.307 136.625 143.17Z" fill="black"/>
<path id="Vector_25" d="M203.709 82.19C206.512 84.4238 209.824 85.9312 213.349 86.5781C216.875 87.2251 220.505 86.9918 223.919 85.8988C235.374 82.0409 238.054 84.9982 238.054 84.9982C238.054 84.9982 221.088 61.8484 203.709 82.19Z" fill="#219842"/>
<path id="Vector_26" opacity="0.2" d="M203.709 82.19C206.512 84.4238 209.824 85.9312 213.349 86.5781C216.875 87.2251 220.505 86.9918 223.919 85.8988C235.374 82.0409 238.054 84.9982 238.054 84.9982C238.054 84.9982 221.088 61.8484 203.709 82.19Z" fill="black"/>
<path id="Vector_27" opacity="0.2" d="M203.709 82.1893C208.332 83.3568 213.137 83.6149 217.858 82.9493C225.777 81.9326 228.847 79.4142 237.168 84.4477C237.494 84.5683 237.795 84.7497 238.055 84.9823C238.055 84.9823 221.087 61.8477 203.709 82.1893Z" fill="black"/>
<path id="Vector_28" d="M195.467 78.99C195.467 78.99 190.515 65.9412 176.118 63.5669C161.722 61.1925 160.607 56.4018 160.607 56.4018C160.607 56.4018 165.441 90.6796 195.467 78.99Z" fill="#219842"/>
<path id="Vector_29" opacity="0.2" d="M195.467 78.99C195.467 78.99 190.515 65.9412 176.118 63.5669C161.722 61.1925 160.607 56.4018 160.607 56.4018C160.607 56.4018 165.441 90.6796 195.467 78.99Z" fill="black"/>
<path id="Vector_30" opacity="0.2" d="M195.467 78.9901C191.221 75.118 186.262 72.1097 180.866 70.1329C171.87 66.7148 167.202 67.6069 161.24 57.5344C160.961 57.2214 160.745 56.8577 160.604 56.463C160.604 56.463 165.441 90.6796 195.467 78.9901Z" fill="black"/>
<path id="Vector_31" d="M250.23 112.535C250.991 107.622 253.034 102.996 256.153 99.1245C259.273 95.2528 263.358 92.2721 267.997 90.4829C284.39 83.7377 285.095 79.5581 285.095 79.5581C285.095 79.5581 283.423 116.497 250.23 112.535Z" fill="#219842"/>
<path id="Vector_32" opacity="0.2" d="M250.23 112.535C250.991 107.622 253.034 102.996 256.153 99.1245C259.273 95.2528 263.358 92.2721 267.997 90.4829C284.39 83.7377 285.095 79.5581 285.095 79.5581C285.095 79.5581 283.423 116.497 250.23 112.535Z" fill="black"/>
<path id="Vector_33" opacity="0.2" d="M266.513 100.251C274.912 95.8723 281.454 88.6158 284.943 79.8091C284.508 80.8102 281.995 84.6866 267.938 90.4789C263.299 92.268 259.214 95.2488 256.094 99.1205C252.975 102.992 250.932 107.618 250.17 112.531C254.771 107.418 260.321 103.247 266.513 100.251Z" fill="black"/>
<path id="Vector_34" d="M199.888 75.8231C195.317 71.954 191.848 66.9465 189.833 61.307C187.818 55.6675 187.328 49.5959 188.412 43.7061C191.778 22.6289 187.928 19.2566 187.928 19.2566C187.928 19.2566 224.829 44.2071 199.888 75.8231Z" fill="#219842"/>
<path id="Vector_35" opacity="0.2" d="M199.888 75.8231C195.317 71.954 191.848 66.9465 189.833 61.307C187.818 55.6675 187.328 49.5959 188.412 43.7061C191.778 22.6289 187.928 19.2566 187.928 19.2566C187.928 19.2566 224.829 44.2071 199.888 75.8231Z" fill="black"/>
<path id="Vector_36" opacity="0.2" d="M197.511 51.3716C198.318 39.9716 194.991 28.6625 188.139 19.5157C188.882 20.5941 191.287 25.6233 188.41 43.7054C187.326 49.5951 187.816 55.6667 189.831 61.3063C191.846 66.9458 195.314 71.9533 199.885 75.8223C197.517 67.9029 196.71 59.5987 197.511 51.3716Z" fill="black"/>
<path id="Vector_37" d="M260.449 117.202C260.449 117.202 264.581 110.665 275.06 114.196C285.539 117.727 296.867 109.727 296.867 109.727C296.867 109.727 280.613 140.331 260.449 117.202Z" fill="#219842"/>
<path id="Vector_38" opacity="0.2" d="M260.449 117.202C260.449 117.202 264.581 110.665 275.06 114.196C285.539 117.727 296.867 109.727 296.867 109.727C296.867 109.727 280.613 140.331 260.449 117.202Z" fill="black"/>
<path id="Vector_39" opacity="0.2" d="M296.883 109.728C296.883 109.728 284.342 123.334 275.715 118.05C267.087 112.766 260.404 117.199 260.404 117.199C280.614 140.331 296.883 109.728 296.883 109.728Z" fill="black"/>
<path id="Vector_40" d="M249.668 111.239C249.668 111.239 254.845 100.269 245.355 84.9551C235.865 69.6414 238.263 66.3567 238.263 66.3567C238.263 66.3567 218.386 87.0721 249.668 111.239Z" fill="#219842"/>
<path id="Vector_41" opacity="0.2" d="M249.668 111.239C249.668 111.239 254.845 100.269 245.355 84.9551C235.865 69.6414 238.263 66.3567 238.263 66.3567C238.263 66.3567 218.386 87.0721 249.668 111.239Z" fill="black"/>
<path id="Vector_42" opacity="0.2" d="M249.668 111.239C248.969 104.824 247.22 98.5676 244.492 92.7201C239.908 82.2617 235.637 78.032 238.005 67.4769C238 67.0882 238.088 66.704 238.263 66.3567C238.263 66.3567 218.386 87.0721 249.668 111.239Z" fill="black"/>
<path id="Vector_43" d="M254.65 115.684C252.857 118.787 251.859 122.286 251.744 125.868C251.63 129.45 252.402 133.005 253.994 136.217C259.557 146.97 256.973 150.058 256.973 150.058C256.973 150.058 277.339 129.851 254.65 115.684Z" fill="#219842"/>
<path id="Vector_44" opacity="0.2" d="M254.65 115.684C252.857 118.787 251.859 122.286 251.744 125.868C251.63 129.45 252.402 133.005 253.994 136.217C259.557 146.97 256.973 150.058 256.973 150.058C256.973 150.058 277.339 129.851 254.65 115.684Z" fill="black"/>
<path id="Vector_45" opacity="0.2" d="M254.65 115.684C254.185 120.428 254.642 125.217 255.998 129.787C258.198 137.476 261.126 140.158 257.373 149.101C257.308 149.444 257.171 149.77 256.972 150.058C256.972 150.058 277.338 129.851 254.65 115.684Z" fill="black"/>
<path id="Vector_46" d="M292.135 197.468C290.72 194.176 288.513 191.286 285.71 189.053C282.907 186.821 279.596 185.316 276.071 184.673C264.123 182.69 263.197 178.772 263.197 178.772C263.197 178.772 267.202 207.187 292.135 197.468Z" fill="#219842"/>
<path id="Vector_47" opacity="0.2" d="M292.135 197.468C290.72 194.176 288.513 191.286 285.71 189.053C282.907 186.821 279.596 185.316 276.071 184.673C264.123 182.69 263.197 178.772 263.197 178.772C263.197 178.772 267.202 207.187 292.135 197.468Z" fill="black"/>
<path id="Vector_48" opacity="0.2" d="M292.135 197.468C288.606 194.263 284.491 191.77 280.016 190.126C272.519 187.283 268.644 188.027 263.722 179.667C263.487 179.409 263.308 179.104 263.197 178.772C263.197 178.772 267.202 207.187 292.135 197.468Z" fill="black"/>
<path id="Vector_49" d="M296.394 198.424C297.147 193.503 299.187 188.87 302.308 184.992C305.428 181.114 309.518 178.129 314.163 176.341C330.557 169.595 331.261 165.416 331.261 165.416C331.261 165.416 329.587 202.386 296.394 198.424Z" fill="#219842"/>
<path id="Vector_50" opacity="0.2" d="M296.394 198.424C297.147 193.503 299.187 188.87 302.308 184.992C305.428 181.114 309.518 178.129 314.163 176.341C330.557 169.595 331.261 165.416 331.261 165.416C331.261 165.416 329.587 202.386 296.394 198.424Z" fill="black"/>
<path id="Vector_51" opacity="0.2" d="M312.674 186.139C321.098 181.776 327.665 174.519 331.165 165.701C330.731 166.702 328.216 170.594 314.161 176.371C309.52 178.158 305.433 181.137 302.313 185.01C299.193 188.882 297.151 193.509 296.393 198.424C300.971 193.31 306.501 189.138 312.674 186.139Z" fill="black"/>
<path id="Vector_52" d="M298.469 201.433C297.58 206.32 295.419 210.885 292.203 214.67C288.987 218.454 284.829 221.324 280.15 222.989C263.587 229.277 262.761 233.433 262.761 233.433C262.761 233.433 265.459 196.561 298.469 201.433Z" fill="#219842"/>
<path id="Vector_53" opacity="0.2" d="M298.469 201.433C297.58 206.32 295.419 210.885 292.203 214.67C288.987 218.454 284.829 221.324 280.15 222.989C263.587 229.277 262.761 233.433 262.761 233.433C262.761 233.433 265.459 196.561 298.469 201.433Z" fill="black"/>
<path id="Vector_54" opacity="0.2" d="M281.923 213.27C273.379 217.397 266.608 224.465 262.852 233.178C263.316 232.194 265.948 228.387 280.148 222.989C284.827 221.323 288.984 218.454 292.2 214.669C295.416 210.885 297.578 206.319 298.466 201.433C293.771 206.414 288.152 210.434 281.923 213.27Z" fill="black"/>
<path id="Vector_55" d="M287.166 240.415C286.277 245.298 284.115 249.861 280.899 253.643C277.683 257.425 273.526 260.292 268.849 261.955C252.285 268.243 251.459 272.399 251.459 272.399C251.459 272.399 254.096 235.523 287.166 240.415Z" fill="#219842"/>
<path id="Vector_56" opacity="0.2" d="M287.166 240.415C286.277 245.298 284.115 249.861 280.899 253.643C277.683 257.425 273.526 260.292 268.849 261.955C252.285 268.243 251.459 272.399 251.459 272.399C251.459 272.399 254.096 235.523 287.166 240.415Z" fill="black"/>
<path id="Vector_57" opacity="0.2" d="M270.547 252.231C262.015 256.354 255.251 263.41 251.493 272.109C251.958 271.126 254.589 267.318 268.789 261.92C273.467 260.257 277.623 257.39 280.839 253.608C284.055 249.827 286.217 245.264 287.107 240.38C282.407 245.365 276.783 249.39 270.547 252.231Z" fill="black"/>
<path id="Vector_58" d="M189.353 225.003C185.554 228.252 180.961 230.435 176.043 231.329C171.126 232.224 166.058 231.798 161.359 230.095C144.547 224.489 141.277 227.24 141.277 227.24C141.277 227.24 166.754 200.346 189.353 225.003Z" fill="#219842"/>
<path id="Vector_59" opacity="0.2" d="M189.353 225.003C185.554 228.252 180.961 230.435 176.043 231.329C171.126 232.224 166.058 231.798 161.359 230.095C144.547 224.489 141.277 227.24 141.277 227.24C141.277 227.24 166.754 200.346 189.353 225.003Z" fill="black"/>
<path id="Vector_60" opacity="0.2" d="M168.926 223.661C159.701 221.466 149.994 222.667 141.582 227.044C142.565 226.587 147.014 225.296 161.359 230.095C166.058 231.798 171.125 232.224 176.043 231.329C180.961 230.434 185.554 228.251 189.353 225.003C182.522 225.885 175.584 225.429 168.926 223.661Z" fill="black"/>
<path id="Vector_61" d="M306.613 203.09C306.613 203.09 310.745 196.554 321.224 200.085C331.703 203.616 343.031 195.616 343.031 195.616C343.031 195.616 326.765 226.157 306.613 203.09Z" fill="#219842"/>
<path id="Vector_62" opacity="0.2" d="M306.613 203.09C306.613 203.09 310.745 196.554 321.224 200.085C331.703 203.616 343.031 195.616 343.031 195.616C343.031 195.616 326.765 226.157 306.613 203.09Z" fill="black"/>
<path id="Vector_63" opacity="0.2" d="M343.043 195.617C343.043 195.617 330.501 209.238 321.874 203.954C313.247 198.67 306.564 203.087 306.564 203.087C326.762 226.157 343.043 195.617 343.043 195.617Z" fill="black"/>
<path id="Vector_64" d="M295.832 197.142C295.832 197.142 301.01 186.157 291.519 170.859C282.028 155.56 284.427 152.245 284.427 152.245C284.427 152.245 264.503 172.973 295.832 197.142Z" fill="#219842"/>
<path id="Vector_65" opacity="0.2" d="M295.832 197.142C295.832 197.142 301.01 186.157 291.519 170.859C282.028 155.56 284.427 152.245 284.427 152.245C284.427 152.245 264.503 172.973 295.832 197.142Z" fill="black"/>
<path id="Vector_66" opacity="0.2" d="M295.832 197.142C295.135 190.722 293.386 184.461 290.656 178.608C286.072 168.15 281.802 163.92 284.17 153.365C284.167 152.977 284.256 152.593 284.427 152.245C284.427 152.245 264.503 172.973 295.832 197.142Z" fill="black"/>
<path id="Vector_67" d="M300.809 201.587C299.015 204.69 298.017 208.189 297.902 211.771C297.788 215.353 298.561 218.908 300.152 222.12C305.715 232.873 303.131 235.961 303.131 235.961C303.131 235.961 323.497 215.754 300.809 201.587Z" fill="#219842"/>
<path id="Vector_68" opacity="0.2" d="M300.809 201.587C299.015 204.69 298.017 208.189 297.902 211.771C297.788 215.353 298.561 218.908 300.152 222.12C305.715 232.873 303.131 235.961 303.131 235.961C303.131 235.961 323.497 215.754 300.809 201.587Z" fill="black"/>
<path id="Vector_69" opacity="0.2" d="M300.808 201.587C300.343 206.331 300.801 211.12 302.156 215.69C304.357 223.364 307.285 226.046 303.531 235.004C303.462 235.346 303.325 235.671 303.13 235.961C303.13 235.961 323.496 215.754 300.808 201.587Z" fill="black"/>
<path id="Vector_70" d="M236.52 189.314C238.352 186.233 240.917 183.652 243.988 181.803C247.059 179.953 250.539 178.892 254.119 178.714C266.209 178.309 267.655 174.547 267.655 174.547C267.655 174.547 260 202.196 236.52 189.314Z" fill="#219842"/>
<path id="Vector_71" opacity="0.2" d="M236.52 189.314C238.352 186.233 240.917 183.652 243.988 181.803C247.059 179.953 250.539 178.892 254.119 178.714C266.209 178.309 267.655 174.547 267.655 174.547C267.655 174.547 260 202.196 236.52 189.314Z" fill="black"/>
<path id="Vector_72" opacity="0.2" d="M236.52 189.314C240.428 186.587 244.83 184.647 249.48 183.604C257.284 181.765 261.029 183.01 267.017 175.366C267.278 175.134 267.494 174.857 267.655 174.547C267.655 174.547 260 202.196 236.52 189.314Z" fill="black"/>
<path id="Vector_73" d="M232.164 189.689C232.055 184.717 230.635 179.863 228.049 175.616C225.462 171.369 221.8 167.88 217.433 165.502C202.062 156.672 201.91 152.436 201.91 152.436C201.91 152.436 198.738 189.277 232.164 189.689Z" fill="#219842"/>
<path id="Vector_74" opacity="0.2" d="M232.164 189.689C232.055 184.717 230.635 179.863 228.049 175.616C225.462 171.369 221.8 167.88 217.433 165.502C202.062 156.672 201.91 152.436 201.91 152.436C201.91 152.436 198.738 189.277 232.164 189.689Z" fill="black"/>
<path id="Vector_75" opacity="0.2" d="M217.628 175.396C209.847 169.961 204.288 161.903 201.969 152.701C202.269 153.75 204.253 157.937 217.432 165.502C221.8 167.88 225.462 171.369 228.048 175.616C230.635 179.863 232.055 184.717 232.164 189.689C228.295 184.023 223.358 179.168 217.628 175.396Z" fill="black"/>
<path id="Vector_76" d="M229.649 192.397C229.891 197.358 231.437 202.167 234.131 206.339C236.825 210.512 240.571 213.9 244.992 216.163C260.591 224.563 260.866 228.791 260.866 228.791C260.866 228.791 263.074 191.887 229.649 192.397Z" fill="#219842"/>
<path id="Vector_77" opacity="0.2" d="M229.649 192.397C229.891 197.358 231.437 202.167 234.131 206.339C236.825 210.512 240.571 213.9 244.992 216.163C260.591 224.563 260.866 228.791 260.866 228.791C260.866 228.791 263.074 191.887 229.649 192.397Z" fill="black"/>
<path id="Vector_78" opacity="0.2" d="M244.582 206.301C252.511 211.508 258.295 219.401 260.871 228.53C260.539 227.494 258.428 223.376 245.056 216.167C240.635 213.904 236.888 210.516 234.195 206.343C231.501 202.171 229.955 197.362 229.713 192.401C233.72 197.955 238.77 202.677 244.582 206.301Z" fill="black"/>
<path id="Vector_79" d="M221.436 192.98C221.436 192.98 218.179 185.958 207.328 188.089C196.478 190.219 186.293 180.807 186.293 180.807C186.293 180.807 198.426 213.213 221.436 192.98Z" fill="#219842"/>
<path id="Vector_80" opacity="0.2" d="M221.436 192.98C221.436 192.98 218.179 185.958 207.328 188.089C196.478 190.219 186.293 180.807 186.293 180.807C186.293 180.807 198.426 213.213 221.436 192.98Z" fill="black"/>
<path id="Vector_81" opacity="0.2" d="M186.279 180.806C186.279 180.806 196.948 195.951 206.177 191.839C215.406 187.728 221.469 192.982 221.469 192.982C198.427 213.213 186.279 180.806 186.279 180.806Z" fill="black"/>
<path id="Vector_82" d="M232.902 188.493C232.902 188.493 229.19 176.924 240.6 162.998C252.009 149.072 250.064 145.471 250.064 145.471C250.064 145.471 267.105 168.641 232.902 188.493Z" fill="#219842"/>
<path id="Vector_83" opacity="0.2" d="M232.902 188.493C232.902 188.493 229.19 176.924 240.6 162.998C252.009 149.072 250.064 145.471 250.064 145.471C250.064 145.471 267.105 168.641 232.902 188.493Z" fill="black"/>
<path id="Vector_84" opacity="0.2" d="M232.905 188.493C234.434 182.221 236.981 176.242 240.444 170.794C246.372 161.026 251.143 157.39 250.176 146.615C250.239 146.231 250.201 145.837 250.067 145.471C250.067 145.471 267.108 168.641 232.905 188.493Z" fill="black"/>
<path id="Vector_85" d="M227.386 192.248C228.754 195.56 229.284 199.158 228.929 202.724C228.575 206.29 227.346 209.713 225.352 212.691C218.43 222.624 220.574 226.023 220.574 226.023C220.574 226.023 203.07 203.329 227.386 192.248Z" fill="#219842"/>
<path id="Vector_86" opacity="0.2" d="M227.386 192.248C228.754 195.56 229.284 199.158 228.929 202.724C228.575 206.29 227.346 209.713 225.352 212.691C218.43 222.624 220.574 226.023 220.574 226.023C220.574 226.023 203.07 203.329 227.386 192.248Z" fill="black"/>
<path id="Vector_87" opacity="0.2" d="M227.386 192.248C227.225 197.013 226.139 201.702 224.19 206.053C221.02 213.374 217.751 215.649 220.301 225.021C220.334 225.368 220.427 225.707 220.574 226.023C220.574 226.023 203.07 203.329 227.386 192.248Z" fill="black"/>
<path id="Vector_88" d="M193.317 230.611C195.015 227.452 197.467 224.761 200.455 222.778C203.443 220.795 206.875 219.58 210.445 219.242C222.507 218.313 223.788 214.494 223.788 214.494C223.788 214.494 217.311 242.451 193.317 230.611Z" fill="#219842"/>
<path id="Vector_89" opacity="0.2" d="M193.317 230.611C195.015 227.452 197.467 224.761 200.455 222.778C203.443 220.795 206.875 219.58 210.445 219.242C222.507 218.313 223.788 214.494 223.788 214.494C223.788 214.494 217.311 242.451 193.317 230.611Z" fill="black"/>
<path id="Vector_90" opacity="0.2" d="M193.317 230.611C197.108 227.718 201.423 225.585 206.023 224.33C213.695 222.16 217.528 223.242 223.163 215.345C223.415 215.099 223.622 214.811 223.772 214.493C223.772 214.493 217.311 242.451 193.317 230.611Z" fill="black"/>
<path id="Vector_91" d="M201.797 82.279C201.797 82.279 188.141 79.6152 178.478 90.5826C168.814 101.55 164.259 100.021 164.259 100.021C164.259 100.021 195.921 113.963 201.797 82.279Z" fill="#219842"/>
<path id="Vector_92" opacity="0.2" d="M201.797 82.279C201.797 82.279 188.141 79.6152 178.478 90.5826C168.814 101.55 164.259 100.021 164.259 100.021C164.259 100.021 195.921 113.963 201.797 82.279Z" fill="black"/>
<path id="Vector_93" opacity="0.2" d="M201.797 82.2794C196.268 83.8441 191.096 86.469 186.568 90.0078C178.932 95.8375 177.209 100.319 165.518 100.043C165.098 100.103 164.671 100.075 164.263 99.9607C164.263 99.9607 195.921 113.964 201.797 82.2794Z" fill="black"/>
<path id="Vector_94" d="M81.3761 221.417C82.0423 224.933 81.8303 228.559 80.7591 231.973C79.6878 235.388 77.7904 238.485 75.2351 240.99C66.4522 249.311 67.8645 253.076 67.8645 253.076C67.8645 253.076 55.2797 227.325 81.3761 221.417Z" fill="#219842"/>
<path id="Vector_95" opacity="0.2" d="M81.3761 221.417C82.0423 224.933 81.8303 228.559 80.7591 231.973C79.6878 235.388 77.7904 238.485 75.2351 240.99C66.4522 249.311 67.8645 253.076 67.8645 253.076C67.8645 253.076 55.2797 227.325 81.3761 221.417Z" fill="black"/>
<path id="Vector_96" opacity="0.2" d="M81.3761 221.417C80.252 226.049 78.2431 230.42 75.4599 234.29C70.8673 240.811 67.2449 242.386 67.8074 252.074C67.7616 252.418 67.7803 252.769 67.8625 253.107C67.8625 253.107 55.2797 227.325 81.3761 221.417Z" fill="black"/>
<path id="Vector_97" d="M82.383 212.631C82.383 212.631 73.1427 202.174 77.7248 188.322C82.307 174.471 78.6594 171.281 78.6594 171.281C78.6594 171.281 106.699 191.485 82.383 212.631Z" fill="#219842"/>
<path id="Vector_98" opacity="0.2" d="M82.383 212.631C82.383 212.631 73.1427 202.174 77.7248 188.322C82.307 174.471 78.6594 171.281 78.6594 171.281C78.6594 171.281 106.699 191.485 82.383 212.631Z" fill="black"/>
<path id="Vector_99" opacity="0.2" d="M82.3829 212.632C80.9301 207.07 80.5692 201.28 81.3203 195.582C82.4847 186.038 85.4665 182.285 79.3081 172.399C79.1595 172.004 78.9384 171.641 78.6562 171.327C78.6562 171.327 106.698 191.485 82.3829 212.632Z" fill="black"/>
<path id="Vector_100" d="M77.521 215.063C76.2119 209.227 73.3876 203.839 69.3329 199.443C65.2781 195.046 60.136 191.796 54.4249 190.02C34.1898 183.19 33.0098 178.226 33.0098 178.226C33.0098 178.226 37.9286 222.436 77.521 215.063Z" fill="#219842"/>
<path id="Vector_101" opacity="0.2" d="M77.521 215.063C76.2119 209.227 73.3876 203.839 69.3329 199.443C65.2781 195.046 60.136 191.796 54.4249 190.02C34.1898 183.19 33.0098 178.226 33.0098 178.226C33.0098 178.226 37.9286 222.436 77.521 215.063Z" fill="black"/>
<path id="Vector_102" opacity="0.2" d="M56.9862 201.591C46.5255 197.011 38.063 188.819 33.1465 178.512C33.7464 179.673 37.0791 184.148 54.4277 190.005C60.1457 191.787 65.292 195.047 69.3467 199.455C73.4014 203.863 76.2207 209.263 77.5198 215.109C71.6176 209.313 64.6433 204.721 56.9862 201.591Z" fill="black"/>
<path id="Vector_103" d="M82.3292 219.789C82.3292 219.789 86.2805 206.418 100.534 203.005C114.788 199.593 115.505 194.768 115.505 194.768C115.505 194.768 113.115 229.294 82.3292 219.789Z" fill="#219842"/>
<path id="Vector_104" opacity="0.2" d="M82.3292 219.789C82.3292 219.789 86.2805 206.418 100.534 203.005C114.788 199.593 115.505 194.768 115.505 194.768C115.505 194.768 113.115 229.294 82.3292 219.789Z" fill="black"/>
<path id="Vector_105" opacity="0.2" d="M82.3284 219.789C86.2939 215.644 91.0212 212.302 96.2515 209.946C104.968 205.909 109.742 206.453 114.947 195.992C115.193 195.654 115.379 195.276 115.497 194.875C115.497 194.875 113.114 229.294 82.3284 219.789Z" fill="black"/>
<path id="Vector_106" d="M392.578 201.589C394.411 198.51 396.977 195.931 400.048 194.081C403.118 192.232 406.597 191.17 410.177 190.989C422.281 190.601 423.726 186.839 423.726 186.839C423.726 186.839 416.027 214.47 392.578 201.589Z" fill="#219842"/>
<path id="Vector_107" opacity="0.2" d="M392.578 201.589C394.411 198.51 396.977 195.931 400.048 194.081C403.118 192.232 406.597 191.17 410.177 190.989C422.281 190.601 423.726 186.839 423.726 186.839C423.726 186.839 416.027 214.47 392.578 201.589Z" fill="black"/>
<path id="Vector_108" opacity="0.2" d="M392.578 201.589C396.497 198.871 400.902 196.933 405.553 195.88C413.356 194.056 417.101 195.301 423.089 187.657C423.35 187.426 423.566 187.148 423.726 186.839C423.726 186.839 416.027 214.47 392.578 201.589Z" fill="black"/>
<path id="Vector_109" d="M388.236 201.98C388.127 197.009 386.707 192.154 384.121 187.907C381.534 183.66 377.872 180.172 373.505 177.794C358.134 168.963 357.982 164.727 357.982 164.727C357.982 164.727 354.81 201.568 388.236 201.98Z" fill="#219842"/>
<path id="Vector_110" opacity="0.2" d="M388.236 201.98C388.127 197.009 386.707 192.154 384.121 187.907C381.534 183.66 377.872 180.172 373.505 177.794C358.134 168.963 357.982 164.727 357.982 164.727C357.982 164.727 354.81 201.568 388.236 201.98Z" fill="black"/>
<path id="Vector_111" opacity="0.2" d="M373.701 187.672C365.922 182.242 360.362 174.19 358.041 164.992C358.341 166.041 360.325 170.228 373.505 177.794C377.872 180.172 381.534 183.66 384.121 187.907C386.707 192.154 388.127 197.009 388.236 201.98C384.366 196.312 379.429 191.452 373.701 187.672Z" fill="black"/>
<path id="Vector_112" d="M385.721 204.688C385.965 209.649 387.512 214.457 390.205 218.629C392.899 222.801 396.644 226.19 401.064 228.454C416.663 236.854 416.939 241.083 416.939 241.083C416.939 241.083 419.147 204.179 385.721 204.688Z" fill="#219842"/>
<path id="Vector_113" opacity="0.2" d="M385.721 204.688C385.965 209.649 387.512 214.457 390.205 218.629C392.899 222.801 396.644 226.19 401.064 228.454C416.663 236.854 416.939 241.083 416.939 241.083C416.939 241.083 419.147 204.179 385.721 204.688Z" fill="black"/>
<path id="Vector_114" opacity="0.2" d="M400.653 218.577C408.575 223.798 414.356 231.693 416.941 240.822C416.61 239.786 414.499 235.652 401.126 228.458C396.706 226.194 392.961 222.805 390.267 218.633C387.574 214.461 386.027 209.653 385.783 204.693C389.789 210.244 394.84 214.961 400.653 218.577Z" fill="black"/>
<path id="Vector_115" d="M400.655 247.113C402.835 250.627 405.96 253.456 409.671 255.278C413.383 257.101 417.532 257.843 421.645 257.42C436.062 255.969 438.104 259.038 438.104 259.038C438.104 259.038 423.402 229.967 400.655 247.113Z" fill="#219842"/>
<path id="Vector_116" opacity="0.2" d="M400.655 247.113C402.835 250.627 405.96 253.456 409.671 255.278C413.383 257.101 417.532 257.843 421.645 257.42C436.062 255.969 438.104 259.038 438.104 259.038C438.104 259.038 423.402 229.967 400.655 247.113Z" fill="black"/>
<path id="Vector_117" opacity="0.2" d="M416.988 250.168C424.839 250.215 432.359 253.341 437.93 258.873C437.248 258.26 434.005 256.172 421.645 257.42C417.531 257.843 413.382 257.101 409.671 255.278C405.959 253.456 402.835 250.627 400.654 247.113C405.816 249.294 411.387 250.336 416.988 250.168Z" fill="black"/>
<path id="Vector_118" d="M402.882 252.699C402.882 252.699 399.624 245.677 388.788 247.824C377.952 249.971 367.754 240.527 367.754 240.527C367.754 240.527 379.824 272.944 402.882 252.699Z" fill="#219842"/>
<path id="Vector_119" opacity="0.2" d="M402.882 252.699C402.882 252.699 399.624 245.677 388.788 247.824C377.952 249.971 367.754 240.527 367.754 240.527C367.754 240.527 379.824 272.944 402.882 252.699Z" fill="black"/>
<path id="Vector_120" opacity="0.2" d="M367.725 240.525C367.725 240.525 378.394 255.67 387.622 251.559C396.851 247.447 402.914 252.701 402.914 252.701C379.826 272.944 367.725 240.525 367.725 240.525Z" fill="black"/>
<path id="Vector_121" d="M388.975 200.768C388.975 200.768 385.262 189.214 396.672 175.288C408.082 161.362 406.134 157.792 406.134 157.792C406.134 157.792 423.179 180.917 388.975 200.768Z" fill="#219842"/>
<path id="Vector_122" opacity="0.2" d="M388.975 200.768C388.975 200.768 385.262 189.214 396.672 175.288C408.082 161.362 406.134 157.792 406.134 157.792C406.134 157.792 423.179 180.917 388.975 200.768Z" fill="black"/>
<path id="Vector_123" opacity="0.2" d="M388.976 200.769C390.488 194.5 393.024 188.525 396.484 183.083C402.396 173.314 407.183 169.679 406.216 158.905C406.269 158.52 406.231 158.128 406.106 157.761C406.106 157.761 423.18 180.917 388.976 200.769Z" fill="black"/>
<path id="Vector_124" d="M383.443 204.524C384.815 207.835 385.348 211.434 384.993 215C384.638 218.567 383.407 221.99 381.409 224.966C374.486 234.915 376.645 238.314 376.645 238.314C376.645 238.314 359.096 215.618 383.443 204.524Z" fill="#219842"/>
<path id="Vector_125" opacity="0.2" d="M383.443 204.524C384.815 207.835 385.348 211.434 384.993 215C384.638 218.567 383.407 221.99 381.409 224.966C374.486 234.915 376.645 238.314 376.645 238.314C376.645 238.314 359.096 215.618 383.443 204.524Z" fill="black"/>
<path id="Vector_126" opacity="0.2" d="M383.443 204.524C383.293 209.294 382.212 213.989 380.261 218.345C377.091 225.666 373.823 227.941 376.373 237.313C376.397 237.662 376.49 238.002 376.645 238.314C376.645 238.314 359.096 215.618 383.443 204.524Z" fill="black"/>
<path id="Vector_127" d="M245.974 111.58C244.559 108.287 242.353 105.395 239.55 103.16C236.748 100.925 233.437 99.4171 229.912 98.7699C217.964 96.7868 217.037 92.8843 217.037 92.8843C217.037 92.8843 221.043 121.284 245.974 111.58Z" fill="#219842"/>
<path id="Vector_128" opacity="0.2" d="M245.974 111.58C244.559 108.287 242.353 105.395 239.55 103.16C236.748 100.925 233.437 99.4171 229.912 98.7699C217.964 96.7868 217.037 92.8843 217.037 92.8843C217.037 92.8843 221.043 121.284 245.974 111.58Z" fill="black"/>
<path id="Vector_129" opacity="0.2" d="M245.974 111.58C242.45 108.366 238.335 105.867 233.857 104.223C226.359 101.395 222.484 102.139 217.562 93.7793C217.331 93.518 217.152 93.2139 217.037 92.8843C217.037 92.8843 221.043 121.284 245.974 111.58Z" fill="black"/>
<path id="Vector_130" d="M252.369 115.549C251.479 120.433 249.318 124.996 246.102 128.778C242.886 132.56 238.729 135.427 234.051 137.089C217.472 143.392 216.646 147.548 216.646 147.548C216.646 147.548 219.298 110.658 252.369 115.549Z" fill="#219842"/>
<path id="Vector_131" opacity="0.2" d="M252.369 115.549C251.479 120.433 249.318 124.996 246.102 128.778C242.886 132.56 238.729 135.427 234.051 137.089C217.472 143.392 216.646 147.548 216.646 147.548C216.646 147.548 219.298 110.658 252.369 115.549Z" fill="black"/>
<path id="Vector_132" opacity="0.2" d="M235.719 127.364C227.173 131.491 220.405 138.567 216.662 147.288C217.111 146.303 219.744 142.481 233.959 137.083C238.637 135.421 242.793 132.554 246.009 128.772C249.225 124.99 251.387 120.427 252.277 115.543C247.579 120.523 241.955 124.538 235.719 127.364Z" fill="black"/>
<path id="Vector_133" d="M186.606 332.389C182.011 330.493 176.997 329.843 172.07 330.505C167.143 331.166 162.478 333.115 158.545 336.155C144.271 346.666 140.332 345.102 140.332 345.102C140.332 345.102 172.772 362.875 186.606 332.389Z" fill="#219842"/>
<path id="Vector_134" opacity="0.2" d="M186.606 332.389C182.011 330.493 176.997 329.843 172.07 330.505C167.143 331.166 162.478 333.115 158.545 336.155C144.271 346.666 140.332 345.102 140.332 345.102C140.332 345.102 172.772 362.875 186.606 332.389Z" fill="black"/>
<path id="Vector_135" opacity="0.2" d="M167.666 339.982C159.562 344.926 149.947 346.782 140.585 345.211C141.671 345.282 146.301 345.217 158.54 336.201C162.469 333.153 167.133 331.195 172.06 330.526C176.988 329.857 182.005 330.499 186.605 332.389C179.859 333.668 173.427 336.246 167.666 339.982Z" fill="black"/>
</g>
</svg>
