<svg width="484" height="496" viewBox="0 0 484 496" fill="none" xmlns="http://www.w3.org/2000/svg">
<g id="illegal-popup">
<g id="Ellipse 5" filter="url(#filter0_dd_750_22588)">
<ellipse cx="242" cy="248" rx="242" ry="248" fill="#79C2AA"/>
</g>
<path id="Trees and other green plants produce oxygen, the gas needed by humans and animals to live." d="M65.3433 163.387V160.091H80.8731V163.387H75.0841V179H71.1324V163.387H65.3433ZM81.5981 179V164.818H85.4114V167.293H85.5591C85.8176 166.412 86.2516 165.748 86.8609 165.298C87.4703 164.843 88.172 164.615 88.966 164.615C89.163 164.615 89.3754 164.627 89.6031 164.652C89.8309 164.677 90.0309 164.71 90.2033 164.754V168.244C90.0186 168.188 89.7632 168.139 89.4369 168.096C89.1107 168.053 88.8122 168.031 88.5413 168.031C87.9627 168.031 87.4457 168.157 86.9902 168.41C86.5409 168.656 86.1838 169.001 85.9192 169.444C85.6606 169.887 85.5314 170.398 85.5314 170.977V179H81.5981ZM97.7537 179.277C96.2949 179.277 95.0392 178.982 93.9867 178.391C92.9403 177.794 92.1339 176.95 91.5677 175.861C91.0014 174.765 90.7182 173.469 90.7182 171.974C90.7182 170.515 91.0014 169.235 91.5677 168.133C92.1339 167.031 92.9311 166.172 93.959 165.557C94.9931 164.941 96.2057 164.634 97.5968 164.634C98.5324 164.634 99.4034 164.784 100.21 165.086C101.022 165.381 101.73 165.828 102.333 166.425C102.943 167.022 103.417 167.773 103.755 168.678C104.094 169.576 104.263 170.629 104.263 171.835V172.915H92.2878V170.478H100.561C100.561 169.912 100.437 169.41 100.191 168.973C99.945 168.536 99.6034 168.194 99.1664 167.948C98.7355 167.696 98.2338 167.57 97.6614 167.57C97.0643 167.57 96.535 167.708 96.0733 167.985C95.6178 168.256 95.2608 168.622 95.0023 169.084C94.7438 169.539 94.6115 170.047 94.6053 170.607V172.925C94.6053 173.626 94.7346 174.233 94.9931 174.744C95.2578 175.254 95.6302 175.648 96.1103 175.925C96.5904 176.202 97.1597 176.341 97.8184 176.341C98.2554 176.341 98.6555 176.279 99.0186 176.156C99.3818 176.033 99.6927 175.848 99.9512 175.602C100.21 175.356 100.407 175.054 100.542 174.697L104.18 174.938C103.995 175.812 103.617 176.575 103.044 177.227C102.478 177.874 101.745 178.378 100.847 178.741C99.9543 179.098 98.9232 179.277 97.7537 179.277ZM113.007 179.277C111.548 179.277 110.292 178.982 109.24 178.391C108.193 177.794 107.387 176.95 106.821 175.861C106.254 174.765 105.971 173.469 105.971 171.974C105.971 170.515 106.254 169.235 106.821 168.133C107.387 167.031 108.184 166.172 109.212 165.557C110.246 164.941 111.459 164.634 112.85 164.634C113.785 164.634 114.656 164.784 115.463 165.086C116.275 165.381 116.983 165.828 117.586 166.425C118.196 167.022 118.67 167.773 119.008 168.678C119.347 169.576 119.516 170.629 119.516 171.835V172.915H107.541V170.478H115.814C115.814 169.912 115.691 169.41 115.444 168.973C115.198 168.536 114.856 168.194 114.419 167.948C113.989 167.696 113.487 167.57 112.914 167.57C112.317 167.57 111.788 167.708 111.326 167.985C110.871 168.256 110.514 168.622 110.255 169.084C109.997 169.539 109.865 170.047 109.858 170.607V172.925C109.858 173.626 109.988 174.233 110.246 174.744C110.511 175.254 110.883 175.648 111.363 175.925C111.843 176.202 112.413 176.341 113.071 176.341C113.508 176.341 113.909 176.279 114.272 176.156C114.635 176.033 114.946 175.848 115.204 175.602C115.463 175.356 115.66 175.054 115.795 174.697L119.433 174.938C119.248 175.812 118.87 176.575 118.297 177.227C117.731 177.874 116.999 178.378 116.1 178.741C115.207 179.098 114.176 179.277 113.007 179.277ZM133.597 168.862L129.996 169.084C129.934 168.776 129.802 168.499 129.599 168.253C129.396 168 129.128 167.8 128.795 167.653C128.469 167.499 128.078 167.422 127.623 167.422C127.013 167.422 126.499 167.551 126.081 167.81C125.662 168.062 125.453 168.401 125.453 168.825C125.453 169.164 125.588 169.45 125.859 169.684C126.13 169.918 126.595 170.106 127.253 170.247L129.82 170.764C131.199 171.047 132.227 171.503 132.904 172.131C133.581 172.759 133.92 173.583 133.92 174.605C133.92 175.535 133.646 176.35 133.098 177.052C132.556 177.754 131.811 178.301 130.864 178.695C129.922 179.083 128.835 179.277 127.604 179.277C125.727 179.277 124.231 178.886 123.117 178.104C122.009 177.317 121.36 176.246 121.169 174.891L125.038 174.688C125.155 175.261 125.438 175.698 125.887 175.999C126.336 176.295 126.912 176.442 127.614 176.442C128.303 176.442 128.857 176.31 129.275 176.045C129.7 175.775 129.916 175.427 129.922 175.002C129.916 174.645 129.765 174.353 129.469 174.125C129.174 173.891 128.718 173.713 128.103 173.589L125.647 173.1C124.262 172.823 123.231 172.343 122.554 171.66C121.883 170.977 121.548 170.106 121.548 169.047C121.548 168.136 121.794 167.351 122.286 166.692C122.785 166.034 123.483 165.526 124.382 165.169C125.287 164.812 126.346 164.634 127.558 164.634C129.349 164.634 130.759 165.012 131.787 165.769C132.821 166.526 133.424 167.557 133.597 168.862ZM145.886 179.268C144.981 179.268 144.175 179.111 143.467 178.797C142.759 178.477 142.199 178.006 141.787 177.384C141.38 176.756 141.177 175.975 141.177 175.039C141.177 174.251 141.322 173.589 141.611 173.054C141.9 172.518 142.294 172.088 142.793 171.761C143.292 171.435 143.858 171.189 144.492 171.023C145.132 170.857 145.803 170.74 146.505 170.672C147.329 170.586 147.994 170.506 148.499 170.432C149.004 170.352 149.37 170.235 149.598 170.081C149.825 169.927 149.939 169.699 149.939 169.398V169.342C149.939 168.758 149.755 168.305 149.385 167.985C149.022 167.665 148.505 167.505 147.834 167.505C147.126 167.505 146.563 167.662 146.145 167.976C145.726 168.284 145.449 168.671 145.314 169.139L141.676 168.844C141.86 167.982 142.224 167.237 142.765 166.609C143.307 165.975 144.006 165.489 144.861 165.151C145.723 164.806 146.72 164.634 147.853 164.634C148.641 164.634 149.395 164.726 150.115 164.911C150.841 165.095 151.484 165.381 152.044 165.769C152.611 166.157 153.057 166.656 153.383 167.265C153.709 167.868 153.873 168.591 153.873 169.435V179H150.142V177.033H150.032C149.804 177.477 149.499 177.867 149.118 178.206C148.736 178.538 148.277 178.8 147.742 178.991C147.206 179.175 146.588 179.268 145.886 179.268ZM147.012 176.553C147.591 176.553 148.102 176.439 148.545 176.212C148.988 175.978 149.336 175.664 149.588 175.27C149.841 174.876 149.967 174.43 149.967 173.931V172.426C149.844 172.506 149.675 172.58 149.459 172.648C149.25 172.709 149.013 172.768 148.748 172.823C148.484 172.872 148.219 172.919 147.954 172.962C147.69 172.999 147.449 173.032 147.234 173.063C146.772 173.131 146.369 173.239 146.025 173.386C145.68 173.534 145.412 173.734 145.221 173.987C145.03 174.233 144.935 174.54 144.935 174.91C144.935 175.445 145.129 175.855 145.517 176.138C145.911 176.415 146.409 176.553 147.012 176.553ZM160.571 170.801V179H156.638V164.818H160.387V167.32H160.553C160.867 166.496 161.393 165.843 162.132 165.363C162.87 164.877 163.766 164.634 164.818 164.634C165.803 164.634 166.662 164.849 167.394 165.28C168.127 165.711 168.696 166.326 169.102 167.126C169.509 167.92 169.712 168.868 169.712 169.97V179H165.779V170.672C165.785 169.804 165.563 169.127 165.114 168.641C164.665 168.148 164.046 167.902 163.258 167.902C162.729 167.902 162.261 168.016 161.855 168.244C161.455 168.471 161.141 168.804 160.913 169.241C160.691 169.672 160.577 170.192 160.571 170.801ZM177.752 179.231C176.675 179.231 175.699 178.954 174.825 178.4C173.957 177.84 173.268 177.018 172.757 175.935C172.252 174.845 172 173.509 172 171.928C172 170.303 172.261 168.951 172.784 167.874C173.308 166.791 174.003 165.982 174.871 165.446C175.745 164.904 176.702 164.634 177.742 164.634C178.536 164.634 179.198 164.769 179.728 165.04C180.263 165.304 180.694 165.637 181.02 166.037C181.353 166.431 181.605 166.819 181.777 167.2H181.897V160.091H185.821V179H181.943V176.729H181.777C181.593 177.123 181.331 177.513 180.992 177.901C180.66 178.283 180.226 178.6 179.691 178.852C179.161 179.105 178.515 179.231 177.752 179.231ZM178.998 176.101C179.632 176.101 180.168 175.929 180.605 175.584C181.048 175.233 181.386 174.744 181.62 174.116C181.86 173.488 181.98 172.752 181.98 171.909C181.98 171.066 181.863 170.333 181.63 169.712C181.396 169.09 181.057 168.61 180.614 168.271C180.171 167.933 179.632 167.763 178.998 167.763C178.352 167.763 177.807 167.939 177.364 168.29C176.921 168.641 176.585 169.127 176.358 169.749C176.13 170.37 176.016 171.09 176.016 171.909C176.016 172.734 176.13 173.463 176.358 174.097C176.591 174.725 176.927 175.218 177.364 175.575C177.807 175.925 178.352 176.101 178.998 176.101ZM200.908 179.277C199.474 179.277 198.234 178.972 197.187 178.363C196.147 177.747 195.344 176.892 194.778 175.796C194.211 174.694 193.928 173.417 193.928 171.964C193.928 170.5 194.211 169.219 194.778 168.124C195.344 167.022 196.147 166.166 197.187 165.557C198.234 164.941 199.474 164.634 200.908 164.634C202.343 164.634 203.58 164.941 204.62 165.557C205.666 166.166 206.473 167.022 207.039 168.124C207.605 169.219 207.888 170.5 207.888 171.964C207.888 173.417 207.605 174.694 207.039 175.796C206.473 176.892 205.666 177.747 204.62 178.363C203.58 178.972 202.343 179.277 200.908 179.277ZM200.927 176.23C201.579 176.23 202.124 176.045 202.561 175.676C202.998 175.301 203.327 174.79 203.549 174.143C203.777 173.497 203.891 172.762 203.891 171.937C203.891 171.112 203.777 170.376 203.549 169.73C203.327 169.084 202.998 168.573 202.561 168.197C202.124 167.822 201.579 167.634 200.927 167.634C200.268 167.634 199.714 167.822 199.265 168.197C198.822 168.573 198.486 169.084 198.259 169.73C198.037 170.376 197.926 171.112 197.926 171.937C197.926 172.762 198.037 173.497 198.259 174.143C198.486 174.79 198.822 175.301 199.265 175.676C199.714 176.045 200.268 176.23 200.927 176.23ZM217.703 164.818V167.773H209.163V164.818H217.703ZM211.102 161.42H215.035V174.642C215.035 175.005 215.09 175.288 215.201 175.491C215.312 175.688 215.466 175.827 215.663 175.907C215.866 175.987 216.1 176.027 216.365 176.027C216.549 176.027 216.734 176.012 216.919 175.981C217.103 175.944 217.245 175.916 217.343 175.898L217.962 178.825C217.765 178.886 217.488 178.957 217.131 179.037C216.774 179.123 216.34 179.175 215.829 179.194C214.881 179.231 214.05 179.105 213.336 178.815C212.628 178.526 212.077 178.077 211.683 177.467C211.29 176.858 211.096 176.089 211.102 175.159V161.42ZM224.217 170.801V179H220.284V160.091H224.107V167.32H224.273C224.593 166.483 225.11 165.828 225.824 165.354C226.538 164.874 227.434 164.634 228.511 164.634C229.496 164.634 230.354 164.849 231.087 165.28C231.825 165.705 232.398 166.317 232.804 167.117C233.216 167.911 233.42 168.862 233.413 169.97V179H229.48V170.672C229.486 169.798 229.265 169.118 228.815 168.631C228.372 168.145 227.751 167.902 226.95 167.902C226.415 167.902 225.941 168.016 225.528 168.244C225.122 168.471 224.802 168.804 224.568 169.241C224.341 169.672 224.224 170.192 224.217 170.801ZM242.686 179.277C241.227 179.277 239.971 178.982 238.919 178.391C237.872 177.794 237.066 176.95 236.5 175.861C235.933 174.765 235.65 173.469 235.65 171.974C235.65 170.515 235.933 169.235 236.5 168.133C237.066 167.031 237.863 166.172 238.891 165.557C239.925 164.941 241.138 164.634 242.529 164.634C243.464 164.634 244.335 164.784 245.142 165.086C245.954 165.381 246.662 165.828 247.265 166.425C247.875 167.022 248.349 167.773 248.687 168.678C249.026 169.576 249.195 170.629 249.195 171.835V172.915H237.22V170.478H245.493C245.493 169.912 245.37 169.41 245.123 168.973C244.877 168.536 244.536 168.194 244.098 167.948C243.668 167.696 243.166 167.57 242.594 167.57C241.996 167.57 241.467 167.708 241.005 167.985C240.55 168.256 240.193 168.622 239.934 169.084C239.676 169.539 239.544 170.047 239.537 170.607V172.925C239.537 173.626 239.667 174.233 239.925 174.744C240.19 175.254 240.562 175.648 241.042 175.925C241.523 176.202 242.092 176.341 242.75 176.341C243.188 176.341 243.588 176.279 243.951 176.156C244.314 176.033 244.625 175.848 244.883 175.602C245.142 175.356 245.339 175.054 245.474 174.697L249.112 174.938C248.927 175.812 248.549 176.575 247.976 177.227C247.41 177.874 246.678 178.378 245.779 178.741C244.886 179.098 243.855 179.277 242.686 179.277ZM251.476 179V164.818H255.289V167.293H255.437C255.695 166.412 256.129 165.748 256.739 165.298C257.348 164.843 258.05 164.615 258.844 164.615C259.041 164.615 259.253 164.627 259.481 164.652C259.709 164.677 259.909 164.71 260.081 164.754V168.244C259.896 168.188 259.641 168.139 259.315 168.096C258.988 168.053 258.69 168.031 258.419 168.031C257.84 168.031 257.323 168.157 256.868 168.41C256.419 168.656 256.062 169.001 255.797 169.444C255.538 169.887 255.409 170.398 255.409 170.977V179H251.476ZM273.949 184.614C272.675 184.614 271.583 184.438 270.672 184.087C269.767 183.743 269.047 183.272 268.511 182.675C267.976 182.078 267.628 181.407 267.468 180.662L271.106 180.173C271.216 180.456 271.392 180.72 271.632 180.967C271.872 181.213 272.189 181.41 272.583 181.558C272.983 181.711 273.469 181.788 274.042 181.788C274.897 181.788 275.602 181.579 276.156 181.161C276.716 180.748 276.996 180.056 276.996 179.083V176.489H276.83C276.658 176.883 276.399 177.255 276.054 177.606C275.71 177.957 275.267 178.243 274.725 178.464C274.183 178.686 273.537 178.797 272.786 178.797C271.721 178.797 270.752 178.551 269.878 178.058C269.01 177.56 268.317 176.799 267.8 175.778C267.289 174.75 267.034 173.451 267.034 171.881C267.034 170.275 267.295 168.933 267.819 167.856C268.342 166.779 269.037 165.972 269.905 165.437C270.779 164.901 271.736 164.634 272.777 164.634C273.571 164.634 274.236 164.769 274.771 165.04C275.307 165.304 275.737 165.637 276.064 166.037C276.396 166.431 276.651 166.819 276.83 167.2H276.978V164.818H280.883V179.138C280.883 180.345 280.588 181.354 279.997 182.167C279.406 182.979 278.587 183.589 277.541 183.995C276.501 184.407 275.303 184.614 273.949 184.614ZM274.032 175.842C274.666 175.842 275.202 175.685 275.639 175.371C276.082 175.051 276.421 174.596 276.655 174.005C276.895 173.408 277.015 172.694 277.015 171.863C277.015 171.032 276.898 170.312 276.664 169.702C276.43 169.087 276.091 168.61 275.648 168.271C275.205 167.933 274.666 167.763 274.032 167.763C273.386 167.763 272.841 167.939 272.398 168.29C271.955 168.634 271.62 169.115 271.392 169.73C271.164 170.346 271.05 171.057 271.05 171.863C271.05 172.682 271.164 173.389 271.392 173.987C271.626 174.577 271.961 175.036 272.398 175.362C272.841 175.682 273.386 175.842 274.032 175.842ZM283.727 179V164.818H287.54V167.293H287.688C287.947 166.412 288.381 165.748 288.99 165.298C289.599 164.843 290.301 164.615 291.095 164.615C291.292 164.615 291.504 164.627 291.732 164.652C291.96 164.677 292.16 164.71 292.332 164.754V168.244C292.148 168.188 291.892 168.139 291.566 168.096C291.24 168.053 290.941 168.031 290.67 168.031C290.092 168.031 289.575 168.157 289.119 168.41C288.67 168.656 288.313 169.001 288.048 169.444C287.79 169.887 287.66 170.398 287.66 170.977V179H283.727ZM299.883 179.277C298.424 179.277 297.168 178.982 296.116 178.391C295.069 177.794 294.263 176.95 293.697 175.861C293.13 174.765 292.847 173.469 292.847 171.974C292.847 170.515 293.13 169.235 293.697 168.133C294.263 167.031 295.06 166.172 296.088 165.557C297.122 164.941 298.335 164.634 299.726 164.634C300.661 164.634 301.532 164.784 302.339 165.086C303.151 165.381 303.859 165.828 304.462 166.425C305.072 167.022 305.546 167.773 305.884 168.678C306.223 169.576 306.392 170.629 306.392 171.835V172.915H294.417V170.478H302.69C302.69 169.912 302.567 169.41 302.32 168.973C302.074 168.536 301.732 168.194 301.295 167.948C300.865 167.696 300.363 167.57 299.79 167.57C299.193 167.57 298.664 167.708 298.202 167.985C297.747 168.256 297.39 168.622 297.131 169.084C296.873 169.539 296.741 170.047 296.734 170.607V172.925C296.734 173.626 296.864 174.233 297.122 174.744C297.387 175.254 297.759 175.648 298.239 175.925C298.719 176.202 299.289 176.341 299.947 176.341C300.384 176.341 300.785 176.279 301.148 176.156C301.511 176.033 301.822 175.848 302.08 175.602C302.339 175.356 302.536 175.054 302.671 174.697L306.309 174.938C306.124 175.812 305.746 176.575 305.173 177.227C304.607 177.874 303.875 178.378 302.976 178.741C302.083 179.098 301.052 179.277 299.883 179.277ZM315.136 179.277C313.677 179.277 312.421 178.982 311.369 178.391C310.322 177.794 309.516 176.95 308.95 175.861C308.384 174.765 308.1 173.469 308.1 171.974C308.1 170.515 308.384 169.235 308.95 168.133C309.516 167.031 310.313 166.172 311.341 165.557C312.375 164.941 313.588 164.634 314.979 164.634C315.915 164.634 316.786 164.784 317.592 165.086C318.404 165.381 319.112 165.828 319.715 166.425C320.325 167.022 320.799 167.773 321.137 168.678C321.476 169.576 321.645 170.629 321.645 171.835V172.915H309.67V170.478H317.943C317.943 169.912 317.82 169.41 317.573 168.973C317.327 168.536 316.986 168.194 316.549 167.948C316.118 167.696 315.616 167.57 315.044 167.57C314.446 167.57 313.917 167.708 313.455 167.985C313 168.256 312.643 168.622 312.384 169.084C312.126 169.539 311.994 170.047 311.987 170.607V172.925C311.987 173.626 312.117 174.233 312.375 174.744C312.64 175.254 313.012 175.648 313.492 175.925C313.973 176.202 314.542 176.341 315.201 176.341C315.638 176.341 316.038 176.279 316.401 176.156C316.764 176.033 317.075 175.848 317.333 175.602C317.592 175.356 317.789 175.054 317.924 174.697L321.562 174.938C321.377 175.812 320.999 176.575 320.426 177.227C319.86 177.874 319.128 178.378 318.229 178.741C317.336 179.098 316.305 179.277 315.136 179.277ZM327.859 170.801V179H323.926V164.818H327.674V167.32H327.841C328.155 166.496 328.681 165.843 329.419 165.363C330.158 164.877 331.054 164.634 332.106 164.634C333.091 164.634 333.95 164.849 334.682 165.28C335.415 165.711 335.984 166.326 336.39 167.126C336.797 167.92 337 168.868 337 169.97V179H333.066V170.672C333.073 169.804 332.851 169.127 332.402 168.641C331.952 168.148 331.334 167.902 330.546 167.902C330.017 167.902 329.549 168.016 329.142 168.244C328.742 168.471 328.428 168.804 328.201 169.241C327.979 169.672 327.865 170.192 327.859 170.801ZM345.545 184.318V164.818H349.423V167.2H349.599C349.771 166.819 350.02 166.431 350.346 166.037C350.679 165.637 351.11 165.304 351.639 165.04C352.175 164.769 352.839 164.634 353.633 164.634C354.667 164.634 355.622 164.904 356.496 165.446C357.37 165.982 358.068 166.791 358.591 167.874C359.115 168.951 359.376 170.303 359.376 171.928C359.376 173.509 359.121 174.845 358.61 175.935C358.105 177.018 357.416 177.84 356.542 178.4C355.674 178.954 354.701 179.231 353.624 179.231C352.861 179.231 352.211 179.105 351.676 178.852C351.147 178.6 350.713 178.283 350.374 177.901C350.036 177.513 349.777 177.123 349.599 176.729H349.479V184.318H345.545ZM349.395 171.909C349.395 172.752 349.512 173.488 349.746 174.116C349.98 174.744 350.319 175.233 350.762 175.584C351.205 175.929 351.744 176.101 352.378 176.101C353.018 176.101 353.559 175.925 354.003 175.575C354.446 175.218 354.781 174.725 355.009 174.097C355.243 173.463 355.36 172.734 355.36 171.909C355.36 171.09 355.246 170.37 355.018 169.749C354.791 169.127 354.455 168.641 354.012 168.29C353.569 167.939 353.024 167.763 352.378 167.763C351.738 167.763 351.196 167.933 350.753 168.271C350.316 168.61 349.98 169.09 349.746 169.712C349.512 170.333 349.395 171.066 349.395 171.909ZM365.646 160.091V179H361.712V160.091H365.646ZM372.554 179.268C371.65 179.268 370.843 179.111 370.135 178.797C369.428 178.477 368.867 178.006 368.455 177.384C368.049 176.756 367.846 175.975 367.846 175.039C367.846 174.251 367.99 173.589 368.28 173.054C368.569 172.518 368.963 172.088 369.461 171.761C369.96 171.435 370.526 171.189 371.16 171.023C371.8 170.857 372.471 170.74 373.173 170.672C373.998 170.586 374.663 170.506 375.167 170.432C375.672 170.352 376.038 170.235 376.266 170.081C376.494 169.927 376.608 169.699 376.608 169.398V169.342C376.608 168.758 376.423 168.305 376.054 167.985C375.691 167.665 375.173 167.505 374.503 167.505C373.795 167.505 373.231 167.662 372.813 167.976C372.394 168.284 372.117 168.671 371.982 169.139L368.344 168.844C368.529 167.982 368.892 167.237 369.434 166.609C369.975 165.975 370.674 165.489 371.53 165.151C372.391 164.806 373.388 164.634 374.521 164.634C375.309 164.634 376.063 164.726 376.783 164.911C377.509 165.095 378.153 165.381 378.713 165.769C379.279 166.157 379.725 166.656 380.052 167.265C380.378 167.868 380.541 168.591 380.541 169.435V179H376.811V177.033H376.7C376.472 177.477 376.168 177.867 375.786 178.206C375.404 178.538 374.946 178.8 374.41 178.991C373.875 179.175 373.256 179.268 372.554 179.268ZM373.681 176.553C374.259 176.553 374.77 176.439 375.213 176.212C375.657 175.978 376.004 175.664 376.257 175.27C376.509 174.876 376.635 174.43 376.635 173.931V172.426C376.512 172.506 376.343 172.58 376.128 172.648C375.918 172.709 375.681 172.768 375.417 172.823C375.152 172.872 374.887 172.919 374.623 172.962C374.358 172.999 374.118 173.032 373.902 173.063C373.441 173.131 373.038 173.239 372.693 173.386C372.348 173.534 372.08 173.734 371.89 173.987C371.699 174.233 371.603 174.54 371.603 174.91C371.603 175.445 371.797 175.855 372.185 176.138C372.579 176.415 373.078 176.553 373.681 176.553ZM387.24 170.801V179H383.306V164.818H387.055V167.32H387.221C387.535 166.496 388.061 165.843 388.8 165.363C389.539 164.877 390.434 164.634 391.487 164.634C392.472 164.634 393.33 164.849 394.063 165.28C394.795 165.711 395.365 166.326 395.771 167.126C396.177 167.92 396.38 168.868 396.38 169.97V179H392.447V170.672C392.453 169.804 392.232 169.127 391.782 168.641C391.333 168.148 390.714 167.902 389.926 167.902C389.397 167.902 388.929 168.016 388.523 168.244C388.123 168.471 387.809 168.804 387.581 169.241C387.36 169.672 387.246 170.192 387.24 170.801ZM406.738 164.818V167.773H398.197V164.818H406.738ZM400.136 161.42H404.069V174.642C404.069 175.005 404.125 175.288 404.235 175.491C404.346 175.688 404.5 175.827 404.697 175.907C404.9 175.987 405.134 176.027 405.399 176.027C405.583 176.027 405.768 176.012 405.953 175.981C406.137 175.944 406.279 175.916 406.377 175.898L406.996 178.825C406.799 178.886 406.522 178.957 406.165 179.037C405.808 179.123 405.374 179.175 404.863 179.194C403.915 179.231 403.084 179.105 402.37 178.815C401.663 178.526 401.112 178.077 400.718 177.467C400.324 176.858 400.13 176.089 400.136 175.159V161.42ZM420.636 168.862L417.035 169.084C416.973 168.776 416.841 168.499 416.638 168.253C416.435 168 416.167 167.8 415.835 167.653C415.508 167.499 415.117 167.422 414.662 167.422C414.053 167.422 413.539 167.551 413.12 167.81C412.701 168.062 412.492 168.401 412.492 168.825C412.492 169.164 412.628 169.45 412.898 169.684C413.169 169.918 413.634 170.106 414.293 170.247L416.859 170.764C418.238 171.047 419.266 171.503 419.943 172.131C420.62 172.759 420.959 173.583 420.959 174.605C420.959 175.535 420.685 176.35 420.137 177.052C419.595 177.754 418.851 178.301 417.903 178.695C416.961 179.083 415.875 179.277 414.643 179.277C412.766 179.277 411.27 178.886 410.156 178.104C409.048 177.317 408.399 176.246 408.208 174.891L412.077 174.688C412.194 175.261 412.477 175.698 412.926 175.999C413.375 176.295 413.951 176.442 414.653 176.442C415.342 176.442 415.896 176.31 416.315 176.045C416.739 175.775 416.955 175.427 416.961 175.002C416.955 174.645 416.804 174.353 416.509 174.125C416.213 173.891 415.758 173.713 415.142 173.589L412.686 173.1C411.301 172.823 410.27 172.343 409.593 171.66C408.922 170.977 408.587 170.106 408.587 169.047C408.587 168.136 408.833 167.351 409.325 166.692C409.824 166.034 410.523 165.526 411.421 165.169C412.326 164.812 413.385 164.634 414.597 164.634C416.389 164.634 417.798 165.012 418.826 165.769C419.86 166.526 420.463 167.557 420.636 168.862ZM91.592 236.318V216.818H95.4698V219.2H95.6453C95.8176 218.819 96.0669 218.431 96.3931 218.037C96.7255 217.637 97.1564 217.304 97.6858 217.04C98.2213 216.769 98.886 216.634 99.6801 216.634C100.714 216.634 101.668 216.904 102.542 217.446C103.416 217.982 104.115 218.791 104.638 219.874C105.161 220.951 105.423 222.303 105.423 223.928C105.423 225.509 105.168 226.845 104.657 227.935C104.152 229.018 103.463 229.84 102.588 230.4C101.721 230.954 100.748 231.231 99.6708 231.231C98.9076 231.231 98.2582 231.105 97.7227 230.852C97.1933 230.6 96.7594 230.283 96.4208 229.901C96.0823 229.513 95.8238 229.123 95.6453 228.729H95.5252V236.318H91.592ZM95.4421 223.909C95.4421 224.752 95.5591 225.488 95.793 226.116C96.0269 226.744 96.3654 227.233 96.8086 227.584C97.2518 227.929 97.7904 228.101 98.4244 228.101C99.0645 228.101 99.6062 227.925 100.049 227.575C100.493 227.218 100.828 226.725 101.056 226.097C101.29 225.463 101.407 224.734 101.407 223.909C101.407 223.09 101.293 222.37 101.065 221.749C100.837 221.127 100.502 220.641 100.059 220.29C99.6154 219.939 99.0707 219.763 98.4244 219.763C97.7842 219.763 97.2426 219.933 96.7994 220.271C96.3624 220.61 96.0269 221.09 95.793 221.712C95.5591 222.333 95.4421 223.066 95.4421 223.909ZM107.759 231V216.818H111.572V219.293H111.72C111.979 218.412 112.413 217.748 113.022 217.298C113.631 216.843 114.333 216.615 115.127 216.615C115.324 216.615 115.536 216.627 115.764 216.652C115.992 216.677 116.192 216.71 116.364 216.754V220.244C116.18 220.188 115.924 220.139 115.598 220.096C115.272 220.053 114.973 220.031 114.702 220.031C114.124 220.031 113.607 220.157 113.151 220.41C112.702 220.656 112.345 221.001 112.08 221.444C111.822 221.887 111.692 222.398 111.692 222.977V231H107.759ZM123.859 231.277C122.425 231.277 121.185 230.972 120.138 230.363C119.098 229.747 118.295 228.892 117.729 227.796C117.162 226.694 116.879 225.417 116.879 223.964C116.879 222.5 117.162 221.219 117.729 220.124C118.295 219.022 119.098 218.166 120.138 217.557C121.185 216.941 122.425 216.634 123.859 216.634C125.294 216.634 126.531 216.941 127.571 217.557C128.617 218.166 129.424 219.022 129.99 220.124C130.556 221.219 130.839 222.5 130.839 223.964C130.839 225.417 130.556 226.694 129.99 227.796C129.424 228.892 128.617 229.747 127.571 230.363C126.531 230.972 125.294 231.277 123.859 231.277ZM123.878 228.23C124.53 228.23 125.075 228.045 125.512 227.676C125.949 227.301 126.278 226.79 126.5 226.143C126.728 225.497 126.842 224.762 126.842 223.937C126.842 223.112 126.728 222.376 126.5 221.73C126.278 221.084 125.949 220.573 125.512 220.197C125.075 219.822 124.53 219.634 123.878 219.634C123.219 219.634 122.665 219.822 122.216 220.197C121.773 220.573 121.437 221.084 121.209 221.73C120.988 222.376 120.877 223.112 120.877 223.937C120.877 224.762 120.988 225.497 121.209 226.143C121.437 226.79 121.773 227.301 122.216 227.676C122.665 228.045 123.219 228.23 123.878 228.23ZM138.337 231.231C137.26 231.231 136.284 230.954 135.41 230.4C134.542 229.84 133.853 229.018 133.342 227.935C132.837 226.845 132.585 225.509 132.585 223.928C132.585 222.303 132.846 220.951 133.369 219.874C133.893 218.791 134.588 217.982 135.456 217.446C136.33 216.904 137.287 216.634 138.328 216.634C139.122 216.634 139.783 216.769 140.313 217.04C140.848 217.304 141.279 217.637 141.605 218.037C141.938 218.431 142.19 218.819 142.362 219.2H142.482V212.091H146.406V231H142.529V228.729H142.362C142.178 229.123 141.916 229.513 141.578 229.901C141.245 230.283 140.811 230.6 140.276 230.852C139.746 231.105 139.1 231.231 138.337 231.231ZM139.583 228.101C140.217 228.101 140.753 227.929 141.19 227.584C141.633 227.233 141.972 226.744 142.205 226.116C142.445 225.488 142.565 224.752 142.565 223.909C142.565 223.066 142.449 222.333 142.215 221.712C141.981 221.09 141.642 220.61 141.199 220.271C140.756 219.933 140.217 219.763 139.583 219.763C138.937 219.763 138.392 219.939 137.949 220.29C137.506 220.641 137.17 221.127 136.943 221.749C136.715 222.37 136.601 223.09 136.601 223.909C136.601 224.734 136.715 225.463 136.943 226.097C137.177 226.725 137.512 227.218 137.949 227.575C138.392 227.925 138.937 228.101 139.583 228.101ZM158.449 224.962V216.818H162.382V231H158.606V228.424H158.458C158.138 229.255 157.605 229.923 156.861 230.428C156.122 230.932 155.22 231.185 154.155 231.185C153.207 231.185 152.373 230.969 151.653 230.538C150.933 230.107 150.37 229.495 149.964 228.701C149.564 227.907 149.36 226.956 149.354 225.848V216.818H153.287V225.146C153.294 225.983 153.518 226.645 153.961 227.131C154.405 227.618 154.999 227.861 155.743 227.861C156.217 227.861 156.661 227.753 157.073 227.538C157.485 227.316 157.818 226.99 158.07 226.559C158.329 226.128 158.455 225.596 158.449 224.962ZM171.65 231.277C170.197 231.277 168.948 230.969 167.901 230.354C166.861 229.732 166.061 228.87 165.501 227.768C164.947 226.667 164.67 225.399 164.67 223.964C164.67 222.512 164.95 221.238 165.51 220.142C166.076 219.04 166.879 218.182 167.92 217.566C168.96 216.944 170.197 216.634 171.631 216.634C172.869 216.634 173.952 216.858 174.881 217.308C175.811 217.757 176.546 218.388 177.088 219.2C177.63 220.013 177.928 220.967 177.984 222.062H174.272C174.167 221.355 173.89 220.785 173.441 220.354C172.998 219.917 172.416 219.699 171.696 219.699C171.087 219.699 170.554 219.865 170.099 220.197C169.649 220.524 169.298 221.001 169.046 221.629C168.794 222.256 168.668 223.017 168.668 223.909C168.668 224.814 168.791 225.583 169.037 226.217C169.289 226.851 169.643 227.335 170.099 227.667C170.554 227.999 171.087 228.165 171.696 228.165C172.145 228.165 172.548 228.073 172.905 227.888C173.269 227.704 173.567 227.436 173.801 227.085C174.041 226.728 174.198 226.3 174.272 225.802H177.984C177.922 226.885 177.627 227.839 177.097 228.664C176.574 229.483 175.851 230.123 174.927 230.585C174.004 231.046 172.912 231.277 171.65 231.277ZM186.679 231.277C185.22 231.277 183.964 230.982 182.912 230.391C181.865 229.794 181.059 228.95 180.493 227.861C179.927 226.765 179.643 225.469 179.643 223.974C179.643 222.515 179.927 221.235 180.493 220.133C181.059 219.031 181.856 218.172 182.884 217.557C183.918 216.941 185.131 216.634 186.522 216.634C187.458 216.634 188.329 216.784 189.135 217.086C189.947 217.381 190.655 217.828 191.258 218.425C191.868 219.022 192.342 219.773 192.68 220.678C193.019 221.576 193.188 222.629 193.188 223.835V224.915H181.213V222.478H189.486C189.486 221.912 189.363 221.41 189.116 220.973C188.87 220.536 188.529 220.194 188.092 219.948C187.661 219.696 187.159 219.57 186.587 219.57C185.99 219.57 185.46 219.708 184.999 219.985C184.543 220.256 184.186 220.622 183.927 221.084C183.669 221.539 183.537 222.047 183.53 222.607V224.925C183.53 225.626 183.66 226.233 183.918 226.744C184.183 227.254 184.555 227.648 185.035 227.925C185.516 228.202 186.085 228.341 186.744 228.341C187.181 228.341 187.581 228.279 187.944 228.156C188.307 228.033 188.618 227.848 188.876 227.602C189.135 227.356 189.332 227.054 189.467 226.697L193.105 226.938C192.92 227.812 192.542 228.575 191.969 229.227C191.403 229.874 190.671 230.378 189.772 230.741C188.879 231.098 187.848 231.277 186.679 231.277ZM207.608 231.277C206.174 231.277 204.934 230.972 203.887 230.363C202.847 229.747 202.044 228.892 201.477 227.796C200.911 226.694 200.628 225.417 200.628 223.964C200.628 222.5 200.911 221.219 201.477 220.124C202.044 219.022 202.847 218.166 203.887 217.557C204.934 216.941 206.174 216.634 207.608 216.634C209.042 216.634 210.28 216.941 211.32 217.557C212.366 218.166 213.173 219.022 213.739 220.124C214.305 221.219 214.588 222.5 214.588 223.964C214.588 225.417 214.305 226.694 213.739 227.796C213.173 228.892 212.366 229.747 211.32 230.363C210.28 230.972 209.042 231.277 207.608 231.277ZM207.627 228.23C208.279 228.23 208.824 228.045 209.261 227.676C209.698 227.301 210.027 226.79 210.249 226.143C210.477 225.497 210.59 224.762 210.59 223.937C210.59 223.112 210.477 222.376 210.249 221.73C210.027 221.084 209.698 220.573 209.261 220.197C208.824 219.822 208.279 219.634 207.627 219.634C206.968 219.634 206.414 219.822 205.965 220.197C205.522 220.573 205.186 221.084 204.958 221.73C204.737 222.376 204.626 223.112 204.626 223.937C204.626 224.762 204.737 225.497 204.958 226.143C205.186 226.79 205.522 227.301 205.965 227.676C206.414 228.045 206.968 228.23 207.627 228.23ZM219.639 216.818L222.243 221.776L224.911 216.818H228.946L224.837 223.909L229.057 231H225.04L222.243 226.097L219.491 231H215.429L219.639 223.909L215.576 216.818H219.639ZM233.424 236.318C232.925 236.318 232.458 236.278 232.021 236.198C231.59 236.124 231.233 236.029 230.95 235.912L231.836 232.976C232.298 233.117 232.713 233.194 233.082 233.207C233.458 233.219 233.781 233.133 234.052 232.948C234.329 232.763 234.553 232.45 234.726 232.006L234.957 231.406L229.869 216.818H234.006L236.942 227.233H237.089L240.053 216.818H244.217L238.705 232.533C238.441 233.296 238.08 233.961 237.625 234.527C237.176 235.099 236.606 235.54 235.917 235.847C235.227 236.161 234.396 236.318 233.424 236.318ZM251.876 236.614C250.602 236.614 249.51 236.438 248.599 236.087C247.694 235.743 246.974 235.272 246.438 234.675C245.903 234.078 245.555 233.407 245.395 232.662L249.032 232.173C249.143 232.456 249.319 232.72 249.559 232.967C249.799 233.213 250.116 233.41 250.51 233.558C250.91 233.711 251.396 233.788 251.969 233.788C252.824 233.788 253.529 233.579 254.083 233.161C254.643 232.748 254.923 232.056 254.923 231.083V228.489H254.757C254.585 228.883 254.326 229.255 253.981 229.606C253.637 229.957 253.193 230.243 252.652 230.464C252.11 230.686 251.464 230.797 250.713 230.797C249.648 230.797 248.679 230.551 247.804 230.058C246.937 229.56 246.244 228.799 245.727 227.778C245.216 226.75 244.961 225.451 244.961 223.881C244.961 222.275 245.222 220.933 245.746 219.856C246.269 218.779 246.964 217.972 247.832 217.437C248.706 216.901 249.663 216.634 250.704 216.634C251.498 216.634 252.162 216.769 252.698 217.04C253.233 217.304 253.664 217.637 253.991 218.037C254.323 218.431 254.578 218.819 254.757 219.2H254.905V216.818H258.81V231.138C258.81 232.345 258.515 233.354 257.924 234.167C257.333 234.979 256.514 235.589 255.468 235.995C254.428 236.407 253.23 236.614 251.876 236.614ZM251.959 227.842C252.593 227.842 253.129 227.685 253.566 227.371C254.009 227.051 254.348 226.596 254.581 226.005C254.822 225.408 254.942 224.694 254.942 223.863C254.942 223.032 254.825 222.312 254.591 221.702C254.357 221.087 254.018 220.61 253.575 220.271C253.132 219.933 252.593 219.763 251.959 219.763C251.313 219.763 250.768 219.939 250.325 220.29C249.882 220.634 249.546 221.115 249.319 221.73C249.091 222.346 248.977 223.057 248.977 223.863C248.977 224.682 249.091 225.389 249.319 225.987C249.553 226.577 249.888 227.036 250.325 227.362C250.768 227.682 251.313 227.842 251.959 227.842ZM268.117 231.277C266.658 231.277 265.403 230.982 264.35 230.391C263.304 229.794 262.497 228.95 261.931 227.861C261.365 226.765 261.082 225.469 261.082 223.974C261.082 222.515 261.365 221.235 261.931 220.133C262.497 219.031 263.295 218.172 264.322 217.557C265.357 216.941 266.569 216.634 267.96 216.634C268.896 216.634 269.767 216.784 270.573 217.086C271.386 217.381 272.094 217.828 272.697 218.425C273.306 219.022 273.78 219.773 274.119 220.678C274.457 221.576 274.626 222.629 274.626 223.835V224.915H262.651V222.478H270.924C270.924 221.912 270.801 221.41 270.555 220.973C270.308 220.536 269.967 220.194 269.53 219.948C269.099 219.696 268.597 219.57 268.025 219.57C267.428 219.57 266.898 219.708 266.437 219.985C265.981 220.256 265.624 220.622 265.366 221.084C265.107 221.539 264.975 222.047 264.969 222.607V224.925C264.969 225.626 265.098 226.233 265.357 226.744C265.621 227.254 265.994 227.648 266.474 227.925C266.954 228.202 267.523 228.341 268.182 228.341C268.619 228.341 269.019 228.279 269.382 228.156C269.745 228.033 270.056 227.848 270.315 227.602C270.573 227.356 270.77 227.054 270.906 226.697L274.543 226.938C274.359 227.812 273.98 228.575 273.408 229.227C272.841 229.874 272.109 230.378 271.21 230.741C270.318 231.098 269.287 231.277 268.117 231.277ZM280.84 222.801V231H276.907V216.818H280.656V219.32H280.822C281.136 218.496 281.662 217.843 282.401 217.363C283.139 216.877 284.035 216.634 285.088 216.634C286.072 216.634 286.931 216.849 287.664 217.28C288.396 217.711 288.965 218.326 289.372 219.126C289.778 219.92 289.981 220.868 289.981 221.97V231H286.048V222.672C286.054 221.804 285.832 221.127 285.383 220.641C284.934 220.148 284.315 219.902 283.527 219.902C282.998 219.902 282.53 220.016 282.124 220.244C281.724 220.471 281.41 220.804 281.182 221.241C280.96 221.672 280.847 222.192 280.84 222.801ZM297.07 228.415L296.968 229.43C296.888 230.243 296.734 231.052 296.507 231.859C296.285 232.671 296.051 233.407 295.805 234.065C295.565 234.724 295.371 235.241 295.223 235.616H292.675C292.767 235.253 292.894 234.746 293.054 234.093C293.214 233.447 293.364 232.72 293.506 231.914C293.648 231.108 293.737 230.286 293.774 229.449L293.82 228.415H297.07ZM312.766 216.818V219.773H304.226V216.818H312.766ZM306.165 213.42H310.098V226.642C310.098 227.005 310.153 227.288 310.264 227.491C310.375 227.688 310.529 227.827 310.726 227.907C310.929 227.987 311.163 228.027 311.428 228.027C311.612 228.027 311.797 228.012 311.982 227.981C312.166 227.944 312.308 227.916 312.406 227.898L313.025 230.825C312.828 230.886 312.551 230.957 312.194 231.037C311.837 231.123 311.403 231.175 310.892 231.194C309.944 231.231 309.113 231.105 308.399 230.815C307.691 230.526 307.14 230.077 306.746 229.467C306.353 228.858 306.159 228.089 306.165 227.159V213.42ZM319.28 222.801V231H315.347V212.091H319.17V219.32H319.336C319.656 218.483 320.173 217.828 320.887 217.354C321.601 216.874 322.497 216.634 323.574 216.634C324.559 216.634 325.417 216.849 326.15 217.28C326.888 217.705 327.461 218.317 327.867 219.117C328.279 219.911 328.483 220.862 328.476 221.97V231H324.543V222.672C324.549 221.798 324.328 221.118 323.878 220.631C323.435 220.145 322.814 219.902 322.013 219.902C321.478 219.902 321.004 220.016 320.592 220.244C320.185 220.471 319.865 220.804 319.631 221.241C319.404 221.672 319.287 222.192 319.28 222.801ZM337.749 231.277C336.29 231.277 335.034 230.982 333.982 230.391C332.935 229.794 332.129 228.95 331.563 227.861C330.996 226.765 330.713 225.469 330.713 223.974C330.713 222.515 330.996 221.235 331.563 220.133C332.129 219.031 332.926 218.172 333.954 217.557C334.988 216.941 336.201 216.634 337.592 216.634C338.528 216.634 339.398 216.784 340.205 217.086C341.017 217.381 341.725 217.828 342.328 218.425C342.938 219.022 343.412 219.773 343.75 220.678C344.089 221.576 344.258 222.629 344.258 223.835V224.915H332.283V222.478H340.556C340.556 221.912 340.433 221.41 340.186 220.973C339.94 220.536 339.599 220.194 339.161 219.948C338.731 219.696 338.229 219.57 337.657 219.57C337.059 219.57 336.53 219.708 336.068 219.985C335.613 220.256 335.256 220.622 334.997 221.084C334.739 221.539 334.607 222.047 334.6 222.607V224.925C334.6 225.626 334.73 226.233 334.988 226.744C335.253 227.254 335.625 227.648 336.105 227.925C336.586 228.202 337.155 228.341 337.813 228.341C338.251 228.341 338.651 228.279 339.014 228.156C339.377 228.033 339.688 227.848 339.946 227.602C340.205 227.356 340.402 227.054 340.537 226.697L344.175 226.938C343.99 227.812 343.612 228.575 343.039 229.227C342.473 229.874 341.741 230.378 340.842 230.741C339.949 231.098 338.918 231.277 337.749 231.277ZM358.66 236.614C357.385 236.614 356.293 236.438 355.382 236.087C354.477 235.743 353.757 235.272 353.221 234.675C352.686 234.078 352.338 233.407 352.178 232.662L355.816 232.173C355.927 232.456 356.102 232.72 356.342 232.967C356.582 233.213 356.899 233.41 357.293 233.558C357.693 233.711 358.18 233.788 358.752 233.788C359.608 233.788 360.312 233.579 360.866 233.161C361.426 232.748 361.707 232.056 361.707 231.083V228.489H361.54C361.368 228.883 361.109 229.255 360.765 229.606C360.42 229.957 359.977 230.243 359.435 230.464C358.894 230.686 358.247 230.797 357.496 230.797C356.431 230.797 355.462 230.551 354.588 230.058C353.72 229.56 353.028 228.799 352.51 227.778C352 226.75 351.744 225.451 351.744 223.881C351.744 222.275 352.006 220.933 352.529 219.856C353.052 218.779 353.748 217.972 354.616 217.437C355.49 216.901 356.447 216.634 357.487 216.634C358.281 216.634 358.946 216.769 359.481 217.04C360.017 217.304 360.448 217.637 360.774 218.037C361.106 218.431 361.362 218.819 361.54 219.2H361.688V216.818H365.594V231.138C365.594 232.345 365.298 233.354 364.707 234.167C364.116 234.979 363.298 235.589 362.251 235.995C361.211 236.407 360.014 236.614 358.66 236.614ZM358.743 227.842C359.377 227.842 359.912 227.685 360.349 227.371C360.792 227.051 361.131 226.596 361.365 226.005C361.605 225.408 361.725 224.694 361.725 223.863C361.725 223.032 361.608 222.312 361.374 221.702C361.14 221.087 360.802 220.61 360.359 220.271C359.915 219.933 359.377 219.763 358.743 219.763C358.096 219.763 357.552 219.939 357.109 220.29C356.665 220.634 356.33 221.115 356.102 221.73C355.874 222.346 355.76 223.057 355.76 223.863C355.76 224.682 355.874 225.389 356.102 225.987C356.336 226.577 356.671 227.036 357.109 227.362C357.552 227.682 358.096 227.842 358.743 227.842ZM372.482 231.268C371.577 231.268 370.77 231.111 370.063 230.797C369.355 230.477 368.795 230.006 368.382 229.384C367.976 228.756 367.773 227.975 367.773 227.039C367.773 226.251 367.917 225.589 368.207 225.054C368.496 224.518 368.89 224.088 369.389 223.761C369.887 223.435 370.453 223.189 371.087 223.023C371.728 222.857 372.398 222.74 373.1 222.672C373.925 222.586 374.59 222.506 375.095 222.432C375.599 222.352 375.965 222.235 376.193 222.081C376.421 221.927 376.535 221.699 376.535 221.398V221.342C376.535 220.758 376.35 220.305 375.981 219.985C375.618 219.665 375.101 219.505 374.43 219.505C373.722 219.505 373.159 219.662 372.74 219.976C372.322 220.284 372.045 220.671 371.909 221.139L368.271 220.844C368.456 219.982 368.819 219.237 369.361 218.609C369.903 217.975 370.601 217.489 371.457 217.151C372.318 216.806 373.316 216.634 374.448 216.634C375.236 216.634 375.99 216.726 376.71 216.911C377.437 217.095 378.08 217.381 378.64 217.769C379.206 218.157 379.653 218.656 379.979 219.265C380.305 219.868 380.468 220.591 380.468 221.435V231H376.738V229.033H376.627C376.399 229.477 376.095 229.867 375.713 230.206C375.331 230.538 374.873 230.8 374.337 230.991C373.802 231.175 373.183 231.268 372.482 231.268ZM373.608 228.553C374.187 228.553 374.697 228.439 375.141 228.212C375.584 227.978 375.932 227.664 376.184 227.27C376.436 226.876 376.563 226.43 376.563 225.931V224.426C376.439 224.506 376.27 224.58 376.055 224.648C375.845 224.709 375.608 224.768 375.344 224.823C375.079 224.872 374.814 224.919 374.55 224.962C374.285 224.999 374.045 225.032 373.83 225.063C373.368 225.131 372.965 225.239 372.62 225.386C372.275 225.534 372.008 225.734 371.817 225.987C371.626 226.233 371.531 226.54 371.531 226.91C371.531 227.445 371.724 227.855 372.112 228.138C372.506 228.415 373.005 228.553 373.608 228.553ZM395.033 220.862L391.432 221.084C391.371 220.776 391.239 220.499 391.035 220.253C390.832 220 390.565 219.8 390.232 219.653C389.906 219.499 389.515 219.422 389.06 219.422C388.45 219.422 387.936 219.551 387.518 219.81C387.099 220.062 386.89 220.401 386.89 220.825C386.89 221.164 387.025 221.45 387.296 221.684C387.567 221.918 388.032 222.106 388.69 222.247L391.257 222.764C392.636 223.047 393.664 223.503 394.341 224.131C395.018 224.759 395.356 225.583 395.356 226.605C395.356 227.535 395.083 228.35 394.535 229.052C393.993 229.754 393.248 230.301 392.3 230.695C391.359 231.083 390.272 231.277 389.041 231.277C387.164 231.277 385.668 230.886 384.554 230.104C383.446 229.317 382.797 228.246 382.606 226.891L386.474 226.688C386.591 227.261 386.874 227.698 387.324 227.999C387.773 228.295 388.349 228.442 389.05 228.442C389.74 228.442 390.294 228.31 390.712 228.045C391.137 227.775 391.352 227.427 391.359 227.002C391.352 226.645 391.202 226.353 390.906 226.125C390.611 225.891 390.155 225.713 389.54 225.589L387.084 225.1C385.699 224.823 384.668 224.343 383.991 223.66C383.32 222.977 382.984 222.106 382.984 221.047C382.984 220.136 383.231 219.351 383.723 218.692C384.222 218.034 384.92 217.526 385.819 217.169C386.724 216.812 387.782 216.634 388.995 216.634C390.786 216.634 392.196 217.012 393.224 217.769C394.258 218.526 394.861 219.557 395.033 220.862ZM103.881 274.801V283H99.9482V268.818H103.697V271.32H103.863C104.177 270.496 104.703 269.843 105.442 269.363C106.18 268.877 107.076 268.634 108.129 268.634C109.113 268.634 109.972 268.849 110.705 269.28C111.437 269.711 112.006 270.326 112.413 271.126C112.819 271.92 113.022 272.868 113.022 273.97V283H109.089V274.672C109.095 273.804 108.873 273.127 108.424 272.641C107.975 272.148 107.356 271.902 106.568 271.902C106.039 271.902 105.571 272.016 105.165 272.244C104.765 272.471 104.451 272.804 104.223 273.241C104.001 273.672 103.888 274.192 103.881 274.801ZM122.299 283.277C120.84 283.277 119.585 282.982 118.532 282.391C117.486 281.794 116.679 280.95 116.113 279.861C115.547 278.765 115.264 277.469 115.264 275.974C115.264 274.515 115.547 273.235 116.113 272.133C116.679 271.031 117.476 270.172 118.504 269.557C119.538 268.941 120.751 268.634 122.142 268.634C123.078 268.634 123.949 268.784 124.755 269.086C125.568 269.381 126.275 269.828 126.879 270.425C127.488 271.022 127.962 271.773 128.3 272.678C128.639 273.576 128.808 274.629 128.808 275.835V276.915H116.833V274.478H125.106C125.106 273.912 124.983 273.41 124.737 272.973C124.49 272.536 124.149 272.194 123.712 271.948C123.281 271.696 122.779 271.57 122.207 271.57C121.61 271.57 121.08 271.708 120.619 271.985C120.163 272.256 119.806 272.622 119.548 273.084C119.289 273.539 119.157 274.047 119.151 274.607V276.925C119.151 277.626 119.28 278.233 119.538 278.744C119.803 279.254 120.175 279.648 120.656 279.925C121.136 280.202 121.705 280.341 122.364 280.341C122.801 280.341 123.201 280.279 123.564 280.156C123.927 280.033 124.238 279.848 124.496 279.602C124.755 279.356 124.952 279.054 125.087 278.697L128.725 278.938C128.541 279.812 128.162 280.575 127.59 281.227C127.023 281.874 126.291 282.378 125.392 282.741C124.5 283.098 123.469 283.277 122.299 283.277ZM137.552 283.277C136.093 283.277 134.838 282.982 133.785 282.391C132.739 281.794 131.932 280.95 131.366 279.861C130.8 278.765 130.517 277.469 130.517 275.974C130.517 274.515 130.8 273.235 131.366 272.133C131.932 271.031 132.729 270.172 133.757 269.557C134.791 268.941 136.004 268.634 137.395 268.634C138.331 268.634 139.202 268.784 140.008 269.086C140.821 269.381 141.528 269.828 142.132 270.425C142.741 271.022 143.215 271.773 143.554 272.678C143.892 273.576 144.061 274.629 144.061 275.835V276.915H132.086V274.478H140.359C140.359 273.912 140.236 273.41 139.99 272.973C139.743 272.536 139.402 272.194 138.965 271.948C138.534 271.696 138.032 271.57 137.46 271.57C136.863 271.57 136.333 271.708 135.872 271.985C135.416 272.256 135.059 272.622 134.801 273.084C134.542 273.539 134.41 274.047 134.404 274.607V276.925C134.404 277.626 134.533 278.233 134.791 278.744C135.056 279.254 135.429 279.648 135.909 279.925C136.389 280.202 136.958 280.341 137.617 280.341C138.054 280.341 138.454 280.279 138.817 280.156C139.18 280.033 139.491 279.848 139.75 279.602C140.008 279.356 140.205 279.054 140.34 278.697L143.978 278.938C143.794 279.812 143.415 280.575 142.843 281.227C142.276 281.874 141.544 282.378 140.645 282.741C139.753 283.098 138.722 283.277 137.552 283.277ZM151.568 283.231C150.491 283.231 149.515 282.954 148.641 282.4C147.773 281.84 147.084 281.018 146.573 279.935C146.068 278.845 145.816 277.509 145.816 275.928C145.816 274.303 146.077 272.951 146.601 271.874C147.124 270.791 147.819 269.982 148.687 269.446C149.561 268.904 150.518 268.634 151.559 268.634C152.353 268.634 153.014 268.769 153.544 269.04C154.079 269.304 154.51 269.637 154.836 270.037C155.169 270.431 155.421 270.819 155.594 271.2H155.714V264.091H159.638V283H155.76V280.729H155.594C155.409 281.123 155.147 281.513 154.809 281.901C154.476 282.283 154.042 282.6 153.507 282.852C152.978 283.105 152.331 283.231 151.568 283.231ZM152.814 280.101C153.448 280.101 153.984 279.929 154.421 279.584C154.864 279.233 155.203 278.744 155.437 278.116C155.677 277.488 155.797 276.752 155.797 275.909C155.797 275.066 155.68 274.333 155.446 273.712C155.212 273.09 154.873 272.61 154.43 272.271C153.987 271.933 153.448 271.763 152.814 271.763C152.168 271.763 151.623 271.939 151.18 272.29C150.737 272.641 150.402 273.127 150.174 273.749C149.946 274.37 149.832 275.09 149.832 275.909C149.832 276.734 149.946 277.463 150.174 278.097C150.408 278.725 150.743 279.218 151.18 279.575C151.623 279.925 152.168 280.101 152.814 280.101ZM169.048 283.277C167.59 283.277 166.334 282.982 165.281 282.391C164.235 281.794 163.429 280.95 162.862 279.861C162.296 278.765 162.013 277.469 162.013 275.974C162.013 274.515 162.296 273.235 162.862 272.133C163.429 271.031 164.226 270.172 165.254 269.557C166.288 268.941 167.5 268.634 168.892 268.634C169.827 268.634 170.698 268.784 171.504 269.086C172.317 269.381 173.025 269.828 173.628 270.425C174.237 271.022 174.711 271.773 175.05 272.678C175.388 273.576 175.558 274.629 175.558 275.835V276.915H163.583V274.478H171.855C171.855 273.912 171.732 273.41 171.486 272.973C171.24 272.536 170.898 272.194 170.461 271.948C170.03 271.696 169.529 271.57 168.956 271.57C168.359 271.57 167.83 271.708 167.368 271.985C166.913 272.256 166.556 272.622 166.297 273.084C166.039 273.539 165.906 274.047 165.9 274.607V276.925C165.9 277.626 166.029 278.233 166.288 278.744C166.553 279.254 166.925 279.648 167.405 279.925C167.885 280.202 168.454 280.341 169.113 280.341C169.55 280.341 169.95 280.279 170.313 280.156C170.677 280.033 170.987 279.848 171.246 279.602C171.504 279.356 171.701 279.054 171.837 278.697L175.475 278.938C175.29 279.812 174.911 280.575 174.339 281.227C173.773 281.874 173.04 282.378 172.142 282.741C171.249 283.098 170.218 283.277 169.048 283.277ZM183.064 283.231C181.987 283.231 181.012 282.954 180.137 282.4C179.27 281.84 178.58 281.018 178.069 279.935C177.565 278.845 177.312 277.509 177.312 275.928C177.312 274.303 177.574 272.951 178.097 271.874C178.62 270.791 179.316 269.982 180.184 269.446C181.058 268.904 182.015 268.634 183.055 268.634C183.849 268.634 184.511 268.769 185.04 269.04C185.576 269.304 186.007 269.637 186.333 270.037C186.665 270.431 186.918 270.819 187.09 271.2H187.21V264.091H191.134V283H187.256V280.729H187.09C186.905 281.123 186.644 281.513 186.305 281.901C185.973 282.283 185.539 282.6 185.003 282.852C184.474 283.105 183.828 283.231 183.064 283.231ZM184.311 280.101C184.945 280.101 185.48 279.929 185.917 279.584C186.36 279.233 186.699 278.744 186.933 278.116C187.173 277.488 187.293 276.752 187.293 275.909C187.293 275.066 187.176 274.333 186.942 273.712C186.708 273.09 186.37 272.61 185.927 272.271C185.483 271.933 184.945 271.763 184.311 271.763C183.664 271.763 183.12 271.939 182.677 272.29C182.233 272.641 181.898 273.127 181.67 273.749C181.442 274.37 181.329 275.09 181.329 275.909C181.329 276.734 181.442 277.463 181.67 278.097C181.904 278.725 182.24 279.218 182.677 279.575C183.12 279.925 183.664 280.101 184.311 280.101ZM199.887 283V264.091H203.82V271.2H203.94C204.113 270.819 204.362 270.431 204.688 270.037C205.021 269.637 205.452 269.304 205.981 269.04C206.516 268.769 207.181 268.634 207.975 268.634C209.009 268.634 209.963 268.904 210.837 269.446C211.712 269.982 212.41 270.791 212.933 271.874C213.457 272.951 213.718 274.303 213.718 275.928C213.718 277.509 213.463 278.845 212.952 279.935C212.447 281.018 211.758 281.84 210.884 282.4C210.016 282.954 209.043 283.231 207.966 283.231C207.203 283.231 206.553 283.105 206.018 282.852C205.489 282.6 205.055 282.283 204.716 281.901C204.378 281.513 204.119 281.123 203.94 280.729H203.765V283H199.887ZM203.737 275.909C203.737 276.752 203.854 277.488 204.088 278.116C204.322 278.744 204.661 279.233 205.104 279.584C205.547 279.929 206.086 280.101 206.72 280.101C207.36 280.101 207.901 279.925 208.345 279.575C208.788 279.218 209.123 278.725 209.351 278.097C209.585 277.463 209.702 276.734 209.702 275.909C209.702 275.09 209.588 274.37 209.36 273.749C209.132 273.127 208.797 272.641 208.354 272.29C207.911 271.939 207.366 271.763 206.72 271.763C206.079 271.763 205.538 271.933 205.095 272.271C204.658 272.61 204.322 273.09 204.088 273.712C203.854 274.333 203.737 275.066 203.737 275.909ZM218.028 288.318C217.529 288.318 217.061 288.278 216.624 288.198C216.194 288.124 215.837 288.029 215.553 287.912L216.44 284.976C216.901 285.117 217.317 285.194 217.686 285.207C218.062 285.219 218.385 285.133 218.656 284.948C218.933 284.763 219.157 284.45 219.33 284.006L219.561 283.406L214.473 268.818H218.61L221.546 279.233H221.693L224.657 268.818H228.821L223.309 284.533C223.044 285.296 222.684 285.961 222.229 286.527C221.78 287.099 221.21 287.54 220.521 287.847C219.831 288.161 219 288.318 218.028 288.318ZM240.213 274.801V283H236.28V264.091H240.102V271.32H240.268C240.588 270.483 241.105 269.828 241.819 269.354C242.533 268.874 243.429 268.634 244.506 268.634C245.491 268.634 246.35 268.849 247.082 269.28C247.821 269.705 248.393 270.317 248.799 271.117C249.212 271.911 249.415 272.862 249.409 273.97V283H245.476V274.672C245.482 273.798 245.26 273.118 244.811 272.631C244.368 272.145 243.746 271.902 242.946 271.902C242.41 271.902 241.936 272.016 241.524 272.244C241.118 272.471 240.798 272.804 240.564 273.241C240.336 273.672 240.219 274.192 240.213 274.801ZM261.313 276.962V268.818H265.246V283H261.47V280.424H261.322C261.002 281.255 260.469 281.923 259.725 282.428C258.986 282.932 258.084 283.185 257.019 283.185C256.071 283.185 255.237 282.969 254.517 282.538C253.797 282.107 253.234 281.495 252.828 280.701C252.427 279.907 252.224 278.956 252.218 277.848V268.818H256.151V277.146C256.158 277.983 256.382 278.645 256.825 279.131C257.269 279.618 257.863 279.861 258.607 279.861C259.081 279.861 259.525 279.753 259.937 279.538C260.349 279.316 260.682 278.99 260.934 278.559C261.193 278.128 261.319 277.596 261.313 276.962ZM268.106 283V268.818H271.855V271.32H272.021C272.316 270.489 272.809 269.834 273.498 269.354C274.187 268.874 275.012 268.634 275.972 268.634C276.945 268.634 277.773 268.877 278.456 269.363C279.139 269.843 279.595 270.496 279.823 271.32H279.97C280.26 270.508 280.783 269.858 281.54 269.372C282.303 268.88 283.205 268.634 284.245 268.634C285.569 268.634 286.643 269.055 287.468 269.898C288.298 270.736 288.714 271.924 288.714 273.462V283H284.79V274.238C284.79 273.45 284.581 272.859 284.162 272.465C283.744 272.071 283.22 271.874 282.593 271.874C281.878 271.874 281.321 272.102 280.921 272.558C280.521 273.007 280.321 273.601 280.321 274.339V283H276.508V274.155C276.508 273.459 276.308 272.905 275.908 272.493C275.514 272.08 274.994 271.874 274.347 271.874C273.91 271.874 273.517 271.985 273.166 272.207C272.821 272.422 272.547 272.727 272.344 273.121C272.141 273.509 272.039 273.964 272.039 274.487V283H268.106ZM295.579 283.268C294.674 283.268 293.868 283.111 293.16 282.797C292.452 282.477 291.892 282.006 291.479 281.384C291.073 280.756 290.87 279.975 290.87 279.039C290.87 278.251 291.015 277.589 291.304 277.054C291.593 276.518 291.987 276.088 292.486 275.761C292.984 275.435 293.551 275.189 294.185 275.023C294.825 274.857 295.496 274.74 296.197 274.672C297.022 274.586 297.687 274.506 298.192 274.432C298.697 274.352 299.063 274.235 299.291 274.081C299.518 273.927 299.632 273.699 299.632 273.398V273.342C299.632 272.758 299.447 272.305 299.078 271.985C298.715 271.665 298.198 271.505 297.527 271.505C296.819 271.505 296.256 271.662 295.837 271.976C295.419 272.284 295.142 272.671 295.006 273.139L291.369 272.844C291.553 271.982 291.916 271.237 292.458 270.609C293 269.975 293.698 269.489 294.554 269.151C295.416 268.806 296.413 268.634 297.545 268.634C298.333 268.634 299.087 268.726 299.808 268.911C300.534 269.095 301.177 269.381 301.737 269.769C302.304 270.157 302.75 270.656 303.076 271.265C303.402 271.868 303.565 272.591 303.565 273.435V283H299.835V281.033H299.724C299.497 281.477 299.192 281.867 298.81 282.206C298.429 282.538 297.97 282.8 297.435 282.991C296.899 283.175 296.281 283.268 295.579 283.268ZM296.705 280.553C297.284 280.553 297.795 280.439 298.238 280.212C298.681 279.978 299.029 279.664 299.281 279.27C299.534 278.876 299.66 278.43 299.66 277.931V276.426C299.537 276.506 299.367 276.58 299.152 276.648C298.943 276.709 298.706 276.768 298.441 276.823C298.176 276.872 297.912 276.919 297.647 276.962C297.382 276.999 297.142 277.032 296.927 277.063C296.465 277.131 296.062 277.239 295.717 277.386C295.373 277.534 295.105 277.734 294.914 277.987C294.723 278.233 294.628 278.54 294.628 278.91C294.628 279.445 294.822 279.855 295.21 280.138C295.603 280.415 296.102 280.553 296.705 280.553ZM310.264 274.801V283H306.331V268.818H310.079V271.32H310.246C310.56 270.496 311.086 269.843 311.824 269.363C312.563 268.877 313.459 268.634 314.511 268.634C315.496 268.634 316.355 268.849 317.087 269.28C317.82 269.711 318.389 270.326 318.795 271.126C319.202 271.92 319.405 272.868 319.405 273.97V283H315.472V274.672C315.478 273.804 315.256 273.127 314.807 272.641C314.357 272.148 313.739 271.902 312.951 271.902C312.422 271.902 311.954 272.016 311.547 272.244C311.147 272.471 310.833 272.804 310.606 273.241C310.384 273.672 310.27 274.192 310.264 274.801ZM334.018 272.862L330.418 273.084C330.356 272.776 330.224 272.499 330.021 272.253C329.817 272 329.55 271.8 329.217 271.653C328.891 271.499 328.5 271.422 328.045 271.422C327.435 271.422 326.921 271.551 326.503 271.81C326.084 272.062 325.875 272.401 325.875 272.825C325.875 273.164 326.01 273.45 326.281 273.684C326.552 273.918 327.017 274.106 327.675 274.247L330.242 274.764C331.621 275.047 332.649 275.503 333.326 276.131C334.003 276.759 334.342 277.583 334.342 278.605C334.342 279.535 334.068 280.35 333.52 281.052C332.978 281.754 332.233 282.301 331.285 282.695C330.344 283.083 329.257 283.277 328.026 283.277C326.149 283.277 324.653 282.886 323.539 282.104C322.431 281.317 321.782 280.246 321.591 278.891L325.459 278.688C325.576 279.261 325.86 279.698 326.309 279.999C326.758 280.295 327.334 280.442 328.035 280.442C328.725 280.442 329.279 280.31 329.697 280.045C330.122 279.775 330.338 279.427 330.344 279.002C330.338 278.645 330.187 278.353 329.891 278.125C329.596 277.891 329.14 277.713 328.525 277.589L326.069 277.1C324.684 276.823 323.653 276.343 322.976 275.66C322.305 274.977 321.969 274.106 321.969 273.047C321.969 272.136 322.216 271.351 322.708 270.692C323.207 270.034 323.905 269.526 324.804 269.169C325.709 268.812 326.767 268.634 327.98 268.634C329.771 268.634 331.181 269.012 332.209 269.769C333.243 270.526 333.846 271.557 334.018 272.862ZM346.308 283.268C345.403 283.268 344.597 283.111 343.889 282.797C343.181 282.477 342.621 282.006 342.208 281.384C341.802 280.756 341.599 279.975 341.599 279.039C341.599 278.251 341.744 277.589 342.033 277.054C342.322 276.518 342.716 276.088 343.215 275.761C343.713 275.435 344.28 275.189 344.914 275.023C345.554 274.857 346.225 274.74 346.927 274.672C347.751 274.586 348.416 274.506 348.921 274.432C349.426 274.352 349.792 274.235 350.02 274.081C350.247 273.927 350.361 273.699 350.361 273.398V273.342C350.361 272.758 350.177 272.305 349.807 271.985C349.444 271.665 348.927 271.505 348.256 271.505C347.548 271.505 346.985 271.662 346.566 271.976C346.148 272.284 345.871 272.671 345.735 273.139L342.098 272.844C342.282 271.982 342.646 271.237 343.187 270.609C343.729 269.975 344.427 269.489 345.283 269.151C346.145 268.806 347.142 268.634 348.275 268.634C349.062 268.634 349.816 268.726 350.537 268.911C351.263 269.095 351.906 269.381 352.466 269.769C353.033 270.157 353.479 270.656 353.805 271.265C354.131 271.868 354.294 272.591 354.294 273.435V283H350.564V281.033H350.454C350.226 281.477 349.921 281.867 349.539 282.206C349.158 282.538 348.699 282.8 348.164 282.991C347.628 283.175 347.01 283.268 346.308 283.268ZM347.434 280.553C348.013 280.553 348.524 280.439 348.967 280.212C349.41 279.978 349.758 279.664 350.01 279.27C350.263 278.876 350.389 278.43 350.389 277.931V276.426C350.266 276.506 350.097 276.58 349.881 276.648C349.672 276.709 349.435 276.768 349.17 276.823C348.905 276.872 348.641 276.919 348.376 276.962C348.111 276.999 347.871 277.032 347.656 277.063C347.194 277.131 346.791 277.239 346.446 277.386C346.102 277.534 345.834 277.734 345.643 277.987C345.452 278.233 345.357 278.54 345.357 278.91C345.357 279.445 345.551 279.855 345.939 280.138C346.333 280.415 346.831 280.553 347.434 280.553ZM360.993 274.801V283H357.06V268.818H360.808V271.32H360.975C361.289 270.496 361.815 269.843 362.554 269.363C363.292 268.877 364.188 268.634 365.24 268.634C366.225 268.634 367.084 268.849 367.816 269.28C368.549 269.711 369.118 270.326 369.524 271.126C369.931 271.92 370.134 272.868 370.134 273.97V283H366.201V274.672C366.207 273.804 365.985 273.127 365.536 272.641C365.086 272.148 364.468 271.902 363.68 271.902C363.151 271.902 362.683 272.016 362.277 272.244C361.876 272.471 361.563 272.804 361.335 273.241C361.113 273.672 360.999 274.192 360.993 274.801ZM378.174 283.231C377.096 283.231 376.121 282.954 375.247 282.4C374.379 281.84 373.689 281.018 373.179 279.935C372.674 278.845 372.421 277.509 372.421 275.928C372.421 274.303 372.683 272.951 373.206 271.874C373.729 270.791 374.425 269.982 375.293 269.446C376.167 268.904 377.124 268.634 378.164 268.634C378.958 268.634 379.62 268.769 380.149 269.04C380.685 269.304 381.116 269.637 381.442 270.037C381.774 270.431 382.027 270.819 382.199 271.2H382.319V264.091H386.243V283H382.365V280.729H382.199C382.015 281.123 381.753 281.513 381.414 281.901C381.082 282.283 380.648 282.6 380.113 282.852C379.583 283.105 378.937 283.231 378.174 283.231ZM379.42 280.101C380.054 280.101 380.59 279.929 381.027 279.584C381.47 279.233 381.808 278.744 382.042 278.116C382.282 277.488 382.402 276.752 382.402 275.909C382.402 275.066 382.285 274.333 382.051 273.712C381.818 273.09 381.479 272.61 381.036 272.271C380.593 271.933 380.054 271.763 379.42 271.763C378.774 271.763 378.229 271.939 377.786 272.29C377.343 272.641 377.007 273.127 376.779 273.749C376.552 274.37 376.438 275.09 376.438 275.909C376.438 276.734 376.552 277.463 376.779 278.097C377.013 278.725 377.349 279.218 377.786 279.575C378.229 279.925 378.774 280.101 379.42 280.101ZM153.846 335.268C152.941 335.268 152.135 335.111 151.427 334.797C150.719 334.477 150.159 334.006 149.747 333.384C149.34 332.756 149.137 331.975 149.137 331.039C149.137 330.251 149.282 329.589 149.571 329.054C149.86 328.518 150.254 328.088 150.753 327.761C151.252 327.435 151.818 327.189 152.452 327.023C153.092 326.857 153.763 326.74 154.465 326.672C155.289 326.586 155.954 326.506 156.459 326.432C156.964 326.352 157.33 326.235 157.558 326.081C157.785 325.927 157.899 325.699 157.899 325.398V325.342C157.899 324.758 157.715 324.305 157.345 323.985C156.982 323.665 156.465 323.505 155.794 323.505C155.086 323.505 154.523 323.662 154.104 323.976C153.686 324.284 153.409 324.671 153.274 325.139L149.636 324.844C149.82 323.982 150.184 323.237 150.725 322.609C151.267 321.975 151.966 321.489 152.821 321.151C153.683 320.806 154.68 320.634 155.813 320.634C156.6 320.634 157.354 320.726 158.075 320.911C158.801 321.095 159.444 321.381 160.004 321.769C160.571 322.157 161.017 322.656 161.343 323.265C161.669 323.868 161.832 324.591 161.832 325.435V335H158.102V333.033H157.992C157.764 333.477 157.459 333.867 157.078 334.206C156.696 334.538 156.237 334.8 155.702 334.991C155.166 335.175 154.548 335.268 153.846 335.268ZM154.972 332.553C155.551 332.553 156.062 332.439 156.505 332.212C156.948 331.978 157.296 331.664 157.548 331.27C157.801 330.876 157.927 330.43 157.927 329.931V328.426C157.804 328.506 157.635 328.58 157.419 328.648C157.21 328.709 156.973 328.768 156.708 328.823C156.444 328.872 156.179 328.919 155.914 328.962C155.649 328.999 155.409 329.032 155.194 329.063C154.732 329.131 154.329 329.239 153.984 329.386C153.64 329.534 153.372 329.734 153.181 329.987C152.99 330.233 152.895 330.54 152.895 330.91C152.895 331.445 153.089 331.855 153.477 332.138C153.871 332.415 154.369 332.553 154.972 332.553ZM168.531 326.801V335H164.598V320.818H168.347V323.32H168.513C168.827 322.496 169.353 321.843 170.092 321.363C170.83 320.877 171.726 320.634 172.778 320.634C173.763 320.634 174.622 320.849 175.354 321.28C176.087 321.711 176.656 322.326 177.062 323.126C177.469 323.92 177.672 324.868 177.672 325.97V335H173.739V326.672C173.745 325.804 173.523 325.127 173.074 324.641C172.624 324.148 172.006 323.902 171.218 323.902C170.689 323.902 170.221 324.016 169.815 324.244C169.414 324.471 169.101 324.804 168.873 325.241C168.651 325.672 168.537 326.192 168.531 326.801ZM180.486 335V320.818H184.419V335H180.486ZM182.462 318.99C181.877 318.99 181.375 318.796 180.957 318.408C180.544 318.014 180.338 317.544 180.338 316.996C180.338 316.454 180.544 315.989 180.957 315.602C181.375 315.208 181.877 315.011 182.462 315.011C183.046 315.011 183.545 315.208 183.957 315.602C184.376 315.989 184.585 316.454 184.585 316.996C184.585 317.544 184.376 318.014 183.957 318.408C183.545 318.796 183.046 318.99 182.462 318.99ZM187.284 335V320.818H191.032V323.32H191.199C191.494 322.489 191.986 321.834 192.676 321.354C193.365 320.874 194.19 320.634 195.15 320.634C196.123 320.634 196.951 320.877 197.634 321.363C198.317 321.843 198.773 322.496 199 323.32H199.148C199.437 322.508 199.961 321.858 200.718 321.372C201.481 320.88 202.383 320.634 203.423 320.634C204.746 320.634 205.82 321.055 206.645 321.898C207.476 322.736 207.892 323.924 207.892 325.462V335H203.968V326.238C203.968 325.45 203.758 324.859 203.34 324.465C202.921 324.071 202.398 323.874 201.77 323.874C201.056 323.874 200.499 324.102 200.099 324.558C199.699 325.007 199.499 325.601 199.499 326.339V335H195.686V326.155C195.686 325.459 195.486 324.905 195.086 324.493C194.692 324.08 194.172 323.874 193.525 323.874C193.088 323.874 192.694 323.985 192.343 324.207C191.999 324.422 191.725 324.727 191.522 325.121C191.319 325.509 191.217 325.964 191.217 326.487V335H187.284ZM214.757 335.268C213.852 335.268 213.045 335.111 212.338 334.797C211.63 334.477 211.07 334.006 210.657 333.384C210.251 332.756 210.048 331.975 210.048 331.039C210.048 330.251 210.192 329.589 210.482 329.054C210.771 328.518 211.165 328.088 211.664 327.761C212.162 327.435 212.728 327.189 213.362 327.023C214.003 326.857 214.674 326.74 215.375 326.672C216.2 326.586 216.865 326.506 217.37 326.432C217.874 326.352 218.241 326.235 218.468 326.081C218.696 325.927 218.81 325.699 218.81 325.398V325.342C218.81 324.758 218.625 324.305 218.256 323.985C217.893 323.665 217.376 323.505 216.705 323.505C215.997 323.505 215.434 323.662 215.015 323.976C214.597 324.284 214.32 324.671 214.184 325.139L210.546 324.844C210.731 323.982 211.094 323.237 211.636 322.609C212.178 321.975 212.876 321.489 213.732 321.151C214.594 320.806 215.591 320.634 216.723 320.634C217.511 320.634 218.265 320.726 218.985 320.911C219.712 321.095 220.355 321.381 220.915 321.769C221.481 322.157 221.928 322.656 222.254 323.265C222.58 323.868 222.743 324.591 222.743 325.435V335H219.013V333.033H218.902C218.675 333.477 218.37 333.867 217.988 334.206C217.607 334.538 217.148 334.8 216.612 334.991C216.077 335.175 215.458 335.268 214.757 335.268ZM215.883 332.553C216.462 332.553 216.973 332.439 217.416 332.212C217.859 331.978 218.207 331.664 218.459 331.27C218.711 330.876 218.838 330.43 218.838 329.931V328.426C218.715 328.506 218.545 328.58 218.33 328.648C218.121 328.709 217.884 328.768 217.619 328.823C217.354 328.872 217.09 328.919 216.825 328.962C216.56 328.999 216.32 329.032 216.105 329.063C215.643 329.131 215.24 329.239 214.895 329.386C214.55 329.534 214.283 329.734 214.092 329.987C213.901 330.233 213.806 330.54 213.806 330.91C213.806 331.445 214 331.855 214.387 332.138C214.781 332.415 215.28 332.553 215.883 332.553ZM229.442 316.091V335H225.509V316.091H229.442ZM244.106 324.862L240.505 325.084C240.444 324.776 240.312 324.499 240.108 324.253C239.905 324 239.638 323.8 239.305 323.653C238.979 323.499 238.588 323.422 238.133 323.422C237.523 323.422 237.009 323.551 236.591 323.81C236.172 324.062 235.963 324.401 235.963 324.825C235.963 325.164 236.098 325.45 236.369 325.684C236.64 325.918 237.105 326.106 237.763 326.247L240.33 326.764C241.709 327.047 242.737 327.503 243.414 328.131C244.091 328.759 244.43 329.583 244.43 330.605C244.43 331.535 244.156 332.35 243.608 333.052C243.066 333.754 242.321 334.301 241.373 334.695C240.432 335.083 239.345 335.277 238.114 335.277C236.237 335.277 234.741 334.886 233.627 334.104C232.519 333.317 231.87 332.246 231.679 330.891L235.547 330.688C235.664 331.261 235.947 331.698 236.397 331.999C236.846 332.295 237.422 332.442 238.123 332.442C238.813 332.442 239.367 332.31 239.785 332.045C240.21 331.775 240.425 331.427 240.432 331.002C240.425 330.645 240.275 330.353 239.979 330.125C239.684 329.891 239.228 329.713 238.613 329.589L236.157 329.1C234.772 328.823 233.741 328.343 233.064 327.66C232.393 326.977 232.057 326.106 232.057 325.047C232.057 324.136 232.304 323.351 232.796 322.692C233.295 322.034 233.993 321.526 234.892 321.169C235.797 320.812 236.855 320.634 238.068 320.634C239.859 320.634 241.269 321.012 242.297 321.769C243.331 322.526 243.934 323.557 244.106 324.862ZM259.895 320.818V323.773H251.355V320.818H259.895ZM253.294 317.42H257.227V330.642C257.227 331.005 257.282 331.288 257.393 331.491C257.504 331.688 257.658 331.827 257.855 331.907C258.058 331.987 258.292 332.027 258.556 332.027C258.741 332.027 258.926 332.012 259.11 331.981C259.295 331.944 259.437 331.916 259.535 331.898L260.154 334.825C259.957 334.886 259.68 334.957 259.323 335.037C258.966 335.123 258.532 335.175 258.021 335.194C257.073 335.231 256.242 335.105 255.528 334.815C254.82 334.526 254.269 334.077 253.875 333.467C253.481 332.858 253.287 332.089 253.294 331.159V317.42ZM268.427 335.277C266.992 335.277 265.752 334.972 264.706 334.363C263.666 333.747 262.862 332.892 262.296 331.796C261.73 330.694 261.447 329.417 261.447 327.964C261.447 326.5 261.73 325.219 262.296 324.124C262.862 323.022 263.666 322.166 264.706 321.557C265.752 320.941 266.992 320.634 268.427 320.634C269.861 320.634 271.098 320.941 272.138 321.557C273.185 322.166 273.991 323.022 274.557 324.124C275.124 325.219 275.407 326.5 275.407 327.964C275.407 329.417 275.124 330.694 274.557 331.796C273.991 332.892 273.185 333.747 272.138 334.363C271.098 334.972 269.861 335.277 268.427 335.277ZM268.445 332.23C269.098 332.23 269.642 332.045 270.079 331.676C270.516 331.301 270.846 330.79 271.067 330.143C271.295 329.497 271.409 328.762 271.409 327.937C271.409 327.112 271.295 326.376 271.067 325.73C270.846 325.084 270.516 324.573 270.079 324.197C269.642 323.822 269.098 323.634 268.445 323.634C267.786 323.634 267.233 323.822 266.783 324.197C266.34 324.573 266.005 325.084 265.777 325.73C265.555 326.376 265.444 327.112 265.444 327.937C265.444 328.762 265.555 329.497 265.777 330.143C266.005 330.79 266.34 331.301 266.783 331.676C267.233 332.045 267.786 332.23 268.445 332.23ZM287.343 316.091V335H283.41V316.091H287.343ZM290.208 335V320.818H294.141V335H290.208ZM292.184 318.99C291.599 318.99 291.097 318.796 290.679 318.408C290.266 318.014 290.06 317.544 290.06 316.996C290.06 316.454 290.266 315.989 290.679 315.602C291.097 315.208 291.599 315.011 292.184 315.011C292.768 315.011 293.267 315.208 293.679 315.602C294.098 315.989 294.307 316.454 294.307 316.996C294.307 317.544 294.098 318.014 293.679 318.408C293.267 318.796 292.768 318.99 292.184 318.99ZM310.227 320.818L305.269 335H300.837L295.879 320.818H300.034L302.98 330.965H303.127L306.063 320.818H310.227ZM317.96 335.277C316.501 335.277 315.246 334.982 314.193 334.391C313.147 333.794 312.34 332.95 311.774 331.861C311.208 330.765 310.925 329.469 310.925 327.974C310.925 326.515 311.208 325.235 311.774 324.133C312.34 323.031 313.138 322.172 314.165 321.557C315.2 320.941 316.412 320.634 317.803 320.634C318.739 320.634 319.61 320.784 320.416 321.086C321.229 321.381 321.937 321.828 322.54 322.425C323.149 323.022 323.623 323.773 323.962 324.678C324.3 325.576 324.469 326.629 324.469 327.835V328.915H312.494V326.478H320.767C320.767 325.912 320.644 325.41 320.398 324.973C320.152 324.536 319.81 324.194 319.373 323.948C318.942 323.696 318.44 323.57 317.868 323.57C317.271 323.57 316.741 323.708 316.28 323.985C315.824 324.256 315.467 324.622 315.209 325.084C314.95 325.539 314.818 326.047 314.812 326.607V328.925C314.812 329.626 314.941 330.233 315.2 330.744C315.464 331.254 315.837 331.648 316.317 331.925C316.797 332.202 317.366 332.341 318.025 332.341C318.462 332.341 318.862 332.279 319.225 332.156C319.588 332.033 319.899 331.848 320.158 331.602C320.416 331.356 320.613 331.054 320.749 330.697L324.386 330.938C324.202 331.812 323.823 332.575 323.251 333.227C322.684 333.874 321.952 334.378 321.053 334.741C320.161 335.098 319.13 335.277 317.96 335.277ZM329.049 335.24C328.44 335.24 327.917 335.025 327.48 334.594C327.049 334.157 326.833 333.634 326.833 333.024C326.833 332.421 327.049 331.904 327.48 331.473C327.917 331.042 328.44 330.827 329.049 330.827C329.64 330.827 330.157 331.042 330.6 331.473C331.044 331.904 331.265 332.421 331.265 333.024C331.265 333.43 331.161 333.803 330.951 334.141C330.748 334.474 330.48 334.741 330.148 334.945C329.816 335.142 329.449 335.24 329.049 335.24Z" fill="#1E1E1E"/>
</g>
<defs>
<filter id="filter0_dd_750_22588" x="-18" y="-10" width="520" height="532" filterUnits="userSpaceOnUse" color-interpolation-filters="sRGB">
<feFlood flood-opacity="0" result="BackgroundImageFix"/>
<feColorMatrix in="SourceAlpha" type="matrix" values="0 0 0 0 0 0 0 0 0 0 0 0 0 0 0 0 0 0 127 0" result="hardAlpha"/>
<feOffset dy="4"/>
<feGaussianBlur stdDeviation="2"/>
<feColorMatrix type="matrix" values="0 0 0 0 0 0 0 0 0 0 0 0 0 0 0 0 0 0 0.3 0"/>
<feBlend mode="normal" in2="BackgroundImageFix" result="effect1_dropShadow_750_22588"/>
<feColorMatrix in="SourceAlpha" type="matrix" values="0 0 0 0 0 0 0 0 0 0 0 0 0 0 0 0 0 0 127 0" result="hardAlpha"/>
<feMorphology radius="6" operator="dilate" in="SourceAlpha" result="effect2_dropShadow_750_22588"/>
<feOffset dy="8"/>
<feGaussianBlur stdDeviation="6"/>
<feColorMatrix type="matrix" values="0 0 0 0 0 0 0 0 0 0 0 0 0 0 0 0 0 0 0.15 0"/>
<feBlend mode="normal" in2="effect1_dropShadow_750_22588" result="effect2_dropShadow_750_22588"/>
<feBlend mode="normal" in="SourceGraphic" in2="effect2_dropShadow_750_22588" result="shape"/>
</filter>
</defs>
</svg>
