<svg width="1440" height="1102" viewBox="0 0 1440 1102" fill="none" xmlns="http://www.w3.org/2000/svg">
<g id="jordkloden ">
<rect width="1440" height="1102" fill="#D7E3FD"/>
<path id="Explore the world&#39;s climate" d="M809.523 173V143.909H827.08V147.034H813.045V156.864H826.17V159.989H813.045V169.875H827.307V173H809.523ZM835.474 151.182L840.702 160.102L845.929 151.182H849.793L842.747 162.091L849.793 173H845.929L840.702 164.534L835.474 173H831.611L838.543 162.091L831.611 151.182H835.474ZM854.576 181.182V151.182H857.815V154.648H858.212C858.459 154.269 858.799 153.786 859.235 153.199C859.68 152.602 860.315 152.072 861.138 151.608C861.972 151.134 863.099 150.898 864.519 150.898C866.356 150.898 867.976 151.357 869.377 152.276C870.779 153.194 871.872 154.496 872.658 156.182C873.444 157.867 873.837 159.856 873.837 162.148C873.837 164.458 873.444 166.461 872.658 168.156C871.872 169.842 870.783 171.149 869.391 172.077C867.999 172.995 866.394 173.455 864.576 173.455C863.174 173.455 862.052 173.223 861.21 172.759C860.367 172.285 859.718 171.75 859.263 171.153C858.809 170.547 858.459 170.045 858.212 169.648H857.928V181.182H854.576ZM857.871 162.091C857.871 163.739 858.113 165.192 858.596 166.452C859.079 167.702 859.784 168.682 860.712 169.392C861.64 170.093 862.777 170.443 864.121 170.443C865.523 170.443 866.692 170.074 867.63 169.335C868.577 168.587 869.287 167.583 869.761 166.324C870.244 165.055 870.485 163.644 870.485 162.091C870.485 160.557 870.248 159.174 869.775 157.943C869.311 156.703 868.605 155.723 867.658 155.003C866.721 154.274 865.542 153.909 864.121 153.909C862.758 153.909 861.612 154.255 860.684 154.946C859.756 155.628 859.055 156.584 858.582 157.815C858.108 159.037 857.871 160.462 857.871 162.091ZM882.303 143.909V173H878.951V143.909H882.303ZM897.307 173.455C895.337 173.455 893.609 172.986 892.122 172.048C890.645 171.111 889.49 169.799 888.656 168.114C887.832 166.428 887.42 164.458 887.42 162.205C887.42 159.932 887.832 157.948 888.656 156.253C889.49 154.558 890.645 153.241 892.122 152.304C893.609 151.366 895.337 150.898 897.307 150.898C899.277 150.898 901 151.366 902.477 152.304C903.964 153.241 905.119 154.558 905.943 156.253C906.777 157.948 907.193 159.932 907.193 162.205C907.193 164.458 906.777 166.428 905.943 168.114C905.119 169.799 903.964 171.111 902.477 172.048C901 172.986 899.277 173.455 897.307 173.455ZM897.307 170.443C898.803 170.443 900.034 170.06 901 169.293C901.966 168.526 902.681 167.517 903.145 166.267C903.609 165.017 903.841 163.663 903.841 162.205C903.841 160.746 903.609 159.387 903.145 158.128C902.681 156.868 901.966 155.85 901 155.074C900.034 154.297 898.803 153.909 897.307 153.909C895.811 153.909 894.58 154.297 893.614 155.074C892.648 155.85 891.933 156.868 891.469 158.128C891.005 159.387 890.773 160.746 890.773 162.205C890.773 163.663 891.005 165.017 891.469 166.267C891.933 167.517 892.648 168.526 893.614 169.293C894.58 170.06 895.811 170.443 897.307 170.443ZM912.31 173V151.182H915.549V154.477H915.776C916.174 153.398 916.894 152.522 917.935 151.849C918.977 151.177 920.151 150.841 921.458 150.841C921.704 150.841 922.012 150.846 922.381 150.855C922.751 150.865 923.03 150.879 923.219 150.898V154.307C923.106 154.278 922.845 154.236 922.438 154.179C922.04 154.113 921.619 154.08 921.174 154.08C920.113 154.08 919.166 154.302 918.333 154.747C917.509 155.183 916.856 155.789 916.373 156.565C915.899 157.332 915.663 158.208 915.663 159.193V173H912.31ZM935.677 173.455C933.575 173.455 931.761 172.991 930.237 172.062C928.721 171.125 927.552 169.818 926.728 168.142C925.914 166.456 925.506 164.496 925.506 162.261C925.506 160.027 925.914 158.057 926.728 156.352C927.552 154.638 928.698 153.303 930.165 152.347C931.643 151.381 933.366 150.898 935.336 150.898C936.472 150.898 937.594 151.087 938.702 151.466C939.81 151.845 940.819 152.46 941.728 153.312C942.637 154.155 943.362 155.273 943.901 156.665C944.441 158.057 944.711 159.771 944.711 161.807V163.227H927.893V160.33H941.302C941.302 159.098 941.056 158 940.563 157.034C940.08 156.068 939.389 155.306 938.489 154.747C937.599 154.188 936.548 153.909 935.336 153.909C934.001 153.909 932.845 154.241 931.87 154.903C930.904 155.557 930.161 156.409 929.64 157.46C929.119 158.511 928.859 159.638 928.859 160.841V162.773C928.859 164.42 929.143 165.817 929.711 166.963C930.289 168.099 931.089 168.966 932.112 169.562C933.134 170.15 934.323 170.443 935.677 170.443C936.558 170.443 937.353 170.32 938.063 170.074C938.783 169.818 939.403 169.439 939.924 168.938C940.445 168.426 940.847 167.792 941.131 167.034L944.37 167.943C944.029 169.042 943.456 170.008 942.651 170.841C941.846 171.665 940.852 172.309 939.668 172.773C938.485 173.227 937.154 173.455 935.677 173.455ZM970.549 151.182V154.023H959.242V151.182H970.549ZM962.538 145.955H965.89V166.75C965.89 167.697 966.027 168.407 966.302 168.881C966.586 169.345 966.946 169.657 967.381 169.818C967.826 169.97 968.295 170.045 968.788 170.045C969.157 170.045 969.46 170.027 969.697 169.989C969.933 169.941 970.123 169.903 970.265 169.875L970.947 172.886C970.719 172.972 970.402 173.057 969.995 173.142C969.588 173.237 969.072 173.284 968.447 173.284C967.5 173.284 966.572 173.08 965.663 172.673C964.763 172.266 964.015 171.646 963.418 170.812C962.831 169.979 962.538 168.928 962.538 167.659V145.955ZM979.413 159.875V173H976.06V143.909H979.413V154.591H979.697C980.208 153.464 980.975 152.569 981.998 151.906C983.03 151.234 984.403 150.898 986.117 150.898C987.604 150.898 988.906 151.196 990.023 151.793C991.141 152.38 992.007 153.284 992.623 154.506C993.248 155.718 993.56 157.261 993.56 159.136V173H990.208V159.364C990.208 157.631 989.758 156.291 988.859 155.344C987.969 154.387 986.733 153.909 985.151 153.909C984.053 153.909 983.068 154.141 982.197 154.605C981.335 155.069 980.653 155.746 980.151 156.636C979.659 157.527 979.413 158.606 979.413 159.875ZM1008.84 173.455C1006.74 173.455 1004.93 172.991 1003.4 172.062C1001.89 171.125 1000.72 169.818 999.892 168.142C999.078 166.456 998.67 164.496 998.67 162.261C998.67 160.027 999.078 158.057 999.892 156.352C1000.72 154.638 1001.86 153.303 1003.33 152.347C1004.81 151.381 1006.53 150.898 1008.5 150.898C1009.64 150.898 1010.76 151.087 1011.87 151.466C1012.97 151.845 1013.98 152.46 1014.89 153.312C1015.8 154.155 1016.53 155.273 1017.07 156.665C1017.61 158.057 1017.88 159.771 1017.88 161.807V163.227H1001.06V160.33H1014.47C1014.47 159.098 1014.22 158 1013.73 157.034C1013.24 156.068 1012.55 155.306 1011.65 154.747C1010.76 154.188 1009.71 153.909 1008.5 153.909C1007.16 153.909 1006.01 154.241 1005.03 154.903C1004.07 155.557 1003.32 156.409 1002.8 157.46C1002.28 158.511 1002.02 159.638 1002.02 160.841V162.773C1002.02 164.42 1002.31 165.817 1002.88 166.963C1003.45 168.099 1004.25 168.966 1005.28 169.562C1006.3 170.15 1007.49 170.443 1008.84 170.443C1009.72 170.443 1010.52 170.32 1011.23 170.074C1011.95 169.818 1012.57 169.439 1013.09 168.938C1013.61 168.426 1014.01 167.792 1014.3 167.034L1017.53 167.943C1017.19 169.042 1016.62 170.008 1015.82 170.841C1015.01 171.665 1014.02 172.309 1012.83 172.773C1011.65 173.227 1010.32 173.455 1008.84 173.455ZM1039.17 173L1032.52 151.182H1036.04L1040.76 167.886H1040.99L1045.64 151.182H1049.22L1053.83 167.83H1054.05L1058.77 151.182H1062.29L1055.64 173H1052.35L1047.58 156.239H1047.24L1042.46 173H1039.17ZM1074.85 173.455C1072.88 173.455 1071.15 172.986 1069.66 172.048C1068.18 171.111 1067.03 169.799 1066.2 168.114C1065.37 166.428 1064.96 164.458 1064.96 162.205C1064.96 159.932 1065.37 157.948 1066.2 156.253C1067.03 154.558 1068.18 153.241 1069.66 152.304C1071.15 151.366 1072.88 150.898 1074.85 150.898C1076.82 150.898 1078.54 151.366 1080.02 152.304C1081.5 153.241 1082.66 154.558 1083.48 156.253C1084.32 157.948 1084.73 159.932 1084.73 162.205C1084.73 164.458 1084.32 166.428 1083.48 168.114C1082.66 169.799 1081.5 171.111 1080.02 172.048C1078.54 172.986 1076.82 173.455 1074.85 173.455ZM1074.85 170.443C1076.34 170.443 1077.57 170.06 1078.54 169.293C1079.5 168.526 1080.22 167.517 1080.68 166.267C1081.15 165.017 1081.38 163.663 1081.38 162.205C1081.38 160.746 1081.15 159.387 1080.68 158.128C1080.22 156.868 1079.5 155.85 1078.54 155.074C1077.57 154.297 1076.34 153.909 1074.85 153.909C1073.35 153.909 1072.12 154.297 1071.15 155.074C1070.19 155.85 1069.47 156.868 1069.01 158.128C1068.54 159.387 1068.31 160.746 1068.31 162.205C1068.31 163.663 1068.54 165.017 1069.01 166.267C1069.47 167.517 1070.19 168.526 1071.15 169.293C1072.12 170.06 1073.35 170.443 1074.85 170.443ZM1089.85 173V151.182H1093.09V154.477H1093.32C1093.71 153.398 1094.43 152.522 1095.47 151.849C1096.52 151.177 1097.69 150.841 1099 150.841C1099.24 150.841 1099.55 150.846 1099.92 150.855C1100.29 150.865 1100.57 150.879 1100.76 150.898V154.307C1100.64 154.278 1100.38 154.236 1099.98 154.179C1099.58 154.113 1099.16 154.08 1098.71 154.08C1097.65 154.08 1096.71 154.302 1095.87 154.747C1095.05 155.183 1094.39 155.789 1093.91 156.565C1093.44 157.332 1093.2 158.208 1093.2 159.193V173H1089.85ZM1108.08 143.909V173H1104.73V143.909H1108.08ZM1122.46 173.455C1120.64 173.455 1119.04 172.995 1117.65 172.077C1116.26 171.149 1115.17 169.842 1114.38 168.156C1113.59 166.461 1113.2 164.458 1113.2 162.148C1113.2 159.856 1113.59 157.867 1114.38 156.182C1115.17 154.496 1116.26 153.194 1117.66 152.276C1119.06 151.357 1120.68 150.898 1122.52 150.898C1123.94 150.898 1125.06 151.134 1125.89 151.608C1126.72 152.072 1127.35 152.602 1127.79 153.199C1128.23 153.786 1128.58 154.269 1128.83 154.648H1129.11V143.909H1132.46V173H1129.22V169.648H1128.83C1128.58 170.045 1128.23 170.547 1127.78 171.153C1127.32 171.75 1126.67 172.285 1125.83 172.759C1124.99 173.223 1123.86 173.455 1122.46 173.455ZM1122.92 170.443C1124.26 170.443 1125.4 170.093 1126.33 169.392C1127.25 168.682 1127.96 167.702 1128.44 166.452C1128.93 165.192 1129.17 163.739 1129.17 162.091C1129.17 160.462 1128.93 159.037 1128.46 157.815C1127.98 156.584 1127.28 155.628 1126.36 154.946C1125.43 154.255 1124.28 153.909 1122.92 153.909C1121.5 153.909 1120.31 154.274 1119.37 155.003C1118.43 155.723 1117.72 156.703 1117.25 157.943C1116.79 159.174 1116.55 160.557 1116.55 162.091C1116.55 163.644 1116.79 165.055 1117.26 166.324C1117.75 167.583 1118.46 168.587 1119.39 169.335C1120.34 170.074 1121.52 170.443 1122.92 170.443ZM1141.97 143.909V153.909H1138.84V143.909H1141.97ZM1163.39 156.068L1160.38 156.92C1160.19 156.419 1159.91 155.931 1159.54 155.457C1159.18 154.974 1158.69 154.577 1158.06 154.264C1157.44 153.952 1156.64 153.795 1155.66 153.795C1154.33 153.795 1153.21 154.103 1152.32 154.719C1151.44 155.325 1151 156.097 1151 157.034C1151 157.867 1151.31 158.526 1151.91 159.009C1152.52 159.491 1153.47 159.894 1154.75 160.216L1157.99 161.011C1159.94 161.485 1161.4 162.209 1162.35 163.185C1163.31 164.151 1163.79 165.396 1163.79 166.92C1163.79 168.17 1163.43 169.288 1162.71 170.273C1162 171.258 1161 172.034 1159.73 172.602C1158.45 173.17 1156.96 173.455 1155.26 173.455C1153.04 173.455 1151.2 172.972 1149.74 172.006C1148.28 171.04 1147.36 169.629 1146.97 167.773L1150.15 166.977C1150.45 168.152 1151.03 169.032 1151.87 169.619C1152.72 170.206 1153.83 170.5 1155.21 170.5C1156.77 170.5 1158.01 170.169 1158.93 169.506C1159.86 168.833 1160.32 168.028 1160.32 167.091C1160.32 166.333 1160.06 165.699 1159.53 165.188C1159 164.667 1158.18 164.278 1157.08 164.023L1153.45 163.17C1151.45 162.697 1149.98 161.963 1149.04 160.969C1148.12 159.965 1147.65 158.71 1147.65 157.205C1147.65 155.973 1148 154.884 1148.69 153.938C1149.39 152.991 1150.34 152.247 1151.54 151.707C1152.76 151.168 1154.13 150.898 1155.66 150.898C1157.82 150.898 1159.52 151.371 1160.75 152.318C1161.99 153.265 1162.87 154.515 1163.39 156.068ZM1188.95 173.455C1186.9 173.455 1185.14 172.972 1183.66 172.006C1182.19 171.04 1181.05 169.709 1180.25 168.014C1179.46 166.319 1179.06 164.383 1179.06 162.205C1179.06 159.989 1179.47 158.033 1180.28 156.338C1181.11 154.634 1182.25 153.303 1183.72 152.347C1185.2 151.381 1186.92 150.898 1188.89 150.898C1190.42 150.898 1191.81 151.182 1193.04 151.75C1194.27 152.318 1195.28 153.114 1196.06 154.136C1196.85 155.159 1197.34 156.352 1197.53 157.716H1194.17C1193.92 156.722 1193.35 155.841 1192.47 155.074C1191.6 154.297 1190.42 153.909 1188.95 153.909C1187.64 153.909 1186.49 154.25 1185.51 154.932C1184.53 155.604 1183.77 156.556 1183.22 157.787C1182.68 159.009 1182.41 160.443 1182.41 162.091C1182.41 163.777 1182.68 165.244 1183.21 166.494C1183.75 167.744 1184.51 168.715 1185.48 169.406C1186.47 170.098 1187.62 170.443 1188.95 170.443C1189.82 170.443 1190.61 170.292 1191.32 169.989C1192.03 169.686 1192.63 169.25 1193.12 168.682C1193.62 168.114 1193.97 167.432 1194.17 166.636H1197.53C1197.34 167.924 1196.87 169.084 1196.12 170.116C1195.38 171.139 1194.4 171.954 1193.18 172.56C1191.97 173.156 1190.56 173.455 1188.95 173.455ZM1205.78 143.909V173H1202.43V143.909H1205.78ZM1211.92 173V151.182H1215.27V173H1211.92ZM1213.62 147.545C1212.97 147.545 1212.41 147.323 1211.93 146.878C1211.47 146.433 1211.24 145.898 1211.24 145.273C1211.24 144.648 1211.47 144.113 1211.93 143.668C1212.41 143.223 1212.97 143 1213.62 143C1214.28 143 1214.84 143.223 1215.3 143.668C1215.77 144.113 1216.01 144.648 1216.01 145.273C1216.01 145.898 1215.77 146.433 1215.3 146.878C1214.84 147.323 1214.28 147.545 1213.62 147.545ZM1221.41 173V151.182H1224.65V154.591H1224.93C1225.39 153.426 1226.12 152.522 1227.14 151.878C1228.15 151.224 1229.37 150.898 1230.79 150.898C1232.23 150.898 1233.42 151.224 1234.38 151.878C1235.35 152.522 1236.1 153.426 1236.64 154.591H1236.87C1237.43 153.464 1238.26 152.569 1239.38 151.906C1240.5 151.234 1241.84 150.898 1243.4 150.898C1245.35 150.898 1246.95 151.509 1248.19 152.73C1249.43 153.942 1250.05 155.831 1250.05 158.398V173H1246.7V158.398C1246.7 156.788 1246.26 155.637 1245.38 154.946C1244.49 154.255 1243.46 153.909 1242.26 153.909C1240.73 153.909 1239.54 154.373 1238.7 155.301C1237.86 156.22 1237.43 157.384 1237.43 158.795V173H1234.03V158.057C1234.03 156.816 1233.62 155.817 1232.82 155.06C1232.01 154.293 1230.98 153.909 1229.71 153.909C1228.84 153.909 1228.02 154.141 1227.26 154.605C1226.52 155.069 1225.91 155.713 1225.45 156.537C1224.99 157.351 1224.76 158.294 1224.76 159.364V173H1221.41ZM1262.6 173.511C1261.22 173.511 1259.96 173.251 1258.83 172.73C1257.71 172.2 1256.81 171.438 1256.15 170.443C1255.49 169.439 1255.15 168.227 1255.15 166.807C1255.15 165.557 1255.4 164.544 1255.89 163.767C1256.39 162.981 1257.04 162.366 1257.87 161.92C1258.69 161.475 1259.6 161.144 1260.6 160.926C1261.6 160.699 1262.61 160.519 1263.62 160.386C1264.95 160.216 1266.02 160.088 1266.85 160.003C1267.68 159.908 1268.28 159.752 1268.66 159.534C1269.05 159.316 1269.25 158.937 1269.25 158.398V158.284C1269.25 156.883 1268.86 155.794 1268.1 155.017C1267.34 154.241 1266.19 153.852 1264.64 153.852C1263.04 153.852 1261.79 154.203 1260.88 154.903C1259.97 155.604 1259.33 156.352 1258.96 157.148L1255.78 156.011C1256.35 154.686 1257.11 153.653 1258.05 152.915C1259.01 152.167 1260.05 151.646 1261.18 151.352C1262.31 151.049 1263.43 150.898 1264.53 150.898C1265.23 150.898 1266.04 150.983 1266.94 151.153C1267.86 151.314 1268.75 151.651 1269.6 152.162C1270.46 152.673 1271.18 153.445 1271.75 154.477C1272.31 155.509 1272.6 156.892 1272.6 158.625V173H1269.25V170.045H1269.08C1268.85 170.519 1268.47 171.026 1267.94 171.565C1267.41 172.105 1266.7 172.564 1265.82 172.943C1264.94 173.322 1263.87 173.511 1262.6 173.511ZM1263.11 170.5C1264.44 170.5 1265.55 170.24 1266.46 169.719C1267.38 169.198 1268.07 168.526 1268.54 167.702C1269.01 166.878 1269.25 166.011 1269.25 165.102V162.034C1269.1 162.205 1268.79 162.361 1268.31 162.503C1267.83 162.635 1267.29 162.754 1266.66 162.858C1266.04 162.953 1265.44 163.038 1264.86 163.114C1264.28 163.18 1263.81 163.237 1263.45 163.284C1262.58 163.398 1261.76 163.582 1261.01 163.838C1260.26 164.084 1259.65 164.458 1259.19 164.96C1258.73 165.453 1258.51 166.125 1258.51 166.977C1258.51 168.142 1258.94 169.023 1259.8 169.619C1260.67 170.206 1261.77 170.5 1263.11 170.5ZM1288.21 151.182V154.023H1276.9V151.182H1288.21ZM1280.19 145.955H1283.55V166.75C1283.55 167.697 1283.68 168.407 1283.96 168.881C1284.24 169.345 1284.6 169.657 1285.04 169.818C1285.48 169.97 1285.95 170.045 1286.44 170.045C1286.81 170.045 1287.12 170.027 1287.35 169.989C1287.59 169.941 1287.78 169.903 1287.92 169.875L1288.6 172.886C1288.38 172.972 1288.06 173.057 1287.65 173.142C1287.24 173.237 1286.73 173.284 1286.1 173.284C1285.16 173.284 1284.23 173.08 1283.32 172.673C1282.42 172.266 1281.67 171.646 1281.07 170.812C1280.49 169.979 1280.19 168.928 1280.19 167.659V145.955ZM1302.16 173.455C1300.06 173.455 1298.25 172.991 1296.72 172.062C1295.21 171.125 1294.04 169.818 1293.21 168.142C1292.4 166.456 1291.99 164.496 1291.99 162.261C1291.99 160.027 1292.4 158.057 1293.21 156.352C1294.04 154.638 1295.18 153.303 1296.65 152.347C1298.13 151.381 1299.85 150.898 1301.82 150.898C1302.96 150.898 1304.08 151.087 1305.19 151.466C1306.29 151.845 1307.3 152.46 1308.21 153.312C1309.12 154.155 1309.85 155.273 1310.39 156.665C1310.93 158.057 1311.2 159.771 1311.2 161.807V163.227H1294.38V160.33H1307.79C1307.79 159.098 1307.54 158 1307.05 157.034C1306.56 156.068 1305.87 155.306 1304.97 154.747C1304.08 154.188 1303.03 153.909 1301.82 153.909C1300.49 153.909 1299.33 154.241 1298.35 154.903C1297.39 155.557 1296.65 156.409 1296.12 157.46C1295.6 158.511 1295.34 159.638 1295.34 160.841V162.773C1295.34 164.42 1295.63 165.817 1296.2 166.963C1296.77 168.099 1297.57 168.966 1298.6 169.562C1299.62 170.15 1300.81 170.443 1302.16 170.443C1303.04 170.443 1303.84 170.32 1304.55 170.074C1305.27 169.818 1305.89 169.439 1306.41 168.938C1306.93 168.426 1307.33 167.792 1307.62 167.034L1310.85 167.943C1310.51 169.042 1309.94 170.008 1309.14 170.841C1308.33 171.665 1307.34 172.309 1306.15 172.773C1304.97 173.227 1303.64 173.455 1302.16 173.455Z" fill="black"/>
<g id="Frame 17">
<rect x="806" y="605" width="359" height="87" rx="6" fill="white"/>
<path id="START" d="M915.391 659.469C914.562 658.719 914.344 658.062 914.734 657.5L915.953 655.742C916.375 655.133 917.055 655.18 917.992 655.883C919.227 656.805 920.508 657.562 921.836 658.156C923.18 658.75 924.805 659.047 926.711 659.047C928.117 659.047 929.305 658.836 930.273 658.414C931.242 657.992 932.016 657.391 932.594 656.609C933.188 655.812 933.484 654.852 933.484 653.727C933.484 652.914 933.359 652.164 933.109 651.477C932.875 650.773 932.492 650.188 931.961 649.719C931.43 649.25 930.875 648.883 930.297 648.617C929.344 648.18 927.914 647.672 926.008 647.094C924.117 646.516 922.461 645.891 921.039 645.219C919.633 644.547 918.508 643.734 917.664 642.781C916.836 641.828 916.281 640.852 916 639.852C915.734 638.836 915.602 637.68 915.602 636.383C915.602 634.398 916.18 632.688 917.336 631.25C918.492 629.812 919.906 628.859 921.578 628.391C923.266 627.922 924.977 627.688 926.711 627.688C928.695 627.688 930.422 627.945 931.891 628.461C933.359 628.977 934.672 629.648 935.828 630.477C936.641 631.055 936.828 631.664 936.391 632.305L935.195 634.016C934.836 634.531 934.133 634.422 933.086 633.688C932.289 633.125 931.312 632.602 930.156 632.117C929.016 631.617 927.883 631.367 926.758 631.367C925.32 631.367 924.125 631.539 923.172 631.883C922.219 632.211 921.469 632.773 920.922 633.57C920.375 634.367 920.102 635.289 920.102 636.336C920.102 636.992 920.164 637.602 920.289 638.164C920.414 638.711 920.734 639.273 921.25 639.852C921.766 640.43 922.391 640.875 923.125 641.188C924.109 641.609 925.633 642.109 927.695 642.688C929.773 643.25 931.586 643.945 933.133 644.773C934.57 645.539 935.602 646.344 936.227 647.188C936.867 648.016 937.359 648.922 937.703 649.906C938.062 650.875 938.242 651.969 938.242 653.188C938.242 655.406 937.672 657.258 936.531 658.742C935.391 660.227 934.039 661.258 932.477 661.836C930.914 662.414 928.953 662.703 926.594 662.703C923.766 662.703 921.422 662.375 919.562 661.719C917.703 661.062 916.312 660.312 915.391 659.469ZM942.32 632.422C941.461 632.422 941.031 632.07 941.031 631.367V629.445C941.031 628.742 941.461 628.391 942.32 628.391H967.117C967.977 628.391 968.406 628.742 968.406 629.445V631.367C968.406 632.07 967.977 632.422 967.117 632.422H956.969V660.711C956.969 661.57 956.578 662 955.797 662H953.641C952.859 662 952.469 661.57 952.469 660.711V632.422H942.32ZM967.234 662C966.422 662 966.211 661.484 966.602 660.453L978.273 629.82C978.633 628.867 979.148 628.391 979.82 628.391H983.102C983.773 628.391 984.289 628.867 984.648 629.82L996.32 660.453C996.711 661.484 996.5 662 995.688 662H993.297C992.469 662 991.906 661.617 991.609 660.852L988.68 653.094H974.242L971.312 660.852C971.016 661.617 970.453 662 969.625 662H967.234ZM975.719 649.25H987.203L983.617 639.875C983.289 639 982.961 638.031 982.633 636.969C982.32 635.906 981.945 634.398 981.508 632.445H981.414C980.977 634.398 980.594 635.906 980.266 636.969C979.953 638.031 979.633 639 979.305 639.875L975.719 649.25ZM1001.97 662C1001.19 662 1000.8 661.57 1000.8 660.711V629.68C1000.8 628.82 1001.19 628.391 1001.97 628.391H1013.29C1017.8 628.391 1021.07 629.234 1023.09 630.922C1025.12 632.609 1026.13 634.836 1026.13 637.602C1026.13 640.039 1025.31 642.086 1023.67 643.742C1022.05 645.398 1019.73 646.352 1016.71 646.602V646.648C1018.3 647.836 1019.36 648.742 1019.88 649.367C1020.39 649.977 1020.97 650.805 1021.61 651.852L1026.91 660.453C1027.55 661.484 1027.41 662 1026.48 662H1023.81C1023.08 662 1022.53 661.695 1022.17 661.086L1017.3 652.719C1016.59 651.516 1015.59 650.336 1014.27 649.18C1012.96 648.023 1011.33 647.445 1009.38 647.445H1005.3V660.711C1005.3 661.57 1004.91 662 1004.12 662H1001.97ZM1005.3 643.602H1012.07C1015.12 643.602 1017.46 643.203 1019.1 642.406C1020.74 641.594 1021.56 639.898 1021.56 637.32C1021.56 635.352 1020.81 634.016 1019.31 633.312C1017.81 632.594 1015.77 632.234 1013.2 632.234H1005.3V643.602ZM1031.62 632.422C1030.76 632.422 1030.33 632.07 1030.33 631.367V629.445C1030.33 628.742 1030.76 628.391 1031.62 628.391H1056.41C1057.27 628.391 1057.7 628.742 1057.7 629.445V631.367C1057.7 632.07 1057.27 632.422 1056.41 632.422H1046.27V660.711C1046.27 661.57 1045.88 662 1045.09 662H1042.94C1042.16 662 1041.77 661.57 1041.77 660.711V632.422H1031.62Z" fill="black"/>
</g>
</g>
</svg>
