<svg width="1911" height="439" viewBox="0 0 1911 439" fill="none" xmlns="http://www.w3.org/2000/svg">
<g id="Group 142">
<path id="Vector 71" d="M1011 367L946 376L961 378L1011 375L1097 369L1145.5 366L1230 351L1260.5 335.5L1299.5 342.5L1308.5 351.5L1312.5 352.5L1315.5 340L1323.5 341L1326 351.5L1328.5 350.5L1328 345L1333.5 342.5L1336 352.5L1340.5 356L1347 369.5L1428.5 382.5L1671.5 364.5L1709.5 352L1700.5 339.5H1739.5L1735.5 323L1720.5 305L1682.5 273.5L1675.5 255.5L1677 224L1660.5 218L1657 265L1638.5 277L1632.5 194V162L1611.5 147L1607.5 167V273.5L1567.5 284V216L1537.5 46.5H1496.5L1476 34.5L1352.5 15L1339.5 24.5H1301L1270.5 162.5L1278.5 285L1232 277L1215 240.5L1222.5 187V145L1195 153.5V190L1187 232V285L1165 302.5L1141 298H1111.5L1097 332L1011 367Z" fill="#B88905"/>
<path id="Vector 70" d="M167 385L61 411L178 405.5L235 359.5L271.5 362L292.5 377.5L344.5 365.5L472.5 381.5L503.5 374L594.5 377L599 374L601 370.5H603L604 376L608 377.5L615.5 369L635.5 366.5L631 372L639.5 378L676 384.5L680.5 383L621 351L617 308L569.5 296.5L538.5 312L519.5 282L517 185.5L499 134L497.5 85.5L486.5 86L479 100V168L457.5 150.5L451.5 15.5L397 0L385 15.5L368.5 6.5L276.5 23.5L257.5 41V150.5L244.5 166.5L239 256.5L218.5 239.5L216 183.5L183 159.5L190 254L167 385Z" fill="#B88905"/>
<path id="Vector 69" d="M1911 438.5H0V430L41.5 408.5L170.5 402.5H179.5L236.5 356.5L266 357.5L294 374L350 361.5L474 378.5L504.5 371L596 374.5L601 370.5L602 368H605L606 373L609.5 374.5L617 365.5L637 363.5L631 369L640 374.5L678 381.5L720 371L836 376.5L876.5 367.5L959 375.5L1142 363.5L1229 348.5L1259.5 333L1298 340L1307.5 349L1310.5 349.5L1315 337.5L1321.5 338.5L1324 349L1327.5 348L1327 342.5L1333.5 340C1333.5 343.333 1334.6 350.7 1339 353.5C1343.4 356.3 1344.83 363.667 1345 367L1425 378.5L1666 364L1706 349L1697 336H1748.5L1803 383H1845.5L1894.5 367.5L1911 438.5Z" fill="#665010"/>
</g>
</svg>
