<svg width="121" height="126" viewBox="0 0 121 126" fill="none" xmlns="http://www.w3.org/2000/svg">
<g id="NewPlantTree">
<g id="Ellipse 35" filter="url(#filter0_f_987_18237)">
<ellipse cx="60.5" cy="63" rx="56.5" ry="59" fill="#FFC727" fill-opacity="0.6"/>
</g>
<g id="Group 114">
<path id="Vector" d="M85.2866 72.6975C84.7588 72.9613 84.1768 73.0987 83.5867 73.0987C82.9966 73.0987 82.4146 72.9613 81.8868 72.6975C80.7224 72.229 79.2099 72.925 78.7281 71.359C78.5972 70.98 78.5861 70.57 78.6963 70.1845C78.8064 69.799 79.0325 69.4567 79.3437 69.2041L79.5445 69.0434C79.5445 69.0434 79.5445 68.2002 80.7224 68.0396C81.9002 67.879 82.4356 68.5883 83.2655 69.0434C84.0953 69.4985 85.8487 69.2576 86.9061 70.9575C87.0519 71.1762 87.1646 71.4153 87.2407 71.6669C87.4147 72.5101 86.1967 72.1888 85.2866 72.6975Z" fill="#41915C"/>
<path id="Vector_2" d="M88.1103 63.9836C86.7909 64.3234 85.5017 64.7711 84.2556 65.3221C82.81 66.1653 81.9266 67.9321 80.4008 67.6242C78.8749 67.3164 76.7333 66.8211 78.2592 63.9836C78.2592 63.9836 78.2592 63.9167 78.2592 63.8765C78.2592 63.8364 76.4924 64.3182 75.5823 63.3947C75.3654 63.1168 75.2121 62.7947 75.1333 62.4512C75.0545 62.1076 75.052 61.751 75.126 61.4063C75.2 61.0617 75.3488 60.7376 75.5617 60.4567C75.7747 60.1758 76.0467 59.9451 76.3585 59.7808C77.8041 59.0982 77.871 60.0217 79.2631 59.1651C80.6551 58.3085 81.5652 59.0179 83.4926 59.1651C84.868 59.3554 86.2536 59.4627 87.6419 59.4863C88.9397 59.6297 90.1467 60.2214 91.055 61.1594C91.1323 61.2203 91.2 61.2925 91.2558 61.3736C91.7644 61.9357 88.9536 63.5419 88.1103 63.9836Z" fill="#41915C"/>
<path id="Vector_3" opacity="0.2" d="M91.1353 61.1594C86.6551 60.7559 82.1593 61.742 78.2592 63.9836C78.2592 63.9836 78.2592 63.9167 78.2592 63.8765C78.2592 63.8364 76.4924 64.3182 75.5823 63.3947C75.3654 63.1168 75.2121 62.7947 75.1333 62.4512C75.0545 62.1076 75.052 61.751 75.126 61.4063C75.2 61.0617 75.3488 60.7376 75.5617 60.4567C75.7747 60.1758 76.0467 59.9451 76.3585 59.7808C77.8041 59.0982 77.871 60.0217 79.2631 59.1651C80.6551 58.3085 81.5652 59.0179 83.4926 59.1651C84.868 59.3554 86.2536 59.4627 87.6419 59.4863C88.9681 59.6114 90.2065 60.2045 91.1353 61.1594Z" fill="white"/>
<path id="Vector_4" d="M78.1505 33.9882C77.4678 35.6479 80.0912 38.0036 74.898 40.6805C72.1407 42.0859 70.8826 38.0036 70.8826 38.0036H70.5479C68.045 38.3114 66.7734 37.8162 66.7734 35.1392C66.7734 32.4623 67.349 30.2137 69.7716 28.9153C71.4268 27.9299 72.9667 26.7627 74.3626 25.4353C75.9155 24.5284 77.7101 24.1218 79.5023 24.2708C79.7158 24.2878 79.9268 24.3282 80.1314 24.3913C81.0683 24.7393 79.5291 27.0682 80.1314 28.9153C80.7337 30.7624 78.8331 32.3151 78.1505 33.9882Z" fill="#41915C"/>
<path id="Vector_5" opacity="0.2" d="M78.1513 33.9881C77.4687 35.6478 80.0921 38.0035 74.8989 40.6804C72.1416 42.0858 70.8834 38.0035 70.8834 38.0035H70.5488C71.7267 34.8313 74.8453 27.4028 79.5032 24.2708C79.7167 24.2877 79.9277 24.3281 80.1323 24.3912C81.0692 24.7392 79.53 27.0682 80.1323 28.9153C80.7346 30.7623 78.834 32.315 78.1513 33.9881Z" fill="black"/>
<path id="Vector_6" d="M88.7664 43.3044C87.4948 44.5224 87.4279 45.7671 85.4202 46.7576C83.4125 47.7481 81.2709 50.1707 78.9554 50.2912C76.6398 50.4116 74.766 49.9432 74.94 48.4441C75.114 46.945 76.9744 45.4727 77.4429 45.0845L77.55 45.0042C74.9667 44.8704 74.873 44.9105 74.873 42.7957C74.873 40.6809 79.0624 39.3291 80.3741 39.918C81.6859 40.507 84.2156 38.0709 85.2596 38.4725C86.0403 38.7689 86.8536 38.9711 87.6822 39.0748C88.2574 39.1703 88.8392 39.2195 89.4222 39.222C90.9481 39.222 90.0379 42.1265 88.7664 43.3044Z" fill="#41915C"/>
<path id="Vector_7" opacity="0.2" d="M87.7491 39.0748C85.0069 42.0821 81.4107 44.179 77.4429 45.0845L77.55 45.0042C74.9667 44.8704 74.873 44.9105 74.873 42.7957C74.873 40.6809 79.0624 39.3291 80.3741 39.918C81.6859 40.507 84.2156 38.0709 85.2596 38.4725C86.0618 38.7741 86.8978 38.9764 87.7491 39.0748Z" fill="black"/>
<path id="Vector_8" d="M63.4428 41.6443C62.4121 43.13 59.1195 42.9828 56.911 41.042L56.4158 40.5468C56.4158 40.5468 56.6032 46.3691 54.3679 46.1416C52.1327 45.914 49.8037 44.0669 47.6086 41.6443C45.4135 39.2217 46.6851 37.843 46.1096 35.2062C45.534 32.5694 44.2625 32.8773 44.142 28.9823C43.9213 25.7997 44.3775 22.6065 45.4805 19.613C45.6183 19.1265 45.8502 18.6718 46.1631 18.2746C46.8858 17.4581 47.5685 18.7163 49.4423 18.7832C51.865 18.8635 54.1672 20.1886 56.9378 22.9592C59.7084 25.7298 60.8461 31.4987 63.4428 32.8773C66.0394 34.2559 64.5403 40.0248 63.4428 41.6443Z" fill="#41915C"/>
<path id="Vector_9" opacity="0.2" d="M63.4427 41.6446C62.412 43.1303 59.1194 42.983 56.9109 41.0423C54.4347 31.9139 48.2644 21.5943 46.2031 18.2882C46.9259 17.4718 47.6085 18.7299 49.4824 18.7968C51.905 18.8772 54.2072 20.2022 56.9779 22.9729C59.7485 25.7435 60.8862 31.5123 63.4828 32.891C66.0794 34.2696 64.5402 40.025 63.4427 41.6446Z" fill="white"/>
<path id="Vector_10" d="M53.0155 54.3467C51.744 55.6851 49.3213 54.6679 47.5947 54.3467C45.8681 54.0254 39.1757 53.6239 37.5696 52.4862C35.9634 51.3485 32.122 49.6085 32.0015 48.27C31.9902 48.105 32.0429 47.942 32.1487 47.8149C33.1793 46.4764 38.7206 43.5987 41.6786 43.3712C44.6367 43.1436 45.8681 43.3712 49.9103 45.4458C53.4438 47.2662 52.5872 49.5683 51.5432 49.6888C51.3995 49.734 51.2453 49.734 51.1015 49.6888C51.1015 49.6888 54.2871 53.0617 53.0155 54.3467Z" fill="#41915C"/>
<path id="Vector_11" opacity="0.2" d="M51.6116 49.6888C40.4755 45.4057 34.5193 47.0118 32.0699 48.27C32.0585 48.105 32.1113 47.942 32.2171 47.8149C33.2477 46.4764 38.789 43.5987 41.747 43.3712C44.7051 43.1436 45.9364 43.3712 49.9786 45.4458C53.4453 47.2662 52.6154 49.5683 51.6116 49.6888Z" fill="black"/>
<path id="Vector_12" d="M48.2638 84.8504C48.6386 81.9861 52.4399 79.4965 52.2124 77.6093C52.2185 77.1588 52.346 76.7183 52.5816 76.3344C52.8172 75.9504 53.152 75.6371 53.5508 75.4276C54.0193 75.1063 55.438 74.0891 55.9467 74.1961C56.165 74.2791 56.3958 74.3244 56.6293 74.33C57.1379 74.2497 57.3521 73.5671 57.8473 73.4199L58.1819 73.3529C58.328 73.3177 58.4616 73.2428 58.5679 73.1365C58.6741 73.0303 58.749 72.8967 58.7842 72.7506C58.7842 72.5498 58.7842 72.3357 58.9315 72.1751C59.034 72.0768 59.1514 71.9955 59.2795 71.9341C59.5165 71.7382 59.7122 71.4971 59.855 71.2247C60.0023 71.0106 60.6849 70.4752 61.0061 70.5555C61.0973 70.5831 61.1771 70.6394 61.2336 70.7161C61.6242 71.0674 61.8877 71.538 61.9832 72.0546C61.9832 72.3357 61.9832 72.6569 62.1036 72.8845C62.2241 73.112 63.0272 73.0986 63.2681 73.4734C63.3525 73.6667 63.4153 73.8687 63.4555 74.0757C63.6563 74.5308 64.3255 74.6646 64.4326 75.1598C64.5798 75.8692 64.5664 75.9362 65.316 75.6283C65.7577 75.4409 66.1324 75.1197 66.5741 74.9189C66.7821 74.8019 67.0132 74.7318 67.2512 74.7136C67.4891 74.6955 67.7282 74.7297 67.9515 74.814C68.1748 74.8982 68.3769 75.0303 68.5436 75.2011C68.7103 75.3719 68.8376 75.5771 68.9165 75.8023C70.2549 78.1045 69.2912 79.1619 70.6699 80.8216C72.0485 82.4813 73.2397 83.3379 73.2263 84.837C73.213 86.3361 71.8209 92.1317 71.1249 92.5868C70.4289 93.0419 69.5188 92.4529 67.2166 93.9253C64.9144 95.3976 66.1458 96.7628 63.4555 96.7628C60.7652 96.7628 60.0826 96.4951 59.4401 96.7628C58.7976 97.0305 58.985 99.587 56.2144 96.7628C53.4437 93.9386 47.5946 90.2311 48.2638 84.8504Z" fill="#263238"/>
<path id="Vector_13" d="M69.427 91.0474C69.6349 91.6315 69.7126 92.2539 69.6548 92.8712C69.597 93.4885 69.4051 94.0857 69.0924 94.6211C68.8515 95.1297 68.5168 95.5982 68.2893 95.9596C68.0625 96.3669 67.9957 96.8441 68.1019 97.298C68.1367 97.544 68.2089 97.7833 68.3161 98.0074C68.4641 98.2569 68.5725 98.5278 68.6373 98.8105C68.6295 99.0681 68.6611 99.3254 68.731 99.5735C68.731 99.6805 68.8381 99.801 68.8916 99.9616C68.9131 100.05 68.9134 100.142 68.8924 100.23C68.8715 100.319 68.83 100.401 68.7712 100.47C68.557 100.725 68.3696 100.818 68.2625 101.059C68.1457 101.294 68.0558 101.541 67.9948 101.795C67.8625 102.313 67.7773 102.842 67.7405 103.375C67.7228 102.837 67.7587 102.299 67.8476 101.769C67.8875 101.493 67.9594 101.224 68.0618 100.965C68.1421 100.698 68.4232 100.47 68.5302 100.31C68.6373 100.149 68.5302 99.9884 68.3964 99.7073C68.2842 99.449 68.2207 99.1722 68.209 98.8908C68.1214 98.6624 68.0045 98.4465 67.861 98.2484C67.7174 97.992 67.6093 97.7174 67.5397 97.4319C67.3723 96.8458 67.4198 96.2193 67.6736 95.6651C67.9145 95.1163 68.1688 94.6746 68.3562 94.2062C68.5437 93.7598 68.6524 93.2843 68.6775 92.8008C68.7082 92.3689 68.63 91.9363 68.4499 91.5426L69.427 91.0474Z" fill="#263238"/>
<path id="Vector_14" d="M62.8006 94.0191C62.6088 95.0294 62.7254 96.0741 63.1352 97.0173C63.3394 97.2637 63.5063 97.5388 63.6304 97.8337C63.7051 98.2075 63.6332 98.5956 63.4296 98.9179C63.3069 99.1173 63.2293 99.3412 63.2021 99.5738C63.2084 99.8314 63.2444 100.087 63.3092 100.337C63.4557 101.46 63.5451 102.59 63.5769 103.723C63.5769 104.272 63.8446 104.794 63.9249 105.369C63.9905 105.648 63.9843 105.94 63.9071 106.216C63.8299 106.492 63.684 106.744 63.4832 106.949C63.6619 106.737 63.784 106.484 63.8378 106.212C63.8917 105.941 63.8756 105.66 63.7911 105.396C63.6572 104.861 63.4029 104.339 63.2824 103.777C63.1647 102.666 62.986 101.562 62.747 100.471C62.646 100.18 62.5787 99.8794 62.5463 99.5738C62.5438 99.2432 62.6219 98.917 62.7738 98.6234C63.0013 98.0479 62.8943 98.1148 62.4124 97.5125C61.795 96.4382 61.5239 95.1996 61.6361 93.9656L62.8006 94.0191Z" fill="#263238"/>
<path id="Vector_15" d="M57.5259 92.8008L57.1779 95.4777C57.13 95.6211 57.13 95.7761 57.1779 95.9194C57.2448 96.0934 57.3787 96.2675 57.4858 96.5218C57.5678 96.6691 57.6109 96.835 57.6109 97.0036C57.6109 97.1723 57.5678 97.3381 57.4858 97.4854C57.3254 97.7012 57.1198 97.8794 56.8835 98.0075C56.7215 98.0731 56.5917 98.1994 56.5217 98.3595C56.4516 98.5195 56.447 98.7006 56.5087 98.8641C56.6847 99.2977 56.8235 99.7455 56.9236 100.203C56.8905 100.648 56.8905 101.096 56.9236 101.541C56.9681 101.755 57.0613 101.955 57.1959 102.127C57.3306 102.299 57.503 102.437 57.6999 102.532C57.4839 102.454 57.2886 102.328 57.1285 102.163C56.9685 101.998 56.8481 101.799 56.7764 101.581C56.7095 101.138 56.6738 100.691 56.6693 100.243C56.5207 99.8329 56.3418 99.4347 56.1339 99.0515C56.0517 98.7901 56.0517 98.5098 56.1339 98.2484C56.2261 97.9832 56.3994 97.7538 56.6291 97.5925C56.7774 97.4887 56.9084 97.3623 57.0173 97.2178C57.0334 97.1628 57.0358 97.1048 57.0241 97.0487C57.0124 96.9927 56.9871 96.9405 56.9504 96.8965L56.589 96.3611C56.4301 96.1044 56.3509 95.8063 56.3614 95.5045V92.8276L57.5259 92.8008Z" fill="#263238"/>
<path id="Vector_16" d="M53.1504 91.6496C53.07 91.6496 52.8425 91.6496 52.6685 91.9574C52.4889 92.2562 52.3962 92.5992 52.4008 92.9479C52.3809 93.3251 52.4355 93.7026 52.5614 94.0588C52.7563 94.4806 52.8742 94.9339 52.9094 95.3973V95.665H52.6551C52.4701 95.6899 52.2923 95.7533 52.1332 95.851C51.9741 95.9487 51.8372 96.0786 51.7313 96.2324C51.6254 96.3862 51.5529 96.5604 51.5184 96.7439C51.4838 96.9274 51.4881 97.1162 51.5308 97.2979C51.7313 97.6966 51.9056 98.108 52.0528 98.5293C52.1871 98.9628 52.2548 99.4141 52.2536 99.8678C52.2038 99.4301 52.0911 99.0018 51.919 98.5962C51.745 98.1947 51.4906 97.8333 51.2631 97.4184C51.1701 97.1782 51.1319 96.9203 51.1515 96.6635C51.171 96.4067 51.2478 96.1575 51.3761 95.9342C51.5045 95.7109 51.6811 95.5192 51.8931 95.373C52.1052 95.2268 52.3472 95.1299 52.6016 95.0894L52.3339 95.3839C52.2456 95.0096 52.0964 94.6524 51.8922 94.3265C51.6898 93.9066 51.5673 93.4527 51.5308 92.988C51.4865 92.4792 51.5741 91.9675 51.7851 91.5023C51.9102 91.2376 52.0932 91.0043 52.3205 90.8197C52.4568 90.7051 52.6146 90.6188 52.7847 90.5659C52.9548 90.5131 53.1337 90.4947 53.311 90.5118L53.1504 91.6496Z" fill="#263238"/>
<path id="Vector_17" d="M49.5754 87.7816C49.6825 87.7816 49.5754 87.7013 49.3613 87.7816C49.1844 87.9476 49.0707 88.17 49.04 88.4107C48.9698 88.7646 48.8621 89.1101 48.7188 89.4413C48.6526 89.5502 48.6176 89.6752 48.6176 89.8027C48.6176 89.9301 48.6526 90.0552 48.7188 90.1641C48.7841 90.3064 48.8649 90.441 48.9597 90.5656C49.0416 90.6478 49.1054 90.7463 49.1469 90.8546C49.1884 90.963 49.2067 91.0788 49.2007 91.1947C49.1743 91.3034 49.1248 91.4051 49.0555 91.4929C48.9862 91.5807 48.8987 91.6525 48.7991 91.7033C48.6769 91.8035 48.5607 91.9107 48.4511 92.0246C48.3432 92.1409 48.2602 92.2781 48.2073 92.4278C48.1544 92.5774 48.1326 92.7362 48.1433 92.8946C48.1583 93.059 48.2245 93.2145 48.3325 93.3394C48.4406 93.4642 48.585 93.5521 48.7455 93.5906C48.5691 93.5677 48.404 93.4912 48.2724 93.3716C48.1407 93.2519 48.049 93.0948 48.0094 92.9214C47.9679 92.7408 47.9643 92.5536 47.9988 92.3716C48.0334 92.1895 48.1053 92.0167 48.2102 91.8639C48.3842 91.5561 48.7991 91.2616 48.7723 91.1412C48.7456 91.0207 48.3976 90.7664 48.2102 90.4585C48.0853 90.2794 48.0034 90.074 47.9709 89.8581C47.9384 89.6422 47.9562 89.4217 48.0228 89.2138C48.1056 88.8981 48.1594 88.5755 48.1834 88.2501C48.2023 87.8014 48.3721 87.3722 48.6652 87.032C48.8527 86.8394 49.0885 86.7008 49.3479 86.6305C49.5123 86.5878 49.6842 86.5825 49.851 86.6149C50.0178 86.6473 50.1751 86.7167 50.3116 86.8179L49.5754 87.7816Z" fill="#263238"/>
<path id="Vector_18" d="M71.0977 88.2635C71.0976 88.1785 71.1169 88.0946 71.154 88.0181C71.1911 87.9416 71.245 87.8745 71.3118 87.8218C71.3756 87.7665 71.4501 87.7248 71.5307 87.6995C71.6113 87.6741 71.6963 87.6657 71.7803 87.6746C71.9099 87.6789 72.0354 87.7207 72.1417 87.795C72.2826 87.8921 72.3939 88.0265 72.4629 88.1832L72.6369 88.5714C72.7574 88.8391 72.8778 89.0933 72.9983 89.4146C73.1412 89.7625 73.1694 90.1471 73.0786 90.5121C72.9655 90.8227 72.7875 91.1055 72.5566 91.342C72.379 91.5271 72.2523 91.7551 72.189 92.0038C72.1257 92.2524 72.1278 92.5132 72.1952 92.7608C72.3414 93.0405 72.3841 93.3629 72.3157 93.671C72.2094 93.9497 72.0554 94.2079 71.8606 94.4338C72.0045 94.1886 72.1084 93.9221 72.1684 93.6442C72.1844 93.3689 72.0986 93.0974 71.9275 92.8813C71.7925 92.5841 71.7352 92.2574 71.7609 91.932C71.7867 91.6066 71.8947 91.293 72.0748 91.0208C72.4094 90.472 72.4629 90.1909 72.1952 89.7626C72.0748 89.5618 71.9008 89.3075 71.7401 89.0666L71.4992 88.7052C71.4189 88.5847 71.4992 88.7721 71.4992 88.7052C71.5516 88.7208 71.6074 88.7208 71.6598 88.7052C71.7251 88.7115 71.7911 88.7041 71.8533 88.6834C71.9156 88.6626 71.9728 88.629 72.0212 88.5847C72.0728 88.542 72.1149 88.489 72.1449 88.4291C72.1748 88.3692 72.192 88.3037 72.1952 88.2368L71.0977 88.2635Z" fill="#263238"/>
<path id="Vector_19" d="M59.4653 52.4121C58.7209 48.2966 57.6832 44.2396 56.36 40.2722C55.0572 36.3156 53.4876 32.452 51.662 28.7078C53.3029 32.5246 54.6891 36.446 55.8113 40.4462C56.9312 44.4287 57.7676 48.4854 58.3142 52.5861C58.3142 52.8672 58.3812 53.1349 58.4213 53.416C57.4175 52.72 56.4002 52.0775 55.3562 51.435C53.9192 50.5894 52.4405 49.8165 50.9259 49.1195C47.9192 47.6809 44.6856 46.7752 41.3691 46.4425C44.6485 46.9271 47.8188 47.9778 50.7384 49.5478C53.5353 51.0095 56.1806 52.7446 58.6355 54.7277C59.0077 58.1014 59.1998 61.4925 59.211 64.8867C59.2466 68.9754 58.9287 73.0596 58.2607 77.0935L60.5629 77.5085C61.0652 73.3075 61.1951 69.0704 60.951 64.8465C60.7498 60.6719 60.2533 56.5167 59.4653 52.4121Z" fill="#263238"/>
<path id="Vector_20" d="M75.3949 65.6498C76.7766 64.6835 78.2465 63.85 79.7851 63.1602C80.8558 62.6115 82.0069 62.2635 83.1312 61.8218C84.2556 61.3801 85.4602 61.1525 86.6247 60.8179C85.4334 61.0588 84.2288 61.2328 83.0509 61.5407C79.4739 62.4373 76.0719 63.9257 72.9856 65.9442C70.9169 67.3235 69.0284 68.9557 67.364 70.8029C66.2289 72.0475 65.2075 73.3913 64.3123 74.8183C64.2011 71.8146 64.2636 68.8069 64.4997 65.8104C64.8105 61.687 65.3827 57.5875 66.213 53.5366C66.6279 51.6494 67.0696 49.7621 67.5514 47.8883C70.5853 47.1119 73.579 46.2196 76.5326 45.2113C78.0584 44.6759 79.5575 44.087 81.0298 43.4311C82.5204 42.8078 83.9063 41.9591 85.139 40.9148C83.8643 41.8931 82.4468 42.6695 80.9362 43.217C79.4505 43.8059 77.9246 44.3145 76.3987 44.783C73.5746 45.6128 70.6968 46.3222 67.8191 46.9379C68.3144 45.131 68.8364 43.324 69.4655 41.584C70.0678 39.5897 70.8708 37.6757 71.5936 35.7216C72.3164 33.7674 73.2265 31.8935 74.043 29.9795C73.1462 31.8534 72.1691 33.7004 71.3661 35.6144C70.563 37.5285 69.6662 39.4157 68.9702 41.3833C67.4552 45.2882 66.1724 49.2794 65.1288 53.3358C64.0947 57.4049 63.3213 61.5358 62.8132 65.7033C62.2557 69.9084 62.081 74.1554 62.2912 78.392L64.6068 78.1243C64.6068 77.9771 64.6068 77.8165 64.6068 77.6693L65.3429 77.9369C66.204 75.7928 67.3668 73.7827 68.7962 71.9674C70.2372 70.0867 71.9102 68.3957 73.7753 66.9347L74.8059 66.1852C76.2272 67.3405 77.7767 68.3285 79.4237 69.1298C81.1959 70.0261 83.1213 70.5801 85.0988 70.7627C83.164 70.4437 81.3068 69.7625 79.6245 68.755C78.1053 67.8777 76.6869 66.8364 75.3949 65.6498Z" fill="#263238"/>
</g>
</g>
<defs>
<filter id="filter0_f_987_18237" x="0" y="0" width="121" height="126" filterUnits="userSpaceOnUse" color-interpolation-filters="sRGB">
<feFlood flood-opacity="0" result="BackgroundImageFix"/>
<feBlend mode="normal" in="SourceGraphic" in2="BackgroundImageFix" result="shape"/>
<feGaussianBlur stdDeviation="2" result="effect1_foregroundBlur_987_18237"/>
</filter>
</defs>
</svg>
