<svg width="93" height="208" viewBox="0 0 93 208" fill="none" xmlns="http://www.w3.org/2000/svg">
<g id="Planting">
<g id="freepik--tree--inject-4">
<g id="freepik--Soil--inject-4">
<path id="Vector" d="M92.1959 182.96C91.3844 181.747 90.2178 180.815 88.8559 180.29C86.5059 179.39 83.9159 179.53 81.4059 179.69C82.0359 172.6 74.8859 167.9 68.4859 167.9C66.5846 167.97 64.7555 168.646 63.2659 169.83C61.2709 167.732 58.85 166.085 56.1659 165C52.2834 163.26 47.9835 162.67 43.7759 163.3C41.4742 163.71 39.2785 164.579 37.3199 165.855C35.3613 167.132 33.6799 168.79 32.3759 170.73C30.2259 168.44 26.9859 167.52 23.8559 167.21C21.1302 166.811 18.3474 167.225 15.8559 168.4C13.4359 169.71 11.6059 172.4 11.9659 175.11C8.8059 175.36 5.43589 176.06 3.25589 178.37C1.07589 180.68 0.8959 185.03 3.6259 186.66C0.7359 186.92 -0.724104 190.66 0.355896 193.4C1.5759 196.4 4.5559 198.07 7.4859 198.81C9.28743 199.312 11.1584 199.518 13.0259 199.42C14.7776 199.304 16.4913 198.856 18.0759 198.1C18.6444 198.957 19.3825 199.688 20.2445 200.249C21.1065 200.81 22.0742 201.188 23.0879 201.36C24.1017 201.533 25.14 201.496 26.1389 201.251C27.1378 201.007 28.0761 200.561 28.8959 199.94C29.6178 201.631 30.7521 203.114 32.1951 204.254C33.638 205.393 35.3437 206.153 37.156 206.463C38.9683 206.774 40.8295 206.625 42.5694 206.03C44.3093 205.436 45.8725 204.415 47.1159 203.06C48.3712 204.692 50.0304 205.969 51.9298 206.764C53.8292 207.559 55.9031 207.844 57.9467 207.593C59.9904 207.342 61.9331 206.562 63.5832 205.33C65.2332 204.098 66.5336 202.458 67.3559 200.57C70.8759 203.32 75.1959 203.29 79.1059 201.48C80.9862 200.592 82.5471 199.147 83.5759 197.34C83.8059 196.93 85.2059 192.03 84.7859 192.13C86.593 191.794 88.3371 191.18 89.9559 190.31C90.756 189.861 91.4425 189.235 91.9626 188.479C92.4827 187.723 92.8225 186.858 92.9559 185.95C93.0431 184.896 92.7756 183.844 92.1959 182.96Z" fill="#263238"/>
<path id="Vector_2" d="M32.0761 182.98C31.3374 181.961 30.2516 181.247 29.0231 180.972C27.7947 180.698 26.5083 180.882 25.4061 181.49C24.5713 180.491 23.4882 179.729 22.2657 179.28C21.0431 178.832 19.7241 178.714 18.4412 178.937C17.1583 179.16 15.9567 179.716 14.957 180.551C13.9573 181.385 13.1948 182.468 12.7461 183.69C13.3607 182.807 14.1603 182.069 15.0893 181.527C16.0183 180.985 17.0543 180.651 18.1252 180.551C19.1961 180.45 20.2762 180.583 21.2901 180.943C22.304 181.302 23.2275 181.878 23.9961 182.63C24.2535 182.878 24.4909 183.145 24.7061 183.43C24.8163 183.329 24.9332 183.235 25.0561 183.15C25.3886 182.904 25.7517 182.702 26.1361 182.55C27.2062 182.113 28.3921 182.048 29.5037 182.365C30.6152 182.682 31.588 183.364 32.2661 184.3C32.6208 184.785 32.885 185.331 33.0461 185.91C33.0398 184.856 32.7003 183.83 32.0761 182.98Z" fill="#263238"/>
<path id="Vector_3" d="M55.9764 178.08C56.6625 177.135 57.6704 176.473 58.8103 176.219C59.9502 175.964 61.1438 176.136 62.1664 176.7C62.9439 175.776 63.95 175.073 65.0844 174.66C66.2187 174.247 67.4416 174.139 68.6308 174.346C69.8201 174.554 70.9341 175.07 71.8616 175.842C72.7891 176.615 73.4976 177.618 73.9164 178.75C73.346 177.931 72.6044 177.246 71.7429 176.743C70.8815 176.24 69.9209 175.93 68.9277 175.835C67.9346 175.739 66.9326 175.861 65.9913 176.192C65.05 176.523 64.1918 177.054 63.4764 177.75C63.2376 177.982 63.0138 178.229 62.8064 178.49L62.4964 178.24C61.4662 177.495 60.1832 177.189 58.9277 177.388C57.6723 177.586 56.5465 178.274 55.7964 179.3C55.4703 179.751 55.2235 180.255 55.0664 180.79C55.0856 179.815 55.4031 178.869 55.9764 178.08Z" fill="#263238"/>
<path id="Vector_4" d="M40.5758 191.9C41.2619 190.955 42.2697 190.293 43.4097 190.039C44.5496 189.785 45.7431 189.956 46.7658 190.52C47.5432 189.596 48.5494 188.893 49.6838 188.48C50.8181 188.067 52.041 187.959 53.2302 188.166C54.4195 188.374 55.5335 188.89 56.461 189.662C57.3884 190.435 58.097 191.438 58.5158 192.57C57.9444 191.751 57.2018 191.066 56.3395 190.563C55.4773 190.059 54.5159 189.749 53.5219 189.654C52.528 189.559 51.5253 189.681 50.5832 190.012C49.6411 190.343 48.7821 190.874 48.0658 191.57C47.8329 191.805 47.6126 192.052 47.4058 192.31C47.3055 192.219 47.1985 192.135 47.0858 192.06C46.7774 191.832 46.4414 191.644 46.0858 191.5C45.0944 191.095 43.9956 191.034 42.9656 191.328C41.9356 191.621 41.0342 192.253 40.4058 193.12C40.0758 193.569 39.8286 194.074 39.6758 194.61C39.6875 193.635 40.002 192.688 40.5758 191.9Z" fill="#263238"/>
</g>
<path id="Vector_5" d="M63.2167 21.49C66.0867 14.7 60.5467 5.98 61.0967 0C51.9767 5.43 45.8767 14.17 46.7967 21.87C47.3021 25.2793 48.68 28.5 50.7967 31.22C55.9767 30.95 60.9567 26.84 63.2167 21.49Z" fill="#0D7D2B"/>
<path id="Vector_6" d="M8.41649 96.1299C4.20649 92.5099 5.01648 84.7699 2.64648 80.9199C10.6465 81.5399 17.6465 85.3899 19.6465 90.9199C20.4354 93.3928 20.5766 96.0268 20.0565 98.5699C16.4665 100.08 11.7265 98.9799 8.41649 96.1299Z" fill="#0D7D2B"/>
<path id="Vector_7" d="M84.7249 86.7201C89.4149 83.7201 89.7249 75.9701 92.6149 72.5001C84.6149 71.9601 77.1149 74.7601 74.3949 79.9201C73.254 82.2519 72.7339 84.8386 72.8849 87.4301C76.1849 89.4401 81.0349 89.0601 84.7249 86.7201Z" fill="#0D7D2B"/>
<path id="Vector_8" d="M36.5466 93.3201C36.9366 89.9401 33.3466 86.8001 32.8066 84.0801C29.4766 87.6701 27.9066 92.3401 29.3166 95.6301C29.9912 97.0704 31.0241 98.3134 32.3166 99.2401C33.4889 98.7249 34.5005 97.9031 35.2449 96.8612C35.9894 95.8194 36.4391 94.596 36.5466 93.3201Z" fill="#0D7D2B"/>
<path id="Vector_9" d="M56.7357 8.97001C53.8818 16.1358 51.647 23.5328 50.0557 31.08C48.3434 38.7206 47.0482 46.4487 46.1757 54.23C44.3657 69.23 44.0657 84.47 44.1757 99.6C44.1757 103.78 44.2324 107.967 44.3457 112.16C44.4257 116.46 43.1857 153.55 42.8457 175.83C42.8457 177.83 48.1057 178.01 48.0657 175.83C47.6657 153.83 46.9757 109.71 46.8957 102.17C46.8157 94.63 46.8457 87.26 47.0357 79.81C47.3004 64.6284 48.6606 49.4857 51.1057 34.5C51.8257 30.33 52.6157 26.17 53.5957 22.05C54.5957 17.71 55.8657 13.44 57.0057 9.14001C57.0357 8.97001 56.8357 8.74001 56.7357 8.97001Z" fill="#37474F"/>
<path id="Vector_10" d="M29.9067 107.24C25.2867 102.14 12.2567 88.9202 8.98673 86.4202C11.0567 88.8302 16.8267 95.7102 20.7267 100.62C24.8167 105.77 45.0467 129.39 45.0467 129.39L45.2967 124.72C45.2967 124.72 33.9567 111.71 29.9067 107.24Z" fill="#37474F"/>
<path id="Vector_11" d="M45.9453 109.52V113.83C51.7053 108.65 67.9453 94.07 71.7653 90.33C76.2753 85.98 82.9053 79.91 85.2653 77.79C81.7053 79.84 67.0453 91.24 61.8053 95.69C58.2253 98.73 49.6053 106.3 45.9453 109.52Z" fill="#37474F"/>
<path id="Vector_12" d="M37.8551 116.94L36.5551 119.23C34.285 112.488 32.7658 105.516 32.0251 98.4401C31.8593 95.9222 31.876 93.3956 32.0751 90.8801C32.0751 90.8201 32.1851 90.8801 32.1851 90.9301C32.2751 93.0001 32.3551 95.0601 32.5851 97.1201C32.8355 99.2539 33.196 101.373 33.6651 103.47C34.5326 107.51 35.7163 111.476 37.2051 115.33C37.4151 115.87 37.6351 116.44 37.8551 116.94Z" fill="#37474F"/>
<path id="Vector_13" d="M74.2862 52.08C77.4262 49.37 76.8162 43.59 78.5862 40.71C72.5862 41.17 67.3662 44.05 65.9062 48.16C65.3147 50.012 65.2079 51.9849 65.5962 53.89C68.2662 55.04 71.8062 54.21 74.2862 52.08Z" fill="#0D7D2B"/>
<path id="Vector_14" d="M70.6866 65.28C73.2266 65.16 75.1167 62.14 77.0567 61.42C74.0567 59.42 70.3766 58.79 68.1166 60.23C67.1311 60.8994 66.3353 61.8123 65.8066 62.88C66.3282 63.6828 67.057 64.3297 67.9161 64.7521C68.7751 65.1746 69.7324 65.357 70.6866 65.28Z" fill="#0D7D2B"/>
<path id="Vector_15" d="M58.2051 60.3798C61.6651 56.5798 71.4151 46.6898 73.8551 44.8198C72.3051 46.6198 67.9951 51.8198 65.0751 55.4398C62.0151 59.2898 46.8851 76.9498 46.8851 76.9498L46.7051 73.4498C46.7051 73.4498 55.1751 63.7298 58.2051 60.3798Z" fill="#37474F"/>
<path id="Vector_16" d="M53.4164 69.0902L51.5664 68.4102C56.269 65.9207 61.2325 63.9587 66.3664 62.5602C68.2026 62.136 70.0677 61.8486 71.9464 61.7002C71.9464 61.7002 71.9464 61.7702 71.9464 61.7802C70.4364 62.1002 68.9464 62.4002 67.4264 62.7802C65.9064 63.1602 64.3664 63.7802 62.8664 64.3402C59.9898 65.4545 57.2046 66.7919 54.5364 68.3402C54.1464 68.6402 53.7764 68.8602 53.4164 69.0902Z" fill="#37474F"/>
<path id="Vector_17" d="M29.7561 21.32C27.6961 17.72 30.2061 12.47 29.5061 9.16003C34.9661 11.59 38.9661 16.07 38.9661 20.43C38.9053 22.3731 38.3439 24.2676 37.3361 25.93C34.4361 26.12 31.3561 24.16 29.7561 21.32Z" fill="#0D7D2B"/>
<path id="Vector_18" d="M28.7256 34.96C26.3656 33.96 25.6056 30.52 24.0156 29.19C27.5756 28.3 31.1856 28.95 32.8356 31.06C33.5403 32.0205 33.9847 33.147 34.1256 34.33C33.3663 34.9128 32.4633 35.2792 31.5126 35.3901C30.5618 35.501 29.5987 35.3524 28.7256 34.96Z" fill="#0D7D2B"/>
<path id="Vector_19" d="M42.1264 34.5299C40.1264 29.7799 34.2664 17.1999 32.5964 14.6199C33.4464 16.8399 35.7864 23.1299 37.3064 27.5699C38.9064 32.2199 47.2464 53.9199 47.2464 53.9199L48.5864 50.6899C48.5864 50.6899 43.8564 38.6899 42.1264 34.5299Z" fill="#37474F"/>
<path id="Vector_20" d="M43.7266 44.3399H45.7266C42.1231 40.4229 38.0988 36.9151 33.7266 33.8799C32.1286 32.8611 30.4573 31.962 28.7266 31.1899C28.7266 31.1899 28.7266 31.2599 28.7266 31.2799C30.0466 32.0899 31.3766 32.8699 32.6366 33.7699C33.8966 34.6699 35.2066 35.7099 36.4166 36.7699C38.7505 38.7954 40.9206 41.0023 42.9066 43.3699C43.1866 43.6599 43.4566 43.9999 43.7266 44.3399Z" fill="#37474F"/>
<path id="Vector_21" d="M64.7165 89.2401C65.9465 86.0701 63.2765 82.1201 63.4465 79.3501C59.3065 81.9801 56.6165 86.1001 57.1465 89.6401C57.4335 91.2092 58.1226 92.677 59.1465 93.9001C60.4077 93.6946 61.5903 93.1536 62.5703 92.3336C63.5504 91.5137 64.2917 90.4452 64.7165 89.2401Z" fill="#0D7D2B"/>
<path id="Vector_22" d="M59.3551 99.7502C59.3551 99.2802 59.3551 98.8002 59.3551 98.3302C59.4551 96.1802 59.6251 94.0402 59.9351 91.9102C60.2451 89.7802 60.6851 87.8502 61.1151 85.8202C61.1151 85.8202 61.0451 85.6902 61.0251 85.7502C60.1833 88.1321 59.5149 90.5718 59.0251 93.0502C58.6351 95.2702 58.3751 97.5502 58.2051 99.7502H59.3551Z" fill="#37474F"/>
<path id="Vector_23" d="M64.4059 101.29C67.6759 100.36 71.4059 103.38 74.1359 103.46C71.1359 107.34 66.7959 109.65 63.3159 108.8C61.7836 108.372 60.3861 107.56 59.2559 106.44C59.5702 105.197 60.2148 104.062 61.1214 103.156C62.028 102.249 63.1629 101.604 64.4059 101.29Z" fill="#0D7D2B"/>
<path id="Vector_24" d="M53.4457 105.71L54.8657 105.81C57.0057 105.91 59.1657 105.93 61.3057 105.81C63.4457 105.69 65.4257 105.44 67.4757 105.19C67.4757 105.19 67.6057 105.27 67.5457 105.29C65.0962 105.899 62.6066 106.333 60.0957 106.59C57.8457 106.77 55.5557 106.82 53.3457 106.79L53.4457 105.71Z" fill="#37474F"/>
<path id="Vector_25" d="M15.2665 55.5103C11.6065 52.4403 12.2665 45.7603 10.1465 42.5103C17.0165 42.9603 23.1465 46.2002 24.8665 50.9202C25.5774 53.0427 25.7255 55.3134 25.2965 57.5103C22.2465 58.8403 18.1565 57.9303 15.2665 55.5103Z" fill="#0D7D2B"/>
<path id="Vector_26" d="M45.7962 79.4399L45.3062 83.1099C40.9762 78.0399 28.7962 63.7399 25.9262 60.1099C22.5662 55.8699 17.5962 49.9399 15.8262 47.8599C18.6362 50.0099 29.8262 61.4199 33.8262 65.8599C36.5362 68.7899 43.0362 76.2399 45.7962 79.4399Z" fill="#37474F"/>
<path id="Vector_27" d="M34.5953 62.0202C33.9053 59.1702 36.5953 56.1002 36.8053 53.7202C40.0353 56.4402 41.8753 60.2602 41.0153 63.2202C40.5958 64.5263 39.8447 65.7012 38.8353 66.6302C37.7794 66.314 36.8283 65.7189 36.0821 64.9076C35.3359 64.0963 34.8223 63.0989 34.5953 62.0202Z" fill="#0D7D2B"/>
<path id="Vector_28" d="M38.0156 71.6098C38.0156 71.2098 38.1056 70.7998 38.1456 70.3898C38.3056 68.5498 38.4056 66.6998 38.3856 64.8498C38.3656 62.9998 38.2056 61.2898 38.0656 59.5098C38.0656 59.5098 38.1456 59.4098 38.1556 59.5098C38.5969 61.6394 38.881 63.7985 39.0056 65.9698C39.0856 67.9098 39.0056 69.8898 38.9456 71.7898L38.0156 71.6098Z" fill="#37474F"/>
<path id="Vector_29" d="M25.8566 66.6302C23.0066 65.9502 19.9366 68.6902 17.5566 68.8602C20.2866 72.0902 24.1067 73.9202 27.0667 73.0502C28.3724 72.625 29.5468 71.8708 30.4766 70.8602C30.1581 69.8049 29.5608 68.855 28.7477 68.1105C27.9347 67.3661 26.9359 66.8547 25.8566 66.6302Z" fill="#0D7D2B"/>
<path id="Vector_30" d="M35.455 70.0298L34.235 70.1598C32.395 70.3298 30.535 70.4298 28.685 70.4198C26.835 70.4098 25.125 70.2498 23.355 70.1098C23.355 70.1098 23.245 70.1898 23.305 70.1998C25.4356 70.6331 27.5944 70.9139 29.765 71.0398C31.705 71.1098 33.675 71.0398 35.575 70.9598L35.455 70.0298Z" fill="#37474F"/>
</g>
</g>
</svg>
