<svg width="1920" height="1079" viewBox="0 0 1920 1079" fill="none" xmlns="http://www.w3.org/2000/svg">
<g id="rainforest" clip-path="url(#clip0_167_219)">
<rect width="1920" height="1079" fill="#8CC9FE"/>
<g id="bakkgrunn">
<path id="Vector" opacity="0.7" d="M1920 0H0V1085.2H1920V0Z" fill="white"/>
</g>
<g id="fjell2">
<path id="fjell" opacity="0.5" d="M1920 348.76V969.102C1534.41 933.805 951.452 835.268 920.667 742.026C876.105 606.721 865 379.704 865 379.704C865 379.704 1271.33 249.988 1346.18 216.691C1421.04 183.394 1661.63 374.174 1701.2 399.764C1740.77 425.354 1842.19 367.644 1881.13 342.995C1886.75 339.406 1900.53 341.936 1920 348.76Z" fill="#11211C"/>
</g>
<g id="fjell1">
<path id="body_fjell" d="M1920 638.988V1078H0V278.282H76.6958C76.6958 278.282 325.078 217.192 346.046 208.084C349.553 207.062 353.291 206.627 357.023 206.807C408.669 206.307 605.053 240.128 631.439 237.129C660.57 233.464 693.922 214.915 702.295 216.637C709.331 217.858 758.585 253.679 781.242 270.951C785.394 274.116 788.279 276.504 790.53 278.282C802.492 288.389 844.288 288.278 869.337 287.278C873.129 287.218 876.915 287.554 880.595 288.278C910.007 293.332 960.668 316.046 967.423 317.601C970.689 319.096 973.653 320.968 976.219 323.155C997.891 339.149 1049.82 384.244 1049.82 384.244C1049.82 384.244 1087.46 420.954 1117.3 424.675L1120.18 424.952C1137 425.896 1174.01 432.394 1207.78 437.781C1234.66 442.057 1259.43 445.667 1270.41 445.223C1286.45 444.501 1302.77 436.06 1316.78 434.116C1320.52 433.428 1324.43 433.583 1328.06 434.565C1331.69 435.548 1334.9 437.316 1337.32 439.669C1347.74 449.444 1391.01 470.603 1424.64 487.208C1438.59 493.731 1452.07 500.85 1465.03 508.534C1479.1 518.753 1494.8 541.523 1538.35 542.189C1540.32 542.275 1542.29 542.275 1544.26 542.189C1547.61 542.39 1550.97 542.035 1554.14 541.145C1557.3 540.255 1560.19 538.852 1562.63 537.024L1563.33 536.358C1565.51 533.859 1565.3 531.637 1567.41 532.415C1572.69 535.546 1577.55 539.101 1581.91 543.022C1612.51 567.236 1787.93 662.091 1835.21 642.154C1846.13 637.712 1858.13 635.174 1870.39 634.712C1887.11 634.041 1903.86 635.485 1920 638.988Z" fill="#BFBFBF"/>
<path id="skygge_fjell" opacity="0.1" d="M1919.64 638.538V1077.56H0V501.194C3.36856 499.822 6.93555 498.778 10.6228 498.084C24.13 496.473 141.404 446.434 141.404 446.434L208.588 467.427L265.29 446.434C265.29 446.434 218.718 521.243 208.588 522.02C198.458 522.798 141.404 569.005 141.404 569.005C141.404 569.005 133.032 649.145 120.299 651.867C107.565 654.588 216.186 655.81 216.186 655.81L257.903 613.657H311.651L345.982 603.549C345.982 603.549 370.323 586.333 367.087 594.885C363.851 603.438 388.192 619.044 391.569 628.819C394.945 638.593 386.925 663.529 383.689 670.083C380.453 676.636 334.022 675.026 334.022 681.19C334.022 687.355 341.409 762.108 346.052 767.828C350.695 773.549 322.837 792.987 346.052 792.043C369.268 791.098 431.598 818.923 431.598 818.923L480.21 801.595C480.21 801.595 511.164 775.27 513.485 773.826C515.807 772.382 545.635 825.698 546.479 831.918C547.324 838.139 556.188 894.731 556.188 894.731C556.188 894.731 593.403 897.119 604.729 894.731C616.056 892.343 653.975 866.018 653.975 866.018C653.975 866.018 679.441 831.752 673.883 824.699C668.326 817.645 604.659 670.083 604.659 670.083L599.242 603.438C599.242 603.438 500.752 636.094 491.677 628.485C482.602 620.877 436.944 588.998 436.944 588.998L383.619 575.669L345.982 569.283H302.435V404.17L221.11 376.402L246.718 346.023L256.004 335.249L135.424 325.085L19.276 345.967L0 343.19V277.601H76.6816C76.6816 277.601 325.017 216.51 345.982 207.402C349.488 206.38 353.226 205.945 356.956 206.124C375.74 227.118 368.775 236.892 383.619 244.501C400.714 253.331 534.45 263.994 546.409 260.829C558.369 257.663 601.845 253.72 610.78 249.721C619.714 245.722 631.392 267.882 631.392 267.882C642.303 266.97 653.283 266.691 664.246 267.049C677.19 267.826 691.19 286.487 691.19 286.487C691.19 286.487 745.219 282.877 781.167 270.159C785.318 273.325 788.202 275.713 790.454 277.49C802.413 287.598 844.201 287.486 869.246 286.487C873.037 286.427 876.822 286.763 880.502 287.487C854.472 291.485 753.872 306.258 712.435 303.37L691.33 345.856L735.581 405.503C735.581 405.503 768.223 409.946 773.851 405.503C779.479 401.06 800.162 467.316 800.162 467.316L864.743 474.036C864.743 474.036 930.38 385.177 934.671 383.677C938.963 382.178 967.454 396.728 967.454 396.728L976.248 322.308C997.916 338.303 1049.83 383.399 1049.83 383.399C1049.83 383.399 1087.47 420.11 1117.3 423.831C1104.36 422.72 1050.75 418.277 1032.88 425.33C1012.9 433.105 992.921 438.992 978.781 449.933C964.641 460.874 934.39 482.867 923.556 479.979C912.722 477.091 1032.88 518.188 1032.88 518.188L1104.29 507.803L1195.74 473.037L1207.21 436.937C1234.08 441.214 1258.84 444.824 1269.82 444.379C1285.86 443.657 1302.18 435.216 1316.18 433.272L1282.97 449.933L1204.75 487.643C1204.75 487.643 1173.86 511.413 1178.72 518.577C1183.57 525.741 1150.58 569.005 1150.58 569.005L1173.44 613.435L1204.96 707.848L1259.9 679.135C1259.9 679.135 1374.43 642.037 1384.91 641.703C1395.39 641.37 1436.2 586.166 1436.2 586.166L1421.56 488.032L1424.59 486.588C1438.53 493.11 1452.01 500.229 1464.97 507.914C1479.04 518.133 1494.73 540.903 1538.28 541.57C1540.24 541.656 1542.22 541.656 1544.18 541.57L1499.3 554.288C1499.3 554.288 1486.64 596.218 1479.04 603.382C1471.93 611.306 1465.67 619.684 1460.33 628.43L1395.39 641.592L1411.79 699.406L1447.45 707.626V722.343C1447.45 722.343 1436.41 730.119 1447.45 736.95C1458.5 743.781 1479.04 767.273 1479.04 767.273L1528.99 754.722L1625.58 670.083L1791.18 699.573C1791.18 699.573 1838.39 659.697 1870.12 634.261C1886.81 633.596 1903.53 635.04 1919.64 638.538Z" fill="black"/>
</g>
<g id="fugl_i_himmelen">
<path id="Vector_2" d="M1707 68.1628C1707 68.1628 1661.69 48.9546 1639.66 48.9546C1622.54 48.9546 1615.18 61.3192 1609.71 61.4342C1604.24 61.5492 1593.01 47.1718 1580.88 51.5425L1580.1 51.8876C1576.07 51.9252 1572.06 52.4088 1568.18 53.3253C1561.37 54.488 1554.92 56.769 1549.22 60.0307C1543.52 63.2925 1538.68 67.4673 1535 72.3035C1535 72.3035 1560.04 77.0193 1570.63 73.7412C1576.94 72.3526 1583.49 71.8662 1590 72.3035C1591.77 76.5591 1594.89 80.3506 1599.04 83.2878C1601.45 84.7439 1604.19 85.7951 1607.1 86.381C1610.01 86.9668 1613.03 87.0759 1615.99 86.7018C1618.95 86.3277 1621.79 85.4778 1624.34 84.2011C1626.9 82.9244 1629.13 81.2459 1630.89 79.2621L1634.75 79.6647C1640.79 80.2516 1646.91 79.7753 1652.7 78.2679C1658.49 76.7604 1663.83 74.2564 1668.35 70.9232C1657.33 73.3945 1645.69 73.2749 1634.75 70.5782C1659.02 60.744 1677.05 69.7731 1707 68.1628Z" fill="#216A8E"/>
<path id="Vector_3" d="M1511.5 186.302C1540.84 177.857 1536.81 159.852 1536.81 159.852C1531.62 164.067 1525.29 167.202 1518.36 169.001C1504.21 173.575 1501.67 181.552 1498.84 181.669C1497.85 181.669 1496.44 180.731 1494.81 179.616C1493.1 178.316 1491.11 177.3 1488.94 176.625C1484.91 174.593 1480.65 172.903 1476.21 171.581C1469.26 170.244 1462.14 169.614 1455 169.705C1455 169.705 1473.17 184.249 1489.08 186.595C1489.91 189.067 1491.58 191.288 1493.89 192.988C1495.11 193.727 1496.49 194.26 1497.96 194.554C1499.43 194.848 1500.95 194.898 1502.45 194.702C1503.94 194.506 1505.37 194.067 1506.66 193.41C1507.94 192.754 1509.06 191.893 1509.94 190.877H1511.92C1514.96 191.189 1518.04 190.952 1520.96 190.183C1523.88 189.414 1526.56 188.13 1528.82 186.419C1523.16 187.768 1517.14 187.727 1511.5 186.302Z" fill="#216A8E"/>
<path id="Vector_4" d="M1113.59 123.816C1162.17 109.867 1155.72 79.926 1155.72 79.926C1155.72 79.926 1148.69 87.5134 1125.1 95.1592C1101.51 102.805 1097.51 115.995 1092.88 116.112C1091.26 116.112 1088.95 114.595 1086.21 112.727H1085.86C1083.03 110.572 1079.74 108.871 1076.17 107.708C1069.5 104.347 1062.44 101.551 1055.1 99.3614C1043.6 97.1136 1031.81 96.0551 1020 96.2098C1020 96.2098 1050.12 120.431 1076.17 124.283C1077.56 128.385 1080.36 132.059 1084.24 134.847C1088.31 137.309 1093.39 138.328 1098.37 137.683C1103.34 137.038 1107.81 134.78 1110.78 131.404L1114.01 131.754C1119.05 132.272 1124.17 131.884 1129.01 130.615C1133.86 129.346 1138.32 127.226 1142.09 124.4C1132.72 126.496 1122.82 126.294 1113.59 123.816Z" fill="#216A8E"/>
</g>
<g id="vann_">
<path id="Vector_5" d="M1788 1078H342.786C368.001 1052 397.881 1029.02 431.489 1009.79C437.846 1006.49 444.447 1003.5 451.256 1000.82C491.372 985.985 532.572 973.043 574.639 962.059C600.455 954.971 626.271 948.272 649.274 942.458C695.912 930.665 731.013 922.526 731.013 922.526C731.013 922.526 715.819 785.434 691.199 687.819C680.366 644.632 667.633 609.141 653.494 596.738C639.355 584.336 605.801 575.477 566.69 569.719C480.66 557.095 366.984 558.036 366.984 558.036C366.984 558.036 331.812 433.291 304.378 370.503C300.21 358.941 293.88 347.932 285.596 337.836C276.873 329.807 239.028 320.672 192.602 312.09C125.423 299.687 40.3774 288.392 0 283.298V279.422C70.977 276.432 290.168 267.961 450.834 270.453C545.446 271.892 619.659 277.097 631.477 289.389C643.295 301.68 655.323 329.475 665.171 359.651C683.742 417.345 696.123 485.891 696.123 485.891C696.123 485.891 836.248 491.04 936.347 508.703C984.532 517.229 1023.43 528.691 1032.93 543.861C1039.96 555.323 1047.35 581.457 1054.03 614.401C1075.14 716.279 1092.58 883.491 1092.58 883.491C1092.58 883.491 1172.98 889.36 1279.2 903.479C1302.14 906.524 1326.26 909.957 1351.02 913.777C1380.5 918.318 1410.89 923.467 1441.28 929.225C1506.05 940.9 1569.56 956.581 1631.2 976.122C1712.52 1002.98 1773.93 1036.53 1788 1078Z" fill="#53B172"/>
<path id="body_vann" opacity="0.4" d="M1784 1072.24H1136.78C1119.33 1081.48 1084.16 1078.18 1053.4 1072.24H664.586C637.049 1078.51 617.36 1077.41 601.945 1072.24H344.444C369.56 1046.43 399.323 1023.62 432.8 1004.52C439.132 1001.24 445.707 998.271 452.489 995.611C492.448 980.885 533.487 968.035 575.389 957.129C601.104 950.092 626.819 943.441 649.732 937.668C696.187 925.959 731.151 917.878 731.151 917.878C731.151 917.878 716.017 781.762 691.493 684.843C680.702 641.963 668.02 606.725 653.936 594.411C639.852 582.097 606.43 573.301 567.471 567.584C481.778 555.05 368.547 555.984 368.547 555.984C368.547 555.984 333.513 432.128 306.186 369.787C302.034 358.308 295.729 347.377 287.478 337.353C278.789 329.381 241.093 320.311 194.847 311.79C127.932 299.476 43.2193 288.261 3 283.203V279.355C73.6991 276.387 292.032 267.976 452.069 270.449C546.311 271.879 620.233 277.046 632.005 289.25C643.776 301.455 655.758 329.052 665.567 359.012C684.065 416.295 696.398 484.353 696.398 484.353C696.398 484.353 835.974 489.466 935.681 507.002C983.678 515.468 1022.43 526.848 1031.89 541.911C1038.89 553.29 1046.25 579.238 1052.91 611.948C1073.93 713.1 1091.3 879.121 1091.3 879.121C1091.3 879.121 1171.39 884.948 1277.19 898.967C1300.04 901.99 1324.07 905.398 1348.73 909.192C1378.09 913.7 1408.36 918.812 1438.63 924.529C1503.16 936.121 1566.42 951.69 1627.82 971.092C1708.82 997.755 1769.99 1031.07 1784 1072.24Z" fill="#B2DCFF"/>
<path id="skygge3" opacity="0.4" d="M665.573 359.068C653.592 354.175 638.457 341.092 632.011 337.408C621.641 331.416 629.418 359.398 620.239 376.715C611.06 394.032 610.99 362.202 595.505 363.906C580.02 365.61 588.498 385.401 578.618 385.511C568.739 385.62 542.603 346.259 531.673 354.945C520.742 363.631 542.603 409.919 531.673 396.835C520.742 383.751 498.25 325.974 483.466 337.408C468.681 348.843 494.536 397 474.076 396.835C453.616 396.67 446.469 363.851 446.469 363.851V396.835C446.469 396.835 411.435 360.772 408.632 363.851C405.83 366.929 404.008 404.202 384.319 395.461C371.356 389.963 338.354 373.471 306.192 369.788C302.04 358.308 295.735 347.377 287.484 337.353C278.796 329.382 241.099 320.311 194.854 311.79C243.901 311.79 249.857 308.327 238.016 305.963C226.174 303.599 293.09 304.149 304.23 305.963C315.371 307.777 306.052 293.979 294.981 289.471C283.91 284.963 346.692 295.683 359.654 289.471C372.617 283.259 341.156 285.513 347.603 280.565C354.049 275.618 452.075 281.17 452.075 271.055V270.67C546.317 272.099 620.239 277.267 632.011 289.471C643.782 301.675 655.764 329.107 665.573 359.068Z" fill="#B2DCFF"/>
<path id="skygge2" opacity="0.4" d="M1053.04 612.003C1041.72 610.273 1031.29 605.972 1023.05 599.634C1010.09 590.564 1019.34 630.42 1015.14 640.865C1010.93 651.31 986.057 640.865 986.057 640.865L958.94 594.467L966.438 640.865C966.438 640.865 950.953 620.25 941.073 621.734C931.193 623.218 927.059 649.221 918.721 659.941C910.383 670.661 883.687 668.902 883.687 668.902C876.073 649.508 865.904 630.789 853.347 613.048L869.953 677.917C869.953 677.917 847.742 642.019 821.886 650.43C796.031 658.841 820.065 696.993 800.095 695.289C780.126 693.585 770.176 650.595 746.142 650.43C722.109 650.265 735.071 714.42 720.287 706.229C713.28 702.546 703.611 693.31 691.769 684.789C680.979 641.909 668.296 606.671 654.213 594.357C640.129 582.043 606.706 573.247 567.748 567.53C595.775 554.446 663.251 570.663 664.863 560.823C666.755 549.278 668.506 543.341 691.699 547.244C714.892 551.147 749.856 560.713 771.998 553.401C794.139 546.09 738.715 528.828 770.176 528.773C801.637 528.718 860.704 543.341 849.633 528.773C838.563 514.205 902.115 523.66 906.739 524.32L858.672 508.597C863.367 509.312 949.761 522.891 951.163 518.823C952.144 516.514 943.665 511.236 935.958 506.948C983.955 515.414 1022.7 526.794 1032.16 541.857C1039.03 553.456 1046.25 579.294 1053.04 612.003Z" fill="#B2DCFF"/>
<path id="skygge1" opacity="0.4" d="M1261.43 965.761C1270.67 985.661 1193.32 988.52 1126.68 990.004C1060.05 991.489 1112.32 1006.5 1070.63 1030.03C1028.94 1053.55 994.115 1013.53 955.086 1020.62C916.058 1027.72 936.168 1046.9 886.349 1052.51C836.531 1058.12 829.384 1011.5 790.426 1005.07C751.467 998.635 755.391 1018.54 691.559 1018.32C638.027 1018.32 567.958 987.256 575.526 957.185C601.241 950.148 626.956 943.496 649.868 937.724C651.352 947.816 656.509 957.358 664.723 965.211C679.297 979.999 729.396 985.496 769.825 984.122C810.255 982.748 830.785 1013.53 871.425 1020.62C912.064 1027.72 907.3 980.989 933.715 982.583C960.131 984.177 1007.43 1008.97 1031.81 999.46C1056.2 989.949 1024.8 965.926 1052.83 965.761C1080.86 965.596 1195.42 987.75 1194.16 962.133C1192.9 936.515 1180.15 937.944 1226.11 929.148C1253.44 923.981 1271.87 911.996 1277.12 898.968C1299.96 901.991 1324 905.399 1348.66 909.193C1333.46 918.263 1315.73 921.837 1287.14 930.578C1244.96 943.771 1251.97 945.915 1261.43 965.761Z" fill="#B2DCFF"/>
<g id="skumm1">
<g id="skumm2">
<path id="Vector_6" d="M371.222 551.474C371.222 551.474 353.59 553.712 353.59 541.318C353.59 528.923 375.858 544.867 396.58 536.513C417.303 528.159 425.24 514.673 438.025 518.167C450.81 521.662 456.219 546.56 485.371 527.777C514.523 508.994 554.422 485.789 558.356 500.476C562.29 515.164 589.826 509.431 612.656 497.528C635.485 485.625 672.435 470.828 673.91 479.346C675.385 487.863 678.546 492.996 697.653 480.165C716.76 467.333 753.358 458.324 763.051 470.882C763.051 470.882 854.371 482.567 807.165 486.335C759.96 490.102 737.693 488.573 742.399 500.094C747.106 511.615 669.835 514.727 650.307 517.676C630.779 520.624 640.824 536.622 612.656 536.458C584.487 536.295 523.584 534.329 523.022 539.898C522.46 545.468 433.529 558.299 371.222 551.474Z" fill="#53B172"/>
<g id="Group">
<path id="Vector_7" opacity="0.7" d="M372.173 551.133C372.173 551.133 354.586 553.387 354.586 540.908C354.586 528.429 376.798 544.481 397.468 536.07C418.138 527.659 426.056 514.08 438.808 517.599C451.561 521.117 456.956 546.185 486.034 527.274C515.113 508.363 554.912 484.999 558.836 499.787C562.759 514.575 590.226 508.803 612.998 496.819C635.771 484.834 672.627 469.936 674.098 478.512C675.57 487.088 678.723 492.256 697.781 479.337C716.84 466.418 753.346 457.347 763.015 469.991C763.015 469.991 854.104 481.756 807.018 485.549C759.932 489.342 737.72 487.803 742.415 499.402C747.109 511.002 670.034 514.135 650.555 517.104C631.076 520.073 641.096 536.18 612.998 536.015C584.901 535.85 524.152 533.871 523.591 539.478C523.031 545.086 434.324 558.005 372.173 551.133Z" fill="white"/>
<path id="Vector_8" d="M523.586 539.424C537.6 519.083 548.04 511.937 564.926 519.358C581.813 526.78 590.852 535.85 612.713 519.358C634.574 502.866 644.314 488.628 655.315 493.521C660.785 495.494 665.586 498.451 669.328 502.151C669.328 502.151 684.533 508.473 701.209 495.829C717.886 483.185 737.225 471.256 746.894 477.743" stroke="white" stroke-linecap="round" stroke-linejoin="round"/>
<path id="Vector_9" d="M505.651 536.84C505.651 536.84 508.244 529.144 488.975 531.618C469.706 534.092 455.623 544.702 434.182 542.228" stroke="white" stroke-linecap="round" stroke-linejoin="round"/>
</g>
<path id="Vector_10" d="M371.222 551.474C371.222 551.474 353.59 553.712 353.59 541.318C353.59 528.923 375.858 544.867 396.58 536.513C417.303 528.159 425.24 514.673 438.025 518.167C450.81 521.662 456.219 546.56 485.371 527.777C514.523 508.994 554.422 485.789 558.356 500.476C562.29 515.164 589.826 509.431 612.656 497.528C635.485 485.625 672.435 470.828 673.91 479.346C675.385 487.863 678.546 492.996 697.653 480.165C716.76 467.333 753.358 458.324 763.051 470.882C763.051 470.882 854.371 482.567 807.166 486.335C759.96 490.102 737.693 488.573 742.399 500.094C747.106 511.615 669.835 514.727 650.307 517.676C630.779 520.624 640.824 536.622 612.656 536.458C584.487 536.295 523.584 534.329 523.022 539.898C522.46 545.468 433.529 558.299 371.222 551.474Z" stroke="#263238" stroke-linecap="round" stroke-linejoin="round"/>
</g>
<path id="Vector_11" d="M725.655 902.828C725.655 902.828 696.798 902.083 709.326 888.587C721.854 875.091 737.831 895.087 754.23 894.988C770.629 894.889 784.495 894.293 808.214 878.416C831.933 862.538 833.27 882.236 845.798 888.587C858.326 894.938 888.731 892.358 902.104 878.416C915.477 864.473 943.208 853.905 962.07 866.061C980.933 878.217 1014.93 872.015 1027.81 858.42C1040.69 844.825 1058.78 861.645 1058.78 861.645C1058.78 861.645 1102.62 835.844 1115.08 841.351C1127.54 846.859 1099.46 861.645 1099.46 861.645C1099.46 861.645 1157.52 855.393 1144.5 869.236C1131.48 883.08 1064.83 882.236 1053 888.587C1041.18 894.938 1037.1 917.465 995.22 908.434C953.343 899.404 939.547 899.751 914.421 910.469C889.294 921.186 866.983 921.037 844.742 912.801C822.501 904.564 785.48 918.308 754.582 918.755C723.684 919.201 700.176 919.598 725.655 902.828Z" fill="#53B172"/>
<path id="Vector_12" opacity="0.7" d="M725.655 902.828C725.655 902.828 696.798 902.083 709.326 888.587C721.854 875.091 737.831 895.087 754.23 894.988C770.629 894.889 784.495 894.293 808.214 878.416C831.933 862.538 833.27 882.236 845.798 888.587C858.326 894.938 888.731 892.358 902.104 878.416C915.477 864.473 943.208 853.905 962.07 866.061C980.933 878.217 1014.93 872.015 1027.81 858.42C1040.69 844.825 1058.78 861.645 1058.78 861.645C1058.78 861.645 1102.62 835.844 1115.08 841.351C1127.54 846.859 1099.46 861.645 1099.46 861.645C1099.46 861.645 1157.52 855.393 1144.5 869.236C1131.48 883.08 1064.83 882.236 1053 888.587C1041.18 894.938 1037.1 917.465 995.22 908.434C953.343 899.404 939.547 899.751 914.421 910.469C889.294 921.186 866.983 921.037 844.742 912.801C822.501 904.564 785.48 918.308 754.582 918.755C723.684 919.201 700.176 919.598 725.655 902.828Z" fill="white"/>
<path id="Vector_13" d="M725.654 902.827C744.728 893.152 756.693 897.865 763.661 902.827C770.629 907.789 781.749 911.659 801.245 902.827C820.741 893.995 823.627 892.308 830.454 894.987C837.281 897.667 839.252 902.083 855.51 905.705" stroke="white" stroke-linecap="round" stroke-linejoin="round"/>
<path id="Vector_14" d="M881.412 908.633C901.471 907.641 917.307 881.443 936.522 879.855C955.736 878.267 964.112 894.988 981.285 892.954C999.655 890.771 1001.41 881.046 1017.95 878.069" stroke="white" stroke-linecap="round" stroke-linejoin="round"/>
<path id="Vector_15" d="M1032.31 891.416C1042.58 889.332 1049.41 871.569 1058.77 867.847C1063.06 866.16 1072.85 871.073 1077.77 871.122C1103.32 871.47 1096.57 861.745 1122.96 860.306" stroke="white" stroke-linecap="round" stroke-linejoin="round"/>
<path id="Vector_16" d="M723.751 905.218C723.751 905.218 694.764 904.412 707.348 889.791C719.933 875.17 735.982 896.833 752.456 896.725C768.929 896.618 782.857 895.973 806.683 878.772C830.509 861.571 831.853 882.911 844.438 889.791C857.022 896.671 887.565 893.876 900.998 878.772C914.432 863.667 942.288 852.218 961.236 865.388C980.184 878.557 1014.33 871.838 1027.27 857.11C1040.21 842.381 1058.38 860.604 1058.38 860.604C1058.38 860.604 1102.43 832.652 1114.94 838.619C1127.45 844.585 1099.24 860.604 1099.24 860.604C1099.24 860.604 1157.57 853.831 1144.49 868.828C1131.41 883.825 1064.46 882.911 1052.58 889.791C1040.7 896.671 1036.6 921.075 994.536 911.292C952.469 901.509 938.611 901.885 913.371 913.496C888.131 925.106 865.719 924.945 843.377 916.022C821.036 907.099 783.847 921.989 752.809 922.473C721.771 922.956 698.157 923.386 723.751 905.218Z" stroke="#263238" stroke-linecap="round" stroke-linejoin="round"/>
</g>
</g>
<g id="fugl2">
<g id="hale">
<path id="Vector_17" d="M1861.26 576.649C1870.47 582.987 1872.34 584.955 1870.76 610.332C1869.19 635.71 1863.65 652.961 1866.26 657.203C1868.87 661.445 1879.25 671.515 1885.65 672.154C1885.65 680.613 1886.44 683.884 1897.1 689.097C1907.75 694.311 1913.71 690.069 1913.71 690.069C1915.43 692.63 1918 694.449 1920.92 695.18C1926.56 697.122 1941.91 699.065 1945.04 693.544C1948.16 688.024 1915.51 578.975 1886.76 557.839C1858.02 536.704 1861.26 576.649 1861.26 576.649Z" fill="#357249"/>
<path id="Vector_18" opacity="0.6" d="M1861.26 576.649C1870.47 582.987 1872.34 584.955 1870.76 610.332C1869.19 635.71 1863.65 652.961 1866.26 657.203C1868.87 661.445 1879.25 671.515 1885.65 672.154C1885.65 680.613 1886.44 683.884 1897.1 689.097C1907.75 694.311 1913.71 690.069 1913.71 690.069C1915.43 692.63 1918 694.449 1920.92 695.18C1926.56 697.122 1941.91 699.065 1945.04 693.544C1948.16 688.024 1915.51 578.975 1886.76 557.839C1858.02 536.704 1861.26 576.649 1861.26 576.649Z" fill="white"/>
<path id="Vector_19" opacity="0.3" d="M1883.29 605.528C1882.72 599.778 1882.31 593.9 1881.2 588.226C1881.2 588.098 1881.05 588.226 1881.05 588.226C1881.3 593.337 1881.99 598.449 1882.4 603.432C1882.82 608.416 1883.14 613.655 1883.41 618.766C1883.99 628.989 1884.3 639.262 1884.35 649.587C1884.35 655.414 1884.35 661.267 1884.5 667.119C1884.5 667.375 1884.79 667.477 1884.82 667.119C1885.62 656.781 1885.76 646.399 1885.23 636.042C1884.89 625.837 1884.24 615.665 1883.29 605.528ZM1913.07 665.407C1912.26 658.174 1911.12 650.967 1909.84 643.812C1907.43 629.67 1903.92 615.756 1899.34 602.206C1896.74 594.516 1893.61 587.033 1889.96 579.818C1889.96 579.614 1889.69 579.946 1889.76 580.099C1895.45 593.149 1900.06 606.674 1903.54 620.53C1907 634.452 1909.61 648.587 1911.35 662.851C1912.4 671.438 1912.9 680.102 1913.22 688.765C1913.22 689.047 1913.63 689.43 1913.68 688.944C1914.36 681.1 1914.15 673.202 1913.07 665.407Z" fill="#357249"/>
</g>
<g id="kropp">
<path id="group_body1" d="M1749.56 443.96C1742.92 440.305 1743.8 431.181 1747.35 421.956C1750.89 412.73 1761.25 403.836 1765.02 389.627C1768.78 375.417 1767.48 361.514 1764.57 355.918C1761.67 350.321 1762.58 347.433 1768.54 351.777C1774.49 356.122 1781.14 371.967 1779.36 386.176C1777.59 400.386 1773.19 408.181 1774.44 410.251C1775.7 412.321 1779.36 412.321 1783.94 401.996C1788.52 391.671 1791.89 379.992 1791.33 371.328C1790.76 362.664 1794.2 364.913 1796.42 371.098C1798.63 377.283 1799.05 387.378 1797.08 397.932C1795.12 408.487 1792.16 412.602 1793.32 413.266C1794.48 413.931 1799.94 410.966 1802.82 404.552C1805.7 398.137 1809 394.687 1809.88 399.951C1810.77 405.216 1807.42 415.796 1806.36 420.397C1805.3 424.997 1810.99 423.157 1815.2 423.617C1819.41 424.077 1818.72 429.341 1816.28 430.951C1819.6 433.916 1822.58 436.216 1818.22 438.286C1821.82 441.276 1823.15 445.621 1822.48 452.036C1821.82 458.45 1832.84 482.703 1853.83 505.704C1874.83 528.705 1884.52 564.177 1885.63 574.042C1886.74 583.907 1877.02 582.987 1868.18 578.847C1859.35 574.707 1845.47 575.601 1830.65 573.122C1807.22 569.238 1791.28 560.088 1778.53 547.566C1765.78 535.043 1756.38 512.451 1761.82 490.881C1767.95 466.756 1769.2 465.453 1764.4 461.313C1759.07 455.893 1754.11 450.095 1749.56 443.96Z" fill="#357249"/>
<path id="group_body2" opacity="0.8" d="M1749.56 443.96C1742.92 440.305 1743.8 431.181 1747.35 421.956C1750.89 412.73 1761.25 403.836 1765.02 389.627C1768.78 375.417 1767.48 361.514 1764.57 355.918C1761.67 350.321 1762.58 347.433 1768.54 351.777C1774.49 356.122 1781.14 371.967 1779.36 386.176C1777.59 400.386 1773.19 408.181 1774.44 410.251C1775.7 412.321 1779.36 412.321 1783.94 401.996C1788.52 391.671 1791.89 379.992 1791.33 371.328C1790.76 362.664 1794.2 364.913 1796.42 371.098C1798.63 377.283 1799.05 387.378 1797.08 397.932C1795.12 408.487 1792.16 412.602 1793.32 413.266C1794.48 413.931 1799.94 410.966 1802.82 404.552C1805.7 398.137 1809 394.687 1809.88 399.951C1810.77 405.216 1807.42 415.796 1806.36 420.397C1805.3 424.997 1810.99 423.157 1815.2 423.617C1819.41 424.077 1818.72 429.341 1816.28 430.951C1819.6 433.916 1822.58 436.216 1818.22 438.286C1821.82 441.276 1823.15 445.621 1822.48 452.036C1821.82 458.45 1832.84 482.703 1853.83 505.704C1874.83 528.705 1884.52 564.177 1885.63 574.042C1886.74 583.907 1877.02 582.987 1868.18 578.847C1859.35 574.707 1845.47 575.601 1830.65 573.122C1807.22 569.238 1791.28 560.088 1778.53 547.566C1765.78 535.043 1756.38 512.451 1761.82 490.881C1767.95 466.756 1769.2 465.453 1764.4 461.313C1759.07 455.893 1754.11 450.095 1749.56 443.96Z" fill="#FF976A"/>
<path id="Highlights3" opacity="0.3" d="M1768.54 351.777C1768.13 351.517 1767.71 351.278 1767.28 351.062C1767.01 351.182 1766.77 351.376 1766.59 351.623C1766.42 351.87 1766.3 352.161 1766.27 352.467C1766.28 352.75 1766.34 353.029 1766.45 353.288C1766.56 353.546 1766.71 353.78 1766.91 353.975C1767.88 354.965 1768.9 355.903 1769.96 356.786C1770.49 357.232 1770.9 357.813 1771.14 358.472C1771.39 359.13 1771.47 359.844 1771.37 360.543C1771.19 361.105 1770.87 361.617 1770.7 362.204C1770.16 363.968 1771.39 365.757 1772.5 367.316C1773.61 368.875 1774.64 370.766 1773.8 372.427C1773.36 373.27 1772.5 373.807 1772.08 374.676C1771.22 376.363 1772.37 378.356 1773.43 379.941C1774.49 381.525 1775.5 383.672 1774.39 385.205C1773.83 386.023 1772.77 386.432 1772.35 387.326C1771.71 388.809 1773.11 390.291 1773.65 391.799C1773.84 392.343 1773.91 392.921 1773.88 393.496C1773.84 394.072 1773.69 394.634 1773.43 395.147C1772.94 396.092 1772.1 396.885 1771.98 397.958C1771.86 399.031 1773.04 400.514 1773.16 402.073C1773.03 403.492 1772.49 404.837 1771.61 405.932C1770.92 407.158 1770.53 408.922 1771.61 409.867C1771.96 410.139 1772.38 410.303 1772.81 410.339C1773.25 410.375 1773.69 410.282 1774.07 410.072C1774.15 410.03 1774.23 409.978 1774.29 409.918C1773.78 407.363 1777.69 399.696 1779.34 386.381C1781.14 371.967 1774.49 356.173 1768.54 351.777Z" fill="#357249"/>
<path id="Highlights2" opacity="0.3" d="M1793.05 412.73C1793.05 411.247 1795.31 406.928 1797.03 397.881C1799 387.326 1798.58 377.232 1796.37 371.047C1795.29 367.98 1793.91 365.936 1792.8 365.578C1792.68 366.956 1793.04 368.334 1793.81 369.462C1794.59 370.588 1795.17 371.853 1795.51 373.194C1795.58 373.461 1795.58 373.744 1795.51 374.012C1795.31 374.275 1795.06 374.486 1794.77 374.625C1794.36 374.903 1794.02 375.281 1793.78 375.726C1793.54 376.171 1793.4 376.67 1793.39 377.181C1793.5 378.542 1793.96 379.848 1794.72 380.963C1795.09 381.524 1795.33 382.172 1795.4 382.85C1795.47 383.528 1795.38 384.215 1795.14 384.847C1794.77 385.563 1794.03 386.023 1793.61 386.713C1793.32 387.44 1793.19 388.224 1793.23 389.01C1793.26 389.796 1793.46 390.565 1793.81 391.262C1794.18 391.955 1794.37 392.733 1794.37 393.524C1794.37 394.315 1794.18 395.092 1793.81 395.786C1793.37 396.297 1792.73 396.603 1792.31 397.14C1790.71 399.287 1793.81 402.635 1792.46 404.96C1792.13 405.396 1791.79 405.814 1791.42 406.213C1790.82 407.294 1790.57 408.549 1790.71 409.791C1790.66 410.439 1790.77 411.088 1791.03 411.682C1791.26 412.011 1791.56 412.278 1791.91 412.46C1792.27 412.642 1792.65 412.735 1793.05 412.73Z" fill="#357249"/>
<path id="Highlights1" opacity="0.3" d="M1802.74 414.595C1802.74 415.157 1803.28 415.566 1803.58 416.052C1804.01 417.191 1804.09 418.439 1803.83 419.63C1803.83 420.831 1804.15 422.339 1805.3 422.594C1805.69 422.648 1806.09 422.604 1806.46 422.467C1806.29 422.145 1806.19 421.789 1806.16 421.423C1806.14 421.057 1806.19 420.689 1806.31 420.345C1807.39 415.771 1810.72 405.216 1809.83 399.9C1809.56 398.188 1808.99 397.344 1808.3 397.344C1807.96 397.425 1807.65 397.597 1807.39 397.844C1807.13 398.09 1806.94 398.403 1806.83 398.75C1806.36 400.386 1808.03 402.328 1807.02 403.682C1806.48 404.398 1805.43 404.475 1804.86 405.19C1803.48 406.928 1806.63 409.663 1805.47 411.605C1804.76 412.857 1802.55 413.164 1802.74 414.595Z" fill="#357249"/>
</g>
<g id="&#195;&#184;ye gruppe">
<path id="&#195;&#184;ye4" d="M1784.51 424.716C1782.45 425.784 1780.59 427.24 1779.04 429.009C1776.59 431.649 1774.89 434.938 1774.12 438.516C1773.72 440.31 1773.7 442.173 1774.05 443.977C1774.41 445.781 1775.14 447.484 1776.19 448.969C1777.28 450.425 1778.76 451.51 1780.45 452.084C1782.14 452.658 1783.96 452.694 1785.66 452.189C1789.48 450.86 1791.5 448.049 1793.17 443.321C1794.84 438.593 1795.85 430.159 1791.32 425.431C1790.4 424.598 1789.24 424.082 1788.02 423.953C1786.8 423.825 1785.58 424.092 1784.51 424.716Z" fill="white"/>
<path id="&#195;&#184;ye3" d="M1784.04 434.938C1783.53 434.614 1782.96 434.415 1782.36 434.356C1781.77 434.296 1781.17 434.378 1780.61 434.594C1780.05 434.811 1779.54 435.157 1779.13 435.606C1778.72 436.055 1778.41 436.596 1778.23 437.187C1777.73 438.61 1777.62 440.152 1777.94 441.634C1777.99 442.2 1778.16 442.747 1778.44 443.24C1778.71 443.733 1779.08 444.161 1779.52 444.496C1779.97 444.831 1780.47 445.065 1781.01 445.184C1781.55 445.303 1782.1 445.304 1782.64 445.186C1783.34 445.046 1784 444.743 1784.57 444.301C1785.14 443.858 1785.61 443.287 1785.93 442.63C1786.31 441.614 1786.48 440.525 1786.43 439.436C1786.53 438.796 1786.45 438.14 1786.2 437.545C1786.09 437.354 1785.96 437.174 1785.81 437.008C1785.3 436.249 1784.7 435.555 1784.04 434.938Z" fill="#37474F"/>
<path id="&#195;&#184;ye2" d="M1785.24 437.954C1785.33 438.415 1785.29 438.894 1785.11 439.329C1784.94 439.764 1784.65 440.136 1784.27 440.397C1783.89 440.659 1783.45 440.798 1783 440.798C1782.55 440.798 1782.1 440.658 1781.73 440.396C1781.35 440.134 1781.06 439.762 1780.88 439.327C1780.71 438.892 1780.67 438.413 1780.76 437.952C1780.85 437.491 1781.06 437.067 1781.39 436.736C1781.71 436.404 1782.12 436.179 1782.56 436.088C1782.86 436.025 1783.16 436.024 1783.45 436.084C1783.75 436.143 1784.03 436.264 1784.28 436.437C1784.53 436.611 1784.74 436.835 1784.91 437.095C1785.07 437.355 1785.19 437.647 1785.24 437.954Z" fill="#455A64"/>
<path id="&#195;&#184;ye1" d="M1782.29 436.753C1782.33 436.922 1782.33 437.097 1782.3 437.267C1782.27 437.438 1782.21 437.6 1782.12 437.746C1782.03 437.891 1781.91 438.015 1781.77 438.113C1781.63 438.21 1781.48 438.277 1781.31 438.311C1781.15 438.345 1780.98 438.345 1780.82 438.311C1780.65 438.276 1780.5 438.208 1780.36 438.111C1780.22 438.013 1780.11 437.888 1780.02 437.742C1779.92 437.597 1779.86 437.434 1779.83 437.264C1779.77 436.926 1779.84 436.577 1780.03 436.291C1780.21 436.005 1780.49 435.804 1780.82 435.73C1781.14 435.663 1781.48 435.732 1781.76 435.924C1782.04 436.116 1782.23 436.414 1782.29 436.753Z" fill="white"/>
<path id="skinn" d="M1791.2 453.952C1790.82 455.103 1790.82 456.353 1791.2 457.505C1791.53 458.472 1792.12 459.324 1792.89 459.964C1793.66 460.605 1794.59 461.009 1795.58 461.131C1796.56 461.253 1797.55 461.089 1798.45 460.656C1799.35 460.223 1800.11 459.539 1800.65 458.68C1801.26 457.649 1801.54 456.444 1801.45 455.237C1801.37 454.03 1800.91 452.883 1800.16 451.959C1799.59 451.321 1798.89 450.831 1798.1 450.526C1797.32 450.222 1796.47 450.113 1795.64 450.207C1794.81 450.302 1794.01 450.597 1793.31 451.07C1792.6 451.543 1792.02 452.18 1791.6 452.93C1791.44 453.26 1791.31 453.602 1791.2 453.952Z" fill="#357249"/>
</g>
<g id="mund">
<path id="nedre_mund" d="M1749.41 465.734C1752.61 468.289 1760.64 467.752 1763.91 465.274C1767.18 462.795 1770.38 457.811 1768.49 453.85C1761.96 451.524 1748.04 455.843 1749.41 465.734Z" fill="#37474F"/>
<path id="over_mund" d="M1751.55 439.206C1746.51 441.123 1739.64 446.669 1739.12 459.012C1738.68 468.75 1743.46 473.094 1745.4 472.762C1747.34 472.43 1748.01 468.698 1750.57 464.635C1753.13 460.571 1756.99 457.735 1764.74 456.073C1770.26 454.872 1769.47 450.962 1767.67 446.822C1765.88 442.682 1758.22 436.676 1751.55 439.206Z" fill="#455A64"/>
</g>
<g id="vinger">
<path id="Vector_20" d="M1828.8 470.539C1813.5 465.427 1803.55 475.42 1809.61 502.816C1815.66 530.213 1833.43 544.397 1851.45 551.987C1869.46 559.577 1894.02 567.474 1902.93 582.323C1911.84 597.171 1909.28 575.729 1902.93 568.139C1903.87 560.472 1895.94 546.365 1886.71 537.113C1886.71 522.597 1876.75 507.877 1864.34 495.022C1852.63 482.831 1841.92 475.036 1828.8 470.539Z" fill="#357249"/>
<path id="Vector_21" opacity="0.7" d="M1828.8 470.539C1813.5 465.427 1803.55 475.42 1809.61 502.816C1815.66 530.213 1833.43 544.397 1851.45 551.987C1869.46 559.577 1894.02 567.474 1902.93 582.323C1911.84 597.171 1909.28 575.729 1902.93 568.139C1903.87 560.472 1895.94 546.365 1886.71 537.113C1886.71 522.597 1876.75 507.877 1864.34 495.022C1852.63 482.831 1841.92 475.036 1828.8 470.539Z" fill="#E64C4C"/>
<path id="vinge del" opacity="0.3" d="M1840.59 479.867C1840.71 479.653 1840.82 479.431 1840.91 479.202C1840.94 479.101 1840.94 478.996 1840.91 478.896C1840.9 478.853 1840.87 478.816 1840.84 478.792C1840.8 478.768 1840.76 478.76 1840.72 478.768C1840.66 478.797 1840.62 478.841 1840.59 478.896C1840.17 479.61 1839.54 480.165 1838.8 480.48C1838.05 480.793 1837.26 480.957 1836.46 480.966C1835.16 481.016 1833.86 480.79 1832.64 480.301C1831.46 479.706 1830.33 478.977 1829.3 478.129C1829.3 478.129 1829 477.95 1828.85 478.129C1828.71 478.308 1828.85 478.87 1828.98 479.1C1829.37 480.105 1829.45 481.215 1829.2 482.269C1828.92 483.594 1828.19 484.768 1827.13 485.566C1825.82 486.524 1824.22 486.968 1822.63 486.818C1821.83 486.754 1821.05 486.6 1820.29 486.358C1819.9 486.358 1819.55 486.051 1819.18 485.924C1818.81 485.796 1818.3 485.745 1818.52 486.23C1819.35 487.917 1820.17 489.629 1820.98 491.342C1821.81 493.059 1822.43 494.88 1822.82 496.759C1823.25 498.788 1823.19 500.893 1822.65 502.893C1822.11 504.656 1820.63 506.829 1818.62 505.781C1817.98 505.474 1818 506.471 1818.27 506.778C1821.37 509.825 1823.87 513.46 1825.65 517.486C1826.55 519.483 1826.75 521.746 1826.2 523.875C1825.29 526.431 1822.41 526.022 1820.34 525.817C1820.76 526.262 1821.28 526.603 1821.84 526.816C1822.41 527.028 1823.01 527.106 1823.61 527.044C1824.19 527.079 1824.77 526.97 1825.3 526.726C1825.83 526.481 1826.3 526.108 1826.66 525.638C1827.19 524.637 1827.5 523.532 1827.59 522.396C1827.67 521.26 1827.53 520.118 1827.16 519.045C1825.73 514.616 1823.3 510.609 1820.07 507.365C1823.12 507.365 1824.25 501.82 1824.18 499.238C1823.78 495.076 1822.39 491.08 1820.14 487.61C1821.47 488.177 1822.91 488.388 1824.33 488.222C1825.76 488.057 1827.12 487.521 1828.29 486.665C1829.13 485.962 1829.78 485.048 1830.18 484.011C1830.59 482.974 1830.73 481.847 1830.6 480.736C1831.86 481.542 1833.27 482.064 1834.74 482.269C1836.03 482.571 1837.37 482.455 1838.6 481.937C1839.43 481.446 1840.12 480.73 1840.59 479.867Z" fill="#357249"/>
<path id="Vector_22" opacity="0.2" d="M1897.71 563.641L1897.39 563.385C1895.64 561.986 1893.81 560.697 1891.91 559.526C1885.14 555.309 1877.88 551.987 1870.79 548.384C1862.23 544.212 1854.01 539.349 1846.18 533.842C1841.52 530.482 1837.15 526.711 1833.11 522.571C1833.11 522.444 1832.92 522.75 1833.11 522.827C1846.18 538.161 1864.66 546.543 1882.04 555.233C1885.14 556.792 1888.19 558.402 1891.22 560.063C1894.24 561.724 1896.88 563.896 1899.76 565.685C1899.2 564.879 1898.51 564.186 1897.71 563.641ZM1882.46 535.35C1882.68 535.35 1882.68 534.941 1882.46 534.813C1878.54 531.87 1874.43 529.215 1870.15 526.865C1866.02 524.309 1861.88 521.984 1857.85 519.479C1850.27 515.024 1843.08 509.893 1836.36 504.145C1832.58 500.779 1829.05 497.123 1825.8 493.207C1825.68 493.207 1825.63 493.386 1825.68 493.488C1836.14 508.618 1852.88 517.869 1868.11 526.916C1872.86 529.753 1877.49 532.82 1882.33 535.35H1882.46ZM1858.68 502.126C1865.04 506.314 1871.14 510.915 1876.94 515.901C1877.17 516.08 1877.24 515.595 1877.12 515.467C1871.83 510.148 1865.97 505.491 1859.64 501.59C1853.09 497.397 1846.75 492.841 1840.67 487.942C1840.67 487.942 1840.52 488.096 1840.67 488.147C1846.2 493.404 1852.19 498.11 1858.56 502.203L1858.68 502.126Z" fill="#357249"/>
</g>
<g id="stlik">
<path id="Vector_23" d="M1780.12 558.969C1767.7 550.383 1753.27 541.284 1738.02 540.339C1731.91 539.955 1725.71 540.824 1719.66 539.879C1715.1 539.189 1708.78 534.997 1716.95 535.176C1719.53 535.176 1722.12 535.176 1724.7 535.176C1729.62 535.176 1734.72 534.844 1739.71 534.844C1749.56 534.844 1759.6 535.815 1768.58 540.288C1776.78 544.377 1783.64 550.919 1791.67 555.417C1800.97 560.631 1812.12 563.186 1819.5 571.441C1823.91 576.552 1827.13 582.047 1832.17 586.596C1836.98 590.624 1842.27 593.976 1847.92 596.563C1854.07 599.274 1860.08 602.319 1865.91 605.687C1871.57 609.316 1875.93 615.909 1880.43 620.867C1890.28 631.908 1900.12 643.05 1912.06 651.535C1916.39 654.627 1920.97 657.362 1925.52 660.097L1935.49 666.077C1939.39 668.768 1943.74 670.684 1948.31 671.725C1948.77 671.892 1949.27 671.892 1949.74 671.725C1950.16 671.431 1950.5 671.013 1950.7 670.524C1956.83 658.771 1959.91 645.555 1959.61 632.189C1959.14 618.721 1957.61 605.329 1956.14 591.937C1953.28 566.381 1946.46 541.719 1940.53 516.725C1938.07 506.016 1935.46 495.308 1932.46 484.702C1930.25 477.035 1929.63 464.973 1924.66 458.609C1924 457.87 1923.4 457.075 1922.86 456.232C1922.42 455.38 1922.19 454.427 1922.19 453.46C1922.19 452.492 1922.42 451.539 1922.86 450.687C1923.81 448.999 1925.31 447.727 1927.1 447.109C1931.1 445.937 1934.8 443.85 1937.92 441.001C1941.8 437.681 1945.38 434.012 1948.63 430.037C1954.86 421.996 1960.45 413.45 1965.36 404.48C1966.54 402.175 1967.99 400.036 1969.7 398.117C1969.79 397.982 1969.91 397.869 1970.05 397.785C1970.19 397.701 1970.35 397.649 1970.51 397.631C1970.95 397.631 1971.27 398.066 1971.47 398.475C1972.89 401.49 1971.91 405.068 1970.8 408.237C1968.3 415.426 1965.2 422.378 1961.55 429.015C1959.09 433.385 1954.73 435.915 1952.05 439.902C1948.66 444.326 1945.71 449.095 1943.24 454.137C1940.78 460.143 1942.03 466.915 1943.36 473.355C1947.12 491.517 1951.3 509.594 1955.91 527.586C1956.75 530.857 1958.15 534.716 1961.35 535.253C1962.93 535.56 1964.72 534.997 1966.05 535.918C1967.38 536.838 1967.48 539.291 1967.23 541.182C1966.3 548.517 1965.14 555.826 1964.38 563.186C1963.86 568.298 1965.14 573.409 1965.41 578.52C1966.2 593.496 1968.93 608.191 1970.56 623.065C1972.68 642.592 1972.76 662.3 1970.8 681.845C1968.86 701.268 1962.48 709.293 1962.71 739.807C1963.05 789.208 1963.4 734.696 1962.58 784.148C1962.31 790.881 1963.14 797.612 1965.04 804.056C1965.32 805.068 1965.73 806.033 1966.27 806.919C1967.4 808.433 1969.05 809.432 1970.88 809.704C1972.69 809.964 1974.53 809.904 1976.32 809.525C1977.82 809.132 1979.37 809.002 1980.92 809.142C1987.44 810.215 1982.44 819.109 1981.14 822.738C1975.8 836.973 1972.63 851.984 1971.74 867.232C1970.85 883.511 1969.94 899.74 1969.94 916.019C1970.34 941.32 1972.28 919.367 1973.71 944.643C1976.17 988.089 1976.81 977.585 1980.62 1023.46C1980.62 1023.94 1980.62 1032.94 1980.62 1032.94C1980.63 1033.11 1980.63 1033.28 1980.62 1033.45C1980.62 1036.93 1978.41 1040.4 1973.98 1043.06C1969.02 1045.67 1963.54 1047.04 1957.98 1047.04C1952.42 1047.04 1946.94 1045.67 1941.98 1043.06C1937.55 1040.5 1935.34 1036.93 1935.34 1033.45C1935.32 1033.09 1935.32 1032.72 1935.34 1032.35C1940.63 996.573 1944.15 782.435 1943.58 746.12C1943.66 736.688 1942.83 727.271 1941.12 718.007C1938.81 705.704 1933.75 694.133 1926.36 684.222C1918.53 674.485 1908.51 666.997 1899.11 658.998C1890.57 651.723 1882.49 643.895 1874.9 635.562C1869.64 629.305 1863.92 623.486 1857.79 618.158C1851.59 612.824 1843.89 609.729 1835.84 609.341C1832.91 609.341 1829.76 609.75 1827.28 608.14C1823.04 605.354 1824.08 598.812 1822.01 594.57C1819.14 588.603 1815.12 583.313 1810.2 579.031C1803.36 573.128 1795.26 569.039 1787.68 564.183C1785.05 562.496 1782.58 560.631 1780.12 558.969Z" fill="#37474F"/>
</g>
<g id="bein">
<path id="bein_1" d="M1789.43 562.644C1789.9 561.831 1790.52 561.12 1791.25 560.548C1792.4 559.621 1793.7 558.919 1795.09 558.478C1796.61 557.909 1798.24 557.694 1799.85 557.848C1801.46 558.003 1803.02 558.523 1804.42 559.372C1804.69 559.577 1805.62 559.5 1805.97 559.551C1806.55 559.645 1807.11 559.79 1807.67 559.986C1808.75 560.333 1809.77 560.86 1810.69 561.545C1812.65 562.928 1814.02 565.043 1814.51 567.448C1814.57 567.691 1814.57 567.947 1814.51 568.19C1814.19 569.621 1811.75 568.368 1810.91 568.19C1809.41 568.062 1807.89 568.39 1806.56 569.135C1805.52 569.74 1804.61 570.564 1803.89 571.554C1803.18 572.544 1802.67 573.679 1802.4 574.885C1802.25 575.524 1801.69 576.828 1801.19 575.882C1800.84 574.832 1800.7 573.719 1800.78 572.611C1800.79 570.41 1801.36 568.251 1802.42 566.349C1802.08 566.252 1801.73 566.23 1801.38 566.288C1801.03 566.345 1800.7 566.479 1800.41 566.682C1797.72 567.899 1795.56 570.113 1794.35 572.892C1794.13 573.718 1793.81 574.516 1793.42 575.269C1792.53 576.623 1791.45 574.17 1791.37 573.377C1791.31 572.706 1791.31 572.03 1791.37 571.358C1791.54 569.869 1791.97 568.424 1792.63 567.091C1793.49 565.34 1794.64 563.758 1796.03 562.414C1795.42 562.222 1794.78 562.222 1794.18 562.414C1793.1 562.712 1792.07 563.186 1791.13 563.819C1790.91 563.947 1788.84 565.838 1788.67 565.021C1788.65 564.16 1788.92 563.319 1789.43 562.644Z" fill="#263238"/>
<path id="bein_2" d="M1759.43 546.875C1759.92 546.073 1760.53 545.364 1761.25 544.78C1762.39 543.86 1763.68 543.167 1765.07 542.735C1766.59 542.165 1768.22 541.95 1769.84 542.105C1771.45 542.259 1773.02 542.78 1774.42 543.63C1774.66 543.834 1775.62 543.63 1775.94 543.809C1776.53 543.902 1777.11 544.047 1777.67 544.243C1778.75 544.591 1779.77 545.117 1780.69 545.802C1782.66 547.18 1784.02 549.297 1784.51 551.706C1784.57 551.948 1784.57 552.204 1784.51 552.447C1784.19 553.878 1781.75 552.626 1780.89 552.447C1779.38 552.32 1777.87 552.649 1776.53 553.392C1775.5 553.99 1774.59 554.808 1773.88 555.795C1773.16 556.782 1772.66 557.914 1772.4 559.117C1772.25 559.781 1771.69 561.085 1771.19 560.114C1770.83 559.076 1770.69 557.969 1770.78 556.868C1770.78 554.665 1771.35 552.504 1772.42 550.607C1772.08 550.509 1771.73 550.488 1771.38 550.545C1771.03 550.602 1770.7 550.737 1770.41 550.939C1767.77 552.149 1765.66 554.323 1764.48 557.047C1764.25 557.863 1763.93 558.651 1763.54 559.398C1762.65 560.778 1761.55 558.299 1761.5 557.532C1761.42 556.862 1761.42 556.184 1761.5 555.514C1761.67 554.024 1762.09 552.579 1762.75 551.246C1763.62 549.495 1764.77 547.913 1766.15 546.569C1765.55 546.377 1764.9 546.377 1764.3 546.569C1763.21 546.856 1762.17 547.331 1761.23 547.974C1761.03 548.102 1758.96 549.968 1758.77 549.176C1758.74 548.354 1758.97 547.545 1759.43 546.875Z" fill="#263238"/>
</g>
</g>
<g id="Group 15">
<g id="venstre_vinge">
<path id="Vector_24" d="M180.16 212.4C190.767 216.321 196.495 235.397 193.164 261.509C190.364 283.616 177.762 307.27 152.602 324.31C152.602 324.31 155.614 219.373 180.16 212.4Z" fill="#BA5353"/>
<path id="Vector_25" opacity="0.4" d="M180.16 212.4C190.767 216.321 196.495 235.397 193.164 261.509C190.364 283.616 177.762 307.27 152.602 324.31C152.602 324.31 155.614 219.373 180.16 212.4Z" fill="white"/>
</g>
<g id="hale_2" opacity="0.3">
<path id="Vector_26" opacity="0.7" d="M96.8514 354.09C85.9045 363.839 83.677 372.169 85.9894 391.838C88.3018 411.507 92.6084 424.881 88.3655 436.157C84.1225 447.433 77.2277 450.761 77.2277 450.761C77.2277 450.761 77.9278 480.836 72.8575 496.033C67.7871 511.23 57.0737 519.348 57.3707 472.189C51.0063 468.586 51.7063 451.354 52.5974 444.508C46.2329 443.003 43.1356 420.091 55.6099 373.632C68.0841 327.172 96.2149 346.141 96.8514 354.09Z" fill="#B50000"/>
<path id="Vector_27" d="M52.5547 444.635C55.0156 425.687 57.8372 404.916 59.4495 385.882C55.1214 405.175 52.8108 424.865 52.5547 444.635ZM77.5881 380.923C76.2241 404.214 76.0896 427.561 77.185 450.867C78.552 427.547 78.6865 404.172 77.5881 380.838V380.923ZM67.7657 375.899C61.9104 407.692 57.6462 439.951 57.328 472.316C60.0435 440.545 64.4137 407.48 67.7657 375.815V375.899Z" fill="#FFD2D2"/>
</g>
<g id="kropp_2">
<path id="Vector_28" d="M109.09 186.055C106.141 180.947 111.763 164.139 131.132 160.621C150.501 157.102 165.691 166.301 170.018 175.224C174.346 184.147 177.125 190.378 182.747 192.668C188.369 194.957 184.275 200.828 176.637 199.302C176.637 199.302 183.766 202.862 184.529 205.936C185.293 209.009 180.965 210.768 177.91 209.496C183.066 214.414 179.438 217.657 179.438 217.657C179.438 217.657 187.202 221.896 185.357 225.753C184.941 226.803 184.314 227.756 183.515 228.555C182.716 229.353 181.761 229.979 180.711 230.395C180.711 230.395 187.33 240.844 184.784 264.032C182.238 287.219 174.07 314.476 135.057 336.095C96.0426 357.714 78.4343 360.554 70.5212 358.011C62.6081 355.467 64.666 325.9 76.6523 286.414C88.6386 246.927 110.829 231.624 116.96 218.886C123.091 206.148 109.09 186.055 109.09 186.055Z" fill="#BA5353"/>
<path id="Vector_29" opacity="0.7" d="M109.09 186.055C106.141 180.947 111.763 164.139 131.132 160.621C150.501 157.102 165.691 166.301 170.018 175.224C174.346 184.147 177.125 190.378 182.747 192.668C188.369 194.957 184.275 200.828 176.637 199.302C176.637 199.302 183.766 202.862 184.529 205.936C185.293 209.009 180.965 210.768 177.91 209.496C183.066 214.414 179.438 217.657 179.438 217.657C179.438 217.657 187.202 221.896 185.357 225.753C184.941 226.803 184.314 227.756 183.515 228.555C182.716 229.353 181.761 229.979 180.711 230.395C180.711 230.395 187.33 240.844 184.784 264.032C182.238 287.219 174.07 314.476 135.057 336.095C96.0426 357.714 78.4343 360.554 70.5212 358.011C62.6081 355.467 64.666 325.9 76.6523 286.414C88.6386 246.927 110.829 231.624 116.96 218.886C123.091 206.148 109.09 186.055 109.09 186.055Z" fill="#F56666"/>
<path id="Vector_30" d="M104.826 178.975C104.748 178.349 104.801 177.713 104.979 177.108C105.158 176.503 105.46 175.941 105.865 175.457C106.778 174.588 108.581 174.63 109.048 175.796C110.004 173.602 111.509 171.689 113.418 170.243C114.042 169.804 114.777 169.547 115.539 169.501C116.271 169.555 116.953 169.89 117.443 170.435C117.934 170.98 118.194 171.694 118.17 172.426C118.977 171.449 119.92 170.593 120.97 169.883C121.536 169.458 122.205 169.191 122.908 169.11C123.612 169.029 124.324 169.137 124.972 169.422C125.62 169.706 126.18 170.158 126.595 170.731C127.01 171.304 127.266 171.977 127.335 172.68C127.6 174.181 127.6 175.716 127.335 177.216C127.865 176.517 129.032 176.792 129.668 177.407C131.196 178.912 130.856 181.455 130.199 183.49C130.57 183.423 130.953 183.472 131.295 183.632C131.637 183.791 131.921 184.053 132.108 184.38C132.462 185.027 132.574 185.778 132.426 186.5C132.162 187.607 131.615 188.627 130.837 189.459C130.06 190.291 129.08 190.908 127.992 191.247C125.809 191.913 123.507 192.093 121.246 191.777C116.96 191.603 112.78 190.388 109.069 188.238C107.735 187.091 106.665 185.669 105.932 184.071C105.2 182.472 104.823 180.734 104.826 178.975Z" fill="#BA5353"/>
</g>
<g id="&#195;&#184;ye">
<path id="Vector_31" d="M148.044 179.336C145.456 176.496 141.15 177.873 139.219 180.777C138.106 182.577 137.539 184.66 137.586 186.775C137.514 187.561 137.609 188.353 137.863 189.099C138.117 189.846 138.525 190.531 139.061 191.111C139.597 191.69 140.249 192.151 140.974 192.463C141.699 192.775 142.482 192.931 143.271 192.922C144.301 192.929 145.319 192.706 146.251 192.269C147.183 191.833 148.006 191.194 148.66 190.4C149.475 189.114 150.003 187.668 150.208 186.161C150.512 185.319 150.578 184.409 150.399 183.532C150.288 183.236 150.146 182.952 149.975 182.685C149.46 181.499 148.812 180.376 148.044 179.336Z" fill="#37474F"/>
<path id="Vector_32" d="M148.934 183.935C148.913 184.58 148.703 185.204 148.329 185.731C147.955 186.257 147.435 186.661 146.833 186.894C146.23 187.126 145.573 187.176 144.942 187.038C144.311 186.899 143.735 186.578 143.286 186.115C142.837 185.652 142.534 185.066 142.415 184.432C142.297 183.798 142.368 183.143 142.619 182.549C142.871 181.955 143.292 181.448 143.831 181.091C144.369 180.735 145 180.544 145.646 180.544C146.086 180.547 146.521 180.637 146.926 180.81C147.331 180.982 147.697 181.234 148.003 181.55C148.309 181.865 148.549 182.239 148.709 182.649C148.869 183.058 148.946 183.496 148.934 183.935Z" fill="#455A64"/>
<path id="Vector_33" d="M145.073 181.349C145.077 181.712 144.973 182.067 144.774 182.37C144.575 182.673 144.29 182.91 143.956 183.05C143.622 183.191 143.253 183.229 142.898 183.159C142.542 183.09 142.215 182.915 141.958 182.659C141.702 182.403 141.528 182.076 141.458 181.721C141.388 181.365 141.426 180.997 141.567 180.663C141.707 180.329 141.945 180.045 142.248 179.846C142.551 179.647 142.907 179.544 143.269 179.548C143.748 179.548 144.206 179.738 144.544 180.075C144.883 180.413 145.073 180.872 145.073 181.349Z" fill="white"/>
</g>
<g id="vinge_venstre">
<path id="Vector_34" d="M111.699 231.306C89.3602 239.148 74.2977 270.22 64.8147 300.975C55.3317 331.729 54.271 351.377 59.1716 356.887C54.271 375.963 52.9556 385.67 62.1204 378.464C71.2852 371.258 94.7275 339.719 109.26 304.281C109.26 304.281 105.653 326.854 110.236 328.147C114.818 329.44 120.546 320.305 125.701 295.125C130.856 269.945 133.996 223.464 111.699 231.306Z" fill="#BA5353"/>
<path id="Vector_35" opacity="0.5" d="M111.699 231.306C89.3602 239.148 74.2977 270.22 64.8147 300.975C55.3317 331.729 54.271 351.377 59.1716 356.887C54.271 375.963 52.9556 385.67 62.1204 378.464C71.2852 371.258 94.7275 339.719 109.26 304.281C109.26 304.281 105.653 326.854 110.236 328.147C114.818 329.44 120.546 320.305 125.701 295.125C130.856 269.945 133.996 223.464 111.699 231.306Z" fill="white"/>
<path id="Vector_36" opacity="0.3" d="M110.893 300.508C119.528 282.832 126.486 263.374 126.316 243.493C123.962 263.205 117.215 281.92 110.893 300.508ZM81.5956 294.15C73.237 313.225 65.4088 332.619 60.3809 352.86C73.5829 313.383 90.7779 275.353 111.699 239.36C99.6494 256.422 90.2512 275.074 81.5956 294.15ZM63.9874 309.898C71.0307 295.061 82.5927 273.866 90.3785 259.241C79.0748 274.677 70.1768 291.735 63.9874 309.834V309.898Z" fill="#BA5353"/>
</g>
<g id="mund_2">
<path id="nede_mund" d="M111.808 218.674C114.245 219.9 116.962 220.462 119.685 220.302C122.408 220.141 125.041 219.266 127.316 217.763C131.559 214.668 134.126 208.394 131.687 203.435C123.18 200.51 110.026 206.338 111.808 218.674Z" fill="#F0997A"/>
<path id="over_mund_2" d="M109.581 185.08C103.026 187.475 95.155 197.373 97.0643 209.454C98.9736 221.535 105.338 226.008 107.884 225.584C110.43 225.16 110.621 222.51 112.36 216.682C113.654 212.443 116.603 208.204 126.765 206.211C133.957 204.706 132.938 199.853 130.605 194.618C128.271 189.382 118.3 181.816 109.581 185.08Z" fill="#FFBDA7"/>
</g>
<g id="stlik_2">
<path id="Vector_37" d="M216.396 358.011C213.779 358.369 211.186 358.886 208.631 359.558C199.917 361.396 190.904 361.281 182.24 359.219C173.606 357.099 165.544 353.454 157.228 350.38C154.304 349.266 151.306 348.359 148.254 347.668C143.49 346.723 138.66 346.149 133.807 345.951C142.77 337.923 153.893 332.698 165.799 330.923C172.628 330.014 179.577 331.019 185.868 333.827C186.199 334.029 186.584 334.125 186.971 334.103C187.332 334.103 187.671 333.615 187.501 333.276C187.442 333.17 187.363 333.077 187.268 333.001C181.836 328.503 174.87 326.285 167.835 326.812C164.398 327.087 161.046 328.02 157.631 328.465C156.549 328.613 154.406 329.185 153.388 328.465C152.37 327.744 153.388 326.345 153.218 325.116C153.142 324.865 152.984 324.646 152.768 324.496C152.552 324.346 152.292 324.273 152.03 324.289C151.508 324.337 151.005 324.511 150.566 324.798L131.728 334.802C128.758 336.392 125.639 337.897 122.86 339.762C105.485 351.483 84.5036 357.332 67.9349 370.177C59.8308 376.535 53.0845 384.25 45.2138 390.884C34.9716 399.519 23.1482 406.084 10.4004 410.214C0.280975 413.5 -13.7632 418.883 -20.9974 407.692C-24.9009 401.652 -25.1343 394 -24.8585 386.794C-24.4554 375.624 -23.1613 364.518 -21.8672 353.411C-21.2096 347.752 -20.5519 342.072 -20.0216 336.455C-19.4912 330.839 -19.767 325.349 -17.9001 319.987C-17.5148 318.878 -17.203 317.745 -16.9666 316.595C-16.7274 315.909 -16.7274 315.162 -16.9666 314.476C-17.2289 314.059 -17.5916 313.715 -18.0215 313.474C-18.4514 313.233 -18.9348 313.104 -19.4275 313.098C-20.41 313.081 -21.3836 312.909 -22.3127 312.59C-25.4525 311.106 -23.8402 301.674 -23.7553 298.898C-23.406 285.974 -26.371 273.177 -32.3685 261.721C-33.0474 260.428 -36.3781 254.494 -38.6057 256.592C-40.8332 258.69 -37.3752 264.18 -36.4842 266.024C-30.9047 276.939 -29.3773 292.242 -30.1198 304.387C-30.735 316.129 -29.653 327.871 -29.9288 339.592C-30.2683 352.945 -32.9626 366.065 -34.4476 379.291C-36.2973 395.484 -36.3685 411.831 -34.6597 428.039C-32.9838 444.148 -27.5104 450.803 -27.6801 476.11C-27.9771 517.08 -28.2953 557.902 -27.6801 599.042C-27.447 604.626 -28.1644 610.209 -29.8016 615.553C-30.0289 616.391 -30.3792 617.191 -30.8411 617.927C-31.8169 619.178 -33.2377 620.005 -34.8082 620.237C-36.3689 620.456 -37.956 620.399 -39.4967 620.067C-40.6849 619.695 -41.9218 619.503 -43.1669 619.495C-48.7888 620.385 -44.5034 627.761 -43.3578 630.771C-38.7734 642.582 -36.0399 655.028 -35.2538 667.671C-34.49 681.173 -35.9326 694.632 -35.9326 708.133C-36.2862 729.116 -36.6256 750.106 -36.9509 771.104C-37.4318 801.794 -37.9127 832.485 -38.3935 863.175C-38.3935 863.578 -38.3935 871.039 -38.3935 871.039C-38.4039 871.18 -38.4039 871.321 -38.3935 871.463C-38.3935 874.345 -36.4842 877.228 -32.6655 879.432C-28.3925 881.599 -23.668 882.728 -18.876 882.728C-14.0839 882.728 -9.35941 881.599 -5.08636 879.432C-1.26771 877.312 0.641628 874.345 0.641628 871.463C0.641628 871.166 0.641628 870.848 0.641628 870.551C-3.94076 840.878 -11.4932 511.294 -10.9841 481.218C-11.0377 473.396 -10.3271 465.587 -8.86259 457.903C-6.93204 448.98 -2.88002 438.404 5.11795 433.359C13.816 427.87 23.6596 424.585 33.0366 420.473C43.0096 416.477 52.1474 410.654 59.9793 403.305C67.4469 395.865 72.7082 386.497 80.1758 378.994C90.247 368.94 102.629 361.503 116.241 357.332C122.002 355.586 127.998 354.735 134.019 354.81C143.205 354.81 151.776 357.311 160.749 358.753C166.549 359.724 172.235 361.28 177.721 363.394C179.482 364.073 181.116 365.048 182.876 365.747C184.213 366.319 186.759 367.337 188.18 366.658C188.629 366.365 189.061 366.046 189.474 365.705C190.241 365.342 191.09 365.189 191.935 365.259C197.575 365.286 203.197 364.617 208.674 363.267C211.467 362.596 214.205 361.71 216.862 360.618C217.478 360.363 218.772 359.537 218.835 358.753C218.623 357.587 217.287 357.926 216.396 358.011Z" fill="#37474F"/>
</g>
<g id="bein_3">
<path id="bein_2_2" d="M129.159 343.534C128.74 342.869 128.209 342.281 127.589 341.796C126.597 341.037 125.476 340.463 124.28 340.101C122.967 339.629 121.566 339.45 120.177 339.578C118.787 339.707 117.443 340.138 116.239 340.843C116.006 341.012 115.2 340.843 114.903 340.991C114.401 341.074 113.905 341.187 113.418 341.33C112.495 341.639 111.623 342.082 110.829 342.644C109.138 343.791 107.952 345.544 107.52 347.54C107.488 347.744 107.488 347.951 107.52 348.155C107.817 349.342 109.896 348.303 110.639 348.155C111.94 348.049 113.244 348.321 114.394 348.939C115.29 349.436 116.072 350.116 116.69 350.934C117.307 351.751 117.746 352.689 117.979 353.687C118.106 354.238 118.594 355.319 118.997 354.513C119.32 353.655 119.443 352.735 119.358 351.822C119.364 349.997 118.88 348.204 117.958 346.629C118.25 346.548 118.557 346.53 118.857 346.578C119.158 346.625 119.444 346.737 119.697 346.904C121.962 347.915 123.78 349.716 124.81 351.97C124.999 352.65 125.27 353.305 125.616 353.92C126.38 355.065 127.313 353.009 127.377 352.373C127.43 351.816 127.43 351.255 127.377 350.698C127.231 349.463 126.864 348.265 126.295 347.159C125.55 345.707 124.56 344.395 123.367 343.28C123.884 343.11 124.442 343.11 124.958 343.28C125.895 343.518 126.784 343.913 127.589 344.446C127.78 344.552 129.562 346.099 129.711 345.442C129.743 344.763 129.549 344.092 129.159 343.534Z" fill="#263238"/>
<path id="bein_1_2" d="M155.868 328.295C155.457 327.624 154.925 327.034 154.298 326.557C153.308 325.794 152.186 325.219 150.989 324.862C149.677 324.385 148.275 324.204 146.885 324.333C145.495 324.461 144.151 324.895 142.948 325.603C142.51 325.701 142.061 325.744 141.612 325.731C141.11 325.821 140.614 325.941 140.127 326.091C139.2 326.391 138.327 326.834 137.538 327.405C135.847 328.552 134.661 330.305 134.229 332.301C134.197 332.505 134.197 332.712 134.229 332.916C134.526 334.081 136.626 333.043 137.348 332.916C138.648 332.82 139.949 333.092 141.103 333.7C142 334.202 142.782 334.885 143.399 335.706C144.017 336.527 144.455 337.468 144.688 338.469C144.815 339.02 145.303 340.08 145.727 339.295C146.029 338.432 146.152 337.516 146.088 336.604C146.079 334.771 145.589 332.973 144.667 331.39C144.961 331.311 145.269 331.298 145.569 331.349C145.869 331.4 146.155 331.515 146.406 331.686C148.676 332.69 150.496 334.493 151.519 336.752C151.712 337.431 151.983 338.085 152.325 338.702C153.089 339.847 154.022 337.791 154.086 337.155C154.139 336.591 154.139 336.023 154.086 335.459C153.936 334.225 153.57 333.027 153.004 331.92C152.258 330.474 151.268 329.169 150.076 328.062C150.592 327.883 151.152 327.883 151.667 328.062C152.604 328.3 153.493 328.695 154.298 329.228C154.489 329.228 156.271 330.881 156.42 330.203C156.454 329.523 156.26 328.852 155.868 328.295Z" fill="#263238"/>
</g>
</g>
</g>
<defs>
<clipPath id="clip0_167_219">
<rect width="1920" height="1079" fill="white"/>
</clipPath>
</defs>
</svg>
