<svg width="891" height="194" viewBox="0 0 891 194" fill="none" xmlns="http://www.w3.org/2000/svg">
<g id="stop-btn">
<g id="Frame 13">
<rect y="0.563477" width="891" height="193.436" rx="33" fill="#5353B1"/>
<path id="Forest has less and less trees because of chopping them down. This leads to big problems." d="M152.487 61.2812V38.0085H166.919V41.0312H155.998V48.1222H165.885V51.1335H155.998V61.2812H152.487ZM176.107 61.6335C174.471 61.6335 173.043 61.2585 171.823 60.5085C170.604 59.7585 169.657 58.7093 168.982 57.3608C168.308 56.0123 167.971 54.4366 167.971 52.6335C167.971 50.8229 168.308 49.2396 168.982 47.8835C169.657 46.5275 170.604 45.4744 171.823 44.7244C173.043 43.9744 174.471 43.5994 176.107 43.5994C177.744 43.5994 179.172 43.9744 180.391 44.7244C181.611 45.4744 182.558 46.5275 183.232 47.8835C183.907 49.2396 184.244 50.8229 184.244 52.6335C184.244 54.4366 183.907 56.0123 183.232 57.3608C182.558 58.7093 181.611 59.7585 180.391 60.5085C179.172 61.2585 177.744 61.6335 176.107 61.6335ZM176.119 58.7812C177.179 58.7812 178.058 58.5009 178.755 57.9403C179.452 57.3797 179.967 56.6335 180.301 55.7017C180.641 54.7699 180.812 53.7434 180.812 52.6222C180.812 51.5085 180.641 50.4858 180.301 49.554C179.967 48.6146 179.452 47.8608 178.755 47.2926C178.058 46.7244 177.179 46.4403 176.119 46.4403C175.051 46.4403 174.164 46.7244 173.46 47.2926C172.763 47.8608 172.244 48.6146 171.903 49.554C171.569 50.4858 171.403 51.5085 171.403 52.6222C171.403 53.7434 171.569 54.7699 171.903 55.7017C172.244 56.6335 172.763 57.3797 173.46 57.9403C174.164 58.5009 175.051 58.7812 176.119 58.7812ZM187.108 61.2812V43.8267H190.392V46.5994H190.574C190.892 45.66 191.453 44.9214 192.256 44.3835C193.067 43.8381 193.983 43.5653 195.006 43.5653C195.218 43.5653 195.468 43.5729 195.756 43.5881C196.052 43.6032 196.283 43.6222 196.449 43.6449V46.8949C196.313 46.857 196.07 46.8153 195.722 46.7699C195.373 46.7169 195.025 46.6903 194.677 46.6903C193.873 46.6903 193.158 46.8608 192.529 47.2017C191.908 47.535 191.415 48.0009 191.052 48.5994C190.688 49.1903 190.506 49.8646 190.506 50.6222V61.2812H187.108ZM205.359 61.6335C203.64 61.6335 202.159 61.2661 200.916 60.5312C199.681 59.7888 198.727 58.7472 198.052 57.4062C197.386 56.0578 197.052 54.4782 197.052 52.6676C197.052 50.8797 197.386 49.304 198.052 47.9403C198.727 46.5767 199.666 45.5123 200.871 44.7472C202.083 43.982 203.499 43.5994 205.121 43.5994C206.106 43.5994 207.06 43.7623 207.984 44.0881C208.909 44.4138 209.738 44.9252 210.473 45.6222C211.208 46.3191 211.787 47.2244 212.212 48.3381C212.636 49.4441 212.848 50.7888 212.848 52.3722V53.5767H198.973V51.0312H209.518C209.518 50.1373 209.337 49.3456 208.973 48.6562C208.609 47.9593 208.098 47.41 207.439 47.0085C206.787 46.607 206.022 46.4062 205.143 46.4062C204.189 46.4062 203.356 46.6411 202.643 47.1108C201.939 47.5729 201.393 48.179 201.007 48.929C200.628 49.6714 200.439 50.4782 200.439 51.3494V53.3381C200.439 54.5047 200.643 55.4972 201.052 56.3153C201.469 57.1335 202.049 57.7585 202.791 58.1903C203.534 58.6146 204.401 58.8267 205.393 58.8267C206.037 58.8267 206.624 58.7358 207.155 58.554C207.685 58.3646 208.143 58.0843 208.53 57.7131C208.916 57.3419 209.212 56.8835 209.416 56.3381L212.632 56.9176C212.374 57.8646 211.912 58.6941 211.246 59.4062C210.587 60.1108 209.757 60.66 208.757 61.054C207.765 61.4403 206.632 61.6335 205.359 61.6335ZM228.769 48.0881L225.69 48.6335C225.561 48.2396 225.356 47.8646 225.076 47.5085C224.803 47.1525 224.432 46.8608 223.963 46.6335C223.493 46.4062 222.906 46.2926 222.201 46.2926C221.239 46.2926 220.436 46.5085 219.792 46.9403C219.148 47.3646 218.826 47.9138 218.826 48.5881C218.826 49.1714 219.042 49.6411 219.474 49.9972C219.906 50.3532 220.603 50.6449 221.565 50.8722L224.338 51.5085C225.944 51.8797 227.141 52.4517 227.928 53.2244C228.716 53.9972 229.11 55.0009 229.11 56.2358C229.11 57.2812 228.807 58.2131 228.201 59.0312C227.603 59.8419 226.766 60.4782 225.69 60.9403C224.622 61.4025 223.383 61.6335 221.974 61.6335C220.019 61.6335 218.425 61.2169 217.19 60.3835C215.955 59.5426 215.197 58.3494 214.917 56.804L218.201 56.304C218.406 57.16 218.826 57.8078 219.463 58.2472C220.099 58.679 220.928 58.8949 221.951 58.8949C223.065 58.8949 223.955 58.6638 224.622 58.2017C225.288 57.732 225.622 57.16 225.622 56.4858C225.622 55.9403 225.417 55.482 225.008 55.1108C224.606 54.7396 223.989 54.4593 223.156 54.2699L220.201 53.6222C218.572 53.2509 217.368 52.66 216.588 51.8494C215.815 51.0388 215.428 50.0123 215.428 48.7699C215.428 47.7396 215.716 46.8381 216.292 46.0653C216.868 45.2926 217.663 44.6903 218.678 44.2585C219.694 43.8191 220.856 43.5994 222.167 43.5994C224.053 43.5994 225.538 44.0085 226.622 44.8267C227.705 45.6373 228.421 46.7244 228.769 48.0881ZM240.066 43.8267V46.554H230.532V43.8267H240.066ZM233.089 39.6449H236.486V56.1562C236.486 56.8153 236.585 57.3116 236.782 57.6449C236.979 57.9706 237.232 58.1941 237.543 58.3153C237.861 58.429 238.206 58.4858 238.577 58.4858C238.85 58.4858 239.089 58.4669 239.293 58.429C239.498 58.3911 239.657 58.3608 239.77 58.3381L240.384 61.1449C240.187 61.2206 239.907 61.2964 239.543 61.3722C239.179 61.4555 238.725 61.5009 238.179 61.5085C237.286 61.5237 236.452 61.3646 235.679 61.0312C234.907 60.6979 234.282 60.1828 233.804 59.4858C233.327 58.7888 233.089 57.9138 233.089 56.8608V39.6449ZM253.835 50.9176V61.2812H250.437V38.0085H253.789V46.6676H254.005C254.414 45.7282 255.039 44.982 255.88 44.429C256.721 43.8759 257.82 43.5994 259.176 43.5994C260.373 43.5994 261.418 43.8456 262.312 44.3381C263.214 44.8305 263.911 45.5653 264.403 46.5426C264.903 47.5123 265.153 48.7244 265.153 50.179V61.2812H261.755V50.5881C261.755 49.3078 261.426 48.3153 260.767 47.6108C260.108 46.8987 259.191 46.5426 258.017 46.5426C257.214 46.5426 256.494 46.7131 255.858 47.054C255.229 47.3949 254.733 47.8949 254.369 48.554C254.013 49.2055 253.835 49.9934 253.835 50.9176ZM273.839 61.6676C272.733 61.6676 271.733 61.4631 270.839 61.054C269.945 60.6373 269.236 60.035 268.714 59.2472C268.198 58.4593 267.941 57.4934 267.941 56.3494C267.941 55.3646 268.13 54.554 268.509 53.9176C268.888 53.2812 269.399 52.7775 270.043 52.4062C270.687 52.035 271.407 51.7547 272.202 51.5653C272.998 51.3759 273.808 51.232 274.634 51.1335C275.68 51.0123 276.528 50.9138 277.18 50.8381C277.831 50.7547 278.305 50.6222 278.6 50.4403C278.895 50.2585 279.043 49.9631 279.043 49.554V49.4744C279.043 48.482 278.763 47.7131 278.202 47.1676C277.649 46.6222 276.823 46.3494 275.725 46.3494C274.581 46.3494 273.68 46.6032 273.02 47.1108C272.369 47.6108 271.918 48.1676 271.668 48.7812L268.475 48.054C268.854 46.9934 269.407 46.1373 270.134 45.4858C270.869 44.8267 271.714 44.3494 272.668 44.054C273.623 43.7509 274.626 43.5994 275.68 43.5994C276.376 43.5994 277.115 43.6828 277.895 43.8494C278.683 44.0085 279.418 44.304 280.1 44.7358C280.789 45.1676 281.354 45.785 281.793 46.5881C282.233 47.3835 282.452 48.4176 282.452 49.6903V61.2812H279.134V58.8949H278.998C278.778 59.3343 278.448 59.7661 278.009 60.1903C277.57 60.6146 277.005 60.9669 276.316 61.2472C275.626 61.5275 274.801 61.6676 273.839 61.6676ZM274.577 58.9403C275.517 58.9403 276.32 58.7547 276.986 58.3835C277.661 58.0123 278.172 57.5275 278.52 56.929C278.876 56.3229 279.055 55.6752 279.055 54.9858V52.7358C278.933 52.857 278.698 52.9706 278.35 53.0767C278.009 53.1752 277.619 53.2623 277.18 53.3381C276.74 53.4062 276.312 53.4706 275.895 53.5312C275.479 53.5843 275.13 53.6297 274.85 53.6676C274.191 53.7509 273.589 53.8911 273.043 54.0881C272.505 54.285 272.073 54.5691 271.748 54.9403C271.43 55.304 271.27 55.7888 271.27 56.3949C271.27 57.2358 271.581 57.8722 272.202 58.304C272.823 58.7282 273.615 58.9403 274.577 58.9403ZM299.129 48.0881L296.05 48.6335C295.921 48.2396 295.716 47.8646 295.436 47.5085C295.163 47.1525 294.792 46.8608 294.323 46.6335C293.853 46.4062 293.266 46.2926 292.561 46.2926C291.599 46.2926 290.796 46.5085 290.152 46.9403C289.508 47.3646 289.186 47.9138 289.186 48.5881C289.186 49.1714 289.402 49.6411 289.834 49.9972C290.266 50.3532 290.963 50.6449 291.925 50.8722L294.698 51.5085C296.304 51.8797 297.501 52.4517 298.288 53.2244C299.076 53.9972 299.47 55.0009 299.47 56.2358C299.47 57.2812 299.167 58.2131 298.561 59.0312C297.963 59.8419 297.126 60.4782 296.05 60.9403C294.982 61.4025 293.743 61.6335 292.334 61.6335C290.379 61.6335 288.785 61.2169 287.55 60.3835C286.315 59.5426 285.557 58.3494 285.277 56.804L288.561 56.304C288.766 57.16 289.186 57.8078 289.823 58.2472C290.459 58.679 291.288 58.8949 292.311 58.8949C293.425 58.8949 294.315 58.6638 294.982 58.2017C295.648 57.732 295.982 57.16 295.982 56.4858C295.982 55.9403 295.777 55.482 295.368 55.1108C294.966 54.7396 294.349 54.4593 293.516 54.2699L290.561 53.6222C288.932 53.2509 287.728 52.66 286.948 51.8494C286.175 51.0388 285.788 50.0123 285.788 48.7699C285.788 47.7396 286.076 46.8381 286.652 46.0653C287.228 45.2926 288.023 44.6903 289.038 44.2585C290.054 43.8191 291.216 43.5994 292.527 43.5994C294.413 43.5994 295.898 44.0085 296.982 44.8267C298.065 45.6373 298.781 46.7244 299.129 48.0881ZM313.217 38.0085V61.2812H309.819V38.0085H313.217ZM324.382 61.6335C322.663 61.6335 321.182 61.2661 319.939 60.5312C318.704 59.7888 317.75 58.7472 317.075 57.4062C316.409 56.0578 316.075 54.4782 316.075 52.6676C316.075 50.8797 316.409 49.304 317.075 47.9403C317.75 46.5767 318.689 45.5123 319.894 44.7472C321.106 43.982 322.522 43.5994 324.144 43.5994C325.129 43.5994 326.083 43.7623 327.007 44.0881C327.932 44.4138 328.761 44.9252 329.496 45.6222C330.231 46.3191 330.81 47.2244 331.235 48.3381C331.659 49.4441 331.871 50.7888 331.871 52.3722V53.5767H317.996V51.0312H328.541C328.541 50.1373 328.36 49.3456 327.996 48.6562C327.632 47.9593 327.121 47.41 326.462 47.0085C325.81 46.607 325.045 46.4062 324.166 46.4062C323.212 46.4062 322.379 46.6411 321.666 47.1108C320.962 47.5729 320.416 48.179 320.03 48.929C319.651 49.6714 319.462 50.4782 319.462 51.3494V53.3381C319.462 54.5047 319.666 55.4972 320.075 56.3153C320.492 57.1335 321.072 57.7585 321.814 58.1903C322.557 58.6146 323.424 58.8267 324.416 58.8267C325.06 58.8267 325.647 58.7358 326.178 58.554C326.708 58.3646 327.166 58.0843 327.553 57.7131C327.939 57.3419 328.235 56.8835 328.439 56.3381L331.655 56.9176C331.397 57.8646 330.935 58.6941 330.269 59.4062C329.61 60.1108 328.78 60.66 327.78 61.054C326.788 61.4403 325.655 61.6335 324.382 61.6335ZM347.792 48.0881L344.713 48.6335C344.584 48.2396 344.379 47.8646 344.099 47.5085C343.826 47.1525 343.455 46.8608 342.986 46.6335C342.516 46.4062 341.929 46.2926 341.224 46.2926C340.262 46.2926 339.459 46.5085 338.815 46.9403C338.171 47.3646 337.849 47.9138 337.849 48.5881C337.849 49.1714 338.065 49.6411 338.497 49.9972C338.929 50.3532 339.626 50.6449 340.588 50.8722L343.361 51.5085C344.967 51.8797 346.164 52.4517 346.951 53.2244C347.739 53.9972 348.133 55.0009 348.133 56.2358C348.133 57.2812 347.83 58.2131 347.224 59.0312C346.626 59.8419 345.789 60.4782 344.713 60.9403C343.645 61.4025 342.406 61.6335 340.997 61.6335C339.042 61.6335 337.448 61.2169 336.213 60.3835C334.978 59.5426 334.22 58.3494 333.94 56.804L337.224 56.304C337.429 57.16 337.849 57.8078 338.486 58.2472C339.122 58.679 339.951 58.8949 340.974 58.8949C342.088 58.8949 342.978 58.6638 343.645 58.2017C344.311 57.732 344.645 57.16 344.645 56.4858C344.645 55.9403 344.44 55.482 344.031 55.1108C343.629 54.7396 343.012 54.4593 342.179 54.2699L339.224 53.6222C337.595 53.2509 336.391 52.66 335.611 51.8494C334.838 51.0388 334.451 50.0123 334.451 48.7699C334.451 47.7396 334.739 46.8381 335.315 46.0653C335.891 45.2926 336.686 44.6903 337.701 44.2585C338.717 43.8191 339.879 43.5994 341.19 43.5994C343.076 43.5994 344.561 44.0085 345.645 44.8267C346.728 45.6373 347.444 46.7244 347.792 48.0881ZM364.021 48.0881L360.941 48.6335C360.812 48.2396 360.608 47.8646 360.327 47.5085C360.055 47.1525 359.683 46.8608 359.214 46.6335C358.744 46.4062 358.157 46.2926 357.452 46.2926C356.49 46.2926 355.687 46.5085 355.043 46.9403C354.399 47.3646 354.077 47.9138 354.077 48.5881C354.077 49.1714 354.293 49.6411 354.725 49.9972C355.157 50.3532 355.854 50.6449 356.816 50.8722L359.589 51.5085C361.195 51.8797 362.392 52.4517 363.18 53.2244C363.968 53.9972 364.362 55.0009 364.362 56.2358C364.362 57.2812 364.058 58.2131 363.452 59.0312C362.854 59.8419 362.017 60.4782 360.941 60.9403C359.873 61.4025 358.634 61.6335 357.225 61.6335C355.271 61.6335 353.676 61.2169 352.441 60.3835C351.206 59.5426 350.449 58.3494 350.168 56.804L353.452 56.304C353.657 57.16 354.077 57.8078 354.714 58.2472C355.35 58.679 356.18 58.8949 357.202 58.8949C358.316 58.8949 359.206 58.6638 359.873 58.2017C360.54 57.732 360.873 57.16 360.873 56.4858C360.873 55.9403 360.668 55.482 360.259 55.1108C359.858 54.7396 359.24 54.4593 358.407 54.2699L355.452 53.6222C353.824 53.2509 352.619 52.66 351.839 51.8494C351.066 51.0388 350.68 50.0123 350.68 48.7699C350.68 47.7396 350.968 46.8381 351.543 46.0653C352.119 45.2926 352.915 44.6903 353.93 44.2585C354.945 43.8191 356.108 43.5994 357.418 43.5994C359.305 43.5994 360.79 44.0085 361.873 44.8267C362.956 45.6373 363.672 46.7244 364.021 48.0881ZM379.79 61.6676C378.684 61.6676 377.684 61.4631 376.79 61.054C375.896 60.6373 375.187 60.035 374.665 59.2472C374.149 58.4593 373.892 57.4934 373.892 56.3494C373.892 55.3646 374.081 54.554 374.46 53.9176C374.839 53.2812 375.35 52.7775 375.994 52.4062C376.638 52.035 377.358 51.7547 378.153 51.5653C378.949 51.3759 379.759 51.232 380.585 51.1335C381.631 51.0123 382.479 50.9138 383.131 50.8381C383.782 50.7547 384.256 50.6222 384.551 50.4403C384.846 50.2585 384.994 49.9631 384.994 49.554V49.4744C384.994 48.482 384.714 47.7131 384.153 47.1676C383.6 46.6222 382.774 46.3494 381.676 46.3494C380.532 46.3494 379.631 46.6032 378.971 47.1108C378.32 47.6108 377.869 48.1676 377.619 48.7812L374.426 48.054C374.805 46.9934 375.358 46.1373 376.085 45.4858C376.82 44.8267 377.665 44.3494 378.619 44.054C379.574 43.7509 380.577 43.5994 381.631 43.5994C382.327 43.5994 383.066 43.6828 383.846 43.8494C384.634 44.0085 385.369 44.304 386.051 44.7358C386.74 45.1676 387.305 45.785 387.744 46.5881C388.184 47.3835 388.403 48.4176 388.403 49.6903V61.2812H385.085V58.8949H384.949C384.729 59.3343 384.399 59.7661 383.96 60.1903C383.521 60.6146 382.956 60.9669 382.267 61.2472C381.577 61.5275 380.752 61.6676 379.79 61.6676ZM380.528 58.9403C381.468 58.9403 382.271 58.7547 382.937 58.3835C383.612 58.0123 384.123 57.5275 384.471 56.929C384.827 56.3229 385.006 55.6752 385.006 54.9858V52.7358C384.884 52.857 384.649 52.9706 384.301 53.0767C383.96 53.1752 383.57 53.2623 383.131 53.3381C382.691 53.4062 382.263 53.4706 381.846 53.5312C381.43 53.5843 381.081 53.6297 380.801 53.6676C380.142 53.7509 379.54 53.8911 378.994 54.0881C378.456 54.285 378.024 54.5691 377.699 54.9403C377.381 55.304 377.221 55.7888 377.221 56.3949C377.221 57.2358 377.532 57.8722 378.153 58.304C378.774 58.7282 379.566 58.9403 380.528 58.9403ZM395.399 50.9176V61.2812H392.001V43.8267H395.262V46.6676H395.478C395.88 45.7434 396.508 45.0009 397.364 44.4403C398.228 43.8797 399.315 43.5994 400.626 43.5994C401.815 43.5994 402.857 43.8494 403.751 44.3494C404.645 44.8419 405.338 45.5767 405.83 46.554C406.323 47.5312 406.569 48.7396 406.569 50.179V61.2812H403.171V50.5881C403.171 49.3229 402.842 48.3343 402.183 47.6222C401.524 46.9025 400.618 46.5426 399.467 46.5426C398.679 46.5426 397.978 46.7131 397.364 47.054C396.758 47.3949 396.277 47.8949 395.921 48.554C395.573 49.2055 395.399 49.9934 395.399 50.9176ZM416.732 61.6222C415.323 61.6222 414.065 61.2623 412.959 60.5426C411.861 59.8153 410.997 58.7812 410.368 57.4403C409.747 56.0919 409.436 54.4744 409.436 52.5881C409.436 50.7017 409.751 49.0881 410.38 47.7472C411.016 46.4062 411.887 45.3797 412.993 44.6676C414.099 43.9555 415.353 43.5994 416.755 43.5994C417.838 43.5994 418.709 43.7812 419.368 44.1449C420.035 44.5009 420.55 44.9176 420.914 45.3949C421.285 45.8722 421.573 46.2926 421.777 46.6562H421.982V38.0085H425.38V61.2812H422.061V58.5653H421.777C421.573 58.9366 421.277 59.3608 420.891 59.8381C420.512 60.3153 419.989 60.732 419.323 61.0881C418.656 61.4441 417.793 61.6222 416.732 61.6222ZM417.482 58.7244C418.459 58.7244 419.285 58.4669 419.959 57.9517C420.641 57.429 421.156 56.7055 421.505 55.7812C421.861 54.857 422.039 53.7812 422.039 52.554C422.039 51.3419 421.864 50.2812 421.516 49.3722C421.168 48.4631 420.656 47.7547 419.982 47.2472C419.308 46.7396 418.474 46.4858 417.482 46.4858C416.459 46.4858 415.607 46.7509 414.925 47.2812C414.243 47.8116 413.728 48.535 413.38 49.4517C413.039 50.3684 412.868 51.4025 412.868 52.554C412.868 53.7206 413.043 54.7699 413.391 55.7017C413.739 56.6335 414.255 57.3722 414.936 57.9176C415.626 58.4555 416.474 58.7244 417.482 58.7244ZM440.24 38.0085V61.2812H436.842V38.0085H440.24ZM451.405 61.6335C449.686 61.6335 448.205 61.2661 446.962 60.5312C445.727 59.7888 444.773 58.7472 444.098 57.4062C443.432 56.0578 443.098 54.4782 443.098 52.6676C443.098 50.8797 443.432 49.304 444.098 47.9403C444.773 46.5767 445.712 45.5123 446.917 44.7472C448.129 43.982 449.545 43.5994 451.167 43.5994C452.152 43.5994 453.106 43.7623 454.03 44.0881C454.955 44.4138 455.784 44.9252 456.519 45.6222C457.254 46.3191 457.833 47.2244 458.258 48.3381C458.682 49.4441 458.894 50.7888 458.894 52.3722V53.5767H445.019V51.0312H455.564C455.564 50.1373 455.383 49.3456 455.019 48.6562C454.655 47.9593 454.144 47.41 453.485 47.0085C452.833 46.607 452.068 46.4062 451.189 46.4062C450.235 46.4062 449.402 46.6411 448.689 47.1108C447.985 47.5729 447.439 48.179 447.053 48.929C446.674 49.6714 446.485 50.4782 446.485 51.3494V53.3381C446.485 54.5047 446.689 55.4972 447.098 56.3153C447.515 57.1335 448.095 57.7585 448.837 58.1903C449.58 58.6146 450.447 58.8267 451.439 58.8267C452.083 58.8267 452.67 58.7358 453.201 58.554C453.731 58.3646 454.189 58.0843 454.576 57.7131C454.962 57.3419 455.258 56.8835 455.462 56.3381L458.678 56.9176C458.42 57.8646 457.958 58.6941 457.292 59.4062C456.633 60.1108 455.803 60.66 454.803 61.054C453.811 61.4403 452.678 61.6335 451.405 61.6335ZM474.815 48.0881L471.736 48.6335C471.607 48.2396 471.402 47.8646 471.122 47.5085C470.849 47.1525 470.478 46.8608 470.009 46.6335C469.539 46.4062 468.952 46.2926 468.247 46.2926C467.285 46.2926 466.482 46.5085 465.838 46.9403C465.194 47.3646 464.872 47.9138 464.872 48.5881C464.872 49.1714 465.088 49.6411 465.52 49.9972C465.952 50.3532 466.649 50.6449 467.611 50.8722L470.384 51.5085C471.99 51.8797 473.187 52.4517 473.974 53.2244C474.762 53.9972 475.156 55.0009 475.156 56.2358C475.156 57.2812 474.853 58.2131 474.247 59.0312C473.649 59.8419 472.812 60.4782 471.736 60.9403C470.668 61.4025 469.429 61.6335 468.02 61.6335C466.065 61.6335 464.471 61.2169 463.236 60.3835C462.001 59.5426 461.243 58.3494 460.963 56.804L464.247 56.304C464.452 57.16 464.872 57.8078 465.509 58.2472C466.145 58.679 466.974 58.8949 467.997 58.8949C469.111 58.8949 470.001 58.6638 470.668 58.2017C471.334 57.732 471.668 57.16 471.668 56.4858C471.668 55.9403 471.463 55.482 471.054 55.1108C470.652 54.7396 470.035 54.4593 469.202 54.2699L466.247 53.6222C464.618 53.2509 463.414 52.66 462.634 51.8494C461.861 51.0388 461.474 50.0123 461.474 48.7699C461.474 47.7396 461.762 46.8381 462.338 46.0653C462.914 45.2926 463.709 44.6903 464.724 44.2585C465.74 43.8191 466.902 43.5994 468.213 43.5994C470.099 43.5994 471.584 44.0085 472.668 44.8267C473.751 45.6373 474.467 46.7244 474.815 48.0881ZM491.044 48.0881L487.964 48.6335C487.835 48.2396 487.631 47.8646 487.35 47.5085C487.078 47.1525 486.707 46.8608 486.237 46.6335C485.767 46.4062 485.18 46.2926 484.475 46.2926C483.513 46.2926 482.71 46.5085 482.066 46.9403C481.422 47.3646 481.1 47.9138 481.1 48.5881C481.1 49.1714 481.316 49.6411 481.748 49.9972C482.18 50.3532 482.877 50.6449 483.839 50.8722L486.612 51.5085C488.218 51.8797 489.415 52.4517 490.203 53.2244C490.991 53.9972 491.385 55.0009 491.385 56.2358C491.385 57.2812 491.082 58.2131 490.475 59.0312C489.877 59.8419 489.04 60.4782 487.964 60.9403C486.896 61.4025 485.657 61.6335 484.248 61.6335C482.294 61.6335 480.699 61.2169 479.464 60.3835C478.229 59.5426 477.472 58.3494 477.191 56.804L480.475 56.304C480.68 57.16 481.1 57.8078 481.737 58.2472C482.373 58.679 483.203 58.8949 484.225 58.8949C485.339 58.8949 486.229 58.6638 486.896 58.2017C487.563 57.732 487.896 57.16 487.896 56.4858C487.896 55.9403 487.691 55.482 487.282 55.1108C486.881 54.7396 486.263 54.4593 485.43 54.2699L482.475 53.6222C480.847 53.2509 479.642 52.66 478.862 51.8494C478.089 51.0388 477.703 50.0123 477.703 48.7699C477.703 47.7396 477.991 46.8381 478.566 46.0653C479.142 45.2926 479.938 44.6903 480.953 44.2585C481.968 43.8191 483.131 43.5994 484.441 43.5994C486.328 43.5994 487.813 44.0085 488.896 44.8267C489.979 45.6373 490.695 46.7244 491.044 48.0881ZM509.881 43.8267V46.554H500.347V43.8267H509.881ZM502.904 39.6449H506.301V56.1562C506.301 56.8153 506.4 57.3116 506.597 57.6449C506.794 57.9706 507.047 58.1941 507.358 58.3153C507.676 58.429 508.021 58.4858 508.392 58.4858C508.665 58.4858 508.904 58.4669 509.108 58.429C509.313 58.3911 509.472 58.3608 509.585 58.3381L510.199 61.1449C510.002 61.2206 509.722 61.2964 509.358 61.3722C508.994 61.4555 508.54 61.5009 507.994 61.5085C507.1 61.5237 506.267 61.3646 505.494 61.0312C504.722 60.6979 504.097 60.1828 503.619 59.4858C503.142 58.7888 502.904 57.9138 502.904 56.8608V39.6449ZM512.711 61.2812V43.8267H515.995V46.5994H516.177C516.495 45.66 517.056 44.9214 517.859 44.3835C518.67 43.8381 519.586 43.5653 520.609 43.5653C520.821 43.5653 521.071 43.5729 521.359 43.5881C521.655 43.6032 521.886 43.6222 522.052 43.6449V46.8949C521.916 46.857 521.673 46.8153 521.325 46.7699C520.976 46.7169 520.628 46.6903 520.28 46.6903C519.476 46.6903 518.761 46.8608 518.132 47.2017C517.511 47.535 517.018 48.0009 516.655 48.5994C516.291 49.1903 516.109 49.8646 516.109 50.6222V61.2812H512.711ZM530.962 61.6335C529.243 61.6335 527.762 61.2661 526.519 60.5312C525.284 59.7888 524.33 58.7472 523.655 57.4062C522.989 56.0578 522.655 54.4782 522.655 52.6676C522.655 50.8797 522.989 49.304 523.655 47.9403C524.33 46.5767 525.269 45.5123 526.474 44.7472C527.686 43.982 529.102 43.5994 530.724 43.5994C531.709 43.5994 532.663 43.7623 533.587 44.0881C534.512 44.4138 535.341 44.9252 536.076 45.6222C536.811 46.3191 537.39 47.2244 537.815 48.3381C538.239 49.4441 538.451 50.7888 538.451 52.3722V53.5767H524.576V51.0312H535.121C535.121 50.1373 534.94 49.3456 534.576 48.6562C534.212 47.9593 533.701 47.41 533.042 47.0085C532.39 46.607 531.625 46.4062 530.746 46.4062C529.792 46.4062 528.959 46.6411 528.246 47.1108C527.542 47.5729 526.996 48.179 526.61 48.929C526.231 49.6714 526.042 50.4782 526.042 51.3494V53.3381C526.042 54.5047 526.246 55.4972 526.655 56.3153C527.072 57.1335 527.652 57.7585 528.394 58.1903C529.137 58.6146 530.004 58.8267 530.996 58.8267C531.64 58.8267 532.227 58.7358 532.758 58.554C533.288 58.3646 533.746 58.0843 534.133 57.7131C534.519 57.3419 534.815 56.8835 535.019 56.3381L538.235 56.9176C537.977 57.8646 537.515 58.6941 536.849 59.4062C536.19 60.1108 535.36 60.66 534.36 61.054C533.368 61.4403 532.235 61.6335 530.962 61.6335ZM548.816 61.6335C547.096 61.6335 545.615 61.2661 544.372 60.5312C543.138 59.7888 542.183 58.7472 541.509 57.4062C540.842 56.0578 540.509 54.4782 540.509 52.6676C540.509 50.8797 540.842 49.304 541.509 47.9403C542.183 46.5767 543.122 45.5123 544.327 44.7472C545.539 43.982 546.956 43.5994 548.577 43.5994C549.562 43.5994 550.516 43.7623 551.441 44.0881C552.365 44.4138 553.194 44.9252 553.929 45.6222C554.664 46.3191 555.244 47.2244 555.668 48.3381C556.092 49.4441 556.304 50.7888 556.304 52.3722V53.5767H542.429V51.0312H552.975C552.975 50.1373 552.793 49.3456 552.429 48.6562C552.066 47.9593 551.554 47.41 550.895 47.0085C550.244 46.607 549.478 46.4062 548.6 46.4062C547.645 46.4062 546.812 46.6411 546.1 47.1108C545.395 47.5729 544.85 48.179 544.463 48.929C544.084 49.6714 543.895 50.4782 543.895 51.3494V53.3381C543.895 54.5047 544.1 55.4972 544.509 56.3153C544.925 57.1335 545.505 57.7585 546.247 58.1903C546.99 58.6146 547.857 58.8267 548.85 58.8267C549.494 58.8267 550.081 58.7358 550.611 58.554C551.141 58.3646 551.6 58.0843 551.986 57.7131C552.372 57.3419 552.668 56.8835 552.872 56.3381L556.088 56.9176C555.831 57.8646 555.369 58.6941 554.702 59.4062C554.043 60.1108 553.213 60.66 552.213 61.054C551.221 61.4403 550.088 61.6335 548.816 61.6335ZM572.226 48.0881L569.146 48.6335C569.017 48.2396 568.813 47.8646 568.532 47.5085C568.26 47.1525 567.889 46.8608 567.419 46.6335C566.949 46.4062 566.362 46.2926 565.657 46.2926C564.695 46.2926 563.892 46.5085 563.248 46.9403C562.604 47.3646 562.282 47.9138 562.282 48.5881C562.282 49.1714 562.498 49.6411 562.93 49.9972C563.362 50.3532 564.059 50.6449 565.021 50.8722L567.794 51.5085C569.4 51.8797 570.597 52.4517 571.385 53.2244C572.173 53.9972 572.567 55.0009 572.567 56.2358C572.567 57.2812 572.264 58.2131 571.657 59.0312C571.059 59.8419 570.222 60.4782 569.146 60.9403C568.078 61.4025 566.839 61.6335 565.43 61.6335C563.476 61.6335 561.881 61.2169 560.646 60.3835C559.411 59.5426 558.654 58.3494 558.373 56.804L561.657 56.304C561.862 57.16 562.282 57.8078 562.919 58.2472C563.555 58.679 564.385 58.8949 565.407 58.8949C566.521 58.8949 567.411 58.6638 568.078 58.2017C568.745 57.732 569.078 57.16 569.078 56.4858C569.078 55.9403 568.873 55.482 568.464 55.1108C568.063 54.7396 567.445 54.4593 566.612 54.2699L563.657 53.6222C562.029 53.2509 560.824 52.66 560.044 51.8494C559.271 51.0388 558.885 50.0123 558.885 48.7699C558.885 47.7396 559.173 46.8381 559.748 46.0653C560.324 45.2926 561.12 44.6903 562.135 44.2585C563.15 43.8191 564.313 43.5994 565.623 43.5994C567.51 43.5994 568.995 44.0085 570.078 44.8267C571.161 45.6373 571.877 46.7244 572.226 48.0881ZM583.188 61.2812V38.0085H586.586V46.6562H586.79C586.987 46.2926 587.271 45.8722 587.642 45.3949C588.014 44.9176 588.529 44.5009 589.188 44.1449C589.847 43.7812 590.718 43.5994 591.801 43.5994C593.211 43.5994 594.468 43.9555 595.574 44.6676C596.68 45.3797 597.548 46.4062 598.176 47.7472C598.813 49.0881 599.131 50.7017 599.131 52.5881C599.131 54.4744 598.817 56.0919 598.188 57.4403C597.559 58.7812 596.695 59.8153 595.597 60.5426C594.498 61.2623 593.245 61.6222 591.836 61.6222C590.775 61.6222 589.907 61.4441 589.233 61.0881C588.567 60.732 588.044 60.3153 587.665 59.8381C587.286 59.3608 586.995 58.9366 586.79 58.5653H586.506V61.2812H583.188ZM586.517 52.554C586.517 53.7812 586.695 54.857 587.051 55.7812C587.407 56.7055 587.923 57.429 588.597 57.9517C589.271 58.4669 590.097 58.7244 591.074 58.7244C592.089 58.7244 592.938 58.4555 593.62 57.9176C594.301 57.3722 594.817 56.6335 595.165 55.7017C595.521 54.7699 595.699 53.7206 595.699 52.554C595.699 51.4025 595.525 50.3684 595.176 49.4517C594.836 48.535 594.32 47.8116 593.631 47.2812C592.949 46.7509 592.097 46.4858 591.074 46.4858C590.089 46.4858 589.256 46.7396 588.574 47.2472C587.9 47.7547 587.389 48.4631 587.04 49.3722C586.692 50.2812 586.517 51.3419 586.517 52.554ZM609.541 61.6335C607.821 61.6335 606.34 61.2661 605.098 60.5312C603.863 59.7888 602.908 58.7472 602.234 57.4062C601.568 56.0578 601.234 54.4782 601.234 52.6676C601.234 50.8797 601.568 49.304 602.234 47.9403C602.908 46.5767 603.848 45.5123 605.052 44.7472C606.265 43.982 607.681 43.5994 609.302 43.5994C610.287 43.5994 611.242 43.7623 612.166 44.0881C613.09 44.4138 613.92 44.9252 614.655 45.6222C615.39 46.3191 615.969 47.2244 616.393 48.3381C616.818 49.4441 617.03 50.7888 617.03 52.3722V53.5767H603.155V51.0312H613.7C613.7 50.1373 613.518 49.3456 613.155 48.6562C612.791 47.9593 612.28 47.41 611.621 47.0085C610.969 46.607 610.204 46.4062 609.325 46.4062C608.371 46.4062 607.537 46.6411 606.825 47.1108C606.121 47.5729 605.575 48.179 605.189 48.929C604.81 49.6714 604.621 50.4782 604.621 51.3494V53.3381C604.621 54.5047 604.825 55.4972 605.234 56.3153C605.651 57.1335 606.23 57.7585 606.973 58.1903C607.715 58.6146 608.583 58.8267 609.575 58.8267C610.219 58.8267 610.806 58.7358 611.336 58.554C611.867 58.3646 612.325 58.0843 612.711 57.7131C613.098 57.3419 613.393 56.8835 613.598 56.3381L616.814 56.9176C616.556 57.8646 616.094 58.6941 615.427 59.4062C614.768 60.1108 613.939 60.66 612.939 61.054C611.946 61.4403 610.814 61.6335 609.541 61.6335ZM627.224 61.6335C625.534 61.6335 624.08 61.2509 622.86 60.4858C621.648 59.7131 620.716 58.6487 620.065 57.2926C619.413 55.9366 619.088 54.3835 619.088 52.6335C619.088 50.8608 619.421 49.2964 620.088 47.9403C620.754 46.5767 621.694 45.5123 622.906 44.7472C624.118 43.982 625.546 43.5994 627.19 43.5994C628.516 43.5994 629.697 43.8456 630.735 44.3381C631.773 44.8229 632.61 45.5047 633.247 46.3835C633.891 47.2623 634.273 48.2888 634.394 49.4631H631.088C630.906 48.6449 630.489 47.9403 629.838 47.3494C629.194 46.7585 628.33 46.4631 627.247 46.4631C626.3 46.4631 625.47 46.7131 624.758 47.2131C624.053 47.7055 623.504 48.41 623.11 49.3267C622.716 50.2358 622.519 51.3116 622.519 52.554C622.519 53.8267 622.713 54.9252 623.099 55.8494C623.485 56.7737 624.031 57.4896 624.735 57.9972C625.447 58.5047 626.284 58.7585 627.247 58.7585C627.891 58.7585 628.474 58.6411 628.997 58.4062C629.527 58.1638 629.97 57.8191 630.326 57.3722C630.69 56.9252 630.944 56.3873 631.088 55.7585H634.394C634.273 56.8873 633.906 57.8949 633.292 58.7812C632.678 59.6676 631.856 60.3646 630.826 60.8722C629.803 61.3797 628.603 61.6335 627.224 61.6335ZM642.179 61.6676C641.073 61.6676 640.073 61.4631 639.179 61.054C638.285 60.6373 637.577 60.035 637.054 59.2472C636.539 58.4593 636.282 57.4934 636.282 56.3494C636.282 55.3646 636.471 54.554 636.85 53.9176C637.229 53.2812 637.74 52.7775 638.384 52.4062C639.028 52.035 639.748 51.7547 640.543 51.5653C641.338 51.3759 642.149 51.232 642.975 51.1335C644.02 51.0123 644.869 50.9138 645.52 50.8381C646.172 50.7547 646.645 50.6222 646.941 50.4403C647.236 50.2585 647.384 49.9631 647.384 49.554V49.4744C647.384 48.482 647.104 47.7131 646.543 47.1676C645.99 46.6222 645.164 46.3494 644.066 46.3494C642.922 46.3494 642.02 46.6032 641.361 47.1108C640.71 47.6108 640.259 48.1676 640.009 48.7812L636.816 48.054C637.195 46.9934 637.748 46.1373 638.475 45.4858C639.21 44.8267 640.054 44.3494 641.009 44.054C641.963 43.7509 642.967 43.5994 644.02 43.5994C644.717 43.5994 645.456 43.6828 646.236 43.8494C647.024 44.0085 647.759 44.304 648.441 44.7358C649.13 45.1676 649.695 45.785 650.134 46.5881C650.573 47.3835 650.793 48.4176 650.793 49.6903V61.2812H647.475V58.8949H647.338C647.119 59.3343 646.789 59.7661 646.35 60.1903C645.91 60.6146 645.346 60.9669 644.657 61.2472C643.967 61.5275 643.141 61.6676 642.179 61.6676ZM642.918 58.9403C643.857 58.9403 644.66 58.7547 645.327 58.3835C646.001 58.0123 646.513 57.5275 646.861 56.929C647.217 56.3229 647.395 55.6752 647.395 54.9858V52.7358C647.274 52.857 647.039 52.9706 646.691 53.0767C646.35 53.1752 645.96 53.2623 645.52 53.3381C645.081 53.4062 644.653 53.4706 644.236 53.5312C643.82 53.5843 643.471 53.6297 643.191 53.6676C642.532 53.7509 641.929 53.8911 641.384 54.0881C640.846 54.285 640.414 54.5691 640.088 54.9403C639.77 55.304 639.611 55.7888 639.611 56.3949C639.611 57.2358 639.922 57.8722 640.543 58.304C641.164 58.7282 641.956 58.9403 642.918 58.9403ZM665.447 54.0426V43.8267H668.856V61.2812H665.516V58.2585H665.334C664.932 59.1903 664.288 59.9669 663.402 60.5881C662.523 61.2017 661.428 61.5085 660.118 61.5085C658.997 61.5085 658.004 61.2623 657.141 60.7699C656.284 60.2699 655.61 59.5312 655.118 58.554C654.633 57.5767 654.391 56.3684 654.391 54.929V43.8267H657.788V54.5199C657.788 55.7093 658.118 56.6562 658.777 57.3608C659.436 58.0653 660.292 58.4176 661.345 58.4176C661.981 58.4176 662.614 58.2585 663.243 57.9403C663.879 57.6222 664.406 57.1411 664.822 56.4972C665.247 55.8532 665.455 55.035 665.447 54.0426ZM685.573 48.0881L682.494 48.6335C682.365 48.2396 682.16 47.8646 681.88 47.5085C681.607 47.1525 681.236 46.8608 680.767 46.6335C680.297 46.4062 679.71 46.2926 679.005 46.2926C678.043 46.2926 677.24 46.5085 676.596 46.9403C675.952 47.3646 675.63 47.9138 675.63 48.5881C675.63 49.1714 675.846 49.6411 676.278 49.9972C676.71 50.3532 677.407 50.6449 678.369 50.8722L681.142 51.5085C682.748 51.8797 683.945 52.4517 684.732 53.2244C685.52 53.9972 685.914 55.0009 685.914 56.2358C685.914 57.2812 685.611 58.2131 685.005 59.0312C684.407 59.8419 683.57 60.4782 682.494 60.9403C681.426 61.4025 680.187 61.6335 678.778 61.6335C676.823 61.6335 675.229 61.2169 673.994 60.3835C672.759 59.5426 672.001 58.3494 671.721 56.804L675.005 56.304C675.21 57.16 675.63 57.8078 676.267 58.2472C676.903 58.679 677.732 58.8949 678.755 58.8949C679.869 58.8949 680.759 58.6638 681.426 58.2017C682.092 57.732 682.426 57.16 682.426 56.4858C682.426 55.9403 682.221 55.482 681.812 55.1108C681.41 54.7396 680.793 54.4593 679.96 54.2699L677.005 53.6222C675.376 53.2509 674.172 52.66 673.392 51.8494C672.619 51.0388 672.232 50.0123 672.232 48.7699C672.232 47.7396 672.52 46.8381 673.096 46.0653C673.672 45.2926 674.467 44.6903 675.482 44.2585C676.498 43.8191 677.66 43.5994 678.971 43.5994C680.857 43.5994 682.342 44.0085 683.426 44.8267C684.509 45.6373 685.225 46.7244 685.573 48.0881ZM696.245 61.6335C694.525 61.6335 693.044 61.2661 691.802 60.5312C690.567 59.7888 689.612 58.7472 688.938 57.4062C688.271 56.0578 687.938 54.4782 687.938 52.6676C687.938 50.8797 688.271 49.304 688.938 47.9403C689.612 46.5767 690.552 45.5123 691.756 44.7472C692.968 43.982 694.385 43.5994 696.006 43.5994C696.991 43.5994 697.946 43.7623 698.87 44.0881C699.794 44.4138 700.624 44.9252 701.358 45.6222C702.093 46.3191 702.673 47.2244 703.097 48.3381C703.521 49.4441 703.733 50.7888 703.733 52.3722V53.5767H689.858V51.0312H700.404C700.404 50.1373 700.222 49.3456 699.858 48.6562C699.495 47.9593 698.983 47.41 698.324 47.0085C697.673 46.607 696.908 46.4062 696.029 46.4062C695.074 46.4062 694.241 46.6411 693.529 47.1108C692.824 47.5729 692.279 48.179 691.893 48.929C691.514 49.6714 691.324 50.4782 691.324 51.3494V53.3381C691.324 54.5047 691.529 55.4972 691.938 56.3153C692.355 57.1335 692.934 57.7585 693.677 58.1903C694.419 58.6146 695.286 58.8267 696.279 58.8267C696.923 58.8267 697.51 58.7358 698.04 58.554C698.571 58.3646 699.029 58.0843 699.415 57.7131C699.802 57.3419 700.097 56.8835 700.302 56.3381L703.518 56.9176C703.26 57.8646 702.798 58.6941 702.131 59.4062C701.472 60.1108 700.643 60.66 699.643 61.054C698.65 61.4403 697.518 61.6335 696.245 61.6335ZM721.468 61.6335C719.832 61.6335 718.404 61.2585 717.184 60.5085C715.965 59.7585 715.018 58.7093 714.343 57.3608C713.669 56.0123 713.332 54.4366 713.332 52.6335C713.332 50.8229 713.669 49.2396 714.343 47.8835C715.018 46.5275 715.965 45.4744 717.184 44.7244C718.404 43.9744 719.832 43.5994 721.468 43.5994C723.105 43.5994 724.533 43.9744 725.752 44.7244C726.972 45.4744 727.919 46.5275 728.593 47.8835C729.268 49.2396 729.605 50.8229 729.605 52.6335C729.605 54.4366 729.268 56.0123 728.593 57.3608C727.919 58.7093 726.972 59.7585 725.752 60.5085C724.533 61.2585 723.105 61.6335 721.468 61.6335ZM721.48 58.7812C722.54 58.7812 723.419 58.5009 724.116 57.9403C724.813 57.3797 725.328 56.6335 725.662 55.7017C726.002 54.7699 726.173 53.7434 726.173 52.6222C726.173 51.5085 726.002 50.4858 725.662 49.554C725.328 48.6146 724.813 47.8608 724.116 47.2926C723.419 46.7244 722.54 46.4403 721.48 46.4403C720.412 46.4403 719.525 46.7244 718.821 47.2926C718.124 47.8608 717.605 48.6146 717.264 49.554C716.93 50.4858 716.764 51.5085 716.764 52.6222C716.764 53.7434 716.93 54.7699 717.264 55.7017C717.605 56.6335 718.124 57.3797 718.821 57.9403C719.525 58.5009 720.412 58.7812 721.48 58.7812ZM740.776 43.8267V46.554H730.913V43.8267H740.776ZM733.617 61.2812V41.804C733.617 40.7131 733.856 39.8078 734.333 39.0881C734.81 38.3608 735.443 37.8191 736.231 37.4631C737.019 37.0994 737.875 36.9176 738.799 36.9176C739.481 36.9176 740.064 36.9744 740.549 37.0881C741.034 37.1941 741.394 37.2926 741.628 37.3835L740.833 40.1335C740.674 40.0881 740.469 40.035 740.219 39.9744C739.969 39.9062 739.666 39.8722 739.31 39.8722C738.484 39.8722 737.894 40.0767 737.538 40.4858C737.189 40.8949 737.015 41.4858 737.015 42.2585V61.2812H733.617ZM176.523 109.634C174.834 109.634 173.379 109.251 172.159 108.486C170.947 107.713 170.016 106.649 169.364 105.293C168.713 103.937 168.387 102.384 168.387 100.634C168.387 98.8608 168.72 97.2964 169.387 95.9403C170.053 94.5767 170.993 93.5123 172.205 92.7472C173.417 91.982 174.845 91.5994 176.489 91.5994C177.815 91.5994 178.997 91.8456 180.034 92.3381C181.072 92.8229 181.909 93.5047 182.546 94.3835C183.19 95.2623 183.572 96.2888 183.694 97.4631H180.387C180.205 96.6449 179.788 95.9403 179.137 95.3494C178.493 94.7585 177.629 94.4631 176.546 94.4631C175.599 94.4631 174.769 94.7131 174.057 95.2131C173.353 95.7055 172.803 96.41 172.409 97.3267C172.016 98.2358 171.819 99.3116 171.819 100.554C171.819 101.827 172.012 102.925 172.398 103.849C172.784 104.774 173.33 105.49 174.034 105.997C174.747 106.505 175.584 106.759 176.546 106.759C177.19 106.759 177.773 106.641 178.296 106.406C178.826 106.164 179.269 105.819 179.625 105.372C179.989 104.925 180.243 104.387 180.387 103.759H183.694C183.572 104.887 183.205 105.895 182.591 106.781C181.978 107.668 181.156 108.365 180.125 108.872C179.103 109.38 177.902 109.634 176.523 109.634ZM189.797 98.9176V109.281H186.399V86.0085H189.751V94.6676H189.967C190.376 93.7282 191.001 92.982 191.842 92.429C192.683 91.8759 193.782 91.5994 195.138 91.5994C196.335 91.5994 197.38 91.8456 198.274 92.3381C199.176 92.8305 199.873 93.5653 200.365 94.5426C200.865 95.5123 201.115 96.7244 201.115 98.179V109.281H197.717V98.5881C197.717 97.3078 197.388 96.3153 196.729 95.6108C196.07 94.8987 195.153 94.5426 193.979 94.5426C193.176 94.5426 192.456 94.7131 191.82 95.054C191.191 95.3949 190.695 95.8949 190.331 96.554C189.975 97.2055 189.797 97.9934 189.797 98.9176ZM212.073 109.634C210.437 109.634 209.009 109.259 207.789 108.509C206.57 107.759 205.623 106.709 204.948 105.361C204.274 104.012 203.937 102.437 203.937 100.634C203.937 98.8229 204.274 97.2396 204.948 95.8835C205.623 94.5275 206.57 93.4744 207.789 92.7244C209.009 91.9744 210.437 91.5994 212.073 91.5994C213.71 91.5994 215.138 91.9744 216.357 92.7244C217.577 93.4744 218.524 94.5275 219.198 95.8835C219.873 97.2396 220.21 98.8229 220.21 100.634C220.21 102.437 219.873 104.012 219.198 105.361C218.524 106.709 217.577 107.759 216.357 108.509C215.138 109.259 213.71 109.634 212.073 109.634ZM212.085 106.781C213.145 106.781 214.024 106.501 214.721 105.94C215.418 105.38 215.933 104.634 216.267 103.702C216.607 102.77 216.778 101.743 216.778 100.622C216.778 99.5085 216.607 98.4858 216.267 97.554C215.933 96.6146 215.418 95.8608 214.721 95.2926C214.024 94.7244 213.145 94.4403 212.085 94.4403C211.017 94.4403 210.13 94.7244 209.426 95.2926C208.729 95.8608 208.21 96.6146 207.869 97.554C207.535 98.4858 207.369 99.5085 207.369 100.622C207.369 101.743 207.535 102.77 207.869 103.702C208.21 104.634 208.729 105.38 209.426 105.94C210.13 106.501 211.017 106.781 212.085 106.781ZM223.074 115.827V91.8267H226.393V94.6562H226.677C226.874 94.2926 227.158 93.8722 227.529 93.3949C227.9 92.9176 228.415 92.5009 229.074 92.1449C229.733 91.7812 230.605 91.5994 231.688 91.5994C233.097 91.5994 234.355 91.9555 235.461 92.6676C236.567 93.3797 237.434 94.4062 238.063 95.7472C238.699 97.0881 239.018 98.7017 239.018 100.588C239.018 102.474 238.703 104.092 238.074 105.44C237.446 106.781 236.582 107.815 235.483 108.543C234.385 109.262 233.131 109.622 231.722 109.622C230.661 109.622 229.794 109.444 229.12 109.088C228.453 108.732 227.93 108.315 227.552 107.838C227.173 107.361 226.881 106.937 226.677 106.565H226.472V115.827H223.074ZM226.404 100.554C226.404 101.781 226.582 102.857 226.938 103.781C227.294 104.705 227.809 105.429 228.483 105.952C229.158 106.467 229.983 106.724 230.961 106.724C231.976 106.724 232.824 106.455 233.506 105.918C234.188 105.372 234.703 104.634 235.052 103.702C235.408 102.77 235.586 101.721 235.586 100.554C235.586 99.4025 235.411 98.3684 235.063 97.4517C234.722 96.535 234.207 95.8116 233.518 95.2812C232.836 94.7509 231.983 94.4858 230.961 94.4858C229.976 94.4858 229.143 94.7396 228.461 95.2472C227.786 95.7547 227.275 96.4631 226.927 97.3722C226.578 98.2812 226.404 99.3419 226.404 100.554ZM241.896 115.827V91.8267H245.215V94.6562H245.499C245.696 94.2926 245.98 93.8722 246.351 93.3949C246.722 92.9176 247.237 92.5009 247.896 92.1449C248.555 91.7812 249.427 91.5994 250.51 91.5994C251.919 91.5994 253.177 91.9555 254.283 92.6676C255.389 93.3797 256.256 94.4062 256.885 95.7472C257.521 97.0881 257.84 98.7017 257.84 100.588C257.84 102.474 257.525 104.092 256.896 105.44C256.268 106.781 255.404 107.815 254.305 108.543C253.207 109.262 251.953 109.622 250.544 109.622C249.483 109.622 248.616 109.444 247.942 109.088C247.275 108.732 246.752 108.315 246.374 107.838C245.995 107.361 245.703 106.937 245.499 106.565H245.294V115.827H241.896ZM245.226 100.554C245.226 101.781 245.404 102.857 245.76 103.781C246.116 104.705 246.631 105.429 247.305 105.952C247.98 106.467 248.805 106.724 249.783 106.724C250.798 106.724 251.646 106.455 252.328 105.918C253.01 105.372 253.525 104.634 253.874 103.702C254.23 102.77 254.408 101.721 254.408 100.554C254.408 99.4025 254.233 98.3684 253.885 97.4517C253.544 96.535 253.029 95.8116 252.34 95.2812C251.658 94.7509 250.805 94.4858 249.783 94.4858C248.798 94.4858 247.965 94.7396 247.283 95.2472C246.608 95.7547 246.097 96.4631 245.749 97.3722C245.4 98.2812 245.226 99.3419 245.226 100.554ZM260.718 109.281V91.8267H264.116V109.281H260.718ZM262.434 89.1335C261.843 89.1335 261.336 88.9366 260.912 88.5426C260.495 88.1411 260.287 87.6638 260.287 87.1108C260.287 86.5502 260.495 86.0729 260.912 85.679C261.336 85.2775 261.843 85.0767 262.434 85.0767C263.025 85.0767 263.529 85.2775 263.946 85.679C264.37 86.0729 264.582 86.5502 264.582 87.1108C264.582 87.6638 264.37 88.1411 263.946 88.5426C263.529 88.9366 263.025 89.1335 262.434 89.1335ZM271.157 98.9176V109.281H267.759V91.8267H271.02V94.6676H271.236C271.638 93.7434 272.267 93.0009 273.123 92.4403C273.986 91.8797 275.073 91.5994 276.384 91.5994C277.573 91.5994 278.615 91.8494 279.509 92.3494C280.403 92.8419 281.096 93.5767 281.589 94.554C282.081 95.5312 282.327 96.7396 282.327 98.179V109.281H278.93V98.5881C278.93 97.3229 278.6 96.3343 277.941 95.6222C277.282 94.9025 276.377 94.5426 275.225 94.5426C274.437 94.5426 273.736 94.7131 273.123 95.054C272.517 95.3949 272.036 95.8949 271.68 96.554C271.331 97.2055 271.157 97.9934 271.157 98.9176ZM293.274 116.19C291.888 116.19 290.695 116.009 289.695 115.645C288.702 115.281 287.892 114.8 287.263 114.202C286.634 113.603 286.164 112.948 285.854 112.236L288.774 111.031C288.979 111.365 289.252 111.717 289.592 112.088C289.941 112.467 290.411 112.789 291.002 113.054C291.6 113.319 292.369 113.452 293.308 113.452C294.596 113.452 295.661 113.137 296.502 112.509C297.342 111.887 297.763 110.895 297.763 109.531V106.099H297.547C297.342 106.471 297.047 106.884 296.661 107.338C296.282 107.793 295.759 108.187 295.092 108.52C294.426 108.853 293.558 109.02 292.49 109.02C291.111 109.02 289.869 108.698 288.763 108.054C287.664 107.402 286.793 106.444 286.149 105.179C285.513 103.906 285.195 102.342 285.195 100.486C285.195 98.6297 285.509 97.0388 286.138 95.7131C286.774 94.3873 287.645 93.3722 288.752 92.6676C289.858 91.9555 291.111 91.5994 292.513 91.5994C293.596 91.5994 294.471 91.7812 295.138 92.1449C295.805 92.5009 296.324 92.9176 296.695 93.3949C297.074 93.8722 297.365 94.2926 297.57 94.6562H297.82V91.8267H301.149V109.668C301.149 111.168 300.801 112.399 300.104 113.361C299.407 114.323 298.464 115.035 297.274 115.497C296.092 115.959 294.759 116.19 293.274 116.19ZM293.24 106.202C294.217 106.202 295.043 105.974 295.717 105.52C296.399 105.058 296.914 104.399 297.263 103.543C297.619 102.679 297.797 101.645 297.797 100.44C297.797 99.2661 297.623 98.232 297.274 97.3381C296.926 96.4441 296.414 95.7472 295.74 95.2472C295.066 94.7396 294.233 94.4858 293.24 94.4858C292.217 94.4858 291.365 94.7509 290.683 95.2812C290.002 95.804 289.486 96.5161 289.138 97.4176C288.797 98.3191 288.627 99.3267 288.627 100.44C288.627 101.584 288.801 102.588 289.149 103.452C289.498 104.315 290.013 104.99 290.695 105.474C291.384 105.959 292.233 106.202 293.24 106.202ZM320.467 91.8267V94.554H310.932V91.8267H320.467ZM313.489 87.6449H316.887V104.156C316.887 104.815 316.986 105.312 317.182 105.645C317.379 105.971 317.633 106.194 317.944 106.315C318.262 106.429 318.607 106.486 318.978 106.486C319.251 106.486 319.489 106.467 319.694 106.429C319.898 106.391 320.057 106.361 320.171 106.338L320.785 109.145C320.588 109.221 320.307 109.296 319.944 109.372C319.58 109.455 319.126 109.501 318.58 109.509C317.686 109.524 316.853 109.365 316.08 109.031C315.307 108.698 314.682 108.183 314.205 107.486C313.728 106.789 313.489 105.914 313.489 104.861V87.6449ZM327.07 98.9176V109.281H323.672V86.0085H327.024V94.6676H327.24C327.649 93.7282 328.274 92.982 329.115 92.429C329.956 91.8759 331.055 91.5994 332.411 91.5994C333.608 91.5994 334.653 91.8456 335.547 92.3381C336.449 92.8305 337.146 93.5653 337.638 94.5426C338.138 95.5123 338.388 96.7244 338.388 98.179V109.281H334.99V98.5881C334.99 97.3078 334.661 96.3153 334.002 95.6108C333.343 94.8987 332.426 94.5426 331.252 94.5426C330.449 94.5426 329.729 94.7131 329.093 95.054C328.464 95.3949 327.968 95.8949 327.604 96.554C327.248 97.2055 327.07 97.9934 327.07 98.9176ZM349.517 109.634C347.797 109.634 346.316 109.266 345.074 108.531C343.839 107.789 342.884 106.747 342.21 105.406C341.543 104.058 341.21 102.478 341.21 100.668C341.21 98.8797 341.543 97.304 342.21 95.9403C342.884 94.5767 343.824 93.5123 345.028 92.7472C346.24 91.982 347.657 91.5994 349.278 91.5994C350.263 91.5994 351.218 91.7623 352.142 92.0881C353.066 92.4138 353.896 92.9252 354.63 93.6222C355.365 94.3191 355.945 95.2244 356.369 96.3381C356.793 97.4441 357.005 98.7888 357.005 100.372V101.577H343.13V99.0312H353.676C353.676 98.1373 353.494 97.3456 353.13 96.6562C352.767 95.9593 352.255 95.41 351.596 95.0085C350.945 94.607 350.18 94.4062 349.301 94.4062C348.346 94.4062 347.513 94.6411 346.801 95.1108C346.096 95.5729 345.551 96.179 345.165 96.929C344.786 97.6714 344.596 98.4782 344.596 99.3494V101.338C344.596 102.505 344.801 103.497 345.21 104.315C345.627 105.134 346.206 105.759 346.949 106.19C347.691 106.615 348.558 106.827 349.551 106.827C350.195 106.827 350.782 106.736 351.312 106.554C351.843 106.365 352.301 106.084 352.687 105.713C353.074 105.342 353.369 104.884 353.574 104.338L356.79 104.918C356.532 105.865 356.07 106.694 355.403 107.406C354.744 108.111 353.915 108.66 352.915 109.054C351.922 109.44 350.79 109.634 349.517 109.634ZM359.847 109.281V91.8267H363.109V94.6676H363.325C363.688 93.7055 364.283 92.9555 365.109 92.4176C365.934 91.8722 366.923 91.5994 368.075 91.5994C369.241 91.5994 370.219 91.8722 371.006 92.4176C371.802 92.9631 372.389 93.7131 372.768 94.6676H372.95C373.366 93.7358 374.029 92.9934 374.938 92.4403C375.847 91.8797 376.931 91.5994 378.188 91.5994C379.772 91.5994 381.063 92.0956 382.063 93.0881C383.071 94.0805 383.575 95.5767 383.575 97.5767V109.281H380.177V97.8949C380.177 96.7131 379.855 95.857 379.211 95.3267C378.567 94.7964 377.798 94.5312 376.904 94.5312C375.798 94.5312 374.938 94.8722 374.325 95.554C373.711 96.2282 373.404 97.0956 373.404 98.1562V109.281H370.018V97.679C370.018 96.732 369.722 95.9706 369.131 95.3949C368.541 94.8191 367.772 94.5312 366.825 94.5312C366.181 94.5312 365.586 94.7017 365.041 95.0426C364.503 95.3759 364.067 95.8419 363.734 96.4403C363.408 97.0388 363.245 97.732 363.245 98.5199V109.281H359.847ZM401.275 109.622C399.866 109.622 398.609 109.262 397.503 108.543C396.404 107.815 395.541 106.781 394.912 105.44C394.291 104.092 393.98 102.474 393.98 100.588C393.98 98.7017 394.294 97.0881 394.923 95.7472C395.56 94.4062 396.431 93.3797 397.537 92.6676C398.643 91.9555 399.897 91.5994 401.298 91.5994C402.381 91.5994 403.253 91.7812 403.912 92.1449C404.578 92.5009 405.094 92.9176 405.457 93.3949C405.828 93.8722 406.116 94.2926 406.321 94.6562H406.525V86.0085H409.923V109.281H406.605V106.565H406.321C406.116 106.937 405.821 107.361 405.435 107.838C405.056 108.315 404.533 108.732 403.866 109.088C403.2 109.444 402.336 109.622 401.275 109.622ZM402.025 106.724C403.003 106.724 403.828 106.467 404.503 105.952C405.185 105.429 405.7 104.705 406.048 103.781C406.404 102.857 406.582 101.781 406.582 100.554C406.582 99.3419 406.408 98.2812 406.06 97.3722C405.711 96.4631 405.2 95.7547 404.525 95.2472C403.851 94.7396 403.018 94.4858 402.025 94.4858C401.003 94.4858 400.15 94.7509 399.469 95.2812C398.787 95.8116 398.272 96.535 397.923 97.4517C397.582 98.3684 397.412 99.4025 397.412 100.554C397.412 101.721 397.586 102.77 397.935 103.702C398.283 104.634 398.798 105.372 399.48 105.918C400.169 106.455 401.018 106.724 402.025 106.724ZM421.197 109.634C419.56 109.634 418.132 109.259 416.913 108.509C415.693 107.759 414.746 106.709 414.072 105.361C413.398 104.012 413.06 102.437 413.06 100.634C413.06 98.8229 413.398 97.2396 414.072 95.8835C414.746 94.5275 415.693 93.4744 416.913 92.7244C418.132 91.9744 419.56 91.5994 421.197 91.5994C422.833 91.5994 424.261 91.9744 425.481 92.7244C426.701 93.4744 427.648 94.5275 428.322 95.8835C428.996 97.2396 429.333 98.8229 429.333 100.634C429.333 102.437 428.996 104.012 428.322 105.361C427.648 106.709 426.701 107.759 425.481 108.509C424.261 109.259 422.833 109.634 421.197 109.634ZM421.208 106.781C422.269 106.781 423.148 106.501 423.845 105.94C424.542 105.38 425.057 104.634 425.39 103.702C425.731 102.77 425.901 101.743 425.901 100.622C425.901 99.5085 425.731 98.4858 425.39 97.554C425.057 96.6146 424.542 95.8608 423.845 95.2926C423.148 94.7244 422.269 94.4403 421.208 94.4403C420.14 94.4403 419.254 94.7244 418.549 95.2926C417.852 95.8608 417.333 96.6146 416.992 97.554C416.659 98.4858 416.492 99.5085 416.492 100.622C416.492 101.743 416.659 102.77 416.992 103.702C417.333 104.634 417.852 105.38 418.549 105.94C419.254 106.501 420.14 106.781 421.208 106.781ZM435.451 109.281L430.314 91.8267H433.826L437.246 104.645H437.417L440.848 91.8267H444.36L447.769 104.588H447.939L451.337 91.8267H454.848L449.723 109.281H446.258L442.712 96.679H442.451L438.905 109.281H435.451ZM460.543 98.9176V109.281H457.145V91.8267H460.406V94.6676H460.622C461.024 93.7434 461.652 93.0009 462.508 92.4403C463.372 91.8797 464.459 91.5994 465.77 91.5994C466.959 91.5994 468.001 91.8494 468.895 92.3494C469.789 92.8419 470.482 93.5767 470.974 94.554C471.467 95.5312 471.713 96.7396 471.713 98.179V109.281H468.315V98.5881C468.315 97.3229 467.986 96.3343 467.327 95.6222C466.668 94.9025 465.762 94.5426 464.611 94.5426C463.823 94.5426 463.122 94.7131 462.508 95.054C461.902 95.3949 461.421 95.8949 461.065 96.554C460.717 97.2055 460.543 97.9934 460.543 98.9176ZM477.58 109.497C476.959 109.497 476.425 109.277 475.978 108.838C475.531 108.391 475.308 107.853 475.308 107.224C475.308 106.603 475.531 106.073 475.978 105.634C476.425 105.187 476.959 104.963 477.58 104.963C478.202 104.963 478.736 105.187 479.183 105.634C479.63 106.073 479.853 106.603 479.853 107.224C479.853 107.641 479.747 108.024 479.535 108.372C479.33 108.713 479.058 108.986 478.717 109.19C478.376 109.395 477.997 109.497 477.58 109.497ZM489.767 89.0312V86.0085H507.778V89.0312H500.517V109.281H497.017V89.0312H489.767ZM513.956 98.9176V109.281H510.558V86.0085H513.91V94.6676H514.126C514.535 93.7282 515.16 92.982 516.001 92.429C516.842 91.8759 517.94 91.5994 519.296 91.5994C520.493 91.5994 521.539 91.8456 522.433 92.3381C523.334 92.8305 524.031 93.5653 524.524 94.5426C525.024 95.5123 525.274 96.7244 525.274 98.179V109.281H521.876V98.5881C521.876 97.3078 521.546 96.3153 520.887 95.6108C520.228 94.8987 519.312 94.5426 518.137 94.5426C517.334 94.5426 516.615 94.7131 515.978 95.054C515.35 95.3949 514.853 95.8949 514.49 96.554C514.134 97.2055 513.956 97.9934 513.956 98.9176ZM528.88 109.281V91.8267H532.278V109.281H528.88ZM530.596 89.1335C530.005 89.1335 529.497 88.9366 529.073 88.5426C528.656 88.1411 528.448 87.6638 528.448 87.1108C528.448 86.5502 528.656 86.0729 529.073 85.679C529.497 85.2775 530.005 85.0767 530.596 85.0767C531.187 85.0767 531.69 85.2775 532.107 85.679C532.531 86.0729 532.743 86.5502 532.743 87.1108C532.743 87.6638 532.531 88.1411 532.107 88.5426C531.69 88.9366 531.187 89.1335 530.596 89.1335ZM549 96.0881L545.921 96.6335C545.792 96.2396 545.587 95.8646 545.307 95.5085C545.034 95.1525 544.663 94.8608 544.193 94.6335C543.724 94.4062 543.137 94.2926 542.432 94.2926C541.47 94.2926 540.667 94.5085 540.023 94.9403C539.379 95.3646 539.057 95.9138 539.057 96.5881C539.057 97.1714 539.273 97.6411 539.705 97.9972C540.137 98.3532 540.833 98.6449 541.796 98.8722L544.568 99.5085C546.174 99.8797 547.371 100.452 548.159 101.224C548.947 101.997 549.341 103.001 549.341 104.236C549.341 105.281 549.038 106.213 548.432 107.031C547.833 107.842 546.996 108.478 545.921 108.94C544.852 109.402 543.614 109.634 542.205 109.634C540.25 109.634 538.655 109.217 537.421 108.384C536.186 107.543 535.428 106.349 535.148 104.804L538.432 104.304C538.637 105.16 539.057 105.808 539.693 106.247C540.33 106.679 541.159 106.895 542.182 106.895C543.296 106.895 544.186 106.664 544.852 106.202C545.519 105.732 545.852 105.16 545.852 104.486C545.852 103.94 545.648 103.482 545.239 103.111C544.837 102.74 544.22 102.459 543.387 102.27L540.432 101.622C538.803 101.251 537.599 100.66 536.818 99.8494C536.046 99.0388 535.659 98.0123 535.659 96.7699C535.659 95.7396 535.947 94.8381 536.523 94.0653C537.099 93.2926 537.894 92.6903 538.909 92.2585C539.924 91.8191 541.087 91.5994 542.398 91.5994C544.284 91.5994 545.769 92.0085 546.852 92.8267C547.936 93.6373 548.652 94.7244 549 96.0881ZM563.087 86.0085V109.281H559.69V86.0085H563.087ZM574.253 109.634C572.533 109.634 571.052 109.266 569.81 108.531C568.575 107.789 567.621 106.747 566.946 105.406C566.28 104.058 565.946 102.478 565.946 100.668C565.946 98.8797 566.28 97.304 566.946 95.9403C567.621 94.5767 568.56 93.5123 569.764 92.7472C570.977 91.982 572.393 91.5994 574.014 91.5994C574.999 91.5994 575.954 91.7623 576.878 92.0881C577.802 92.4138 578.632 92.9252 579.367 93.6222C580.102 94.3191 580.681 95.2244 581.105 96.3381C581.53 97.4441 581.742 98.7888 581.742 100.372V101.577H567.867V99.0312H578.412C578.412 98.1373 578.23 97.3456 577.867 96.6562C577.503 95.9593 576.992 95.41 576.333 95.0085C575.681 94.607 574.916 94.4062 574.037 94.4062C573.083 94.4062 572.249 94.6411 571.537 95.1108C570.833 95.5729 570.287 96.179 569.901 96.929C569.522 97.6714 569.333 98.4782 569.333 99.3494V101.338C569.333 102.505 569.537 103.497 569.946 104.315C570.363 105.134 570.942 105.759 571.685 106.19C572.427 106.615 573.295 106.827 574.287 106.827C574.931 106.827 575.518 106.736 576.049 106.554C576.579 106.365 577.037 106.084 577.424 105.713C577.81 105.342 578.105 104.884 578.31 104.338L581.526 104.918C581.268 105.865 580.806 106.694 580.139 107.406C579.48 108.111 578.651 108.66 577.651 109.054C576.658 109.44 575.526 109.634 574.253 109.634ZM589.663 109.668C588.557 109.668 587.557 109.463 586.663 109.054C585.769 108.637 585.061 108.035 584.538 107.247C584.023 106.459 583.765 105.493 583.765 104.349C583.765 103.365 583.955 102.554 584.334 101.918C584.712 101.281 585.224 100.777 585.868 100.406C586.512 100.035 587.231 99.7547 588.027 99.5653C588.822 99.3759 589.633 99.232 590.459 99.1335C591.504 99.0123 592.353 98.9138 593.004 98.8381C593.656 98.7547 594.129 98.6222 594.424 98.4403C594.72 98.2585 594.868 97.9631 594.868 97.554V97.4744C594.868 96.482 594.587 95.7131 594.027 95.1676C593.474 94.6222 592.648 94.3494 591.549 94.3494C590.406 94.3494 589.504 94.6032 588.845 95.1108C588.193 95.6108 587.743 96.1676 587.493 96.7812L584.299 96.054C584.678 94.9934 585.231 94.1373 585.959 93.4858C586.693 92.8267 587.538 92.3494 588.493 92.054C589.447 91.7509 590.451 91.5994 591.504 91.5994C592.201 91.5994 592.94 91.6828 593.72 91.8494C594.508 92.0085 595.243 92.304 595.924 92.7358C596.614 93.1676 597.178 93.785 597.618 94.5881C598.057 95.3835 598.277 96.4176 598.277 97.6903V109.281H594.959V106.895H594.822C594.603 107.334 594.273 107.766 593.834 108.19C593.394 108.615 592.83 108.967 592.14 109.247C591.451 109.527 590.625 109.668 589.663 109.668ZM590.402 106.94C591.341 106.94 592.144 106.755 592.811 106.384C593.485 106.012 593.996 105.527 594.345 104.929C594.701 104.323 594.879 103.675 594.879 102.986V100.736C594.758 100.857 594.523 100.971 594.174 101.077C593.834 101.175 593.443 101.262 593.004 101.338C592.565 101.406 592.137 101.471 591.72 101.531C591.303 101.584 590.955 101.63 590.674 101.668C590.015 101.751 589.413 101.891 588.868 102.088C588.33 102.285 587.898 102.569 587.572 102.94C587.254 103.304 587.095 103.789 587.095 104.395C587.095 105.236 587.406 105.872 588.027 106.304C588.648 106.728 589.44 106.94 590.402 106.94ZM608.408 109.622C606.999 109.622 605.742 109.262 604.636 108.543C603.537 107.815 602.674 106.781 602.045 105.44C601.424 104.092 601.113 102.474 601.113 100.588C601.113 98.7017 601.427 97.0881 602.056 95.7472C602.693 94.4062 603.564 93.3797 604.67 92.6676C605.776 91.9555 607.03 91.5994 608.431 91.5994C609.514 91.5994 610.386 91.7812 611.045 92.1449C611.711 92.5009 612.227 92.9176 612.59 93.3949C612.961 93.8722 613.249 94.2926 613.454 94.6562H613.658V86.0085H617.056V109.281H613.738V106.565H613.454C613.249 106.937 612.954 107.361 612.568 107.838C612.189 108.315 611.666 108.732 610.999 109.088C610.333 109.444 609.469 109.622 608.408 109.622ZM609.158 106.724C610.136 106.724 610.961 106.467 611.636 105.952C612.318 105.429 612.833 104.705 613.181 103.781C613.537 102.857 613.715 101.781 613.715 100.554C613.715 99.3419 613.541 98.2812 613.193 97.3722C612.844 96.4631 612.333 95.7547 611.658 95.2472C610.984 94.7396 610.151 94.4858 609.158 94.4858C608.136 94.4858 607.283 94.7509 606.602 95.2812C605.92 95.8116 605.405 96.535 605.056 97.4517C604.715 98.3684 604.545 99.4025 604.545 100.554C604.545 101.721 604.719 102.77 605.068 103.702C605.416 104.634 605.931 105.372 606.613 105.918C607.302 106.455 608.151 106.724 609.158 106.724ZM634.057 96.0881L630.978 96.6335C630.849 96.2396 630.644 95.8646 630.364 95.5085C630.091 95.1525 629.72 94.8608 629.25 94.6335C628.781 94.4062 628.193 94.2926 627.489 94.2926C626.527 94.2926 625.724 94.5085 625.08 94.9403C624.436 95.3646 624.114 95.9138 624.114 96.5881C624.114 97.1714 624.33 97.6411 624.762 97.9972C625.193 98.3532 625.89 98.6449 626.853 98.8722L629.625 99.5085C631.231 99.8797 632.428 100.452 633.216 101.224C634.004 101.997 634.398 103.001 634.398 104.236C634.398 105.281 634.095 106.213 633.489 107.031C632.89 107.842 632.053 108.478 630.978 108.94C629.909 109.402 628.671 109.634 627.262 109.634C625.307 109.634 623.712 109.217 622.478 108.384C621.243 107.543 620.485 106.349 620.205 104.804L623.489 104.304C623.693 105.16 624.114 105.808 624.75 106.247C625.387 106.679 626.216 106.895 627.239 106.895C628.353 106.895 629.243 106.664 629.909 106.202C630.576 105.732 630.909 105.16 630.909 104.486C630.909 103.94 630.705 103.482 630.296 103.111C629.894 102.74 629.277 102.459 628.443 102.27L625.489 101.622C623.86 101.251 622.656 100.66 621.875 99.8494C621.103 99.0388 620.716 98.0123 620.716 96.7699C620.716 95.7396 621.004 94.8381 621.58 94.0653C622.156 93.2926 622.951 92.6903 623.966 92.2585C624.981 91.8191 626.144 91.5994 627.455 91.5994C629.341 91.5994 630.826 92.0085 631.909 92.8267C632.993 93.6373 633.709 94.7244 634.057 96.0881ZM652.894 91.8267V94.554H643.36V91.8267H652.894ZM645.917 87.6449H649.315V104.156C649.315 104.815 649.413 105.312 649.61 105.645C649.807 105.971 650.061 106.194 650.372 106.315C650.69 106.429 651.034 106.486 651.406 106.486C651.678 106.486 651.917 106.467 652.122 106.429C652.326 106.391 652.485 106.361 652.599 106.338L653.213 109.145C653.016 109.221 652.735 109.296 652.372 109.372C652.008 109.455 651.553 109.501 651.008 109.509C650.114 109.524 649.281 109.365 648.508 109.031C647.735 108.698 647.11 108.183 646.633 107.486C646.156 106.789 645.917 105.914 645.917 104.861V87.6449ZM662.89 109.634C661.253 109.634 659.825 109.259 658.606 108.509C657.386 107.759 656.439 106.709 655.765 105.361C655.09 104.012 654.753 102.437 654.753 100.634C654.753 98.8229 655.09 97.2396 655.765 95.8835C656.439 94.5275 657.386 93.4744 658.606 92.7244C659.825 91.9744 661.253 91.5994 662.89 91.5994C664.526 91.5994 665.954 91.9744 667.174 92.7244C668.393 93.4744 669.34 94.5275 670.015 95.8835C670.689 97.2396 671.026 98.8229 671.026 100.634C671.026 102.437 670.689 104.012 670.015 105.361C669.34 106.709 668.393 107.759 667.174 108.509C665.954 109.259 664.526 109.634 662.89 109.634ZM662.901 106.781C663.962 106.781 664.84 106.501 665.537 105.94C666.234 105.38 666.749 104.634 667.083 103.702C667.424 102.77 667.594 101.743 667.594 100.622C667.594 99.5085 667.424 98.4858 667.083 97.554C666.749 96.6146 666.234 95.8608 665.537 95.2926C664.84 94.7244 663.962 94.4403 662.901 94.4403C661.833 94.4403 660.946 94.7244 660.242 95.2926C659.545 95.8608 659.026 96.6146 658.685 97.554C658.352 98.4858 658.185 99.5085 658.185 100.622C658.185 101.743 658.352 102.77 658.685 103.702C659.026 104.634 659.545 105.38 660.242 105.94C660.946 106.501 661.833 106.781 662.901 106.781ZM681.704 109.281V86.0085H685.102V94.6562H685.306C685.503 94.2926 685.787 93.8722 686.159 93.3949C686.53 92.9176 687.045 92.5009 687.704 92.1449C688.363 91.7812 689.234 91.5994 690.318 91.5994C691.727 91.5994 692.984 91.9555 694.09 92.6676C695.196 93.3797 696.064 94.4062 696.693 95.7472C697.329 97.0881 697.647 98.7017 697.647 100.588C697.647 102.474 697.333 104.092 696.704 105.44C696.075 106.781 695.212 107.815 694.113 108.543C693.015 109.262 691.761 109.622 690.352 109.622C689.291 109.622 688.424 109.444 687.749 109.088C687.083 108.732 686.56 108.315 686.181 107.838C685.803 107.361 685.511 106.937 685.306 106.565H685.022V109.281H681.704ZM685.034 100.554C685.034 101.781 685.212 102.857 685.568 103.781C685.924 104.705 686.439 105.429 687.113 105.952C687.787 106.467 688.613 106.724 689.59 106.724C690.606 106.724 691.454 106.455 692.136 105.918C692.818 105.372 693.333 104.634 693.681 103.702C694.037 102.77 694.215 101.721 694.215 100.554C694.215 99.4025 694.041 98.3684 693.693 97.4517C693.352 96.535 692.837 95.8116 692.147 95.2812C691.465 94.7509 690.613 94.4858 689.59 94.4858C688.606 94.4858 687.772 94.7396 687.09 95.2472C686.416 95.7547 685.905 96.4631 685.556 97.3722C685.208 98.2812 685.034 99.3419 685.034 100.554ZM700.535 109.281V91.8267H703.932V109.281H700.535ZM702.25 89.1335C701.66 89.1335 701.152 88.9366 700.728 88.5426C700.311 88.1411 700.103 87.6638 700.103 87.1108C700.103 86.5502 700.311 86.0729 700.728 85.679C701.152 85.2775 701.66 85.0767 702.25 85.0767C702.841 85.0767 703.345 85.2775 703.762 85.679C704.186 86.0729 704.398 86.5502 704.398 87.1108C704.398 87.6638 704.186 88.1411 703.762 88.5426C703.345 88.9366 702.841 89.1335 702.25 89.1335ZM714.894 116.19C713.507 116.19 712.314 116.009 711.314 115.645C710.322 115.281 709.511 114.8 708.882 114.202C708.253 113.603 707.784 112.948 707.473 112.236L710.394 111.031C710.598 111.365 710.871 111.717 711.212 112.088C711.56 112.467 712.03 112.789 712.621 113.054C713.219 113.319 713.988 113.452 714.928 113.452C716.216 113.452 717.28 113.137 718.121 112.509C718.962 111.887 719.382 110.895 719.382 109.531V106.099H719.166C718.962 106.471 718.666 106.884 718.28 107.338C717.901 107.793 717.378 108.187 716.712 108.52C716.045 108.853 715.178 109.02 714.109 109.02C712.731 109.02 711.488 108.698 710.382 108.054C709.284 107.402 708.412 106.444 707.769 105.179C707.132 103.906 706.814 102.342 706.814 100.486C706.814 98.6297 707.128 97.0388 707.757 95.7131C708.394 94.3873 709.265 93.3722 710.371 92.6676C711.477 91.9555 712.731 91.5994 714.132 91.5994C715.216 91.5994 716.091 91.7812 716.757 92.1449C717.424 92.5009 717.943 92.9176 718.314 93.3949C718.693 93.8722 718.984 94.2926 719.189 94.6562H719.439V91.8267H722.769V109.668C722.769 111.168 722.42 112.399 721.723 113.361C721.026 114.323 720.083 115.035 718.894 115.497C717.712 115.959 716.378 116.19 714.894 116.19ZM714.859 106.202C715.837 106.202 716.662 105.974 717.337 105.52C718.019 105.058 718.534 104.399 718.882 103.543C719.238 102.679 719.416 101.645 719.416 100.44C719.416 99.2661 719.242 98.232 718.894 97.3381C718.545 96.4441 718.034 95.7472 717.359 95.2472C716.685 94.7396 715.852 94.4858 714.859 94.4858C713.837 94.4858 712.984 94.7509 712.303 95.2812C711.621 95.804 711.106 96.5161 710.757 97.4176C710.416 98.3191 710.246 99.3267 710.246 100.44C710.246 101.584 710.42 102.588 710.769 103.452C711.117 104.315 711.632 104.99 712.314 105.474C713.003 105.959 713.852 106.202 714.859 106.202ZM375.512 163.827V139.827H378.83V142.656H379.114C379.311 142.293 379.595 141.872 379.966 141.395C380.337 140.918 380.853 140.501 381.512 140.145C382.171 139.781 383.042 139.599 384.125 139.599C385.534 139.599 386.792 139.955 387.898 140.668C389.004 141.38 389.872 142.406 390.5 143.747C391.137 145.088 391.455 146.702 391.455 148.588C391.455 150.474 391.141 152.092 390.512 153.44C389.883 154.781 389.019 155.815 387.921 156.543C386.822 157.262 385.569 157.622 384.159 157.622C383.099 157.622 382.231 157.444 381.557 157.088C380.891 156.732 380.368 156.315 379.989 155.838C379.61 155.361 379.319 154.937 379.114 154.565H378.909V163.827H375.512ZM378.841 148.554C378.841 149.781 379.019 150.857 379.375 151.781C379.731 152.705 380.247 153.429 380.921 153.952C381.595 154.467 382.421 154.724 383.398 154.724C384.413 154.724 385.262 154.455 385.944 153.918C386.625 153.372 387.141 152.634 387.489 151.702C387.845 150.77 388.023 149.721 388.023 148.554C388.023 147.402 387.849 146.368 387.5 145.452C387.159 144.535 386.644 143.812 385.955 143.281C385.273 142.751 384.421 142.486 383.398 142.486C382.413 142.486 381.58 142.74 380.898 143.247C380.224 143.755 379.712 144.463 379.364 145.372C379.016 146.281 378.841 147.342 378.841 148.554ZM394.334 157.281V139.827H397.618V142.599H397.8C398.118 141.66 398.678 140.921 399.481 140.384C400.292 139.838 401.209 139.565 402.231 139.565C402.444 139.565 402.694 139.573 402.981 139.588C403.277 139.603 403.508 139.622 403.675 139.645V142.895C403.538 142.857 403.296 142.815 402.947 142.77C402.599 142.717 402.25 142.69 401.902 142.69C401.099 142.69 400.383 142.861 399.754 143.202C399.133 143.535 398.641 144.001 398.277 144.599C397.913 145.19 397.731 145.865 397.731 146.622V157.281H394.334ZM412.414 157.634C410.778 157.634 409.35 157.259 408.13 156.509C406.91 155.759 405.963 154.709 405.289 153.361C404.615 152.012 404.278 150.437 404.278 148.634C404.278 146.823 404.615 145.24 405.289 143.884C405.963 142.527 406.91 141.474 408.13 140.724C409.35 139.974 410.778 139.599 412.414 139.599C414.051 139.599 415.479 139.974 416.698 140.724C417.918 141.474 418.865 142.527 419.539 143.884C420.213 145.24 420.551 146.823 420.551 148.634C420.551 150.437 420.213 152.012 419.539 153.361C418.865 154.709 417.918 155.759 416.698 156.509C415.479 157.259 414.051 157.634 412.414 157.634ZM412.426 154.781C413.486 154.781 414.365 154.501 415.062 153.94C415.759 153.38 416.274 152.634 416.607 151.702C416.948 150.77 417.119 149.743 417.119 148.622C417.119 147.509 416.948 146.486 416.607 145.554C416.274 144.615 415.759 143.861 415.062 143.293C414.365 142.724 413.486 142.44 412.426 142.44C411.357 142.44 410.471 142.724 409.767 143.293C409.07 143.861 408.551 144.615 408.21 145.554C407.876 146.486 407.71 147.509 407.71 148.622C407.71 149.743 407.876 150.77 408.21 151.702C408.551 152.634 409.07 153.38 409.767 153.94C410.471 154.501 411.357 154.781 412.426 154.781ZM423.688 157.281V134.009H427.086V142.656H427.29C427.487 142.293 427.771 141.872 428.142 141.395C428.514 140.918 429.029 140.501 429.688 140.145C430.347 139.781 431.218 139.599 432.302 139.599C433.711 139.599 434.968 139.955 436.074 140.668C437.18 141.38 438.048 142.406 438.677 143.747C439.313 145.088 439.631 146.702 439.631 148.588C439.631 150.474 439.317 152.092 438.688 153.44C438.059 154.781 437.196 155.815 436.097 156.543C434.999 157.262 433.745 157.622 432.336 157.622C431.275 157.622 430.408 157.444 429.733 157.088C429.067 156.732 428.544 156.315 428.165 155.838C427.786 155.361 427.495 154.937 427.29 154.565H427.006V157.281H423.688ZM427.017 148.554C427.017 149.781 427.196 150.857 427.552 151.781C427.908 152.705 428.423 153.429 429.097 153.952C429.771 154.467 430.597 154.724 431.574 154.724C432.589 154.724 433.438 154.455 434.12 153.918C434.802 153.372 435.317 152.634 435.665 151.702C436.021 150.77 436.199 149.721 436.199 148.554C436.199 147.402 436.025 146.368 435.677 145.452C435.336 144.535 434.821 143.812 434.131 143.281C433.449 142.751 432.597 142.486 431.574 142.486C430.589 142.486 429.756 142.74 429.074 143.247C428.4 143.755 427.889 144.463 427.54 145.372C427.192 146.281 427.017 147.342 427.017 148.554ZM445.916 134.009V157.281H442.518V134.009H445.916ZM457.082 157.634C455.362 157.634 453.881 157.266 452.639 156.531C451.404 155.789 450.449 154.747 449.775 153.406C449.108 152.058 448.775 150.478 448.775 148.668C448.775 146.88 449.108 145.304 449.775 143.94C450.449 142.577 451.389 141.512 452.593 140.747C453.805 139.982 455.222 139.599 456.843 139.599C457.828 139.599 458.783 139.762 459.707 140.088C460.631 140.414 461.461 140.925 462.196 141.622C462.93 142.319 463.51 143.224 463.934 144.338C464.358 145.444 464.571 146.789 464.571 148.372V149.577H450.696V147.031H461.241C461.241 146.137 461.059 145.346 460.696 144.656C460.332 143.959 459.821 143.41 459.162 143.009C458.51 142.607 457.745 142.406 456.866 142.406C455.912 142.406 455.078 142.641 454.366 143.111C453.662 143.573 453.116 144.179 452.73 144.929C452.351 145.671 452.162 146.478 452.162 147.349V149.338C452.162 150.505 452.366 151.497 452.775 152.315C453.192 153.134 453.771 153.759 454.514 154.19C455.256 154.615 456.124 154.827 457.116 154.827C457.76 154.827 458.347 154.736 458.877 154.554C459.408 154.365 459.866 154.084 460.252 153.713C460.639 153.342 460.934 152.884 461.139 152.338L464.355 152.918C464.097 153.865 463.635 154.694 462.968 155.406C462.309 156.111 461.48 156.66 460.48 157.054C459.487 157.44 458.355 157.634 457.082 157.634ZM467.412 157.281V139.827H470.674V142.668H470.89C471.253 141.705 471.848 140.955 472.674 140.418C473.5 139.872 474.488 139.599 475.64 139.599C476.806 139.599 477.784 139.872 478.572 140.418C479.367 140.963 479.954 141.713 480.333 142.668H480.515C480.931 141.736 481.594 140.993 482.503 140.44C483.412 139.88 484.496 139.599 485.753 139.599C487.337 139.599 488.628 140.096 489.628 141.088C490.636 142.08 491.14 143.577 491.14 145.577V157.281H487.742V145.895C487.742 144.713 487.42 143.857 486.776 143.327C486.132 142.796 485.363 142.531 484.469 142.531C483.363 142.531 482.503 142.872 481.89 143.554C481.276 144.228 480.969 145.096 480.969 146.156V157.281H477.583V145.679C477.583 144.732 477.287 143.971 476.697 143.395C476.106 142.819 475.337 142.531 474.39 142.531C473.746 142.531 473.151 142.702 472.606 143.043C472.068 143.376 471.632 143.842 471.299 144.44C470.973 145.039 470.81 145.732 470.81 146.52V157.281H467.412ZM507.845 144.088L504.766 144.634C504.637 144.24 504.432 143.865 504.152 143.509C503.879 143.152 503.508 142.861 503.038 142.634C502.569 142.406 501.982 142.293 501.277 142.293C500.315 142.293 499.512 142.509 498.868 142.94C498.224 143.365 497.902 143.914 497.902 144.588C497.902 145.171 498.118 145.641 498.55 145.997C498.982 146.353 499.679 146.645 500.641 146.872L503.413 147.509C505.02 147.88 506.216 148.452 507.004 149.224C507.792 149.997 508.186 151.001 508.186 152.236C508.186 153.281 507.883 154.213 507.277 155.031C506.679 155.842 505.841 156.478 504.766 156.94C503.698 157.402 502.459 157.634 501.05 157.634C499.095 157.634 497.501 157.217 496.266 156.384C495.031 155.543 494.273 154.349 493.993 152.804L497.277 152.304C497.482 153.16 497.902 153.808 498.538 154.247C499.175 154.679 500.004 154.895 501.027 154.895C502.141 154.895 503.031 154.664 503.698 154.202C504.364 153.732 504.698 153.16 504.698 152.486C504.698 151.94 504.493 151.482 504.084 151.111C503.682 150.74 503.065 150.459 502.232 150.27L499.277 149.622C497.648 149.251 496.444 148.66 495.663 147.849C494.891 147.039 494.504 146.012 494.504 144.77C494.504 143.74 494.792 142.838 495.368 142.065C495.944 141.293 496.739 140.69 497.754 140.259C498.77 139.819 499.932 139.599 501.243 139.599C503.129 139.599 504.614 140.009 505.698 140.827C506.781 141.637 507.497 142.724 507.845 144.088ZM513.233 157.497C512.611 157.497 512.077 157.277 511.63 156.838C511.183 156.391 510.96 155.853 510.96 155.224C510.96 154.603 511.183 154.073 511.63 153.634C512.077 153.187 512.611 152.963 513.233 152.963C513.854 152.963 514.388 153.187 514.835 153.634C515.282 154.073 515.505 154.603 515.505 155.224C515.505 155.641 515.399 156.024 515.187 156.372C514.983 156.713 514.71 156.986 514.369 157.19C514.028 157.395 513.649 157.497 513.233 157.497Z" fill="white"/>
</g>
</g>
</svg>
