<svg width="891" height="206" viewBox="0 0 891 206" fill="none" xmlns="http://www.w3.org/2000/svg">
<g id="WitnessFire">
<g id="Frame 13">
<rect width="891" height="206" rx="33" fill="#5353B1"/>
<path id="You witness an wildfire! What are you gonna do?" d="M131.804 62.8182H137.16L143.565 74.4006H143.821L150.225 62.8182H155.582L146.058 79.233V89H141.328V79.233L131.804 62.8182ZM162.853 89.3835C160.936 89.3835 159.274 88.9616 157.868 88.1179C156.461 87.2741 155.371 86.0937 154.595 84.5767C153.828 83.0597 153.444 81.2869 153.444 79.2585C153.444 77.2301 153.828 75.4531 154.595 73.9276C155.371 72.402 156.461 71.2173 157.868 70.3736C159.274 69.5298 160.936 69.108 162.853 69.108C164.771 69.108 166.433 69.5298 167.839 70.3736C169.246 71.2173 170.332 72.402 171.099 73.9276C171.875 75.4531 172.263 77.2301 172.263 79.2585C172.263 81.2869 171.875 83.0597 171.099 84.5767C170.332 86.0937 169.246 87.2741 167.839 88.1179C166.433 88.9616 164.771 89.3835 162.853 89.3835ZM162.879 85.6761C163.919 85.6761 164.788 85.3906 165.487 84.8196C166.186 84.2401 166.706 83.4645 167.047 82.4929C167.396 81.5213 167.571 80.4389 167.571 79.2457C167.571 78.044 167.396 76.9574 167.047 75.9858C166.706 75.0057 166.186 74.2259 165.487 73.6463C164.788 73.0668 163.919 72.777 162.879 72.777C161.814 72.777 160.927 73.0668 160.22 73.6463C159.521 74.2259 158.997 75.0057 158.648 75.9858C158.307 76.9574 158.136 78.044 158.136 79.2457C158.136 80.4389 158.307 81.5213 158.648 82.4929C158.997 83.4645 159.521 84.2401 160.22 84.8196C160.927 85.3906 161.814 85.6761 162.879 85.6761ZM187.914 80.7415V69.3636H192.542V89H188.055V85.5099H187.85C187.407 86.6094 186.678 87.5085 185.664 88.2074C184.658 88.9062 183.418 89.2557 181.944 89.2557C180.657 89.2557 179.519 88.9702 178.531 88.3991C177.55 87.8196 176.783 86.9801 176.229 85.8807C175.675 84.7727 175.398 83.4347 175.398 81.8665V69.3636H180.026V81.1506C180.026 82.3949 180.367 83.3835 181.049 84.1165C181.731 84.8494 182.626 85.2159 183.734 85.2159C184.416 85.2159 185.076 85.0497 185.715 84.7173C186.354 84.3849 186.879 83.8906 187.288 83.2344C187.705 82.5696 187.914 81.7386 187.914 80.7415ZM208.699 89L203.151 69.3636H207.868L211.32 83.1705H211.499L215.027 69.3636H219.693L223.222 83.0938H223.414L226.814 69.3636H231.544L225.983 89H221.164L217.482 75.7301H217.213L213.531 89H208.699ZM233.983 89V69.3636H238.611V89H233.983ZM236.31 66.5767C235.577 66.5767 234.946 66.3338 234.418 65.848C233.89 65.3537 233.625 64.7614 233.625 64.071C233.625 63.3722 233.89 62.7798 234.418 62.294C234.946 61.7997 235.577 61.5526 236.31 61.5526C237.052 61.5526 237.682 61.7997 238.202 62.294C238.731 62.7798 238.995 63.3722 238.995 64.071C238.995 64.7614 238.731 65.3537 238.202 65.848C237.682 66.3338 237.052 66.5767 236.31 66.5767ZM252.384 69.3636V72.9432H241.095V69.3636H252.384ZM243.882 64.6591H248.51V83.0938C248.51 83.7159 248.604 84.1932 248.791 84.5256C248.987 84.8494 249.243 85.071 249.558 85.1903C249.874 85.3097 250.223 85.3693 250.607 85.3693C250.896 85.3693 251.161 85.348 251.399 85.3054C251.646 85.2628 251.834 85.2244 251.962 85.1903L252.741 88.8082C252.494 88.8935 252.141 88.9872 251.68 89.0895C251.229 89.1918 250.675 89.2514 250.018 89.2685C248.859 89.3026 247.815 89.1278 246.886 88.7443C245.957 88.3523 245.22 87.7472 244.675 86.929C244.138 86.1108 243.874 85.0881 243.882 83.8608V64.6591ZM260.09 77.4943V89H255.462V69.3636H259.885V72.7003H260.115C260.567 71.6009 261.287 70.7273 262.276 70.0795C263.273 69.4318 264.505 69.108 265.97 69.108C267.326 69.108 268.506 69.3977 269.512 69.9773C270.526 70.5568 271.31 71.3963 271.864 72.4957C272.426 73.5952 272.703 74.929 272.695 76.4972V89H268.067V77.2131C268.067 75.9006 267.726 74.8736 267.044 74.1321C266.371 73.3906 265.438 73.0199 264.245 73.0199C263.435 73.0199 262.715 73.1989 262.084 73.5568C261.462 73.9062 260.972 74.4134 260.614 75.0781C260.264 75.7429 260.09 76.5483 260.09 77.4943ZM285.301 89.3835C283.332 89.3835 281.632 88.9744 280.2 88.1562C278.776 87.3295 277.681 86.1619 276.914 84.6534C276.147 83.1364 275.764 81.3509 275.764 79.2969C275.764 77.277 276.147 75.5043 276.914 73.9787C277.69 72.4446 278.772 71.2514 280.161 70.3991C281.551 69.5384 283.183 69.108 285.058 69.108C286.268 69.108 287.41 69.304 288.484 69.696C289.566 70.0795 290.521 70.6761 291.347 71.4858C292.183 72.2955 292.839 73.3267 293.316 74.5795C293.794 75.8239 294.032 77.3068 294.032 79.0284V80.4474H277.937V77.3281H289.596C289.588 76.4418 289.396 75.6534 289.021 74.9631C288.646 74.2642 288.122 73.7145 287.448 73.3139C286.784 72.9134 286.008 72.7131 285.122 72.7131C284.176 72.7131 283.345 72.9432 282.629 73.4034C281.913 73.8551 281.355 74.4517 280.954 75.1932C280.562 75.9261 280.362 76.7315 280.353 77.6094V80.3324C280.353 81.4744 280.562 82.4545 280.98 83.2727C281.397 84.0824 281.981 84.7045 282.731 85.1392C283.481 85.5653 284.359 85.7784 285.365 85.7784C286.038 85.7784 286.647 85.6847 287.193 85.4972C287.738 85.3011 288.211 85.0156 288.612 84.6406C289.012 84.2656 289.315 83.8011 289.519 83.2472L293.84 83.733C293.568 84.875 293.048 85.8722 292.281 86.7244C291.522 87.5682 290.551 88.2244 289.366 88.6932C288.181 89.1534 286.826 89.3835 285.301 89.3835ZM312.675 74.554L308.456 75.0142C308.337 74.5881 308.128 74.1875 307.83 73.8125C307.54 73.4375 307.148 73.1349 306.654 72.9048C306.16 72.6747 305.554 72.5597 304.838 72.5597C303.875 72.5597 303.066 72.7685 302.41 73.1861C301.762 73.6037 301.442 74.1449 301.451 74.8097C301.442 75.3807 301.651 75.8452 302.077 76.2031C302.512 76.5611 303.228 76.8551 304.225 77.0852L307.574 77.8011C309.432 78.2017 310.813 78.8366 311.716 79.706C312.628 80.5753 313.089 81.7131 313.097 83.1193C313.089 84.3551 312.726 85.446 312.01 86.392C311.303 87.3295 310.319 88.0625 309.057 88.5909C307.796 89.1193 306.347 89.3835 304.711 89.3835C302.307 89.3835 300.373 88.8807 298.907 87.875C297.441 86.8608 296.567 85.4503 296.286 83.6435L300.799 83.2088C301.003 84.0952 301.438 84.7642 302.103 85.2159C302.767 85.6676 303.633 85.8935 304.698 85.8935C305.797 85.8935 306.679 85.6676 307.344 85.2159C308.017 84.7642 308.354 84.206 308.354 83.5412C308.354 82.9787 308.137 82.5142 307.702 82.1477C307.276 81.7812 306.611 81.5 305.708 81.304L302.358 80.6009C300.475 80.2088 299.081 79.5483 298.178 78.6193C297.275 77.6818 296.827 76.4972 296.836 75.0653C296.827 73.8551 297.155 72.8068 297.82 71.9205C298.493 71.0256 299.427 70.3352 300.62 69.8494C301.821 69.3551 303.206 69.108 304.775 69.108C307.076 69.108 308.887 69.598 310.208 70.5781C311.537 71.5582 312.36 72.8835 312.675 74.554ZM331.641 74.554L327.422 75.0142C327.303 74.5881 327.094 74.1875 326.796 73.8125C326.506 73.4375 326.114 73.1349 325.62 72.9048C325.125 72.6747 324.52 72.5597 323.804 72.5597C322.841 72.5597 322.032 72.7685 321.375 73.1861C320.728 73.6037 320.408 74.1449 320.417 74.8097C320.408 75.3807 320.617 75.8452 321.043 76.2031C321.478 76.5611 322.194 76.8551 323.191 77.0852L326.54 77.8011C328.398 78.2017 329.779 78.8366 330.682 79.706C331.594 80.5753 332.054 81.7131 332.063 83.1193C332.054 84.3551 331.692 85.446 330.976 86.392C330.269 87.3295 329.284 88.0625 328.023 88.5909C326.762 89.1193 325.313 89.3835 323.676 89.3835C321.273 89.3835 319.338 88.8807 317.873 87.875C316.407 86.8608 315.533 85.4503 315.252 83.6435L319.765 83.2088C319.969 84.0952 320.404 84.7642 321.069 85.2159C321.733 85.6676 322.598 85.8935 323.664 85.8935C324.763 85.8935 325.645 85.6676 326.31 85.2159C326.983 84.7642 327.32 84.206 327.32 83.5412C327.32 82.9787 327.103 82.5142 326.668 82.1477C326.242 81.7812 325.577 81.5 324.674 81.304L321.324 80.6009C319.441 80.2088 318.047 79.5483 317.144 78.6193C316.24 77.6818 315.793 76.4972 315.801 75.0653C315.793 73.8551 316.121 72.8068 316.786 71.9205C317.459 71.0256 318.392 70.3352 319.586 69.8494C320.787 69.3551 322.172 69.108 323.74 69.108C326.042 69.108 327.853 69.598 329.174 70.5781C330.503 71.5582 331.326 72.8835 331.641 74.554ZM348.875 89.3963C347.631 89.3963 346.51 89.1747 345.513 88.7315C344.524 88.2798 343.74 87.6151 343.161 86.7372C342.59 85.8594 342.304 84.777 342.304 83.4901C342.304 82.3821 342.509 81.4659 342.918 80.7415C343.327 80.017 343.885 79.4375 344.592 79.0028C345.3 78.5682 346.097 78.2401 346.983 78.0185C347.878 77.7884 348.803 77.6222 349.757 77.5199C350.908 77.4006 351.841 77.294 352.557 77.2003C353.273 77.098 353.793 76.9446 354.117 76.7401C354.449 76.527 354.615 76.1989 354.615 75.7557V75.679C354.615 74.7159 354.33 73.9702 353.759 73.4418C353.188 72.9134 352.365 72.6491 351.291 72.6491C350.158 72.6491 349.259 72.8963 348.594 73.3906C347.938 73.8849 347.494 74.4687 347.264 75.142L342.943 74.5284C343.284 73.3352 343.847 72.3381 344.631 71.5369C345.415 70.7273 346.374 70.1222 347.507 69.7216C348.641 69.3125 349.894 69.108 351.266 69.108C352.212 69.108 353.154 69.2188 354.091 69.4403C355.029 69.6619 355.885 70.0284 356.661 70.5398C357.436 71.0426 358.058 71.7287 358.527 72.598C359.004 73.4673 359.243 74.554 359.243 75.858V89H354.794V86.3026H354.641C354.36 86.848 353.963 87.3594 353.452 87.8366C352.949 88.3054 352.314 88.6847 351.547 88.9744C350.789 89.2557 349.898 89.3963 348.875 89.3963ZM350.077 85.9957C351.006 85.9957 351.811 85.8125 352.493 85.446C353.175 85.071 353.699 84.5767 354.065 83.9631C354.44 83.3494 354.628 82.6804 354.628 81.956V79.642C354.483 79.7614 354.236 79.8722 353.887 79.9744C353.546 80.0767 353.162 80.1662 352.736 80.2429C352.31 80.3196 351.888 80.3878 351.47 80.4474C351.053 80.5071 350.69 80.5582 350.384 80.6009C349.693 80.6946 349.075 80.848 348.53 81.0611C347.985 81.2741 347.554 81.5724 347.239 81.956C346.923 82.331 346.766 82.8168 346.766 83.4134C346.766 84.2656 347.077 84.9091 347.699 85.3438C348.321 85.7784 349.114 85.9957 350.077 85.9957ZM367.732 77.4943V89H363.104V69.3636H367.528V72.7003H367.758C368.21 71.6009 368.93 70.7273 369.918 70.0795C370.916 69.4318 372.147 69.108 373.613 69.108C374.968 69.108 376.148 69.3977 377.154 69.9773C378.168 70.5568 378.952 71.3963 379.506 72.4957C380.069 73.5952 380.346 74.929 380.337 76.4972V89H375.71V77.2131C375.71 75.9006 375.369 74.8736 374.687 74.1321C374.014 73.3906 373.08 73.0199 371.887 73.0199C371.077 73.0199 370.357 73.1989 369.727 73.5568C369.104 73.9062 368.614 74.4134 368.256 75.0781C367.907 75.7429 367.732 76.5483 367.732 77.4943ZM396.44 89L390.892 69.3636H395.609L399.061 83.1705H399.24L402.768 69.3636H407.435L410.963 83.0938H411.155L414.555 69.3636H419.285L413.724 89H408.905L405.223 75.7301H404.954L401.273 89H396.44ZM421.725 89V69.3636H426.352V89H421.725ZM424.051 66.5767C423.318 66.5767 422.688 66.3338 422.159 65.848C421.631 65.3537 421.367 64.7614 421.367 64.071C421.367 63.3722 421.631 62.7798 422.159 62.294C422.688 61.7997 423.318 61.5526 424.051 61.5526C424.793 61.5526 425.423 61.7997 425.943 62.294C426.472 62.7798 426.736 63.3722 426.736 64.071C426.736 64.7614 426.472 65.3537 425.943 65.848C425.423 66.3338 424.793 66.5767 424.051 66.5767ZM434.947 62.8182V89H430.319V62.8182H434.947ZM446.201 89.3452C444.658 89.3452 443.278 88.9489 442.059 88.1562C440.84 87.3636 439.877 86.2131 439.17 84.7045C438.462 83.196 438.109 81.3636 438.109 79.2074C438.109 77.0256 438.467 75.1847 439.182 73.6847C439.907 72.1761 440.883 71.0384 442.11 70.2713C443.337 69.4957 444.705 69.108 446.214 69.108C447.364 69.108 448.31 69.304 449.052 69.696C449.793 70.0795 450.381 70.544 450.816 71.0895C451.251 71.6264 451.587 72.1335 451.826 72.6108H452.018V62.8182H456.658V89H452.107V85.9062H451.826C451.587 86.3835 451.242 86.8906 450.79 87.4276C450.339 87.956 449.742 88.4077 449.001 88.7827C448.259 89.1577 447.326 89.3452 446.201 89.3452ZM447.492 85.5483C448.472 85.5483 449.307 85.2841 449.998 84.7557C450.688 84.2187 451.212 83.473 451.57 82.5185C451.928 81.5639 452.107 80.4517 452.107 79.1818C452.107 77.9119 451.928 76.8082 451.57 75.8707C451.221 74.9332 450.701 74.2045 450.011 73.6847C449.329 73.1648 448.489 72.9048 447.492 72.9048C446.461 72.9048 445.6 73.1733 444.91 73.7102C444.219 74.2472 443.699 74.9886 443.35 75.9347C443.001 76.8807 442.826 77.9631 442.826 79.1818C442.826 80.4091 443.001 81.5043 443.35 82.4673C443.708 83.4219 444.232 84.1761 444.922 84.7301C445.621 85.2756 446.478 85.5483 447.492 85.5483ZM470.744 69.3636V72.9432H459.136V69.3636H470.744ZM462.038 89V67.5099C462.038 66.1889 462.311 65.0895 462.856 64.2116C463.41 63.3338 464.151 62.6776 465.08 62.2429C466.009 61.8082 467.041 61.5909 468.174 61.5909C468.975 61.5909 469.687 61.6548 470.309 61.7827C470.931 61.9105 471.392 62.0256 471.69 62.1278L470.769 65.7074C470.573 65.6477 470.326 65.5881 470.028 65.5284C469.73 65.4602 469.397 65.4261 469.031 65.4261C468.17 65.4261 467.561 65.6349 467.203 66.0526C466.853 66.4616 466.678 67.0497 466.678 67.8168V89H462.038ZM473.576 89V69.3636H478.204V89H473.576ZM475.903 66.5767C475.17 66.5767 474.539 66.3338 474.011 65.848C473.482 65.3537 473.218 64.7614 473.218 64.071C473.218 63.3722 473.482 62.7798 474.011 62.294C474.539 61.7997 475.17 61.5526 475.903 61.5526C476.644 61.5526 477.275 61.7997 477.795 62.294C478.323 62.7798 478.587 63.3722 478.587 64.071C478.587 64.7614 478.323 65.3537 477.795 65.848C477.275 66.3338 476.644 66.5767 475.903 66.5767ZM482.171 89V69.3636H486.658V72.6364H486.863C487.221 71.5028 487.834 70.6293 488.703 70.0156C489.581 69.3935 490.583 69.0824 491.708 69.0824C491.963 69.0824 492.249 69.0952 492.564 69.1207C492.888 69.1378 493.157 69.1676 493.37 69.2102V73.4673C493.174 73.3991 492.863 73.3395 492.436 73.2884C492.019 73.2287 491.614 73.1989 491.222 73.1989C490.378 73.1989 489.62 73.3821 488.946 73.7486C488.282 74.1065 487.757 74.6051 487.374 75.2443C486.99 75.8835 486.799 76.6207 486.799 77.456V89H482.171ZM503.537 89.3835C501.568 89.3835 499.868 88.9744 498.436 88.1562C497.013 87.3295 495.917 86.1619 495.15 84.6534C494.383 83.1364 494 81.3509 494 79.2969C494 77.277 494.383 75.5043 495.15 73.9787C495.926 72.4446 497.008 71.2514 498.398 70.3991C499.787 69.5384 501.419 69.108 503.294 69.108C504.504 69.108 505.646 69.304 506.72 69.696C507.802 70.0795 508.757 70.6761 509.584 71.4858C510.419 72.2955 511.075 73.3267 511.552 74.5795C512.03 75.8239 512.268 77.3068 512.268 79.0284V80.4474H496.173V77.3281H507.832C507.824 76.4418 507.632 75.6534 507.257 74.9631C506.882 74.2642 506.358 73.7145 505.685 73.3139C505.02 72.9134 504.244 72.7131 503.358 72.7131C502.412 72.7131 501.581 72.9432 500.865 73.4034C500.149 73.8551 499.591 74.4517 499.19 75.1932C498.798 75.9261 498.598 76.7315 498.589 77.6094V80.3324C498.589 81.4744 498.798 82.4545 499.216 83.2727C499.633 84.0824 500.217 84.7045 500.967 85.1392C501.717 85.5653 502.595 85.7784 503.601 85.7784C504.274 85.7784 504.883 85.6847 505.429 85.4972C505.974 85.3011 506.447 85.0156 506.848 84.6406C507.248 84.2656 507.551 83.8011 507.756 83.2472L512.077 83.733C511.804 84.875 511.284 85.8722 510.517 86.7244C509.758 87.5682 508.787 88.2244 507.602 88.6932C506.417 89.1534 505.062 89.3835 503.537 89.3835ZM521.055 62.8182L520.633 81.304H516.516L516.107 62.8182H521.055ZM518.575 89.2812C517.799 89.2812 517.134 89.0085 516.58 88.4631C516.035 87.9176 515.762 87.2528 515.762 86.4688C515.762 85.7017 516.035 85.0455 516.58 84.5C517.134 83.9545 517.799 83.6818 518.575 83.6818C519.333 83.6818 519.989 83.9545 520.543 84.5C521.106 85.0455 521.387 85.7017 521.387 86.4688C521.387 86.9886 521.255 87.4616 520.991 87.8878C520.735 88.3139 520.394 88.6548 519.968 88.9105C519.551 89.1577 519.086 89.2812 518.575 89.2812ZM547.699 89L540.31 62.8182H545.41L550.128 82.0582H550.371L555.408 62.8182H560.048L565.098 82.071H565.328L570.045 62.8182H575.146L567.757 89H563.078L557.836 70.6293H557.632L552.378 89H547.699ZM582.066 77.4943V89H577.438V62.8182H581.964V72.7003H582.194C582.654 71.5923 583.366 70.7187 584.329 70.0795C585.301 69.4318 586.536 69.108 588.036 69.108C589.4 69.108 590.589 69.3935 591.603 69.9645C592.617 70.5355 593.401 71.3707 593.955 72.4702C594.518 73.5696 594.799 74.9119 594.799 76.4972V89H590.171V77.2131C590.171 75.892 589.83 74.8651 589.149 74.1321C588.475 73.3906 587.529 73.0199 586.31 73.0199C585.492 73.0199 584.759 73.1989 584.112 73.5568C583.472 73.9062 582.97 74.4134 582.603 75.0781C582.245 75.7429 582.066 76.5483 582.066 77.4943ZM604.375 89.3963C603.131 89.3963 602.01 89.1747 601.013 88.7315C600.024 88.2798 599.24 87.6151 598.661 86.7372C598.09 85.8594 597.804 84.777 597.804 83.4901C597.804 82.3821 598.009 81.4659 598.418 80.7415C598.827 80.017 599.385 79.4375 600.092 79.0028C600.8 78.5682 601.597 78.2401 602.483 78.0185C603.378 77.7884 604.303 77.6222 605.257 77.5199C606.408 77.4006 607.341 77.294 608.057 77.2003C608.773 77.098 609.293 76.9446 609.617 76.7401C609.949 76.527 610.115 76.1989 610.115 75.7557V75.679C610.115 74.7159 609.83 73.9702 609.259 73.4418C608.688 72.9134 607.865 72.6491 606.791 72.6491C605.658 72.6491 604.759 72.8963 604.094 73.3906C603.438 73.8849 602.994 74.4687 602.764 75.142L598.443 74.5284C598.784 73.3352 599.347 72.3381 600.131 71.5369C600.915 70.7273 601.874 70.1222 603.007 69.7216C604.141 69.3125 605.393 69.108 606.766 69.108C607.712 69.108 608.653 69.2188 609.591 69.4403C610.528 69.6619 611.385 70.0284 612.161 70.5398C612.936 71.0426 613.558 71.7287 614.027 72.598C614.504 73.4673 614.743 74.554 614.743 75.858V89H610.294V86.3026H610.141C609.859 86.848 609.463 87.3594 608.952 87.8366C608.449 88.3054 607.814 88.6847 607.047 88.9744C606.288 89.2557 605.398 89.3963 604.375 89.3963ZM605.577 85.9957C606.506 85.9957 607.311 85.8125 607.993 85.446C608.675 85.071 609.199 84.5767 609.565 83.9631C609.94 83.3494 610.128 82.6804 610.128 81.956V79.642C609.983 79.7614 609.736 79.8722 609.386 79.9744C609.045 80.0767 608.662 80.1662 608.236 80.2429C607.81 80.3196 607.388 80.3878 606.97 80.4474C606.553 80.5071 606.19 80.5582 605.884 80.6009C605.193 80.6946 604.575 80.848 604.03 81.0611C603.484 81.2741 603.054 81.5724 602.739 81.956C602.423 82.331 602.266 82.8168 602.266 83.4134C602.266 84.2656 602.577 84.9091 603.199 85.3438C603.821 85.7784 604.614 85.9957 605.577 85.9957ZM628.41 69.3636V72.9432H617.121V69.3636H628.41ZM619.908 64.6591H624.536V83.0938C624.536 83.7159 624.63 84.1932 624.817 84.5256C625.013 84.8494 625.269 85.071 625.584 85.1903C625.9 85.3097 626.249 85.3693 626.633 85.3693C626.923 85.3693 627.187 85.348 627.425 85.3054C627.673 85.2628 627.86 85.2244 627.988 85.1903L628.768 88.8082C628.521 88.8935 628.167 88.9872 627.707 89.0895C627.255 89.1918 626.701 89.2514 626.045 89.2685C624.886 89.3026 623.842 89.1278 622.913 88.7443C621.984 88.3523 621.246 87.7472 620.701 86.929C620.164 86.1108 619.9 85.0881 619.908 83.8608V64.6591ZM645.276 89.3963C644.032 89.3963 642.911 89.1747 641.914 88.7315C640.925 88.2798 640.141 87.6151 639.562 86.7372C638.991 85.8594 638.705 84.777 638.705 83.4901C638.705 82.3821 638.91 81.4659 639.319 80.7415C639.728 80.017 640.286 79.4375 640.994 79.0028C641.701 78.5682 642.498 78.2401 643.384 78.0185C644.279 77.7884 645.204 77.6222 646.158 77.5199C647.309 77.4006 648.242 77.294 648.958 77.2003C649.674 77.098 650.194 76.9446 650.518 76.7401C650.85 76.527 651.016 76.1989 651.016 75.7557V75.679C651.016 74.7159 650.731 73.9702 650.16 73.4418C649.589 72.9134 648.766 72.6491 647.693 72.6491C646.559 72.6491 645.66 72.8963 644.995 73.3906C644.339 73.8849 643.896 74.4687 643.666 75.142L639.345 74.5284C639.685 73.3352 640.248 72.3381 641.032 71.5369C641.816 70.7273 642.775 70.1222 643.908 69.7216C645.042 69.3125 646.295 69.108 647.667 69.108C648.613 69.108 649.555 69.2188 650.492 69.4403C651.43 69.6619 652.286 70.0284 653.062 70.5398C653.837 71.0426 654.46 71.7287 654.928 72.598C655.406 73.4673 655.644 74.554 655.644 75.858V89H651.195V86.3026H651.042C650.761 86.848 650.364 87.3594 649.853 87.8366C649.35 88.3054 648.715 88.6847 647.948 88.9744C647.19 89.2557 646.299 89.3963 645.276 89.3963ZM646.478 85.9957C647.407 85.9957 648.212 85.8125 648.894 85.446C649.576 85.071 650.1 84.5767 650.467 83.9631C650.842 83.3494 651.029 82.6804 651.029 81.956V79.642C650.884 79.7614 650.637 79.8722 650.288 79.9744C649.947 80.0767 649.563 80.1662 649.137 80.2429C648.711 80.3196 648.289 80.3878 647.872 80.4474C647.454 80.5071 647.092 80.5582 646.785 80.6009C646.095 80.6946 645.477 80.848 644.931 81.0611C644.386 81.2741 643.955 81.5724 643.64 81.956C643.325 82.331 643.167 82.8168 643.167 83.4134C643.167 84.2656 643.478 84.9091 644.1 85.3438C644.722 85.7784 645.515 85.9957 646.478 85.9957ZM659.506 89V69.3636H663.993V72.6364H664.197C664.555 71.5028 665.169 70.6293 666.038 70.0156C666.916 69.3935 667.918 69.0824 669.043 69.0824C669.298 69.0824 669.584 69.0952 669.899 69.1207C670.223 69.1378 670.491 69.1676 670.705 69.2102V73.4673C670.508 73.3991 670.197 73.3395 669.771 73.2884C669.354 73.2287 668.949 73.1989 668.557 73.1989C667.713 73.1989 666.955 73.3821 666.281 73.7486C665.616 74.1065 665.092 74.6051 664.709 75.2443C664.325 75.8835 664.133 76.6207 664.133 77.456V89H659.506ZM680.872 89.3835C678.903 89.3835 677.203 88.9744 675.771 88.1562C674.348 87.3295 673.252 86.1619 672.485 84.6534C671.718 83.1364 671.335 81.3509 671.335 79.2969C671.335 77.277 671.718 75.5043 672.485 73.9787C673.261 72.4446 674.343 71.2514 675.732 70.3991C677.122 69.5384 678.754 69.108 680.629 69.108C681.839 69.108 682.981 69.304 684.055 69.696C685.137 70.0795 686.092 70.6761 686.919 71.4858C687.754 72.2955 688.41 73.3267 688.887 74.5795C689.365 75.8239 689.603 77.3068 689.603 79.0284V80.4474H673.508V77.3281H685.167C685.159 76.4418 684.967 75.6534 684.592 74.9631C684.217 74.2642 683.693 73.7145 683.019 73.3139C682.355 72.9134 681.579 72.7131 680.693 72.7131C679.747 72.7131 678.916 72.9432 678.2 73.4034C677.484 73.8551 676.926 74.4517 676.525 75.1932C676.133 75.9261 675.933 76.7315 675.924 77.6094V80.3324C675.924 81.4744 676.133 82.4545 676.551 83.2727C676.968 84.0824 677.552 84.7045 678.302 85.1392C679.052 85.5653 679.93 85.7784 680.936 85.7784C681.609 85.7784 682.218 85.6847 682.764 85.4972C683.309 85.3011 683.782 85.0156 684.183 84.6406C684.583 84.2656 684.886 83.8011 685.09 83.2472L689.411 83.733C689.139 84.875 688.619 85.8722 687.852 86.7244C687.093 87.5682 686.122 88.2244 684.937 88.6932C683.752 89.1534 682.397 89.3835 680.872 89.3835ZM703.74 96.3636C703.11 96.3636 702.526 96.3125 701.989 96.2102C701.461 96.1165 701.039 96.0057 700.723 95.8778L701.797 92.2727C702.471 92.4688 703.071 92.5625 703.6 92.554C704.128 92.5455 704.593 92.3793 704.993 92.0554C705.402 91.7401 705.748 91.2116 706.029 90.4702L706.425 89.4091L699.304 69.3636H704.213L708.739 84.1932H708.944L713.482 69.3636H718.404L710.542 91.3778C710.175 92.4176 709.689 93.3082 709.084 94.0497C708.479 94.7997 707.738 95.3707 706.86 95.7628C705.99 96.1634 704.951 96.3636 703.74 96.3636ZM728.712 89.3835C726.794 89.3835 725.132 88.9616 723.726 88.1179C722.32 87.2741 721.229 86.0937 720.453 84.5767C719.686 83.0597 719.303 81.2869 719.303 79.2585C719.303 77.2301 719.686 75.4531 720.453 73.9276C721.229 72.402 722.32 71.2173 723.726 70.3736C725.132 69.5298 726.794 69.108 728.712 69.108C730.629 69.108 732.291 69.5298 733.697 70.3736C735.104 71.2173 736.19 72.402 736.957 73.9276C737.733 75.4531 738.121 77.2301 738.121 79.2585C738.121 81.2869 737.733 83.0597 736.957 84.5767C736.19 86.0937 735.104 87.2741 733.697 88.1179C732.291 88.9616 730.629 89.3835 728.712 89.3835ZM728.737 85.6761C729.777 85.6761 730.646 85.3906 731.345 84.8196C732.044 84.2401 732.564 83.4645 732.905 82.4929C733.254 81.5213 733.429 80.4389 733.429 79.2457C733.429 78.044 733.254 76.9574 732.905 75.9858C732.564 75.0057 732.044 74.2259 731.345 73.6463C730.646 73.0668 729.777 72.777 728.737 72.777C727.672 72.777 726.785 73.0668 726.078 73.6463C725.379 74.2259 724.855 75.0057 724.506 75.9858C724.165 76.9574 723.994 78.044 723.994 79.2457C723.994 80.4389 724.165 81.5213 724.506 82.4929C724.855 83.4645 725.379 84.2401 726.078 84.8196C726.785 85.3906 727.672 85.6761 728.737 85.6761ZM753.772 80.7415V69.3636H758.4V89H753.913V85.5099H753.708C753.265 86.6094 752.536 87.5085 751.522 88.2074C750.517 88.9062 749.277 89.2557 747.802 89.2557C746.515 89.2557 745.377 88.9702 744.389 88.3991C743.409 87.8196 742.642 86.9801 742.088 85.8807C741.534 84.7727 741.257 83.4347 741.257 81.8665V69.3636H745.884V81.1506C745.884 82.3949 746.225 83.3835 746.907 84.1165C747.589 84.8494 748.484 85.2159 749.592 85.2159C750.274 85.2159 750.934 85.0497 751.573 84.7173C752.213 84.3849 752.737 83.8906 753.146 83.2344C753.563 82.5696 753.772 81.7386 753.772 80.7415ZM368.566 150.773C366.904 150.773 365.477 150.547 364.283 150.095C363.09 149.652 362.131 149.055 361.407 148.305C360.683 147.555 360.18 146.724 359.898 145.812L364.066 144.803C364.254 145.186 364.526 145.565 364.884 145.94C365.242 146.324 365.724 146.639 366.329 146.886C366.943 147.142 367.714 147.27 368.643 147.27C369.955 147.27 371.042 146.95 371.903 146.311C372.764 145.68 373.194 144.641 373.194 143.192V139.472H372.964C372.725 139.949 372.376 140.439 371.916 140.942C371.464 141.445 370.863 141.866 370.113 142.207C369.371 142.548 368.438 142.719 367.313 142.719C365.805 142.719 364.437 142.365 363.21 141.658C361.991 140.942 361.019 139.876 360.295 138.462C359.579 137.038 359.221 135.257 359.221 133.118C359.221 130.962 359.579 129.142 360.295 127.659C361.019 126.168 361.995 125.038 363.222 124.271C364.45 123.496 365.818 123.108 367.326 123.108C368.477 123.108 369.423 123.304 370.164 123.696C370.914 124.08 371.511 124.544 371.954 125.089C372.397 125.626 372.734 126.134 372.964 126.611H373.219V123.364H377.783V143.32C377.783 144.999 377.383 146.388 376.582 147.487C375.781 148.587 374.685 149.409 373.296 149.955C371.907 150.5 370.33 150.773 368.566 150.773ZM368.604 139.088C369.585 139.088 370.42 138.849 371.11 138.372C371.8 137.895 372.325 137.209 372.683 136.314C373.041 135.419 373.219 134.345 373.219 133.092C373.219 131.857 373.041 130.774 372.683 129.845C372.333 128.916 371.813 128.196 371.123 127.685C370.441 127.165 369.602 126.905 368.604 126.905C367.573 126.905 366.712 127.173 366.022 127.71C365.332 128.247 364.812 128.984 364.462 129.922C364.113 130.851 363.938 131.908 363.938 133.092C363.938 134.294 364.113 135.347 364.462 136.25C364.82 137.145 365.344 137.844 366.035 138.347C366.734 138.841 367.59 139.088 368.604 139.088ZM390.3 143.384C388.382 143.384 386.72 142.962 385.314 142.118C383.908 141.274 382.817 140.094 382.041 138.577C381.274 137.06 380.891 135.287 380.891 133.259C380.891 131.23 381.274 129.453 382.041 127.928C382.817 126.402 383.908 125.217 385.314 124.374C386.72 123.53 388.382 123.108 390.3 123.108C392.217 123.108 393.879 123.53 395.285 124.374C396.692 125.217 397.778 126.402 398.545 127.928C399.321 129.453 399.709 131.23 399.709 133.259C399.709 135.287 399.321 137.06 398.545 138.577C397.778 140.094 396.692 141.274 395.285 142.118C393.879 142.962 392.217 143.384 390.3 143.384ZM390.325 139.676C391.365 139.676 392.234 139.391 392.933 138.82C393.632 138.24 394.152 137.464 394.493 136.493C394.842 135.521 395.017 134.439 395.017 133.246C395.017 132.044 394.842 130.957 394.493 129.986C394.152 129.006 393.632 128.226 392.933 127.646C392.234 127.067 391.365 126.777 390.325 126.777C389.26 126.777 388.374 127.067 387.666 127.646C386.967 128.226 386.443 129.006 386.094 129.986C385.753 130.957 385.582 132.044 385.582 133.246C385.582 134.439 385.753 135.521 386.094 136.493C386.443 137.464 386.967 138.24 387.666 138.82C388.374 139.391 389.26 139.676 390.325 139.676ZM407.472 131.494V143H402.845V123.364H407.268V126.7H407.498C407.95 125.601 408.67 124.727 409.659 124.08C410.656 123.432 411.887 123.108 413.353 123.108C414.708 123.108 415.889 123.398 416.894 123.977C417.909 124.557 418.693 125.396 419.247 126.496C419.809 127.595 420.086 128.929 420.078 130.497V143H415.45V131.213C415.45 129.901 415.109 128.874 414.427 128.132C413.754 127.391 412.82 127.02 411.627 127.02C410.818 127.02 410.097 127.199 409.467 127.557C408.845 127.906 408.355 128.413 407.997 129.078C407.647 129.743 407.472 130.548 407.472 131.494ZM428.618 131.494V143H423.99V123.364H428.413V126.7H428.644C429.095 125.601 429.815 124.727 430.804 124.08C431.801 123.432 433.033 123.108 434.499 123.108C435.854 123.108 437.034 123.398 438.04 123.977C439.054 124.557 439.838 125.396 440.392 126.496C440.955 127.595 441.232 128.929 441.223 130.497V143H436.595V131.213C436.595 129.901 436.254 128.874 435.573 128.132C434.899 127.391 433.966 127.02 432.773 127.02C431.963 127.02 431.243 127.199 430.612 127.557C429.99 127.906 429.5 128.413 429.142 129.078C428.793 129.743 428.618 130.548 428.618 131.494ZM450.786 143.396C449.542 143.396 448.421 143.175 447.424 142.732C446.435 142.28 445.651 141.615 445.072 140.737C444.501 139.859 444.215 138.777 444.215 137.49C444.215 136.382 444.42 135.466 444.829 134.741C445.238 134.017 445.796 133.438 446.504 133.003C447.211 132.568 448.008 132.24 448.894 132.018C449.789 131.788 450.714 131.622 451.668 131.52C452.819 131.401 453.752 131.294 454.468 131.2C455.184 131.098 455.704 130.945 456.028 130.74C456.36 130.527 456.526 130.199 456.526 129.756V129.679C456.526 128.716 456.241 127.97 455.67 127.442C455.099 126.913 454.276 126.649 453.202 126.649C452.069 126.649 451.17 126.896 450.505 127.391C449.849 127.885 449.406 128.469 449.175 129.142L444.854 128.528C445.195 127.335 445.758 126.338 446.542 125.537C447.326 124.727 448.285 124.122 449.418 123.722C450.552 123.312 451.805 123.108 453.177 123.108C454.123 123.108 455.065 123.219 456.002 123.44C456.94 123.662 457.796 124.028 458.572 124.54C459.347 125.043 459.969 125.729 460.438 126.598C460.915 127.467 461.154 128.554 461.154 129.858V143H456.705V140.303H456.552C456.271 140.848 455.874 141.359 455.363 141.837C454.86 142.305 454.225 142.685 453.458 142.974C452.7 143.256 451.809 143.396 450.786 143.396ZM451.988 139.996C452.917 139.996 453.722 139.812 454.404 139.446C455.086 139.071 455.61 138.577 455.977 137.963C456.352 137.349 456.539 136.68 456.539 135.956V133.642C456.394 133.761 456.147 133.872 455.798 133.974C455.457 134.077 455.073 134.166 454.647 134.243C454.221 134.32 453.799 134.388 453.381 134.447C452.964 134.507 452.602 134.558 452.295 134.601C451.604 134.695 450.987 134.848 450.441 135.061C449.896 135.274 449.465 135.572 449.15 135.956C448.835 136.331 448.677 136.817 448.677 137.413C448.677 138.266 448.988 138.909 449.61 139.344C450.232 139.778 451.025 139.996 451.988 139.996ZM480.44 143.345C478.898 143.345 477.517 142.949 476.298 142.156C475.079 141.364 474.116 140.213 473.409 138.705C472.702 137.196 472.348 135.364 472.348 133.207C472.348 131.026 472.706 129.185 473.422 127.685C474.146 126.176 475.122 125.038 476.349 124.271C477.577 123.496 478.944 123.108 480.453 123.108C481.604 123.108 482.55 123.304 483.291 123.696C484.032 124.08 484.621 124.544 485.055 125.089C485.49 125.626 485.827 126.134 486.065 126.611H486.257V116.818H490.898V143H486.346V139.906H486.065C485.827 140.384 485.481 140.891 485.03 141.428C484.578 141.956 483.981 142.408 483.24 142.783C482.498 143.158 481.565 143.345 480.44 143.345ZM481.731 139.548C482.711 139.548 483.547 139.284 484.237 138.756C484.927 138.219 485.452 137.473 485.809 136.518C486.167 135.564 486.346 134.452 486.346 133.182C486.346 131.912 486.167 130.808 485.809 129.871C485.46 128.933 484.94 128.205 484.25 127.685C483.568 127.165 482.729 126.905 481.731 126.905C480.7 126.905 479.839 127.173 479.149 127.71C478.459 128.247 477.939 128.989 477.589 129.935C477.24 130.881 477.065 131.963 477.065 133.182C477.065 134.409 477.24 135.504 477.589 136.467C477.947 137.422 478.471 138.176 479.162 138.73C479.861 139.276 480.717 139.548 481.731 139.548ZM503.602 143.384C501.685 143.384 500.023 142.962 498.617 142.118C497.21 141.274 496.119 140.094 495.344 138.577C494.577 137.06 494.193 135.287 494.193 133.259C494.193 131.23 494.577 129.453 495.344 127.928C496.119 126.402 497.21 125.217 498.617 124.374C500.023 123.53 501.685 123.108 503.602 123.108C505.52 123.108 507.182 123.53 508.588 124.374C509.994 125.217 511.081 126.402 511.848 127.928C512.624 129.453 513.011 131.23 513.011 133.259C513.011 135.287 512.624 137.06 511.848 138.577C511.081 140.094 509.994 141.274 508.588 142.118C507.182 142.962 505.52 143.384 503.602 143.384ZM503.628 139.676C504.668 139.676 505.537 139.391 506.236 138.82C506.935 138.24 507.455 137.464 507.796 136.493C508.145 135.521 508.32 134.439 508.32 133.246C508.32 132.044 508.145 130.957 507.796 129.986C507.455 129.006 506.935 128.226 506.236 127.646C505.537 127.067 504.668 126.777 503.628 126.777C502.563 126.777 501.676 127.067 500.969 127.646C500.27 128.226 499.746 129.006 499.396 129.986C499.055 130.957 498.885 132.044 498.885 133.246C498.885 134.439 499.055 135.521 499.396 136.493C499.746 137.464 500.27 138.24 500.969 138.82C501.676 139.391 502.563 139.676 503.628 139.676ZM520.571 135.304V134.972C520.579 133.429 520.724 132.202 521.005 131.29C521.295 130.378 521.704 129.645 522.233 129.091C522.761 128.528 523.404 128.013 524.163 127.544C524.683 127.22 525.147 126.866 525.556 126.483C525.974 126.091 526.302 125.656 526.541 125.179C526.779 124.693 526.899 124.152 526.899 123.555C526.899 122.882 526.741 122.298 526.426 121.804C526.11 121.31 525.684 120.926 525.147 120.653C524.619 120.381 524.027 120.244 523.37 120.244C522.765 120.244 522.19 120.376 521.645 120.641C521.108 120.896 520.66 121.288 520.302 121.817C519.953 122.337 519.757 122.997 519.714 123.798H515.163C515.206 122.179 515.598 120.824 516.339 119.733C517.089 118.642 518.078 117.824 519.305 117.278C520.541 116.733 521.904 116.46 523.396 116.46C525.024 116.46 526.456 116.746 527.691 117.317C528.936 117.888 529.903 118.702 530.593 119.759C531.292 120.807 531.642 122.051 531.642 123.491C531.642 124.463 531.484 125.332 531.169 126.099C530.862 126.866 530.423 127.548 529.852 128.145C529.281 128.741 528.603 129.274 527.819 129.743C527.129 130.169 526.562 130.612 526.119 131.072C525.684 131.533 525.36 132.074 525.147 132.696C524.943 133.31 524.836 134.068 524.828 134.972V135.304H520.571ZM522.795 143.281C522.028 143.281 521.368 143.009 520.814 142.463C520.26 141.918 519.983 141.253 519.983 140.469C519.983 139.702 520.26 139.045 520.814 138.5C521.368 137.955 522.028 137.682 522.795 137.682C523.554 137.682 524.21 137.955 524.764 138.5C525.326 139.045 525.608 139.702 525.608 140.469C525.608 140.989 525.475 141.462 525.211 141.888C524.956 142.314 524.615 142.655 524.189 142.911C523.771 143.158 523.306 143.281 522.795 143.281Z" fill="white"/>
</g>
</g>
</svg>
